<?xml version="1.0" encoding="utf-8"?>
<!-- Generator: Adobe Illustrator 16.0.0, SVG Export Plug-In . SVG Version: 6.00 Build 0)  -->
<!DOCTYPE svg PUBLIC "-//W3C//DTD SVG 1.1//EN" "http://www.w3.org/Graphics/SVG/1.1/DTD/svg11.dtd">
<svg version="1.1" xmlns="http://www.w3.org/2000/svg" xmlns:xlink="http://www.w3.org/1999/xlink" x="0px" y="0px"
	 width="194.333px" height="172.667px" viewBox="0 0 194.333 172.667" enable-background="new 0 0 194.333 172.667"
	 xml:space="preserve">
<g id="Layer_1">
	<g>
		<line fill="none" stroke="#000000" stroke-width="2" stroke-miterlimit="10" x1="51.667" y1="148" x2="183" y2="148"/>
		<line fill="none" stroke="#000000" stroke-width="2" stroke-miterlimit="10" x1="51.667" y1="56" x2="183" y2="56"/>
		<line fill="none" stroke="#000000" stroke-miterlimit="10" x1="51.667" y1="136" x2="183" y2="136"/>
		<line fill="none" stroke="#000000" stroke-miterlimit="10" x1="51.667" y1="124.667" x2="183" y2="124.667"/>
		<line fill="none" stroke="#000000" stroke-miterlimit="10" x1="51.667" y1="114" x2="183" y2="114"/>
		<line fill="none" stroke="#000000" stroke-miterlimit="10" x1="51.667" y1="44" x2="183" y2="44"/>
		<line fill="none" stroke="#000000" stroke-miterlimit="10" x1="51.667" y1="32.667" x2="183" y2="32.667"/>
		<line fill="none" stroke="#000000" stroke-miterlimit="10" x1="51.667" y1="22" x2="183" y2="22"/>
	</g>
	<text transform="matrix(1 0 0 1 39.333 149.333)" font-family="'LMRoman7-Regular'" font-size="9">S</text>
	<text transform="matrix(0.583 0 0 0.583 45.0122 152.3301)" font-family="'LMRoman7-Regular'" font-size="9">0</text>
	<text transform="matrix(1 0 0 1 39.3335 57.5)" font-family="'LMRoman7-Regular'" font-size="9">S</text>
	<text transform="matrix(0.583 0 0 0.583 45.0127 60.4971)" font-family="'LMRoman7-Regular'" font-size="9">1</text>
	<g>
		<g>
			<line fill="none" stroke="#000000" stroke-miterlimit="10" x1="23.333" y1="14.06" x2="23.333" y2="162.333"/>
			<g>
				<polygon points="23.333,7 19.268,16.949 23.333,14.588 27.397,16.949 				"/>
			</g>
		</g>
	</g>
	<text transform="matrix(0 -1 1 0 19.0952 106.335)" font-family="'ArialMT'" font-size="9">Energy</text>
</g>
<g id="Layer_2">
	<g>
		<g>
			<line fill="none" stroke="#2E3192" stroke-width="2" stroke-miterlimit="10" x1="73.167" y1="146" x2="73.167" y2="30.561"/>
			<g>
				<polygon fill="#2E3192" points="73.167,23.5 77.232,33.449 73.167,31.088 69.102,33.449 				"/>
			</g>
		</g>
	</g>
	<g>
		<g>
			<line fill="none" stroke="#00A651" stroke-width="2" stroke-miterlimit="10" x1="115.667" y1="45" x2="115.667" y2="138.939"/>
			<g>
				<polygon fill="#00A651" points="115.667,146 111.601,136.051 115.667,138.412 119.731,136.051 				"/>
			</g>
		</g>
	</g>
	<g>
		<g>
			<line fill="none" stroke="#ED1C24" stroke-width="2" stroke-miterlimit="10" x1="165.667" y1="58" x2="165.667" y2="103.939"/>
			<g>
				<polygon fill="#ED1C24" points="165.667,111 161.601,101.051 165.667,103.412 169.731,101.051 				"/>
			</g>
		</g>
	</g>
	<g>
		<g>
			<line fill="none" stroke="#939598" stroke-miterlimit="10" x1="94.167" y1="23" x2="94.874" y2="23.707"/>
			
				<line fill="none" stroke="#939598" stroke-miterlimit="10" stroke-dasharray="2.1541,2.1541" x1="96.397" y1="25.23" x2="110.867" y2="39.701"/>
			<line fill="none" stroke="#939598" stroke-miterlimit="10" x1="111.629" y1="40.462" x2="112.336" y2="41.169"/>
			<g>
				<polygon fill="#939598" points="114.333,43.167 110.369,41.502 112.187,41.02 112.668,39.203 				"/>
			</g>
		</g>
	</g>
	<g>
		<g>
			<line fill="none" stroke="#939598" stroke-miterlimit="10" x1="134.167" y1="23" x2="134.874" y2="23.707"/>
			
				<line fill="none" stroke="#939598" stroke-miterlimit="10" stroke-dasharray="2.0907,2.0907" x1="136.352" y1="25.186" x2="162.223" y2="51.057"/>
			<line fill="none" stroke="#939598" stroke-miterlimit="10" x1="162.962" y1="51.796" x2="163.669" y2="52.503"/>
			<g>
				<polygon fill="#939598" points="165.667,54.5 161.703,52.836 163.52,52.354 164.002,50.536 				"/>
			</g>
		</g>
	</g>
	<g>
		<g>
			<line fill="none" stroke="#939598" stroke-miterlimit="10" x1="137.164" y1="144.003" x2="137.871" y2="143.296"/>
			
				<line fill="none" stroke="#939598" stroke-miterlimit="10" stroke-dasharray="1.9791,1.9791" x1="139.27" y1="141.896" x2="163.76" y2="117.407"/>
			<line fill="none" stroke="#939598" stroke-miterlimit="10" x1="164.459" y1="116.707" x2="165.167" y2="116"/>
			<g>
				<polygon fill="#939598" points="135.167,146 139.13,144.336 137.313,143.854 136.831,142.036 				"/>
			</g>
		</g>
	</g>
	
		<text transform="matrix(0 -1 1 0 70.2617 99.5186)" display="none" fill="#2E3192" font-family="'LMRoman7-Regular'" font-size="6">excitation</text>
	<text transform="matrix(0 -1 1 0 106.0952 103.0229)" display="none"><tspan x="0" y="0" display="inline" fill="#006838" font-family="'LMRoman7-Regular'" font-size="6">spontaneous</tspan><tspan x="5.676" y="7.2" display="inline" fill="#006838" font-family="'LMRoman7-Regular'" font-size="6">emission</tspan></text>
	<text transform="matrix(0 -1 1 0 153.7617 100.5566)" display="none"><tspan x="0" y="0" display="inline" fill="#ED1C24" font-family="'LMRoman7-Regular'" font-size="6">stimulated</tspan><tspan x="3.21" y="7.2" display="inline" fill="#ED1C24" font-family="'LMRoman7-Regular'" font-size="6">emission</tspan></text>
</g>
</svg>
