<?xml version="1.0" encoding="utf-8"?>
<!-- Generator: Adobe Illustrator 24.1.2, SVG Export Plug-In . SVG Version: 6.00 Build 0)  -->
<svg width="420" height="100%" version="1.1" id="Lager_3" xmlns="http://www.w3.org/2000/svg" xmlns:xlink="http://www.w3.org/1999/xlink" x="0px" y="0px"
	 viewBox="0 0 420 136.8" style="enable-background:new 0 0 420 136.8;" xml:space="preserve">
<style type="text/css">
	.st0{fill:#1D3176;}
	.st1{fill:#9A5A02;}
</style>
<g>
	<g>
		<path class="st0" d="M0,109.7c1.2,0,2-0.8,2-1.9V92.4c0-1.5-0.8-2.3-1.9-2.6v-0.7c1.2,0,2.3,0.1,3.4,0.1c1.2,0,2.3-0.1,3.5-0.1
			v0.7c-1.2,0.3-1.6,1.1-1.6,2.7c0,0.9-0.1,2.9-0.1,5.6v10.5c0.7,0.1,1.2,0.2,3.2,0.2c5.2,0,6.2-0.9,6.9-2.9l1.1,0.5l-1.3,4.3
			c-1-0.4-1.9-0.5-2.9-0.5h-10c-0.8,0-1.6,0.1-2.3,0.1C0,110.3,0,109.7,0,109.7z"/>
		<path class="st0" d="M19.3,93.4c0.9,0,1.7,0.1,2.6,0.1c0.9,0,1.8-0.1,2.6-0.1v0.5c-1.1,0.2-1.4,0.9-1.4,2.4c0,2.3,0,4.6,0,6.9
			c0,3.3,1.5,5.6,5.1,5.6c2,0,4.5-1.1,4.5-3.9V102c0-2.9-0.2-5.7-0.2-6.9c0-0.7-0.7-1.1-1.2-1.2v-0.5c0.9,0,1.7,0.1,2.6,0.1
			s1.8-0.1,2.6-0.1v0.5c-0.8,0-1.1,1-1.1,1.8c0,0.9-0.1,3.4-0.1,6.7v5.3c0,1.4,0.3,2.1,1.3,2.1v0.5c-0.7,0-1.4-0.1-2.1-0.1
			c-0.7,0-1.4,0.1-2,0.1c0-0.8,0.1-1.6,0.2-2.3c-1.8,1.7-3.3,2.6-5.8,2.6c-3.6,0-6.4-2.1-6.4-5.7v-4c0-1.9-0.1-3.6-0.1-5.1
			c0-0.9-0.2-1.7-1.2-1.9L19.3,93.4L19.3,93.4z"/>
		<path class="st0" d="M41.7,109.8c0.9-0.2,1.5-1,1.5-2.3l0.1-14.4h1l11.9,13.1v-8.4c0-3-0.7-3.7-1.8-3.9v-0.5
			c0.8,0,1.6,0.1,2.4,0.1c0.8,0,1.6-0.1,2.4-0.1v0.5c-1.1,0.2-1.6,1-1.6,3l-0.1,13.7h-0.8L44.6,97.5l0.1,9.2c0,1.9,0.6,2.8,1.8,3.1
			v0.5c-0.8,0-1.6-0.1-2.4-0.1c-0.8,0-1.6,0.1-2.4,0.1L41.7,109.8L41.7,109.8z"/>
		<path class="st0" d="M64,109.8c1-0.2,1.3-0.7,1.3-1.7V101c0-2.1-0.2-4-0.2-5.2c0-1-0.4-1.7-1.3-2v-0.4c1.1,0,2.3,0.1,3.4,0.1
			c1.1,0,2.3-0.1,3.4-0.1c6.6,0,10.7,2.9,10.7,8.4c0,5.6-3.2,8.6-10,8.6c-1.2,0-2.4-0.1-3.6-0.1c-1.2,0-2.4,0.1-3.6,0.1V109.8z
			 M67.8,109.1c1.1,0.2,2.1,0.2,3,0.2c4.6,0,7-2.8,7-7.5c0-4.4-3.1-7.5-7.4-7.5c-0.8,0-1.5,0-2.5,0.1c0,2.1-0.1,4.1-0.1,6.1V109.1z"
			/>
		<path class="st0" d="M85.4,107h0.9c0.7,1.8,2.2,2.6,4,2.6c1.7,0,3.2-1.3,3.2-3c0-5.1-8.3-2-8.3-8.5c0-3.1,2.7-4.9,5.6-4.9
			c1.6,0,3.5,0.6,4.3,1.1l0.2,2.6h-0.9c-0.4-1.6-2.1-2.7-3.7-2.7c-1.8,0-3.3,1.2-3.3,3.1c0,4.3,8.3,1.8,8.3,8.1
			c0,3.2-2.6,5.3-5.7,5.3c-1.6,0-3.3-0.2-4.7-0.9L85.4,107L85.4,107z"/>
		<g>
			<path class="st1" d="M41.6,69.2v3.1c0,0.2,0.7,0.4,0.7,0.4h-2.2c0,0,0.7-0.3,0.7-0.4v-2.6l-0.7,0.1l0-0.1L41.6,69.2z"/>
			<path class="st1" d="M55.7,69.2c-1,0.2-1.5,0.8-1.6,1.5c0.2-0.1,0.5-0.2,0.7-0.2c0.7,0,1.2,0.4,1.2,1c0,0.7-0.6,1.1-1.4,1.1
				c-0.9,0-1.5-0.6-1.5-1.4C53.1,70.2,54.1,69.2,55.7,69.2L55.7,69.2z M54.6,70.8c-0.3,0-0.4,0.1-0.6,0.2c0,0.1,0,0.2,0,0.5
				c0,0.4,0,1,0.6,1s0.5-0.5,0.5-0.9C55.1,71.3,55.1,70.8,54.6,70.8z"/>
			<path class="st1" d="M51.1,69.2c-1,0.2-1.5,0.8-1.6,1.5c0.2-0.1,0.5-0.2,0.7-0.2c0.7,0,1.2,0.4,1.2,1c0,0.7-0.6,1.1-1.4,1.1
				c-0.9,0-1.5-0.6-1.5-1.4C48.4,70.2,49.5,69.2,51.1,69.2L51.1,69.2z M49.9,70.8c-0.3,0-0.4,0.1-0.6,0.2c0,0.1,0,0.2,0,0.5
				c0,0.4,0,1,0.6,1s0.5-0.5,0.5-0.9C50.5,71.3,50.4,70.8,49.9,70.8z"/>
			<path class="st1" d="M46.4,69.2c-1,0.2-1.5,0.8-1.6,1.5c0.2-0.1,0.5-0.2,0.7-0.2c0.7,0,1.2,0.4,1.2,1c0,0.7-0.6,1.1-1.4,1.1
				c-0.9,0-1.5-0.6-1.5-1.4C43.8,70.2,44.8,69.2,46.4,69.2L46.4,69.2z M45.3,70.8c-0.3,0-0.4,0.1-0.6,0.2c0,0.1,0,0.2,0,0.5
				c0,0.4,0,1,0.6,1s0.5-0.5,0.5-0.9C45.8,71.3,45.8,70.8,45.3,70.8z"/>
			<path class="st1" d="M16.1,39.9c0.3,0.1,0.8,0.3,1.1,0.5c0,0.1-0.1,0.2-0.1,0.4c0,0.3,0,0.6-0.1,1.1c-0.2,1.3-1.3,2.2-2.4,2
				c-1.2-0.2-1.9-1.4-1.7-2.8c0.1-0.7,0.4-1,0.5-1.2c0,0,0-0.3,0-0.3l1.1,0.1c0,0-1.1,0.7-1.2,1.3c-0.2,0.9,0.4,1.6,1.4,1.8
				c1,0.2,1.9-0.4,2.1-1.3C16.9,41,16.1,39.9,16.1,39.9z"/>
			<path class="st1" d="M26.6,23.3l-2.4,2.5c0,0,0.2-0.7-0.1-1l-1.9-1.8c-0.3-0.3-0.9,0-0.9,0l1.5-1.6c0,0-0.2,0.8,0,1l1.9,1.8
				c0.2,0.2,0.3,0.2,0.4,0l0.6-0.6c0.3-0.3,0.3-1.4,0.3-1.4L26.6,23.3z"/>
			<path class="st1" d="M24.6,19.7l1.6-1.3c0,0-0.2,0.7,0,0.9l1.6,2c0.2,0.2,0.9,0.2,0.9,0.2l-1.6,1.3c0,0,0.2-0.7,0-0.9l-1.6-2
				C25.3,19.7,24.6,19.7,24.6,19.7z"/>
			<path class="st1" d="M29.9,19.7c0.2,0.3,0.9,0.3,0.9,0.3l-1.3,0.8c0,0,0.2-0.6,0.1-0.8l-1.5-2.5c-0.2,0-0.6-0.1-0.6-0.1l1.1-0.7
				l3.7,1l-1-1.7c-0.2-0.4-1-0.3-1-0.3l1.4-0.9c0,0-0.3,0.6-0.2,0.8l1.8,2.9L33,18.8l-4.3-1.1L29.9,19.7z"/>
			<path class="st1" d="M53.3,14.3c0,0,0.6,1.1,1.1,1.2c0.4,0.1,0.8-0.1,0.9-0.5c0.2-0.9-1.8-1.3-1.6-2.6c0.1-0.6,0.7-0.9,1.5-0.8
				c0.5,0.1,0.8,0.3,0.9,0.4c0,0,0.1,0,0.2,0l0.1,0l-0.1,1c0,0-0.6-1-1.1-1.1c-0.3-0.1-0.7,0.1-0.7,0.3c-0.1,0.6,0.9,0.9,1.4,1.8
				c0.2,0.3,0.2,0.6,0.2,0.9c-0.1,0.6-0.8,1-1.6,0.9c-0.5-0.1-0.9-0.4-1-0.4c-0.1,0-0.1,0-0.2,0.1l-0.2,0L53.3,14.3z"/>
			<path class="st1" d="M58.4,12.7l1.9,0.6c0,0-0.7,0.2-0.8,0.5l-0.8,2.4c-0.1,0.3,0.3,0.9,0.3,0.9l-1.9-0.6c0,0,0.7-0.2,0.8-0.5
				l0.8-2.4C58.8,13.2,58.4,12.7,58.4,12.7z"/>
			<path class="st1" d="M64.3,18.1L63.9,19c-0.5,0-1.2-0.2-1.7-0.4c-1.4-0.7-1.7-1.9-1.2-3c0.5-1.1,1.8-1.4,3-0.8
				c0.6,0.3,0.9,0.7,1.1,0.8c0.1,0,0.1,0,0.2,0l0.1,0.1L65,16.8l-0.2-0.1c0.1-0.7-0.1-1.2-0.7-1.5c-0.8-0.4-1.7-0.1-2.2,0.9
				c-0.5,0.9-0.2,1.9,0.6,2.3c0.2,0.1,0.5,0.2,0.7,0.2l0.4-0.8c0.1-0.3-0.4-0.9-0.4-0.9l1.9,1C65,17.8,64.4,17.9,64.3,18.1z"/>
			<path class="st1" d="M67.2,16.9l1.7,1.2c0,0-0.7,0-0.9,0.3l-1.4,2.1c-0.2,0.3,0.1,0.9,0.1,0.9L65,20.1c0,0,0.7,0,0.9-0.3l1.5-2.1
				C67.5,17.5,67.2,16.9,67.2,16.9z"/>
			<path class="st1" d="M73.2,28l-2.2-2.7c0,0,0.7,0.3,1,0l2-1.6c0.3-0.2,0.2-0.9,0.2-0.9l1.4,1.7c0,0-0.7-0.3-1-0.1l-2.1,1.7
				c-0.2,0.2-0.2,0.2,0,0.4l0.5,0.6c0.3,0.3,1.4,0.5,1.4,0.5L73.2,28z"/>
			<path class="st1" d="M70.4,24.6l-2.5-2.3c0,0,0.7,0.1,0.9-0.1l1.7-1.9c0.3-0.3,0-0.9,0-0.9l1.6,1.5c0,0-0.8-0.2-1,0.1l-1.8,1.9
				c-0.2,0.2-0.2,0.3,0,0.4l0.6,0.6c0.3,0.3,1.4,0.3,1.4,0.3L70.4,24.6z"/>
			<path class="st1" d="M76.6,27.2c0.3-0.4,0.3-1,0.3-1l1.1,1.9c0,0-0.7-0.4-1-0.1l-1.3,1.9l2.4-0.2c0.2,0,0.3-0.9,0.3-0.9l0.8,1.4
				c0,0-0.6-0.3-1.2-0.2l-3.7,0.3L76.6,27.2z"/>
			<path class="st1" d="M79.3,32.4L79.3,32.4L77.2,33c-0.4,0.1-0.7,0.8-0.7,0.8L76,32.5c0,0,0.5,0.3,1.1,0.2l2.2-0.6
				c0.3-0.1,0.6-0.6,0.6-0.6l0.5,1.3l-2.1,2.1l2.9,0.2l0.5,1.3c0,0-0.4-0.4-0.8-0.2L78.6,37c-0.5,0.2-0.6,0.8-0.6,0.8L77.3,36
				c0,0,0.4,0.5,0.8,0.3c0.1,0,0.2-0.1,0.3-0.1l2.1-0.9v0L76.9,35l0-0.2L79.3,32.4z"/>
			<path class="st1" d="M79.8,46.7c-0.4,0-0.8,0.6-0.8,0.6l0.1-1.6c0,0,0.4,0.5,0.6,0.6l2.9,0.1C82.7,46.3,83,46,83,46L83,47.3
				l-2.8,2.5l1.9,0.1c0.5,0,0.8-0.6,0.8-0.6l-0.1,1.7c0,0-0.3-0.6-0.6-0.6l-3.4-0.1l0-0.3l3.3-2.9L79.8,46.7z"/>
			<path class="st1" d="M82.5,52.2l-0.4,2c0,0-0.3-0.7-0.6-0.7L79,53c-0.3-0.1-0.8,0.4-0.8,0.4l0.4-2c0,0,0.3,0.6,0.6,0.7l2.5,0.5
				C82,52.7,82.5,52.2,82.5,52.2z"/>
			<path class="st1" d="M78.4,63l0.6-1.2l-1.3-0.7L77.3,62c-0.2,0.3,0.1,0.9,0.1,0.9l-1.1-0.6c0,0,0.6-0.1,0.8-0.5l0.4-0.8l-1-0.5
				c-0.2-0.1-0.3-0.1-0.4,0.1l-0.5,0.9c-0.2,0.4,0.1,1.2,0.1,1.2l-0.9-0.5l1.8-3.4c0,0,0,0.9,0.3,1l2.3,1.2c0.3,0.2,0.9-0.2,0.9-0.2
				l-1.6,3.1l-0.9-0.4C77.6,63.3,78.2,63.3,78.4,63z"/>
			<path class="st1" d="M71.8,68.1c0,0-1.3-0.1-1.6,0.3c-0.3,0.3-0.3,0.7-0.1,1c0.7,0.7,2.1-0.8,3,0.1c0.4,0.4,0.4,1.1-0.2,1.7
				c-0.3,0.3-0.7,0.5-0.8,0.6c0,0-0.1,0.2-0.1,0.2l-0.8-0.6c0,0,1.2,0,1.5-0.3c0.3-0.3,0.3-0.6,0.1-0.8c-0.4-0.4-1.2,0.3-2.3,0.3
				c-0.4,0-0.6-0.1-0.9-0.3c-0.5-0.5-0.4-1.3,0.1-1.8c0.4-0.4,0.8-0.6,0.9-0.6c0,0,0-0.1,0-0.2l0.1-0.1L71.8,68.1z"/>
			<path class="st1" d="M70.4,73.2l-1.6,1.3c0,0,0.2-0.7,0-0.9l-1.6-2c-0.2-0.2-0.9-0.2-0.9-0.2l1.6-1.3c0,0-0.2,0.7,0,0.9l1.6,2
				C69.7,73.2,70.4,73.2,70.4,73.2z"/>
			<path class="st1" d="M52.9,81.1l-2,0.2c0,0,0.6-0.5,0.5-0.8L51.1,78c0-0.3-0.7-0.6-0.7-0.6l2-0.2c0,0-0.5,0.5-0.5,0.7l0.3,2.6
				C52.3,80.7,52.9,81.1,52.9,81.1z"/>
			<path class="st1" d="M48.8,78.5c0,0-0.8-1-1.3-1c-0.4,0-0.8,0.3-0.8,0.6c0,1,2,0.9,2,2.2c0,0.6-0.6,1-1.3,1c-0.5,0-0.9-0.2-1-0.2
				c0,0-0.3,0.1-0.3,0.1l-0.1-1c0,0,0.8,0.9,1.3,0.9c0.4,0,0.6-0.2,0.6-0.4c0-0.6-1.1-0.7-1.8-1.4c-0.3-0.3-0.4-0.5-0.4-0.9
				c0-0.7,0.6-1.2,1.4-1.2c0.5,0,1,0.2,1.1,0.2c0.1,0,0.3-0.1,0.3-0.1L48.8,78.5z"/>
			<path class="st1" d="M37.7,77.1l0.3-0.9c0.5-0.1,1.2-0.1,1.7,0c1.6,0.4,2.1,1.5,1.8,2.7c-0.3,1.1-1.5,1.7-2.8,1.4
				c-0.6-0.2-1.1-0.5-1.3-0.6c-0.1,0-0.4,0-0.4,0l0.3-1.1c0,0,0.6,1.2,1.2,1.4c0.9,0.2,1.7-0.3,1.9-1.3c0.3-1-0.2-1.9-1-2.2
				c-0.2-0.1-0.5-0.1-0.7,0l-0.2,0.9c-0.1,0.6,0.6,0.8,0.6,0.8l-2.1-0.6C37.1,77.6,37.6,77.4,37.7,77.1z"/>
			<path class="st1" d="M25,68.6l-0.8,0.8l1.5,1.5l0.8-0.8c0.2-0.2,0.1-0.9,0.1-0.9l1.5,1.4c0,0-0.7-0.1-0.9,0.1l-1.8,1.9
				c-0.2,0.2-0.1,0.9-0.1,0.9L23.9,72c0,0,0.7,0.2,0.9-0.1l0.7-0.7L24,69.7l-0.7,0.7c-0.2,0.3-0.1,0.9-0.1,0.9L21.7,70
				c0,0,0.7,0.1,0.9-0.1l1.8-1.8c0.2-0.2,0.1-0.9,0.1-0.9l1.5,1.4C26,68.5,25.3,68.4,25,68.6z"/>
			<path class="st1" d="M14,52.7L14,52.7l2.3-0.2c0.4,0,0.8-0.6,0.8-0.6l0.2,1.4c0,0-0.5-0.5-1-0.4L14,53.1c-0.3,0-0.7,0.5-0.7,0.5
				l-0.2-1.3l2.5-1.6l-2.8-0.8l-0.2-1.4c0,0,0.3,0.5,0.8,0.4l2.3-0.5c0.5-0.1,0.8-0.7,0.8-0.7l0.3,2c0,0-0.3-0.6-0.7-0.5
				c-0.1,0-0.2,0-0.3,0.1l-2.2,0.5v0l3.4,1l0,0.2L14,52.7z"/>
			<path class="st1" d="M81.9,41.3c0.4-0.3,0.7-0.8,0.7-0.8l0.2,2.2c0,0-0.5-0.7-0.9-0.5l-1.7,1l2.1,1c0.2,0.1,0.6-0.6,0.6-0.6
				l0.2,1.6c0,0-0.5-0.5-1-0.7l-3.3-1.4L81.9,41.3z"/>
			<path class="st1" d="M80.9,55.7c0.5-0.1,1-0.5,1-0.5l-0.7,2.1c0,0-0.2-0.8-0.6-0.8l-2,0.3l1.6,1.7c0.2,0.2,0.8-0.3,0.8-0.3
				l-0.5,1.6c0,0-0.2-0.7-0.7-1l-2.5-2.6L80.9,55.7z"/>
			<path class="st1" d="M15.5,58.3c-0.4,0.3-0.5,0.9-0.5,0.9l-0.7-2.1c0,0,0.6,0.6,0.9,0.3l1.5-1.4l-2.3-0.4c-0.2,0-0.4,0.7-0.4,0.7
				l-0.5-1.5c0,0,0.6,0.4,1.1,0.4l3.5,0.6L15.5,58.3z"/>
			<path class="st1" d="M29.6,72.4c0.2-0.3-0.2-1-0.2-1l1.9,1.3c0,0-0.8-0.1-1,0.2l-1.8,2.6l0.6,0.4c0.4,0.3,1.2-0.1,1.2-0.1
				l-0.7,0.8l-3.4-2.3l0.5-0.9c0,0,0,0.9,0.4,1.2l0.6,0.4L29.6,72.4z"/>
			<path class="st1" d="M54.9,77.3c-0.1-0.3-0.9-0.6-0.9-0.6l2.2-0.5c0,0-0.6,0.5-0.5,0.9l0.7,3l0.7-0.2C57.7,79.8,58,79,58,79
				l0.1,1l-4,0.9l-0.4-1c0,0,0.6,0.6,1.1,0.5l0.7-0.2L54.9,77.3z"/>
			<path class="st1" d="M63.8,73.8c-0.2-0.3-1-0.3-1-0.3l2-1.2c0,0-0.4,0.7-0.2,1l1.6,2.7l0.7-0.4c0.4-0.2,0.4-1.1,0.4-1.1l0.4,0.9
				l-3.5,2l-0.6-0.8c0,0,0.8,0.4,1.2,0.2l0.7-0.4L63.8,73.8z"/>
			<path class="st1" d="M79.7,39.3c0-0.3,0.3-0.6,0.6-0.6c0.3,0,0.6,0.3,0.6,0.6S80.7,40,80.3,40S79.7,39.7,79.7,39.3z"/>
			<path class="st1" d="M43,79c0-0.3,0.3-0.6,0.6-0.6c0.3,0,0.6,0.3,0.6,0.6c0,0.3-0.3,0.6-0.6,0.6S43,79.3,43,79z"/>
			<path class="st1" d="M14.1,46.1c0-0.3,0.3-0.6,0.6-0.6s0.6,0.3,0.6,0.6s-0.3,0.6-0.6,0.6C14.4,46.7,14.1,46.4,14.1,46.1z"/>
			<path class="st1" d="M19.7,28c-0.8-0.6-1-1.4-0.5-2c0.6-0.8,1.7-0.6,2.5,0c0.7,0.5,1.1,1.3,0.6,2C21.8,28.8,20.7,28.8,19.7,28z
				 M19.4,29c0.9,0.6,2.1,0.5,3-0.7c0.9-1.2,0.6-2.5-0.3-3.2c-1-0.7-2.2-0.4-3,0.7C18.2,26.9,18.4,28.3,19.4,29z"/>
			<path class="st1" d="M36.1,15.7l-1.3,0.4l0.1-1.9L36.1,15.7z M36.9,15.2l1.1-0.4c0.5-0.2,1.1,0,1.1,0l-0.9-1c0,0-0.1,0.6-0.4,0.7
				l-1.2,0.5l-1-1.3l1.7-0.6c0.3-0.1,1,0.2,1,0.2l-0.7-0.7l-3.6,1.2c0,0,0.5,0.1,0.4,0.7l0,2.7c-0.1,0.5-0.3,1-0.3,1l1.4-0.5
				c0,0-0.6-0.3-0.6-0.6l0.1-0.8l1.5-0.5l0.9,1l3.4-1.3l-0.7-0.8c0,0,0.2,0.6-0.1,0.7l-1.8,0.7L36.9,15.2z"/>
			<path class="st1" d="M18.9,33c0.3,0.1,0.9-0.3,0.9-0.3l-0.9,2c0,0,0-0.7-0.4-0.9l-2.3-1.1c-0.3-0.1-0.9,0.3-0.9,0.3
				c0.1-0.3,0.2-0.5,0.3-0.8c0.1-0.3,0.3-0.8,0.4-1c0.4-0.9,0.7-1.3,1.1-1.4c0.3-0.1,0.5-0.1,0.8,0c0.4,0.2,0.6,0.7,0.5,1.3
				c0.5-0.2,1.1-0.2,1.7-0.4c0.3-0.1,0.9-0.5,0.9-0.5c-0.1,0.1-0.1,0.2-0.2,0.4c-0.3,0.7-0.6,1-1,1.1c-0.4,0.2-1.2,0.2-1.7,0.4
				L18,32.6L18.9,33z M17.8,32.4l0.1-0.2c0.3-0.7,0.3-1.2-0.3-1.5c-0.6-0.3-1.1,0.1-1.3,0.6l-0.1,0.3L17.8,32.4z"/>
			<path class="st1" d="M16.5,37.9l0.5,0.5c0.2,0.2,0.8-0.4,0.8-0.4l-0.5,1.7c0,0-0.2-0.7-0.5-0.9l-3.1-2.6l0,0l4-0.6
				c0.4-0.1,0.9-0.4,0.9-0.4l-0.6,2.1c0,0-0.2-0.8-0.5-0.7L17,36.5L16.5,37.9z M15.2,36.8l1.1,0.9l0.3-1.1L15.2,36.8z"/>
			<path class="st1" d="M19.5,61c0.3-0.2,0.3-0.9,0.3-0.9l1.1,2c0,0-0.6-0.4-0.9-0.2L17.7,63c-0.3,0.1-0.3,0.9-0.3,0.9
				c-0.2-0.3-0.3-0.5-0.4-0.7c-0.2-0.3-0.4-0.7-0.5-0.9C16,61.5,15.8,61,16,60.5c0.1-0.3,0.3-0.5,0.5-0.6c0.4-0.2,0.9-0.1,1.4,0.4
				c0.1-0.5,0.5-1,0.6-1.6c0.1-0.4,0.2-1,0.2-1c0.1,0.1,0.1,0.2,0.2,0.3c0.4,0.7,0.4,1,0.3,1.5c-0.1,0.4-0.6,1.1-0.7,1.6l0.2,0.5
				L19.5,61z M18.5,61.6l-0.1-0.2c-0.4-0.7-0.8-1-1.4-0.6c-0.6,0.3-0.6,0.9-0.3,1.4l0.2,0.3L18.5,61.6z"/>
			<path class="st1" d="M19.2,67c-0.8-1.1-0.7-2.3,0.3-3.1c0.9-0.7,2.3-0.6,3.2,0.6c0.9,1.2,0.6,2.4-0.2,3.1
				C21.4,68.4,20.1,68.1,19.2,67z M22.4,64.6c-0.5-0.7-1.4-0.6-2.1-0.1c-0.8,0.6-1.3,1.6-0.7,2.4c0.5,0.7,1.3,0.7,2.1,0.1
				C22.6,66.3,22.9,65.3,22.4,64.6z"/>
			<path class="st1" d="M33,78.2c-1.2-0.6-1.7-1.7-1.2-2.8c0.5-1,1.7-1.6,3.1-0.9c1.3,0.6,1.7,1.8,1.3,2.8
				C35.6,78.4,34.2,78.8,33,78.2z M34.6,74.6c-0.8-0.4-1.5,0.2-1.9,0.9c-0.4,0.9-0.4,2,0.5,2.4c0.7,0.3,1.5,0,1.9-0.9
				C35.6,76,35.4,75,34.6,74.6z"/>
			<path class="st1" d="M73.8,64.7c-0.3-0.2-1,0.1-1,0.1l1.3-1.8c0,0-0.1,0.7,0.2,1l2,1.5c0.2,0.2,1-0.1,1-0.1
				c-0.2,0.3-0.3,0.5-0.5,0.7c-0.2,0.3-0.5,0.7-0.6,0.9c-0.6,0.8-1,1.1-1.4,1.2c-0.3,0-0.5,0-0.8-0.2c-0.4-0.3-0.5-0.8-0.3-1.4
				c-0.5,0.1-1.1,0-1.7,0.1c-0.4,0.1-1,0.3-1,0.3c0.1-0.1,0.1-0.2,0.2-0.3c0.5-0.6,0.8-0.8,1.2-0.9c0.5-0.1,1.2,0,1.7-0.1l0.3-0.4
				L73.8,64.7z M74.8,65.4l-0.2,0.2c-0.5,0.6-0.5,1.1,0,1.5c0.5,0.4,1.1,0.1,1.4-0.4l0.2-0.3L74.8,65.4z"/>
			<path class="st1" d="M61,75.9l0-0.7c0-0.3-0.8-0.4-0.8-0.4l1.6-0.6c0,0-0.4,0.5-0.4,0.9l-0.2,4l0,0l-3-2.8
				c-0.3-0.3-0.9-0.4-0.9-0.4l2-0.8c0,0-0.5,0.6-0.3,0.8l0.5,0.5L61,75.9z M60.9,77.6l0-1.4l-1.1,0.4L60.9,77.6z"/>
			<path class="st1" d="M48.2,20.2c-0.2-0.5-0.6-0.8-0.6-0.8l2.2,0.2c0,0-0.7,0.4-0.6,0.8l0.7,1.8l1.2-1.9c0.1-0.2-0.5-0.6-0.5-0.6
				l1.6,0.1c0,0-0.6,0.4-0.8,0.8l-1.9,2.9L48.2,20.2z"/>
			<path class="st1" d="M30.5,26.8c-0.4-0.2-1-0.2-1-0.2l1.7-1.3c0,0-0.3,0.8,0.1,0.9l1.7,0.9l-0.3-2.2c-0.1-0.2-0.8-0.1-0.8-0.1
				l1.2-1c0,0-0.2,0.7,0,1.2l0.6,3.4L30.5,26.8z"/>
			<path class="st1" d="M63.8,25.7c0.2-0.5,0-1,0-1l1.6,1.4c0,0-0.8-0.2-0.9,0.2l-0.6,2l2.2-0.8c0.2-0.1,0-0.8,0-0.8l1.2,1.1
				c0,0-0.7-0.1-1.2,0.2L62.7,29L63.8,25.7z"/>
			<path class="st1" d="M37.3,25.2c0.1,0.3,0.9,0.3,0.9,0.3l-2,0.9c0,0,0.5-0.6,0.3-0.9l-1.3-2.8l-0.7,0.3c-0.4,0.2-0.5,1.1-0.5,1.1
				l-0.3-0.9l3.6-1.7l0.5,0.8c0,0-0.7-0.5-1.2-0.3L36,22.5L37.3,25.2z"/>
			<path class="st1" d="M53.6,20.9L53.6,20.9L52.8,23c-0.1,0.4,0.2,1,0.2,1l-1.3-0.4c0,0,0.6-0.2,0.8-0.7l0.8-2.1
				c0.1-0.3-0.2-0.8-0.2-0.8l1.3,0.4l0.4,2.9l1.9-2.2l1.3,0.4c0,0-0.5,0.1-0.6,0.6l-0.5,2.2c-0.1,0.5,0.3,1,0.3,1l-1.9-0.6
				c0,0,0.6-0.1,0.8-0.5c0-0.1,0-0.2,0.1-0.3l0.5-2.2h0l-2.2,2.6l-0.1,0L53.6,20.9z"/>
			<path class="st1" d="M69,30.4l-0.8-1.1L67,30.2l0.6,0.8c0.2,0.3,0.8,0.3,0.8,0.3l-1,0.8c0,0,0.2-0.5-0.1-0.9l-0.6-0.7l-0.9,0.7
				c-0.2,0.2-0.2,0.2-0.1,0.4l0.6,0.8c0.3,0.3,1.1,0.4,1.1,0.4l-0.8,0.5l-2.3-3c0,0,0.8,0.3,1,0.2l2-1.5c0.3-0.2,0.2-0.9,0.2-0.9
				l2.1,2.7L69,31.3C68.9,31.3,69.2,30.6,69,30.4z"/>
			<path class="st1" d="M44.6,22.9c0,0.3,0.8,0.6,0.8,0.6l-2.2,0.2c0,0,0.6-0.4,0.6-0.8l-0.3-2.4c0-0.3-0.7-0.6-0.7-0.6
				c0.3,0,0.5-0.1,0.8-0.1c0.3-0.1,0.8-0.1,1-0.2c0.9-0.1,1.4,0,1.8,0.2c0.2,0.2,0.3,0.4,0.4,0.7c0,0.5-0.3,0.9-0.8,1.1
				c0.4,0.3,0.7,0.8,1.2,1.2c0.3,0.2,0.9,0.5,0.9,0.5c-0.1,0-0.2,0-0.4,0c-0.8,0.1-1.1,0-1.4-0.3c-0.3-0.3-0.8-0.9-1.2-1.2l-0.5,0
				L44.6,22.9z M44.5,21.7l0.2,0c0.8-0.1,1.2-0.3,1.1-1c-0.1-0.7-0.6-0.8-1.2-0.8l-0.3,0L44.5,21.7z"/>
			<path class="st1" d="M24.8,32.5c0.2-0.3,0.4-0.6,0.5-0.8c0.2-0.3,0.3-0.5,0.5-0.7c0.7-1,1.2-1.4,1.8-1.5c0.5-0.1,0.9,0,1.4,0.3
				c0.5,0.3,0.7,0.8,0.8,1.3c0.1,0.4,0,1.1-0.7,2.1l-1.1,1.6c0,0,0.1-0.7-0.2-0.9l-2-1.4C25.4,32.2,24.8,32.5,24.8,32.5z M28.2,33.1
				c0.3,0.2,0.4,0.2,0.7-0.2c0.8-1.1,0.2-2-0.4-2.4c-0.4-0.3-0.9-0.4-1.3-0.3c-0.4,0.1-0.8,0.3-1.1,0.9c-0.1,0.1-0.2,0.3-0.3,0.4
				L28.2,33.1z"/>
			<path class="st1" d="M25.2,37.8l0.5,0.5c0.2,0.2,0.8-0.3,0.8-0.3l-0.6,1.6c0,0-0.1-0.6-0.4-0.9l-2.7-2.8l0,0l4-0.2
				c0.4,0,0.9-0.3,0.9-0.3l-0.8,1.9c0,0-0.1-0.8-0.4-0.7l-0.7,0L25.2,37.8z M24.1,36.6l1,1l0.4-1L24.1,36.6z"/>
			<g>
				<path class="st1" d="M61.4,22.9c1.1,0.6,1.6,1.8,1,2.8c-0.5,1-1.8,1.4-3.1,0.7c-1.3-0.7-1.6-1.9-1.1-2.8
					C58.9,22.6,60.2,22.3,61.4,22.9z M59.6,26.3c0.8,0.4,1.5,0,1.9-0.8c0.5-0.9,0.5-1.9-0.3-2.4c-0.7-0.4-1.4-0.1-1.9,0.7
					C58.7,24.9,58.8,25.9,59.6,26.3z"/>
				<path class="st1" d="M61.5,29.3c-1.3-1.1-0.9-0.9-1.2-2c-0.4-1.1-0.1-2.7-0.4-2.9c-0.3-0.2,0.6-0.2,0.8,2.2
					C61,29,61.5,29.3,61.5,29.3z"/>
			</g>
			<path class="st1" d="M28.9,78.5c-11-6.5-18.5-18.5-18.5-32.3c0-20.6,16.8-37.4,37.4-37.4s37.4,16.8,37.4,37.4
				c0,20.6-16.8,37.4-37.4,37.4c-6.8,0-13.2-1.8-18.8-5l-0.6-0.3l-0.4,0.6l0.6,0.4c5.6,3.3,12.2,5.2,19.2,5.2
				c21.1,0,38.2-17.2,38.2-38.2S69,8,47.9,8C26.8,8,9.6,25.1,9.6,46.2c0,14,7.6,26.3,18.8,33l0.5,0.2l0.4-0.7L28.9,78.5z"/>
			<path class="st1" d="M32.9,70.5c-8.1-5-13.6-14.1-13.6-24.3c0-13.3,9.1-24.5,21.4-27.7l0.2-0.7C28.2,21,18.7,32.5,18.7,46.2
				c0,10.5,5.5,19.7,13.8,24.8l0.4,0.2l0.3-0.5L32.9,70.5z"/>
			<path class="st1" d="M32.9,71.2c4.4,2.6,9.5,4.2,15,4.2C64,75.4,77,62.3,77,46.2S64,17.1,47.9,17.1c-1.9,0-3.7,0.2-5.4,0.5
				l-0.1,0.6c1.8-0.4,3.7-0.5,5.6-0.5c15.7,0,28.6,12.8,28.6,28.6S63.6,74.7,47.9,74.7c-5.4,0-10.4-1.5-14.8-4.1l-0.4-0.3l-0.4,0.4
				L32.9,71.2z"/>
			<g>
				<path class="st1" d="M47.6,14.9c-0.3,0-0.5-0.1-0.8-0.2c-0.2-0.1-0.4-0.3-0.6-0.5"/>
				<path class="st1" d="M48,12.5l1-0.9c0.2,0.2,0.4,0.4,0.5,0.6c0.1,0.2,0.2,0.5,0.2,0.7l-1.4,0.1l1.2,0.6
					c-0.1,0.2-0.2,0.5-0.5,0.7c-0.2,0.2-0.4,0.3-0.7,0.4l-0.5-1.3l-0.2,1.4c-0.3,0-0.5-0.1-0.8-0.2c-0.2-0.1-0.4-0.3-0.6-0.5l1-0.9
					L46,13.4c-0.1-0.3-0.1-0.5,0-0.8c0.1-0.3,0.2-0.5,0.3-0.7l1.1,0.7l-0.6-1.1c0.2-0.1,0.5-0.2,0.8-0.3c0.3,0,0.5,0,0.8,0.1
					L48,12.5z"/>
			</g>
			<g>
				<g>
					<path class="st1" d="M61.9,38.3c-0.3,0-0.6-0.2-0.7-0.5c-0.1-0.3,0.2-0.5,0.2-0.5c0,0,0,0,0,0c0,0,0,0,0,0v0c0.1,0,0.1,0,0.2,0
						c0.2,0,0.2-0.1,0.2-0.2c0-0.2-0.2-0.3-0.3-0.3c-0.2,0-0.4,0.1-0.5,0c0,0-0.1-0.2,0-0.3c0-0.1,0.1-0.2,0.1-0.3
						c0-0.1-0.1-0.2-0.3-0.2c-0.1,0-0.2,0.1-0.2,0.2c0,0.2,0.1,0.2,0.2,0.3c0.1,0.1,0.1,0.2,0,0.3c0,0-0.3,0.2-0.3,0.2l0,0
						c0,0,0,0-0.1,0c-0.2,0-0.3,0.1-0.3,0.3c0,0.2,0.1,0.3,0.3,0.3c0.1,0,0.2-0.1,0.3-0.2c0,0,0.3,0.2,0.2,0.5
						c0,0.3-0.1,0.5-0.5,0.6c-0.4,0.1-0.6-0.1-0.6-0.1s-0.1,0.3-0.5,0.3c-0.5-0.1-0.6-0.7-0.6-0.7s0.2,0,0.3-0.3
						c0.1-0.2-0.1-0.4-0.3-0.4c-0.2,0-0.4,0.2-0.6,0.1c-0.2-0.1,0.1-0.5-0.2-0.7c-0.3-0.2-0.4,0.2-0.4,0.2s0.4,0.4,0.9,1.2
						c0.4,0.6,1,1.3,1,1.3l-0.3,0.2c0,0-0.4-0.6-1.1-1.5c-0.6-0.7-1-1.2-1-1.2s0-0.1,0.1-0.2c0.2-0.2,0.5-0.5,0.9-0.3
						c0.4,0.2,0.2,0.7,0.2,0.7s0.2-0.2,0.5-0.2c0.3,0,0.7,0.4,0.6,0.7c-0.1,0.4-0.3,0.5-0.3,0.5s0,0.2,0.3,0.1
						c0.2,0,0.3-0.3,0.3-0.3c0,0,0.5,0.4,0.8,0.1c0,0,0-0.1,0.1-0.1c0,0-0.1,0-0.1,0c-0.3,0-0.6-0.3-0.6-0.6c0-0.3,0.3-0.6,0.6-0.6
						c0.1,0,0,0,0.2,0l0,0c-0.1-0.1-0.3-0.2-0.3-0.5c0-0.3,0.3-0.6,0.6-0.6s0.6,0.3,0.6,0.5c0,0.2-0.1,0.3-0.2,0.4l0,0
						c0.1-0.1,0.2-0.1,0.4-0.1c0.3,0,0.6,0.3,0.6,0.6c0,0.3-0.3,0.6-0.6,0.6c0,0-0.1,0-0.1,0l0,0c0.1,0.1,0.3,0.2,0.4,0.2
						c0.4,0.1,0.5-0.2,0.5-0.2s0.2,0.2,0.4,0.1c0.3-0.1,0.3-0.3,0.3-0.3s-0.3,0-0.5-0.3c-0.2-0.3-0.2-0.5,0.1-0.7
						c0.3-0.2,0.6-0.1,0.6-0.1s-0.3-0.4-0.1-0.7c0.3-0.3,0.6-0.2,0.9-0.1c0.2,0.1,0.3,0.2,0.3,0.2s-0.3,0.5-0.5,1.4
						c-0.3,1.2-0.4,1.8-0.4,1.8l-0.3-0.1c0,0,0.2-1,0.4-1.8c0.2-0.8,0.4-1.1,0.4-1.1s-0.3-0.3-0.5,0c-0.2,0.3,0.3,0.5,0.1,0.6
						c-0.2,0.2-0.5,0-0.6,0.1c-0.2,0.1-0.2,0.2-0.1,0.4c0.1,0.2,0.4,0.1,0.4,0.1s0.2,0.6-0.3,0.9c-0.3,0.2-0.6,0-0.6,0
						S62.5,38.3,61.9,38.3z"/>
					<path class="st1" d="M59.1,39.4c0-0.3,0.9-0.7,2.2-0.8c1.2-0.1,2.3,0,2.3,0.3c0,0.3-0.9,0.7-2.2,0.8
						C60.2,39.9,59.1,39.8,59.1,39.4z M61.2,39.5c0.8-0.1,1.3-0.2,1.2-0.4c0-0.1-0.6-0.2-1.4-0.1c-0.8,0.1-1.4,0.3-1.4,0.4
						C59.7,39.5,60.4,39.5,61.2,39.5z"/>
				</g>
				<g>
					<path class="st1" d="M69.7,37.2c-0.3,0-0.6-0.2-0.7-0.5c-0.1-0.3,0.2-0.5,0.2-0.5c0,0,0,0,0,0c0,0,0,0,0,0v0c0.1,0,0.1,0,0.2,0
						c0.2,0,0.2-0.1,0.2-0.2c0-0.2-0.2-0.3-0.3-0.3c-0.2,0-0.4,0.1-0.5,0c0,0-0.1-0.2,0-0.3c0-0.1,0.1-0.2,0.1-0.3
						c0-0.1-0.1-0.2-0.3-0.2c-0.1,0-0.2,0.1-0.2,0.2c0,0.2,0.1,0.2,0.2,0.3c0.1,0.1,0.1,0.2,0,0.3c0,0-0.3,0.2-0.3,0.2l0,0
						c0,0,0,0-0.1,0c-0.2,0-0.3,0.1-0.3,0.3c0,0.2,0.1,0.3,0.3,0.3c0.1,0,0.2-0.1,0.3-0.2c0,0,0.3,0.2,0.2,0.5
						c0,0.3-0.1,0.5-0.5,0.6c-0.4,0.1-0.6-0.1-0.6-0.1s-0.1,0.3-0.5,0.3c-0.5-0.1-0.6-0.7-0.6-0.7s0.2,0,0.3-0.3
						c0.1-0.2-0.1-0.4-0.3-0.4c-0.2,0-0.4,0.2-0.6,0.1c-0.2-0.1,0.1-0.5-0.2-0.7c-0.3-0.2-0.4,0.2-0.4,0.2s0.4,0.4,0.9,1.2
						c0.4,0.6,1,1.3,1,1.3L67,38.4c0,0-0.4-0.6-1.1-1.5c-0.6-0.7-1-1.2-1-1.2s0-0.1,0.1-0.2c0.2-0.2,0.5-0.5,0.9-0.3
						s0.2,0.7,0.2,0.7s0.2-0.2,0.5-0.2c0.3,0,0.7,0.4,0.6,0.7c-0.1,0.4-0.3,0.5-0.3,0.5s0,0.2,0.3,0.1c0.2,0,0.3-0.3,0.3-0.3
						c0,0,0.5,0.4,0.8,0.1c0,0,0-0.1,0.1-0.1c0,0-0.1,0-0.1,0c-0.3,0-0.6-0.3-0.6-0.6c0-0.3,0.3-0.6,0.6-0.6c0.1,0,0,0,0.2,0l0,0
						c-0.1-0.1-0.3-0.2-0.3-0.5c0-0.3,0.3-0.6,0.6-0.6s0.6,0.3,0.6,0.5c0,0.2-0.1,0.3-0.2,0.4l0,0c0.1-0.1,0.2-0.1,0.4-0.1
						c0.3,0,0.6,0.3,0.6,0.6c0,0.3-0.3,0.6-0.6,0.6c0,0-0.1,0-0.1,0l0,0c0.1,0.1,0.3,0.2,0.4,0.2c0.4,0.1,0.5-0.2,0.5-0.2
						s0.2,0.2,0.4,0.1c0.3-0.1,0.3-0.3,0.3-0.3s-0.3,0-0.5-0.3c-0.2-0.3-0.2-0.5,0.1-0.7c0.3-0.2,0.6-0.1,0.6-0.1s-0.3-0.4-0.1-0.7
						c0.3-0.3,0.6-0.2,0.9-0.1c0.2,0.1,0.3,0.2,0.3,0.2s-0.3,0.5-0.5,1.4c-0.3,1.2-0.4,1.8-0.4,1.8l-0.3-0.1c0,0,0.2-1,0.4-1.8
						c0.2-0.8,0.4-1.1,0.4-1.1s-0.3-0.3-0.5,0c-0.2,0.3,0.3,0.5,0.1,0.6c-0.2,0.2-0.5,0-0.6,0.1c-0.2,0.1-0.2,0.2-0.1,0.4
						s0.4,0.1,0.4,0.1s0.2,0.6-0.3,0.9c-0.3,0.2-0.6,0-0.6,0S70.3,37.2,69.7,37.2z"/>
					<path class="st1" d="M66.9,38.3c0-0.3,0.9-0.7,2.2-0.8c1.2-0.1,2.3,0,2.3,0.3c0,0.3-0.9,0.7-2.2,0.8
						C68,38.8,66.9,38.6,66.9,38.3z M69,38.3c0.8-0.1,1.3-0.2,1.2-0.4c0-0.1-0.6-0.2-1.4-0.1c-0.8,0.1-1.4,0.3-1.4,0.4
						C67.5,38.3,68.2,38.4,69,38.3z"/>
				</g>
				<g>
					<path class="st1" d="M66.5,42.5c-0.3,0-0.6-0.2-0.7-0.5c-0.1-0.3,0.2-0.5,0.2-0.5c0,0,0,0,0,0c0,0,0,0,0,0v0c0.1,0,0.1,0,0.2,0
						c0.2,0,0.2-0.1,0.2-0.2c0-0.2-0.2-0.3-0.3-0.3c-0.2,0-0.4,0.1-0.5,0c0,0-0.1-0.2,0-0.3c0-0.1,0.1-0.2,0.1-0.3
						c0-0.1-0.1-0.2-0.3-0.2c-0.1,0-0.2,0.1-0.2,0.2c0,0.2,0.1,0.2,0.2,0.3c0.1,0.1,0.1,0.2,0,0.3c0,0-0.3,0.2-0.3,0.2l0,0
						c0,0,0,0-0.1,0c-0.2,0-0.3,0.1-0.3,0.3c0,0.2,0.1,0.3,0.3,0.3c0.1,0,0.2-0.1,0.3-0.2c0,0,0.3,0.2,0.2,0.5
						c0,0.3-0.1,0.5-0.5,0.6c-0.4,0.1-0.6-0.1-0.6-0.1s-0.1,0.3-0.5,0.3c-0.5-0.1-0.6-0.7-0.6-0.7s0.2,0,0.3-0.3
						c0.1-0.2-0.1-0.4-0.3-0.4c-0.2,0-0.4,0.2-0.6,0.1c-0.2-0.1,0.1-0.5-0.2-0.7c-0.3-0.2-0.4,0.2-0.4,0.2s0.4,0.4,0.9,1.2
						c0.4,0.6,1,1.3,1,1.3l-0.3,0.2c0,0-0.4-0.6-1.1-1.5c-0.6-0.7-1-1.2-1-1.2s0-0.1,0.1-0.2c0.2-0.2,0.5-0.5,0.9-0.3
						c0.4,0.2,0.2,0.7,0.2,0.7s0.2-0.2,0.5-0.2c0.3,0,0.7,0.4,0.6,0.7c-0.1,0.4-0.3,0.5-0.3,0.5s0,0.2,0.3,0.1
						c0.2,0,0.3-0.3,0.3-0.3c0,0,0.5,0.4,0.8,0.1c0,0,0-0.1,0.1-0.1c0,0-0.1,0-0.1,0c-0.3,0-0.6-0.3-0.6-0.6c0-0.3,0.3-0.6,0.6-0.6
						c0.1,0,0,0,0.2,0l0,0c-0.1-0.1-0.3-0.2-0.3-0.5c0-0.3,0.3-0.6,0.6-0.6c0.3,0,0.6,0.3,0.6,0.5c0,0.2-0.1,0.3-0.2,0.4l0,0
						c0.1-0.1,0.2-0.1,0.4-0.1c0.3,0,0.6,0.3,0.6,0.6c0,0.3-0.3,0.6-0.6,0.6c0,0-0.1,0-0.1,0l0,0c0.1,0.1,0.3,0.2,0.4,0.2
						c0.4,0.1,0.5-0.2,0.5-0.2s0.2,0.2,0.4,0.1c0.3-0.1,0.3-0.3,0.3-0.3s-0.3,0-0.5-0.3c-0.2-0.3-0.2-0.5,0.1-0.7
						c0.3-0.2,0.6-0.1,0.6-0.1s-0.3-0.4-0.1-0.7c0.3-0.3,0.6-0.2,0.9-0.1c0.2,0.1,0.3,0.2,0.3,0.2s-0.3,0.5-0.5,1.4
						c-0.3,1.2-0.4,1.8-0.4,1.8L67.9,43c0,0,0.2-1,0.4-1.8c0.2-0.8,0.4-1.1,0.4-1.1s-0.3-0.3-0.5,0c-0.2,0.3,0.3,0.5,0.1,0.6
						c-0.2,0.2-0.5,0-0.6,0.1c-0.2,0.1-0.2,0.2-0.1,0.4s0.4,0.1,0.4,0.1s0.2,0.6-0.3,0.9c-0.3,0.2-0.6,0-0.6,0S67,42.5,66.5,42.5z"
						/>
					<path class="st1" d="M63.7,43.6c0-0.3,0.9-0.7,2.2-0.8c1.2-0.1,2.3,0,2.3,0.3c0,0.3-0.9,0.7-2.2,0.8
						C64.8,44.1,63.7,44,63.7,43.6z M65.8,43.7c0.8-0.1,1.3-0.2,1.2-0.4c0-0.1-0.6-0.2-1.4-0.1c-0.8,0.1-1.4,0.3-1.4,0.4
						C64.3,43.7,65,43.7,65.8,43.7z"/>
				</g>
			</g>
			<path class="st1" d="M50.5,35.7c-1,1.1-0.3,2.8-0.6,4.2c-0.4,1.2-1.6,1.9-2,3.1c-0.1,0.7-0.2,1.6,0.3,2.2c0-0.1-0.1-0.1-0.1-0.2
				c-0.2-1.4,0.2-2.4,1.5-3.6c1.9-2.1-0.3-3.8,1.4-5.4L50.5,35.7z"/>
			<path class="st1" d="M54.8,48.9c0.8,0,1.4-0.1,2.2-0.3c0.8-0.2,1.5-0.5,2.2-0.7c1.6-0.5,2.6-0.9,4.3-0.9h0.2
				c0.5,0,0.9,0.1,1.4,0.2c0.2,0.1,0.5,0.3,0.7,0.4c1.1,0.9,1.2,1.5,2.5,2.3c0.6,0.2,1.2,0.9,1.7,1c-0.2-0.2-0.4-0.3-0.9-0.7
				c-0.6-0.6-1.8-2-3-2.9c-0.7-0.4-1.4-0.6-2.2-0.7c-1.5-0.2-3.2,0.2-4.5,0.7c-1.4,0.5-1.9,0.5-3.3,0.8c-0.5,0.1-0.9,0-1.4-0.1
				c-0.2-1.5-0.7-1.2-0.5-3c0.6-2.1,0.3-3.9-0.4-5.5c0.2-0.6,0.2-1.4-0.3-1.9c-0.4-0.4-1.5-0.5-1.7,0.2c0.1,0.6,0.9,0.2,1.2,0.5
				c0.4,0.1,0.4,0.6,0.3,0.9c-0.1,0.9-1.1,1.3-1.7,1.4c0.2,0.5,1.2,0.2,1.6-0.1c0.4,0.8,0.6,0.9,0.7,1.9c0.1,1.7-0.4,1.6-1,2.7
				c-0.3,0.6-0.3,1.3,0.2,2.5c-0.1-1.8,0.1-1.9,0.6-2.7c0,0-0.2,0.7-0.2,1.4c0,0.8,0.5,1.1,0.5,1.8C54,48.8,54,49,53.6,49.5
				c-0.8,1-2.1,0.9-2.7,3.5c1-1.5,1.2-1.9,2.2-2.4C54.3,50.1,54.5,49.7,54.8,48.9z"/>
			<path class="st1" d="M45.3,40.3c0.5,0.3,0.6,0.7,0.9,1.1c-0.2,0-1.3-0.9-1.9-0.6c-0.8,0.1-2,0.8-2.7,0c-0.5-0.2-0.8-1.1-0.9-1.6
				c0.5,0.8,1.3,1.6,2.4,1.4c0.6-0.1,0.9-0.2,1.4-0.2c0.3,0,0.6,0,0.9,0.3c-0.4-0.4-0.8-0.6-1.4-0.6c-1.2,0-2.5,0.6-3.3-0.9
				c0.7,0.6,2.2,0.6,3.4,0.6C44.5,39.9,45,40,45.3,40.3z M43.4,38.2c-0.1,0.2-0.3,0.5-0.2,0.7l0.3-0.4
				C43.5,38.4,43.4,38.3,43.4,38.2z M44.1,38.7c0.1,0.1,0.2,0.3,0.2,0.5c0.2,0,0.2-0.2,0.3-0.3L44.1,38.7z M44.4,39.7
				c-0.1-0.4-0.2-0.7-0.6-0.8c-0.4-0.2-0.7,0.8-0.9,0c-0.2-0.5,0.4-0.8-0.1-1.2c-0.4-0.6,0.2-0.8,0-1.4c0-0.5-0.1-1.1,0.6-1.2
				c1-0.2,2.1-0.3,3,0.1c0.3-0.2,0.4-0.4,0.4-0.5c0,0,0.5-0.1,0.8,0.1c0.3,0.1,0.6,0.3,0.6,0.3c-0.3,0-0.8,0.1-0.8,0.5
				c0.2,0.5,0.6-0.2,1.9,0.6c0.1,0.1,0.3,0.2,0.3,0.5c-0.6-0.3-0.9-0.2-1.4-0.4c-0.4-0.1-0.5-0.1-0.9-0.1c-0.2,0-0.7,0.5-0.7,0.2
				c0,0,0-0.2-0.1-0.5c-0.1-0.3-0.2-0.3-0.5-0.3c-1.2-0.3-1.9-0.2-2.6-0.1c-0.3,0.1-0.4,0.5-0.3,0.8c0.2,0.5,0.3,0.4,0.6,0.4
				c0.2-0.1,0.3-0.4,0.7-0.5c0.3,0,0.5,0,0.6,0.3v0.2c-0.1-0.2-0.4-0.1-0.5-0.1c-0.1,0.1-0.1,0.1-0.1,0.2c0.1,0.2,0.2,0.1,0.3,0.1
				c-0.1,0.2-0.7,0.3-1.1,0.2c-0.1,0-0.2,0.2-0.2,0.2c-0.1,0.2-0.1,0.3,0,0.5c0.6,0.7,1.6,0.8,2.4,1.3c0.2,0.1,0.4,0.5,0.4,0.6
				c-0.4-0.2-0.5,0.4-0.5,0.5l0.2-0.1c0.1,0,0.4-0.2,0.5-0.2c0.2,0.2,0.1,0.5,0.2,0.8c0.1-0.2,0-0.5,0.2-0.7
				c0.3,0.9,0.8,2.5-0.6,4.7c-0.7,1.4-0.6,1.7-0.5,3.6c-0.9-2-0.2-3,0-4.2c0-0.1,0-0.3-0.1-0.4c0,0.5-0.1,0.9-0.5,1.4
				c-0.6,0.8-0.7,1.9-0.4,2.6c0.3,0.9,0.5,1.2,0.5,2.2c-0.1,0.9-0.4,1.4-0.1,2.6l0,0c-0.7-1.4-0.5-1.9-0.5-2.7
				c0-0.7-0.1-1.4-0.5-1.9l0.2,0.2c-0.2,1.6-2.5,1.8-1.6,4c0.3,0.5,0.9,1.5,1,1.9c-0.5-0.8-1-0.9-1.4-1.7c-1.1-0.2-1.9,0.6-3,0.9
				c-0.6,0.2-1.2,0.5-2.2-0.4c1.9,0.7,3.2-0.5,4.4-1c0.7-0.3,0.4-0.8,0.5-1.2c0.2-1.3,1.4-1.2,1.8-2.5c0-1-0.1-1.7,0.2-2.4
				c0.3-0.7,0.8-0.5,0.9-1.4c0.3-1-1.2-1.1-0.9-2.4c0.2,0.2,0.5,0.4,0.8,0.5c0.5,0.3,1.1,0.7,1.4,1.1c0-0.2-0.4-0.8-0.6-1L45,42.1
				c0-0.2,0.3-0.3,0.5-0.5c-0.1,0.6,0.7,0.8,0.9,1.2c0.2-0.8,0-1.7-0.2-2.4c0,0-0.3,0-0.4,0.2c-0.2-0.5-0.1-0.8,0-1.2
				c0-0.2-0.2-0.1-0.3-0.1c-0.2,0.1-0.3,0.2-0.3,0.2l-0.3-0.5C44.7,39.2,44.4,39.5,44.4,39.7"/>
			<path class="st1" d="M53,38.8c0.1,0.3-0.1,0.5-0.2,0.7c-0.1,0.2-0.2,0.2-0.4,0.2c0-0.2,0.5-0.5,0.2-0.7l-0.5-0.4
				C52.3,38.5,52.9,38.5,53,38.8z"/>
			<path class="st1" d="M44.9,42c-0.1,0-0.2,0-0.4-0.1c-0.5-0.2,0.1-0.4,0.1-0.6C44.8,41.5,44.7,41.8,44.9,42z"/>
			<path class="st1" d="M46.8,47.1c0,0.9-0.1,1.6-0.2,2.1c-0.2,0.6-0.2,0.7-0.7,1.4c0.4-0.9,0.5-1.5,0.6-2.5
				c0.1-0.9,0.1-2.1,0.4-2.8l0.3-0.8C46.8,45.9,46.8,46.5,46.8,47.1z"/>
			<path class="st1" d="M35.6,56.7c0.2-0.3,0.4-0.2,0.5-0.3c0.2,0.2,0.1,0.3,0.3,0.5c0.4,0.2,0.9-0.2,1.1-0.3c0,0,0.7,0.5,1.1,0.5
				c0.4,0,0.5-0.4,0.9-0.4c0.4,0,0.6,0.4,0.6,0.4s0.4,0,2.2-0.3c1.9-0.3,1.4,0.9,1.4,0.9s0.7,0.2,1.5-0.7c0.6-0.6,1.1-1.4,1.3-2.3
				c0.2-0.8,0.2-3.9,0.2-3.9s-0.5,1.4-0.6,2.2c-0.1,0.8-0.2,1.7-0.9,2.8c-0.2,0.2-0.7,0.5-0.7,0.5c0.1,0-0.2-0.5-0.4-0.6
				c-0.3-0.3-0.6-0.3-0.6-0.3s-1.4,0.9-1.9,0.9c-0.5,0,0-0.9,0-0.9s-1.6,0.6-2.3,0.8c-0.8,0.2-0.9-0.2-0.9-0.2
				c-0.4,0.1-1.2,0.5-1.7,0.3c-0.4-0.3-0.6-0.5-0.8-0.2l-0.5,0.5c-0.4-1,0.7-1.4,1.1-1.7l-0.7-0.1c-0.3-0.1-0.5-0.4-0.4-0.7
				c-0.4,0-0.8,0.2-1.1,0.3c0.1-0.8,1.1-0.5,1.5-1c0.1-0.1,0.4-0.3,0.7-0.1c0,0-0.9-0.6-0.9-0.8c0.2-0.9,1.7,0.5,2.1,0.6
				c-0.1-0.2-0.2-0.2-0.4-0.5c-0.6-1.4-2.2-1.1-2.8,0c0.1,0.1,0.6-0.3,0.6,0.1c0.1,0.2,0.2,0.4,0.3,0.4c-0.3,0.2-0.7,0.2-0.9,0.3
				c-1,0.3-1,1.6-1,1.6s1-0.2,1.3-0.3c0,0,0.1,0,0.1,0c0.2,0.5,0.6,0.2,0.1,1.1c-0.3,0.5,0.3,1.4,0.3,1.4S35.4,57.1,35.6,56.7z"/>
			<path class="st1" d="M48.6,49.5c-0.2,0.4-1.1,2-1.2,3.4c-0.3-1.3,0-2.3,1.1-4.1c1.5-2.2,0.7-4.2,0.8-4.9
				C50.4,47.9,49,48.8,48.6,49.5z"/>
			<path class="st1" d="M43.9,51.7c0.1,0.3,0.2,0.7,0.5,1.3c0.2,0.4,0.5,1,0.2,2.4c-0.3-1.8-0.5-1.9-0.8-2.5c-0.3-0.5-0.5-1.3-0.3-2
				c0-0.2,0.3-0.8,0.5-0.9C43.8,50.4,43.7,51.2,43.9,51.7z"/>
			<path class="st1" d="M47.9,54.2c-0.5,0.7-0.9,1.2-1.2,1.5c0.3-2.1,1.6-2.4,2.1-4.9C48.9,51.7,48.4,53.6,47.9,54.2z"/>
			<path class="st1" d="M56.7,57.1c0.3,0.1,0.6,0.2,0.8,0.3c-0.3-0.1-1-0.2-1.2-0.3c-0.2,0-0.3,0-0.4,0c-1-0.1-2-0.3-2.8-0.1
				c-1.2,0.5-2.5,1.5-2.8,2.2c-0.6,1.3-2.2,0.2-3.3,1.5c-0.3-0.3,0.1-0.8,0.7-1.1c0.4-0.2,1.6,0.1,2-0.4c0.3-0.3-0.3-0.9-1.1-0.6
				c-0.9,0.4-1,0.9-1.5,1.2c0-0.7,0.7-1.5,1.6-1.6c0.5-0.1,0.9,0.2,1.5,0c0.6-0.4,0.9-0.6,1.7-1c0.5-0.3,0.9-0.3,1.5-0.4
				C54.5,56.6,55.5,57,56.7,57.1z"/>
			<path class="st1" d="M45.3,42.2c0,0-0.1,0-0.4-0.1c-0.3-0.1-0.6-0.2-0.6-0.3c-0.1,0-0.2-0.1-0.2-0.1s0.1-0.1,0.2-0.1
				s0.4,0.1,0.7,0.2c0.3,0.1,0.5,0.3,0.5,0.3L45.3,42.2z"/>
			<path class="st1" d="M53.4,36.8c0,0,0,0.1,0.1,0.4c0.1,0.2,0.2,0.4,0.2,0.4s-1.1,0-1-0.1c0.1-0.2,0.2-0.3,0.1-0.4
				c-0.1-0.1-0.2-0.3-0.2-0.3L53.4,36.8z"/>
			<path class="st1" d="M46.8,39.9c-0.1-0.4-0.2-0.6-1-1c-0.8-0.4-1.4-0.5-1.6-0.6c-0.3-0.1-0.7-0.2-0.6-0.2c0.1,0,1.5,0.9,1.8,1
				c0.3,0.1,0.7,0.3,0.8,0.4c0.1,0.1,0.2,0.1,0.2,0.3c0.1,0.2,0,0.4,0.1,0.7c0.1,0.2,0.2,0.2,0.2,0.2S47,40.4,46.8,39.9z"/>
			<path class="st1" d="M44.8,37.2c0.4,0,0.6,0,1,0.1c0.3,0.1,0.4,0.6,0.7,0.9c0,0-0.8-0.8-1.4-0.8C44.9,37.5,44.6,37.2,44.8,37.2z"
				/>
			<path class="st1" d="M44.4,37.7c0.2-0.1,0.4,0,0.6,0.1c0.2,0.1,0.3,0.2,0.5,0.5l-0.2-0.1c0,0,0,0-0.2-0.1
				c-0.3-0.2-0.4-0.1-0.5-0.2C44.5,37.8,44.3,37.7,44.4,37.7z"/>
			<path class="st1" d="M51.4,36.7c0,0-0.5,0.5-0.6,1.2c-0.1,0.8,0.1,1.7,0.3,2.6c0.1,0.9,0,1.6-0.3,2.2c-0.3,0.5-0.5,1.2-0.5,1.9
				c0,0.9,0.7,1.7,0.7,1.7s-0.6-1.1-0.4-2.1s0.8-1.6,0.9-2.4c0.1-0.7,0-1.5-0.2-2.3C51,38.3,51,37.5,51.4,36.7z"/>
			<path class="st1" d="M50.4,49.6c0,0,0.6-0.9,0.6-1.7c0-0.8-0.5-1.6-0.7-2.5c-0.2-0.8-0.2-1,0-1.6c0.2-0.6,0.7-0.9,0.7-0.9
				s-0.4,0.8-0.4,1.3c0,0.5-0.1,0.8,0.2,1.8c0.3,1,0.7,1.9,0.4,2.6c-0.2,0.7-0.5,1.1-0.8,1.4C50.3,50.3,50.1,50.3,50.4,49.6z"/>
			<path class="st1" d="M48.9,55.8c-0.1,0.1-0.3,0.2-0.4,0.3c-0.2,0.1-0.4,0.1-0.4,0.1s0.2-0.2,0.7-0.9c0.8-1.2,0.8-2.4,1-3.7
				c0.2-0.9,1-2,1.2-2.4c0.3-0.5,0.1-2,0.1-2c-0.1,2.6-1.4,2.5-1.8,4.5c-0.1,1.1-0.5,2.3-1.4,3.5c-0.7,1-2,2-3.2,2.5
				c1.4,0.3,2.4-0.1,3.7-0.2c0.3,0,0.9,0,1.3,0.1l0,0c0.3,0.1,0.4-0.2,1.1-0.6c0.6-0.3,1-0.5,1.5-0.6c0.7-0.2,1.2-0.3,1.7-0.2
				c-0.1-0.1,2.1-0.1,1.7-0.3c-0.1-0.5-0.9-0.1-0.7-0.3c-0.8,0.4-0.9,0.1-1.8,0.3c0,0-0.7,0.1-1.3,0.1c0,0-0.4,0-0.6-0.1
				c-0.5-0.2-0.5-0.7-0.5-0.7c0-0.3,0-0.4,0-0.8c0-0.3-0.1-0.9-0.1-0.9S50.1,55.1,48.9,55.8z"/>
			<path class="st1" d="M66.2,50.3c0,0-1.1-1.3-2.3-1.6c-1.2-0.3-3.4,0.1-4.8,0.7c-1.4,0.7-1.9,1.7-2.6,2.9c0,0-0.3,0.5-0.5,1
				c-0.2,0.7-0.2,1,0.2,1.2c0.2,0.1,1.2-0.4,1.2-0.4c-0.2-0.3-1-0.2-1-0.2s0.4-0.5,0.8-0.7c0.4-0.2,0.9-0.1,0.9-0.1l-0.5-0.3
				c0,0,0-0.3,0.4-1.3c0.5-1,0.9-1.8,2.6-2.3c1.7-0.5,2.6-0.6,3.7-0.1C65.4,49.7,66.2,50.3,66.2,50.3z"/>
			<path class="st1" d="M65.1,57c0,0-0.6-0.4-1.2-0.6c-0.6-0.2-1.4-0.5-1.4-0.5s1.9-0.3,3-0.6c0.7-0.2,1-0.2,1.4-0.4
				c0.4-0.2,0.6-0.4,0.6-0.4s0.2-0.1,0.6-1c0.3-0.7-0.1-2,0.1-2.2c0.3-0.4,2.4,0.1,3.3,1.5c0.7,1,0.1,2.7,0.1,2.7s0.6-0.2,0.7-1.8
				c0.1-1.8-2-2.8-2-2.8s1.2,0.3,2,1.6c0.8,1.3,0.3,2.9-0.8,4.3s-3.6,1.4-4.5,1.2c0,0,0.5,0.6,0.6,1c0.2,1-0.1,1.5-0.5,1.7
				c-0.3,0.2-2.1,0.3-2.7,0.3c-0.6,0-0.8,0-1.6,0.1s-1.7-0.1-2.1-0.1c-0.2,0-0.4,0.1-0.9,0.2c-0.8,0.2-0.8,0-0.8,0s0.1-0.4-0.9-0.2
				C57.1,61,56.5,61,56.5,61s-0.6,0.4-1.6,0.2c-1-0.2-1.1-0.8-1.1-0.8s0.8,0.4,1.6,0.4c0.8,0,1.3-0.5,1.3-0.5s0.2,0.3,1.1,0.1
				c0.5-0.2,0.7-0.3,0.7-0.3s1.7,0.1,1.8,0.1c0.6,0.1,1.9,0.2,1.9,0.2s0.1,0,1.2,0.1c0.7,0,1.3,0.1,1.3-0.1c0-0.2-0.5-0.4-0.5-0.4
				s1,0.1,1.5,0.2c0.4,0,0.7-0.1,0.9-0.2c0.2-0.1,0.2-0.7,0-0.9c-0.3-0.3-0.2-0.3-0.6-0.5c-0.9-0.4-0.8-0.6-0.8-0.6
				s-0.3-0.3,0.3-0.1c0.3,0.1-0.1-0.4-0.1-0.4S65.4,57.1,65.1,57z M68.9,52.1c0,0,0.1,1.9-0.4,2.8c-0.5,0.9-1.9,2-1.9,2
				c1.4,0.6,4.1-0.2,4.5-1.7c0.4-1.4-0.2-2.6-0.8-3C69.6,51.7,68.9,52.1,68.9,52.1z"/>
			<path class="st1" d="M61.1,55.5c0,0,0.2,0.1,0.5,0.2c0.2,0.1,1.3,0.5,1.3,0.5s0.4,0.1,0.6-0.2c0.3-0.4-0.9,0-0.9-0.4
				c0-0.1-0.2-0.3-0.2-0.3s-0.4-0.1-0.7-0.1C61.2,55.2,61.1,55.5,61.1,55.5z"/>
			<path class="st1" d="M52.1,55.9c0,0,1,0,2.1-0.3c1-0.3,1.2-0.5,1.7-0.7c0.3-0.1,1-0.1,1-0.1s-0.2,0.1-0.2,0.3
				c-0.1,0.3,0.1,0.5,0.1,0.5s0.4-0.1,0.7-0.1c0.3,0.1,0.4,0.2,0.4,0.2s-0.3,0.5,0.1,0.6c0.4,0.1,0.9,0.1,1.7,0.4
				c0.8,0.3,1.3,0.4,1.9,0.5c0.6,0.1,1.3,0.3,1.3,0.3s0.1,0.1-0.1,0.2c-0.2,0.1,0.6,0.4,0.6,0.4s0.1,0.1-0.5,0c-0.5,0-0.6,0-1.2-0.1
				c-1-0.2-1.3-0.2-1.3-0.2s-0.4-0.1-0.9-0.1c-0.3,0-1.1-0.1-2.1-0.2c-0.9-0.1-1.6-0.3-2.1-0.5c-0.5-0.2-1.1,0-1.1,0
				s-0.2-0.2-0.7-0.1c-0.5,0.2-0.7,0.7-0.7,0.7s0.2-0.1,0.5-0.1s0.4,0.1,0.4,0.1s0.1,0.3-0.1,0.5s-0.6,0.4-0.6,0.4s0-0.1-1-0.1
				s-1.1-0.1-1.4,0.3c-0.3,0.5-0.2-0.8-0.2-0.8s0.2-0.4,1.5-1c1.3-0.6,2.3-0.5,2.8-0.6c0.5,0,1.1,0,1.8,0.1c0.4,0.1,1.4,0.4,1.4,0.4
				s-0.5-0.4-1.4-0.7c-0.8-0.3-2.9-0.3-3.9,0c-1,0.2-1.4,0-1.3-0.1C51.3,56,52.1,55.9,52.1,55.9z"/>
			<path class="st1" d="M52.7,57.8c0,0,0.5-0.2,0.8-0.1c0.1,0,0.2,0.1,0.3,0.2c0.1,0.1,0.3,0.3,0.3,0.3s-1.1,0.1-0.9,0.6
				c0.2,0.5,0.8,0.4,0.8,0.4s-0.3,0.1-0.4,0.5c-0.1,0.3,0.2,0.5,0.2,0.5l0.9,0.4l-0.5,0.2c0,0-0.4-0.2-0.5,0.1
				c-0.1,0.2-0.1,0.5-0.1,0.5s-0.4-0.4-0.4-0.9c-0.1-0.5,0.3-0.9,0.3-0.9s-0.3-0.2-0.5,0c-0.2,0.3-0.3,0.5-0.3,0.5s-0.4-0.4-0.5-0.9
				c-0.1-0.5,0.3-0.8,0.3-0.8L52.7,57.8z"/>
			<path class="st1" d="M44.5,45.8c-0.3,1.9-1,2.8-1.2,3.5c0,0-0.2-0.4-0.6-0.6c-0.4-0.2-1,0.1-1,0.1s-0.6-0.8-1.9-1.3
				c-1.1-0.5-1,0.5-1,0.5s-0.9-1-1.2-1.4c-0.5-0.5-0.9-0.3-1.4-0.2s-1.7-0.1-1.7-0.1s-1-0.1-1-1c0-0.6,0.7-0.9,0.7-0.9
				s-0.6-0.3-0.5-1c0.1-0.7,0.8-0.6,0.8-0.6s-0.5-0.4-0.5-0.8c0-0.3,0.6-0.9,1-1c0.4-0.1,1.8,0.7,2.5,0.9c0.6,0.2,0.3,0.9,1.4,1.4
				c0.5,0.2,1.2,0.4,2.2,0.4c1,0,1.3,0.4,2.4,0.6c1.1,0.3,1.2-0.2,1.2-0.2S44.6,45.1,44.5,45.8z M35.6,41.5
				c-0.4-0.2-0.6-0.1-0.9,0.2c-0.1,0.2-0.1,0.6,0.1,0.7c0.8,0.1,0.6-0.5,1.4-0.4C36,41.8,35.8,41.7,35.6,41.5z M34.8,44.6
				c-0.3,0.1-0.7,0.4-0.6,0.9l0,0c0.1,0.4,0.2,0.5,0.7,0.5c0.2-0.1,0.4-0.1,0.4-0.3l0,0c0,0-0.1-0.1,0-0.2c0.3-0.2,0.5-0.2,0.8-0.2
				c-0.4-0.4-0.6-0.4-0.7-0.5c-0.5-0.4-0.2-0.6,0.1-0.8c0.1-0.1,0.6,0,0.9,0.1l-0.8-0.9c-0.4-0.2-0.9-0.3-1.1,0.2
				c0,0.1-0.1,0.5,0.1,0.6C34.7,44.4,34.9,44.5,34.8,44.6z M43.7,47.3c0,0-0.2-0.7,0.1-1.3s0.8-1.1,0.8-1.1c-0.6,0.3-0.8,0-2.2-0.4
				c-1.4-0.4-2.1-0.3-2.7-0.3c-0.6,0-1.9-0.8-2.1-1c-0.2-0.2-0.2-0.3-0.3-0.7c-0.1-0.3-0.5-0.4-0.7-0.4c-0.3,0.1-0.4,0.2-0.4,0.2
				s-0.2,0-0.4,0.1c-0.3,0.1-0.4,0.4-0.4,0.4s0.2-0.1,0.5-0.1c0.2,0,0.4,0.2,0.4,0.2c0,0.6,0,0.6,0.2,1.1c0.3,0.6,1,1.2,1,1.2
				c0.7,0.5,1.6,0.8,1.8,0.9c0.1,0,0.7,0.3,1.2,0.5c0.5,0.2,1,0.8,1,0.8s0-0.6,0.8-0.3C42.9,47.3,43.7,47.3,43.7,47.3z"/>
			<path class="st1" d="M52.4,40.7c0,0,0.2,1.1,0,1.5c-0.4,0.9-0.9,1.1-1,2c-0.2,1,0.1,2.2,0.3,2.8c0.2,0.6,0.4,1.3,0.2,1.8
				c-0.2,0.5-0.6,1-0.9,1.6c-0.3,0.6-0.5,1.4-0.5,1.4s0.4-1,0.7-1.4c0.4-0.5,0.9-1.2,1.1-1.7c0.5-1.3-0.2-2.2-0.4-2.9
				c-0.2-0.9,0.1-1.7,0.6-2.4c0.5-0.6,0.6-1.1,0.7-1.7c0.1-0.7,0.1-1.3,0.1-1.3L52.4,40.7z"/>
			<path class="st1" d="M30.8,67.9c0,0,21.2-0.5,26.6-1c1.5-0.1,4-0.2,5.6-0.4c1.6-0.2,4-0.3,4-0.3s-0.7,0.3-2.5,0.5
				c-2.1,0.2-5.9,0.6-7.7,0.6c-2.2,0-9.4,0.5-11.6,0.6C36.2,68.5,30.8,67.9,30.8,67.9z"/>
			<path class="st1" d="M43.2,16.2l-5.4,24.2c0,0,0,0.3,0.1,0.4c0.2,0.1,0.3,0.1,0.5,0.2c0.2,0.1,0.4,0.3,0.4,0.3s-0.4,0-0.9-0.2
				c-0.5-0.2-0.5-0.4-0.5-0.4l5.5-24.4c0.2-1,0.5-3.2,0.6-3.8c0.1-0.5-0.1-0.4-0.3-0.2c-0.2,0.3-0.9,1.9-1.2,3.4
				c0,0-5.3,22.2-5.4,22.9c-0.1,0.6,0,0.9-0.3,1.4c-0.3,0.5-0.6,0.6-0.9,0.6c-0.3,0-0.6,0-0.7,0.2c0,0.2,0.2,0.2,0.5,0.3
				c0.3,0,0.7,0,1-0.1c0.4-0.1,0.5-0.2,0.5-0.2s0.1,0.2,0.2,0.3c0.2,0.2,0.4,0.3,0.6,0.4c0.2,0.1,0.7,0.2,1.1,0.2
				c0.3,0,0.4,0.2,0.5,0.3c0.1,0.1,0.3,0.3,0.7,0.1c0.2-0.1,0.3-0.6,0-0.8c-0.3-0.2-0.7,0-0.7-0.1c-0.1-0.1,0.3-0.5,0.8-0.3
				c0.4,0.2,0.7,0.6,0.5,1.1c-0.2,0.6-0.9,0.6-1.2,0.5c-0.4-0.1-0.5-0.3-0.7-0.4c-0.1,0-0.4-0.1-0.4-0.1s-2.3-0.9-2.5-1
				s-0.7,0.1-0.9,0.1s-0.3,0.2-0.7,0.2c-0.2,0-1-0.3-0.8-1.1c0.2-0.5,0.5-0.8,1.1-0.7c0.3,0,0.3,0.3,0.6,0.4c0.3,0,0.6,0,0.7-0.3
				c0.1-0.3,5.8-23,5.8-23c0.8-2.7,1.4-4.3,2-5c0.5-0.7,0.8-1.3,0.7,0.2C43.7,13.5,43.5,14.6,43.2,16.2z M33.8,40.9
				c0.2,0,0.3-0.1,0.3-0.3s-0.1-0.3-0.3-0.3s-0.3,0.1-0.3,0.3C33.5,40.7,33.6,40.9,33.8,40.9z"/>
			<path class="st1" d="M46,53.4c0,0,0.1-1.7,0.8-3.8c0.3-0.8,0.9-1.8,1-2.7c0.1-1-0.1-2.2-0.1-2.8c0.1-0.6,0.1-1.1,0.1-1.1h0.4
				c0,0-0.2,1.3-0.1,1.9c0.1,0.6,0.3,1.6,0.1,2.3c-0.3,1.1-0.9,1.9-1.2,2.9c-0.3,1.2-0.5,2.5-0.5,3.7L46,53.4z"/>
			<path class="st1" d="M32.7,40.7c0.2,0,0.4-0.2,0.4-0.3c0-0.2-0.2-0.3-0.4-0.3c-0.2,0-0.4,0.2-0.4,0.3
				C32.3,40.6,32.5,40.7,32.7,40.7z"/>
			<path class="st1" d="M35.3,48.6c0.3,0,0.5-0.2,0.5-0.5c0-0.2-0.2-0.5-0.5-0.5c-0.3,0-0.5,0.2-0.5,0.5
				C34.8,48.4,35,48.6,35.3,48.6z"/>
			<path class="st1" d="M34.7,46.2C34.7,46.2,34.9,46.2,34.7,46.2c-0.2,0.2-0.4,0.5-0.4,0.9c0.1,0.4,0.3,0.8,0.9,0.8
				c0.6,0.1,1.1-0.2,1.2-0.7s-0.1-0.7-0.2-0.9c-0.2-0.2-0.7,0.1-0.7,0.1c0.3,0.2,0.4,0.4,0.3,0.7c0,0.3-0.3,0.4-0.5,0.3
				c-0.2,0-0.5-0.2-0.4-0.5c0.1-0.4,0.5-0.5,0.5-0.5s0-0.2,0.1-0.2C35.7,46.1,34.7,46.2,34.7,46.2z"/>
			<path class="st1" d="M40.4,42.6c0.3,0,0.5-0.2,0.5-0.5c0-0.3-0.2-0.5-0.5-0.5c-0.3,0-0.5,0.2-0.5,0.5
				C39.9,42.4,40.1,42.6,40.4,42.6z"/>
			<path class="st1" d="M38,57.1c0,0,0.6,1.2,1.1,2c0.6,0.7,1,1.3,1.3,1.9c0.4,0.6,1.4,2.3,2.3,3.4c0.8,1.1,2.4,2.8,2.4,2.8
				s-2-3.1-2.6-3.9s-1.2-1.8-1.7-2.5C40.2,60.1,38.4,57.4,38,57.1z"/>
			<path class="st1" d="M43.1,57.1c0,0,2.3,2.8,3.5,4.2s1.8,2.5,2.3,3.1c0.6,0.7,2.2,2.6,2.2,2.6s-0.8-1.8-1.8-2.9
				c-0.9-1-1.7-2.2-2.4-3.1c-0.7-0.9-1.9-2.4-2.4-2.8C44,57.8,43.3,57,43.1,57.1z"/>
			<path class="st1" d="M50.5,59.3c0,0,2.9,3.6,3.4,4.1c0.5,0.5,2,2.7,2,2.7s1.7,1.7,0.6,0.1c-0.3-0.4-1.7-2.2-2.3-3
				c-0.6-0.8-1.4-1.7-2-2.4C51.5,60,50.6,59.5,50.5,59.3z"/>
			<path class="st1" d="M57.6,61c0,0,0.5,0.9,1,1.3s1.4,1.6,1.8,1.9c0.3,0.4,2.2,2,2.2,2s-0.7-1-1.3-1.6c-0.5-0.5-1.1-1.1-1.5-1.6
				C59.3,62.6,57.9,61.2,57.6,61z"/>
			<path class="st1" d="M62.8,60.8c0,0,1.4,1.5,2.2,2.3c0.7,0.8,2.4,2.2,2.4,2.2s-0.4-0.8-0.9-1.3c-0.5-0.5-1.5-1.6-1.9-2.1
				c-0.4-0.5-1-1.1-1-1.1L62.8,60.8z"/>
			<path class="st1" d="M39.4,64.4c0,0,2.3-0.2,3.3-0.3c1-0.1,4.6-0.1,5.9-0.1c1.3,0,6.7-0.4,8.5-0.5c1.8-0.1,4.9-0.4,5.6-0.4
				s7-0.1,7-0.1s-1,0.3-2.9,0.4c-0.4,0-4.4,0.4-5,0.4s-2.4,0-2.4,0s-1.8,0.2-2.6,0.1c-0.9-0.1-2.6,0.2-2.6,0.2s-0.8,0-1.9,0.1
				c-1.1,0.1-3,0-3.2,0.1c-0.2,0.1-1.7,0.2-3,0.2c-1.3,0-2.5,0-2.6-0.1c-0.2-0.1-1.2,0.1-1.8,0.1C40.8,64.5,39.4,64.4,39.4,64.4z"/>
			<path class="st1" d="M52.5,60.5c0,0-2.9,0-3.5,0s-2.7,0.2-2.7,0.2s-1.9-0.1-2.8-0.1c-1,0-5.2,0.2-5.2,0.2s1.4,0.2,5.2,0.1
				c0.9,0,2.8,0,3.2,0s2.1,0,2.7-0.1C52.4,60.6,52.5,60.5,52.5,60.5z"/>
			<path class="st1" d="M45.6,57.8c0,0-2.9,0-4.1,0.1c-1.2,0.1-3.4,0.1-3.4,0.1s0.7-0.2,1.8-0.2c1.1-0.1,2.1,0,2.8-0.1
				C43.8,57.6,45.6,57.8,45.6,57.8z"/>
			<path class="st1" d="M26.9,47.7c0,0-0.1,0-0.2,0l-0.1,0c0,0,0,0,0,0.1l0,0c-0.1,0.2-0.2,0.4,0,0.5c0.1,0.2,0.4,0.1,0.4,0.4l0,0
				l0-0.1l0,0c0,0,0,0.1-0.1,0.2l0,0.1c0,0.1,0,0.1,0,0.2l0,0c0.1,0.3,0.4,0.4,0.6,0.5c-0.1,0.1-0.2,0.3-0.2,0.4l0,0.1
				c0,0,0,0.1,0,0.1l0,0c0.1,0.2,0.3,0.3,0.4,0.4c0,0,0,0.1,0,0.2c-0.1,0.2,0,0.5,0.2,0.6c0.1,0.1,0.3,0.1,0.4,0.3
				c0.1,0.2-0.1,0.4-0.1,0.6c0,0.3,0.3,0.6,0.6,0.6c0,0,0.1,0,0.1,0c0,0.2-0.2,0.3-0.2,0.5c0,0.3,0.3,0.4,0.5,0.6
				c0,0.1,0,0.2-0.1,0.2c-0.1,0.4,0.2,0.8,0.6,0.8c0,0,0.1,0.1,0.2,0.1c0,0,0.1,0,0.1,0c0,0,0-0.1,0-0.1c-0.2-0.2-0.4-0.3-0.4-0.6
				c0.2-0.3,0.1-0.8-0.3-0.9c0,0,0,0,0-0.1c0.1-0.2,0.2-0.5,0.1-0.7c-0.1-0.2-0.3-0.3-0.5-0.3c0,0,0-0.1,0-0.1c0-0.2,0.1-0.4,0-0.6
				c-0.1-0.3-0.3-0.5-0.6-0.6c0,0,0,0-0.1,0c0.2-0.4,0.1-0.9-0.4-1.1l-0.1-0.1l0,0.1l0-0.1c0.1-0.2,0.2-0.6-0.1-0.8
				c-0.1-0.1-0.3-0.1-0.5-0.2L27.3,49l0,0.1l0-0.1v0l0.1-0.1c0,0,0-0.1,0-0.1l0-0.1c0-0.3-0.3-0.5-0.5-0.5c-0.1,0-0.1-0.1-0.1-0.2
				l0-0.1l0,0l0.1,0c-0.1-0.1,0-0.1,0.1-0.1C26.9,47.9,27,47.8,26.9,47.7C27,47.7,27,47.7,26.9,47.7L26.9,47.7z"/>
			<path class="st1" d="M29.3,47.3C29.3,47.2,29.3,47.3,29.3,47.3l-0.2,0.1c0,0,0,0,0,0.1l0,0c-0.1,0.2-0.2,0.4,0,0.5
				c0.1,0.2,0.3,0.1,0.3,0.4l0,0l0-0.1l0,0c0,0,0,0.1-0.1,0.2l0,0.1c0,0.1,0,0.1,0,0.2l0,0c0.1,0.3,0.4,0.4,0.6,0.5
				c-0.1,0.1-0.2,0.3-0.2,0.4l0,0.1c0,0,0,0.1,0,0.1l0,0c0.1,0.2,0.3,0.3,0.4,0.4c0,0,0,0.1,0,0.2c-0.1,0.2,0,0.5,0.2,0.6
				c0.1,0.1,0.3,0.1,0.4,0.3c0.1,0.2-0.1,0.4-0.1,0.6c0,0.3,0.3,0.6,0.6,0.6c0,0,0.1,0,0.1,0c0,0.2-0.2,0.3-0.2,0.5
				c0,0.3,0.3,0.4,0.5,0.6c0,0.1,0,0.2-0.1,0.2c-0.1,0.4,0.2,0.8,0.6,0.8c0,0,0.1,0.1,0.2,0.1c0,0,0.1,0,0.1,0c0,0,0-0.1,0-0.1
				c-0.2-0.2-0.4-0.3-0.4-0.6c0.2-0.3,0.1-0.8-0.3-0.9c0,0,0,0,0-0.1c0.1-0.2,0.2-0.5,0.1-0.7c-0.1-0.2-0.3-0.3-0.5-0.3
				c0,0,0-0.1,0-0.1c0-0.2,0.1-0.4,0-0.6c-0.1-0.3-0.3-0.5-0.6-0.6c0,0,0,0-0.1,0c0.2-0.4,0.1-0.9-0.4-1.1l-0.1-0.1l0,0.1l0-0.1
				c0.1-0.2,0.2-0.6-0.1-0.8c-0.1-0.1-0.3-0.1-0.5-0.2l-0.1-0.1l0,0.1l0-0.1v0l0.1-0.1c0,0,0-0.1,0-0.1l0-0.1c0-0.3-0.2-0.4-0.5-0.5
				c-0.1,0-0.1-0.1-0.1-0.2l0.1-0.2l0,0l0.1,0C29.2,47.4,29.4,47.4,29.3,47.3C29.4,47.4,29.4,47.3,29.3,47.3
				C29.4,47.3,29.3,47.3,29.3,47.3L29.3,47.3z"/>
			<path class="st1" d="M31.5,47c-0.3,0.3-0.1,0.8,0.3,0.9c0.2,0.2,0,0.2-0.1,0.4l0,0c0,0,0,0.1,0,0.1l0,0c0,0.2,0.2,0.4,0.4,0.4
				h0.1l-0.1,0v0c0.1,0.1,0.3,0.2,0.2,0.3c-0.2,0.4,0,0.8,0.3,0.9l0,0l-0.1-0.1l0.1,0.1c0.1,0,0.1,0.1,0.1,0.1c0,0.1,0,0.2-0.1,0.2
				c-0.2,0.3,0.2,0.7,0.5,0.9c0,0,0.1,0.1,0.1,0.1c-0.1,0.3-0.2,0.7,0.1,0.9c0.2,0.2,0.3,0.3,0.4,0.5c0,0.1,0.1,0.1,0.1,0.1
				c0.1,0,0.1,0,0.1-0.1c0.1-0.2,0.1-0.5-0.1-0.6c-0.1-0.1-0.2-0.2-0.3-0.2c0,0-0.1-0.1,0-0.2c0.1-0.3,0.1-0.6-0.1-0.8
				c-0.1-0.1-0.3-0.2-0.4-0.3c-0.1-0.2,0-0.5,0-0.7c0-0.1,0-0.1-0.1-0.2l0,0c0,0-0.1-0.1-0.1-0.1l-0.1-0.1c-0.2-0.1-0.3-0.2-0.3-0.3
				c-0.1-0.2,0.1-0.5,0-0.7l0-0.1c0,0-0.1-0.1-0.1-0.1l-0.1,0c0,0,0,0,0,0c-0.1-0.1-0.2,0-0.2-0.1L32,48.3l0,0.1v-0.1
				c0,0-0.1,0-0.1-0.1c0.1-0.3,0-0.5-0.3-0.7c-0.2-0.1-0.1-0.3,0-0.5c0-0.1,0-0.1-0.1-0.1C31.6,46.9,31.5,46.9,31.5,47L31.5,47z"/>
			<path class="st1" d="M24.7,48.1c-0.3,0.3-0.1,0.8,0.3,0.9c0.2,0.2,0,0.4-0.1,0.5l0,0c0,0,0,0.1,0,0.1l0,0c0,0.2,0.2,0.4,0.4,0.4
				h0.1l-0.1,0v0c0.1,0.1,0.3,0.2,0.2,0.3c-0.2,0.4,0,0.8,0.3,0.9l0,0l-0.1-0.1l0.1,0.1c0.1,0,0.1,0.1,0.1,0.1c0,0.1,0,0.2-0.1,0.2
				c-0.2,0.3,0.2,0.7,0.5,0.9c0,0,0.1,0.1,0.1,0.1c-0.1,0.3-0.2,0.7,0.1,0.9c0.2,0.2,0.3,0.3,0.4,0.5c0,0.1,0.1,0.1,0.1,0.1
				c0.1,0,0.1,0,0.1-0.1c0.1-0.2,0.1-0.5-0.1-0.6c-0.1-0.1-0.2-0.2-0.3-0.2c0,0-0.1-0.1,0-0.2c0.1-0.3,0.1-0.6-0.1-0.8
				c-0.1-0.1-0.3-0.2-0.4-0.3c-0.1-0.2,0-0.5,0-0.7c0-0.1,0-0.1-0.1-0.2l0,0c0,0-0.1-0.1-0.1-0.1L26.1,51c-0.2-0.1-0.3-0.2-0.3-0.3
				c-0.1-0.2,0.1-0.5,0-0.7l0-0.1c0,0-0.1-0.1-0.1-0.1l-0.1,0c0,0,0,0,0,0c-0.1-0.1-0.2,0-0.2-0.1l-0.1-0.1l0,0.1v-0.1
				c0,0-0.1,0-0.1-0.1c0.1-0.3,0-0.7-0.3-0.9c-0.2-0.1-0.1-0.3,0-0.5c0-0.1,0-0.1-0.1-0.1C24.8,48.1,24.8,48.1,24.7,48.1L24.7,48.1z
				"/>
			<path class="st1" d="M27,54.1c-0.1,0.2,0,0.4,0.2,0.5c0.1,0.1,0.1,0.2,0.1,0.3c0,0,0-0.1-0.1-0.1c0,0,0,0.1,0,0.1l0,0.1
				c0,0,0,0.1,0,0.1l0,0.1c0.1,0.2,0.3,0.4,0.5,0.5c0.1,0.1,0.2,0.1,0.3,0c0.1-0.1,0.1-0.2,0-0.3c-0.1-0.1-0.2-0.2-0.3-0.3l-0.1-0.1
				v0.1l0-0.1c0.1-0.3,0-0.7-0.4-0.8c0,0-0.1,0.1-0.1,0C27.1,54.3,27.1,54.2,27,54.1C27.1,54.1,27.1,54.1,27,54.1
				C27.1,54.1,27,54.1,27,54.1L27,54.1z"/>
			<path class="st1" d="M28.7,57.2C28.7,57.2,28.6,57.2,28.7,57.2L28.7,57.2c-0.1-0.1-0.1-0.1-0.1,0l-0.1,0.1
				c-0.3,0.3,0,0.6,0.1,0.9c0,0-0.1,0.1-0.1,0.2c-0.2,0.1-0.2,0.5,0,0.7c0.1,0.1,0.3,0.2,0.3,0.4c-0.1,0.2-0.3,0.4-0.3,0.6
				c0,0.2,0.2,0.3,0.2,0.5c0.2,0.3-0.2,0.5-0.2,0.7c0,0.2,0,0.5,0.2,0.5c0.1,0.3-0.2,0.4-0.3,0.7l0,0c0,0,0,0.1,0,0.1l0,0.1
				c0,0.1,0.1,0.2,0.1,0.2c0.1,0.1,0.2,0.2,0.2,0.3c0,0.2-0.2,0.4-0.4,0.5c-0.1,0.1-0.1,0.2-0.1,0.3c0.1,0.1,0.2,0.1,0.3,0
				c0.3-0.2,0.6-0.5,0.6-0.8c0-0.2-0.1-0.4-0.3-0.5l0-0.1l0,0.1l0-0.1c0.1-0.2,0.3-0.4,0.3-0.7c0-0.2-0.1-0.4-0.3-0.6
				c0.2-0.2,0.3-0.5,0.3-0.8c0-0.2-0.3-0.4-0.3-0.6c0-0.2,0.2-0.3,0.2-0.4c0.1-0.3-0.1-0.6-0.2-0.9c0.1-0.2,0.2-0.3,0.1-0.6
				c-0.1-0.2-0.3-0.4-0.3-0.7L28.7,57.2l-0.1,0.1l0,0C28.7,57.3,28.7,57.3,28.7,57.2C28.8,57.2,28.8,57.2,28.7,57.2
				C28.7,57.1,28.6,57.1,28.7,57.2L28.7,57.2z"/>
			<path class="st1" d="M31,57c-0.1,0-0.2,0-0.2,0.1c-0.3,0.3-0.1,0.7,0.1,1.1c0,0,0,0.1,0,0.2c-0.2,0.3-0.3,0.6-0.2,0.9
				c0.1,0.2,0.2,0.3,0.3,0.4c0,0,0,0.1,0,0.2c-0.3,0.3-0.4,0.9,0,1.2c0.1,0.2,0,0.3-0.1,0.4l0,0.1c0,0,0,0.1,0,0.1l0,0.1
				c0,0.3,0.1,0.5,0.3,0.8c0,0,0,0.1,0,0.2c-0.2,0.2-0.5,0.5-0.4,0.8c0,0.1,0.1,0.2,0.2,0.2c0.1,0,0.2-0.1,0.2-0.2
				c0-0.1,0-0.2,0-0.2c0.1-0.2,0.3-0.3,0.4-0.6c0-0.3-0.1-0.5-0.3-0.7c0-0.1,0-0.1,0-0.2l0-0.1l0,0.1l0,0c0.2-0.2,0.3-0.5,0.2-0.8
				c0-0.2-0.2-0.3-0.3-0.5c-0.1-0.3,0.1-0.5,0.2-0.8c0,0,0-0.1,0-0.2c-0.1-0.2-0.2-0.4-0.1-0.6c0-0.2,0.2-0.4,0.2-0.6
				c0-0.3-0.2-0.5-0.3-0.8C30.8,57.4,30.9,57.2,31,57C31,57.1,31,57,31,57C31,57,31,57,31,57L31,57z"/>
			<path class="st1" d="M33.2,56.7c-0.1,0-0.2,0-0.2,0.1c-0.3,0.4,0,0.9,0.2,1.3c-0.1,0.1-0.1,0.2-0.1,0.2c-0.3,0.3-0.2,0.9,0.1,1.3
				l0,0l0,0l0,0c0,0.1,0.1,0.1,0.1,0.2c-0.1,0.2-0.3,0.4-0.3,0.7c0,0.2,0.1,0.3,0.2,0.5c0.1,0.1,0.2,0.3,0.1,0.3
				c-0.4,0.4-0.1,0.9,0.1,1.3c0,0.2-0.1,0.5-0.2,0.6c-0.1,0-0.1,0.1,0,0.2c0,0.1,0.1,0.1,0.2,0c0.1,0,0.3-0.1,0.3-0.2
				c0.3-0.3,0.2-0.8,0-1.1c-0.2-0.3,0-0.5,0-0.8c0-0.3-0.1-0.5-0.3-0.7c-0.1-0.1-0.1-0.2,0-0.4c0.1-0.3,0.3-0.5,0.3-0.8l0,0
				c0,0-0.1-0.1-0.1-0.1l0,0c0-0.2-0.2-0.4-0.1-0.5c0,0,0,0-0.1,0.1c0.3-0.2,0.5-0.6,0.4-1C33.4,57.5,32.9,57.2,33.2,56.7
				C33.2,56.7,33.2,56.7,33.2,56.7C33.2,56.7,33.2,56.7,33.2,56.7L33.2,56.7z"/>
			<path class="st1" d="M35.7,57.4c-0.2,0-0.3,0.3-0.3,0.4c0,0.2,0.1,0.4,0.2,0.6c0,0,0.1,0.1,0,0.2c-0.1,0.2-0.3,0.3-0.3,0.6
				c0,0.3,0.2,0.6,0.4,0.8l0,0l-0.1-0.1l0,0c0,0.3-0.3,0.4-0.4,0.7c-0.1,0.3,0.1,0.5,0.3,0.8c0,0,0,0.1,0,0.1
				c-0.2,0.2-0.3,0.4-0.3,0.7c0,0.3,0.3,0.5,0.4,0.7c0,0.3-0.1,0.6-0.4,0.8c0,0,0,0.1,0,0.1c0,0,0.1,0,0.1,0
				c0.2-0.1,0.4-0.2,0.6-0.4c0.2-0.2,0.3-0.5,0.1-0.8c-0.1-0.2-0.2-0.3-0.3-0.5c0,0,0-0.1,0-0.2c0.1-0.2,0.2-0.3,0.3-0.5
				c0-0.2-0.2-0.4-0.3-0.6c0,0-0.1-0.1,0-0.2c0.2-0.3,0.5-0.6,0.4-0.9l0,0c0,0,0-0.1-0.1-0.1l0,0c-0.1-0.1,0-0.3-0.2-0.3
				c0.2-0.2,0.4-0.5,0.4-0.8c0-0.2-0.2-0.4-0.4-0.6C35.7,57.7,35.8,57.5,35.7,57.4C35.8,57.4,35.8,57.4,35.7,57.4
				C35.8,57.3,35.8,57.3,35.7,57.4L35.7,57.4z"/>
			<path class="st1" d="M25.5,64.6c0,0,1.8-0.1,2.8-0.2c1.1-0.1,3.2,0,5.1-0.1c2-0.1,4.7-0.3,4.7-0.3s0.2-2,0-3.3
				c-0.2-1.3-0.1-4-0.1-4s0.4,1.7,0.5,2.7c0.1,1,0.2,2.4,0.2,3c0.1,0.6,0,0.6,0.1,1.3c0.1,0.7,0.1,1.6,0.1,1.6s-1.2,0.4-2,0.4
				c-0.8,0-2.9-0.2-3.8,0s-1.6,0.3-2.9,0.2c-1.3-0.1-2.6,0-2.8,0.1c-0.2,0.2-0.7-0.5-0.7-0.5s1.9-0.3,3-0.2c1.1,0.1,3.5-0.1,4.2-0.2
				c0.7-0.1,1.9,0.2,2.6,0.1c1.5-0.1,1.7-0.5,1.7-0.5s-1.2-0.1-2.7,0c-1.5,0.1-2.8,0.2-3.9,0.2c-1.2,0-3,0-3.7,0.1S26.1,65,26.1,65
				L25.5,64.6z"/>
			<path class="st1" d="M31,65.7c0,0,0.1,0.5,0.2,1c0.2,1.1,1.4,2,1.4,2l0.7,0.2l-0.2-0.5c0,0-1.1-1-1.3-1.7c-0.1-0.4,0-1.1,0-1.1
				S31,65.7,31,65.7z"/>
			<path class="st1" d="M36.8,65.4c0,0,0.1,0.6,0.3,1.4c0.2,0.8,1.6,1.9,1.4,1.8c0.2,0.3,0.6,0.5,0.6,0.5l0.4,0l-0.2-0.4
				c0,0-1.3-1.1-1.6-1.6c-0.5-1.2-0.1-1.2-0.3-1.6C37.4,65.1,36.8,65.4,36.8,65.4z"/>
			<path class="st1" d="M21.7,47.6l0.1,0.2c0,0,1.9-0.4,3-0.6c1.1-0.2,1.6-0.2,3.5-0.5c1.9-0.4,4.3-0.6,4.3-0.6s1,1.9,1.4,2.8
				c0.4,0.9,1.6,3.1,1.6,3.1s-0.2-1.6-0.6-2.1s-1.1-2-1.3-2.6c-0.2-0.6-0.8-2-0.8-2s-1.4,0.4-1.5,0.4c-0.1,0-0.1-0.1-0.1-0.1
				s0-0.8-0.1-1.1c-0.1-0.3-1.4-2.5-1.4-2.5l-0.5-0.3l0.2,0.8c0,0,0.8,1.2,1,1.7c0.2,0.6,0.2,1.6,0.2,1.6l-5.2,1
				c0,0-0.4-1.2-0.9-2.1c-0.2-0.3-1.2-0.8-1.3-0.9c-0.1-0.1-0.3-0.4-0.3-0.4l-0.3-0.2c0,0-0.2,0.6,0,0.9c0.4,0.5,0.9,0.5,1.3,1
				c0.6,0.9,0.7,1.9,0.7,1.9l-2.6,0.6L21.7,47.6z"/>
			<path class="st1" d="M32.4,46.7l0.1-0.2c0,0-1.1,0.1-1.5,0.2c-0.5,0-2.2,0.4-3.1,0.6c-0.9,0.2-2.5,0.3-3.5,0.5
				c-1,0.2-2.7,0.7-2.7,0.7s1.1,2.3,1.5,3.4c0.3,1.1,0.5,2.9,1.1,4c0.7,1.2,1.9,1.4,1.9,1.4s1.1-0.5,2.4-0.6
				c1.4-0.1,2.6-0.6,3.9-0.7c1.2-0.1,2.3-0.5,2.3-0.5s-0.6-0.5-1.4-0.3c-0.8,0.2-2.9,0.8-3.4,0.9c-0.6,0.1-1.7,0.2-2.3,0.4
				c-0.4,0.1-1.3,0.3-1.3,0.3s-1-0.2-1.6-1.7c-0.5-1.4-0.5-1.9-1.2-3.3c-0.5-1.1-1.3-3-1.3-3s1.1-0.3,1.7-0.4c0.7-0.2,0.8,0,2.7-0.4
				c1.9-0.4,3.7-0.7,4.5-0.8C31.6,46.8,32.4,46.7,32.4,46.7z"/>
			<path class="st1" d="M26.3,57c0,0-0.1,1.1-0.1,1.9c0.1,1.6,0.7,2.6,0.6,3.6c-0.2,1.1-0.8,2.2-0.8,2.2l-0.4-0.2
				c0,0,0.5-1.4,0.5-2.3c-0.1-0.8-0.5-2.4-0.4-3.2s0.2-1.9,0.2-1.9L26.3,57z"/>
			<path class="st1" d="M52,31.9c0.2-0.2,0.4-0.4,0.4-0.7c0-0.5-0.4-0.8-0.9-0.8c-0.5,0-0.9,0.4-0.9,0.8c0,0.1,0,0.2,0,0.2
				c-0.2-0.1-0.5-0.2-0.8,0c-0.3,0.1-0.7,0.3-0.7,0.9c0,0.5,0.3,0.9,0.8,0.9c0.1,0-0.1,0,0,0c0,0,0,0,0,0c-0.1,0.2-0.3,0.5-0.8,0.4
				c-0.7-0.2-0.6-0.8-0.6-0.8s-0.6,0.5-1.1,0.2c-0.5-0.3-0.2-0.5-0.2-0.5c0.7,0.1,1.2-0.7,1-1.2c-0.2-0.5-0.9-0.8-1.4-0.6
				c0,0,0.1-0.6-0.9-0.8c-0.7-0.1-1.2,0.9-1,1.3c0.1,0.2,0.2,0.3,0.8,1.4c0.6,1.1,0.8,1.7,0.8,1.7c0,0,0,0.1,0,0.2
				c0,0.1,0,0.2,0,0.2s0.9,0.1,3.1,0.8c2.1,0.7,3.6,1.6,3.6,1.6s0-0.1,0-0.2c0,0,0-0.1,0-0.1c0-0.2,0.5-0.6,0.9-0.9
				c1.4-0.9,2-1.1,2.7-1.5c0.5-0.3,0.3-1.1-0.2-1.4c-0.9-0.4-1.2,0.1-1.2,0.1c-0.3-0.4-1-0.5-1.5-0.1c-0.5,0.4-0.4,1.2,0.2,1.4
				c0,0,0,0.2-0.6,0.3c-0.5,0.1-0.7-0.7-0.7-0.7s-0.4,0.5-1.2,0.3c-0.3-0.1-0.5-0.3-0.4-0.8c0.2,0.3,0.4,0.2,0.7,0.2
				c0.5,0,0.8-0.3,0.8-0.9c0-0.4-0.3-0.8-0.7-0.9 M52.3,31.9c-0.1,0-0.2,0-0.3,0 M46.6,33c-0.2-0.5-0.9-1.6-1.1-1.9
				c-0.1-0.3,0.3-0.7,0.6-0.6c0.3,0.1,0.4,0.8,0.4,0.8s0.4-0.5,0.9-0.2c0.4,0.2,0.3,0.6,0.1,0.8c-0.2,0.3-0.8,0.1-0.8,0.1
				s-0.4,0.7,0.5,1.4c0.7,0.5,1.1,0,1.1,0s0,0.5,0.6,0.6c0.3,0.1,0.9,0.5,1.4-0.6c0.1-0.2,0.2-0.6,0.1-0.6c-0.1,0-0.2,0-0.3,0
				c-0.3,0-0.5-0.2-0.5-0.4s0.2-0.5,0.4-0.5c0.1,0,0.2,0,0.3,0.1v0c0,0,0.3,0.4,0.6,0c0.1-0.2,0-0.5,0-0.5l0,0c0,0,0-0.1,0-0.1
				c0-0.2,0.2-0.4,0.4-0.4c0.2,0,0.4,0.2,0.4,0.4c0,0.2-0.1,0.3-0.3,0.4c-0.1,0.1-0.2,0.2-0.2,0.4c-0.1,0.4,0.5,0.4,0.5,0.4l0,0
				c0,0,0,0,0,0c0.3,0,0.5,0.2,0.5,0.4c0,0.2-0.2,0.5-0.5,0.4c-0.3,0-0.5-0.3-0.7-0.3c0,0-1,1.2,0.3,1.8c0.7,0.3,1.2,0,1.2,0
				s0.3,0.5,0.9,0.6c0.9,0,1.3-0.9,1.3-0.9s-0.6-0.1-0.7-0.4c-0.1-0.3,0.1-0.6,0.5-0.6c0.6,0,0.8,0.6,0.8,0.6s0.2-0.3,0.5-0.4
				c0.4-0.1,0.6,0.5,0.4,0.6c-0.2,0.2-1.4,0.8-2,1.2c-0.7,0.5-0.8,0.5-1.1,0.8c-0.2,0.1-0.3,0.3-0.4,0.4l-0.4-0.1c0,0,0,0-0.7-0.3
				c-0.7-0.3-0.8-0.3-0.8-0.3s-0.4-0.2-1.2-0.5c-0.8-0.3-1.4-0.5-1.4-0.5s0.1,0.1-0.6-0.2c-0.7-0.2-0.7-0.2-0.7-0.2l-0.4-0.1
				c0,0,0,0,0-0.1C47.1,34.3,46.9,33.6,46.6,33z"/>
			<path class="st1" d="M47.8,36c0.1,0,0.6,0.4,0.8,0.6c0.2,0.3,0.5,0.7,0.5,0.7s-0.5-0.2-1.2,0c-0.6,0.2-0.9,0-0.9-0.2
				c0-0.2,0.2-0.5,0.2-0.5s-0.2,0.3,0.2,0.4c0.3,0.1,0.5,0,0.5,0s-0.4,0-0.4-0.3c0-0.2,0.1-0.3,0.3-0.4c0,0-0.1-0.1-0.6,0
				c-0.3,0.1-0.3,0.4-0.4,0.5c-0.1,0.1-0.1,0-0.1-0.2C46.7,36.2,46.6,35.7,47.8,36z"/>
			<path class="st1" d="M50.9,29.1c0.3,0,0.6-0.3,0.6-0.6c0-0.3-0.2-0.6-0.6-0.6c-0.3,0-0.6,0.3-0.6,0.6
				C50.4,28.9,50.6,29.1,50.9,29.1z"/>
			<path class="st1" d="M47,29.4c0-0.5,0.4-0.8,0.8-0.8c0.5,0,0.8,0.4,0.8,0.8c0,0.5-0.4,0.8-0.8,0.8S47,29.9,47,29.4z M47.8,29.8
				c0.2,0,0.4-0.2,0.4-0.4c0-0.2-0.2-0.4-0.4-0.4s-0.4,0.2-0.4,0.4C47.5,29.6,47.6,29.8,47.8,29.8z"/>
			<path class="st1" d="M48.8,28.8c0-0.4,0.3-0.7,0.7-0.7c0.4,0,0.7,0.3,0.7,0.7c0,0.4-0.3,0.7-0.7,0.7
				C49.1,29.5,48.8,29.2,48.8,28.8z M49.5,29.1c0.2,0,0.3-0.1,0.3-0.3c0-0.2-0.1-0.3-0.3-0.3c-0.2,0-0.3,0.1-0.3,0.3
				C49.2,29,49.3,29.1,49.5,29.1z"/>
			<path class="st1" d="M52,25.8c0,0-0.1,0.1-0.2,0.4s-0.1,0.6-0.1,0.6s1-0.2,1.1,0.1c0,0.2-0.1,0.4-0.1,0.4l0.6,0.2
				c0,0,0-0.4,0.1-0.5c0.1,0,0.8,0.6,0.8,0.6s0.2,0,0.4-0.4c0.2-0.3,0-0.6,0-0.6s-1,0.2-1-0.1c0-0.3,0.7-0.9,0.7-0.9
				s-0.2-0.3-0.5-0.4c-0.4-0.1-0.5,0-0.5,0s0,1.2-0.2,1.2S52,25.8,52,25.8z"/>
			<path class="st1" d="M47.3,30.6c0,0,0.7-0.6,1.9-1.1c1.2-0.5,1.9-0.5,2.3-0.6c0.4-0.1,0.8-0.2,0.8-0.2s0.3,0.6,0.1,0.7
				c-0.2,0.1-0.6-0.1-1.3,0c-0.7,0-1.3,0.3-2.1,0.7C48.3,30.4,48,31,48,31L47.3,30.6z"/>
			<path class="st1" d="M53.5,29.9c-0.3-0.2-0.3-0.5-0.2-0.8c0.2-0.3,0.5-0.4,0.8-0.2c0.3,0.2,0.3,0.5,0.2,0.8
				C54.1,29.9,53.7,30,53.5,29.9z"/>
			<path class="st1" d="M55.7,33.4c0,0-0.3-1.2-1.1-2.3s-1.4-1.4-1.7-1.7c-0.3-0.3-0.5-0.6-0.5-0.6s-0.6,0.3-0.5,0.5
				c0.2,0.2,0.5,0.3,1.1,0.7c0.6,0.4,0.9,1,1.4,1.7c0.5,0.7,0.5,1.5,0.5,1.5L55.7,33.4z"/>
			<path class="st1" d="M55.4,32.6c-0.4-0.2-0.5-0.8-0.3-1.1c0.2-0.4,0.8-0.5,1.1-0.3c0.4,0.2,0.5,0.8,0.3,1.1
				C56.3,32.7,55.8,32.8,55.4,32.6z M55.8,32.2c0.2,0,0.4-0.2,0.4-0.4c0-0.2-0.2-0.4-0.4-0.4s-0.4,0.2-0.4,0.4
				C55.4,32,55.6,32.2,55.8,32.2z"/>
			<path class="st1" d="M51.7,28.2c0-0.5,0.4-0.9,0.9-0.9c0.5,0,0.9,0.4,0.9,0.9c0,0.5-0.4,0.9-0.9,0.9S51.7,28.7,51.7,28.2z
				 M52.6,28.6c0.3,0,0.5-0.2,0.5-0.5s-0.2-0.5-0.5-0.5s-0.5,0.2-0.5,0.5C52.1,28.4,52.3,28.6,52.6,28.6z"/>
			<path class="st1" d="M54.5,31c-0.3-0.2-0.4-0.6-0.3-0.9c0.2-0.3,0.6-0.4,0.9-0.2c0.3,0.2,0.4,0.6,0.3,0.9
				C55.2,31.1,54.8,31.2,54.5,31z M54.8,30.7c0.2,0,0.3-0.1,0.3-0.3c0-0.2-0.1-0.3-0.3-0.3s-0.3,0.1-0.3,0.3
				C54.5,30.5,54.7,30.7,54.8,30.7z"/>
			<path class="st1" d="M50.4,35c0.2,0,0.3-0.2,0.3-0.4c0-0.2-0.2-0.3-0.3-0.3c-0.2,0-0.3,0.1-0.3,0.3S50.2,35,50.4,35z"/>
		</g>
		<path class="st0" d="M0,116.8c0.5,0,0.9,0,1.4,0c0.5,0,0.9,0,1.4,0v0.3c-0.6,0.1-0.7,0.5-0.7,1.3c0,1.2,0,2.4,0,3.6
			c0,1.7,0.8,2.9,2.7,2.9c1,0,2.3-0.6,2.3-2v-1.5c0-1.5-0.1-3-0.1-3.6c0-0.3-0.3-0.6-0.6-0.6v-0.3c0.5,0,0.9,0,1.4,0
			c0.5,0,0.9,0,1.4,0v0.3c-0.4,0-0.6,0.5-0.6,0.9c0,0.5,0,1.8,0,3.4v2.7c0,0.7,0.1,1.1,0.7,1.1v0.3c-0.3,0-0.7,0-1.1,0
			c-0.3,0-0.7,0-1.1,0c0-0.4,0.1-0.8,0.1-1.2c-0.9,0.9-1.7,1.3-3,1.3c-1.9,0-3.3-1.1-3.3-3v-2.1c0-1-0.1-1.9-0.1-2.6
			c0-0.5-0.1-0.9-0.6-1L0,116.8L0,116.8z"/>
		<path class="st0" d="M11.6,125.3c0.5-0.1,0.8-0.5,0.8-1.2l0-7.5H13l6.2,6.8v-4.3c0-1.6-0.3-1.9-0.9-2v-0.3c0.4,0,0.8,0,1.2,0
			c0.4,0,0.8,0,1.3,0v0.3c-0.6,0.1-0.8,0.5-0.8,1.6l0,7.1h-0.4l-6.3-6.8l0,4.8c0,1,0.3,1.4,0.9,1.6v0.3c-0.4,0-0.8,0-1.2,0
			s-0.8,0-1.2,0L11.6,125.3L11.6,125.3z"/>
		<path class="st0" d="M26.1,117.1c-0.5,0.1-0.5,0.4-0.5,0.8c0,1.2,0,2.7,0,4v2.4c0,0.4,0.1,0.9,0.6,0.9v0.3c-0.4,0-0.9,0-1.3,0
			c-0.4,0-0.9,0-1.3,0v-0.3c0.4,0,0.6-0.4,0.6-0.9v-1.8c0-1.5-0.1-3.7-0.1-4.5c0-0.5,0-0.9-0.6-1v-0.3c0.4,0,0.9,0,1.3,0
			c0.4,0,0.9,0,1.3,0L26.1,117.1L26.1,117.1z"/>
		<path class="st0" d="M32.3,125.7l-3.5-7.6c-0.1-0.3-0.4-0.8-0.9-1v-0.3c0.5,0,1,0,1.4,0c0.5,0,0.9,0,1.4,0v0.3
			c-0.2,0-0.5,0.2-0.5,0.5c0,0.1,0,0.3,0.2,0.8l2.3,5.5l2-5.1c0.1-0.3,0.2-0.6,0.2-0.8c0-0.5-0.2-0.7-0.7-0.8v-0.3
			c0.4,0,0.9,0,1.3,0s0.9,0,1.3,0v0.3c-0.5,0.1-0.8,0.5-1.1,1.1l-3,7.5H32.3z"/>
		<path class="st0" d="M38.6,125.2c0.5,0,0.7-0.3,0.7-0.8v-2.1c0-1.7-0.1-3.5-0.1-4.6c0-0.3-0.2-0.5-0.6-0.6v-0.3h5
			c0.3,0,0.8-0.1,1-0.2c0,0.3,0,0.6,0,0.9c0,0.3,0,0.6,0,0.9h-0.5c-0.2-0.6-0.5-1.1-1.2-1.1h-2.2v3.3h1.9c0.7,0,1-0.1,1.3-0.7h0.4
			c0,0.4,0,0.7,0,1.1c0,0.4,0,0.7,0,1.1h-0.4c-0.3-0.9-0.5-0.9-1.2-0.9h-1.9v3.5h2.1c0.9,0,1.3-0.2,1.8-0.9l0.4,0.2l-0.4,1.6
			c-0.4-0.2-0.8-0.2-1.2-0.2h-4.8L38.6,125.2L38.6,125.2z"/>
		<path class="st0" d="M47.8,125.3c0.4-0.1,0.6-0.3,0.6-0.7v-3.2c0-1.1-0.1-2.2-0.1-3.2c0-0.6-0.1-0.9-0.7-1v-0.3c0.4,0,0.8,0,1.2,0
			c0.4,0,0.8,0,1.7,0c2.3,0,3.4,1.1,3.4,2.5c0,1.3-1.2,2.1-2.3,2.4l2.5,3c0.2,0.2,0.6,0.6,1,0.7v0.3c-0.4,0-0.8,0-1.3,0
			s-0.8,0-1.2,0v-0.3c0.1,0,0.1-0.1,0.1-0.2c0-0.1,0-0.2-0.2-0.4l-2.1-2.4c-0.2-0.2-0.5-0.5-0.8-0.5v2.5c0,0.5,0.1,0.9,0.7,1v0.3
			c-0.5,0-0.9,0-1.3,0c-0.5,0-0.9,0-1.3,0L47.8,125.3L47.8,125.3z M49.8,121.4c0.2,0,0.3,0,0.5,0c1.2,0,2.2-0.8,2.2-2
			c0-1.2-0.5-2.2-1.9-2.2c-0.3,0-0.7,0-0.7,0.3L49.8,121.4z"/>
		<path class="st0" d="M57,123.9h0.5c0.3,1,1.1,1.3,2.1,1.3c0.9,0,1.6-0.7,1.6-1.6c0-2.7-4.3-1-4.3-4.4c0-1.6,1.4-2.6,2.9-2.6
			c0.8,0,1.8,0.3,2.2,0.6l0.1,1.3h-0.5c-0.2-0.8-1.1-1.4-1.9-1.4c-0.9,0-1.7,0.6-1.7,1.6c0,2.2,4.3,0.9,4.3,4.2c0,1.7-1.3,2.7-3,2.7
			c-0.8,0-1.7-0.1-2.5-0.5L57,123.9L57,123.9z"/>
		<path class="st0" d="M67.9,117.1c-0.5,0.1-0.5,0.4-0.5,0.8c0,1.2,0,2.7,0,4v2.4c0,0.4,0.1,0.9,0.6,0.9v0.3c-0.4,0-0.9,0-1.3,0
			c-0.4,0-0.9,0-1.3,0v-0.3c0.4,0,0.6-0.4,0.6-0.9v-1.8c0-1.5-0.1-3.7-0.1-4.5c0-0.5,0-0.9-0.6-1v-0.3c0.4,0,0.9,0,1.3,0
			c0.4,0,0.9,0,1.3,0L67.9,117.1L67.9,117.1z"/>
		<path class="st0" d="M77.9,118.4h-0.5c-0.1-0.7-0.5-1-1.2-1h-1.6c0,1.1-0.1,2.5-0.1,4v2.7c0,0.8,0.2,1,0.8,1.2v0.3
			c-0.5,0-1,0-1.4,0s-1,0-1.4,0v-0.3c0.6-0.2,0.8-0.5,0.8-1.2v-2c0-1.8-0.1-3.6-0.1-4.7h-1.7c-0.7,0-1.1,0.2-1.2,1h-0.5v-1.8
			c0.5,0.1,1,0.2,1.5,0.2h5.6c0.3,0,0.9-0.1,1.2-0.2C77.9,116.6,77.9,118.4,77.9,118.4z"/>
		<path class="st0" d="M79.6,125.2c0.5,0,0.7-0.3,0.7-0.8v-2.1c0-1.7-0.1-3.5-0.1-4.6c0-0.3-0.2-0.5-0.6-0.6v-0.3h5
			c0.3,0,0.8-0.1,1-0.2c0,0.3,0,0.6,0,0.9c0,0.3,0,0.6,0,0.9H85c-0.2-0.6-0.5-1.1-1.2-1.1h-2.2v3.3h1.9c0.7,0,1-0.1,1.3-0.7h0.4
			c0,0.4,0,0.7,0,1.1c0,0.4,0,0.7,0,1.1h-0.4c-0.3-0.9-0.5-0.9-1.2-0.9h-1.9v3.5h2.1c0.9,0,1.3-0.2,1.8-0.9l0.4,0.2l-0.4,1.6
			c-0.4-0.2-0.8-0.2-1.2-0.2h-4.8L79.6,125.2L79.6,125.2z"/>
		<path class="st0" d="M95.8,118.4h-0.5c-0.1-0.7-0.5-1-1.2-1h-1.6c0,1.1-0.1,2.5-0.1,4v2.7c0,0.8,0.2,1,0.8,1.2v0.3
			c-0.5,0-1,0-1.4,0c-0.5,0-1,0-1.4,0v-0.3c0.6-0.2,0.8-0.5,0.8-1.2v-2c0-1.8-0.1-3.6-0.1-4.7h-1.7c-0.7,0-1.1,0.2-1.2,1h-0.5v-1.8
			c0.5,0.1,1,0.2,1.5,0.2h5.6c0.3,0,0.9-0.1,1.2-0.2C95.8,116.6,95.8,118.4,95.8,118.4z"/>
	</g>
	<rect x="117.2" class="st1" width="1" height="136.8"/>
	<g>
		<path class="st1" d="M154,58.9c0,0.8,0,3.8,0.1,4.4c-0.2,0.3-0.6,0.4-0.9,0.3c-0.4-0.5-1.1-1.4-2.9-3.4l-5.9-6.7
			c-1.6-1.9-2.4-2.8-2.8-3.1c-0.1,0-0.1,0.3-0.1,1.6v4.9c0,1.9,0,4.2,0.5,4.9c0.2,0.4,0.6,0.6,1.3,0.6l0.6,0.1
			c0.2,0.2,0.2,0.6,0,0.7c-0.9,0-1.9-0.1-2.8-0.1c-1.1,0-1.7,0-2.6,0.1c-0.2-0.1-0.3-0.6,0-0.7l0.6-0.1c0.5-0.1,0.9-0.2,1.1-0.6
			c0.3-0.8,0.3-3,0.3-4.9v-5.9c0-2,0-2.3-0.8-3.1c-0.3-0.2-1-0.4-1.3-0.5l-0.4-0.1c-0.2-0.2-0.2-0.6,0.1-0.7c0.9,0.1,2.3,0.1,3,0.1
			c0.5,0,1.1,0,1.7-0.1c0.4,1.1,3.1,4.2,4,5.2l2.5,2.7c1.1,1.1,3.4,3.8,3.6,4c0.1-0.1,0.1-0.2,0.1-0.6v-4.9c0-1.9,0-4.2-0.5-4.9
			c-0.2-0.4-0.6-0.6-1.2-0.6l-0.6-0.1c-0.2-0.2-0.2-0.6,0-0.7c1,0,1.9,0.1,2.9,0.1c1.1,0,1.7,0,2.6-0.1c0.2,0.1,0.3,0.6,0,0.7
			l-0.6,0.1c-0.5,0.1-0.9,0.2-1.1,0.6c-0.3,0.8-0.3,3-0.3,4.9V58.9z"/>
		<path class="st1" d="M161.4,57c-0.6,0-0.6,0-0.9,0.7l-1,3c-0.5,1.5-0.4,1.5,0.5,1.7l0.7,0.1c0.2,0.2,0.2,0.6,0,0.7
			c-0.8,0-1.6,0-2.6-0.1c-0.8,0-1.6,0-2.5,0.1c-0.2-0.1-0.2-0.5,0-0.7l0.8-0.1c0.7-0.1,1-0.3,1.4-1.1c0.3-0.6,0.7-1.7,1.2-3.1
			l3.4-8.9c0.3-0.8,0.6-1.4,0.5-1.8c0.9-0.2,1.7-1.2,1.7-1.2c0.2,0,0.3,0.1,0.4,0.2c0.4,1.1,0.7,2.3,1.1,3.4l3.6,10.5
			c0.6,1.7,0.7,1.8,2,2.1l0.4,0.1c0.2,0.2,0.2,0.6,0,0.7c-1,0-2-0.1-3.3-0.1c-1.1,0-2.2,0-3.1,0.1c-0.2-0.1-0.2-0.6-0.1-0.7l0.6-0.1
			c0.9-0.1,1-0.3,0.6-1.3l-1.2-3.4c-0.2-0.7-0.3-0.7-1-0.7L161.4,57L161.4,57z M164.4,55.9c0.7,0,0.8,0,0.6-0.6l-1.1-3
			c-0.5-1.3-0.6-1.8-0.7-2h0c-0.1,0.2-0.3,0.8-0.8,2l-1.1,2.9c-0.3,0.7-0.2,0.7,0.4,0.7L164.4,55.9L164.4,55.9z"/>
		<path class="st1" d="M177.6,48.7c0-1.1,0-1.1-0.7-1.1h-1.4c-2.3,0-3,0.3-3.9,2.3c-0.2,0.2-0.7,0.1-0.8-0.2c0.4-1.4,0.8-2.9,1-3.8
			c0-0.1,0.2-0.1,0.3-0.1c0.1,0,0.2,0,0.3,0.1c0.1,0.6,0.5,0.6,2.2,0.6h10.2c1.2,0,1.6-0.1,1.9-0.6c0.1,0,0.2-0.1,0.3-0.1
			c0.2,0,0.3,0,0.3,0.1c-0.3,1-0.5,3.2-0.4,4c-0.1,0.2-0.6,0.3-0.8,0.1c-0.3-2-0.8-2.4-3.5-2.4h-1.4c-0.6,0-0.7,0-0.7,1.1v10.8
			c0,2.6,0.2,2.7,1.4,2.8l0.9,0.1c0.2,0.2,0.2,0.6,0,0.7c-1.4,0-2.6-0.1-3.7-0.1c-1.1,0-2.3,0-3.9,0.1c-0.2-0.1-0.2-0.6,0-0.7
			l1.1-0.1c1.2-0.2,1.4-0.2,1.4-2.8L177.6,48.7L177.6,48.7z"/>
		<path class="st1" d="M190.3,50.2c0-2.6-0.2-2.7-1.4-2.9l-0.4-0.1c-0.2-0.2-0.2-0.6,0-0.7c1,0,2.1,0.1,3.2,0.1c1.1,0,2.3,0,3.4-0.1
			c0.2,0.1,0.2,0.5,0,0.7l-0.6,0.1c-1.2,0.2-1.4,0.3-1.4,2.9v5.7c0,3.4,1.1,6.4,4.5,6.4c3.3,0,4.6-2.5,4.6-6.3v-3.1
			c0-1.9,0-4.2-0.5-4.9c-0.2-0.4-0.6-0.6-1.2-0.6l-0.5-0.1c-0.2-0.2-0.2-0.6,0-0.7c0.9,0,1.8,0.1,2.8,0.1c1.1,0,1.7,0,2.6-0.1
			c0.2,0.1,0.3,0.5,0,0.7l-0.6,0.1c-0.5,0.1-0.9,0.2-1.1,0.6c-0.3,0.8-0.3,3-0.3,4.9v3c0,2.3-0.3,4.4-1.7,5.8
			c-1.3,1.4-3.2,1.9-4.9,1.9c-2.3,0-4-0.5-5.1-1.6c-1.1-1.1-1.7-2.8-1.7-5.4L190.3,50.2L190.3,50.2z"/>
		<path class="st1" d="M209.1,50.4c0-2.4,0-2.7-1.2-2.8l-0.6-0.1c-0.2-0.2-0.2-0.6,0-0.7c1.6-0.2,3.7-0.2,5.8-0.2
			c2,0,3.7,0.3,4.8,0.9c1.3,0.7,2.2,1.9,2.2,3.7c0,2.3-1.8,3.4-3,4c-0.2,0.1-0.1,0.3,0,0.4c2,3.4,3.3,5.5,4.4,6.5
			c0.7,0.6,1.4,0.8,1.7,0.8c0.1,0.1,0.1,0.4,0,0.5c-0.3,0.1-0.8,0.2-1.7,0.2c-2.4,0-3.7-1-5.2-3.3c-0.7-1.1-1.4-2.4-2-3.4
			c-0.5-0.8-0.7-0.9-1.6-0.9c-0.8,0-0.8,0-0.8,0.6v3.2c0,2.6,0.2,2.7,1.4,2.9l0.6,0.1c0.2,0.2,0.2,0.6,0,0.7c-1.1,0-2.2-0.1-3.3-0.1
			c-1.1,0-2.2,0-3.4,0.1c-0.2-0.1-0.3-0.6,0-0.7l0.6-0.1c1.2-0.2,1.4-0.2,1.4-2.9L209.1,50.4L209.1,50.4z M212,54
			c0,0.8,0,0.9,1.2,0.9c2.5,0,3.6-1.2,3.6-3.6c0-2-1.3-3.7-3.4-3.7c-1.3,0-1.3,0.1-1.3,1.2V54z"/>
		<path class="st1" d="M232.6,56.9c-1,2.3-2.2,5.2-2.6,6.5c0,0.1-0.3,0.1-0.4,0.1c-0.2,0-0.3,0-0.5-0.1c-0.3-1-0.7-2.2-1.1-3.3
			l-4.4-10.5c-0.7-1.7-0.9-2-1.9-2.2l-0.6-0.1c-0.2-0.2-0.2-0.6,0.1-0.7c1,0,2,0.1,3,0.1c1.1,0,2,0,3.3-0.1c0.2,0.2,0.3,0.6,0,0.7
			l-0.6,0.2c-0.6,0.1-0.8,0.3-0.8,0.5c0,0.2,0.2,0.8,1.2,3.3l1.8,4.5c0.5,1.1,1.1,2.6,1.4,3.2c1.4-3.1,2.8-6.6,4.2-10
			c0.4-1,0.3-1.2-0.4-1.4l-0.7-0.2c-0.2-0.2-0.2-0.6,0-0.7c1,0,1.9,0.1,2.7,0.1c0.9,0,1.7,0,2.4-0.1c0.2,0.1,0.2,0.5,0,0.7l-0.6,0.1
			c-0.6,0.1-1.1,0.3-1.6,1c-0.7,1.2-1.4,2.9-2.6,5.4L232.6,56.9z"/>
		<path class="st1" d="M241.9,50.2c0-2.6-0.2-2.8-1.4-2.9l-0.4,0c-0.2-0.2-0.2-0.6,0-0.7c0.9,0,2.1,0.1,3.2,0.1h4.8
			c1.6,0,3.1,0,3.4-0.1c0.1,0.4,0.3,2.4,0.4,3.5c-0.1,0.2-0.6,0.3-0.8,0.1c-0.4-1.4-0.8-2-1.6-2.3c-0.6-0.2-1.3-0.2-2-0.2h-1.7
			c-1.1,0-1.1,0-1.1,1.5v4.2c0,0.6,0,0.7,0.6,0.7h1.2c2.2,0,2.6,0,2.8-1.1l0.2-0.9c0.2-0.2,0.7-0.2,0.8,0c0,0.7-0.1,1.6-0.1,2.5
			c0,0.9,0,1.8,0.1,2.6c-0.1,0.2-0.6,0.2-0.8,0l-0.2-1c-0.2-1.1-0.6-1.1-2.8-1.1h-1.2c-0.6,0-0.6,0-0.6,0.7v3.2c0,1.3,0,2.2,0.4,2.6
			c0.3,0.3,0.7,0.5,2.8,0.6c3.2,0,3.7-0.7,4.6-2.7c0.2-0.2,0.6-0.1,0.8,0.2c-0.2,1.1-0.7,3-1.1,3.6c-1.1,0-3.3-0.1-6.2-0.1h-2.8
			c-1.1,0-2.6,0-3.7,0.1c-0.2-0.1-0.2-0.6,0-0.7l0.9-0.1c1.2-0.1,1.4-0.2,1.4-2.8L241.9,50.2L241.9,50.2z"/>
		<path class="st1" d="M260.8,48.7c0-1.1,0-1.1-0.7-1.1h-1.4c-2.3,0-3,0.3-3.9,2.3c-0.2,0.2-0.7,0.1-0.8-0.2c0.4-1.4,0.8-2.9,1-3.8
			c0-0.1,0.2-0.1,0.3-0.1c0.1,0,0.2,0,0.3,0.1c0.1,0.6,0.5,0.6,2.2,0.6h10.2c1.2,0,1.6-0.1,1.9-0.6c0.1,0,0.2-0.1,0.3-0.1
			c0.2,0,0.3,0,0.3,0.1c-0.3,1-0.5,3.2-0.4,4c-0.1,0.2-0.6,0.3-0.8,0.1c-0.3-2-0.8-2.4-3.5-2.4h-1.4c-0.6,0-0.7,0-0.7,1.1v10.8
			c0,2.6,0.2,2.7,1.4,2.8l0.9,0.1c0.2,0.2,0.2,0.6,0,0.7c-1.4,0-2.6-0.1-3.7-0.1c-1.1,0-2.3,0-3.9,0.1c-0.2-0.1-0.2-0.6,0-0.7
			l1.1-0.1c1.2-0.2,1.4-0.2,1.4-2.8L260.8,48.7L260.8,48.7z"/>
		<path class="st1" d="M273.9,50.2c0-2.6-0.2-2.8-1.4-2.9l-0.4,0c-0.2-0.2-0.2-0.6,0-0.7c0.9,0,2.1,0.1,3.2,0.1h4.8
			c1.6,0,3.1,0,3.4-0.1c0.1,0.4,0.3,2.4,0.4,3.5c-0.1,0.2-0.6,0.3-0.8,0.1c-0.4-1.4-0.8-2-1.6-2.3c-0.6-0.2-1.3-0.2-2-0.2h-1.7
			c-1.1,0-1.1,0-1.1,1.5v4.2c0,0.6,0,0.7,0.6,0.7h1.2c2.2,0,2.6,0,2.8-1.1l0.2-0.9c0.2-0.2,0.7-0.2,0.8,0c0,0.7-0.1,1.6-0.1,2.5
			c0,0.9,0,1.8,0.1,2.6c-0.1,0.2-0.6,0.2-0.8,0l-0.2-1c-0.2-1.1-0.6-1.1-2.8-1.1h-1.2c-0.6,0-0.6,0-0.6,0.7v3.2c0,1.3,0,2.2,0.4,2.6
			c0.3,0.3,0.7,0.5,2.8,0.6c3.2,0,3.7-0.7,4.6-2.7c0.2-0.2,0.6-0.1,0.8,0.2c-0.2,1.1-0.7,3-1.1,3.6c-1.1,0-3.3-0.1-6.2-0.1h-2.8
			c-1.1,0-2.6,0-3.7,0.1c-0.2-0.1-0.2-0.6,0-0.7l0.9-0.1c1.2-0.1,1.4-0.2,1.4-2.8L273.9,50.2L273.9,50.2z"/>
		<path class="st1" d="M302.4,58.9c0,0.8,0,3.8,0.1,4.4c-0.2,0.3-0.6,0.4-0.9,0.3c-0.4-0.5-1.1-1.4-2.9-3.4l-5.9-6.7
			c-1.6-1.9-2.4-2.8-2.8-3.1c-0.1,0-0.1,0.3-0.1,1.6v4.9c0,1.9,0,4.2,0.5,4.9c0.2,0.4,0.6,0.6,1.3,0.6l0.6,0.1
			c0.2,0.2,0.2,0.6,0,0.7c-0.9,0-1.9-0.1-2.8-0.1c-1.1,0-1.7,0-2.6,0.1c-0.2-0.1-0.3-0.6,0-0.7l0.6-0.1c0.5-0.1,0.9-0.2,1.1-0.6
			c0.3-0.8,0.3-3,0.3-4.9v-5.9c0-2,0-2.3-0.8-3.1c-0.3-0.2-1-0.4-1.3-0.5l-0.4-0.1c-0.2-0.2-0.2-0.6,0.1-0.7c0.9,0.1,2.3,0.1,3,0.1
			c0.5,0,1.1,0,1.7-0.1c0.4,1.1,3.1,4.2,4,5.2l2.5,2.7c1.1,1.1,3.4,3.8,3.6,4c0.1-0.1,0.1-0.2,0.1-0.6v-4.9c0-1.9,0-4.2-0.5-4.9
			c-0.2-0.4-0.6-0.6-1.2-0.6l-0.6-0.1c-0.2-0.2-0.2-0.6,0-0.7c1,0,1.9,0.1,2.9,0.1c1.1,0,1.7,0,2.6-0.1c0.2,0.1,0.3,0.6,0,0.7
			l-0.6,0.1c-0.5,0.1-0.9,0.2-1.1,0.6c-0.3,0.8-0.3,3-0.3,4.9L302.4,58.9L302.4,58.9z"/>
		<path class="st1" d="M305.7,62.5c-0.5-0.5-0.8-2.3-0.8-3.8c0.2-0.3,0.6-0.3,0.8-0.1c0.5,1.3,1.8,4,4.3,4c1.9,0,3-1.1,3-2.7
			c0-1.4-0.7-2.6-2.5-3.6l-1.1-0.6c-1.9-1.1-3.5-2.6-3.5-4.8c0-2.5,1.9-4.6,5.5-4.6c1.3,0,2.3,0.3,3.4,0.5c0.3,0.6,0.5,2.2,0.5,3.4
			c-0.1,0.2-0.6,0.3-0.8,0.1c-0.4-1.3-1.2-3-3.4-3c-2,0-2.8,1.3-2.8,2.6c0,1.1,0.7,2.2,2.4,3.1l1.6,0.8c1.6,0.9,3.4,2.4,3.4,4.9
			c0,2.8-2.2,4.9-5.8,4.9C307.4,63.5,306.1,62.8,305.7,62.5z"/>
		<path class="st1" d="M322,53c0,0.7,0,1.1,0.4,1.1c0.5,0,1.1-0.6,1.9-1.5l2.6-2.8c0.3-0.3,1.1-1.1,1.4-1.6c0.5-0.6,0.5-0.8,0.2-0.9
			l-0.8-0.2c-0.2-0.2-0.2-0.5,0-0.7c1.1,0,1.9,0.1,2.8,0.1c1.1,0,1.9,0,2.8-0.1c0.3,0.1,0.3,0.6,0.1,0.7c-2.3,0.3-3,0.9-4.7,2.6
			c-1.1,1.1-2.1,2.1-3.1,3.1c-0.3,0.3-0.3,0.5-0.1,0.8c2,2.6,4.4,5.6,6.2,7.7c0.5,0.6,1.1,0.9,1.9,0.9l0.6,0.1
			c0.2,0.1,0.2,0.6,0,0.7c-0.9,0-1.9-0.1-3.2-0.1c-1.2,0-2.3,0-3.4,0.1c-0.3-0.1-0.3-0.6,0-0.7l0.7-0.1c0.4,0,0.5-0.3,0.2-0.7
			c-1.1-1.3-4-5.4-5-6.3c-0.2-0.2-0.4-0.4-0.6-0.4c-0.6,0-0.6,0.6-0.6,1.3v3.2c0,2.6,0.2,2.7,1.4,2.9l0.6,0.1c0.2,0.1,0.2,0.6,0,0.7
			c-1.2,0-2.3-0.1-3.4-0.1c-1.1,0-2.3,0-3.2,0.1c-0.2-0.1-0.2-0.6,0-0.7l0.3,0c1.2-0.2,1.4-0.3,1.4-2.9v-9.3c0-2.6-0.2-2.7-1.4-2.9
			l-0.5-0.1c-0.2-0.2-0.2-0.6,0-0.7c1,0,2.2,0.1,3.3,0.1c1.1,0,2.2,0,3.2-0.1c0.2,0.1,0.2,0.6,0,0.7l-0.4,0.1
			c-1.2,0.2-1.4,0.2-1.4,2.9L322,53L322,53z"/>
		<path class="st1" d="M338.1,57c-0.6,0-0.6,0-0.9,0.7l-1,3c-0.5,1.5-0.4,1.5,0.5,1.7l0.7,0.1c0.2,0.2,0.2,0.6,0,0.7
			c-0.8,0-1.6,0-2.6-0.1c-0.8,0-1.6,0-2.5,0.1c-0.2-0.1-0.2-0.5,0-0.7l0.8-0.1c0.7-0.1,1-0.3,1.4-1.1c0.3-0.6,0.7-1.7,1.2-3.1
			l3.4-8.9c0.3-0.8,0.6-1.4,0.5-1.8c0.9-0.2,1.7-1.2,1.7-1.2c0.2,0,0.3,0.1,0.4,0.2c0.4,1.1,0.7,2.3,1.1,3.4l3.6,10.5
			c0.6,1.7,0.7,1.8,2,2.1l0.4,0.1c0.2,0.2,0.2,0.6,0,0.7c-1,0-2-0.1-3.3-0.1c-1.1,0-2.2,0-3.1,0.1c-0.2-0.1-0.2-0.6-0.1-0.7l0.6-0.1
			c0.9-0.1,1-0.3,0.6-1.3l-1.2-3.4c-0.2-0.7-0.3-0.7-1-0.7L338.1,57L338.1,57z M341.1,55.9c0.7,0,0.8,0,0.6-0.6l-1.1-3
			c-0.5-1.3-0.6-1.8-0.7-2h0c-0.1,0.2-0.3,0.8-0.8,2l-1.1,2.9c-0.3,0.7-0.2,0.7,0.4,0.7L341.1,55.9L341.1,55.9z"/>
		<path class="st1" d="M351.3,50.4c0-2.3,0-2.7-1.1-2.8l-0.9-0.1c-0.2-0.2-0.2-0.6,0-0.7c1.7-0.2,3.3-0.2,5.5-0.2
			c2.4,0,4.1,0.3,5.2,1c1.3,0.8,2.1,2.1,2.1,3.7c0,3.8-3.6,4.8-5.6,4.8c-0.2,0-0.4,0-0.6,0c-0.2-0.2-0.2-0.5-0.1-0.6
			c2.3-0.5,3.1-2.1,3.1-4.2c0-2-1.3-3.8-3.6-3.8c-1.2,0-1.3,0.1-1.3,1.1v10.9c0,2.6,0.2,2.7,1.4,2.8l0.9,0.1c0.2,0.2,0.1,0.6,0,0.7
			c-1.5,0-2.6-0.1-3.7-0.1c-1.1,0-2.2,0-3.2,0.1c-0.2-0.1-0.2-0.6,0-0.7l0.4,0c1.2-0.2,1.4-0.3,1.4-2.9L351.3,50.4L351.3,50.4z"/>
		<path class="st1" d="M368.6,59c0,1.2,0,2.2,0.4,2.6c0.3,0.3,0.7,0.6,2.7,0.6c2.8,0,3.2-0.1,4.3-2.7c0.3-0.1,0.6,0,0.8,0.2
			c-0.2,1.1-0.8,3-1.1,3.6c-1.1,0-3.2-0.1-6-0.1h-2.6c-1.3,0-2.5,0-3.6,0.1c-0.2-0.1-0.3-0.6,0-0.7l0.8-0.1c1.2-0.2,1.4-0.2,1.4-2.8
			v-9.3c0-2.6-0.2-2.7-1.4-2.8l-0.7-0.1c-0.2-0.1-0.2-0.6,0-0.7c1.2,0,2.4,0.1,3.5,0.1c1.1,0,2.2,0,3.3-0.1c0.2,0.1,0.3,0.6,0,0.7
			l-0.6,0.1c-1.2,0.2-1.4,0.3-1.4,2.8V59z"/>
		<path class="st1" d="M382.9,59.5c0,2.6,0.2,2.7,1.4,2.9l0.6,0.1c0.2,0.2,0.2,0.6,0,0.7c-1.1,0-2.2-0.1-3.3-0.1
			c-1.1,0-2.3,0-3.4,0.1c-0.2-0.1-0.2-0.6,0-0.7l0.6-0.1c1.2-0.2,1.4-0.2,1.4-2.9v-9.3c0-2.6-0.2-2.7-1.4-2.9l-0.6-0.1
			c-0.2-0.2-0.2-0.6,0-0.7c1.1,0,2.2,0.1,3.4,0.1c1.1,0,2.2,0,3.3-0.1c0.2,0.1,0.2,0.6,0,0.7l-0.6,0.1c-1.2,0.2-1.4,0.2-1.4,2.9
			V59.5z"/>
		<path class="st1" d="M401.6,60.5c0,0.9,0.1,1.5,0.6,1.7c0.1,0.1,0.1,0.3,0,0.4c-0.3,0-0.7,0.1-1.2,0.2c-1.6,0.4-3.4,0.7-4.8,0.7
			c-3,0-5.8-0.8-7.7-2.8c-1.5-1.5-2.2-3.6-2.2-5.7s0.7-4.3,2.3-5.9c1.8-1.9,4.5-3,8-3c1.2,0,2.5,0.2,3.3,0.4
			c0.6,0.1,1.3,0.2,1.6,0.2c0,0.8,0.2,2,0.3,4c-0.1,0.3-0.7,0.3-0.8,0c-0.6-2.4-2.3-3.6-4.8-3.6c-4.4,0-6.5,3.2-6.5,7.4
			c0,2,0.5,4.2,1.8,5.8c1.4,1.6,3.4,2.1,4.8,2.1c1.2,0,1.9-0.2,2.2-0.6c0.2-0.2,0.2-0.7,0.2-1.6v-0.9c0-1.8,0-1.9-1.7-2.2l-0.9-0.2
			c-0.2-0.2-0.2-0.6,0-0.7c1,0,2.2,0.1,3.9,0.1c1.1,0,2,0,3.1-0.1c0.3,0.1,0.3,0.6,0,0.7l-0.5,0.1c-0.9,0.2-1.1,0.3-1.1,1.9
			L401.6,60.5L401.6,60.5z"/>
		<path class="st1" d="M409.2,57c-0.6,0-0.6,0-0.8,0.7l-1,3c-0.5,1.5-0.4,1.5,0.5,1.7l0.7,0.1c0.2,0.2,0.2,0.6,0,0.7
			c-0.8,0-1.6,0-2.6-0.1c-0.8,0-1.6,0-2.5,0.1c-0.2-0.1-0.2-0.5,0-0.7l0.8-0.1c0.7-0.1,1-0.3,1.4-1.1c0.3-0.6,0.7-1.7,1.2-3.1
			l3.4-8.9c0.3-0.8,0.6-1.4,0.5-1.8c0.9-0.2,1.7-1.2,1.7-1.2c0.2,0,0.3,0.1,0.4,0.2c0.4,1.1,0.7,2.3,1.1,3.4l3.6,10.5
			c0.6,1.7,0.7,1.8,2,2.1l0.4,0.1c0.2,0.2,0.2,0.6,0,0.7c-1,0-2-0.1-3.3-0.1c-1.1,0-2.2,0-3.1,0.1c-0.2-0.1-0.2-0.6-0.1-0.7l0.6-0.1
			c0.9-0.1,1-0.3,0.6-1.3l-1.2-3.4c-0.2-0.7-0.3-0.7-1-0.7L409.2,57L409.2,57z M412.2,55.9c0.7,0,0.8,0,0.6-0.6l-1.1-3
			c-0.5-1.3-0.6-1.8-0.7-2h0c-0.1,0.2-0.3,0.8-0.8,2l-1.1,2.9c-0.3,0.7-0.2,0.7,0.4,0.7L412.2,55.9L412.2,55.9z"/>
		<path class="st1" d="M147,72.1c1.6,0,3,0,3.5-0.1c0,0.6,0,2.4,0,3.6c-0.1,0.2-0.6,0.3-0.8,0.1c-0.3-1.4-0.6-2.2-1.6-2.4
			c-0.7-0.2-1.3-0.2-2.1-0.2h-1.3c-1.1,0-1.1,0-1.1,1.4V79c0,0.6,0,0.7,0.6,0.7h1.5c2.2,0,2.6,0,2.8-1.1l0.2-0.8
			c0.2-0.2,0.6-0.2,0.8,0c0,0.6-0.1,1.6-0.1,2.5c0,0.9,0,1.8,0.1,2.6c-0.1,0.2-0.6,0.2-0.8,0l-0.2-1c-0.2-1.1-0.6-1.1-2.8-1.1h-1.5
			c-0.6,0-0.6,0-0.6,0.7V85c0,2.6,0.2,2.7,1.4,2.8l1.1,0.1c0.2,0.2,0.2,0.6,0,0.7c-1.6,0-2.7-0.1-3.8-0.1s-2.2,0-3.4,0.1
			c-0.2-0.1-0.2-0.6,0-0.7l0.6-0.1c1.2-0.2,1.4-0.2,1.4-2.9v-9.3c0-2.6-0.2-2.7-1.4-2.9l-0.3,0c-0.2-0.2-0.2-0.6,0-0.7
			c0.9,0,2,0.1,3.1,0.1L147,72.1L147,72.1z"/>
		<path class="st1" d="M156.4,82.5c-0.6,0-0.6,0-0.9,0.7l-1,3c-0.5,1.5-0.4,1.5,0.5,1.7l0.7,0.1c0.2,0.2,0.2,0.6,0,0.7
			c-0.8,0-1.6,0-2.6-0.1c-0.8,0-1.6,0-2.5,0.1c-0.2-0.1-0.2-0.5,0-0.7l0.8-0.1c0.7-0.1,1-0.3,1.4-1.1c0.3-0.6,0.7-1.7,1.2-3.1
			l3.4-8.9c0.3-0.8,0.6-1.4,0.5-1.8c0.9-0.2,1.7-1.2,1.7-1.2c0.2,0,0.3,0.1,0.4,0.2c0.4,1.1,0.7,2.3,1.1,3.4l3.6,10.5
			c0.6,1.7,0.7,1.8,2,2.1L167,88c0.2,0.2,0.2,0.6,0,0.7c-1,0-2-0.1-3.3-0.1c-1.1,0-2.2,0-3.1,0.1c-0.2-0.1-0.2-0.6-0.1-0.7l0.6-0.1
			c0.9-0.1,1-0.3,0.6-1.3l-1.2-3.4c-0.2-0.7-0.3-0.7-1-0.7L156.4,82.5L156.4,82.5z M159.4,81.4c0.7,0,0.8,0,0.6-0.6l-1.1-3
			c-0.5-1.3-0.6-1.8-0.7-2h0c-0.1,0.2-0.3,0.8-0.8,2l-1.1,2.9c-0.3,0.7-0.2,0.7,0.4,0.7L159.4,81.4L159.4,81.4z"/>
		<path class="st1" d="M173.4,78.5c0,0.7,0,1.1,0.4,1.1c0.5,0,1.1-0.6,1.9-1.5l2.5-2.8c0.3-0.3,1.1-1.1,1.4-1.6
			c0.5-0.6,0.5-0.8,0.2-0.9l-0.8-0.2c-0.2-0.2-0.2-0.5,0-0.7c1.1,0,1.9,0.1,2.8,0.1c1.1,0,1.9,0,2.8-0.1c0.3,0.1,0.3,0.6,0.1,0.7
			c-2.3,0.3-3,0.9-4.7,2.6c-1.1,1.1-2.1,2.1-3.1,3.1c-0.3,0.3-0.3,0.5-0.1,0.8c2,2.6,4.4,5.6,6.2,7.7c0.5,0.6,1.1,0.9,1.9,0.9
			l0.6,0.1c0.2,0.1,0.2,0.6,0,0.7c-0.9,0-1.9-0.1-3.2-0.1c-1.2,0-2.3,0-3.4,0.1c-0.3-0.1-0.3-0.6,0-0.7l0.7-0.1
			c0.4,0,0.5-0.3,0.2-0.7c-1.1-1.3-4-5.4-5-6.3c-0.2-0.2-0.4-0.4-0.6-0.4c-0.6,0-0.6,0.6-0.6,1.3v3.2c0,2.6,0.2,2.7,1.4,2.9l0.6,0.1
			c0.2,0.1,0.2,0.6,0,0.7c-1.2,0-2.3-0.1-3.4-0.1c-1.1,0-2.3,0-3.2,0.1c-0.2-0.1-0.2-0.6,0-0.7l0.3,0c1.2-0.2,1.4-0.3,1.4-2.9v-9.3
			c0-2.6-0.2-2.7-1.4-2.9l-0.5-0.1c-0.2-0.2-0.2-0.6,0-0.7c1,0,2.2,0.1,3.3,0.1c1.1,0,2.2,0,3.2-0.1c0.2,0.1,0.2,0.6,0,0.7l-0.4,0.1
			c-1.2,0.2-1.4,0.2-1.4,2.9L173.4,78.5L173.4,78.5z"/>
		<path class="st1" d="M188.1,75.7c0-2.6-0.2-2.7-1.4-2.9l-0.4-0.1c-0.2-0.2-0.2-0.6,0-0.7c1,0,2.1,0.1,3.2,0.1c1.1,0,2.3,0,3.4-0.1
			c0.2,0.1,0.2,0.5,0,0.7l-0.6,0.1c-1.2,0.2-1.4,0.3-1.4,2.9v5.7c0,3.4,1.1,6.4,4.5,6.4c3.3,0,4.6-2.5,4.6-6.3v-3.1
			c0-1.9,0-4.2-0.5-4.9c-0.2-0.4-0.6-0.6-1.2-0.6l-0.5-0.1c-0.2-0.2-0.2-0.6,0-0.7c0.9,0,1.8,0.1,2.8,0.1c1.1,0,1.7,0,2.6-0.1
			c0.2,0.1,0.3,0.5,0,0.7l-0.6,0.1c-0.5,0.1-0.9,0.2-1.1,0.6c-0.3,0.8-0.3,3-0.3,4.9v3c0,2.3-0.3,4.4-1.7,5.8
			c-1.3,1.4-3.2,1.9-4.9,1.9c-2.3,0-4-0.5-5.1-1.6c-1.1-1.1-1.7-2.8-1.7-5.4L188.1,75.7L188.1,75.7z"/>
		<path class="st1" d="M209.7,84.5c0,1.2,0,2.2,0.4,2.6c0.3,0.3,0.7,0.6,2.7,0.6c2.8,0,3.2-0.1,4.3-2.7c0.3-0.1,0.6,0,0.8,0.2
			c-0.2,1.1-0.8,3-1.1,3.6c-1.1,0-3.2-0.1-6-0.1h-2.6c-1.3,0-2.5,0-3.6,0.1c-0.2-0.1-0.3-0.6,0-0.7l0.8-0.1c1.2-0.2,1.4-0.2,1.4-2.8
			v-9.3c0-2.6-0.2-2.7-1.4-2.8l-0.7-0.1c-0.2-0.1-0.2-0.6,0-0.7c1.2,0,2.4,0.1,3.5,0.1c1.1,0,2.2,0,3.3-0.1c0.2,0.1,0.3,0.6,0,0.7
			l-0.6,0.1c-1.2,0.2-1.4,0.3-1.4,2.8L209.7,84.5L209.7,84.5z"/>
		<path class="st1" d="M223.5,74.2c0-1.1,0-1.1-0.7-1.1h-1.4c-2.3,0-3,0.3-3.9,2.3c-0.2,0.2-0.7,0.1-0.8-0.2c0.4-1.4,0.8-2.9,1-3.8
			c0-0.1,0.2-0.1,0.3-0.1c0.1,0,0.2,0,0.3,0.1c0.1,0.6,0.5,0.6,2.2,0.6h10.2c1.2,0,1.6-0.1,1.9-0.6c0.1,0,0.2-0.1,0.3-0.1
			c0.2,0,0.3,0,0.3,0.1c-0.3,1-0.5,3.2-0.4,4c-0.1,0.2-0.6,0.3-0.8,0.1c-0.3-2-0.8-2.4-3.5-2.4h-1.4c-0.6,0-0.7,0-0.7,1.1v10.8
			c0,2.6,0.2,2.7,1.4,2.8l0.9,0.1c0.2,0.2,0.2,0.6,0,0.7c-1.4,0-2.6-0.1-3.7-0.1c-1.1,0-2.3,0-3.9,0.1c-0.2-0.1-0.2-0.6,0-0.7
			l1.1-0.1c1.2-0.2,1.4-0.2,1.4-2.8L223.5,74.2L223.5,74.2z"/>
		<path class="st1" d="M237,75.7c0-2.6-0.2-2.8-1.4-2.9l-0.4,0c-0.2-0.2-0.2-0.6,0-0.7c0.9,0,2.1,0.1,3.2,0.1h4.8
			c1.6,0,3.1,0,3.4-0.1c0.1,0.4,0.3,2.4,0.4,3.5c-0.1,0.2-0.6,0.3-0.8,0.1c-0.4-1.4-0.8-2-1.6-2.3c-0.6-0.2-1.3-0.2-2-0.2H241
			c-1.1,0-1.1,0-1.1,1.5v4.2c0,0.6,0,0.7,0.6,0.7h1.2c2.2,0,2.6,0,2.8-1.1l0.2-0.9c0.2-0.2,0.7-0.2,0.8,0c0,0.7-0.1,1.6-0.1,2.5
			c0,0.9,0,1.8,0.1,2.6c-0.1,0.2-0.6,0.2-0.8,0l-0.2-1c-0.2-1.1-0.6-1.1-2.8-1.1h-1.2c-0.6,0-0.6,0-0.6,0.7v3.2c0,1.3,0,2.2,0.4,2.6
			c0.3,0.3,0.7,0.5,2.8,0.6c3.2,0,3.7-0.7,4.6-2.7c0.2-0.2,0.6-0.1,0.8,0.2c-0.2,1.1-0.7,3-1.1,3.6c-1.1,0-3.3-0.1-6.2-0.1h-2.8
			c-1.1,0-2.6,0-3.7,0.1c-0.2-0.1-0.2-0.6,0-0.7l0.9-0.1c1.2-0.1,1.4-0.2,1.4-2.8L237,75.7L237,75.7z"/>
		<path class="st1" d="M256.2,74.2c0-1.1,0-1.1-0.7-1.1h-1.4c-2.3,0-3,0.3-3.9,2.3c-0.2,0.2-0.7,0.1-0.8-0.2c0.4-1.4,0.8-2.9,1-3.8
			c0-0.1,0.2-0.1,0.3-0.1c0.1,0,0.2,0,0.3,0.1c0.1,0.6,0.5,0.6,2.2,0.6h10.2c1.2,0,1.6-0.1,1.9-0.6c0.1,0,0.2-0.1,0.3-0.1
			c0.2,0,0.3,0,0.3,0.1c-0.3,1-0.5,3.2-0.4,4c-0.1,0.2-0.6,0.3-0.8,0.1c-0.3-2-0.8-2.4-3.5-2.4h-1.4c-0.6,0-0.7,0-0.7,1.1v10.8
			c0,2.6,0.2,2.7,1.4,2.8l0.9,0.1c0.2,0.2,0.2,0.6,0,0.7c-1.4,0-2.6-0.1-3.7-0.1c-1.1,0-2.3,0-3.9,0.1c-0.2-0.1-0.2-0.6,0-0.7
			l1.1-0.1c1.2-0.2,1.4-0.2,1.4-2.8L256.2,74.2L256.2,74.2z"/>
		<path class="st1" d="M269.2,75.7c0-2.6-0.2-2.8-1.4-2.9l-0.4,0c-0.2-0.2-0.2-0.6,0-0.7c0.9,0,2.1,0.1,3.2,0.1h4.8
			c1.6,0,3.1,0,3.4-0.1c0.1,0.4,0.3,2.4,0.4,3.5c-0.1,0.2-0.6,0.3-0.8,0.1c-0.4-1.4-0.8-2-1.6-2.3c-0.6-0.2-1.3-0.2-2-0.2h-1.7
			c-1.1,0-1.1,0-1.1,1.5v4.2c0,0.6,0,0.7,0.6,0.7h1.2c2.2,0,2.6,0,2.8-1.1l0.2-0.9c0.2-0.2,0.7-0.2,0.8,0c0,0.7-0.1,1.6-0.1,2.5
			c0,0.9,0,1.8,0.1,2.6c-0.1,0.2-0.6,0.2-0.8,0l-0.2-1c-0.2-1.1-0.6-1.1-2.8-1.1h-1.2c-0.6,0-0.6,0-0.6,0.7v3.2c0,1.3,0,2.2,0.4,2.6
			c0.3,0.3,0.7,0.5,2.8,0.6c3.2,0,3.7-0.7,4.6-2.7c0.2-0.2,0.6-0.1,0.8,0.2c-0.2,1.1-0.7,3-1.1,3.6c-1.1,0-3.3-0.1-6.2-0.1h-2.8
			c-1.1,0-2.6,0-3.7,0.1c-0.2-0.1-0.2-0.6,0-0.7l0.9-0.1c1.2-0.1,1.4-0.2,1.4-2.8L269.2,75.7L269.2,75.7z"/>
		<path class="st1" d="M298.2,84.4c0,0.8,0,3.8,0.1,4.4c-0.2,0.3-0.6,0.4-0.9,0.3c-0.4-0.5-1.1-1.4-2.9-3.4l-5.9-6.7
			c-1.6-1.9-2.4-2.8-2.8-3.1c-0.1,0-0.1,0.3-0.1,1.6v4.9c0,1.9,0,4.2,0.5,4.9c0.2,0.4,0.6,0.6,1.3,0.6L288,88c0.2,0.2,0.2,0.6,0,0.7
			c-0.9,0-1.9-0.1-2.8-0.1c-1.1,0-1.7,0-2.6,0.1c-0.2-0.1-0.3-0.6,0-0.7l0.6-0.1c0.5-0.1,0.9-0.2,1.1-0.6c0.3-0.8,0.3-3,0.3-4.9
			v-5.9c0-2,0-2.3-0.8-3.1c-0.3-0.2-1-0.4-1.3-0.5l-0.4-0.1c-0.2-0.2-0.2-0.6,0.1-0.7c0.9,0.1,2.3,0.1,3,0.1c0.5,0,1.1,0,1.7-0.1
			c0.4,1.1,3.1,4.2,4,5.2l2.5,2.7c1.1,1.1,3.4,3.8,3.6,4c0.1-0.1,0.1-0.2,0.1-0.6v-4.9c0-1.9,0-4.2-0.5-4.9
			c-0.2-0.4-0.6-0.6-1.2-0.6l-0.6-0.1c-0.2-0.2-0.2-0.6,0-0.7c1,0,1.9,0.1,2.9,0.1c1.1,0,1.7,0,2.6-0.1c0.2,0.1,0.3,0.6,0,0.7
			l-0.6,0.1c-0.5,0.1-0.9,0.2-1.1,0.6c-0.3,0.8-0.3,3-0.3,4.9V84.4z"/>
	</g>
</g>
</svg>
