<?xml version="1.0" encoding="utf-8"?>
<!-- Generator: Adobe Illustrator 16.0.0, SVG Export Plug-In . SVG Version: 6.00 Build 0)  -->
<!DOCTYPE svg PUBLIC "-//W3C//DTD SVG 1.1//EN" "http://www.w3.org/Graphics/SVG/1.1/DTD/svg11.dtd">
<svg version="1.1" id="Layer_1" xmlns="http://www.w3.org/2000/svg" xmlns:xlink="http://www.w3.org/1999/xlink" x="0px" y="0px"
	 width="245.752px" height="247.059px" viewBox="0 0 245.752 247.059" enable-background="new 0 0 245.752 247.059"
	 xml:space="preserve">
<g>
	<path fill="#FFFFFF" d="M102.95,196.405v9.73c0,0.49,2.216,1.336,2.216,1.336h-6.977c0,0,2.084-0.846,2.084-1.27v-8.203
		l-2.172,0.361l-0.032-0.389L102.95,196.405z"/>
	<path fill="#FFFFFF" d="M147.667,196.622c-3.127,0.688-4.729,2.678-5.176,4.779c0.783-0.414,1.476-0.604,2.303-0.604
		c2.279,0,3.8,1.326,3.8,3.273c0,2.135-1.833,3.633-4.448,3.633c-2.884,0-4.827-1.809-4.827-4.512c0-3.375,3.3-6.783,8.293-6.783
		L147.667,196.622z M144.078,201.624c-0.804,0-1.363,0.328-1.766,0.568c-0.045,0.225-0.134,0.775-0.134,1.654
		c0,1.205,0.156,3.221,1.854,3.221c1.677,0,1.699-1.568,1.699-2.789C145.732,203.175,145.666,201.624,144.078,201.624z"/>
	<path fill="#FFFFFF" d="M132.998,196.622c-3.128,0.688-4.729,2.678-5.176,4.779c0.782-0.414,1.476-0.604,2.302-0.604
		c2.279,0,3.8,1.326,3.8,3.273c0,2.135-1.833,3.633-4.447,3.633c-2.884,0-4.828-1.809-4.828-4.512c0-3.375,3.301-6.783,8.294-6.783
		L132.998,196.622z M129.409,201.624c-0.805,0-1.363,0.328-1.766,0.568c-0.045,0.225-0.134,0.775-0.134,1.654
		c0,1.205,0.156,3.221,1.854,3.221c1.677,0,1.698-1.568,1.698-2.789C131.063,203.175,130.996,201.624,129.409,201.624z"/>
	<path fill="#FFFFFF" d="M118.227,196.622c-3.127,0.688-4.729,2.678-5.176,4.779c0.782-0.414,1.475-0.604,2.302-0.604
		c2.28,0,3.799,1.326,3.799,3.273c0,2.135-1.832,3.633-4.447,3.633c-2.884,0-4.828-1.809-4.828-4.512
		c0-3.375,3.301-6.783,8.294-6.783L118.227,196.622z M114.638,201.624c-0.805,0-1.363,0.328-1.766,0.568
		c-0.045,0.225-0.134,0.775-0.134,1.654c0,1.205,0.157,3.221,1.855,3.221c1.676,0,1.698-1.568,1.698-2.789
		C116.292,203.175,116.225,201.624,114.638,201.624z"/>
	<path fill="#FFFFFF" d="M21.989,103.336c1.039,0.336,2.508,1.072,3.475,1.727c-0.153,0.306-0.26,0.701-0.335,1.163
		c-0.155,0.945,0.042,2.011-0.205,3.519c-0.676,4.122-4.056,6.852-7.696,6.255c-3.7-0.607-6.039-4.48-5.333-8.784
		c0.343-2.091,1.392-3.323,1.458-3.726c0.027-0.161-0.053-0.938-0.053-0.938l3.549,0.396c0,0-3.585,2.345-3.902,4.275
		c-0.471,2.876,1.374,5.223,4.551,5.743c3.238,0.531,6.094-1.271,6.566-4.147C24.367,106.968,21.989,103.336,21.989,103.336z"/>
	<path fill="#FFFFFF" d="M55.114,50.779l-7.576,7.868c0,0,0.503-2.344-0.216-3.037l-5.872-5.653
		c-0.866-0.834-3.015-0.131-3.015-0.131l4.792-4.976c0,0-0.546,2.388,0.145,3.052l6.048,5.824c0.543,0.522,0.831,0.488,1.382-0.084
		l1.795-1.864c0.947-0.983,0.996-4.53,0.996-4.53L55.114,50.779z"/>
	<path fill="#FFFFFF" d="M48.944,39.328l5.04-4.073c0,0-0.68,2.174-0.014,2.998l5.072,6.276c0.628,0.776,2.909,0.584,2.909,0.584
		l-5.04,4.073c0,0,0.559-2.129-0.004-2.826l-5.124-6.34C51.117,39.196,48.944,39.328,48.944,39.328z"/>
	<path fill="#FFFFFF" d="M65.889,39.344c0.649,1.06,2.998,1.031,2.998,1.031l-4.205,2.576c0,0,0.775-1.934,0.339-2.646l-4.886-7.977
		c-0.542-0.026-2.04-0.208-2.04-0.208l3.58-2.193l11.624,3.061l-3.214-5.248c-0.767-1.252-3.145-1.037-3.145-1.037l4.483-2.747
		c0,0-1.045,1.884-0.641,2.544l5.695,9.297l-0.956,0.585l-13.657-3.607L65.889,39.344z"/>
	<path fill="#FFFFFF" d="M139.953,22.008c0,0,1.978,3.544,3.553,3.878c1.315,0.278,2.489-0.348,2.727-1.464
		c0.629-2.971-5.792-4.227-4.955-8.174c0.405-1.914,2.363-2.895,4.734-2.393c1.536,0.325,2.622,1.097,2.921,1.16
		c0.14,0.029,0.268,0.016,0.484-0.126l0.42,0.089l-0.306,3.31c0,0-1.946-3.204-3.481-3.528c-1.117-0.237-2.08,0.184-2.245,0.961
		c-0.389,1.835,2.849,2.874,4.609,5.58c0.644,0.99,0.781,1.915,0.578,2.872c-0.438,2.073-2.659,3.312-5.031,2.809
		c-1.595-0.338-2.915-1.284-3.274-1.359c-0.179-0.038-0.34,0.031-0.486,0.229l-0.518-0.109L139.953,22.008z"/>
	<path fill="#FFFFFF" d="M156.358,16.95l6.141,2.072c0,0-2.2,0.591-2.539,1.595l-2.581,7.646c-0.318,0.945,1.066,2.769,1.066,2.769
		l-6.141-2.072c0,0,2.098-0.669,2.385-1.519l2.605-7.724C157.634,18.713,156.358,16.95,156.358,16.95z"/>
	<path fill="#FFFFFF" d="M174.988,34.31l-1.368,2.71c-1.612-0.061-3.762-0.461-5.326-1.251c-4.603-2.324-5.526-6.009-3.763-9.502
		c1.681-3.329,5.668-4.397,9.543-2.441c1.873,0.946,3.007,2.318,3.625,2.63c0.273,0.138,0.455,0.139,0.666,0.039l0.454,0.23
		l-1.682,3.328l-0.727-0.367c0.445-2.104-0.387-3.893-2.278-4.849c-2.583-1.304-5.395-0.167-6.882,2.78
		c-1.506,2.983-0.754,6.148,1.774,7.426c0.691,0.349,1.548,0.553,2.186,0.51l1.268-2.511c0.459-0.909-1.31-2.967-1.31-2.967
		l6.039,3.05C177.208,33.125,175.412,33.473,174.988,34.31z"/>
	<path fill="#FFFFFF" d="M184.406,30.256l5.317,3.704c0,0-2.277-0.047-2.883,0.823l-4.612,6.622
		c-0.57,0.818,0.251,2.955,0.251,2.955l-5.317-3.703c0,0,2.199-0.057,2.712-0.793l4.659-6.688
		C185.14,32.306,184.406,30.256,184.406,30.256z"/>
	<path fill="#FFFFFF" d="M203.403,65.748l-6.862-8.497c0,0,2.263,0.791,3.04,0.164l6.342-5.121c0.935-0.756,0.505-2.976,0.505-2.976
		l4.34,5.375c0,0-2.302-0.84-3.047-0.237l-6.531,5.274c-0.587,0.475-0.589,0.764-0.09,1.382l1.627,2.014
		c0.857,1.063,4.37,1.552,4.37,1.552L203.403,65.748z"/>
	<path fill="#FFFFFF" d="M194.348,54.786l-8.029-7.404c0,0,2.354,0.452,3.031-0.282l5.526-5.992
		c0.814-0.884,0.065-3.017,0.065-3.017l5.078,4.684c0,0-2.399-0.494-3.049,0.21l-5.692,6.172c-0.51,0.555-0.471,0.841,0.114,1.38
		l1.902,1.755c1.004,0.925,4.55,0.897,4.55,0.897L194.348,54.786z"/>
	<path fill="#FFFFFF" d="M214.112,63.183c0.916-1.329,0.994-3.227,0.994-3.227l3.622,6.073c0,0-2.362-1.296-3.102-0.189
		l-4.028,5.977l7.719-0.646c0.741-0.109,0.853-2.726,0.853-2.726l2.651,4.445c0,0-2.073-0.852-3.801-0.604l-11.917,0.996
		L214.112,63.183z"/>
	<path fill="#FFFFFF" d="M222.845,79.693l-0.013-0.039l-6.982,2.021c-1.293,0.377-2.085,2.521-2.085,2.521l-1.523-4.26
		c0,0,1.738,1.109,3.365,0.636l7.097-2.063c1-0.292,1.747-2.074,1.747-2.074l1.448,4.049l-6.721,6.624l9.343,0.705l1.476,4.126
		c0,0-1.354-1.183-2.701-0.593l-6.915,2.993c-1.578,0.673-2.044,2.636-2.044,2.636l-2.162-6.044c0,0,1.394,1.535,2.641,1.09
		c0.307-0.11,0.606-0.239,0.889-0.361l6.653-2.878l-0.015-0.038l-11.246-0.825l-0.164-0.461L222.845,79.693z"/>
	<path fill="#FFFFFF" d="M224.153,125.2c-1.242-0.053-2.526,1.914-2.526,1.914l0.203-4.926c0,0,1.173,1.721,2.008,1.755l9.346,0.386
		c0.324-0.435,1.31-1.578,1.31-1.578l-0.173,4.195l-9.018,7.947l6.149,0.256c1.465,0.061,2.613-2.035,2.613-2.035l-0.218,5.254
		c0,0-0.981-1.916-1.755-1.949l-10.894-0.449l0.047-1.121l10.604-9.33L224.153,125.2z"/>
	<path fill="#FFFFFF" d="M232.937,142.497l-1.266,6.355c0,0-0.869-2.105-1.908-2.311l-7.915-1.576
		c-0.979-0.193-2.607,1.414-2.607,1.414l1.264-6.355c0,0,0.934,1.992,1.813,2.168l7.995,1.59
		C231.351,143.989,232.937,142.497,232.937,142.497z"/>
	<path fill="#FFFFFF" d="M219.774,176.835l2.033-3.973l-4.081-2.09l-1.504,2.938c-0.512,0.998,0.237,2.756,0.237,2.756l-3.61-1.85
		c0,0,1.799-0.293,2.514-1.689l1.365-2.666l-3.264-1.672c-0.781-0.398-1.019-0.338-1.287,0.189l-1.551,3.027
		c-0.604,1.18,0.428,3.723,0.428,3.723l-2.735-1.676l5.591-10.918c0,0,0.02,2.734,0.908,3.189l7.237,3.705
		c0.979,0.502,2.933-0.719,2.933-0.719l-5.118,9.994l-2.723-1.166C217.147,177.938,219.347,177.669,219.774,176.835z"/>
	<path fill="#FFFFFF" d="M198.742,192.946c0,0-4.051-0.25-5.182,0.895c-0.945,0.957-1.053,2.283-0.241,3.086
		c2.159,2.135,6.685-2.59,9.555,0.246c1.392,1.375,1.159,3.553-0.545,5.277c-1.103,1.115-2.339,1.613-2.555,1.83
		c-0.1,0.102-0.456,0.781-0.456,0.781l-2.62-2.045c0,0,3.747,0.092,4.851-1.023c0.802-0.811,0.969-1.85,0.403-2.408
		c-1.333-1.318-3.957,0.844-7.186,0.863c-1.182,0.008-2.034-0.377-2.729-1.064c-1.508-1.49-1.35-4.027,0.354-5.752
		c1.146-1.16,2.656-1.758,2.913-2.02c0.129-0.131,0.157-0.305,0.069-0.533l0.372-0.377L198.742,192.946z"/>
	<path fill="#FFFFFF" d="M194.462,209.271l-5.104,3.992c0,0,0.715-2.162,0.063-2.998l-4.971-6.357
		c-0.615-0.787-2.899-0.631-2.899-0.631l5.106-3.992c0,0-0.594,2.121-0.042,2.826l5.021,6.422
		C192.287,209.368,194.462,209.271,194.462,209.271z"/>
	<path fill="#FFFFFF" d="M138.68,234.308l-6.446,0.664c0,0,1.757-1.451,1.647-2.506l-0.826-8.027
		c-0.102-0.992-2.118-2.076-2.118-2.076l6.446-0.664c0,0-1.63,1.48-1.539,2.371l0.835,8.109
		C136.787,233.231,138.68,234.308,138.68,234.308z"/>
	<path fill="#FFFFFF" d="M125.837,226.183c0,0-2.628-3.092-4.237-3.113c-1.346-0.02-2.375,0.824-2.391,1.965
		c-0.041,3.037,6.502,3.021,6.448,7.057c-0.026,1.955-1.757,3.297-4.182,3.266c-1.568-0.021-2.784-0.568-3.09-0.572
		c-0.143,0-0.879,0.213-0.879,0.213l-0.343-3.305c0,0,2.53,2.764,4.1,2.785c1.141,0.014,2.005-0.586,2.016-1.381
		c0.024-1.873-3.354-2.266-5.604-4.578c-0.825-0.846-1.139-1.727-1.126-2.705c0.028-2.119,1.966-3.764,4.391-3.732
		c1.631,0.023,3.109,0.693,3.477,0.699c0.183,0.002,0.962-0.314,0.962-0.314L125.837,226.183z"/>
	<path fill="#FFFFFF" d="M90.437,221.606l0.8-2.93c1.593-0.262,3.779-0.299,5.469,0.162c4.974,1.359,6.615,4.785,5.584,8.561
		c-0.982,3.598-4.675,5.441-8.863,4.297c-2.024-0.553-3.41-1.67-4.078-1.854c-0.295-0.08-1.151-0.039-1.151-0.039l0.982-3.598
		c0,0,1.941,3.953,3.986,4.51c2.792,0.764,5.319-0.912,6.189-4.098c0.88-3.223-0.489-6.176-3.222-6.922
		c-0.747-0.203-1.626-0.232-2.243-0.063l-0.741,2.713c-0.433,1.77,1.875,2.646,1.875,2.646l-6.527-1.783
		C88.499,223.21,90.19,222.511,90.437,221.606z"/>
	<path fill="#FFFFFF" d="M50.274,194.718l-2.503,2.625l4.865,4.641l2.532-2.652c0.745-0.781,0.247-2.977,0.247-2.977l4.733,4.516
		c0,0-2.214-0.365-2.917,0.371l-5.598,5.869c-0.704,0.736-0.234,2.932-0.234,2.932l-4.733-4.516c0,0,2.144,0.469,2.932-0.357
		l2.209-2.314l-4.866-4.643l-2.166,2.271c-0.788,0.824-0.305,2.947-0.305,2.947l-4.718-4.502c0,0,2.187,0.453,2.946-0.342
		l5.571-5.84c0.731-0.768,0.232-2.988,0.232-2.988l4.718,4.5C53.218,194.259,51.034,193.921,50.274,194.718z"/>
	<path fill="#FFFFFF" d="M15.255,144.245l0.005,0.041l7.251-0.51c1.344-0.096,2.568-2.027,2.568-2.027l0.595,4.486
		c0,0-1.467-1.451-3.157-1.33l-7.372,0.527c-1.039,0.076-2.144,1.66-2.144,1.66l-0.565-4.262l7.962-5.064l-8.986-2.652l-0.576-4.344
		c0,0,1.075,1.441,2.516,1.146l7.39-1.475c1.684-0.326,2.552-2.146,2.552-2.146l0.844,6.363c0,0-1.04-1.795-2.353-1.621
		c-0.323,0.043-0.644,0.107-0.944,0.168l-7.11,1.416l0.005,0.039l10.822,3.17l0.064,0.484L15.255,144.245z"/>
	<path fill="#FFFFFF" d="M230.965,107.757c1.401-0.802,2.294-2.478,2.294-2.478l0.633,7.043c0,0-1.567-2.191-2.714-1.516
		l-5.536,3.182l6.711,3.056c0.716,0.222,1.791-1.921,1.791-1.921l0.463,5.155c0,0-1.499-1.666-3.163-2.191l-10.46-4.605
		L230.965,107.757z"/>
	<path fill="#FFFFFF" d="M227.84,153.685c1.6-0.211,3.061-1.424,3.061-1.424l-2.082,6.758c0,0-0.62-2.623-1.938-2.432l-6.329,0.848
		l5.053,5.369c0.578,0.477,2.386-1.098,2.386-1.098l-1.524,4.945c0,0-0.757-2.109-2.098-3.227l-7.936-8.223L227.84,153.685z"/>
	<path fill="#FFFFFF" d="M20.006,161.798c-1.17,1.111-1.638,2.953-1.638,2.953l-2.293-6.689c0,0,2.045,1.754,2.997,0.824l4.617-4.41
		l-7.245-1.367c-0.748-0.045-1.282,2.293-1.282,2.293l-1.679-4.896c0,0,1.854,1.26,3.595,1.375l11.256,1.977L20.006,161.798z"/>
	<path fill="#FFFFFF" d="M64.936,206.608c0.603-0.871-0.538-3.197-0.538-3.197l6.032,4.176c0,0-2.567-0.266-3.182,0.623
		l-5.637,8.221l1.977,1.369c1.29,0.893,3.865-0.25,3.865-0.25l-2.093,2.512l-10.657-7.377l1.49-2.93c0,0-0.162,2.813,1.128,3.707
		l1.977,1.367L64.936,206.608z"/>
	<path fill="#FFFFFF" d="M145.271,222.3c-0.241-1.031-2.731-1.746-2.731-1.746l7.144-1.672c0,0-1.919,1.727-1.674,2.777l2.234,9.398
		l2.342-0.549c1.527-0.355,2.409-3.033,2.409-3.033l0.458,3.238l-12.62,2.951l-1.173-3.07c0,0,1.977,2.008,3.505,1.65l2.341-0.547
		L145.271,222.3z"/>
	<path fill="#FFFFFF" d="M173.344,211.306c-0.533-0.914-3.124-0.869-3.124-0.869l6.339-3.691c0,0-1.329,2.213-0.785,3.146
		l5.056,8.592l2.078-1.211c1.355-0.789,1.413-3.605,1.413-3.605l1.388,2.959l-11.2,6.523l-2.021-2.592c0,0,2.479,1.34,3.834,0.551
		l2.079-1.211L173.344,211.306z"/>
	<circle fill="#FFFFFF" cx="225.968" cy="101.688" r="2.002"/>
	<path fill="#FFFFFF" d="M107.399,227.536c0.009-1.105,0.912-1.994,2.018-1.984c1.105,0.008,1.995,0.91,1.985,2.016
		c-0.008,1.107-0.912,1.996-2.017,1.986C108.279,229.546,107.39,228.642,107.399,227.536z"/>
	<circle fill="#FFFFFF" cx="17.473" cy="123.055" r="2.002"/>
	<path fill="#FFFFFF" d="M33.398,65.801c-2.49-1.809-3.112-4.351-1.591-6.444c1.82-2.506,5.252-2.029,7.906-0.101
		c2.275,1.652,3.476,4.161,1.811,6.453C39.836,68.034,36.547,68.088,33.398,65.801z M32.405,68.833
		c2.77,2.012,6.799,1.563,9.553-2.229c2.862-3.94,1.881-8.104-1.054-10.235c-3.083-2.239-7.016-1.368-9.519,2.078
		C28.715,62.123,29.141,66.461,32.405,68.833z"/>
	<path fill="#FFFFFF" d="M85.506,26.622l-4.014,1.267l0.183-5.921L85.506,26.622z M88.063,24.994l3.574-1.354
		c1.47-0.548,3.469,0.077,3.469,0.077l-2.805-3.23c0,0-0.193,1.77-1.244,2.16l-3.754,1.524L84,20.136l5.431-1.806
		c0.878-0.327,3.078,0.464,3.078,0.464L90.162,16.6l-11.543,3.966c0,0,1.46,0.392,1.208,2.368l-0.163,8.68
		c-0.173,1.521-1.102,3.077-1.102,3.077l4.393-1.635c0,0-1.904-0.792-1.79-1.77l0.219-2.489l4.824-1.472l2.71,3.324l10.672-4.092
		L97.33,24.08c0,0,0.79,1.83-0.451,2.293l-5.679,2.22L88.063,24.994z"/>
	<path fill="#FFFFFF" d="M30.735,81.396c0.942,0.438,3.006-1.051,3.006-1.051l-3.009,6.467c0,0-0.112-2.367-1.184-2.866
		l-7.297-3.396c-0.887-0.413-2.993,0.877-2.993,0.877c0.375-0.95,0.665-1.669,0.961-2.452c0.408-1.069,0.971-2.425,1.281-3.09
		c1.264-2.716,2.303-4.031,3.656-4.524c0.894-0.326,1.724-0.276,2.519,0.093c1.404,0.653,2.04,2.186,1.702,4.119
		c1.583-0.747,3.344-0.715,5.266-1.416c1.11-0.404,2.946-1.596,2.946-1.596c-0.171,0.415-0.257,0.6-0.515,1.154
		c-1.066,2.291-1.837,3.078-3.11,3.542c-1.353,0.494-3.792,0.663-5.358,1.373l-0.679,1.459L30.735,81.396z M27.151,79.728
		l0.335-0.72c1.04-2.236,0.958-3.848-1.019-4.768c-1.958-0.911-3.357,0.259-4.191,2.051l-0.447,0.961L27.151,79.728z"/>
	<path fill="#FFFFFF" d="M23.285,97.046l1.741,1.427c0.76,0.616,2.492-1.292,2.492-1.292l-1.586,5.35c0,0-0.512-2.079-1.554-2.931
		l-9.742-8.258l0,0l12.817-1.987c1.279-0.198,2.795-1.38,2.795-1.38l-1.945,6.561c0,0-0.496-2.446-1.449-2.285l-2.257,0.374
		L23.285,97.046z M19.169,93.526l3.481,2.854l1.054-3.553L19.169,93.526z"/>
	<path fill="#FFFFFF" d="M32.816,170.519c0.918-0.486,0.973-3.031,0.973-3.031l3.347,6.299c0,0-1.957-1.338-3-0.783l-7.108,3.777
		c-0.864,0.459-1.104,2.916-1.104,2.916c-0.532-0.871-0.931-1.535-1.377-2.244c-0.607-0.971-1.35-2.236-1.694-2.885
		c-1.406-2.645-1.829-4.266-1.407-5.645c0.278-0.91,0.818-1.543,1.592-1.953c1.368-0.727,2.974-0.311,4.313,1.123
		c0.359-1.713,1.446-3.098,2.044-5.055c0.346-1.131,0.501-3.313,0.501-3.313c0.229,0.387,0.324,0.566,0.611,1.105
		c1.186,2.232,1.349,3.322,0.953,4.617c-0.421,1.377-1.756,3.426-2.134,5.104l0.755,1.422L32.816,170.519z M29.392,172.235
		l-0.373-0.701c-1.157-2.178-2.492-3.084-4.417-2.061c-1.908,1.014-1.817,2.834-0.89,4.58l0.497,0.936L29.392,172.235z"/>
	<path fill="#FFFFFF" d="M31.857,189.437c-2.535-3.422-2.185-7.436,0.877-9.703c2.915-2.158,7.18-1.844,10.079,2.07
		c2.79,3.766,2.008,7.742-0.743,9.781C38.828,193.985,34.562,193.089,31.857,189.437z M41.83,181.948
		c-1.686-2.277-4.439-1.885-6.699-0.211c-2.637,1.951-4.123,5.082-2.279,7.57c1.54,2.08,4.152,2.25,6.625,0.418
		C42.604,187.411,43.54,184.257,41.83,181.948z"/>
	<path fill="#FFFFFF" d="M75.426,225.188c-3.863-1.793-5.475-5.484-3.871-8.941c1.527-3.291,5.424-5.055,9.842-3.004
		c4.251,1.973,5.467,5.84,4.026,8.945C83.724,225.849,79.548,227.101,75.426,225.188z M80.603,213.841
		c-2.569-1.191-4.8,0.469-5.984,3.02c-1.381,2.977-1.189,6.436,1.621,7.738c2.347,1.09,4.722-0.01,6.018-2.801
		C83.896,218.267,83.209,215.05,80.603,213.841z"/>
	<path fill="#FFFFFF" d="M205.339,182.151c-0.831-0.623-3.158,0.408-3.158,0.408l4.277-5.707c0,0-0.379,2.34,0.567,3.047
		l6.441,4.828c0.782,0.586,3.109-0.242,3.109-0.242c-0.562,0.852-0.993,1.496-1.445,2.201c-0.62,0.963-1.451,2.174-1.891,2.76
		c-1.796,2.398-3.084,3.471-4.511,3.674c-0.941,0.135-1.744-0.084-2.445-0.609c-1.239-0.93-1.546-2.559-0.817-4.381
		c-1.702,0.404-3.419,0.008-5.444,0.299c-1.169,0.168-3.211,0.955-3.211,0.955c0.253-0.371,0.375-0.533,0.741-1.023
		c1.516-2.021,2.433-2.633,3.772-2.826c1.427-0.205,3.849,0.133,5.527-0.238l0.966-1.287L205.339,182.151z M208.443,184.581
		l-0.477,0.635c-1.479,1.975-1.73,3.568,0.015,4.875c1.728,1.297,3.338,0.439,4.522-1.143l0.636-0.848L208.443,184.581z"/>
	<path fill="#FFFFFF" d="M164.456,217.718l0.048-2.252c0.015-0.979-2.556-1.16-2.556-1.16l5.188-2.057c0,0-1.32,1.688-1.346,3.031
		l-0.481,12.764l0,0l-9.477-8.855c-0.946-0.885-2.812-1.348-2.812-1.348l6.362-2.52c0,0-1.619,1.9-0.903,2.551l1.688,1.545
		L164.456,217.718z M164.229,223.13l0.096-4.502l-3.445,1.365L164.229,223.13z"/>
	<path fill="#FFFFFF" d="M124.045,41c-0.556-1.466-2.027-2.576-2.027-2.576l6.852,0.464c0,0-2.341,1.17-1.866,2.372l2.209,5.793
		l3.951-5.971c0.322-0.652-1.569-2.01-1.569-2.01l5.014,0.339c0,0-1.825,1.186-2.582,2.701l-6.007,9.332L124.045,41z"/>
	<path fill="#FFFFFF" d="M67.777,61.939c-1.396-0.713-3.232-0.549-3.232-0.549l5.389-4.256c0,0-0.949,2.438,0.209,3.012l5.528,2.809
		l-1.082-7.077c-0.2-0.7-2.513-0.436-2.513-0.436l3.944-3.116c0,0-0.557,2.104-0.101,3.736l1.814,10.948L67.777,61.939z"/>
	<path fill="#FFFFFF" d="M173.407,58.167c0.474-1.494,0.009-3.278,0.009-3.278l5.086,4.613c0,0-2.562-0.533-2.937,0.703
		l-1.907,6.258l6.85-2.576c0.658-0.312,0.017-2.55,0.017-2.55l3.723,3.377c0,0-2.168-0.203-3.701,0.517l-10.5,3.593L173.407,58.167z
		"/>
	<path fill="#FFFFFF" d="M89.405,56.882c0.437,0.932,2.947,1.109,2.947,1.109l-6.449,3.026c0,0,1.476-2.025,1.03-2.976l-4.152-8.744
		l-2.114,0.992c-1.379,0.646-1.677,3.366-1.677,3.366l-1.087-2.982l11.394-5.348l1.732,2.681c0,0-2.282-1.509-3.662-0.861
		l-2.114,0.992L89.405,56.882z"/>
	<path fill="#FFFFFF" d="M141.141,43.139l-0.037-0.011l-2.454,6.617c-0.454,1.228,0.763,3.084,0.763,3.084l-4.205-1.271
		c0,0,1.871-0.717,2.439-2.261l2.489-6.731c0.349-0.949-0.611-2.562-0.611-2.562l3.997,1.207l1.29,9.072l5.946-6.886l4.073,1.23
		c0,0-1.705,0.374-2.022,1.767l-1.656,7.127c-0.387,1.62,0.876,3.118,0.876,3.118l-5.967-1.803c0,0,2.004-0.201,2.376-1.433
		c0.091-0.303,0.164-0.611,0.231-0.901l1.596-6.856l-0.038-0.012l-7.14,8.304l-0.454-0.138L141.141,43.139z"/>
	<path fill="#FFFFFF" d="M189.911,73.243l-2.666-3.417l-3.51,2.738l1.972,2.527c0.669,0.858,2.522,0.919,2.522,0.919l-3.105,2.422
		c0,0,0.479-1.704-0.458-2.905l-1.789-2.294l-2.809,2.191c-0.672,0.523-0.715,0.758-0.361,1.21l2.033,2.605
		c0.791,1.015,3.453,1.146,3.453,1.146l-2.596,1.724l-7.327-9.394c0,0,2.416,1.103,3.181,0.506l6.226-4.856
		c0.843-0.657,0.567-2.876,0.567-2.876l6.705,8.597l-2.141,1.921C189.809,76.007,190.471,73.96,189.911,73.243z"/>
	<path fill="#FFFFFF" d="M112.606,49.446c0.104,1.004,2.375,1.98,2.375,1.98l-6.889,0.719c0,0,1.917-1.274,1.797-2.416l-0.811-7.774
		c-0.099-0.944-2.224-2.056-2.224-2.056c0.978-0.162,1.722-0.279,2.522-0.423c1.094-0.193,2.505-0.4,3.214-0.475
		c2.893-0.301,4.507-0.092,5.593,0.79c0.718,0.582,1.09,1.299,1.179,2.146c0.156,1.495-0.803,2.789-2.582,3.473
		c1.412,0.946,2.263,2.43,3.806,3.682c0.892,0.723,2.8,1.658,2.8,1.658c-0.432,0.064-0.629,0.085-1.219,0.146
		c-2.44,0.255-3.481,0.005-4.503-0.823c-1.087-0.882-2.444-2.83-3.816-3.78l-1.555,0.162L112.606,49.446z M112.279,45.642
		l0.768-0.08c2.382-0.249,3.684-1.12,3.464-3.227c-0.218-2.086-1.89-2.668-3.799-2.469l-1.023,0.106L112.279,45.642z"/>
	<path fill="#FFFFFF" d="M49.472,79.928c0.568-0.907,1.243-1.933,1.708-2.694c0.522-0.843,0.923-1.48,1.483-2.272
		c2.282-3.233,3.759-4.468,5.8-4.819c1.462-0.252,2.979,0.068,4.354,1.038c1.471,1.038,2.308,2.598,2.56,4.06
		c0.243,1.407,0.12,3.331-2.22,6.646l-3.628,5.141c0,0,0.22-2.097-0.701-2.747l-6.241-4.405
		C51.439,79.063,49.472,79.928,49.472,79.928z M60.289,81.967c1.083,0.765,1.343,0.706,2.222-0.539
		c2.567-3.638,0.74-6.333-1.184-7.69c-1.342-0.947-2.885-1.335-4.126-1.12c-1.352,0.232-2.488,1.054-3.652,2.702
		c-0.308,0.437-0.543,0.804-0.809,1.318L60.289,81.967z"/>
	<path fill="#FFFFFF" d="M50.868,96.756l1.539,1.554c0.673,0.671,2.536-0.999,2.536-0.999l-2.067,5.008c0,0-0.287-2.059-1.208-2.985
		l-8.583-8.952l0,0l12.579-0.637c1.255-0.063,2.838-1.053,2.838-1.053l-2.536,6.143c0,0-0.234-2.413-1.171-2.353l-2.217,0.136
		L50.868,96.756z M47.244,92.945l3.077,3.105l1.373-3.326L47.244,92.945z"/>
	<g>
		<path fill="#FFFFFF" d="M165.775,49.547c3.63,1.983,4.957,5.663,3.183,8.91c-1.689,3.091-5.577,4.552-9.728,2.284
			c-3.994-2.183-4.927-6.007-3.332-8.925C157.777,48.379,161.903,47.431,165.775,49.547z M160.037,60.213
			c2.415,1.318,4.682-0.148,5.991-2.545c1.528-2.796,1.563-6.159-1.077-7.602c-2.206-1.205-4.577-0.291-6.01,2.331
			C157.129,55.714,157.59,58.875,160.037,60.213z"/>
		<path fill="#FFFFFF" d="M166.131,69.867c-4.169-3.414-2.76-2.917-3.898-6.522c-1.14-3.606-0.36-8.718-1.17-9.29
			s1.809-0.775,2.698,6.948C164.649,68.726,166.131,69.867,166.131,69.867z"/>
	</g>
	<path fill="#FFFFFF" d="M62.574,226.024C27.505,205.313,3.932,167.122,3.932,123.529C3.932,57.943,57.29,4.585,122.877,4.585
		c65.585,0,118.943,53.357,118.943,118.943c0,65.585-53.358,118.943-118.943,118.943c-21.705,0-42.069-5.842-59.604-16.039
		l-1.919-1.041l-1.36,1.961l1.945,1.266c17.924,10.434,38.746,16.414,60.938,16.414c66.997,0,121.502-54.506,121.502-121.503
		c0-66.997-54.505-121.503-121.502-121.503C55.879,2.026,1.373,56.532,1.373,123.529c0,44.515,24.064,83.517,59.867,104.679
		l1.473,0.744l1.16-2.08L62.574,226.024z"/>
	<path fill="#FFFFFF" d="M75.246,200.782c-25.827-15.986-43.134-44.711-43.134-77.253c0-42.142,29.043-77.789,68.072-87.888
		l0.703-2.086c-40.487,9.896-70.623,46.481-70.623,89.974c0,33.257,17.621,62.476,44.017,78.812l1.412,0.766l0.841-1.477
		L75.246,200.782z"/>
	<path fill="#FFFFFF" d="M75.139,202.864c13.949,8.424,30.287,13.275,47.738,13.275c51.064,0,92.61-41.545,92.61-92.611
		c0-51.065-41.546-92.61-92.61-92.61c-5.921,0-11.713,0.559-17.328,1.625l-0.302,1.942c5.704-1.129,11.599-1.721,17.63-1.721
		c49.975,0,90.764,40.789,90.764,90.764c0,49.974-40.789,90.632-90.764,90.632c-17.155,0-33.211-4.791-46.902-13.104l-1.394-0.797
		l-1.402,1.238L75.139,202.864z"/>
	<g>
		<path fill="#FFFFFF" d="M121.938,23.867c-0.828-0.039-1.66-0.272-2.428-0.717c-0.73-0.423-1.323-0.99-1.765-1.645"/>
		<path fill="#FFFFFF" d="M123.29,16.451l3.105-2.998c0.646,0.52,1.184,1.197,1.544,2.008c0.342,0.771,0.488,1.578,0.46,2.367
			l-4.303,0.354l3.856,2.043c-0.293,0.776-0.772,1.496-1.433,2.089c-0.626,0.563-1.35,0.952-2.108,1.17l-1.713-3.999l-0.762,4.382
			c-0.828-0.039-1.66-0.272-2.428-0.717c-0.73-0.423-1.323-0.99-1.765-1.645l3.283-2.947l-4.191,0.666
			c-0.218-0.801-0.254-1.664-0.068-2.531c0.176-0.824,0.533-1.564,1.019-2.187l3.605,2.177l-1.899-3.621
			c0.693-0.455,1.504-0.756,2.387-0.848c0.839-0.088,1.651,0.023,2.394,0.294L123.29,16.451z"/>
	</g>
	<g>
		<g>
			<path fill="#FFFFFF" d="M159.309,102.762 M167.464,98.423c-0.791-0.018-1.89-0.725-2.194-1.7
				c-0.307-0.976,0.579-1.607,0.579-1.607c0.03,0.039,0.064,0.075,0.101,0.109c0.063,0.072,0.108,0.125,0.108,0.125l0.005-0.032
				c0.183,0.129,0.439,0.023,0.688,0.012c0.561-0.024,0.669-0.239,0.647-0.754c-0.023-0.515-0.465-0.976-1.005-0.823
				c-0.479,0.137-1.231,0.246-1.646-0.037c-0.152-0.104-0.181-0.571-0.06-0.963c0.039-0.229,0.254-0.711,0.249-0.832
				c-0.016-0.354-0.44-0.606-0.826-0.59c-0.387,0.018-0.744,0.33-0.729,0.684c0.021,0.499,0.34,0.699,0.556,0.945
				c0.333,0.379,0.216,0.677,0.096,0.868c-0.087,0.14-1.045,0.466-1.045,0.466l0.021,0.039c-0.073-0.012-0.147-0.019-0.226-0.015
				c-0.561,0.024-0.95,0.293-0.929,0.808c0.023,0.515,0.326,0.874,0.887,0.85c0.363-0.016,0.671-0.205,0.84-0.475
				c0,0,0.83,0.633,0.718,1.438c-0.111,0.794-0.171,1.438-1.667,1.904c-1.225,0.382-1.981-0.351-1.981-0.351
				s-0.36,1.063-1.464,0.938c-1.688-0.192-1.991-2.228-1.991-2.228s0.698,0.026,1.05-0.88c0.297-0.766-0.211-1.238-1.039-1.35
				c-0.499-0.067-1.135,0.707-1.832,0.408c-0.696-0.3,0.362-1.664-0.549-2.184c-0.84-0.478-1.324,0.614-1.324,0.614
				s1.286,1.33,2.965,3.752c1.345,1.938,3.226,4.243,3.226,4.243l-0.957,0.642c0,0-1.301-2.022-3.357-4.8
				c-1.755-2.368-3.122-3.844-3.122-3.844s-0.053-0.198,0.437-0.701c0.621-0.638,1.569-1.519,2.708-1.005
				c1.14,0.515,0.563,2.301,0.563,2.301s0.614-0.677,1.634-0.54c1.104,0.149,2.08,1.17,1.904,2.138
				c-0.251,1.375-1.098,1.718-1.098,1.718s-0.128,0.535,0.924,0.427c0.64-0.065,1.066-1.014,1.066-1.014
				c0.048-0.016,1.588,1.415,2.421,0.327c0.08-0.104,0.128-0.232,0.192-0.352c-0.13,0.03-0.265,0.049-0.402,0.05
				c-1.055,0.013-1.921-0.85-1.936-1.926c-0.016-1.076,0.827-1.959,1.881-1.972c0.396-0.005,0.112-0.027,0.653,0.073l0,0
				c-0.422-0.229-0.955-0.685-0.967-1.456c-0.012-0.902,0.95-1.822,1.834-1.833c0.884-0.01,2,0.804,2.013,1.706
				c0.008,0.567-0.305,1.016-0.541,1.273l0,0c0.236-0.258,0.598-0.398,1.151-0.405c1.053-0.013,1.92,0.851,1.935,1.927
				c0.016,1.076-0.827,1.959-1.881,1.971c-0.086,0.002-0.168-0.013-0.251-0.022c0.016,0.016,0.031,0.032,0.045,0.044
				c0.371,0.321,0.841,0.461,1.245,0.534c1.291,0.234,1.44-0.781,1.44-0.781s0.625,0.588,1.235,0.388
				c1.005-0.33,0.796-0.949,0.796-0.949s-0.93,0.136-1.719-1.019c-0.556-0.813-0.503-1.724,0.445-2.31
				c0.875-0.541,2.053-0.221,2.053-0.221s-1.096-1.284-0.265-2.219c0.83-0.934,2.026-0.513,2.854-0.183
				c0.651,0.259,1.063,0.493,1.063,0.493s-0.87,1.465-1.507,4.343c-0.825,3.73-1.315,5.751-1.315,5.751l-1.021-0.278
				c0,0,0.577-3.239,1.163-5.624c0.653-2.658,1.266-3.549,1.266-3.549s-1.021-0.909-1.594-0.131
				c-0.621,0.846,0.808,1.495,0.293,2.052c-0.515,0.558-1.438-0.004-1.866,0.262c-0.711,0.439-0.646,0.721-0.232,1.306
				c0.429,0.604,1.277,0.366,1.277,0.366s0.66,2.055-0.802,2.918c-0.956,0.565-1.845-0.152-1.845-0.152
				S169.207,98.46,167.464,98.423z"/>
			<path fill="#FFFFFF" d="M158.5,102.009c-0.117-1.025,3.016-2.216,6.997-2.659s7.304,0.027,7.422,1.052
				c0.117,1.024-3.016,2.215-6.997,2.659C161.94,103.504,158.617,103.034,158.5,102.009z M165.186,102.07
				c2.422-0.255,4.042-0.702,3.932-1.349c-0.069-0.413-2.055-0.545-4.478-0.291c-2.423,0.255-4.346,0.798-4.295,1.213
				C160.396,102.059,162.763,102.325,165.186,102.07z"/>
		</g>
		<g>
			<path fill="#FFFFFF" d="M184.112,99.172 M192.267,94.833c-0.792-0.018-1.889-0.725-2.195-1.7
				c-0.305-0.976,0.581-1.607,0.581-1.607c0.029,0.039,0.063,0.075,0.1,0.109c0.063,0.072,0.108,0.125,0.108,0.125l0.005-0.032
				c0.184,0.129,0.438,0.023,0.688,0.012c0.562-0.024,0.67-0.239,0.646-0.754c-0.021-0.515-0.464-0.976-1.005-0.822
				c-0.479,0.136-1.23,0.245-1.646-0.038c-0.152-0.104-0.18-0.571-0.06-0.963c0.038-0.229,0.255-0.711,0.249-0.832
				c-0.016-0.354-0.44-0.606-0.826-0.59c-0.386,0.018-0.744,0.33-0.729,0.684c0.022,0.499,0.341,0.699,0.558,0.945
				c0.332,0.379,0.215,0.677,0.096,0.868c-0.088,0.14-1.045,0.466-1.045,0.466l0.02,0.039c-0.073-0.012-0.147-0.019-0.225-0.015
				c-0.563,0.024-0.951,0.293-0.929,0.808s0.325,0.875,0.887,0.85c0.362-0.016,0.671-0.205,0.839-0.475c0,0,0.83,0.633,0.718,1.438
				c-0.11,0.794-0.17,1.438-1.667,1.904c-1.226,0.383-1.981-0.351-1.981-0.351s-0.359,1.063-1.464,0.938
				c-1.688-0.192-1.99-2.228-1.99-2.228s0.697,0.026,1.05-0.88c0.296-0.766-0.212-1.238-1.04-1.35
				c-0.5-0.067-1.135,0.707-1.831,0.408c-0.697-0.3,0.362-1.664-0.55-2.184c-0.84-0.478-1.324,0.614-1.324,0.614
				s1.286,1.33,2.966,3.752c1.343,1.938,3.226,4.243,3.226,4.243l-0.958,0.642c0,0-1.301-2.022-3.357-4.8
				c-1.755-2.368-3.122-3.844-3.122-3.844s-0.053-0.198,0.437-0.701c0.622-0.638,1.57-1.519,2.709-1.004
				c1.139,0.514,0.563,2.3,0.563,2.3s0.615-0.677,1.634-0.54c1.104,0.149,2.08,1.17,1.904,2.138
				c-0.25,1.375-1.098,1.718-1.098,1.718s-0.128,0.535,0.924,0.427c0.64-0.065,1.066-1.013,1.066-1.013
				c0.048-0.017,1.587,1.414,2.421,0.326c0.08-0.104,0.128-0.232,0.192-0.352c-0.13,0.03-0.264,0.049-0.402,0.05
				c-1.054,0.013-1.921-0.85-1.936-1.926s0.827-1.959,1.882-1.972c0.395-0.005,0.112-0.027,0.653,0.073l0,0
				c-0.424-0.229-0.957-0.685-0.967-1.456c-0.013-0.902,0.95-1.822,1.834-1.833c0.883-0.01,1.999,0.804,2.012,1.706
				c0.008,0.567-0.305,1.016-0.541,1.274l0,0c0.236-0.259,0.598-0.399,1.15-0.406c1.055-0.013,1.921,0.85,1.937,1.927
				c0.015,1.076-0.828,1.959-1.882,1.971c-0.086,0.001-0.167-0.013-0.251-0.022c0.016,0.016,0.032,0.033,0.045,0.044
				c0.372,0.321,0.84,0.461,1.245,0.534c1.29,0.234,1.44-0.781,1.44-0.781s0.624,0.588,1.235,0.388
				c1.005-0.33,0.796-0.949,0.796-0.949s-0.93,0.136-1.719-1.019c-0.555-0.812-0.502-1.724,0.445-2.31
				c0.875-0.541,2.053-0.221,2.053-0.221s-1.095-1.284-0.265-2.219c0.83-0.934,2.026-0.512,2.854-0.183
				c0.652,0.259,1.063,0.493,1.063,0.493s-0.869,1.465-1.506,4.343c-0.825,3.73-1.315,5.751-1.315,5.751l-1.021-0.278
				c0,0,0.577-3.239,1.162-5.624c0.653-2.658,1.266-3.549,1.266-3.549s-1.021-0.909-1.594-0.131
				c-0.621,0.846,0.808,1.495,0.293,2.052c-0.515,0.558-1.438-0.004-1.866,0.262c-0.711,0.439-0.646,0.721-0.231,1.306
				c0.428,0.604,1.275,0.366,1.275,0.366s0.662,2.055-0.801,2.918c-0.957,0.565-1.845-0.152-1.845-0.152
				S194.01,94.871,192.267,94.833z"/>
			<path fill="#FFFFFF" d="M183.304,98.419c-0.117-1.025,3.016-2.216,6.996-2.659c3.981-0.443,7.305,0.027,7.422,1.052
				s-3.016,2.215-6.997,2.659C186.744,99.915,183.421,99.444,183.304,98.419z M189.988,98.48c2.423-0.254,4.042-0.702,3.932-1.349
				c-0.069-0.413-2.055-0.545-4.478-0.291c-2.422,0.255-4.345,0.798-4.295,1.214C185.198,98.469,187.565,98.735,189.988,98.48z"/>
		</g>
		<g>
			<path fill="#FFFFFF" d="M173.855,116.103 M182.01,111.764c-0.791-0.018-1.89-0.725-2.194-1.7c-0.306-0.976,0.58-1.607,0.58-1.607
				c0.029,0.039,0.063,0.074,0.1,0.109c0.063,0.072,0.108,0.125,0.108,0.125l0.005-0.032c0.183,0.129,0.438,0.022,0.688,0.012
				c0.561-0.024,0.67-0.24,0.647-0.755c-0.023-0.515-0.465-0.976-1.005-0.822c-0.479,0.136-1.231,0.246-1.646-0.037
				c-0.152-0.104-0.181-0.571-0.06-0.963c0.038-0.23,0.254-0.711,0.249-0.833c-0.016-0.354-0.44-0.605-0.826-0.589
				c-0.387,0.017-0.744,0.33-0.729,0.684c0.021,0.499,0.34,0.698,0.556,0.945c0.333,0.379,0.216,0.676,0.096,0.867
				c-0.087,0.141-1.044,0.467-1.044,0.467l0.02,0.038c-0.073-0.012-0.147-0.018-0.226-0.014c-0.561,0.024-0.951,0.292-0.929,0.807
				c0.023,0.515,0.326,0.875,0.887,0.851c0.363-0.016,0.671-0.205,0.84-0.475c0,0,0.83,0.633,0.718,1.438
				c-0.111,0.795-0.171,1.439-1.667,1.905c-1.226,0.382-1.981-0.351-1.981-0.351s-0.36,1.063-1.464,0.938
				c-1.688-0.193-1.991-2.228-1.991-2.228s0.698,0.026,1.05-0.88c0.297-0.766-0.211-1.238-1.039-1.35
				c-0.499-0.067-1.135,0.707-1.832,0.407c-0.696-0.299,0.362-1.664-0.549-2.183c-0.84-0.478-1.324,0.614-1.324,0.614
				s1.286,1.33,2.965,3.752c1.345,1.938,3.226,4.243,3.226,4.243l-0.957,0.641c0,0-1.301-2.021-3.357-4.799
				c-1.755-2.368-3.122-3.844-3.122-3.844s-0.053-0.199,0.437-0.701c0.621-0.638,1.569-1.519,2.708-1.005
				c1.139,0.515,0.563,2.301,0.563,2.301s0.616-0.677,1.635-0.54c1.104,0.149,2.08,1.169,1.904,2.138
				c-0.251,1.375-1.098,1.718-1.098,1.718s-0.128,0.534,0.924,0.427c0.64-0.066,1.066-1.014,1.066-1.014
				c0.048-0.017,1.588,1.414,2.421,0.327c0.08-0.104,0.128-0.233,0.192-0.352c-0.13,0.03-0.264,0.048-0.402,0.05
				c-1.055,0.013-1.921-0.85-1.936-1.927c-0.016-1.075,0.827-1.959,1.881-1.971c0.396-0.005,0.112-0.027,0.653,0.073l0,0
				c-0.422-0.229-0.955-0.685-0.967-1.456c-0.012-0.902,0.95-1.822,1.834-1.833c0.884-0.01,2,0.804,2.012,1.706
				c0.009,0.567-0.304,1.016-0.54,1.273l0,0c0.236-0.258,0.598-0.398,1.15-0.405c1.054-0.013,1.922,0.85,1.936,1.926
				c0.016,1.077-0.827,1.959-1.881,1.972c-0.086,0.001-0.168-0.013-0.251-0.022c0.016,0.015,0.031,0.032,0.045,0.044
				c0.371,0.321,0.841,0.461,1.245,0.534c1.291,0.234,1.44-0.781,1.44-0.781s0.624,0.588,1.235,0.387
				c1.005-0.329,0.796-0.948,0.796-0.948s-0.93,0.136-1.719-1.019c-0.556-0.813-0.503-1.724,0.445-2.31
				c0.875-0.541,2.053-0.222,2.053-0.222s-1.096-1.284-0.265-2.218c0.83-0.934,2.026-0.513,2.854-0.184
				c0.651,0.26,1.063,0.494,1.063,0.494s-0.87,1.465-1.507,4.343c-0.826,3.73-1.314,5.751-1.314,5.751l-1.022-0.278
				c0,0,0.578-3.24,1.163-5.624c0.653-2.658,1.266-3.549,1.266-3.549s-1.021-0.909-1.594-0.131
				c-0.621,0.846,0.807,1.495,0.293,2.052c-0.515,0.558-1.438-0.004-1.866,0.262c-0.711,0.439-0.646,0.721-0.232,1.306
				c0.429,0.604,1.277,0.366,1.277,0.366s0.66,2.055-0.802,2.918c-0.956,0.565-1.845-0.152-1.845-0.152
				S183.753,111.801,182.01,111.764z"/>
			<path fill="#FFFFFF" d="M173.046,115.349c-0.117-1.024,3.016-2.215,6.997-2.658c3.981-0.444,7.305,0.026,7.422,1.052
				c0.117,1.024-3.016,2.215-6.997,2.658C176.486,116.845,173.164,116.375,173.046,115.349z M179.731,115.411
				c2.422-0.255,4.042-0.702,3.933-1.349c-0.07-0.413-2.057-0.546-4.479-0.291c-2.423,0.255-4.346,0.798-4.295,1.213
				C174.941,115.4,177.309,115.666,179.731,115.411z"/>
		</g>
	</g>
	<path fill="#FFFFFF" d="M131.065,90.057c-3.23,3.584-1.112,8.73-1.851,13.28c-1.277,3.703-5.171,6.043-6.332,9.801
		c-0.285,2.187-0.549,5.232,0.986,6.854c0.106-0.29-0.185-0.454-0.248-0.682c-0.635-4.455,0.753-7.635,4.626-11.419
		c5.904-6.667-1.002-12.063,4.598-17.086L131.065,90.057z"/>
	<path fill="#FFFFFF" d="M144.827,132.128c2.693-0.07,4.465-0.416,7.122-1.109c2.607-0.785,4.707-1.521,7.121-2.359
		c5.213-1.611,8.131-2.85,13.575-2.938l0.659,0.002c1.549,0.016,2.932,0.266,4.318,0.686c0.693,0.211,1.609,0.855,2.337,1.268
		c3.473,3.012,3.71,4.705,8.091,7.416c1.97,0.75,3.833,2.838,5.393,3.254c-0.647-0.621-1.332-0.922-2.723-2.355
		c-2.065-1.811-5.602-6.414-9.443-9.293c-2.097-1.205-4.353-1.949-6.824-2.168c-4.779-0.791-10.3,0.59-14.384,2.246
		c-4.383,1.434-5.929,1.715-10.563,2.473c-1.7,0.352-2.953,0.152-4.397-0.238c-0.59-4.721-2.275-3.793-1.659-9.366
		c1.828-6.648,1.104-12.356-1.157-17.571c0.524-1.849,0.682-4.547-0.85-6.055c-1.296-1.284-4.802-1.592-5.484,0.721
		c0.392,1.823,2.785,0.714,3.954,1.542c1.386,0.364,1.277,2.03,1.053,2.93c-0.329,2.703-3.457,4.094-5.507,4.607
		c0.787,1.573,3.919,0.548,4.931-0.38c1.156,2.492,1.771,2.822,2.191,5.9c0.258,5.382-1.293,5.142-3.315,8.597
		c-0.928,1.854-0.856,4.227,0.563,7.922c-0.395-5.619,0.337-5.956,1.909-8.484c0,0-0.562,2.304-0.505,4.495
		c0.067,2.612,1.433,3.372,1.531,5.717c-0.461,2.076-0.464,2.768-1.813,4.453c-2.455,3.234-6.799,2.865-8.54,11.125
		c3.202-4.721,3.933-5.957,6.91-7.643C143.311,135.837,143.924,134.515,144.827,132.128z"/>
	<path fill="#FFFFFF" d="M114.555,104.864c1.461,1.05,1.786,2.318,3.022,3.489c-0.58-0.152-4.081-2.747-5.974-2.005
		c-2.688,0.244-6.263,2.662-8.624,0.145c-1.599-0.681-2.687-3.411-2.961-5.066c1.501,2.54,4.15,5.106,7.572,4.441
		c1.794-0.387,2.773-0.628,4.323-0.555c0.802-0.021,2.023,0.084,3.008,0.971c-1.154-1.14-2.587-1.982-4.357-1.982
		c-3.961,0.085-8.091,1.854-10.546-2.875c2.287,1.779,7.009,1.961,10.942,1.898C112.28,103.483,113.654,103.905,114.555,104.864z
		 M108.475,98.162c-0.27,0.638-0.993,1.46-0.518,2.078l1.109-1.406C108.831,98.611,108.597,98.445,108.475,98.162z M110.983,99.757
		c0.413,0.447,0.599,0.958,0.728,1.471c0.519,0.101,0.667-0.763,1.067-0.831L110.983,99.757z M111.71,102.825
		c-0.375-1.137-0.706-2.266-1.917-2.52c-1.222-0.656-2.344,2.413-2.753-0.041c-0.497-1.421,1.165-2.48-0.408-3.661
		c-1.292-1.967,0.618-2.416,0.075-4.529c-0.099-1.546-0.355-3.562,1.794-3.66c3.248-0.774,6.566-0.8,9.65,0.169
		c0.881-0.787,1.148-1.209,1.286-1.74c0,0,1.453-0.171,2.408,0.223s2.039,0.994,2.039,0.994c-0.932,0.118-2.531,0.284-2.419,1.577
		c0.618,1.517,2.06-0.609,5.924,1.896c0.295,0.326,0.856,0.528,0.983,1.498c-1.827-0.819-2.794-0.531-4.294-1.208
		c-1.205-0.397-1.559-0.431-2.781-0.221c-0.464,0.085-2.361,1.452-2.29,0.469c0,0,0-0.491-0.267-1.508
		c-0.296-0.927-0.717-0.834-1.545-1.11c-3.934-0.997-5.957-0.659-8.148-0.28c-0.843,0.211-1.234,1.438-0.864,2.403
		c0.747,1.49,1.018,1.247,1.82,1.207c0.674-0.394,1.056-1.386,2.201-1.474c0.848,0.055,1.548,0.016,1.802,0.927l0.014,0.516
		c-0.305-0.68-1.221-0.376-1.685-0.166c-0.21,0.211-0.379,0.422-0.21,0.675c0.3,0.508,0.655,0.27,1.116,0.372
		c-0.407,0.707-2.297,0.925-3.534,0.782c-0.448-0.059-0.489,0.607-0.715,0.728c-0.443,0.586-0.167,1.118,0.021,1.743
		c1.889,2.274,5.085,2.447,7.536,4.045c0.64,0.327,1.163,1.428,1.349,1.938c-1.161-0.542-1.442,1.258-1.433,1.602l0.516-0.315
		c0.384-0.135,1.37-0.627,1.423-0.696c0.646,0.613,0.421,1.602,0.596,2.392c0.269-0.695,0.106-1.437,0.5-2.279
		c0.843,2.922,2.515,8.105-1.756,14.792c-2.191,4.495-1.924,5.431-1.686,11.519c-2.978-6.293-0.724-9.459-0.098-13.354
		c0.042-0.343,0.042-0.848-0.422-1.186c0.146,1.667-0.211,2.739-1.475,4.468c-2.054,2.52-2.36,5.9-1.222,8.386
		c0.969,2.809,1.742,3.922,1.419,6.855c-0.45,2.809-1.18,4.494-0.168,8.203l0,0c-2.276-4.467-1.564-5.957-1.452-8.551
		c0.094-2.189-0.382-4.354-1.688-6.051l0.779,0.666c-0.758,5.17-7.838,5.676-5.226,12.67c0.899,1.574,2.922,4.637,3.034,6.098
		c-1.501-2.541-3.319-2.721-4.596-5.439c-3.4-0.654-6.101,1.82-9.396,2.84c-1.889,0.539-3.835,1.434-7.038-1.348
		c5.984,2.191,10.12-1.725,13.922-3.201c2.158-0.965,1.273-2.525,1.559-3.883c0.694-4.09,4.557-3.922,5.713-7.852
		c0.087-3.313-0.418-5.334,0.593-7.526s2.597-1.588,2.815-4.376c0.945-3.236-3.838-3.552-2.902-7.547
		c0.562,0.749,1.625,1.232,2.559,1.688c1.64,0.799,3.448,2.133,4.594,3.422c-0.132-0.627-1.379-2.592-2.023-3.09l-1.629-1.236
		c0.155-0.635,0.915-0.998,1.534-1.436c-0.181,1.84,2.078,2.697,2.969,3.82c0.62-2.54-0.083-5.273-0.718-7.55
		c0,0-0.863-0.117-1.369,0.613c-0.73-1.741-0.233-2.634,0.02-3.902c0.021-0.674-0.582-0.256-0.918-0.199
		c-0.618,0.337-0.85,0.533-0.85,0.533l-0.9-1.524C112.742,101.201,111.92,102.074,111.71,102.825"/>
	<path fill="#FFFFFF" d="M139.2,100.092c0.194,0.798-0.185,1.668-0.625,2.368c-0.273,0.466-0.788,0.537-1.185,0.72
		c0.039-0.689,1.509-1.475,0.625-2.368l-1.58-1.219C137.049,98.946,138.824,98.899,139.2,100.092z"/>
	<path fill="#FFFFFF" d="M113.325,110.158c-0.4,0.049-0.744,0.049-1.124-0.218c-1.451-0.649,0.167-1.247,0.262-1.995
		C112.992,108.447,112.905,109.481,113.325,110.158z"/>
	<path fill="#FFFFFF" d="M119.28,126.288c0.079,2.918-0.198,4.998-0.771,6.701c-0.601,1.775-0.746,2.252-2.103,4.441
		c1.128-2.715,1.509-4.74,1.888-7.861c0.286-2.764,0.187-6.781,1.3-9.022l0.947-2.697
		C119.396,122.396,119.395,124.407,119.28,126.288z"/>
	<path fill="#FFFFFF" d="M83.792,156.782c0.716-0.885,1.159-0.656,1.559-0.801c0.5,0.502,0.347,1.088,1.121,1.455
		c1.126,0.551,2.702-0.564,3.49-1.102c0,0,2.16,1.416,3.396,1.416c1.236,0,1.686-1.236,2.81-1.236c1.124,0,1.798,1.406,1.798,1.406
		s1.128-0.105,7.08-1.068c5.9-0.955,4.495,2.865,4.495,2.865s2.233,0.482,4.668-2.139c1.797-1.938,3.648-4.604,4.154-7.189
		c0.505-2.584,0.617-12.361,0.617-12.361s-1.629,4.383-1.854,6.912c-0.225,2.527-0.674,5.563-2.866,8.766
		c-0.483,0.705-2.36,1.518-2.36,1.518c0.185,0.031-0.646-1.475-1.349-2.023c-1.025-0.801-1.911-0.898-1.911-0.898
		s-4.383,2.977-6.012,2.865c-1.629-0.113,0.112-2.865,0.112-2.865s-4.945,1.854-7.473,2.584c-2.529,0.73-3.006-0.547-3.006-0.547
		c-1.25,0.434-3.852,1.551-5.394,1.01c-1.411-0.801-2.065-1.559-2.697-0.715l-1.433,1.559c-1.391-3.203,2.323-4.379,3.401-5.498
		l-2.367-0.264c-0.982-0.361-1.428-1.379-1.242-2.156c-1.318,0.033-2.547,0.707-3.584,0.861c0.202-2.641,3.427-1.5,4.696-3.203
		c0.333-0.459,1.236-0.855,2.235-0.291c0,0-2.937-1.867-2.718-2.682c0.758-2.824,5.516,1.434,6.632,2.049
		c-0.353-0.531-0.774-0.785-1.195-1.459c-1.992-4.318-7.122-3.541-8.935,0.084c0.245,0.424,1.896-0.914,2.065,0.211
		c0.337,0.563,0.779,1.152,0.922,1.342c-1.083,0.617-2.18,0.689-2.987,1.061c-3.076,1.096-3.161,5.184-3.161,5.184
		s3.111-0.576,4.126-0.984c0.136-0.041,0.278-0.092,0.425-0.154c0.464,1.602,1.939,0.506,0.211,3.541
		c-0.93,1.609,0.801,4.594,0.801,4.594S83.117,157.962,83.792,156.782z"/>
	<path fill="#FFFFFF" d="M125.091,133.94c-0.759,1.223-3.502,6.252-3.793,10.789c-0.912-4.104,0.085-7.418,3.329-12.938
		c4.636-6.828,2.197-13.478,2.486-15.55C130.737,128.716,126.462,131.61,125.091,133.94z"/>
	<path fill="#FFFFFF" d="M110.214,141.063c0.169,0.926,0.674,2.303,1.602,4.129c0.666,1.164,1.517,3.287,0.674,7.502
		c-0.927-5.816-1.517-5.9-2.502-8.016c-0.819-1.584-1.537-4.199-1.038-6.396c0.112-0.666,1.066-2.391,1.602-2.781
		C109.846,136.735,109.697,139.388,110.214,141.063z"/>
	<path fill="#FFFFFF" d="M123.068,148.86c-1.603,2.359-2.823,3.877-3.751,4.678c0.843-6.617,4.973-7.586,6.743-15.678
		C126.061,140.937,124.678,146.866,123.068,148.86z"/>
	<path fill="#FFFFFF" d="M150.798,158.089c0.873,0.234,1.763,0.473,2.401,0.801c-1.042-0.373-3.267-0.746-3.985-0.799
		c-0.536,0.051-0.932,0.025-1.298-0.037c-3.045-0.205-6.478-1.041-8.82-0.189c-3.826,1.607-7.993,4.738-8.749,6.895
		c-2.028,4.275-7.082,0.732-10.454,4.779c-0.885-0.951,0.395-2.473,2.29-3.652c1.415-0.727,4.925,0.324,6.26-1.283
		c0.796-0.844-1.053-2.834-3.371-1.873c-3.021,1.17-3.043,2.715-4.784,3.717c0.115-2.123,2.135-4.889,5.011-5.15
		c1.538-0.385,2.994,0.492,4.705,0.16c1.804-1.193,2.825-1.785,5.371-3.072c1.554-0.83,2.806-1.068,4.72-1.35
		C143.867,156.647,147.231,157.667,150.798,158.089z"/>
	<path fill="#FFFFFF" d="M114.661,110.83c0,0-0.345-0.039-1.155-0.304c-0.894-0.293-1.931-0.761-2.076-0.805
		c-0.434-0.132-0.675-0.221-0.675-0.221s0.183-0.292,0.47-0.299c0.287-0.008,1.392,0.249,2.36,0.701s1.457,0.869,1.457,0.869
		L114.661,110.83z"/>
	<path fill="#FFFFFF" d="M140.458,93.457c0,0-0.112,0.394,0.17,1.124c0.28,0.73,0.505,1.292,0.505,1.292s-3.596,0.112-3.314-0.393
		c0.28-0.506,0.561-0.956,0.393-1.293c-0.169-0.337-0.617-0.955-0.617-0.955L140.458,93.457z"/>
	<path fill="#FFFFFF" d="M119.5,103.571c-0.407-1.176-0.73-1.854-3.146-3.146c-2.417-1.292-4.383-1.686-5.226-2.022
		c-0.843-0.338-2.191-0.73-2.022-0.618s4.832,2.753,5.731,3.146c0.899,0.394,2.191,0.898,2.642,1.349
		c0.449,0.449,0.562,0.449,0.786,1.067s0,1.404,0.394,2.191c0.393,0.787,0.73,0.787,0.73,0.787S120.006,105.032,119.5,103.571z"/>
	<path fill="#FFFFFF" d="M113.084,95.021c1.349,0,2.048,0.101,3.068,0.445c1.021,0.345,1.379,1.947,2.083,2.832
		c0,0-2.482-2.669-4.476-2.585C113.424,95.728,112.437,95.02,113.084,95.021z"/>
	<path fill="#FFFFFF" d="M111.849,96.474c0.732-0.18,1.261,0.038,1.902,0.26s0.97,0.772,1.576,1.597l-0.589-0.281
		c0,0,0.126,0.004-0.722-0.44c-0.964-0.505-1.266-0.446-1.645-0.646S111.498,96.56,111.849,96.474z"/>
	<path fill="#FFFFFF" d="M133.996,93.344c0,0-1.601,1.433-1.769,3.962c-0.169,2.528,0.421,5.563,0.843,8.428
		c0.421,2.866,0.083,4.974-1.096,6.996c-0.9,1.543-1.686,3.708-1.602,5.984c0.103,2.784,2.205,5.492,2.205,5.492
		s-1.799-3.511-1.124-6.798c0.674-3.287,2.613-5.226,2.866-7.586c0.253-2.359-0.105-4.669-0.745-7.459
		C132.648,98.317,132.648,95.705,133.996,93.344z"/>
	<path fill="#FFFFFF" d="M131.005,134.376c0,0,1.798-2.865,1.854-5.449c0.057-2.586-1.629-5.169-2.135-7.867
		c-0.505-2.697-0.618-3.146-0.057-5.113c0.563-1.967,2.248-2.979,2.248-2.979s-1.349,2.585-1.404,4.215
		c-0.057,1.629-0.226,2.607,0.786,5.675c1.013,3.067,2.079,6.069,1.349,8.26s-1.742,3.371-2.472,4.326
		C130.443,136.399,129.993,136.456,131.005,134.376z"/>
	<path fill="#FFFFFF" d="M126.093,154.03c-0.378,0.277-0.831,0.578-1.381,0.912c-0.464,0.281-1.181,0.406-1.181,0.406
		s0.66-0.771,2.248-2.992c2.528-3.764,2.389-7.709,3.259-11.631c0.715-2.877,3.034-6.236,3.877-7.754s0.31-6.406,0.31-6.406
		c-0.169,8.26-4.552,7.924-5.647,14.441c-0.308,3.637-1.573,7.473-4.509,11.098c-2.234,3.076-6.266,6.336-10.269,7.895
		c4.608,0.898,7.754-0.393,11.8-0.563c0.954,0,2.809,0.057,4.045,0.338l0,0c0.843,0.393,1.124-0.619,3.597-1.91
		c1.798-0.9,3.124-1.488,4.723-1.982c2.179-0.531,3.92-0.986,5.531-0.744c-0.313-0.176,6.54-0.285,5.55-0.939
		c-0.386-1.539-2.815-0.176-2.094-1.055c-2.473,1.18-2.907,0.309-5.857,0.898c0,0-2.361,0.281-4.215,0.254
		c0,0-1.229-0.047-2.064-0.422c-1.63-0.73-1.461-2.248-1.461-2.248c0-0.842-0.002-1.383,0.112-2.471
		c0.112-1.068-0.211-2.908-0.211-2.908S129.769,151.851,126.093,154.03z"/>
	<path fill="#FFFFFF" d="M181.099,136.427c0,0-3.541-4.129-7.333-5.057c-3.793-0.928-10.873,0.168-15.172,2.359
		s-5.983,5.311-8.26,9.355c0,0-1.019,1.426-1.573,3.092c-0.733,2.199-0.786,3.146,0.478,3.736c0.652,0.305,3.708-1.18,3.708-1.18
		c-0.701-0.984-3.23-0.479-3.23-0.479s1.208-1.629,2.473-2.303c1.265-0.676,2.949-0.338,2.949-0.338l-1.432-1.012
		c0,0-0.085-1.012,1.348-4.213c1.433-3.203,2.866-5.732,8.429-7.164c5.563-1.434,8.345-1.771,11.716-0.17
		S181.099,136.427,181.099,136.427z"/>
	<path fill="#FFFFFF" d="M177.586,157.921c0,0-1.798-1.125-3.933-1.967c-1.885-0.744-4.435-1.551-4.435-1.551
		s6.07-1.059,9.435-1.822c2.107-0.477,3.095-0.76,4.384-1.404c1.349-0.674,1.854-1.348,1.854-1.348s0.759-0.338,1.854-3.26
		c0.875-2.334-0.346-6.449,0.169-7.135c1.011-1.35,7.592,0.371,10.451,4.832c2.107,3.287,0.252,8.68,0.252,8.68
		s1.883-0.73,2.107-5.646c0.262-5.732-6.281-8.953-6.281-8.953s3.978,0.807,6.45,4.965c2.473,4.156,0.955,9.27-2.528,13.766
		c-3.484,4.496-11.295,4.383-14.441,3.709c0,0,1.567,1.777,1.91,3.203c0.731,3.033-0.28,4.775-1.46,5.449
		c-1.016,0.58-6.688,0.955-8.484,1.012c-1.799,0.057-2.529,0-5.17,0.225c-2.642,0.225-5.502-0.336-6.743-0.336
		c-0.674,0-1.235,0.225-2.922,0.617c-2.631,0.613-2.585-0.057-2.585-0.057s0.45-1.293-2.921-0.787
		c-2.335,0.352-4.158,0.338-4.158,0.338s-1.854,1.125-5.17,0.506c-3.314-0.617-3.597-2.697-3.597-2.697s2.529,1.18,5.226,1.123
		c2.698-0.055,4.046-1.572,4.046-1.572s0.708,1.076,3.428,0.168c1.518-0.506,2.191-1.066,2.191-1.066s5.314,0.328,5.844,0.393
		c1.854,0.225,5.9,0.563,5.9,0.563s0.449,0,3.82,0.225c2.312,0.154,4.079,0.307,4.215-0.281c0.126-0.547-1.687-1.25-1.687-1.25
		s3.204,0.406,4.776,0.463c1.158,0.041,2.136-0.168,2.754-0.563c0.618-0.393,0.73-2.246,0.057-2.977
		c-0.878-0.951-0.588-0.877-1.771-1.434c-2.866-1.348-2.444-1.938-2.444-1.938s-0.809-1.08,1.012-0.254
		c0.927,0.422-0.169-1.18-0.169-1.18S178.4,158.257,177.586,157.921z M189.779,142.13c0,0,0.394,6.014-1.349,8.822
		c-1.741,2.811-5.956,6.238-5.956,6.238c4.607,1.797,12.924-0.676,14.271-5.283c1.294-4.416-0.713-8.23-2.696-9.439
		C191.746,141.063,189.779,142.13,189.779,142.13z"/>
	<path fill="#FFFFFF" d="M164.915,152.946c0,0,0.506,0.254,1.518,0.506c0.746,0.188,4.046,1.434,4.046,1.434
		s1.349,0.168,2.069-0.615c1.072-1.166-2.899,0.102-2.716-1.184c0.056-0.393-0.703-0.898-0.703-0.898s-1.18-0.252-2.106-0.168
		C165.168,152.188,164.915,152.946,164.915,152.946z"/>
	<path fill="#FFFFFF" d="M136.385,154.38c0,0,3.273-0.111,6.532-1.012c3.259-0.898,3.877-1.686,5.311-2.107
		c1.079-0.316,3.271-0.182,3.271-0.182s-0.604,0.211-0.771,1.109c-0.169,0.898,0.168,1.574,0.168,1.574s1.179-0.453,2.079-0.281
		c0.9,0.17,1.152,0.73,1.152,0.73s-0.928,1.461,0.31,1.854c1.236,0.395,2.78,0.396,5.338,1.264c2.557,0.869,4.102,1.125,6.067,1.518
		c1.967,0.395,4.131,1.096,4.131,1.096s0.309,0.281-0.422,0.676c-0.73,0.393,1.938,1.18,1.938,1.18s0.253,0.168-1.602,0
		c-1.557-0.143-1.801-0.051-3.764-0.451c-3.035-0.617-3.99-0.617-3.99-0.617s-1.236-0.225-2.81-0.281
		c-0.844-0.029-3.651-0.168-6.574-0.506c-2.922-0.336-5.169-0.842-6.799-1.461c-1.63-0.617-3.597,0-3.597,0s-0.73-0.785-2.247-0.168
		s-2.163,2.219-2.163,2.219s0.759-0.42,1.545-0.42s1.293,0.225,1.293,0.225s0.449,0.842-0.281,1.516
		c-0.73,0.676-2.022,1.236-2.022,1.236s-0.057-0.393-3.146-0.393c-3.091,0-3.429-0.449-4.496,1.068
		c-1.067,1.516-0.562-2.473-0.562-2.473s0.73-1.18,4.888-3.146c4.158-1.967,7.475-1.742,9.047-1.799
		c1.573-0.057,3.597,0.113,5.619,0.449c1.276,0.213,4.495,1.35,4.495,1.35s-1.49-1.309-4.383-2.361
		c-2.472-0.898-9.103-0.842-12.361-0.111s-4.495,0.057-4.158-0.449S136.385,154.38,136.385,154.38z"/>
	<path fill="#FFFFFF" d="M138.084,160.448c0,0,1.461-0.561,2.474-0.168c0.398,0.154,0.562,0.225,0.842,0.563
		c0.281,0.336,0.955,0.898,0.955,0.898s-3.539,0.281-2.81,1.967c0.73,1.686,2.642,1.404,2.642,1.404s-1.012,0.449-1.292,1.518
		c-0.281,1.066,0.729,1.629,0.729,1.629l2.866,1.123l-1.741,0.619c0,0-1.181-0.506-1.462,0.225c-0.28,0.73-0.393,1.475-0.393,1.475
		s-1.18-1.193-1.35-2.768c-0.168-1.572,1.013-2.752,1.013-2.752s-0.891-0.762-1.625,0.068c-0.735,0.83-0.904,1.742-0.904,1.742
		s-1.236-1.137-1.461-2.711c-0.225-1.572,1.012-2.697,1.012-2.697L138.084,160.448z"/>
	<path fill="#FFFFFF" d="M112.153,122.184c-0.927,6.153-3.118,8.934-3.708,11.042c0,0-0.505-1.152-1.77-1.996
		c-1.167-0.777-3.203,0.449-3.203,0.449s-1.854-2.416-6.068-4.186c-3.444-1.447-3.034,1.545-3.034,1.545s-2.81-3.09-3.934-4.326
		c-1.459-1.604-2.978-0.926-4.327-0.506c-1.348,0.422-5.31-0.167-5.31-0.167s-3.034-0.253-3.034-3.119
		c0-2.024,2.191-2.781,2.191-2.781s-1.854-1.096-1.686-3.203c0.168-2.106,2.444-2.022,2.444-2.022s-1.686-1.349-1.602-2.444
		c0.084-1.096,1.854-2.866,3.119-3.034c1.264-0.169,5.751,2.271,7.838,2.781c1.896,0.464,1.037,2.911,4.409,4.284
		c1.433,0.584,3.936,1.194,7.054,1.194s4.214,1.18,7.754,2.022c3.54,0.844,3.877-0.59,3.877-0.59S112.484,119.983,112.153,122.184z
		 M83.927,108.467c-1.16-0.484-1.963-0.287-2.917,0.483c-0.327,0.64-0.317,1.953,0.436,2.22c2.412,0.409,2.054-1.545,4.469-1.266
		C85.218,109.58,84.517,109.083,83.927,108.467z M81.445,118.532c-0.903,0.235-2.234,1.396-2.056,2.807l0,0
		c0.441,1.225,0.736,1.535,2.211,1.73c0.716-0.169,1.267-0.298,1.306-0.801l0,0c0,0-0.337-0.309-0.056-0.59
		c0.899-0.787,1.742-0.598,2.529-0.618c-1.18-1.18-1.756-1.138-2.304-1.518c-1.457-1.297-0.484-1.986,0.168-2.528
		c0.432-0.256,1.98-0.111,2.745,0.232l-2.52-2.985c-1.138-0.717-3.025-0.985-3.575,0.633c-0.105,0.421-0.177,1.597,0.316,1.896
		C81.052,117.689,81.501,117.914,81.445,118.532z M109.54,126.903c0,0-0.52-2.219,0.281-4.158c0.801-1.938,2.416-3.371,2.416-3.371
		c-1.751,1-2.553,0.053-7.02-1.254c-4.467-1.306-6.803-0.909-8.573-1.036c-1.77-0.126-5.9-2.57-6.532-3.118
		c-0.632-0.548-0.508-1.049-0.913-2.347c-0.281-0.898-1.517-1.292-2.36-1.123c-0.843,0.168-1.124,0.786-1.124,0.786
		s-0.463,0.112-1.349,0.281c-0.885,0.169-1.405,1.292-1.405,1.292s0.787-0.365,1.503-0.28c0.716,0.084,1.272,0.676,1.272,0.676
		c0.057,1.967-0.162,2.022,0.625,3.371c1.046,1.794,3.286,3.763,3.286,3.763c2.208,1.481,5.169,2.697,5.675,2.922
		c0.345,0.153,2.127,1.012,3.708,1.573c1.742,0.619,3.203,2.529,3.203,2.529s0.017-1.938,2.697-1.068
		C107.012,127.017,109.54,126.903,109.54,126.903z"/>
	<path fill="#FFFFFF" d="M137.396,105.875c0,0,0.639,3.365,0.042,4.889c-1.138,2.908-2.791,3.533-3.287,6.308
		c-0.59,3.301,0.45,7.079,1.011,8.989c0.563,1.912,1.181,4.201,0.507,5.773c-0.675,1.574-1.967,3.219-2.866,5.129
		s-1.475,4.396-1.475,4.396s1.362-3.049,2.262-4.396c1.123-1.686,2.818-3.711,3.427-5.451c1.476-4.215-0.729-6.912-1.18-9.327
		c-0.556-2.99,0.229-5.499,1.854-7.529c1.573-1.967,1.967-3.484,2.304-5.395c0.404-2.293,0.394-4.271,0.394-4.271L137.396,105.875z"
		/>
	<path fill="#FFFFFF" d="M68.481,192.542c0,0,67.305-1.705,84.503-3.268c4.625-0.42,12.804-0.674,17.893-1.18
		s12.639-0.844,12.639-0.844s-2.349,1.1-8.094,1.607c-6.542,0.574-18.786,2.059-24.439,2.059c-6.903,0-29.896,1.662-36.782,1.998
		C85.874,194.3,68.481,192.542,68.481,192.542z"/>
	<path fill="#FFFFFF" d="M107.854,28.066L90.576,104.99c0,0-0.084,0.97,0.421,1.18c0.506,0.211,0.872,0.296,1.433,0.633
		c0.632,0.379,1.138,0.885,1.138,0.885s-1.307-0.042-2.824-0.548c-1.427-0.476-1.686-1.391-1.686-1.391l17.559-77.458
		c0.562-3.315,1.742-10.283,1.911-12.024c0.168-1.742-0.225-1.349-0.899-0.506s-2.81,6.181-3.821,10.732
		c0,0-16.857,70.687-17.194,72.653c-0.337,1.967-0.126,2.894-1.053,4.453c-0.96,1.614-1.827,1.925-2.95,1.812
		c-0.84-0.083-2.009-0.126-2.234,0.549c-0.154,0.463,0.563,0.772,1.518,0.885s2.178,0.083,3.245-0.211
		c1.222-0.337,1.728-0.506,1.728-0.506s0.317,0.677,0.632,0.97c0.59,0.548,1.138,1.011,1.812,1.306
		c0.6,0.263,2.304,0.745,3.372,0.688c1.067-0.056,1.292,0.563,1.46,1.012c0.169,0.449,1.029,0.937,2.135,0.394
		c0.745-0.365,0.829-1.756,0.113-2.389c-0.86-0.758-2.079,0.085-2.304-0.309c-0.225-0.394,0.871-1.545,2.515-0.955
		c1.388,0.498,2.213,1.748,1.602,3.582c-0.632,1.896-2.711,1.868-3.835,1.699c-1.124-0.168-1.742-1.011-2.135-1.123
		c-0.394-0.112-1.236-0.169-1.236-0.169s-7.417-2.979-8.035-3.091s-2.191,0.169-2.753,0.281c-0.562,0.112-0.955,0.73-2.36,0.506
		c-0.777-0.124-3.3-1.1-2.528-3.414c0.562-1.686,1.728-2.401,3.498-2.106c0.908,0.151,0.969,1.011,1.77,1.138
		c1.044,0.165,1.812,0.056,2.149-1.012c0.337-1.067,18.43-73.159,18.43-73.159c2.585-8.541,4.551-13.767,6.293-15.958
		c1.742-2.191,2.531-4.094,2.248,0.787C109.428,19.637,108.941,22.959,107.854,28.066z M78.102,106.545
		c0.543,0,0.983-0.413,0.983-0.924c0-0.51-0.44-0.924-0.983-0.924s-0.983,0.414-0.983,0.924
		C77.119,106.132,77.559,106.545,78.102,106.545z"/>
	<path fill="#FFFFFF" d="M116.957,146.458c0,0,0.338-5.563,2.529-12.053c0.903-2.678,2.809-5.816,3.202-8.514
		c0.451-3.089-0.422-6.911-0.252-8.765c0.168-1.854,0.337-3.624,0.337-3.624h1.18c0,0-0.506,4.214-0.169,5.984
		c0.337,1.77,0.898,5.022,0.253,7.333c-1.012,3.623-2.989,6.064-3.765,9.074c-0.955,3.709-1.573,7.922-1.63,11.855L116.957,146.458z
		"/>
	<ellipse fill="#FFFFFF" cx="74.604" cy="104.989" rx="1.132" ry="1.073"/>
	<ellipse fill="#FFFFFF" cx="82.822" cy="129.6" rx="1.49" ry="1.431"/>
	<path fill="#FFFFFF" d="M81.136,123.617c0,0,0.421-0.295-0.042,0.211c-0.464,0.505-1.334,1.501-1.11,2.626
		c0.225,1.123,1.11,2.473,2.964,2.684c1.854,0.209,3.372-0.592,3.751-2.277c0.379-1.686-0.168-2.316-0.632-2.781
		c-0.463-0.463-2.36,0.169-2.36,0.169c0.801,0.547,1.18,1.348,1.096,2.148c-0.084,0.801-0.843,1.223-1.56,1.096
		c-0.716-0.127-1.501-0.701-1.222-1.643c0.337-1.139,1.517-1.602,1.517-1.602s-0.042-0.506,0.337-0.759
		C84.255,123.238,81.136,123.617,81.136,123.617z"/>
	<ellipse fill="#FFFFFF" cx="99.104" cy="110.384" rx="1.524" ry="1.564"/>
	<path fill="#FFFFFF" d="M91.607,158.202c0,0,1.82,3.918,3.619,6.277c1.798,2.361,3.034,4.158,4.158,6.068
		c1.124,1.912,4.51,7.158,7.207,10.756c2.697,3.596,7.492,8.99,7.492,8.99s-6.271-9.855-8.181-12.441
		c-1.91-2.584-3.708-5.617-5.506-7.979C98.597,167.515,92.731,159.214,91.607,158.202z"/>
	<path fill="#FFFFFF" d="M107.56,158.019c0,0,7.417,8.99,11.126,13.373c3.708,4.383,5.618,7.867,7.417,10.002
		c1.798,2.135,7.038,8.219,7.038,8.219s-2.543-5.746-5.69-9.117c-2.878-3.084-5.281-6.969-7.642-9.777
		c-2.359-2.811-5.956-7.643-7.529-8.99C110.706,160.378,108.346,157.905,107.56,158.019z"/>
	<path fill="#FFFFFF" d="M131.174,165.169c0,0,9.229,11.477,10.802,13.049c1.573,1.574,6.519,8.541,6.519,8.541
		s5.38,5.381,1.84,0.324c-0.859-1.229-5.45-7.08-7.473-9.666c-2.023-2.584-4.383-5.281-6.294-7.529
		C134.457,167.405,131.511,165.618,131.174,165.169z"/>
	<path fill="#FFFFFF" d="M153.832,170.366c0,0,1.461,2.809,3.034,4.27s4.607,4.945,5.619,6.182c1.011,1.236,6.976,6.354,6.976,6.354
		s-2.368-3.318-4.054-5.004c-1.687-1.688-3.483-3.484-4.833-5.059C159.227,175.536,154.731,171.04,153.832,170.366z"/>
	<path fill="#FFFFFF" d="M170.258,169.796c0,0,4.58,4.873,6.834,7.471c2.254,2.6,7.513,6.975,7.513,6.975s-1.126-2.537-2.769-4.037
		c-1.642-1.502-4.834-4.957-6.146-6.586c-1.31-1.629-3.284-3.58-3.284-3.58L170.258,169.796z"/>
	<path fill="#FFFFFF" d="M95.795,181.437c0,0,7.197-0.76,10.45-0.928c3.253-0.168,14.638-0.338,18.866-0.338
		c4.229,0,21.145-1.348,26.999-1.518c5.855-0.168,15.451-1.348,17.729-1.348s22.105-0.436,22.105-0.436s-3.073,0.936-9.217,1.311
		c-1.309,0.08-14.027,1.148-15.979,1.148c-1.952,0-7.685,0.125-7.685,0.125s-5.599,0.549-8.418,0.381
		c-2.818-0.168-8.24,0.645-8.24,0.645s-2.656,0.029-6.072,0.367c-3.415,0.336-9.596,0-10.246,0.168s-5.408,0.688-9.583,0.744
		s-7.929-0.07-8.417-0.238c-0.488-0.17-3.795,0.168-5.747,0.168S95.795,181.437,95.795,181.437z"/>
	<path fill="#FFFFFF" d="M137.41,168.765c0,0-9.103,0-11.014,0c-1.91,0-8.512,0.533-8.512,0.533s-5.872-0.195-8.906-0.195
		s-16.464,0.785-16.464,0.785s4.383,0.506,16.52,0.17c2.955-0.082,8.961,0,10.198,0c1.237,0,6.816-0.064,8.513-0.17
		C137.271,169.298,137.41,168.765,137.41,168.765z"/>
	<path fill="#FFFFFF" d="M115.651,160.237c0,0-9.229,0.127-12.938,0.295c-3.708,0.17-10.957,0.17-10.957,0.17
		s2.191-0.549,5.731-0.717c3.54-0.168,6.739-0.049,8.765-0.168C109.793,159.606,115.651,160.237,115.651,160.237z"/>
	<path fill="#FFFFFF" d="M56.364,128.351c-0.162-0.057-0.323-0.035-0.471,0.049l-0.168,0.021c-0.077,0.035-0.141,0.105-0.162,0.182
		l-0.028,0.119c-0.295,0.479-0.478,1.139-0.07,1.602c0.421,0.471,1.265,0.43,1.236,1.32l-0.021,0.105l0.07-0.336l-0.056,0.111
		c-0.077,0.154-0.147,0.309-0.225,0.465l-0.07,0.266c-0.063,0.168-0.049,0.352,0.042,0.514l0.035,0.057
		c0.365,0.85,1.257,1.229,2.072,1.537c-0.239,0.428-0.534,0.836-0.604,1.342l-0.021,0.246c-0.007,0.146,0.035,0.287,0.112,0.406
		l0.091,0.135c0.26,0.582,0.913,0.807,1.398,1.186c0.14,0.113,0.042,0.33-0.12,0.611c-0.415,0.725-0.07,1.561,0.569,2.059
		c0.408,0.316,0.941,0.449,1.159,0.906c0.302,0.652-0.246,1.299-0.169,2.023c0.113,0.961,0.864,1.791,1.875,1.791
		c0.07,0,0.197,0.105,0.183,0.146c-0.14,0.555-0.569,0.998-0.492,1.623c0.113,0.977,0.977,1.277,1.623,1.77
		c-0.126,0.246,0.141,0.514-0.197,0.744c-0.238,1.139,0.583,2.402,1.833,2.486c0.112,0.008,0.267,0.205,0.506,0.219
		c0.105,0.057,0.225,0.014,0.281-0.092c0.049-0.098,0.007-0.225-0.098-0.273c-0.464-0.568-1.138-1.012-1.222-1.805
		c0.548-1.111,0.183-2.564-1.11-2.992c-0.056-0.021-0.112-0.162-0.084-0.219c0.309-0.73,0.604-1.545,0.197-2.297
		c-0.302-0.555-0.927-0.828-1.581-0.934c-0.049-0.008-0.091-0.219-0.077-0.344c0.084-0.689,0.309-1.307,0.147-2.023
		c-0.21-0.963-0.99-1.496-1.784-1.889c-0.049-0.021-0.14,0.035-0.217,0.063c0.709-1.244,0.239-2.957-1.236-3.33l-0.281-0.344
		l0.119,0.408l0.042-0.254c0.316-0.779,0.632-1.748-0.196-2.416c-0.457-0.371-1.068-0.371-1.51-0.736l-0.211-0.408l0.07,0.387
		l0.084-0.246c0,0.014-0.007,0.021-0.007,0.035l0.189-0.357c0.049-0.1,0.077-0.205,0.07-0.316l-0.021-0.273
		c-0.113-0.879-0.829-1.463-1.707-1.645c-0.253-0.049-0.225-0.422-0.168-0.668l0.098-0.344l-0.098,0.141l0.218-0.111
		c-0.204-0.297,0.112-0.205,0.204-0.281c0.035-0.016,0.056-0.049,0.049-0.092C56.441,128.364,56.406,128.343,56.364,128.351
		L56.364,128.351z"/>
	<path fill="#FFFFFF" d="M63.893,126.833c-0.162-0.057-0.137,0.129-0.285,0.215l-0.168,0.02c-0.078,0.035-0.141,0.105-0.162,0.184
		l-0.028,0.119c-0.295,0.477-0.478,1.139-0.07,1.602c0.421,0.471,1.079,0.264,1.051,1.156l-0.021,0.104l0.07-0.336l-0.056,0.111
		c-0.077,0.156-0.147,0.311-0.225,0.465l-0.07,0.266c-0.063,0.17-0.049,0.352,0.042,0.514l0.035,0.057
		c0.365,0.85,1.257,1.229,2.072,1.537c-0.239,0.43-0.534,0.836-0.604,1.342l-0.021,0.246c-0.007,0.148,0.035,0.289,0.112,0.408
		l0.092,0.133c0.26,0.582,0.913,0.809,1.397,1.188c0.141,0.111,0.042,0.33-0.12,0.611c-0.414,0.723-0.07,1.559,0.569,2.057
		c0.407,0.316,0.941,0.449,1.159,0.906c0.302,0.654-0.246,1.299-0.168,2.023c0.112,0.961,0.864,1.791,1.875,1.791
		c0.07,0,0.197,0.105,0.183,0.146c-0.141,0.555-0.569,0.998-0.492,1.623c0.112,0.977,0.976,1.279,1.623,1.77
		c-0.126,0.246,0.14,0.514-0.197,0.746c-0.239,1.137,0.583,2.4,1.833,2.486c0.112,0.006,0.267,0.203,0.506,0.217
		c0.105,0.057,0.225,0.014,0.281-0.092c0.049-0.098,0.007-0.225-0.098-0.273c-0.464-0.568-1.138-1.012-1.222-1.805
		c0.548-1.109,0.183-2.564-1.11-2.992c-0.056-0.021-0.112-0.162-0.084-0.219c0.309-0.73,0.604-1.545,0.196-2.297
		c-0.302-0.555-0.927-0.828-1.58-0.934c-0.049-0.006-0.091-0.217-0.077-0.344c0.084-0.688,0.309-1.307,0.147-2.023
		c-0.21-0.961-0.99-1.496-1.784-1.889c-0.049-0.021-0.141,0.035-0.218,0.063c0.709-1.242,0.239-2.957-1.236-3.328l-0.281-0.346
		l0.119,0.408l0.042-0.252c0.316-0.781,0.632-1.75-0.197-2.418c-0.457-0.371-1.067-0.371-1.51-0.736l-0.21-0.408l0.07,0.387
		l0.084-0.246c0,0.014-0.007,0.021-0.007,0.035l0.189-0.357c0.049-0.1,0.077-0.203,0.07-0.316l-0.021-0.273
		c-0.112-0.879-0.643-1.297-1.521-1.479c-0.253-0.051-0.225-0.422-0.168-0.668l0.098-0.344l-0.098,0.141l0.218-0.113
		c-0.204-0.295,0.112-0.203,0.204-0.281c0.035-0.014,0.056-0.049,0.049-0.09C64.156,127.013,63.935,126.825,63.893,126.833
		L63.893,126.833z"/>
	<path fill="#FFFFFF" d="M70.809,125.956c-0.864,0.977-0.351,2.613,0.857,3.027c0.485,0.533-0.075,0.701-0.244,1.248l-0.028,0.135
		c0,0.105,0.028,0.217,0.084,0.309l0.028,0.057c0.162,0.639,0.632,1.145,1.271,1.391l0.218,0.014l-0.183-0.154l-0.014-0.035
		c0.386,0.217,0.878,0.633,0.667,1.025c-0.618,1.152-0.049,2.438,1.033,2.943l0.112,0.057l-0.316-0.289l0.288,0.324
		c0.168,0.049,0.295,0.182,0.316,0.4c0.028,0.26-0.084,0.484-0.211,0.766c-0.499,1.115,0.52,2.135,1.468,2.766
		c0.147,0.1,0.225,0.275,0.19,0.451c-0.176,0.99-0.653,2.086,0.295,2.787c0.625,0.471,1.04,0.969,1.32,1.658
		c0.014,0.182,0.169,0.322,0.352,0.309c0.183-0.006,0.323-0.162,0.316-0.344c0.274-0.668,0.225-1.539-0.309-2.059
		c-0.309-0.309-0.646-0.541-1.096-0.744c-0.126-0.057-0.225-0.436-0.147-0.646c0.316-0.877,0.358-1.924-0.274-2.627
		c-0.351-0.387-0.892-0.533-1.173-0.996c-0.45-0.738,0.161-1.51,0.084-2.305c-0.014-0.211-0.105-0.393-0.239-0.555l0.091,0.078
		c-0.077-0.127-0.183-0.225-0.309-0.289l-0.351-0.189c-0.484-0.176-0.927-0.533-1.054-1.033c-0.183-0.723,0.436-1.426,0.063-2.156
		l-0.028-0.182c-0.098-0.119-0.225-0.197-0.372-0.232l-0.19-0.098c0.049-0.008,0.091-0.021,0.141-0.029
		c-0.189-0.168-0.499-0.125-0.632-0.379l-0.302-0.301l0.084,0.309v-0.254c-0.155,0.029-0.19-0.133-0.169-0.182
		c0.323-0.99,0.152-1.721-0.852-2.275c-0.492-0.273-0.358-0.941-0.154-1.418c0.077-0.176,0-0.379-0.176-0.457
		S70.886,125.78,70.809,125.956L70.809,125.956z"/>
	<path fill="#FFFFFF" d="M49.319,129.649c-0.864,0.977-0.351,2.613,0.857,3.027c0.485,0.533-0.021,1.139-0.19,1.686l-0.028,0.133
		c0,0.105,0.028,0.219,0.084,0.311l0.028,0.055c0.162,0.641,0.632,1.146,1.271,1.391l0.218,0.016l-0.183-0.156l-0.014-0.033
		c0.386,0.217,0.878,0.631,0.667,1.025c-0.618,1.15-0.049,2.436,1.033,2.941l0.112,0.057l-0.316-0.287l0.288,0.322
		c0.168,0.049,0.295,0.184,0.316,0.4c0.028,0.26-0.084,0.484-0.211,0.766c-0.499,1.117,0.52,2.135,1.468,2.768
		c0.147,0.098,0.225,0.273,0.189,0.449c-0.176,0.99-0.653,2.086,0.295,2.789c0.625,0.471,1.04,0.969,1.321,1.656
		c0.014,0.184,0.168,0.324,0.351,0.311c0.183-0.008,0.323-0.162,0.316-0.344c0.274-0.668,0.225-1.539-0.309-2.059
		c-0.309-0.309-0.646-0.541-1.096-0.744c-0.126-0.057-0.225-0.436-0.147-0.646c0.316-0.879,0.358-1.926-0.274-2.627
		c-0.351-0.387-0.892-0.533-1.173-0.998c-0.45-0.736,0.162-1.51,0.084-2.303c-0.014-0.211-0.105-0.395-0.239-0.555l0.091,0.076
		c-0.077-0.127-0.183-0.225-0.309-0.287l-0.352-0.189c-0.484-0.176-0.927-0.535-1.054-1.033c-0.182-0.723,0.436-1.426,0.063-2.156
		l-0.028-0.184c-0.098-0.119-0.225-0.195-0.372-0.23l-0.189-0.1c0.049-0.006,0.091-0.02,0.14-0.027
		c-0.189-0.168-0.499-0.127-0.632-0.379l-0.302-0.303l0.084,0.309v-0.252c-0.155,0.027-0.19-0.133-0.168-0.184
		c0.323-0.99,0.098-2.156-0.906-2.711c-0.492-0.273-0.358-0.941-0.154-1.418c0.077-0.176,0-0.379-0.176-0.457
		C49.6,129.397,49.396,129.474,49.319,129.649L49.319,129.649z"/>
	<path fill="#FFFFFF" d="M56.651,148.599c-0.182,0.668,0.091,1.322,0.709,1.723c0.26,0.168,0.337,0.59,0.4,0.947
		c-0.056-0.084-0.119-0.176-0.175-0.26c-0.035,0.141-0.078,0.287-0.113,0.428l-0.091,0.254c-0.035,0.111-0.035,0.225-0.007,0.336
		l0.063,0.205c0.295,0.779,1.032,1.229,1.636,1.742c0.253,0.217,0.632,0.195,0.857-0.057c0.218-0.254,0.197-0.641-0.056-0.857
		c-0.358-0.33-0.737-0.639-1.103-0.955l-0.204-0.393l-0.014,0.365l0.063-0.189c0.45-0.941-0.07-2.313-1.145-2.432
		c-0.098-0.014-0.252,0.176-0.435-0.127c-0.141-0.225-0.176-0.49-0.246-0.744c-0.007-0.035-0.042-0.063-0.077-0.063
		C56.68,148.528,56.651,148.563,56.651,148.599L56.651,148.599z"/>
	<path fill="#FFFFFF" d="M61.934,158.349c-0.084-0.021-0.169-0.043-0.253-0.063l0.028-0.148c-0.063,0-0.133,0.021-0.182,0.063
		l-0.19,0.197c-0.836,0.963-0.007,2.059,0.415,2.986c0.028,0.068-0.169,0.293-0.429,0.463c-0.688,0.449-0.737,1.537-0.141,2.086
		c0.422,0.393,1.075,0.779,0.829,1.369c-0.295,0.703-1.096,1.166-1.047,2.023c0.035,0.596,0.471,1.018,0.759,1.51
		c0.478,0.793-0.52,1.434-0.724,2.234c-0.161,0.66,0.12,1.418,0.773,1.74c0.379,0.852-0.717,1.336-0.892,2.102l-0.056,0.09
		c-0.056,0.105-0.084,0.225-0.077,0.346l0.028,0.252c0.028,0.268,0.176,0.479,0.323,0.689c0.239,0.344,0.751,0.547,0.702,0.961
		c-0.084,0.744-0.632,1.271-1.278,1.658c-0.274,0.176-0.344,0.541-0.168,0.809c0.183,0.266,0.541,0.344,0.815,0.16
		c1.082-0.471,1.847-1.434,1.917-2.627c0.035-0.695-0.429-1.293-0.955-1.707l-0.12-0.287l-0.077,0.352l0.133-0.338
		c0.358-0.695,0.962-1.299,0.948-2.121c-0.014-0.723-0.45-1.32-0.857-1.883c0.52-0.766,0.871-1.621,0.808-2.578
		c-0.049-0.758-0.892-1.137-0.885-1.84c0.007-0.492,0.555-0.828,0.702-1.342c0.295-1.01-0.393-1.861-0.541-2.801
		c0.323-0.506,0.618-1.104,0.358-1.756c-0.281-0.703-1.089-1.195-0.793-2.094l0.091-0.203l-0.19,0.063l0.078-0.021
		c0.056-0.027,0.112-0.063,0.168-0.092c0.098-0.09,0.098-0.246,0.007-0.336c-0.084-0.1-0.239-0.105-0.337-0.014L61.934,158.349z"/>
	<path fill="#FFFFFF" d="M69.168,157.8c-0.281-0.084-0.569,0.043-0.759,0.246c-0.941,1.02-0.449,2.311,0.302,3.344
		c0.07,0.098,0.049,0.357-0.035,0.479c-0.688,0.904-1.075,1.896-0.681,2.977c0.196,0.549,0.66,0.893,0.948,1.391
		c0.084,0.148,0.035,0.359-0.092,0.479c-1.067,1.004-1.257,2.738-0.042,3.674c0.204,0.512,0.099,1.066-0.379,1.348l-0.147,0.176
		c-0.077,0.092-0.119,0.197-0.14,0.309l-0.035,0.24c-0.155,0.947,0.351,1.713,0.864,2.5c0.084,0.127,0.084,0.406-0.014,0.492
		c-0.758,0.723-1.51,1.564-1.229,2.66c0.021,0.373,0.337,0.654,0.709,0.633c0.372-0.021,0.653-0.344,0.632-0.717
		c-0.007-0.211-0.098-0.463-0.028-0.611c0.323-0.701,1.103-1.102,1.25-1.938c0.154-0.863-0.331-1.469-0.815-2.143
		c-0.126-0.189-0.099-0.441-0.084-0.674l0.021-0.238l-0.141,0.309l0.105-0.154c0.766-0.541,0.941-1.525,0.695-2.396
		c-0.161-0.576-0.695-0.891-0.85-1.445c-0.239-0.9,0.379-1.582,0.611-2.416c0.042-0.162,0.035-0.33-0.014-0.492
		c-0.21-0.695-0.541-1.355-0.428-2.072c0.105-0.668,0.639-1.174,0.745-1.875c0.147-1.033-0.583-1.693-1.117-2.5
		c-0.316-0.486-0.126-1.02,0.204-1.455c0.042-0.014,0.056-0.057,0.035-0.092C69.245,157.794,69.203,157.78,69.168,157.8
		L69.168,157.8z"/>
	<path fill="#FFFFFF" d="M76.122,156.782c-0.288,0-0.569,0.049-0.787,0.344c-1.032,1.391-0.077,2.992,0.597,4.264
		c-0.197,0.203-0.225,0.52-0.407,0.695c-1.11,1.082-0.597,3.02,0.344,4.004l0.049-0.063v-0.008l0.021,0.049
		c0.133,0.176,0.295,0.344,0.196,0.625c-0.26,0.779-0.934,1.355-0.955,2.199c-0.021,0.617,0.302,1.117,0.59,1.656
		c0.183,0.346,0.471,0.83,0.19,1.096c-1.292,1.209-0.386,2.992,0.4,4.109c0.035,0.738-0.218,1.475-0.73,2.016
		c-0.197,0.141-0.239,0.408-0.099,0.598c0.134,0.197,0.4,0.238,0.597,0.105c0.415-0.127,0.801-0.324,1.082-0.682
		c0.836-1.039,0.745-2.578-0.154-3.582c-0.73-0.814,0.028-1.643,0.105-2.514c0.07-0.809-0.393-1.553-0.899-2.27
		c-0.239-0.338-0.281-0.744-0.126-1.139c0.337-0.834,1.019-1.629,0.808-2.598l0.049-0.057c-0.063-0.162-0.183-0.281-0.344-0.344
		l0.021-0.105c-0.113-0.555-0.513-1.139-0.183-1.699c-0.07,0.063-0.14,0.125-0.21,0.189c0.969-0.639,1.587-1.953,1.124-3.07
		c-0.492-1.186-2.065-2.281-1.194-3.68c0.035-0.029,0.049-0.078,0.028-0.113C76.206,156.774,76.156,156.761,76.122,156.782
		L76.122,156.782z"/>
	<path fill="#FFFFFF" d="M84.297,158.925c-0.745-0.035-1.004,0.807-1.061,1.404c-0.063,0.668,0.274,1.209,0.674,1.756
		c0.105,0.141,0.168,0.352,0.12,0.498c-0.197,0.668-0.878,1.111-0.949,1.82c-0.091,0.977,0.59,1.818,1.279,2.443l0.154,0.105
		l-0.281-0.352l0.021,0.057c0.063,0.865-0.892,1.334-1.138,2.121c-0.302,0.969,0.435,1.715,0.934,2.5
		c0.042,0.064,0.056,0.184,0.021,0.232c-0.506,0.646-1.004,1.271-0.927,2.107c0.084,0.982,0.899,1.559,1.356,2.354
		c-0.063,1.004-0.331,1.973-1.293,2.5c-0.091,0.063-0.112,0.189-0.049,0.273c0.056,0.092,0.183,0.119,0.274,0.057
		c0.618-0.379,1.32-0.625,1.784-1.215c0.562-0.717,0.913-1.686,0.393-2.543c-0.323-0.533-0.772-0.898-1.103-1.418
		c-0.091-0.141-0.112-0.387-0.028-0.514c0.365-0.533,0.709-1.025,0.815-1.65c0.119-0.773-0.527-1.244-0.913-1.861
		c-0.105-0.162-0.183-0.338-0.07-0.492c0.639-0.885,1.454-1.797,1.166-2.914l0.042-0.049c-0.049-0.148-0.147-0.268-0.281-0.352
		l-0.035-0.084c-0.232-0.311-0.147-0.795-0.709-0.92c0.597-0.73,1.376-1.531,1.173-2.586c-0.154-0.771-0.639-1.291-1.18-1.832
		c-0.365-0.373-0.154-0.871-0.049-1.32c0.035-0.035,0.035-0.1-0.007-0.135C84.396,158.882,84.332,158.882,84.297,158.925
		L84.297,158.925z"/>
	<path fill="#FFFFFF" d="M51.731,181.968c0,0,5.6-0.4,8.755-0.785c3.456-0.422,10.181-0.029,16.137-0.254
		c6.468-0.244,14.886-1.014,14.886-1.014s0.725-6.318,0.051-10.363c-0.674-4.047-0.225-12.813-0.225-12.813s1.349,5.283,1.573,8.541
		c0.225,3.26,0.562,7.529,0.787,9.553c0.225,2.023,0.112,1.91,0.449,4.045c0.337,2.137,0.394,4.969,0.394,4.969
		s-3.733,1.301-6.333,1.145c-2.601-0.156-9.119-0.605-12.153-0.043c-3.034,0.561-5.17,0.898-9.328,0.674
		c-4.158-0.225-8.204-0.113-8.878,0.449s-2.248-1.572-2.248-1.572s6.068-0.9,9.552-0.676s11.223-0.422,13.471-0.648
		c2.248-0.225,6.175,0.494,8.106,0.313c4.63-0.436,5.282-1.574,5.282-1.574s-3.686-0.211-8.518,0.014
		c-4.832,0.225-8.778,0.5-12.486,0.5s-9.49,0.025-11.737,0.25s-5.494,0.623-5.494,0.623L51.731,181.968z"/>
	<path fill="#FFFFFF" d="M69.168,185.397c0,0,0.349,1.662,0.653,3.27c0.641,3.391,4.589,6.389,4.589,6.389l2.107,0.674l-0.59-1.516
		c0,0-3.632-3.072-4.182-5.363c-0.286-1.193-0.048-3.453-0.048-3.453H69.168z"/>
	<path fill="#FFFFFF" d="M87.752,184.386c0,0,0.208,1.807,0.85,4.373c0.674,2.697,4.956,6.178,4.581,5.588
		c0.59,0.928,1.893,1.545,1.893,1.545l1.226-0.111l-0.489-1.396c0,0-4.176-3.455-4.92-5.168c-1.686-3.875-0.356-3.873-0.908-4.916
		C89.63,183.632,87.752,184.386,87.752,184.386z"/>
	<path fill="#FFFFFF" d="M39.78,127.917l0.254,0.729c0,0,5.956-1.35,9.608-1.967c3.652-0.619,5.113-0.506,11.069-1.742
		c5.956-1.236,13.598-1.91,13.598-1.91s3.034,6.011,4.327,8.933s5.057,9.777,5.057,9.777s-0.787-5.057-1.854-6.686
		c-1.068-1.631-3.372-6.238-4.158-8.148s-2.437-6.411-2.437-6.411s-4.442,1.201-4.755,1.241s-0.393-0.168-0.393-0.168
		s0.112-2.416-0.225-3.484c-0.337-1.067-4.607-7.81-4.607-7.81l-1.629-1.068l0.674,2.416c0,0,2.641,3.709,3.259,5.507
		s0.618,4.945,0.618,4.945l-16.632,3.033c0,0-1.236-3.932-2.797-6.771c-0.502-0.913-3.664-2.387-4.001-2.836
		c-0.337-0.45-0.899-1.236-0.899-1.236l-0.899-0.618c0,0-0.638,1.912,0,2.753c1.236,1.63,2.921,1.461,3.989,3.034
		c1.926,2.839,2.304,5.956,2.304,5.956l-8.372,1.855L39.78,127.917z"/>
	<path fill="#FFFFFF" d="M73.801,124.901l0.45-0.787c0,0-3.456,0.422-4.889,0.506s-6.963,1.125-9.829,1.799
		s-8.091,0.928-11.21,1.518s-8.723,2.234-8.723,2.234s3.607,7.184,4.703,10.725c1.096,3.539,1.606,9.322,3.456,12.727
		c2.107,3.877,5.9,4.467,5.9,4.467s3.419-1.561,7.712-1.896c4.298-0.338,8.344-1.939,12.306-2.275
		c3.961-0.338,7.164-1.602,7.164-1.602s-1.896-1.561-4.509-0.969c-2.613,0.59-9.161,2.459-10.662,2.738
		c-1.812,0.338-5.521,0.717-7.206,1.223c-1.276,0.383-4.088,0.926-4.088,0.926s-3.119-0.631-4.931-5.352
		c-1.666-4.34-1.728-6.025-3.793-10.535c-1.587-3.465-4.113-9.586-4.113-9.586s3.329-0.801,5.521-1.307s2.613-0.084,8.597-1.35
		c5.984-1.264,11.626-2.305,14.38-2.697C71.068,125.259,73.661,124.956,73.801,124.901z"/>
	<path fill="#FFFFFF" d="M54.362,157.64c0,0-0.442,3.596-0.337,5.955c0.225,5.057,2.36,8.205,1.798,11.576s-2.416,6.855-2.416,6.855
		l-1.18-0.676c0,0,1.686-4.607,1.461-7.191s-1.461-7.529-1.349-10.227s0.787-6.068,0.787-6.068L54.362,157.64z"/>
	<path fill="#FFFFFF" d="M136.102,77.965c0.778-0.47,1.303-1.311,1.303-2.279c0-1.479-1.21-2.677-2.703-2.677
		s-2.703,1.198-2.703,2.677c0,0.259,0.049,0.505,0.118,0.741c-0.504-0.347-1.556-0.473-2.634-0.135
		c-1.079,0.338-2.146,1.08-2.146,2.784c0,1.703,0.813,2.98,2.534,2.98c0.175,0-0.168,0.027,0,0c-0.108,0.131,0.029-0.098,0,0
		c-0.203,0.659-1.121,1.68-2.583,1.272c-2.183-0.608-1.896-2.677-1.896-2.677s-2.037,1.476-3.425,0.633
		c-1.659-1.009-0.739-1.661-0.739-1.661c2.125,0.244,3.746-2.152,3.067-3.898c-0.66-1.694-2.788-2.622-4.378-1.838
		c0,0,0.302-1.977-2.884-2.389c-2.29-0.297-3.793,2.716-3.138,4.12c0.333,0.715,0.562,0.89,2.623,4.401
		c2.06,3.512,2.669,5.563,2.669,5.563c0.033,0.127,0.087,0.381,0.087,0.696c0,0.45,0.113,0.73,0.113,0.73s2.979,0.31,9.777,2.669
		c6.798,2.36,11.406,4.917,11.406,4.917s0.056-0.225,0.112-0.618c0.013-0.09,0.028-0.182,0.045-0.271
		c0.104-0.461,1.487-1.878,2.935-2.793c4.489-2.84,6.293-3.519,8.549-4.786c1.491-0.838,0.937-3.603-0.516-4.308
		c-2.849-1.385-3.801,0.269-3.801,0.269c-0.967-1.329-3.311-1.497-4.784-0.402c-1.518,1.128-1.379,3.786,0.598,4.511
		c0,0,0.047,0.604-1.793,1.048c-1.687,0.405-2.192-2.103-2.192-2.103s-1.31,1.479-3.956,0.81c-0.817-0.206-1.602-1.105-1.299-2.678
		c0.543,0.907,1.163,0.774,2.122,0.71c1.517-0.101,2.662-1.12,2.662-2.823c0-1.354-0.991-2.618-2.219-3.031 M137.034,78.129
		c-0.293-0.1-0.607-0.156-0.933-0.164 M118.896,81.474c-0.616-1.572-2.978-5.046-3.408-6.136c-0.369-0.934,0.861-2.26,2.06-1.873
		c1.098,0.354,1.301,2.521,1.301,2.521s1.246-1.608,3.019-0.614c1.186,0.664,0.924,1.777,0.31,2.438
		c-0.759,0.815-2.626,0.23-2.626,0.23s-1.404,2.171,1.696,4.323c2.294,1.592,3.605-0.047,3.605-0.047s0.141,1.592,1.873,2.06
		c0.822,0.223,2.777,1.42,4.495-1.826c0.39-0.734,0.569-2.014,0.316-2.064c-0.252-0.051-0.552-0.016-0.959-0.016
		c-0.817,0-1.48-0.627-1.48-1.399c0-0.773,0.553-1.517,1.371-1.517c0.412,0,0.784,0.16,1.053,0.417l0.008-0.049
		c0,0,0.865,1.141,1.957-0.104c0.426-0.484,0.013-1.69,0.013-1.69c0-0.002,0.002-0.003,0.003-0.004
		c-0.056-0.136-0.09-0.282-0.09-0.437c0-0.673,0.578-1.218,1.289-1.218s1.289,0.545,1.289,1.218c0,0.525-0.354,0.97-0.849,1.141
		c-0.219,0.213-0.621,0.663-0.709,1.186c-0.219,1.278,1.674,1.356,1.674,1.356l-0.055,0.089c0.025-0.001,0.05-0.007,0.075-0.007
		c0.818,0,1.48,0.626,1.48,1.399c0,0.772-0.666,1.473-1.48,1.399c-1.002-0.091-1.557-1.105-2.113-1.004c0,0-3.036,3.885,0.945,5.637
		c2.29,1.008,3.874-0.055,3.874-0.055s0.968,1.718,2.899,1.786c2.847,0.102,4.276-2.98,4.276-2.98s-1.935-0.335-2.161-1.329
		c-0.184-0.806,0.181-1.826,1.564-1.853c2.069-0.041,2.596,1.878,2.596,1.878s0.562-1.114,1.675-1.293
		c1.146-0.184,2.037,1.44,1.218,2.014c-0.733,0.513-4.58,2.657-6.505,3.939c-2.243,1.496-2.565,1.649-3.516,2.46
		c-0.533,0.455-0.914,1.041-1.206,1.236l-1.182-0.45c0,0,0.057,0-2.135-0.898c-2.191-0.899-2.473-1.068-2.473-1.068
		s-1.16-0.563-3.689-1.463c-2.528-0.898-4.489-1.557-4.489-1.557s0.312,0.267-1.936-0.464c-2.248-0.73-2.079-0.674-2.079-0.674
		l-1.249-0.306c-0.033-0.066-0.062-0.125-0.1-0.2C120.343,85.606,119.702,83.533,118.896,81.474z"/>
	<path fill="#FFFFFF" d="M122.574,91.087c0.352,0.094,1.819,1.201,2.497,1.936c0.749,0.812,1.437,2.123,1.437,2.123
		s-1.64-0.703-3.778,0.016c-1.951,0.655-2.715,0.047-2.777-0.703c-0.063-0.749,0.562-1.436,0.562-1.436s-0.58,0.912,0.531,1.202
		c1.076,0.28,1.638-0.117,1.638-0.117s-1.171-0.146-1.264-0.796c-0.094-0.656,0.359-1.03,0.796-1.218c0,0-0.457-0.318-1.826,0.07
		c-1.045,0.297-1.077,1.202-1.265,1.451c-0.188,0.25-0.271,0.092-0.188-0.687C119.078,91.626,118.703,90.057,122.574,91.087z"/>
	<ellipse fill="#FFFFFF" cx="132.471" cy="67.46" rx="1.756" ry="1.776"/>
	<path fill="#FFFFFF" d="M120.082,70.171c0-1.456,1.199-2.638,2.68-2.638c1.479,0,2.679,1.182,2.679,2.638s-1.199,2.637-2.679,2.637
		C121.281,72.808,120.082,71.627,120.082,70.171z M122.762,71.317c0.685,0,1.24-0.513,1.24-1.146s-0.556-1.146-1.24-1.146
		c-0.687,0-1.241,0.513-1.241,1.146S122.075,71.317,122.762,71.317z"/>
	<path fill="#FFFFFF" d="M125.787,68.284c0-1.19,0.991-2.155,2.214-2.155s2.214,0.965,2.214,2.155s-0.991,2.156-2.214,2.156
		S125.787,69.474,125.787,68.284z M127.991,69.162c0.499,0,0.903-0.385,0.903-0.859c0-0.474-0.404-0.858-0.903-0.858
		c-0.498,0-0.902,0.385-0.902,0.858C127.089,68.777,127.493,69.162,127.991,69.162z"/>
	<path fill="#FFFFFF" d="M135.854,58.501c0,0-0.438,0.438-0.749,1.249c-0.313,0.812-0.313,1.936-0.313,1.936s3.226-0.504,3.372,0.25
		c0.146,0.754-0.375,1.269-0.375,1.269l1.926,0.665c0,0-0.115-1.31,0.322-1.435c0.437-0.125,2.684,1.873,2.684,1.873
		s0.563-0.125,1.124-1.311c0.492-1.04-0.125-1.874-0.125-1.874s-3.184,0.625-3.184-0.249s2.247-2.997,2.247-2.997
		s-0.632-0.902-1.721-1.2c-1.37-0.375-1.65-0.11-1.65-0.11s-0.125,3.683-0.624,3.745S135.854,58.501,135.854,58.501z"/>
	<path fill="#FFFFFF" d="M121.038,73.78c0,0,2.097-1.896,5.997-3.383c3.899-1.486,6.147-1.443,7.402-1.794
		c1.256-0.351,2.384-0.579,2.384-0.579s1.087,1.957,0.333,2.191c-0.754,0.236-1.932-0.224-4.12-0.078s-4.143,1.1-6.535,2.123
		c-2.392,1.023-3.362,2.809-3.362,2.809L121.038,73.78z"/>
	
		<ellipse transform="matrix(-0.51 0.8602 -0.8602 -0.51 273.9297 -15.9611)" fill="#FFFFFF" cx="141.511" cy="70.046" rx="1.776" ry="1.755"/>
	<path fill="#FFFFFF" d="M147.555,82.738c0,0-0.914-3.873-3.384-7.238c-2.47-3.364-4.381-4.548-5.245-5.523s-1.688-1.78-1.688-1.78
		s-1.975,1.055-1.469,1.661s1.744,0.859,3.503,2.169c1.76,1.31,2.884,3.171,4.338,5.329s1.482,4.786,1.482,4.786L147.555,82.738z"/>
	<path fill="#FFFFFF" d="M146.781,80.152c-1.273-0.755-1.703-2.383-0.96-3.635c0.743-1.253,2.377-1.657,3.649-0.902
		c1.273,0.755,1.703,2.383,0.96,3.635C149.688,80.502,148.054,80.907,146.781,80.152z M148.093,79.029
		c0.686,0,1.241-0.513,1.241-1.146s-0.556-1.146-1.241-1.146s-1.24,0.513-1.24,1.146S147.407,79.029,148.093,79.029z"/>
	<path fill="#FFFFFF" d="M134.875,66.119c0-1.609,1.305-2.914,2.914-2.914s2.914,1.305,2.914,2.914s-1.305,2.914-2.914,2.914
		S134.875,67.728,134.875,66.119z M137.789,67.578c0.812,0,1.469-0.653,1.469-1.459s-0.657-1.459-1.469-1.459
		s-1.47,0.653-1.47,1.459S136.978,67.578,137.789,67.578z"/>
	<path fill="#FFFFFF" d="M143.858,75.096c-1.051-0.624-1.411-1.959-0.805-2.983c0.608-1.024,1.953-1.349,3.004-0.726
		c1.053,0.624,1.412,1.96,0.805,2.984C146.256,75.395,144.911,75.72,143.858,75.096z M144.958,74.09c0.5,0,0.903-0.384,0.903-0.858
		s-0.403-0.858-0.903-0.858c-0.498,0-0.902,0.384-0.902,0.858S144.46,74.09,144.958,74.09z"/>
	<path fill="#FFFFFF" d="M130.837,87.982c0.609,0,0.957-0.658,0.957-1.194s-0.494-0.971-1.104-0.971
		c-0.61,0-1.104,0.435-1.104,0.971S130.228,87.982,130.837,87.982z"/>
</g>
</svg>
