<?xml version="1.0" encoding="utf-8" standalone="no"?>
<!DOCTYPE svg PUBLIC "-//W3C//DTD SVG 1.1//EN"
  "http://www.w3.org/Graphics/SVG/1.1/DTD/svg11.dtd">
<!-- Created with matplotlib (https://matplotlib.org/) -->
<svg height="194.587286pt" version="1.1" viewBox="0 0 304.151756 194.587286" width="304.151756pt" xmlns="http://www.w3.org/2000/svg" xmlns:xlink="http://www.w3.org/1999/xlink">
 <metadata>
  <rdf:RDF xmlns:cc="http://creativecommons.org/ns#" xmlns:dc="http://purl.org/dc/elements/1.1/" xmlns:rdf="http://www.w3.org/1999/02/22-rdf-syntax-ns#">
   <cc:Work>
    <dc:type rdf:resource="http://purl.org/dc/dcmitype/StillImage"/>
    <dc:date>2021-05-03T11:15:40.672489</dc:date>
    <dc:format>image/svg+xml</dc:format>
    <dc:creator>
     <cc:Agent>
      <dc:title>Matplotlib v3.3.4, https://matplotlib.org/</dc:title>
     </cc:Agent>
    </dc:creator>
   </cc:Work>
  </rdf:RDF>
 </metadata>
 <defs>
  <style type="text/css">*{stroke-linecap:butt;stroke-linejoin:round;}</style>
 </defs>
 <g id="figure_1">
  <g id="patch_1">
   <path d="M 0 194.587286 
L 304.151756 194.587286 
L 304.151756 0 
L 0 0 
z
" style="fill:#ffffff;"/>
  </g>
  <g id="axes_1">
   <g id="patch_2">
    <path d="M 35.459375 85.081175 
L 159.947315 85.081175 
L 159.947315 18.670875 
L 35.459375 18.670875 
z
" style="fill:#ffffff;"/>
   </g>
   <g id="matplotlib.axis_1">
    <g id="xtick_1">
     <g id="line2d_1">
      <defs>
       <path d="M 0 0 
L 0 3.5 
" id="mad61c0697b" style="stroke:#000000;stroke-width:0.8;"/>
      </defs>
      <g>
       <use style="stroke:#000000;stroke-width:0.8;" x="41.117918" xlink:href="#mad61c0697b" y="85.081175"/>
      </g>
     </g>
    </g>
    <g id="xtick_2">
     <g id="line2d_2">
      <g>
       <use style="stroke:#000000;stroke-width:0.8;" x="69.410631" xlink:href="#mad61c0697b" y="85.081175"/>
      </g>
     </g>
    </g>
    <g id="xtick_3">
     <g id="line2d_3">
      <g>
       <use style="stroke:#000000;stroke-width:0.8;" x="97.703345" xlink:href="#mad61c0697b" y="85.081175"/>
      </g>
     </g>
    </g>
    <g id="xtick_4">
     <g id="line2d_4">
      <g>
       <use style="stroke:#000000;stroke-width:0.8;" x="125.996059" xlink:href="#mad61c0697b" y="85.081175"/>
      </g>
     </g>
    </g>
    <g id="xtick_5">
     <g id="line2d_5">
      <g>
       <use style="stroke:#000000;stroke-width:0.8;" x="154.288772" xlink:href="#mad61c0697b" y="85.081175"/>
      </g>
     </g>
    </g>
   </g>
   <g id="matplotlib.axis_2">
    <g id="ytick_1">
     <g id="line2d_6">
      <defs>
       <path d="M 0 0 
L -3.5 0 
" id="m007dc9c7ea" style="stroke:#000000;stroke-width:0.8;"/>
      </defs>
      <g>
       <use style="stroke:#000000;stroke-width:0.8;" x="35.459375" xlink:href="#m007dc9c7ea" y="80.069077"/>
      </g>
     </g>
     <g id="text_1">
      <!-- 0 -->
      <g transform="translate(24.641875 82.348608)scale(0.06 -0.06)">
       <defs>
        <path d="M 31.78125 66.40625 
Q 24.171875 66.40625 20.328125 58.90625 
Q 16.5 51.421875 16.5 36.375 
Q 16.5 21.390625 20.328125 13.890625 
Q 24.171875 6.390625 31.78125 6.390625 
Q 39.453125 6.390625 43.28125 13.890625 
Q 47.125 21.390625 47.125 36.375 
Q 47.125 51.421875 43.28125 58.90625 
Q 39.453125 66.40625 31.78125 66.40625 
z
M 31.78125 74.21875 
Q 44.046875 74.21875 50.515625 64.515625 
Q 56.984375 54.828125 56.984375 36.375 
Q 56.984375 17.96875 50.515625 8.265625 
Q 44.046875 -1.421875 31.78125 -1.421875 
Q 19.53125 -1.421875 13.0625 8.265625 
Q 6.59375 17.96875 6.59375 36.375 
Q 6.59375 54.828125 13.0625 64.515625 
Q 19.53125 74.21875 31.78125 74.21875 
z
" id="DejaVuSans-48"/>
       </defs>
       <use xlink:href="#DejaVuSans-48"/>
      </g>
     </g>
    </g>
    <g id="ytick_2">
     <g id="line2d_7">
      <g>
       <use style="stroke:#000000;stroke-width:0.8;" x="35.459375" xlink:href="#m007dc9c7ea" y="68.791856"/>
      </g>
     </g>
     <g id="text_2">
      <!-- 45 -->
      <g transform="translate(20.824375 71.071388)scale(0.06 -0.06)">
       <defs>
        <path d="M 37.796875 64.3125 
L 12.890625 25.390625 
L 37.796875 25.390625 
z
M 35.203125 72.90625 
L 47.609375 72.90625 
L 47.609375 25.390625 
L 58.015625 25.390625 
L 58.015625 17.1875 
L 47.609375 17.1875 
L 47.609375 0 
L 37.796875 0 
L 37.796875 17.1875 
L 4.890625 17.1875 
L 4.890625 26.703125 
z
" id="DejaVuSans-52"/>
        <path d="M 10.796875 72.90625 
L 49.515625 72.90625 
L 49.515625 64.59375 
L 19.828125 64.59375 
L 19.828125 46.734375 
Q 21.96875 47.46875 24.109375 47.828125 
Q 26.265625 48.1875 28.421875 48.1875 
Q 40.625 48.1875 47.75 41.5 
Q 54.890625 34.8125 54.890625 23.390625 
Q 54.890625 11.625 47.5625 5.09375 
Q 40.234375 -1.421875 26.90625 -1.421875 
Q 22.3125 -1.421875 17.546875 -0.640625 
Q 12.796875 0.140625 7.71875 1.703125 
L 7.71875 11.625 
Q 12.109375 9.234375 16.796875 8.0625 
Q 21.484375 6.890625 26.703125 6.890625 
Q 35.15625 6.890625 40.078125 11.328125 
Q 45.015625 15.765625 45.015625 23.390625 
Q 45.015625 31 40.078125 35.4375 
Q 35.15625 39.890625 26.703125 39.890625 
Q 22.75 39.890625 18.8125 39.015625 
Q 14.890625 38.140625 10.796875 36.28125 
z
" id="DejaVuSans-53"/>
       </defs>
       <use xlink:href="#DejaVuSans-52"/>
       <use x="63.623047" xlink:href="#DejaVuSans-53"/>
      </g>
     </g>
    </g>
    <g id="ytick_3">
     <g id="line2d_8">
      <g>
       <use style="stroke:#000000;stroke-width:0.8;" x="35.459375" xlink:href="#m007dc9c7ea" y="57.514636"/>
      </g>
     </g>
     <g id="text_3">
      <!-- 90 -->
      <g transform="translate(20.824375 59.794167)scale(0.06 -0.06)">
       <defs>
        <path d="M 10.984375 1.515625 
L 10.984375 10.5 
Q 14.703125 8.734375 18.5 7.8125 
Q 22.3125 6.890625 25.984375 6.890625 
Q 35.75 6.890625 40.890625 13.453125 
Q 46.046875 20.015625 46.78125 33.40625 
Q 43.953125 29.203125 39.59375 26.953125 
Q 35.25 24.703125 29.984375 24.703125 
Q 19.046875 24.703125 12.671875 31.3125 
Q 6.296875 37.9375 6.296875 49.421875 
Q 6.296875 60.640625 12.9375 67.421875 
Q 19.578125 74.21875 30.609375 74.21875 
Q 43.265625 74.21875 49.921875 64.515625 
Q 56.59375 54.828125 56.59375 36.375 
Q 56.59375 19.140625 48.40625 8.859375 
Q 40.234375 -1.421875 26.421875 -1.421875 
Q 22.703125 -1.421875 18.890625 -0.6875 
Q 15.09375 0.046875 10.984375 1.515625 
z
M 30.609375 32.421875 
Q 37.25 32.421875 41.125 36.953125 
Q 45.015625 41.5 45.015625 49.421875 
Q 45.015625 57.28125 41.125 61.84375 
Q 37.25 66.40625 30.609375 66.40625 
Q 23.96875 66.40625 20.09375 61.84375 
Q 16.21875 57.28125 16.21875 49.421875 
Q 16.21875 41.5 20.09375 36.953125 
Q 23.96875 32.421875 30.609375 32.421875 
z
" id="DejaVuSans-57"/>
       </defs>
       <use xlink:href="#DejaVuSans-57"/>
       <use x="63.623047" xlink:href="#DejaVuSans-48"/>
      </g>
     </g>
    </g>
    <g id="ytick_4">
     <g id="line2d_9">
      <g>
       <use style="stroke:#000000;stroke-width:0.8;" x="35.459375" xlink:href="#m007dc9c7ea" y="46.237415"/>
      </g>
     </g>
     <g id="text_4">
      <!-- 135 -->
      <g transform="translate(17.006875 48.516946)scale(0.06 -0.06)">
       <defs>
        <path d="M 12.40625 8.296875 
L 28.515625 8.296875 
L 28.515625 63.921875 
L 10.984375 60.40625 
L 10.984375 69.390625 
L 28.421875 72.90625 
L 38.28125 72.90625 
L 38.28125 8.296875 
L 54.390625 8.296875 
L 54.390625 0 
L 12.40625 0 
z
" id="DejaVuSans-49"/>
        <path d="M 40.578125 39.3125 
Q 47.65625 37.796875 51.625 33 
Q 55.609375 28.21875 55.609375 21.1875 
Q 55.609375 10.40625 48.1875 4.484375 
Q 40.765625 -1.421875 27.09375 -1.421875 
Q 22.515625 -1.421875 17.65625 -0.515625 
Q 12.796875 0.390625 7.625 2.203125 
L 7.625 11.71875 
Q 11.71875 9.328125 16.59375 8.109375 
Q 21.484375 6.890625 26.8125 6.890625 
Q 36.078125 6.890625 40.9375 10.546875 
Q 45.796875 14.203125 45.796875 21.1875 
Q 45.796875 27.640625 41.28125 31.265625 
Q 36.765625 34.90625 28.71875 34.90625 
L 20.21875 34.90625 
L 20.21875 43.015625 
L 29.109375 43.015625 
Q 36.375 43.015625 40.234375 45.921875 
Q 44.09375 48.828125 44.09375 54.296875 
Q 44.09375 59.90625 40.109375 62.90625 
Q 36.140625 65.921875 28.71875 65.921875 
Q 24.65625 65.921875 20.015625 65.03125 
Q 15.375 64.15625 9.8125 62.3125 
L 9.8125 71.09375 
Q 15.4375 72.65625 20.34375 73.4375 
Q 25.25 74.21875 29.59375 74.21875 
Q 40.828125 74.21875 47.359375 69.109375 
Q 53.90625 64.015625 53.90625 55.328125 
Q 53.90625 49.265625 50.4375 45.09375 
Q 46.96875 40.921875 40.578125 39.3125 
z
" id="DejaVuSans-51"/>
       </defs>
       <use xlink:href="#DejaVuSans-49"/>
       <use x="63.623047" xlink:href="#DejaVuSans-51"/>
       <use x="127.246094" xlink:href="#DejaVuSans-53"/>
      </g>
     </g>
    </g>
    <g id="ytick_5">
     <g id="line2d_10">
      <g>
       <use style="stroke:#000000;stroke-width:0.8;" x="35.459375" xlink:href="#m007dc9c7ea" y="34.960194"/>
      </g>
     </g>
     <g id="text_5">
      <!-- 180 -->
      <g transform="translate(17.006875 37.239725)scale(0.06 -0.06)">
       <defs>
        <path d="M 31.78125 34.625 
Q 24.75 34.625 20.71875 30.859375 
Q 16.703125 27.09375 16.703125 20.515625 
Q 16.703125 13.921875 20.71875 10.15625 
Q 24.75 6.390625 31.78125 6.390625 
Q 38.8125 6.390625 42.859375 10.171875 
Q 46.921875 13.96875 46.921875 20.515625 
Q 46.921875 27.09375 42.890625 30.859375 
Q 38.875 34.625 31.78125 34.625 
z
M 21.921875 38.8125 
Q 15.578125 40.375 12.03125 44.71875 
Q 8.5 49.078125 8.5 55.328125 
Q 8.5 64.0625 14.71875 69.140625 
Q 20.953125 74.21875 31.78125 74.21875 
Q 42.671875 74.21875 48.875 69.140625 
Q 55.078125 64.0625 55.078125 55.328125 
Q 55.078125 49.078125 51.53125 44.71875 
Q 48 40.375 41.703125 38.8125 
Q 48.828125 37.15625 52.796875 32.3125 
Q 56.78125 27.484375 56.78125 20.515625 
Q 56.78125 9.90625 50.3125 4.234375 
Q 43.84375 -1.421875 31.78125 -1.421875 
Q 19.734375 -1.421875 13.25 4.234375 
Q 6.78125 9.90625 6.78125 20.515625 
Q 6.78125 27.484375 10.78125 32.3125 
Q 14.796875 37.15625 21.921875 38.8125 
z
M 18.3125 54.390625 
Q 18.3125 48.734375 21.84375 45.5625 
Q 25.390625 42.390625 31.78125 42.390625 
Q 38.140625 42.390625 41.71875 45.5625 
Q 45.3125 48.734375 45.3125 54.390625 
Q 45.3125 60.0625 41.71875 63.234375 
Q 38.140625 66.40625 31.78125 66.40625 
Q 25.390625 66.40625 21.84375 63.234375 
Q 18.3125 60.0625 18.3125 54.390625 
z
" id="DejaVuSans-56"/>
       </defs>
       <use xlink:href="#DejaVuSans-49"/>
       <use x="63.623047" xlink:href="#DejaVuSans-56"/>
       <use x="127.246094" xlink:href="#DejaVuSans-48"/>
      </g>
     </g>
    </g>
    <g id="ytick_6">
     <g id="line2d_11">
      <g>
       <use style="stroke:#000000;stroke-width:0.8;" x="35.459375" xlink:href="#m007dc9c7ea" y="23.682973"/>
      </g>
     </g>
     <g id="text_6">
      <!-- 225 -->
      <g transform="translate(17.006875 25.962504)scale(0.06 -0.06)">
       <defs>
        <path d="M 19.1875 8.296875 
L 53.609375 8.296875 
L 53.609375 0 
L 7.328125 0 
L 7.328125 8.296875 
Q 12.9375 14.109375 22.625 23.890625 
Q 32.328125 33.6875 34.8125 36.53125 
Q 39.546875 41.84375 41.421875 45.53125 
Q 43.3125 49.21875 43.3125 52.78125 
Q 43.3125 58.59375 39.234375 62.25 
Q 35.15625 65.921875 28.609375 65.921875 
Q 23.96875 65.921875 18.8125 64.3125 
Q 13.671875 62.703125 7.8125 59.421875 
L 7.8125 69.390625 
Q 13.765625 71.78125 18.9375 73 
Q 24.125 74.21875 28.421875 74.21875 
Q 39.75 74.21875 46.484375 68.546875 
Q 53.21875 62.890625 53.21875 53.421875 
Q 53.21875 48.921875 51.53125 44.890625 
Q 49.859375 40.875 45.40625 35.40625 
Q 44.1875 33.984375 37.640625 27.21875 
Q 31.109375 20.453125 19.1875 8.296875 
z
" id="DejaVuSans-50"/>
       </defs>
       <use xlink:href="#DejaVuSans-50"/>
       <use x="63.623047" xlink:href="#DejaVuSans-50"/>
       <use x="127.246094" xlink:href="#DejaVuSans-53"/>
      </g>
     </g>
    </g>
    <g id="text_7">
     <!-- Waveplate angle -->
     <g transform="translate(11.759062 76.986494)rotate(-90)scale(0.06 -0.06)">
      <defs>
       <path d="M 3.328125 72.90625 
L 13.28125 72.90625 
L 28.609375 11.28125 
L 43.890625 72.90625 
L 54.984375 72.90625 
L 70.3125 11.28125 
L 85.59375 72.90625 
L 95.609375 72.90625 
L 77.296875 0 
L 64.890625 0 
L 49.515625 63.28125 
L 33.984375 0 
L 21.578125 0 
z
" id="DejaVuSans-87"/>
       <path d="M 34.28125 27.484375 
Q 23.390625 27.484375 19.1875 25 
Q 14.984375 22.515625 14.984375 16.5 
Q 14.984375 11.71875 18.140625 8.90625 
Q 21.296875 6.109375 26.703125 6.109375 
Q 34.1875 6.109375 38.703125 11.40625 
Q 43.21875 16.703125 43.21875 25.484375 
L 43.21875 27.484375 
z
M 52.203125 31.203125 
L 52.203125 0 
L 43.21875 0 
L 43.21875 8.296875 
Q 40.140625 3.328125 35.546875 0.953125 
Q 30.953125 -1.421875 24.3125 -1.421875 
Q 15.921875 -1.421875 10.953125 3.296875 
Q 6 8.015625 6 15.921875 
Q 6 25.140625 12.171875 29.828125 
Q 18.359375 34.515625 30.609375 34.515625 
L 43.21875 34.515625 
L 43.21875 35.40625 
Q 43.21875 41.609375 39.140625 45 
Q 35.0625 48.390625 27.6875 48.390625 
Q 23 48.390625 18.546875 47.265625 
Q 14.109375 46.140625 10.015625 43.890625 
L 10.015625 52.203125 
Q 14.9375 54.109375 19.578125 55.046875 
Q 24.21875 56 28.609375 56 
Q 40.484375 56 46.34375 49.84375 
Q 52.203125 43.703125 52.203125 31.203125 
z
" id="DejaVuSans-97"/>
       <path d="M 2.984375 54.6875 
L 12.5 54.6875 
L 29.59375 8.796875 
L 46.6875 54.6875 
L 56.203125 54.6875 
L 35.6875 0 
L 23.484375 0 
z
" id="DejaVuSans-118"/>
       <path d="M 56.203125 29.59375 
L 56.203125 25.203125 
L 14.890625 25.203125 
Q 15.484375 15.921875 20.484375 11.0625 
Q 25.484375 6.203125 34.421875 6.203125 
Q 39.59375 6.203125 44.453125 7.46875 
Q 49.3125 8.734375 54.109375 11.28125 
L 54.109375 2.78125 
Q 49.265625 0.734375 44.1875 -0.34375 
Q 39.109375 -1.421875 33.890625 -1.421875 
Q 20.796875 -1.421875 13.15625 6.1875 
Q 5.515625 13.8125 5.515625 26.8125 
Q 5.515625 40.234375 12.765625 48.109375 
Q 20.015625 56 32.328125 56 
Q 43.359375 56 49.78125 48.890625 
Q 56.203125 41.796875 56.203125 29.59375 
z
M 47.21875 32.234375 
Q 47.125 39.59375 43.09375 43.984375 
Q 39.0625 48.390625 32.421875 48.390625 
Q 24.90625 48.390625 20.390625 44.140625 
Q 15.875 39.890625 15.1875 32.171875 
z
" id="DejaVuSans-101"/>
       <path d="M 18.109375 8.203125 
L 18.109375 -20.796875 
L 9.078125 -20.796875 
L 9.078125 54.6875 
L 18.109375 54.6875 
L 18.109375 46.390625 
Q 20.953125 51.265625 25.265625 53.625 
Q 29.59375 56 35.59375 56 
Q 45.5625 56 51.78125 48.09375 
Q 58.015625 40.1875 58.015625 27.296875 
Q 58.015625 14.40625 51.78125 6.484375 
Q 45.5625 -1.421875 35.59375 -1.421875 
Q 29.59375 -1.421875 25.265625 0.953125 
Q 20.953125 3.328125 18.109375 8.203125 
z
M 48.6875 27.296875 
Q 48.6875 37.203125 44.609375 42.84375 
Q 40.53125 48.484375 33.40625 48.484375 
Q 26.265625 48.484375 22.1875 42.84375 
Q 18.109375 37.203125 18.109375 27.296875 
Q 18.109375 17.390625 22.1875 11.75 
Q 26.265625 6.109375 33.40625 6.109375 
Q 40.53125 6.109375 44.609375 11.75 
Q 48.6875 17.390625 48.6875 27.296875 
z
" id="DejaVuSans-112"/>
       <path d="M 9.421875 75.984375 
L 18.40625 75.984375 
L 18.40625 0 
L 9.421875 0 
z
" id="DejaVuSans-108"/>
       <path d="M 18.3125 70.21875 
L 18.3125 54.6875 
L 36.8125 54.6875 
L 36.8125 47.703125 
L 18.3125 47.703125 
L 18.3125 18.015625 
Q 18.3125 11.328125 20.140625 9.421875 
Q 21.96875 7.515625 27.59375 7.515625 
L 36.8125 7.515625 
L 36.8125 0 
L 27.59375 0 
Q 17.1875 0 13.234375 3.875 
Q 9.28125 7.765625 9.28125 18.015625 
L 9.28125 47.703125 
L 2.6875 47.703125 
L 2.6875 54.6875 
L 9.28125 54.6875 
L 9.28125 70.21875 
z
" id="DejaVuSans-116"/>
       <path id="DejaVuSans-32"/>
       <path d="M 54.890625 33.015625 
L 54.890625 0 
L 45.90625 0 
L 45.90625 32.71875 
Q 45.90625 40.484375 42.875 44.328125 
Q 39.84375 48.1875 33.796875 48.1875 
Q 26.515625 48.1875 22.3125 43.546875 
Q 18.109375 38.921875 18.109375 30.90625 
L 18.109375 0 
L 9.078125 0 
L 9.078125 54.6875 
L 18.109375 54.6875 
L 18.109375 46.1875 
Q 21.34375 51.125 25.703125 53.5625 
Q 30.078125 56 35.796875 56 
Q 45.21875 56 50.046875 50.171875 
Q 54.890625 44.34375 54.890625 33.015625 
z
" id="DejaVuSans-110"/>
       <path d="M 45.40625 27.984375 
Q 45.40625 37.75 41.375 43.109375 
Q 37.359375 48.484375 30.078125 48.484375 
Q 22.859375 48.484375 18.828125 43.109375 
Q 14.796875 37.75 14.796875 27.984375 
Q 14.796875 18.265625 18.828125 12.890625 
Q 22.859375 7.515625 30.078125 7.515625 
Q 37.359375 7.515625 41.375 12.890625 
Q 45.40625 18.265625 45.40625 27.984375 
z
M 54.390625 6.78125 
Q 54.390625 -7.171875 48.1875 -13.984375 
Q 42 -20.796875 29.203125 -20.796875 
Q 24.46875 -20.796875 20.265625 -20.09375 
Q 16.0625 -19.390625 12.109375 -17.921875 
L 12.109375 -9.1875 
Q 16.0625 -11.328125 19.921875 -12.34375 
Q 23.78125 -13.375 27.78125 -13.375 
Q 36.625 -13.375 41.015625 -8.765625 
Q 45.40625 -4.15625 45.40625 5.171875 
L 45.40625 9.625 
Q 42.625 4.78125 38.28125 2.390625 
Q 33.9375 0 27.875 0 
Q 17.828125 0 11.671875 7.65625 
Q 5.515625 15.328125 5.515625 27.984375 
Q 5.515625 40.671875 11.671875 48.328125 
Q 17.828125 56 27.875 56 
Q 33.9375 56 38.28125 53.609375 
Q 42.625 51.21875 45.40625 46.390625 
L 45.40625 54.6875 
L 54.390625 54.6875 
z
" id="DejaVuSans-103"/>
      </defs>
      <use xlink:href="#DejaVuSans-87"/>
      <use x="92.501953" xlink:href="#DejaVuSans-97"/>
      <use x="153.78125" xlink:href="#DejaVuSans-118"/>
      <use x="212.960938" xlink:href="#DejaVuSans-101"/>
      <use x="274.484375" xlink:href="#DejaVuSans-112"/>
      <use x="337.960938" xlink:href="#DejaVuSans-108"/>
      <use x="365.744141" xlink:href="#DejaVuSans-97"/>
      <use x="427.023438" xlink:href="#DejaVuSans-116"/>
      <use x="466.232422" xlink:href="#DejaVuSans-101"/>
      <use x="527.755859" xlink:href="#DejaVuSans-32"/>
      <use x="559.542969" xlink:href="#DejaVuSans-97"/>
      <use x="620.822266" xlink:href="#DejaVuSans-110"/>
      <use x="684.201172" xlink:href="#DejaVuSans-103"/>
      <use x="747.677734" xlink:href="#DejaVuSans-108"/>
      <use x="775.460938" xlink:href="#DejaVuSans-101"/>
     </g>
    </g>
   </g>
   <g id="line2d_12">
    <path clip-path="url(#pd644514eb8)" d="M 41.117918 78.314843 
L 44.261553 78.816053 
L 47.405187 79.066657 
L 50.548822 79.066657 
L 53.692457 79.567867 
L 56.836092 79.818472 
L 59.979727 80.319682 
L 63.123362 80.319682 
L 66.266997 81.071497 
L 69.410631 81.071497 
L 72.554266 81.196799 
L 75.697901 81.322102 
L 78.841536 81.322102 
L 81.985171 81.572707 
L 85.128806 81.572707 
L 88.27244 81.322102 
L 91.416075 81.071497 
L 94.55971 80.570287 
L 97.703345 80.069077 
L 100.84698 79.567867 
L 103.990615 79.066657 
L 107.13425 78.565448 
L 110.277884 78.064238 
L 113.421519 77.563028 
L 116.565154 77.061818 
L 119.708789 76.811213 
L 122.852424 76.560608 
L 125.996059 76.310004 
L 129.139693 76.310004 
L 132.283328 76.310004 
L 135.426963 76.811213 
L 138.570598 76.811213 
L 141.714233 77.061818 
L 144.857868 77.563028 
L 148.001503 77.813633 
L 151.145137 78.064238 
" style="fill:none;stroke:#1f77b4;stroke-linecap:square;stroke-width:1.5;"/>
   </g>
   <g id="line2d_13">
    <path clip-path="url(#pd644514eb8)" d="M 41.117918 70.044881 
L 44.261553 68.290647 
L 47.405187 67.288227 
L 50.548822 66.035202 
L 53.692457 64.531573 
L 56.836092 63.278548 
L 59.979727 61.524314 
L 63.123362 60.271289 
L 66.266997 58.517055 
L 69.410631 57.264031 
L 72.554266 55.760401 
L 75.697901 54.507377 
L 78.841536 53.003747 
L 81.985171 51.500118 
L 85.128806 50.247093 
L 88.27244 48.743464 
L 91.416075 47.490439 
L 94.55971 46.738625 
L 97.703345 45.98681 
L 100.84698 44.98439 
L 103.990615 44.232575 
L 107.13425 43.480761 
L 110.277884 42.478341 
L 113.421519 41.726526 
L 116.565154 40.974712 
L 119.708789 39.972292 
L 122.852424 38.969872 
L 125.996059 37.716848 
L 129.139693 36.463823 
L 132.283328 34.960194 
L 135.426963 33.456564 
L 138.570598 31.952935 
L 141.714233 30.449306 
L 144.857868 28.945676 
L 148.001503 27.442047 
L 151.145137 25.938417 
" style="fill:none;stroke:#ff7f0e;stroke-linecap:square;stroke-width:1.5;"/>
   </g>
   <g id="patch_3">
    <path d="M 35.459375 85.081175 
L 35.459375 18.670875 
" style="fill:none;stroke:#000000;stroke-linecap:square;stroke-linejoin:miter;stroke-width:0.8;"/>
   </g>
   <g id="patch_4">
    <path d="M 159.947315 85.081175 
L 159.947315 18.670875 
" style="fill:none;stroke:#000000;stroke-linecap:square;stroke-linejoin:miter;stroke-width:0.8;"/>
   </g>
   <g id="patch_5">
    <path d="M 35.459375 85.081175 
L 159.947315 85.081175 
" style="fill:none;stroke:#000000;stroke-linecap:square;stroke-linejoin:miter;stroke-width:0.8;"/>
   </g>
   <g id="patch_6">
    <path d="M 35.459375 18.670875 
L 159.947315 18.670875 
" style="fill:none;stroke:#000000;stroke-linecap:square;stroke-linejoin:miter;stroke-width:0.8;"/>
   </g>
   <g id="text_8">
    <!-- Default calibration -->
    <g transform="translate(64.35272 12.670875)scale(0.072 -0.072)">
     <defs>
      <path d="M 19.671875 64.796875 
L 19.671875 8.109375 
L 31.59375 8.109375 
Q 46.6875 8.109375 53.6875 14.9375 
Q 60.6875 21.78125 60.6875 36.53125 
Q 60.6875 51.171875 53.6875 57.984375 
Q 46.6875 64.796875 31.59375 64.796875 
z
M 9.8125 72.90625 
L 30.078125 72.90625 
Q 51.265625 72.90625 61.171875 64.09375 
Q 71.09375 55.28125 71.09375 36.53125 
Q 71.09375 17.671875 61.125 8.828125 
Q 51.171875 0 30.078125 0 
L 9.8125 0 
z
" id="DejaVuSans-68"/>
      <path d="M 37.109375 75.984375 
L 37.109375 68.5 
L 28.515625 68.5 
Q 23.6875 68.5 21.796875 66.546875 
Q 19.921875 64.59375 19.921875 59.515625 
L 19.921875 54.6875 
L 34.71875 54.6875 
L 34.71875 47.703125 
L 19.921875 47.703125 
L 19.921875 0 
L 10.890625 0 
L 10.890625 47.703125 
L 2.296875 47.703125 
L 2.296875 54.6875 
L 10.890625 54.6875 
L 10.890625 58.5 
Q 10.890625 67.625 15.140625 71.796875 
Q 19.390625 75.984375 28.609375 75.984375 
z
" id="DejaVuSans-102"/>
      <path d="M 8.5 21.578125 
L 8.5 54.6875 
L 17.484375 54.6875 
L 17.484375 21.921875 
Q 17.484375 14.15625 20.5 10.265625 
Q 23.53125 6.390625 29.59375 6.390625 
Q 36.859375 6.390625 41.078125 11.03125 
Q 45.3125 15.671875 45.3125 23.6875 
L 45.3125 54.6875 
L 54.296875 54.6875 
L 54.296875 0 
L 45.3125 0 
L 45.3125 8.40625 
Q 42.046875 3.421875 37.71875 1 
Q 33.40625 -1.421875 27.6875 -1.421875 
Q 18.265625 -1.421875 13.375 4.4375 
Q 8.5 10.296875 8.5 21.578125 
z
M 31.109375 56 
z
" id="DejaVuSans-117"/>
      <path d="M 48.78125 52.59375 
L 48.78125 44.1875 
Q 44.96875 46.296875 41.140625 47.34375 
Q 37.3125 48.390625 33.40625 48.390625 
Q 24.65625 48.390625 19.8125 42.84375 
Q 14.984375 37.3125 14.984375 27.296875 
Q 14.984375 17.28125 19.8125 11.734375 
Q 24.65625 6.203125 33.40625 6.203125 
Q 37.3125 6.203125 41.140625 7.25 
Q 44.96875 8.296875 48.78125 10.40625 
L 48.78125 2.09375 
Q 45.015625 0.34375 40.984375 -0.53125 
Q 36.96875 -1.421875 32.421875 -1.421875 
Q 20.0625 -1.421875 12.78125 6.34375 
Q 5.515625 14.109375 5.515625 27.296875 
Q 5.515625 40.671875 12.859375 48.328125 
Q 20.21875 56 33.015625 56 
Q 37.15625 56 41.109375 55.140625 
Q 45.0625 54.296875 48.78125 52.59375 
z
" id="DejaVuSans-99"/>
      <path d="M 9.421875 54.6875 
L 18.40625 54.6875 
L 18.40625 0 
L 9.421875 0 
z
M 9.421875 75.984375 
L 18.40625 75.984375 
L 18.40625 64.59375 
L 9.421875 64.59375 
z
" id="DejaVuSans-105"/>
      <path d="M 48.6875 27.296875 
Q 48.6875 37.203125 44.609375 42.84375 
Q 40.53125 48.484375 33.40625 48.484375 
Q 26.265625 48.484375 22.1875 42.84375 
Q 18.109375 37.203125 18.109375 27.296875 
Q 18.109375 17.390625 22.1875 11.75 
Q 26.265625 6.109375 33.40625 6.109375 
Q 40.53125 6.109375 44.609375 11.75 
Q 48.6875 17.390625 48.6875 27.296875 
z
M 18.109375 46.390625 
Q 20.953125 51.265625 25.265625 53.625 
Q 29.59375 56 35.59375 56 
Q 45.5625 56 51.78125 48.09375 
Q 58.015625 40.1875 58.015625 27.296875 
Q 58.015625 14.40625 51.78125 6.484375 
Q 45.5625 -1.421875 35.59375 -1.421875 
Q 29.59375 -1.421875 25.265625 0.953125 
Q 20.953125 3.328125 18.109375 8.203125 
L 18.109375 0 
L 9.078125 0 
L 9.078125 75.984375 
L 18.109375 75.984375 
z
" id="DejaVuSans-98"/>
      <path d="M 41.109375 46.296875 
Q 39.59375 47.171875 37.8125 47.578125 
Q 36.03125 48 33.890625 48 
Q 26.265625 48 22.1875 43.046875 
Q 18.109375 38.09375 18.109375 28.8125 
L 18.109375 0 
L 9.078125 0 
L 9.078125 54.6875 
L 18.109375 54.6875 
L 18.109375 46.1875 
Q 20.953125 51.171875 25.484375 53.578125 
Q 30.03125 56 36.53125 56 
Q 37.453125 56 38.578125 55.875 
Q 39.703125 55.765625 41.0625 55.515625 
z
" id="DejaVuSans-114"/>
      <path d="M 30.609375 48.390625 
Q 23.390625 48.390625 19.1875 42.75 
Q 14.984375 37.109375 14.984375 27.296875 
Q 14.984375 17.484375 19.15625 11.84375 
Q 23.34375 6.203125 30.609375 6.203125 
Q 37.796875 6.203125 41.984375 11.859375 
Q 46.1875 17.53125 46.1875 27.296875 
Q 46.1875 37.015625 41.984375 42.703125 
Q 37.796875 48.390625 30.609375 48.390625 
z
M 30.609375 56 
Q 42.328125 56 49.015625 48.375 
Q 55.71875 40.765625 55.71875 27.296875 
Q 55.71875 13.875 49.015625 6.21875 
Q 42.328125 -1.421875 30.609375 -1.421875 
Q 18.84375 -1.421875 12.171875 6.21875 
Q 5.515625 13.875 5.515625 27.296875 
Q 5.515625 40.765625 12.171875 48.375 
Q 18.84375 56 30.609375 56 
z
" id="DejaVuSans-111"/>
     </defs>
     <use xlink:href="#DejaVuSans-68"/>
     <use x="77.001953" xlink:href="#DejaVuSans-101"/>
     <use x="138.525391" xlink:href="#DejaVuSans-102"/>
     <use x="173.730469" xlink:href="#DejaVuSans-97"/>
     <use x="235.009766" xlink:href="#DejaVuSans-117"/>
     <use x="298.388672" xlink:href="#DejaVuSans-108"/>
     <use x="326.171875" xlink:href="#DejaVuSans-116"/>
     <use x="365.380859" xlink:href="#DejaVuSans-32"/>
     <use x="397.167969" xlink:href="#DejaVuSans-99"/>
     <use x="452.148438" xlink:href="#DejaVuSans-97"/>
     <use x="513.427734" xlink:href="#DejaVuSans-108"/>
     <use x="541.210938" xlink:href="#DejaVuSans-105"/>
     <use x="568.994141" xlink:href="#DejaVuSans-98"/>
     <use x="632.470703" xlink:href="#DejaVuSans-114"/>
     <use x="673.583984" xlink:href="#DejaVuSans-97"/>
     <use x="734.863281" xlink:href="#DejaVuSans-116"/>
     <use x="774.072266" xlink:href="#DejaVuSans-105"/>
     <use x="801.855469" xlink:href="#DejaVuSans-111"/>
     <use x="863.037109" xlink:href="#DejaVuSans-110"/>
    </g>
   </g>
  </g>
  <g id="axes_2">
   <g id="patch_7">
    <path d="M 172.396109 85.081175 
L 296.884049 85.081175 
L 296.884049 18.670875 
L 172.396109 18.670875 
z
" style="fill:#ffffff;"/>
   </g>
   <g id="matplotlib.axis_3">
    <g id="xtick_6">
     <g id="line2d_14">
      <g>
       <use style="stroke:#000000;stroke-width:0.8;" x="178.054652" xlink:href="#mad61c0697b" y="85.081175"/>
      </g>
     </g>
    </g>
    <g id="xtick_7">
     <g id="line2d_15">
      <g>
       <use style="stroke:#000000;stroke-width:0.8;" x="206.347365" xlink:href="#mad61c0697b" y="85.081175"/>
      </g>
     </g>
    </g>
    <g id="xtick_8">
     <g id="line2d_16">
      <g>
       <use style="stroke:#000000;stroke-width:0.8;" x="234.640079" xlink:href="#mad61c0697b" y="85.081175"/>
      </g>
     </g>
    </g>
    <g id="xtick_9">
     <g id="line2d_17">
      <g>
       <use style="stroke:#000000;stroke-width:0.8;" x="262.932793" xlink:href="#mad61c0697b" y="85.081175"/>
      </g>
     </g>
    </g>
    <g id="xtick_10">
     <g id="line2d_18">
      <g>
       <use style="stroke:#000000;stroke-width:0.8;" x="291.225506" xlink:href="#mad61c0697b" y="85.081175"/>
      </g>
     </g>
    </g>
   </g>
   <g id="matplotlib.axis_4">
    <g id="ytick_7">
     <g id="line2d_19">
      <g>
       <use style="stroke:#000000;stroke-width:0.8;" x="172.396109" xlink:href="#m007dc9c7ea" y="80.069077"/>
      </g>
     </g>
    </g>
    <g id="ytick_8">
     <g id="line2d_20">
      <g>
       <use style="stroke:#000000;stroke-width:0.8;" x="172.396109" xlink:href="#m007dc9c7ea" y="68.791856"/>
      </g>
     </g>
    </g>
    <g id="ytick_9">
     <g id="line2d_21">
      <g>
       <use style="stroke:#000000;stroke-width:0.8;" x="172.396109" xlink:href="#m007dc9c7ea" y="57.514636"/>
      </g>
     </g>
    </g>
    <g id="ytick_10">
     <g id="line2d_22">
      <g>
       <use style="stroke:#000000;stroke-width:0.8;" x="172.396109" xlink:href="#m007dc9c7ea" y="46.237415"/>
      </g>
     </g>
    </g>
    <g id="ytick_11">
     <g id="line2d_23">
      <g>
       <use style="stroke:#000000;stroke-width:0.8;" x="172.396109" xlink:href="#m007dc9c7ea" y="34.960194"/>
      </g>
     </g>
    </g>
    <g id="ytick_12">
     <g id="line2d_24">
      <g>
       <use style="stroke:#000000;stroke-width:0.8;" x="172.396109" xlink:href="#m007dc9c7ea" y="23.682973"/>
      </g>
     </g>
    </g>
   </g>
   <g id="line2d_25">
    <path clip-path="url(#p1fb242ec84)" d="M 178.054652 80.069077 
L 180.364261 79.608782 
L 182.67387 79.148488 
L 184.98348 78.688193 
L 187.293089 78.227898 
L 189.602698 77.767603 
L 191.912307 77.307309 
L 194.221917 76.847014 
L 196.531526 76.386719 
L 198.841135 75.926425 
L 201.150744 75.46613 
L 203.460354 75.005835 
L 205.769963 74.54554 
L 208.079572 74.085246 
L 210.389182 73.624951 
L 212.698791 73.164656 
L 215.0084 72.704361 
L 217.318009 72.244067 
L 219.627619 71.783772 
L 221.937228 71.323477 
L 224.246837 70.863183 
L 226.556447 70.402888 
L 228.866056 69.942593 
L 231.175665 69.482298 
L 233.485274 69.022004 
L 235.794884 68.561709 
L 238.104493 68.101414 
L 240.414102 67.64112 
L 242.723711 67.180825 
L 245.033321 66.72053 
L 247.34293 66.260235 
L 249.652539 65.799941 
L 251.962149 65.339646 
L 254.271758 64.879351 
L 256.581367 64.419056 
L 258.890976 63.958762 
L 261.200586 63.498467 
L 263.510195 63.038172 
L 265.819804 62.577878 
L 268.129414 62.117583 
L 270.439023 61.657288 
L 272.748632 61.196993 
L 275.058241 60.736699 
L 277.367851 60.276404 
L 279.67746 59.816109 
L 281.987069 59.355814 
L 284.296678 58.89552 
L 286.606288 58.435225 
L 288.915897 57.97493 
L 291.225506 57.514636 
" style="fill:none;stroke:#1f77b4;stroke-linecap:square;stroke-width:1.5;"/>
   </g>
   <g id="line2d_26">
    <path clip-path="url(#p1fb242ec84)" d="M 178.054652 67.538832 
L 180.364261 67.538832 
L 182.67387 67.538832 
L 184.98348 67.538832 
L 187.293089 67.538832 
L 189.602698 67.538832 
L 191.912307 67.538832 
L 194.221917 67.538832 
L 196.531526 67.538832 
L 198.841135 67.538832 
L 201.150744 67.538832 
L 203.460354 67.538832 
L 205.769963 67.538832 
L 208.079572 67.538832 
L 210.389182 67.538832 
L 212.698791 67.538832 
L 215.0084 67.538832 
L 217.318009 67.538832 
L 219.627619 67.538832 
L 221.937228 67.538832 
L 224.246837 67.538832 
L 226.556447 67.538832 
L 228.866056 67.538832 
L 231.175665 67.538832 
L 233.485274 67.538832 
L 235.794884 67.538832 
L 238.104493 67.538832 
L 240.414102 67.538832 
L 242.723711 67.538832 
L 245.033321 67.538832 
L 247.34293 67.538832 
L 249.652539 67.538832 
L 251.962149 67.538832 
L 254.271758 67.538832 
L 256.581367 67.538832 
L 258.890976 67.538832 
L 261.200586 67.538832 
L 263.510195 67.538832 
L 265.819804 67.538832 
L 268.129414 67.538832 
L 270.439023 67.538832 
L 272.748632 67.538832 
L 275.058241 67.538832 
L 277.367851 67.538832 
L 279.67746 67.538832 
L 281.987069 67.538832 
L 284.296678 67.538832 
L 286.606288 67.538832 
L 288.915897 67.538832 
L 291.225506 67.538832 
" style="fill:none;stroke:#ff7f0e;stroke-linecap:square;stroke-width:1.5;"/>
   </g>
   <g id="patch_8">
    <path d="M 172.396109 85.081175 
L 172.396109 18.670875 
" style="fill:none;stroke:#000000;stroke-linecap:square;stroke-linejoin:miter;stroke-width:0.8;"/>
   </g>
   <g id="patch_9">
    <path d="M 296.884049 85.081175 
L 296.884049 18.670875 
" style="fill:none;stroke:#000000;stroke-linecap:square;stroke-linejoin:miter;stroke-width:0.8;"/>
   </g>
   <g id="patch_10">
    <path d="M 172.396109 85.081175 
L 296.884049 85.081175 
" style="fill:none;stroke:#000000;stroke-linecap:square;stroke-linejoin:miter;stroke-width:0.8;"/>
   </g>
   <g id="patch_11">
    <path d="M 172.396109 18.670875 
L 296.884049 18.670875 
" style="fill:none;stroke:#000000;stroke-linecap:square;stroke-linejoin:miter;stroke-width:0.8;"/>
   </g>
   <g id="text_9">
    <!-- New calibration -->
    <g transform="translate(206.590454 12.670875)scale(0.072 -0.072)">
     <defs>
      <path d="M 9.8125 72.90625 
L 23.09375 72.90625 
L 55.421875 11.921875 
L 55.421875 72.90625 
L 64.984375 72.90625 
L 64.984375 0 
L 51.703125 0 
L 19.390625 60.984375 
L 19.390625 0 
L 9.8125 0 
z
" id="DejaVuSans-78"/>
      <path d="M 4.203125 54.6875 
L 13.1875 54.6875 
L 24.421875 12.015625 
L 35.59375 54.6875 
L 46.1875 54.6875 
L 57.421875 12.015625 
L 68.609375 54.6875 
L 77.59375 54.6875 
L 63.28125 0 
L 52.6875 0 
L 40.921875 44.828125 
L 29.109375 0 
L 18.5 0 
z
" id="DejaVuSans-119"/>
     </defs>
     <use xlink:href="#DejaVuSans-78"/>
     <use x="74.804688" xlink:href="#DejaVuSans-101"/>
     <use x="136.328125" xlink:href="#DejaVuSans-119"/>
     <use x="218.115234" xlink:href="#DejaVuSans-32"/>
     <use x="249.902344" xlink:href="#DejaVuSans-99"/>
     <use x="304.882812" xlink:href="#DejaVuSans-97"/>
     <use x="366.162109" xlink:href="#DejaVuSans-108"/>
     <use x="393.945312" xlink:href="#DejaVuSans-105"/>
     <use x="421.728516" xlink:href="#DejaVuSans-98"/>
     <use x="485.205078" xlink:href="#DejaVuSans-114"/>
     <use x="526.318359" xlink:href="#DejaVuSans-97"/>
     <use x="587.597656" xlink:href="#DejaVuSans-116"/>
     <use x="626.806641" xlink:href="#DejaVuSans-105"/>
     <use x="654.589844" xlink:href="#DejaVuSans-111"/>
     <use x="715.771484" xlink:href="#DejaVuSans-110"/>
    </g>
   </g>
   <g id="legend_1">
    <g id="patch_12">
     <path d="M 259.210611 41.084625 
L 292.684049 41.084625 
Q 293.884049 41.084625 293.884049 39.884625 
L 293.884049 22.870875 
Q 293.884049 21.670875 292.684049 21.670875 
L 259.210611 21.670875 
Q 258.010611 21.670875 258.010611 22.870875 
L 258.010611 39.884625 
Q 258.010611 41.084625 259.210611 41.084625 
z
" style="fill:#ffffff;opacity:0.8;stroke:#cccccc;stroke-linejoin:miter;"/>
    </g>
    <g id="line2d_27">
     <path d="M 260.410611 26.529937 
L 272.410611 26.529937 
" style="fill:none;stroke:#1f77b4;stroke-linecap:square;stroke-width:1.5;"/>
    </g>
    <g id="line2d_28"/>
    <g id="text_10">
     <!-- HWP -->
     <g transform="translate(277.210611 28.629937)scale(0.06 -0.06)">
      <defs>
       <path d="M 9.8125 72.90625 
L 19.671875 72.90625 
L 19.671875 43.015625 
L 55.515625 43.015625 
L 55.515625 72.90625 
L 65.375 72.90625 
L 65.375 0 
L 55.515625 0 
L 55.515625 34.71875 
L 19.671875 34.71875 
L 19.671875 0 
L 9.8125 0 
z
" id="DejaVuSans-72"/>
       <path d="M 19.671875 64.796875 
L 19.671875 37.40625 
L 32.078125 37.40625 
Q 38.96875 37.40625 42.71875 40.96875 
Q 46.484375 44.53125 46.484375 51.125 
Q 46.484375 57.671875 42.71875 61.234375 
Q 38.96875 64.796875 32.078125 64.796875 
z
M 9.8125 72.90625 
L 32.078125 72.90625 
Q 44.34375 72.90625 50.609375 67.359375 
Q 56.890625 61.8125 56.890625 51.125 
Q 56.890625 40.328125 50.609375 34.8125 
Q 44.34375 29.296875 32.078125 29.296875 
L 19.671875 29.296875 
L 19.671875 0 
L 9.8125 0 
z
" id="DejaVuSans-80"/>
      </defs>
      <use xlink:href="#DejaVuSans-72"/>
      <use x="75.195312" xlink:href="#DejaVuSans-87"/>
      <use x="174.072266" xlink:href="#DejaVuSans-80"/>
     </g>
    </g>
    <g id="line2d_29">
     <path d="M 260.410611 35.336812 
L 272.410611 35.336812 
" style="fill:none;stroke:#ff7f0e;stroke-linecap:square;stroke-width:1.5;"/>
    </g>
    <g id="line2d_30"/>
    <g id="text_11">
     <!-- QWP -->
     <g transform="translate(277.210611 37.436812)scale(0.06 -0.06)">
      <defs>
       <path d="M 39.40625 66.21875 
Q 28.65625 66.21875 22.328125 58.203125 
Q 16.015625 50.203125 16.015625 36.375 
Q 16.015625 22.609375 22.328125 14.59375 
Q 28.65625 6.59375 39.40625 6.59375 
Q 50.140625 6.59375 56.421875 14.59375 
Q 62.703125 22.609375 62.703125 36.375 
Q 62.703125 50.203125 56.421875 58.203125 
Q 50.140625 66.21875 39.40625 66.21875 
z
M 53.21875 1.3125 
L 66.21875 -12.890625 
L 54.296875 -12.890625 
L 43.5 -1.21875 
Q 41.890625 -1.3125 41.03125 -1.359375 
Q 40.1875 -1.421875 39.40625 -1.421875 
Q 24.03125 -1.421875 14.8125 8.859375 
Q 5.609375 19.140625 5.609375 36.375 
Q 5.609375 53.65625 14.8125 63.9375 
Q 24.03125 74.21875 39.40625 74.21875 
Q 54.734375 74.21875 63.90625 63.9375 
Q 73.09375 53.65625 73.09375 36.375 
Q 73.09375 23.6875 67.984375 14.640625 
Q 62.890625 5.609375 53.21875 1.3125 
z
" id="DejaVuSans-81"/>
      </defs>
      <use xlink:href="#DejaVuSans-81"/>
      <use x="78.710938" xlink:href="#DejaVuSans-87"/>
      <use x="177.587891" xlink:href="#DejaVuSans-80"/>
     </g>
    </g>
   </g>
  </g>
  <g id="axes_3">
   <g id="patch_13">
    <path d="M 35.459375 164.773536 
L 159.947315 164.773536 
L 159.947315 98.363235 
L 35.459375 98.363235 
z
" style="fill:#ffffff;"/>
   </g>
   <g id="matplotlib.axis_5">
    <g id="xtick_11">
     <g id="line2d_31">
      <g>
       <use style="stroke:#000000;stroke-width:0.8;" x="41.117918" xlink:href="#mad61c0697b" y="164.773536"/>
      </g>
     </g>
     <g id="text_12">
      <!-- 0 -->
      <g transform="translate(39.209168 176.332598)scale(0.06 -0.06)">
       <use xlink:href="#DejaVuSans-48"/>
      </g>
     </g>
    </g>
    <g id="xtick_12">
     <g id="line2d_32">
      <g>
       <use style="stroke:#000000;stroke-width:0.8;" x="69.410631" xlink:href="#mad61c0697b" y="164.773536"/>
      </g>
     </g>
     <g id="text_13">
      <!-- 45 -->
      <g transform="translate(65.593131 176.332598)scale(0.06 -0.06)">
       <use xlink:href="#DejaVuSans-52"/>
       <use x="63.623047" xlink:href="#DejaVuSans-53"/>
      </g>
     </g>
    </g>
    <g id="xtick_13">
     <g id="line2d_33">
      <g>
       <use style="stroke:#000000;stroke-width:0.8;" x="97.703345" xlink:href="#mad61c0697b" y="164.773536"/>
      </g>
     </g>
     <g id="text_14">
      <!-- 90 -->
      <g transform="translate(93.885845 176.332598)scale(0.06 -0.06)">
       <use xlink:href="#DejaVuSans-57"/>
       <use x="63.623047" xlink:href="#DejaVuSans-48"/>
      </g>
     </g>
    </g>
    <g id="xtick_14">
     <g id="line2d_34">
      <g>
       <use style="stroke:#000000;stroke-width:0.8;" x="125.996059" xlink:href="#mad61c0697b" y="164.773536"/>
      </g>
     </g>
     <g id="text_15">
      <!-- 135 -->
      <g transform="translate(120.269809 176.332598)scale(0.06 -0.06)">
       <use xlink:href="#DejaVuSans-49"/>
       <use x="63.623047" xlink:href="#DejaVuSans-51"/>
       <use x="127.246094" xlink:href="#DejaVuSans-53"/>
      </g>
     </g>
    </g>
    <g id="xtick_15">
     <g id="line2d_35">
      <g>
       <use style="stroke:#000000;stroke-width:0.8;" x="154.288772" xlink:href="#mad61c0697b" y="164.773536"/>
      </g>
     </g>
     <g id="text_16">
      <!-- 180 -->
      <g transform="translate(148.562522 176.332598)scale(0.06 -0.06)">
       <use xlink:href="#DejaVuSans-49"/>
       <use x="63.623047" xlink:href="#DejaVuSans-56"/>
       <use x="127.246094" xlink:href="#DejaVuSans-48"/>
      </g>
     </g>
    </g>
    <g id="text_17">
     <!-- Control angle -->
     <g transform="translate(77.583658 186.139473)scale(0.06 -0.06)">
      <defs>
       <path d="M 64.40625 67.28125 
L 64.40625 56.890625 
Q 59.421875 61.53125 53.78125 63.8125 
Q 48.140625 66.109375 41.796875 66.109375 
Q 29.296875 66.109375 22.65625 58.46875 
Q 16.015625 50.828125 16.015625 36.375 
Q 16.015625 21.96875 22.65625 14.328125 
Q 29.296875 6.6875 41.796875 6.6875 
Q 48.140625 6.6875 53.78125 8.984375 
Q 59.421875 11.28125 64.40625 15.921875 
L 64.40625 5.609375 
Q 59.234375 2.09375 53.4375 0.328125 
Q 47.65625 -1.421875 41.21875 -1.421875 
Q 24.65625 -1.421875 15.125 8.703125 
Q 5.609375 18.84375 5.609375 36.375 
Q 5.609375 53.953125 15.125 64.078125 
Q 24.65625 74.21875 41.21875 74.21875 
Q 47.75 74.21875 53.53125 72.484375 
Q 59.328125 70.75 64.40625 67.28125 
z
" id="DejaVuSans-67"/>
      </defs>
      <use xlink:href="#DejaVuSans-67"/>
      <use x="69.824219" xlink:href="#DejaVuSans-111"/>
      <use x="131.005859" xlink:href="#DejaVuSans-110"/>
      <use x="194.384766" xlink:href="#DejaVuSans-116"/>
      <use x="233.59375" xlink:href="#DejaVuSans-114"/>
      <use x="272.457031" xlink:href="#DejaVuSans-111"/>
      <use x="333.638672" xlink:href="#DejaVuSans-108"/>
      <use x="361.421875" xlink:href="#DejaVuSans-32"/>
      <use x="393.208984" xlink:href="#DejaVuSans-97"/>
      <use x="454.488281" xlink:href="#DejaVuSans-110"/>
      <use x="517.867188" xlink:href="#DejaVuSans-103"/>
      <use x="581.34375" xlink:href="#DejaVuSans-108"/>
      <use x="609.126953" xlink:href="#DejaVuSans-101"/>
     </g>
    </g>
   </g>
   <g id="matplotlib.axis_6">
    <g id="ytick_13">
     <g id="line2d_36">
      <g>
       <use style="stroke:#000000;stroke-width:0.8;" x="35.459375" xlink:href="#m007dc9c7ea" y="150.516562"/>
      </g>
     </g>
     <g id="text_18">
      <!-- 100 -->
      <g transform="translate(17.006875 152.796093)scale(0.06 -0.06)">
       <use xlink:href="#DejaVuSans-49"/>
       <use x="63.623047" xlink:href="#DejaVuSans-48"/>
       <use x="127.246094" xlink:href="#DejaVuSans-48"/>
      </g>
     </g>
    </g>
    <g id="ytick_14">
     <g id="line2d_37">
      <g>
       <use style="stroke:#000000;stroke-width:0.8;" x="35.459375" xlink:href="#m007dc9c7ea" y="136.153433"/>
      </g>
     </g>
     <g id="text_19">
      <!-- 200 -->
      <g transform="translate(17.006875 138.432965)scale(0.06 -0.06)">
       <use xlink:href="#DejaVuSans-50"/>
       <use x="63.623047" xlink:href="#DejaVuSans-48"/>
       <use x="127.246094" xlink:href="#DejaVuSans-48"/>
      </g>
     </g>
    </g>
    <g id="ytick_15">
     <g id="line2d_38">
      <g>
       <use style="stroke:#000000;stroke-width:0.8;" x="35.459375" xlink:href="#m007dc9c7ea" y="121.790305"/>
      </g>
     </g>
     <g id="text_20">
      <!-- 300 -->
      <g transform="translate(17.006875 124.069836)scale(0.06 -0.06)">
       <use xlink:href="#DejaVuSans-51"/>
       <use x="63.623047" xlink:href="#DejaVuSans-48"/>
       <use x="127.246094" xlink:href="#DejaVuSans-48"/>
      </g>
     </g>
    </g>
    <g id="ytick_16">
     <g id="line2d_39">
      <g>
       <use style="stroke:#000000;stroke-width:0.8;" x="35.459375" xlink:href="#m007dc9c7ea" y="107.427176"/>
      </g>
     </g>
     <g id="text_21">
      <!-- 400 -->
      <g transform="translate(17.006875 109.706708)scale(0.06 -0.06)">
       <use xlink:href="#DejaVuSans-52"/>
       <use x="63.623047" xlink:href="#DejaVuSans-48"/>
       <use x="127.246094" xlink:href="#DejaVuSans-48"/>
      </g>
     </g>
    </g>
    <g id="text_22">
     <!-- Intensity after P2 (au) -->
     <g transform="translate(11.759062 164.381823)rotate(-90)scale(0.06 -0.06)">
      <defs>
       <path d="M 9.8125 72.90625 
L 19.671875 72.90625 
L 19.671875 0 
L 9.8125 0 
z
" id="DejaVuSans-73"/>
       <path d="M 44.28125 53.078125 
L 44.28125 44.578125 
Q 40.484375 46.53125 36.375 47.5 
Q 32.28125 48.484375 27.875 48.484375 
Q 21.1875 48.484375 17.84375 46.4375 
Q 14.5 44.390625 14.5 40.28125 
Q 14.5 37.15625 16.890625 35.375 
Q 19.28125 33.59375 26.515625 31.984375 
L 29.59375 31.296875 
Q 39.15625 29.25 43.1875 25.515625 
Q 47.21875 21.78125 47.21875 15.09375 
Q 47.21875 7.46875 41.1875 3.015625 
Q 35.15625 -1.421875 24.609375 -1.421875 
Q 20.21875 -1.421875 15.453125 -0.5625 
Q 10.6875 0.296875 5.421875 2 
L 5.421875 11.28125 
Q 10.40625 8.6875 15.234375 7.390625 
Q 20.0625 6.109375 24.8125 6.109375 
Q 31.15625 6.109375 34.5625 8.28125 
Q 37.984375 10.453125 37.984375 14.40625 
Q 37.984375 18.0625 35.515625 20.015625 
Q 33.0625 21.96875 24.703125 23.78125 
L 21.578125 24.515625 
Q 13.234375 26.265625 9.515625 29.90625 
Q 5.8125 33.546875 5.8125 39.890625 
Q 5.8125 47.609375 11.28125 51.796875 
Q 16.75 56 26.8125 56 
Q 31.78125 56 36.171875 55.265625 
Q 40.578125 54.546875 44.28125 53.078125 
z
" id="DejaVuSans-115"/>
       <path d="M 32.171875 -5.078125 
Q 28.375 -14.84375 24.75 -17.8125 
Q 21.140625 -20.796875 15.09375 -20.796875 
L 7.90625 -20.796875 
L 7.90625 -13.28125 
L 13.1875 -13.28125 
Q 16.890625 -13.28125 18.9375 -11.515625 
Q 21 -9.765625 23.484375 -3.21875 
L 25.09375 0.875 
L 2.984375 54.6875 
L 12.5 54.6875 
L 29.59375 11.921875 
L 46.6875 54.6875 
L 56.203125 54.6875 
z
" id="DejaVuSans-121"/>
       <path d="M 31 75.875 
Q 24.46875 64.65625 21.28125 53.65625 
Q 18.109375 42.671875 18.109375 31.390625 
Q 18.109375 20.125 21.3125 9.0625 
Q 24.515625 -2 31 -13.1875 
L 23.1875 -13.1875 
Q 15.875 -1.703125 12.234375 9.375 
Q 8.59375 20.453125 8.59375 31.390625 
Q 8.59375 42.28125 12.203125 53.3125 
Q 15.828125 64.359375 23.1875 75.875 
z
" id="DejaVuSans-40"/>
       <path d="M 8.015625 75.875 
L 15.828125 75.875 
Q 23.140625 64.359375 26.78125 53.3125 
Q 30.421875 42.28125 30.421875 31.390625 
Q 30.421875 20.453125 26.78125 9.375 
Q 23.140625 -1.703125 15.828125 -13.1875 
L 8.015625 -13.1875 
Q 14.5 -2 17.703125 9.0625 
Q 20.90625 20.125 20.90625 31.390625 
Q 20.90625 42.671875 17.703125 53.65625 
Q 14.5 64.65625 8.015625 75.875 
z
" id="DejaVuSans-41"/>
      </defs>
      <use xlink:href="#DejaVuSans-73"/>
      <use x="29.492188" xlink:href="#DejaVuSans-110"/>
      <use x="92.871094" xlink:href="#DejaVuSans-116"/>
      <use x="132.080078" xlink:href="#DejaVuSans-101"/>
      <use x="193.603516" xlink:href="#DejaVuSans-110"/>
      <use x="256.982422" xlink:href="#DejaVuSans-115"/>
      <use x="309.082031" xlink:href="#DejaVuSans-105"/>
      <use x="336.865234" xlink:href="#DejaVuSans-116"/>
      <use x="376.074219" xlink:href="#DejaVuSans-121"/>
      <use x="435.253906" xlink:href="#DejaVuSans-32"/>
      <use x="467.041016" xlink:href="#DejaVuSans-97"/>
      <use x="528.320312" xlink:href="#DejaVuSans-102"/>
      <use x="561.775391" xlink:href="#DejaVuSans-116"/>
      <use x="600.984375" xlink:href="#DejaVuSans-101"/>
      <use x="662.507812" xlink:href="#DejaVuSans-114"/>
      <use x="703.621094" xlink:href="#DejaVuSans-32"/>
      <use x="735.408203" xlink:href="#DejaVuSans-80"/>
      <use x="795.710938" xlink:href="#DejaVuSans-50"/>
      <use x="859.333984" xlink:href="#DejaVuSans-32"/>
      <use x="891.121094" xlink:href="#DejaVuSans-40"/>
      <use x="930.134766" xlink:href="#DejaVuSans-97"/>
      <use x="991.414062" xlink:href="#DejaVuSans-117"/>
      <use x="1054.792969" xlink:href="#DejaVuSans-41"/>
     </g>
    </g>
   </g>
   <g id="line2d_40">
    <path clip-path="url(#p53c57823d9)" d="M 41.117918 103.202441 
L 47.405187 101.544089 
L 53.692457 102.768268 
L 59.979727 107.772824 
L 66.266997 115.591809 
L 72.554266 123.974405 
L 78.841536 127.634513 
L 85.128806 123.728915 
L 91.416075 112.673663 
L 97.703345 104.474924 
L 103.990615 101.381885 
L 110.277884 103.192096 
L 116.565154 109.168833 
L 122.852424 116.785161 
L 129.139693 122.693528 
L 135.426963 120.672784 
L 141.714233 114.176387 
L 148.001503 107.284553 
" style="fill:none;stroke:#1f77b4;stroke-linecap:square;stroke-width:1.5;"/>
    <defs>
     <path d="M 0 1.5 
C 0.397805 1.5 0.77937 1.341951 1.06066 1.06066 
C 1.341951 0.77937 1.5 0.397805 1.5 0 
C 1.5 -0.397805 1.341951 -0.77937 1.06066 -1.06066 
C 0.77937 -1.341951 0.397805 -1.5 0 -1.5 
C -0.397805 -1.5 -0.77937 -1.341951 -1.06066 -1.06066 
C -1.341951 -0.77937 -1.5 -0.397805 -1.5 0 
C -1.5 0.397805 -1.341951 0.77937 -1.06066 1.06066 
C -0.77937 1.341951 -0.397805 1.5 0 1.5 
z
" id="m1b5637cd4b" style="stroke:#1f77b4;"/>
    </defs>
    <g clip-path="url(#p53c57823d9)">
     <use style="fill:#1f77b4;stroke:#1f77b4;" x="41.117918" xlink:href="#m1b5637cd4b" y="103.202441"/>
     <use style="fill:#1f77b4;stroke:#1f77b4;" x="47.405187" xlink:href="#m1b5637cd4b" y="101.544089"/>
     <use style="fill:#1f77b4;stroke:#1f77b4;" x="53.692457" xlink:href="#m1b5637cd4b" y="102.768268"/>
     <use style="fill:#1f77b4;stroke:#1f77b4;" x="59.979727" xlink:href="#m1b5637cd4b" y="107.772824"/>
     <use style="fill:#1f77b4;stroke:#1f77b4;" x="66.266997" xlink:href="#m1b5637cd4b" y="115.591809"/>
     <use style="fill:#1f77b4;stroke:#1f77b4;" x="72.554266" xlink:href="#m1b5637cd4b" y="123.974405"/>
     <use style="fill:#1f77b4;stroke:#1f77b4;" x="78.841536" xlink:href="#m1b5637cd4b" y="127.634513"/>
     <use style="fill:#1f77b4;stroke:#1f77b4;" x="85.128806" xlink:href="#m1b5637cd4b" y="123.728915"/>
     <use style="fill:#1f77b4;stroke:#1f77b4;" x="91.416075" xlink:href="#m1b5637cd4b" y="112.673663"/>
     <use style="fill:#1f77b4;stroke:#1f77b4;" x="97.703345" xlink:href="#m1b5637cd4b" y="104.474924"/>
     <use style="fill:#1f77b4;stroke:#1f77b4;" x="103.990615" xlink:href="#m1b5637cd4b" y="101.381885"/>
     <use style="fill:#1f77b4;stroke:#1f77b4;" x="110.277884" xlink:href="#m1b5637cd4b" y="103.192096"/>
     <use style="fill:#1f77b4;stroke:#1f77b4;" x="116.565154" xlink:href="#m1b5637cd4b" y="109.168833"/>
     <use style="fill:#1f77b4;stroke:#1f77b4;" x="122.852424" xlink:href="#m1b5637cd4b" y="116.785161"/>
     <use style="fill:#1f77b4;stroke:#1f77b4;" x="129.139693" xlink:href="#m1b5637cd4b" y="122.693528"/>
     <use style="fill:#1f77b4;stroke:#1f77b4;" x="135.426963" xlink:href="#m1b5637cd4b" y="120.672784"/>
     <use style="fill:#1f77b4;stroke:#1f77b4;" x="141.714233" xlink:href="#m1b5637cd4b" y="114.176387"/>
     <use style="fill:#1f77b4;stroke:#1f77b4;" x="148.001503" xlink:href="#m1b5637cd4b" y="107.284553"/>
    </g>
   </g>
   <g id="line2d_41">
    <path clip-path="url(#p53c57823d9)" d="M 41.117918 123.66296 
L 47.405187 119.356682 
L 53.692457 112.974063 
L 59.979727 111.413957 
L 66.266997 111.615478 
L 72.554266 116.172537 
L 78.841536 127.442767 
L 85.128806 141.949156 
L 91.416075 150.56853 
L 97.703345 139.313023 
L 103.990615 124.682243 
L 110.277884 112.14493 
L 116.565154 105.835021 
L 122.852424 105.167929 
L 129.139693 109.211872 
L 135.426963 117.397032 
L 141.714233 124.817463 
L 148.001503 127.361137 
" style="fill:none;stroke:#ff7f0e;stroke-linecap:square;stroke-width:1.5;"/>
    <defs>
     <path d="M 0 1.5 
C 0.397805 1.5 0.77937 1.341951 1.06066 1.06066 
C 1.341951 0.77937 1.5 0.397805 1.5 0 
C 1.5 -0.397805 1.341951 -0.77937 1.06066 -1.06066 
C 0.77937 -1.341951 0.397805 -1.5 0 -1.5 
C -0.397805 -1.5 -0.77937 -1.341951 -1.06066 -1.06066 
C -1.341951 -0.77937 -1.5 -0.397805 -1.5 0 
C -1.5 0.397805 -1.341951 0.77937 -1.06066 1.06066 
C -0.77937 1.341951 -0.397805 1.5 0 1.5 
z
" id="mf66e23220b" style="stroke:#ff7f0e;"/>
    </defs>
    <g clip-path="url(#p53c57823d9)">
     <use style="fill:#ff7f0e;stroke:#ff7f0e;" x="41.117918" xlink:href="#mf66e23220b" y="123.66296"/>
     <use style="fill:#ff7f0e;stroke:#ff7f0e;" x="47.405187" xlink:href="#mf66e23220b" y="119.356682"/>
     <use style="fill:#ff7f0e;stroke:#ff7f0e;" x="53.692457" xlink:href="#mf66e23220b" y="112.974063"/>
     <use style="fill:#ff7f0e;stroke:#ff7f0e;" x="59.979727" xlink:href="#mf66e23220b" y="111.413957"/>
     <use style="fill:#ff7f0e;stroke:#ff7f0e;" x="66.266997" xlink:href="#mf66e23220b" y="111.615478"/>
     <use style="fill:#ff7f0e;stroke:#ff7f0e;" x="72.554266" xlink:href="#mf66e23220b" y="116.172537"/>
     <use style="fill:#ff7f0e;stroke:#ff7f0e;" x="78.841536" xlink:href="#mf66e23220b" y="127.442767"/>
     <use style="fill:#ff7f0e;stroke:#ff7f0e;" x="85.128806" xlink:href="#mf66e23220b" y="141.949156"/>
     <use style="fill:#ff7f0e;stroke:#ff7f0e;" x="91.416075" xlink:href="#mf66e23220b" y="150.56853"/>
     <use style="fill:#ff7f0e;stroke:#ff7f0e;" x="97.703345" xlink:href="#mf66e23220b" y="139.313023"/>
     <use style="fill:#ff7f0e;stroke:#ff7f0e;" x="103.990615" xlink:href="#mf66e23220b" y="124.682243"/>
     <use style="fill:#ff7f0e;stroke:#ff7f0e;" x="110.277884" xlink:href="#mf66e23220b" y="112.14493"/>
     <use style="fill:#ff7f0e;stroke:#ff7f0e;" x="116.565154" xlink:href="#mf66e23220b" y="105.835021"/>
     <use style="fill:#ff7f0e;stroke:#ff7f0e;" x="122.852424" xlink:href="#mf66e23220b" y="105.167929"/>
     <use style="fill:#ff7f0e;stroke:#ff7f0e;" x="129.139693" xlink:href="#mf66e23220b" y="109.211872"/>
     <use style="fill:#ff7f0e;stroke:#ff7f0e;" x="135.426963" xlink:href="#mf66e23220b" y="117.397032"/>
     <use style="fill:#ff7f0e;stroke:#ff7f0e;" x="141.714233" xlink:href="#mf66e23220b" y="124.817463"/>
     <use style="fill:#ff7f0e;stroke:#ff7f0e;" x="148.001503" xlink:href="#mf66e23220b" y="127.361137"/>
    </g>
   </g>
   <g id="line2d_42">
    <path clip-path="url(#p53c57823d9)" d="M 41.117918 156.790719 
L 47.405187 161.293173 
L 53.692457 154.353432 
L 59.979727 141.483888 
L 66.266997 127.169903 
L 72.554266 117.585408 
L 78.841536 115.459272 
L 85.128806 119.485621 
L 91.416075 132.997017 
L 97.703345 150.920519 
L 103.990615 161.754886 
L 110.277884 154.968981 
L 116.565154 138.901672 
L 122.852424 126.363647 
L 129.139693 119.741538 
L 135.426963 121.919362 
L 141.714233 131.471061 
L 148.001503 144.798631 
" style="fill:none;stroke:#2ca02c;stroke-linecap:square;stroke-width:1.5;"/>
    <defs>
     <path d="M 0 1.5 
C 0.397805 1.5 0.77937 1.341951 1.06066 1.06066 
C 1.341951 0.77937 1.5 0.397805 1.5 0 
C 1.5 -0.397805 1.341951 -0.77937 1.06066 -1.06066 
C 0.77937 -1.341951 0.397805 -1.5 0 -1.5 
C -0.397805 -1.5 -0.77937 -1.341951 -1.06066 -1.06066 
C -1.341951 -0.77937 -1.5 -0.397805 -1.5 0 
C -1.5 0.397805 -1.341951 0.77937 -1.06066 1.06066 
C -0.77937 1.341951 -0.397805 1.5 0 1.5 
z
" id="m8e926d9bce" style="stroke:#2ca02c;"/>
    </defs>
    <g clip-path="url(#p53c57823d9)">
     <use style="fill:#2ca02c;stroke:#2ca02c;" x="41.117918" xlink:href="#m8e926d9bce" y="156.790719"/>
     <use style="fill:#2ca02c;stroke:#2ca02c;" x="47.405187" xlink:href="#m8e926d9bce" y="161.293173"/>
     <use style="fill:#2ca02c;stroke:#2ca02c;" x="53.692457" xlink:href="#m8e926d9bce" y="154.353432"/>
     <use style="fill:#2ca02c;stroke:#2ca02c;" x="59.979727" xlink:href="#m8e926d9bce" y="141.483888"/>
     <use style="fill:#2ca02c;stroke:#2ca02c;" x="66.266997" xlink:href="#m8e926d9bce" y="127.169903"/>
     <use style="fill:#2ca02c;stroke:#2ca02c;" x="72.554266" xlink:href="#m8e926d9bce" y="117.585408"/>
     <use style="fill:#2ca02c;stroke:#2ca02c;" x="78.841536" xlink:href="#m8e926d9bce" y="115.459272"/>
     <use style="fill:#2ca02c;stroke:#2ca02c;" x="85.128806" xlink:href="#m8e926d9bce" y="119.485621"/>
     <use style="fill:#2ca02c;stroke:#2ca02c;" x="91.416075" xlink:href="#m8e926d9bce" y="132.997017"/>
     <use style="fill:#2ca02c;stroke:#2ca02c;" x="97.703345" xlink:href="#m8e926d9bce" y="150.920519"/>
     <use style="fill:#2ca02c;stroke:#2ca02c;" x="103.990615" xlink:href="#m8e926d9bce" y="161.754886"/>
     <use style="fill:#2ca02c;stroke:#2ca02c;" x="110.277884" xlink:href="#m8e926d9bce" y="154.968981"/>
     <use style="fill:#2ca02c;stroke:#2ca02c;" x="116.565154" xlink:href="#m8e926d9bce" y="138.901672"/>
     <use style="fill:#2ca02c;stroke:#2ca02c;" x="122.852424" xlink:href="#m8e926d9bce" y="126.363647"/>
     <use style="fill:#2ca02c;stroke:#2ca02c;" x="129.139693" xlink:href="#m8e926d9bce" y="119.741538"/>
     <use style="fill:#2ca02c;stroke:#2ca02c;" x="135.426963" xlink:href="#m8e926d9bce" y="121.919362"/>
     <use style="fill:#2ca02c;stroke:#2ca02c;" x="141.714233" xlink:href="#m8e926d9bce" y="131.471061"/>
     <use style="fill:#2ca02c;stroke:#2ca02c;" x="148.001503" xlink:href="#m8e926d9bce" y="144.798631"/>
    </g>
   </g>
   <g id="line2d_43">
    <path clip-path="url(#p53c57823d9)" d="M 41.117918 119.853369 
L 47.405187 123.487567 
L 53.692457 130.618255 
L 59.979727 134.017873 
L 66.266997 133.14451 
L 72.554266 125.570537 
L 78.841536 115.45136 
L 85.128806 107.960131 
L 91.416075 104.684462 
L 97.703345 108.827156 
L 103.990615 117.949663 
L 110.277884 133.026448 
L 116.565154 146.728797 
L 122.852424 148.544949 
L 129.139693 138.326214 
L 135.426963 125.479623 
L 141.714233 118.974815 
L 148.001503 116.726662 
" style="fill:none;stroke:#d62728;stroke-linecap:square;stroke-width:1.5;"/>
    <defs>
     <path d="M 0 1.5 
C 0.397805 1.5 0.77937 1.341951 1.06066 1.06066 
C 1.341951 0.77937 1.5 0.397805 1.5 0 
C 1.5 -0.397805 1.341951 -0.77937 1.06066 -1.06066 
C 0.77937 -1.341951 0.397805 -1.5 0 -1.5 
C -0.397805 -1.5 -0.77937 -1.341951 -1.06066 -1.06066 
C -1.341951 -0.77937 -1.5 -0.397805 -1.5 0 
C -1.5 0.397805 -1.341951 0.77937 -1.06066 1.06066 
C -0.77937 1.341951 -0.397805 1.5 0 1.5 
z
" id="m3e2e81d218" style="stroke:#d62728;"/>
    </defs>
    <g clip-path="url(#p53c57823d9)">
     <use style="fill:#d62728;stroke:#d62728;" x="41.117918" xlink:href="#m3e2e81d218" y="119.853369"/>
     <use style="fill:#d62728;stroke:#d62728;" x="47.405187" xlink:href="#m3e2e81d218" y="123.487567"/>
     <use style="fill:#d62728;stroke:#d62728;" x="53.692457" xlink:href="#m3e2e81d218" y="130.618255"/>
     <use style="fill:#d62728;stroke:#d62728;" x="59.979727" xlink:href="#m3e2e81d218" y="134.017873"/>
     <use style="fill:#d62728;stroke:#d62728;" x="66.266997" xlink:href="#m3e2e81d218" y="133.14451"/>
     <use style="fill:#d62728;stroke:#d62728;" x="72.554266" xlink:href="#m3e2e81d218" y="125.570537"/>
     <use style="fill:#d62728;stroke:#d62728;" x="78.841536" xlink:href="#m3e2e81d218" y="115.45136"/>
     <use style="fill:#d62728;stroke:#d62728;" x="85.128806" xlink:href="#m3e2e81d218" y="107.960131"/>
     <use style="fill:#d62728;stroke:#d62728;" x="91.416075" xlink:href="#m3e2e81d218" y="104.684462"/>
     <use style="fill:#d62728;stroke:#d62728;" x="97.703345" xlink:href="#m3e2e81d218" y="108.827156"/>
     <use style="fill:#d62728;stroke:#d62728;" x="103.990615" xlink:href="#m3e2e81d218" y="117.949663"/>
     <use style="fill:#d62728;stroke:#d62728;" x="110.277884" xlink:href="#m3e2e81d218" y="133.026448"/>
     <use style="fill:#d62728;stroke:#d62728;" x="116.565154" xlink:href="#m3e2e81d218" y="146.728797"/>
     <use style="fill:#d62728;stroke:#d62728;" x="122.852424" xlink:href="#m3e2e81d218" y="148.544949"/>
     <use style="fill:#d62728;stroke:#d62728;" x="129.139693" xlink:href="#m3e2e81d218" y="138.326214"/>
     <use style="fill:#d62728;stroke:#d62728;" x="135.426963" xlink:href="#m3e2e81d218" y="125.479623"/>
     <use style="fill:#d62728;stroke:#d62728;" x="141.714233" xlink:href="#m3e2e81d218" y="118.974815"/>
     <use style="fill:#d62728;stroke:#d62728;" x="148.001503" xlink:href="#m3e2e81d218" y="116.726662"/>
    </g>
   </g>
   <g id="patch_14">
    <path d="M 35.459375 164.773536 
L 35.459375 98.363235 
" style="fill:none;stroke:#000000;stroke-linecap:square;stroke-linejoin:miter;stroke-width:0.8;"/>
   </g>
   <g id="patch_15">
    <path d="M 159.947315 164.773536 
L 159.947315 98.363235 
" style="fill:none;stroke:#000000;stroke-linecap:square;stroke-linejoin:miter;stroke-width:0.8;"/>
   </g>
   <g id="patch_16">
    <path d="M 35.459375 164.773536 
L 159.947315 164.773536 
" style="fill:none;stroke:#000000;stroke-linecap:square;stroke-linejoin:miter;stroke-width:0.8;"/>
   </g>
   <g id="patch_17">
    <path d="M 35.459375 98.363235 
L 159.947315 98.363235 
" style="fill:none;stroke:#000000;stroke-linecap:square;stroke-linejoin:miter;stroke-width:0.8;"/>
   </g>
  </g>
  <g id="axes_4">
   <g id="patch_18">
    <path d="M 172.396109 164.773536 
L 296.884049 164.773536 
L 296.884049 98.363235 
L 172.396109 98.363235 
z
" style="fill:#ffffff;"/>
   </g>
   <g id="matplotlib.axis_7">
    <g id="xtick_16">
     <g id="line2d_44">
      <g>
       <use style="stroke:#000000;stroke-width:0.8;" x="178.054652" xlink:href="#mad61c0697b" y="164.773536"/>
      </g>
     </g>
     <g id="text_23">
      <!-- 0 -->
      <g transform="translate(176.145902 176.332598)scale(0.06 -0.06)">
       <use xlink:href="#DejaVuSans-48"/>
      </g>
     </g>
    </g>
    <g id="xtick_17">
     <g id="line2d_45">
      <g>
       <use style="stroke:#000000;stroke-width:0.8;" x="206.347365" xlink:href="#mad61c0697b" y="164.773536"/>
      </g>
     </g>
     <g id="text_24">
      <!-- 45 -->
      <g transform="translate(202.529865 176.332598)scale(0.06 -0.06)">
       <use xlink:href="#DejaVuSans-52"/>
       <use x="63.623047" xlink:href="#DejaVuSans-53"/>
      </g>
     </g>
    </g>
    <g id="xtick_18">
     <g id="line2d_46">
      <g>
       <use style="stroke:#000000;stroke-width:0.8;" x="234.640079" xlink:href="#mad61c0697b" y="164.773536"/>
      </g>
     </g>
     <g id="text_25">
      <!-- 90 -->
      <g transform="translate(230.822579 176.332598)scale(0.06 -0.06)">
       <use xlink:href="#DejaVuSans-57"/>
       <use x="63.623047" xlink:href="#DejaVuSans-48"/>
      </g>
     </g>
    </g>
    <g id="xtick_19">
     <g id="line2d_47">
      <g>
       <use style="stroke:#000000;stroke-width:0.8;" x="262.932793" xlink:href="#mad61c0697b" y="164.773536"/>
      </g>
     </g>
     <g id="text_26">
      <!-- 135 -->
      <g transform="translate(257.206543 176.332598)scale(0.06 -0.06)">
       <use xlink:href="#DejaVuSans-49"/>
       <use x="63.623047" xlink:href="#DejaVuSans-51"/>
       <use x="127.246094" xlink:href="#DejaVuSans-53"/>
      </g>
     </g>
    </g>
    <g id="xtick_20">
     <g id="line2d_48">
      <g>
       <use style="stroke:#000000;stroke-width:0.8;" x="291.225506" xlink:href="#mad61c0697b" y="164.773536"/>
      </g>
     </g>
     <g id="text_27">
      <!-- 180 -->
      <g transform="translate(285.499256 176.332598)scale(0.06 -0.06)">
       <use xlink:href="#DejaVuSans-49"/>
       <use x="63.623047" xlink:href="#DejaVuSans-56"/>
       <use x="127.246094" xlink:href="#DejaVuSans-48"/>
      </g>
     </g>
    </g>
    <g id="text_28">
     <!-- Control angle -->
     <g transform="translate(214.520392 186.139473)scale(0.06 -0.06)">
      <use xlink:href="#DejaVuSans-67"/>
      <use x="69.824219" xlink:href="#DejaVuSans-111"/>
      <use x="131.005859" xlink:href="#DejaVuSans-110"/>
      <use x="194.384766" xlink:href="#DejaVuSans-116"/>
      <use x="233.59375" xlink:href="#DejaVuSans-114"/>
      <use x="272.457031" xlink:href="#DejaVuSans-111"/>
      <use x="333.638672" xlink:href="#DejaVuSans-108"/>
      <use x="361.421875" xlink:href="#DejaVuSans-32"/>
      <use x="393.208984" xlink:href="#DejaVuSans-97"/>
      <use x="454.488281" xlink:href="#DejaVuSans-110"/>
      <use x="517.867188" xlink:href="#DejaVuSans-103"/>
      <use x="581.34375" xlink:href="#DejaVuSans-108"/>
      <use x="609.126953" xlink:href="#DejaVuSans-101"/>
     </g>
    </g>
   </g>
   <g id="matplotlib.axis_8">
    <g id="ytick_17">
     <g id="line2d_49">
      <g>
       <use style="stroke:#000000;stroke-width:0.8;" x="172.396109" xlink:href="#m007dc9c7ea" y="150.516562"/>
      </g>
     </g>
    </g>
    <g id="ytick_18">
     <g id="line2d_50">
      <g>
       <use style="stroke:#000000;stroke-width:0.8;" x="172.396109" xlink:href="#m007dc9c7ea" y="136.153433"/>
      </g>
     </g>
    </g>
    <g id="ytick_19">
     <g id="line2d_51">
      <g>
       <use style="stroke:#000000;stroke-width:0.8;" x="172.396109" xlink:href="#m007dc9c7ea" y="121.790305"/>
      </g>
     </g>
    </g>
    <g id="ytick_20">
     <g id="line2d_52">
      <g>
       <use style="stroke:#000000;stroke-width:0.8;" x="172.396109" xlink:href="#m007dc9c7ea" y="107.427176"/>
      </g>
     </g>
    </g>
   </g>
   <g id="line2d_53">
    <path clip-path="url(#pd7750cd5d4)" d="M 178.054652 102.081877 
L 184.341921 101.827638 
L 190.629191 103.404374 
L 196.916461 106.91599 
L 203.203731 112.48264 
L 209.491 119.971976 
L 215.77827 129.666568 
L 222.06554 141.106723 
L 228.352809 152.19008 
L 234.640079 159.7964 
L 240.927349 161.04081 
L 247.214618 155.509927 
L 253.501888 145.322768 
L 259.789158 134.001327 
L 266.076427 123.210816 
L 272.363697 114.801197 
L 278.650967 108.617171 
L 284.938237 104.502473 
" style="fill:none;stroke:#1f77b4;stroke-linecap:square;stroke-width:1.5;"/>
    <g clip-path="url(#pd7750cd5d4)">
     <use style="fill:#1f77b4;stroke:#1f77b4;" x="178.054652" xlink:href="#m1b5637cd4b" y="102.081877"/>
     <use style="fill:#1f77b4;stroke:#1f77b4;" x="184.341921" xlink:href="#m1b5637cd4b" y="101.827638"/>
     <use style="fill:#1f77b4;stroke:#1f77b4;" x="190.629191" xlink:href="#m1b5637cd4b" y="103.404374"/>
     <use style="fill:#1f77b4;stroke:#1f77b4;" x="196.916461" xlink:href="#m1b5637cd4b" y="106.91599"/>
     <use style="fill:#1f77b4;stroke:#1f77b4;" x="203.203731" xlink:href="#m1b5637cd4b" y="112.48264"/>
     <use style="fill:#1f77b4;stroke:#1f77b4;" x="209.491" xlink:href="#m1b5637cd4b" y="119.971976"/>
     <use style="fill:#1f77b4;stroke:#1f77b4;" x="215.77827" xlink:href="#m1b5637cd4b" y="129.666568"/>
     <use style="fill:#1f77b4;stroke:#1f77b4;" x="222.06554" xlink:href="#m1b5637cd4b" y="141.106723"/>
     <use style="fill:#1f77b4;stroke:#1f77b4;" x="228.352809" xlink:href="#m1b5637cd4b" y="152.19008"/>
     <use style="fill:#1f77b4;stroke:#1f77b4;" x="234.640079" xlink:href="#m1b5637cd4b" y="159.7964"/>
     <use style="fill:#1f77b4;stroke:#1f77b4;" x="240.927349" xlink:href="#m1b5637cd4b" y="161.04081"/>
     <use style="fill:#1f77b4;stroke:#1f77b4;" x="247.214618" xlink:href="#m1b5637cd4b" y="155.509927"/>
     <use style="fill:#1f77b4;stroke:#1f77b4;" x="253.501888" xlink:href="#m1b5637cd4b" y="145.322768"/>
     <use style="fill:#1f77b4;stroke:#1f77b4;" x="259.789158" xlink:href="#m1b5637cd4b" y="134.001327"/>
     <use style="fill:#1f77b4;stroke:#1f77b4;" x="266.076427" xlink:href="#m1b5637cd4b" y="123.210816"/>
     <use style="fill:#1f77b4;stroke:#1f77b4;" x="272.363697" xlink:href="#m1b5637cd4b" y="114.801197"/>
     <use style="fill:#1f77b4;stroke:#1f77b4;" x="278.650967" xlink:href="#m1b5637cd4b" y="108.617171"/>
     <use style="fill:#1f77b4;stroke:#1f77b4;" x="284.938237" xlink:href="#m1b5637cd4b" y="104.502473"/>
    </g>
   </g>
   <g id="line2d_54">
    <path clip-path="url(#pd7750cd5d4)" d="M 178.054652 128.289949 
L 184.341921 119.911434 
L 190.629191 112.095263 
L 196.916461 106.77828 
L 203.203731 103.522753 
L 209.491 101.951431 
L 215.77827 102.057388 
L 222.06554 104.301868 
L 228.352809 108.611477 
L 234.640079 114.906633 
L 240.927349 123.47117 
L 247.214618 133.747662 
L 253.501888 144.929025 
L 259.789158 154.924892 
L 266.076427 160.689567 
L 272.363697 159.326198 
L 278.650967 151.660007 
L 284.938237 140.471927 
" style="fill:none;stroke:#ff7f0e;stroke-linecap:square;stroke-width:1.5;"/>
    <g clip-path="url(#pd7750cd5d4)">
     <use style="fill:#ff7f0e;stroke:#ff7f0e;" x="178.054652" xlink:href="#mf66e23220b" y="128.289949"/>
     <use style="fill:#ff7f0e;stroke:#ff7f0e;" x="184.341921" xlink:href="#mf66e23220b" y="119.911434"/>
     <use style="fill:#ff7f0e;stroke:#ff7f0e;" x="190.629191" xlink:href="#mf66e23220b" y="112.095263"/>
     <use style="fill:#ff7f0e;stroke:#ff7f0e;" x="196.916461" xlink:href="#mf66e23220b" y="106.77828"/>
     <use style="fill:#ff7f0e;stroke:#ff7f0e;" x="203.203731" xlink:href="#mf66e23220b" y="103.522753"/>
     <use style="fill:#ff7f0e;stroke:#ff7f0e;" x="209.491" xlink:href="#mf66e23220b" y="101.951431"/>
     <use style="fill:#ff7f0e;stroke:#ff7f0e;" x="215.77827" xlink:href="#mf66e23220b" y="102.057388"/>
     <use style="fill:#ff7f0e;stroke:#ff7f0e;" x="222.06554" xlink:href="#mf66e23220b" y="104.301868"/>
     <use style="fill:#ff7f0e;stroke:#ff7f0e;" x="228.352809" xlink:href="#mf66e23220b" y="108.611477"/>
     <use style="fill:#ff7f0e;stroke:#ff7f0e;" x="234.640079" xlink:href="#mf66e23220b" y="114.906633"/>
     <use style="fill:#ff7f0e;stroke:#ff7f0e;" x="240.927349" xlink:href="#mf66e23220b" y="123.47117"/>
     <use style="fill:#ff7f0e;stroke:#ff7f0e;" x="247.214618" xlink:href="#mf66e23220b" y="133.747662"/>
     <use style="fill:#ff7f0e;stroke:#ff7f0e;" x="253.501888" xlink:href="#mf66e23220b" y="144.929025"/>
     <use style="fill:#ff7f0e;stroke:#ff7f0e;" x="259.789158" xlink:href="#mf66e23220b" y="154.924892"/>
     <use style="fill:#ff7f0e;stroke:#ff7f0e;" x="266.076427" xlink:href="#mf66e23220b" y="160.689567"/>
     <use style="fill:#ff7f0e;stroke:#ff7f0e;" x="272.363697" xlink:href="#mf66e23220b" y="159.326198"/>
     <use style="fill:#ff7f0e;stroke:#ff7f0e;" x="278.650967" xlink:href="#mf66e23220b" y="151.660007"/>
     <use style="fill:#ff7f0e;stroke:#ff7f0e;" x="284.938237" xlink:href="#mf66e23220b" y="140.471927"/>
    </g>
   </g>
   <g id="line2d_55">
    <path clip-path="url(#pd7750cd5d4)" d="M 178.054652 160.570533 
L 184.341921 161.23653 
L 190.629191 155.332701 
L 196.916461 145.104992 
L 203.203731 133.775522 
L 209.491 123.319859 
L 215.77827 114.563448 
L 222.06554 108.315764 
L 228.352809 104.295837 
L 234.640079 102.134586 
L 240.927349 102.099126 
L 247.214618 103.606408 
L 253.501888 106.791934 
L 259.789158 112.076336 
L 266.076427 119.964104 
L 272.363697 129.675363 
L 278.650967 141.023131 
L 284.938237 152.141544 
" style="fill:none;stroke:#2ca02c;stroke-linecap:square;stroke-width:1.5;"/>
    <g clip-path="url(#pd7750cd5d4)">
     <use style="fill:#2ca02c;stroke:#2ca02c;" x="178.054652" xlink:href="#m8e926d9bce" y="160.570533"/>
     <use style="fill:#2ca02c;stroke:#2ca02c;" x="184.341921" xlink:href="#m8e926d9bce" y="161.23653"/>
     <use style="fill:#2ca02c;stroke:#2ca02c;" x="190.629191" xlink:href="#m8e926d9bce" y="155.332701"/>
     <use style="fill:#2ca02c;stroke:#2ca02c;" x="196.916461" xlink:href="#m8e926d9bce" y="145.104992"/>
     <use style="fill:#2ca02c;stroke:#2ca02c;" x="203.203731" xlink:href="#m8e926d9bce" y="133.775522"/>
     <use style="fill:#2ca02c;stroke:#2ca02c;" x="209.491" xlink:href="#m8e926d9bce" y="123.319859"/>
     <use style="fill:#2ca02c;stroke:#2ca02c;" x="215.77827" xlink:href="#m8e926d9bce" y="114.563448"/>
     <use style="fill:#2ca02c;stroke:#2ca02c;" x="222.06554" xlink:href="#m8e926d9bce" y="108.315764"/>
     <use style="fill:#2ca02c;stroke:#2ca02c;" x="228.352809" xlink:href="#m8e926d9bce" y="104.295837"/>
     <use style="fill:#2ca02c;stroke:#2ca02c;" x="234.640079" xlink:href="#m8e926d9bce" y="102.134586"/>
     <use style="fill:#2ca02c;stroke:#2ca02c;" x="240.927349" xlink:href="#m8e926d9bce" y="102.099126"/>
     <use style="fill:#2ca02c;stroke:#2ca02c;" x="247.214618" xlink:href="#m8e926d9bce" y="103.606408"/>
     <use style="fill:#2ca02c;stroke:#2ca02c;" x="253.501888" xlink:href="#m8e926d9bce" y="106.791934"/>
     <use style="fill:#2ca02c;stroke:#2ca02c;" x="259.789158" xlink:href="#m8e926d9bce" y="112.076336"/>
     <use style="fill:#2ca02c;stroke:#2ca02c;" x="266.076427" xlink:href="#m8e926d9bce" y="119.964104"/>
     <use style="fill:#2ca02c;stroke:#2ca02c;" x="272.363697" xlink:href="#m8e926d9bce" y="129.675363"/>
     <use style="fill:#2ca02c;stroke:#2ca02c;" x="278.650967" xlink:href="#m8e926d9bce" y="141.023131"/>
     <use style="fill:#2ca02c;stroke:#2ca02c;" x="284.938237" xlink:href="#m8e926d9bce" y="152.141544"/>
    </g>
   </g>
   <g id="line2d_56">
    <path clip-path="url(#pd7750cd5d4)" d="M 178.054652 114.850926 
L 184.341921 122.143843 
L 190.629191 132.782148 
L 196.916461 144.287306 
L 203.203731 154.769837 
L 209.491 160.929172 
L 215.77827 160.282619 
L 222.06554 152.952891 
L 228.352809 141.996311 
L 234.640079 130.456205 
L 240.927349 120.832611 
L 247.214618 112.980747 
L 253.501888 107.070746 
L 259.789158 103.449715 
L 266.076427 101.726034 
L 272.363697 101.880198 
L 278.650967 103.986123 
L 284.938237 108.153801 
" style="fill:none;stroke:#d62728;stroke-linecap:square;stroke-width:1.5;"/>
    <g clip-path="url(#pd7750cd5d4)">
     <use style="fill:#d62728;stroke:#d62728;" x="178.054652" xlink:href="#m3e2e81d218" y="114.850926"/>
     <use style="fill:#d62728;stroke:#d62728;" x="184.341921" xlink:href="#m3e2e81d218" y="122.143843"/>
     <use style="fill:#d62728;stroke:#d62728;" x="190.629191" xlink:href="#m3e2e81d218" y="132.782148"/>
     <use style="fill:#d62728;stroke:#d62728;" x="196.916461" xlink:href="#m3e2e81d218" y="144.287306"/>
     <use style="fill:#d62728;stroke:#d62728;" x="203.203731" xlink:href="#m3e2e81d218" y="154.769837"/>
     <use style="fill:#d62728;stroke:#d62728;" x="209.491" xlink:href="#m3e2e81d218" y="160.929172"/>
     <use style="fill:#d62728;stroke:#d62728;" x="215.77827" xlink:href="#m3e2e81d218" y="160.282619"/>
     <use style="fill:#d62728;stroke:#d62728;" x="222.06554" xlink:href="#m3e2e81d218" y="152.952891"/>
     <use style="fill:#d62728;stroke:#d62728;" x="228.352809" xlink:href="#m3e2e81d218" y="141.996311"/>
     <use style="fill:#d62728;stroke:#d62728;" x="234.640079" xlink:href="#m3e2e81d218" y="130.456205"/>
     <use style="fill:#d62728;stroke:#d62728;" x="240.927349" xlink:href="#m3e2e81d218" y="120.832611"/>
     <use style="fill:#d62728;stroke:#d62728;" x="247.214618" xlink:href="#m3e2e81d218" y="112.980747"/>
     <use style="fill:#d62728;stroke:#d62728;" x="253.501888" xlink:href="#m3e2e81d218" y="107.070746"/>
     <use style="fill:#d62728;stroke:#d62728;" x="259.789158" xlink:href="#m3e2e81d218" y="103.449715"/>
     <use style="fill:#d62728;stroke:#d62728;" x="266.076427" xlink:href="#m3e2e81d218" y="101.726034"/>
     <use style="fill:#d62728;stroke:#d62728;" x="272.363697" xlink:href="#m3e2e81d218" y="101.880198"/>
     <use style="fill:#d62728;stroke:#d62728;" x="278.650967" xlink:href="#m3e2e81d218" y="103.986123"/>
     <use style="fill:#d62728;stroke:#d62728;" x="284.938237" xlink:href="#m3e2e81d218" y="108.153801"/>
    </g>
   </g>
   <g id="patch_19">
    <path d="M 172.396109 164.773536 
L 172.396109 98.363235 
" style="fill:none;stroke:#000000;stroke-linecap:square;stroke-linejoin:miter;stroke-width:0.8;"/>
   </g>
   <g id="patch_20">
    <path d="M 296.884049 164.773536 
L 296.884049 98.363235 
" style="fill:none;stroke:#000000;stroke-linecap:square;stroke-linejoin:miter;stroke-width:0.8;"/>
   </g>
   <g id="patch_21">
    <path d="M 172.396109 164.773536 
L 296.884049 164.773536 
" style="fill:none;stroke:#000000;stroke-linecap:square;stroke-linejoin:miter;stroke-width:0.8;"/>
   </g>
   <g id="patch_22">
    <path d="M 172.396109 98.363235 
L 296.884049 98.363235 
" style="fill:none;stroke:#000000;stroke-linecap:square;stroke-linejoin:miter;stroke-width:0.8;"/>
   </g>
   <g id="legend_2">
    <g id="patch_23">
     <path d="M 259.031549 147.19761 
L 292.684049 147.19761 
Q 293.884049 147.19761 293.884049 145.99761 
L 293.884049 102.563235 
Q 293.884049 101.363235 292.684049 101.363235 
L 259.031549 101.363235 
Q 257.831549 101.363235 257.831549 102.563235 
L 257.831549 145.99761 
Q 257.831549 147.19761 259.031549 147.19761 
z
" style="fill:#ffffff;opacity:0.8;stroke:#cccccc;stroke-linejoin:miter;"/>
    </g>
    <g id="text_29">
     <!-- P2 angle -->
     <g transform="translate(262.863111 108.322298)scale(0.06 -0.06)">
      <use xlink:href="#DejaVuSans-80"/>
      <use x="60.302734" xlink:href="#DejaVuSans-50"/>
      <use x="123.925781" xlink:href="#DejaVuSans-32"/>
      <use x="155.712891" xlink:href="#DejaVuSans-97"/>
      <use x="216.992188" xlink:href="#DejaVuSans-110"/>
      <use x="280.371094" xlink:href="#DejaVuSans-103"/>
      <use x="343.847656" xlink:href="#DejaVuSans-108"/>
      <use x="371.630859" xlink:href="#DejaVuSans-101"/>
     </g>
    </g>
    <g id="line2d_57">
     <path d="M 260.231549 115.029173 
L 272.231549 115.029173 
" style="fill:none;stroke:#1f77b4;stroke-linecap:square;stroke-width:1.5;"/>
    </g>
    <g id="line2d_58">
     <g>
      <use style="fill:#1f77b4;stroke:#1f77b4;" x="266.231549" xlink:href="#m1b5637cd4b" y="115.029173"/>
     </g>
    </g>
    <g id="text_30">
     <!-- 0 -->
     <g transform="translate(277.031549 117.129173)scale(0.06 -0.06)">
      <defs>
       <path d="M 25 67.921875 
Q 21.09375 67.921875 18.40625 65.203125 
Q 15.71875 62.5 15.71875 58.59375 
Q 15.71875 54.734375 18.40625 52.078125 
Q 21.09375 49.421875 25 49.421875 
Q 28.90625 49.421875 31.59375 52.078125 
Q 34.28125 54.734375 34.28125 58.59375 
Q 34.28125 62.453125 31.5625 65.1875 
Q 28.859375 67.921875 25 67.921875 
z
M 25 74.21875 
Q 28.125 74.21875 31 73.015625 
Q 33.890625 71.828125 35.984375 69.578125 
Q 38.234375 67.390625 39.359375 64.59375 
Q 40.484375 61.8125 40.484375 58.59375 
Q 40.484375 52.15625 35.96875 47.6875 
Q 31.453125 43.21875 24.90625 43.21875 
Q 18.3125 43.21875 13.90625 47.609375 
Q 9.515625 52 9.515625 58.59375 
Q 9.515625 65.140625 14 69.671875 
Q 18.5 74.21875 25 74.21875 
z
" id="DejaVuSans-176"/>
      </defs>
      <use xlink:href="#DejaVuSans-48"/>
      <use x="63.623047" xlink:href="#DejaVuSans-176"/>
     </g>
    </g>
    <g id="line2d_59">
     <path d="M 260.231549 123.836048 
L 272.231549 123.836048 
" style="fill:none;stroke:#ff7f0e;stroke-linecap:square;stroke-width:1.5;"/>
    </g>
    <g id="line2d_60">
     <g>
      <use style="fill:#ff7f0e;stroke:#ff7f0e;" x="266.231549" xlink:href="#mf66e23220b" y="123.836048"/>
     </g>
    </g>
    <g id="text_31">
     <!-- 45 -->
     <g transform="translate(277.031549 125.936048)scale(0.06 -0.06)">
      <use xlink:href="#DejaVuSans-52"/>
      <use x="63.623047" xlink:href="#DejaVuSans-53"/>
      <use x="127.246094" xlink:href="#DejaVuSans-176"/>
     </g>
    </g>
    <g id="line2d_61">
     <path d="M 260.231549 132.642923 
L 272.231549 132.642923 
" style="fill:none;stroke:#2ca02c;stroke-linecap:square;stroke-width:1.5;"/>
    </g>
    <g id="line2d_62">
     <g>
      <use style="fill:#2ca02c;stroke:#2ca02c;" x="266.231549" xlink:href="#m8e926d9bce" y="132.642923"/>
     </g>
    </g>
    <g id="text_32">
     <!-- 90 -->
     <g transform="translate(277.031549 134.742923)scale(0.06 -0.06)">
      <use xlink:href="#DejaVuSans-57"/>
      <use x="63.623047" xlink:href="#DejaVuSans-48"/>
      <use x="127.246094" xlink:href="#DejaVuSans-176"/>
     </g>
    </g>
    <g id="line2d_63">
     <path d="M 260.231549 141.449798 
L 272.231549 141.449798 
" style="fill:none;stroke:#d62728;stroke-linecap:square;stroke-width:1.5;"/>
    </g>
    <g id="line2d_64">
     <g>
      <use style="fill:#d62728;stroke:#d62728;" x="266.231549" xlink:href="#m3e2e81d218" y="141.449798"/>
     </g>
    </g>
    <g id="text_33">
     <!-- 135 -->
     <g transform="translate(277.031549 143.549798)scale(0.06 -0.06)">
      <use xlink:href="#DejaVuSans-49"/>
      <use x="63.623047" xlink:href="#DejaVuSans-51"/>
      <use x="127.246094" xlink:href="#DejaVuSans-53"/>
      <use x="190.869141" xlink:href="#DejaVuSans-176"/>
     </g>
    </g>
   </g>
  </g>
 </g>
 <defs>
  <clipPath id="pd644514eb8">
   <rect height="66.4103" width="124.48794" x="35.459375" y="18.670875"/>
  </clipPath>
  <clipPath id="p1fb242ec84">
   <rect height="66.4103" width="124.48794" x="172.396109" y="18.670875"/>
  </clipPath>
  <clipPath id="p53c57823d9">
   <rect height="66.4103" width="124.48794" x="35.459375" y="98.363235"/>
  </clipPath>
  <clipPath id="pd7750cd5d4">
   <rect height="66.4103" width="124.48794" x="172.396109" y="98.363235"/>
  </clipPath>
 </defs>
</svg>
