<?xml version="1.0" encoding="utf-8" standalone="no"?>
<!DOCTYPE svg PUBLIC "-//W3C//DTD SVG 1.1//EN"
  "http://www.w3.org/Graphics/SVG/1.1/DTD/svg11.dtd">
<!-- Created with matplotlib (https://matplotlib.org/) -->
<svg height="244.925177pt" version="1.1" viewBox="0 0 394.154735 244.925177" width="394.154735pt" xmlns="http://www.w3.org/2000/svg" xmlns:xlink="http://www.w3.org/1999/xlink">
 <metadata>
  <rdf:RDF xmlns:cc="http://creativecommons.org/ns#" xmlns:dc="http://purl.org/dc/elements/1.1/" xmlns:rdf="http://www.w3.org/1999/02/22-rdf-syntax-ns#">
   <cc:Work>
    <dc:type rdf:resource="http://purl.org/dc/dcmitype/StillImage"/>
    <dc:date>2021-04-15T23:07:58.418874</dc:date>
    <dc:format>image/svg+xml</dc:format>
    <dc:creator>
     <cc:Agent>
      <dc:title>Matplotlib v3.3.4, https://matplotlib.org/</dc:title>
     </cc:Agent>
    </dc:creator>
   </cc:Work>
  </rdf:RDF>
 </metadata>
 <defs>
  <style type="text/css">*{stroke-linecap:butt;stroke-linejoin:round;}</style>
 </defs>
 <g id="figure_1">
  <g id="patch_1">
   <path d="M 0 244.925177 
L 394.154735 244.925177 
L 394.154735 0 
L 0 0 
z
" style="fill:#ffffff;"/>
  </g>
  <g id="axes_1">
   <g id="patch_2">
    <path d="M 35.459375 107.962035 
L 202.838118 107.962035 
L 202.838118 18.670875 
L 35.459375 18.670875 
z
" style="fill:#ffffff;"/>
   </g>
   <g id="matplotlib.axis_1">
    <g id="xtick_1">
     <g id="line2d_1">
      <defs>
       <path d="M 0 0 
L 0 3.5 
" id="mbee541ac71" style="stroke:#000000;stroke-width:0.8;"/>
      </defs>
      <g>
       <use style="stroke:#000000;stroke-width:0.8;" x="43.0675" xlink:href="#mbee541ac71" y="107.962035"/>
      </g>
     </g>
    </g>
    <g id="xtick_2">
     <g id="line2d_2">
      <g>
       <use style="stroke:#000000;stroke-width:0.8;" x="81.108123" xlink:href="#mbee541ac71" y="107.962035"/>
      </g>
     </g>
    </g>
    <g id="xtick_3">
     <g id="line2d_3">
      <g>
       <use style="stroke:#000000;stroke-width:0.8;" x="119.148746" xlink:href="#mbee541ac71" y="107.962035"/>
      </g>
     </g>
    </g>
    <g id="xtick_4">
     <g id="line2d_4">
      <g>
       <use style="stroke:#000000;stroke-width:0.8;" x="157.18937" xlink:href="#mbee541ac71" y="107.962035"/>
      </g>
     </g>
    </g>
    <g id="xtick_5">
     <g id="line2d_5">
      <g>
       <use style="stroke:#000000;stroke-width:0.8;" x="195.229993" xlink:href="#mbee541ac71" y="107.962035"/>
      </g>
     </g>
    </g>
   </g>
   <g id="matplotlib.axis_2">
    <g id="ytick_1">
     <g id="line2d_6">
      <defs>
       <path d="M 0 0 
L -3.5 0 
" id="mb1b49db32e" style="stroke:#000000;stroke-width:0.8;"/>
      </defs>
      <g>
       <use style="stroke:#000000;stroke-width:0.8;" x="35.459375" xlink:href="#mb1b49db32e" y="101.22308"/>
      </g>
     </g>
     <g id="text_1">
      <!-- 0 -->
      <g transform="translate(24.641875 103.502611)scale(0.06 -0.06)">
       <defs>
        <path d="M 31.78125 66.40625 
Q 24.171875 66.40625 20.328125 58.90625 
Q 16.5 51.421875 16.5 36.375 
Q 16.5 21.390625 20.328125 13.890625 
Q 24.171875 6.390625 31.78125 6.390625 
Q 39.453125 6.390625 43.28125 13.890625 
Q 47.125 21.390625 47.125 36.375 
Q 47.125 51.421875 43.28125 58.90625 
Q 39.453125 66.40625 31.78125 66.40625 
z
M 31.78125 74.21875 
Q 44.046875 74.21875 50.515625 64.515625 
Q 56.984375 54.828125 56.984375 36.375 
Q 56.984375 17.96875 50.515625 8.265625 
Q 44.046875 -1.421875 31.78125 -1.421875 
Q 19.53125 -1.421875 13.0625 8.265625 
Q 6.59375 17.96875 6.59375 36.375 
Q 6.59375 54.828125 13.0625 64.515625 
Q 19.53125 74.21875 31.78125 74.21875 
z
" id="DejaVuSans-48"/>
       </defs>
       <use xlink:href="#DejaVuSans-48"/>
      </g>
     </g>
    </g>
    <g id="ytick_2">
     <g id="line2d_7">
      <g>
       <use style="stroke:#000000;stroke-width:0.8;" x="35.459375" xlink:href="#mb1b49db32e" y="86.06043"/>
      </g>
     </g>
     <g id="text_2">
      <!-- 45 -->
      <g transform="translate(20.824375 88.339961)scale(0.06 -0.06)">
       <defs>
        <path d="M 37.796875 64.3125 
L 12.890625 25.390625 
L 37.796875 25.390625 
z
M 35.203125 72.90625 
L 47.609375 72.90625 
L 47.609375 25.390625 
L 58.015625 25.390625 
L 58.015625 17.1875 
L 47.609375 17.1875 
L 47.609375 0 
L 37.796875 0 
L 37.796875 17.1875 
L 4.890625 17.1875 
L 4.890625 26.703125 
z
" id="DejaVuSans-52"/>
        <path d="M 10.796875 72.90625 
L 49.515625 72.90625 
L 49.515625 64.59375 
L 19.828125 64.59375 
L 19.828125 46.734375 
Q 21.96875 47.46875 24.109375 47.828125 
Q 26.265625 48.1875 28.421875 48.1875 
Q 40.625 48.1875 47.75 41.5 
Q 54.890625 34.8125 54.890625 23.390625 
Q 54.890625 11.625 47.5625 5.09375 
Q 40.234375 -1.421875 26.90625 -1.421875 
Q 22.3125 -1.421875 17.546875 -0.640625 
Q 12.796875 0.140625 7.71875 1.703125 
L 7.71875 11.625 
Q 12.109375 9.234375 16.796875 8.0625 
Q 21.484375 6.890625 26.703125 6.890625 
Q 35.15625 6.890625 40.078125 11.328125 
Q 45.015625 15.765625 45.015625 23.390625 
Q 45.015625 31 40.078125 35.4375 
Q 35.15625 39.890625 26.703125 39.890625 
Q 22.75 39.890625 18.8125 39.015625 
Q 14.890625 38.140625 10.796875 36.28125 
z
" id="DejaVuSans-53"/>
       </defs>
       <use xlink:href="#DejaVuSans-52"/>
       <use x="63.623047" xlink:href="#DejaVuSans-53"/>
      </g>
     </g>
    </g>
    <g id="ytick_3">
     <g id="line2d_8">
      <g>
       <use style="stroke:#000000;stroke-width:0.8;" x="35.459375" xlink:href="#mb1b49db32e" y="70.89778"/>
      </g>
     </g>
     <g id="text_3">
      <!-- 90 -->
      <g transform="translate(20.824375 73.177311)scale(0.06 -0.06)">
       <defs>
        <path d="M 10.984375 1.515625 
L 10.984375 10.5 
Q 14.703125 8.734375 18.5 7.8125 
Q 22.3125 6.890625 25.984375 6.890625 
Q 35.75 6.890625 40.890625 13.453125 
Q 46.046875 20.015625 46.78125 33.40625 
Q 43.953125 29.203125 39.59375 26.953125 
Q 35.25 24.703125 29.984375 24.703125 
Q 19.046875 24.703125 12.671875 31.3125 
Q 6.296875 37.9375 6.296875 49.421875 
Q 6.296875 60.640625 12.9375 67.421875 
Q 19.578125 74.21875 30.609375 74.21875 
Q 43.265625 74.21875 49.921875 64.515625 
Q 56.59375 54.828125 56.59375 36.375 
Q 56.59375 19.140625 48.40625 8.859375 
Q 40.234375 -1.421875 26.421875 -1.421875 
Q 22.703125 -1.421875 18.890625 -0.6875 
Q 15.09375 0.046875 10.984375 1.515625 
z
M 30.609375 32.421875 
Q 37.25 32.421875 41.125 36.953125 
Q 45.015625 41.5 45.015625 49.421875 
Q 45.015625 57.28125 41.125 61.84375 
Q 37.25 66.40625 30.609375 66.40625 
Q 23.96875 66.40625 20.09375 61.84375 
Q 16.21875 57.28125 16.21875 49.421875 
Q 16.21875 41.5 20.09375 36.953125 
Q 23.96875 32.421875 30.609375 32.421875 
z
" id="DejaVuSans-57"/>
       </defs>
       <use xlink:href="#DejaVuSans-57"/>
       <use x="63.623047" xlink:href="#DejaVuSans-48"/>
      </g>
     </g>
    </g>
    <g id="ytick_4">
     <g id="line2d_9">
      <g>
       <use style="stroke:#000000;stroke-width:0.8;" x="35.459375" xlink:href="#mb1b49db32e" y="55.73513"/>
      </g>
     </g>
     <g id="text_4">
      <!-- 135 -->
      <g transform="translate(17.006875 58.014661)scale(0.06 -0.06)">
       <defs>
        <path d="M 12.40625 8.296875 
L 28.515625 8.296875 
L 28.515625 63.921875 
L 10.984375 60.40625 
L 10.984375 69.390625 
L 28.421875 72.90625 
L 38.28125 72.90625 
L 38.28125 8.296875 
L 54.390625 8.296875 
L 54.390625 0 
L 12.40625 0 
z
" id="DejaVuSans-49"/>
        <path d="M 40.578125 39.3125 
Q 47.65625 37.796875 51.625 33 
Q 55.609375 28.21875 55.609375 21.1875 
Q 55.609375 10.40625 48.1875 4.484375 
Q 40.765625 -1.421875 27.09375 -1.421875 
Q 22.515625 -1.421875 17.65625 -0.515625 
Q 12.796875 0.390625 7.625 2.203125 
L 7.625 11.71875 
Q 11.71875 9.328125 16.59375 8.109375 
Q 21.484375 6.890625 26.8125 6.890625 
Q 36.078125 6.890625 40.9375 10.546875 
Q 45.796875 14.203125 45.796875 21.1875 
Q 45.796875 27.640625 41.28125 31.265625 
Q 36.765625 34.90625 28.71875 34.90625 
L 20.21875 34.90625 
L 20.21875 43.015625 
L 29.109375 43.015625 
Q 36.375 43.015625 40.234375 45.921875 
Q 44.09375 48.828125 44.09375 54.296875 
Q 44.09375 59.90625 40.109375 62.90625 
Q 36.140625 65.921875 28.71875 65.921875 
Q 24.65625 65.921875 20.015625 65.03125 
Q 15.375 64.15625 9.8125 62.3125 
L 9.8125 71.09375 
Q 15.4375 72.65625 20.34375 73.4375 
Q 25.25 74.21875 29.59375 74.21875 
Q 40.828125 74.21875 47.359375 69.109375 
Q 53.90625 64.015625 53.90625 55.328125 
Q 53.90625 49.265625 50.4375 45.09375 
Q 46.96875 40.921875 40.578125 39.3125 
z
" id="DejaVuSans-51"/>
       </defs>
       <use xlink:href="#DejaVuSans-49"/>
       <use x="63.623047" xlink:href="#DejaVuSans-51"/>
       <use x="127.246094" xlink:href="#DejaVuSans-53"/>
      </g>
     </g>
    </g>
    <g id="ytick_5">
     <g id="line2d_10">
      <g>
       <use style="stroke:#000000;stroke-width:0.8;" x="35.459375" xlink:href="#mb1b49db32e" y="40.57248"/>
      </g>
     </g>
     <g id="text_5">
      <!-- 180 -->
      <g transform="translate(17.006875 42.852012)scale(0.06 -0.06)">
       <defs>
        <path d="M 31.78125 34.625 
Q 24.75 34.625 20.71875 30.859375 
Q 16.703125 27.09375 16.703125 20.515625 
Q 16.703125 13.921875 20.71875 10.15625 
Q 24.75 6.390625 31.78125 6.390625 
Q 38.8125 6.390625 42.859375 10.171875 
Q 46.921875 13.96875 46.921875 20.515625 
Q 46.921875 27.09375 42.890625 30.859375 
Q 38.875 34.625 31.78125 34.625 
z
M 21.921875 38.8125 
Q 15.578125 40.375 12.03125 44.71875 
Q 8.5 49.078125 8.5 55.328125 
Q 8.5 64.0625 14.71875 69.140625 
Q 20.953125 74.21875 31.78125 74.21875 
Q 42.671875 74.21875 48.875 69.140625 
Q 55.078125 64.0625 55.078125 55.328125 
Q 55.078125 49.078125 51.53125 44.71875 
Q 48 40.375 41.703125 38.8125 
Q 48.828125 37.15625 52.796875 32.3125 
Q 56.78125 27.484375 56.78125 20.515625 
Q 56.78125 9.90625 50.3125 4.234375 
Q 43.84375 -1.421875 31.78125 -1.421875 
Q 19.734375 -1.421875 13.25 4.234375 
Q 6.78125 9.90625 6.78125 20.515625 
Q 6.78125 27.484375 10.78125 32.3125 
Q 14.796875 37.15625 21.921875 38.8125 
z
M 18.3125 54.390625 
Q 18.3125 48.734375 21.84375 45.5625 
Q 25.390625 42.390625 31.78125 42.390625 
Q 38.140625 42.390625 41.71875 45.5625 
Q 45.3125 48.734375 45.3125 54.390625 
Q 45.3125 60.0625 41.71875 63.234375 
Q 38.140625 66.40625 31.78125 66.40625 
Q 25.390625 66.40625 21.84375 63.234375 
Q 18.3125 60.0625 18.3125 54.390625 
z
" id="DejaVuSans-56"/>
       </defs>
       <use xlink:href="#DejaVuSans-49"/>
       <use x="63.623047" xlink:href="#DejaVuSans-56"/>
       <use x="127.246094" xlink:href="#DejaVuSans-48"/>
      </g>
     </g>
    </g>
    <g id="ytick_6">
     <g id="line2d_11">
      <g>
       <use style="stroke:#000000;stroke-width:0.8;" x="35.459375" xlink:href="#mb1b49db32e" y="25.40983"/>
      </g>
     </g>
     <g id="text_6">
      <!-- 225 -->
      <g transform="translate(17.006875 27.689362)scale(0.06 -0.06)">
       <defs>
        <path d="M 19.1875 8.296875 
L 53.609375 8.296875 
L 53.609375 0 
L 7.328125 0 
L 7.328125 8.296875 
Q 12.9375 14.109375 22.625 23.890625 
Q 32.328125 33.6875 34.8125 36.53125 
Q 39.546875 41.84375 41.421875 45.53125 
Q 43.3125 49.21875 43.3125 52.78125 
Q 43.3125 58.59375 39.234375 62.25 
Q 35.15625 65.921875 28.609375 65.921875 
Q 23.96875 65.921875 18.8125 64.3125 
Q 13.671875 62.703125 7.8125 59.421875 
L 7.8125 69.390625 
Q 13.765625 71.78125 18.9375 73 
Q 24.125 74.21875 28.421875 74.21875 
Q 39.75 74.21875 46.484375 68.546875 
Q 53.21875 62.890625 53.21875 53.421875 
Q 53.21875 48.921875 51.53125 44.890625 
Q 49.859375 40.875 45.40625 35.40625 
Q 44.1875 33.984375 37.640625 27.21875 
Q 31.109375 20.453125 19.1875 8.296875 
z
" id="DejaVuSans-50"/>
       </defs>
       <use xlink:href="#DejaVuSans-50"/>
       <use x="63.623047" xlink:href="#DejaVuSans-50"/>
       <use x="127.246094" xlink:href="#DejaVuSans-53"/>
      </g>
     </g>
    </g>
    <g id="text_7">
     <!-- Waveplate angle -->
     <g transform="translate(11.759063 88.426924)rotate(-90)scale(0.06 -0.06)">
      <defs>
       <path d="M 3.328125 72.90625 
L 13.28125 72.90625 
L 28.609375 11.28125 
L 43.890625 72.90625 
L 54.984375 72.90625 
L 70.3125 11.28125 
L 85.59375 72.90625 
L 95.609375 72.90625 
L 77.296875 0 
L 64.890625 0 
L 49.515625 63.28125 
L 33.984375 0 
L 21.578125 0 
z
" id="DejaVuSans-87"/>
       <path d="M 34.28125 27.484375 
Q 23.390625 27.484375 19.1875 25 
Q 14.984375 22.515625 14.984375 16.5 
Q 14.984375 11.71875 18.140625 8.90625 
Q 21.296875 6.109375 26.703125 6.109375 
Q 34.1875 6.109375 38.703125 11.40625 
Q 43.21875 16.703125 43.21875 25.484375 
L 43.21875 27.484375 
z
M 52.203125 31.203125 
L 52.203125 0 
L 43.21875 0 
L 43.21875 8.296875 
Q 40.140625 3.328125 35.546875 0.953125 
Q 30.953125 -1.421875 24.3125 -1.421875 
Q 15.921875 -1.421875 10.953125 3.296875 
Q 6 8.015625 6 15.921875 
Q 6 25.140625 12.171875 29.828125 
Q 18.359375 34.515625 30.609375 34.515625 
L 43.21875 34.515625 
L 43.21875 35.40625 
Q 43.21875 41.609375 39.140625 45 
Q 35.0625 48.390625 27.6875 48.390625 
Q 23 48.390625 18.546875 47.265625 
Q 14.109375 46.140625 10.015625 43.890625 
L 10.015625 52.203125 
Q 14.9375 54.109375 19.578125 55.046875 
Q 24.21875 56 28.609375 56 
Q 40.484375 56 46.34375 49.84375 
Q 52.203125 43.703125 52.203125 31.203125 
z
" id="DejaVuSans-97"/>
       <path d="M 2.984375 54.6875 
L 12.5 54.6875 
L 29.59375 8.796875 
L 46.6875 54.6875 
L 56.203125 54.6875 
L 35.6875 0 
L 23.484375 0 
z
" id="DejaVuSans-118"/>
       <path d="M 56.203125 29.59375 
L 56.203125 25.203125 
L 14.890625 25.203125 
Q 15.484375 15.921875 20.484375 11.0625 
Q 25.484375 6.203125 34.421875 6.203125 
Q 39.59375 6.203125 44.453125 7.46875 
Q 49.3125 8.734375 54.109375 11.28125 
L 54.109375 2.78125 
Q 49.265625 0.734375 44.1875 -0.34375 
Q 39.109375 -1.421875 33.890625 -1.421875 
Q 20.796875 -1.421875 13.15625 6.1875 
Q 5.515625 13.8125 5.515625 26.8125 
Q 5.515625 40.234375 12.765625 48.109375 
Q 20.015625 56 32.328125 56 
Q 43.359375 56 49.78125 48.890625 
Q 56.203125 41.796875 56.203125 29.59375 
z
M 47.21875 32.234375 
Q 47.125 39.59375 43.09375 43.984375 
Q 39.0625 48.390625 32.421875 48.390625 
Q 24.90625 48.390625 20.390625 44.140625 
Q 15.875 39.890625 15.1875 32.171875 
z
" id="DejaVuSans-101"/>
       <path d="M 18.109375 8.203125 
L 18.109375 -20.796875 
L 9.078125 -20.796875 
L 9.078125 54.6875 
L 18.109375 54.6875 
L 18.109375 46.390625 
Q 20.953125 51.265625 25.265625 53.625 
Q 29.59375 56 35.59375 56 
Q 45.5625 56 51.78125 48.09375 
Q 58.015625 40.1875 58.015625 27.296875 
Q 58.015625 14.40625 51.78125 6.484375 
Q 45.5625 -1.421875 35.59375 -1.421875 
Q 29.59375 -1.421875 25.265625 0.953125 
Q 20.953125 3.328125 18.109375 8.203125 
z
M 48.6875 27.296875 
Q 48.6875 37.203125 44.609375 42.84375 
Q 40.53125 48.484375 33.40625 48.484375 
Q 26.265625 48.484375 22.1875 42.84375 
Q 18.109375 37.203125 18.109375 27.296875 
Q 18.109375 17.390625 22.1875 11.75 
Q 26.265625 6.109375 33.40625 6.109375 
Q 40.53125 6.109375 44.609375 11.75 
Q 48.6875 17.390625 48.6875 27.296875 
z
" id="DejaVuSans-112"/>
       <path d="M 9.421875 75.984375 
L 18.40625 75.984375 
L 18.40625 0 
L 9.421875 0 
z
" id="DejaVuSans-108"/>
       <path d="M 18.3125 70.21875 
L 18.3125 54.6875 
L 36.8125 54.6875 
L 36.8125 47.703125 
L 18.3125 47.703125 
L 18.3125 18.015625 
Q 18.3125 11.328125 20.140625 9.421875 
Q 21.96875 7.515625 27.59375 7.515625 
L 36.8125 7.515625 
L 36.8125 0 
L 27.59375 0 
Q 17.1875 0 13.234375 3.875 
Q 9.28125 7.765625 9.28125 18.015625 
L 9.28125 47.703125 
L 2.6875 47.703125 
L 2.6875 54.6875 
L 9.28125 54.6875 
L 9.28125 70.21875 
z
" id="DejaVuSans-116"/>
       <path id="DejaVuSans-32"/>
       <path d="M 54.890625 33.015625 
L 54.890625 0 
L 45.90625 0 
L 45.90625 32.71875 
Q 45.90625 40.484375 42.875 44.328125 
Q 39.84375 48.1875 33.796875 48.1875 
Q 26.515625 48.1875 22.3125 43.546875 
Q 18.109375 38.921875 18.109375 30.90625 
L 18.109375 0 
L 9.078125 0 
L 9.078125 54.6875 
L 18.109375 54.6875 
L 18.109375 46.1875 
Q 21.34375 51.125 25.703125 53.5625 
Q 30.078125 56 35.796875 56 
Q 45.21875 56 50.046875 50.171875 
Q 54.890625 44.34375 54.890625 33.015625 
z
" id="DejaVuSans-110"/>
       <path d="M 45.40625 27.984375 
Q 45.40625 37.75 41.375 43.109375 
Q 37.359375 48.484375 30.078125 48.484375 
Q 22.859375 48.484375 18.828125 43.109375 
Q 14.796875 37.75 14.796875 27.984375 
Q 14.796875 18.265625 18.828125 12.890625 
Q 22.859375 7.515625 30.078125 7.515625 
Q 37.359375 7.515625 41.375 12.890625 
Q 45.40625 18.265625 45.40625 27.984375 
z
M 54.390625 6.78125 
Q 54.390625 -7.171875 48.1875 -13.984375 
Q 42 -20.796875 29.203125 -20.796875 
Q 24.46875 -20.796875 20.265625 -20.09375 
Q 16.0625 -19.390625 12.109375 -17.921875 
L 12.109375 -9.1875 
Q 16.0625 -11.328125 19.921875 -12.34375 
Q 23.78125 -13.375 27.78125 -13.375 
Q 36.625 -13.375 41.015625 -8.765625 
Q 45.40625 -4.15625 45.40625 5.171875 
L 45.40625 9.625 
Q 42.625 4.78125 38.28125 2.390625 
Q 33.9375 0 27.875 0 
Q 17.828125 0 11.671875 7.65625 
Q 5.515625 15.328125 5.515625 27.984375 
Q 5.515625 40.671875 11.671875 48.328125 
Q 17.828125 56 27.875 56 
Q 33.9375 56 38.28125 53.609375 
Q 42.625 51.21875 45.40625 46.390625 
L 45.40625 54.6875 
L 54.390625 54.6875 
z
" id="DejaVuSans-103"/>
      </defs>
      <use xlink:href="#DejaVuSans-87"/>
      <use x="92.501953" xlink:href="#DejaVuSans-97"/>
      <use x="153.78125" xlink:href="#DejaVuSans-118"/>
      <use x="212.960938" xlink:href="#DejaVuSans-101"/>
      <use x="274.484375" xlink:href="#DejaVuSans-112"/>
      <use x="337.960938" xlink:href="#DejaVuSans-108"/>
      <use x="365.744141" xlink:href="#DejaVuSans-97"/>
      <use x="427.023438" xlink:href="#DejaVuSans-116"/>
      <use x="466.232422" xlink:href="#DejaVuSans-101"/>
      <use x="527.755859" xlink:href="#DejaVuSans-32"/>
      <use x="559.542969" xlink:href="#DejaVuSans-97"/>
      <use x="620.822266" xlink:href="#DejaVuSans-110"/>
      <use x="684.201172" xlink:href="#DejaVuSans-103"/>
      <use x="747.677734" xlink:href="#DejaVuSans-108"/>
      <use x="775.460938" xlink:href="#DejaVuSans-101"/>
     </g>
    </g>
   </g>
   <g id="line2d_12">
    <path clip-path="url(#p6b5b995f4b)" d="M 43.0675 98.864445 
L 47.294236 99.538341 
L 51.520972 99.875288 
L 55.747707 99.875288 
L 59.974443 100.549184 
L 64.201179 100.886132 
L 68.427915 101.560027 
L 72.654651 101.560027 
L 76.881387 102.570871 
L 81.108123 102.570871 
L 85.334859 102.739345 
L 89.561595 102.907818 
L 93.788331 102.907818 
L 98.015067 103.244766 
L 102.241803 103.244766 
L 106.468539 102.907818 
L 110.695275 102.570871 
L 114.92201 101.896975 
L 119.148746 101.22308 
L 123.375482 100.549184 
L 127.602218 99.875288 
L 131.828954 99.201393 
L 136.05569 98.527497 
L 140.282426 97.853602 
L 144.509162 97.179706 
L 148.735898 96.842758 
L 152.962634 96.505811 
L 157.18937 96.168863 
L 161.416106 96.168863 
L 165.642842 96.168863 
L 169.869578 96.842758 
L 174.096314 96.842758 
L 178.323049 97.179706 
L 182.549785 97.853602 
L 186.776521 98.19055 
L 191.003257 98.527497 
" style="fill:none;stroke:#1f77b4;stroke-linecap:square;stroke-width:1.5;"/>
   </g>
   <g id="line2d_13">
    <path clip-path="url(#p6b5b995f4b)" d="M 43.0675 87.745169 
L 47.294236 85.386534 
L 51.520972 84.038743 
L 55.747707 82.354004 
L 59.974443 80.332318 
L 64.201179 78.647579 
L 68.427915 76.288944 
L 72.654651 74.604205 
L 76.881387 72.245571 
L 81.108123 70.560832 
L 85.334859 68.539145 
L 89.561595 66.854407 
L 93.788331 64.83272 
L 98.015067 62.811033 
L 102.241803 61.126294 
L 106.468539 59.104608 
L 110.695275 57.419869 
L 114.92201 56.409026 
L 119.148746 55.398182 
L 123.375482 54.050391 
L 127.602218 53.039548 
L 131.828954 52.028705 
L 136.05569 50.680913 
L 140.282426 49.67007 
L 144.509162 48.659227 
L 148.735898 47.311436 
L 152.962634 45.963645 
L 157.18937 44.278906 
L 161.416106 42.594167 
L 165.642842 40.57248 
L 169.869578 38.550794 
L 174.096314 36.529107 
L 178.323049 34.50742 
L 182.549785 32.485734 
L 186.776521 30.464047 
L 191.003257 28.44236 
" style="fill:none;stroke:#ff7f0e;stroke-linecap:square;stroke-width:1.5;"/>
   </g>
   <g id="patch_3">
    <path d="M 35.459375 107.962035 
L 35.459375 18.670875 
" style="fill:none;stroke:#000000;stroke-linecap:square;stroke-linejoin:miter;stroke-width:0.8;"/>
   </g>
   <g id="patch_4">
    <path d="M 202.838118 107.962035 
L 202.838118 18.670875 
" style="fill:none;stroke:#000000;stroke-linecap:square;stroke-linejoin:miter;stroke-width:0.8;"/>
   </g>
   <g id="patch_5">
    <path d="M 35.459375 107.962035 
L 202.838118 107.962035 
" style="fill:none;stroke:#000000;stroke-linecap:square;stroke-linejoin:miter;stroke-width:0.8;"/>
   </g>
   <g id="patch_6">
    <path d="M 35.459375 18.670875 
L 202.838118 18.670875 
" style="fill:none;stroke:#000000;stroke-linecap:square;stroke-linejoin:miter;stroke-width:0.8;"/>
   </g>
   <g id="text_8">
    <!-- Default calibration -->
    <g transform="translate(85.798121 12.670875)scale(0.072 -0.072)">
     <defs>
      <path d="M 19.671875 64.796875 
L 19.671875 8.109375 
L 31.59375 8.109375 
Q 46.6875 8.109375 53.6875 14.9375 
Q 60.6875 21.78125 60.6875 36.53125 
Q 60.6875 51.171875 53.6875 57.984375 
Q 46.6875 64.796875 31.59375 64.796875 
z
M 9.8125 72.90625 
L 30.078125 72.90625 
Q 51.265625 72.90625 61.171875 64.09375 
Q 71.09375 55.28125 71.09375 36.53125 
Q 71.09375 17.671875 61.125 8.828125 
Q 51.171875 0 30.078125 0 
L 9.8125 0 
z
" id="DejaVuSans-68"/>
      <path d="M 37.109375 75.984375 
L 37.109375 68.5 
L 28.515625 68.5 
Q 23.6875 68.5 21.796875 66.546875 
Q 19.921875 64.59375 19.921875 59.515625 
L 19.921875 54.6875 
L 34.71875 54.6875 
L 34.71875 47.703125 
L 19.921875 47.703125 
L 19.921875 0 
L 10.890625 0 
L 10.890625 47.703125 
L 2.296875 47.703125 
L 2.296875 54.6875 
L 10.890625 54.6875 
L 10.890625 58.5 
Q 10.890625 67.625 15.140625 71.796875 
Q 19.390625 75.984375 28.609375 75.984375 
z
" id="DejaVuSans-102"/>
      <path d="M 8.5 21.578125 
L 8.5 54.6875 
L 17.484375 54.6875 
L 17.484375 21.921875 
Q 17.484375 14.15625 20.5 10.265625 
Q 23.53125 6.390625 29.59375 6.390625 
Q 36.859375 6.390625 41.078125 11.03125 
Q 45.3125 15.671875 45.3125 23.6875 
L 45.3125 54.6875 
L 54.296875 54.6875 
L 54.296875 0 
L 45.3125 0 
L 45.3125 8.40625 
Q 42.046875 3.421875 37.71875 1 
Q 33.40625 -1.421875 27.6875 -1.421875 
Q 18.265625 -1.421875 13.375 4.4375 
Q 8.5 10.296875 8.5 21.578125 
z
M 31.109375 56 
z
" id="DejaVuSans-117"/>
      <path d="M 48.78125 52.59375 
L 48.78125 44.1875 
Q 44.96875 46.296875 41.140625 47.34375 
Q 37.3125 48.390625 33.40625 48.390625 
Q 24.65625 48.390625 19.8125 42.84375 
Q 14.984375 37.3125 14.984375 27.296875 
Q 14.984375 17.28125 19.8125 11.734375 
Q 24.65625 6.203125 33.40625 6.203125 
Q 37.3125 6.203125 41.140625 7.25 
Q 44.96875 8.296875 48.78125 10.40625 
L 48.78125 2.09375 
Q 45.015625 0.34375 40.984375 -0.53125 
Q 36.96875 -1.421875 32.421875 -1.421875 
Q 20.0625 -1.421875 12.78125 6.34375 
Q 5.515625 14.109375 5.515625 27.296875 
Q 5.515625 40.671875 12.859375 48.328125 
Q 20.21875 56 33.015625 56 
Q 37.15625 56 41.109375 55.140625 
Q 45.0625 54.296875 48.78125 52.59375 
z
" id="DejaVuSans-99"/>
      <path d="M 9.421875 54.6875 
L 18.40625 54.6875 
L 18.40625 0 
L 9.421875 0 
z
M 9.421875 75.984375 
L 18.40625 75.984375 
L 18.40625 64.59375 
L 9.421875 64.59375 
z
" id="DejaVuSans-105"/>
      <path d="M 48.6875 27.296875 
Q 48.6875 37.203125 44.609375 42.84375 
Q 40.53125 48.484375 33.40625 48.484375 
Q 26.265625 48.484375 22.1875 42.84375 
Q 18.109375 37.203125 18.109375 27.296875 
Q 18.109375 17.390625 22.1875 11.75 
Q 26.265625 6.109375 33.40625 6.109375 
Q 40.53125 6.109375 44.609375 11.75 
Q 48.6875 17.390625 48.6875 27.296875 
z
M 18.109375 46.390625 
Q 20.953125 51.265625 25.265625 53.625 
Q 29.59375 56 35.59375 56 
Q 45.5625 56 51.78125 48.09375 
Q 58.015625 40.1875 58.015625 27.296875 
Q 58.015625 14.40625 51.78125 6.484375 
Q 45.5625 -1.421875 35.59375 -1.421875 
Q 29.59375 -1.421875 25.265625 0.953125 
Q 20.953125 3.328125 18.109375 8.203125 
L 18.109375 0 
L 9.078125 0 
L 9.078125 75.984375 
L 18.109375 75.984375 
z
" id="DejaVuSans-98"/>
      <path d="M 41.109375 46.296875 
Q 39.59375 47.171875 37.8125 47.578125 
Q 36.03125 48 33.890625 48 
Q 26.265625 48 22.1875 43.046875 
Q 18.109375 38.09375 18.109375 28.8125 
L 18.109375 0 
L 9.078125 0 
L 9.078125 54.6875 
L 18.109375 54.6875 
L 18.109375 46.1875 
Q 20.953125 51.171875 25.484375 53.578125 
Q 30.03125 56 36.53125 56 
Q 37.453125 56 38.578125 55.875 
Q 39.703125 55.765625 41.0625 55.515625 
z
" id="DejaVuSans-114"/>
      <path d="M 30.609375 48.390625 
Q 23.390625 48.390625 19.1875 42.75 
Q 14.984375 37.109375 14.984375 27.296875 
Q 14.984375 17.484375 19.15625 11.84375 
Q 23.34375 6.203125 30.609375 6.203125 
Q 37.796875 6.203125 41.984375 11.859375 
Q 46.1875 17.53125 46.1875 27.296875 
Q 46.1875 37.015625 41.984375 42.703125 
Q 37.796875 48.390625 30.609375 48.390625 
z
M 30.609375 56 
Q 42.328125 56 49.015625 48.375 
Q 55.71875 40.765625 55.71875 27.296875 
Q 55.71875 13.875 49.015625 6.21875 
Q 42.328125 -1.421875 30.609375 -1.421875 
Q 18.84375 -1.421875 12.171875 6.21875 
Q 5.515625 13.875 5.515625 27.296875 
Q 5.515625 40.765625 12.171875 48.375 
Q 18.84375 56 30.609375 56 
z
" id="DejaVuSans-111"/>
     </defs>
     <use xlink:href="#DejaVuSans-68"/>
     <use x="77.001953" xlink:href="#DejaVuSans-101"/>
     <use x="138.525391" xlink:href="#DejaVuSans-102"/>
     <use x="173.730469" xlink:href="#DejaVuSans-97"/>
     <use x="235.009766" xlink:href="#DejaVuSans-117"/>
     <use x="298.388672" xlink:href="#DejaVuSans-108"/>
     <use x="326.171875" xlink:href="#DejaVuSans-116"/>
     <use x="365.380859" xlink:href="#DejaVuSans-32"/>
     <use x="397.167969" xlink:href="#DejaVuSans-99"/>
     <use x="452.148438" xlink:href="#DejaVuSans-97"/>
     <use x="513.427734" xlink:href="#DejaVuSans-108"/>
     <use x="541.210938" xlink:href="#DejaVuSans-105"/>
     <use x="568.994141" xlink:href="#DejaVuSans-98"/>
     <use x="632.470703" xlink:href="#DejaVuSans-114"/>
     <use x="673.583984" xlink:href="#DejaVuSans-97"/>
     <use x="734.863281" xlink:href="#DejaVuSans-116"/>
     <use x="774.072266" xlink:href="#DejaVuSans-105"/>
     <use x="801.855469" xlink:href="#DejaVuSans-111"/>
     <use x="863.037109" xlink:href="#DejaVuSans-110"/>
    </g>
   </g>
  </g>
  <g id="axes_2">
   <g id="patch_7">
    <path d="M 219.575992 107.962035 
L 386.954735 107.962035 
L 386.954735 18.670875 
L 219.575992 18.670875 
z
" style="fill:#ffffff;"/>
   </g>
   <g id="matplotlib.axis_3">
    <g id="xtick_6">
     <g id="line2d_14">
      <g>
       <use style="stroke:#000000;stroke-width:0.8;" x="227.184117" xlink:href="#mbee541ac71" y="107.962035"/>
      </g>
     </g>
    </g>
    <g id="xtick_7">
     <g id="line2d_15">
      <g>
       <use style="stroke:#000000;stroke-width:0.8;" x="265.22474" xlink:href="#mbee541ac71" y="107.962035"/>
      </g>
     </g>
    </g>
    <g id="xtick_8">
     <g id="line2d_16">
      <g>
       <use style="stroke:#000000;stroke-width:0.8;" x="303.265364" xlink:href="#mbee541ac71" y="107.962035"/>
      </g>
     </g>
    </g>
    <g id="xtick_9">
     <g id="line2d_17">
      <g>
       <use style="stroke:#000000;stroke-width:0.8;" x="341.305987" xlink:href="#mbee541ac71" y="107.962035"/>
      </g>
     </g>
    </g>
    <g id="xtick_10">
     <g id="line2d_18">
      <g>
       <use style="stroke:#000000;stroke-width:0.8;" x="379.34661" xlink:href="#mbee541ac71" y="107.962035"/>
      </g>
     </g>
    </g>
   </g>
   <g id="matplotlib.axis_4">
    <g id="ytick_7">
     <g id="line2d_19">
      <g>
       <use style="stroke:#000000;stroke-width:0.8;" x="219.575992" xlink:href="#mb1b49db32e" y="101.22308"/>
      </g>
     </g>
    </g>
    <g id="ytick_8">
     <g id="line2d_20">
      <g>
       <use style="stroke:#000000;stroke-width:0.8;" x="219.575992" xlink:href="#mb1b49db32e" y="86.06043"/>
      </g>
     </g>
    </g>
    <g id="ytick_9">
     <g id="line2d_21">
      <g>
       <use style="stroke:#000000;stroke-width:0.8;" x="219.575992" xlink:href="#mb1b49db32e" y="70.89778"/>
      </g>
     </g>
    </g>
    <g id="ytick_10">
     <g id="line2d_22">
      <g>
       <use style="stroke:#000000;stroke-width:0.8;" x="219.575992" xlink:href="#mb1b49db32e" y="55.73513"/>
      </g>
     </g>
    </g>
    <g id="ytick_11">
     <g id="line2d_23">
      <g>
       <use style="stroke:#000000;stroke-width:0.8;" x="219.575992" xlink:href="#mb1b49db32e" y="40.57248"/>
      </g>
     </g>
    </g>
    <g id="ytick_12">
     <g id="line2d_24">
      <g>
       <use style="stroke:#000000;stroke-width:0.8;" x="219.575992" xlink:href="#mb1b49db32e" y="25.40983"/>
      </g>
     </g>
    </g>
   </g>
   <g id="line2d_25">
    <path clip-path="url(#p54adf1e80c)" d="M 227.184117 101.22308 
L 230.289474 100.604196 
L 233.394831 99.985312 
L 236.500188 99.366429 
L 239.605545 98.747545 
L 242.710902 98.128661 
L 245.816259 97.509778 
L 248.921616 96.890894 
L 252.026973 96.27201 
L 255.13233 95.653127 
L 258.237687 95.034243 
L 261.343044 94.415359 
L 264.448401 93.796476 
L 267.553758 93.177592 
L 270.659115 92.558708 
L 273.764472 91.939825 
L 276.869829 91.320941 
L 279.975186 90.702057 
L 283.080543 90.083174 
L 286.1859 89.46429 
L 289.291257 88.845406 
L 292.396614 88.226523 
L 295.501971 87.607639 
L 298.607328 86.988755 
L 301.712685 86.369872 
L 304.818042 85.750988 
L 307.923399 85.132104 
L 311.028756 84.513221 
L 314.134113 83.894337 
L 317.23947 83.275453 
L 320.344827 82.65657 
L 323.450184 82.037686 
L 326.555541 81.418802 
L 329.660898 80.799919 
L 332.766255 80.181035 
L 335.871612 79.562151 
L 338.976969 78.943268 
L 342.082326 78.324384 
L 345.187683 77.7055 
L 348.29304 77.086617 
L 351.398397 76.467733 
L 354.503754 75.848849 
L 357.609111 75.229966 
L 360.714468 74.611082 
L 363.819825 73.992198 
L 366.925182 73.373315 
L 370.030539 72.754431 
L 373.135896 72.135547 
L 376.241253 71.516664 
L 379.34661 70.89778 
" style="fill:none;stroke:#1f77b4;stroke-linecap:square;stroke-width:1.5;"/>
   </g>
   <g id="line2d_26">
    <path clip-path="url(#p54adf1e80c)" d="M 227.184117 84.375691 
L 230.289474 84.375691 
L 233.394831 84.375691 
L 236.500188 84.375691 
L 239.605545 84.375691 
L 242.710902 84.375691 
L 245.816259 84.375691 
L 248.921616 84.375691 
L 252.026973 84.375691 
L 255.13233 84.375691 
L 258.237687 84.375691 
L 261.343044 84.375691 
L 264.448401 84.375691 
L 267.553758 84.375691 
L 270.659115 84.375691 
L 273.764472 84.375691 
L 276.869829 84.375691 
L 279.975186 84.375691 
L 283.080543 84.375691 
L 286.1859 84.375691 
L 289.291257 84.375691 
L 292.396614 84.375691 
L 295.501971 84.375691 
L 298.607328 84.375691 
L 301.712685 84.375691 
L 304.818042 84.375691 
L 307.923399 84.375691 
L 311.028756 84.375691 
L 314.134113 84.375691 
L 317.23947 84.375691 
L 320.344827 84.375691 
L 323.450184 84.375691 
L 326.555541 84.375691 
L 329.660898 84.375691 
L 332.766255 84.375691 
L 335.871612 84.375691 
L 338.976969 84.375691 
L 342.082326 84.375691 
L 345.187683 84.375691 
L 348.29304 84.375691 
L 351.398397 84.375691 
L 354.503754 84.375691 
L 357.609111 84.375691 
L 360.714468 84.375691 
L 363.819825 84.375691 
L 366.925182 84.375691 
L 370.030539 84.375691 
L 373.135896 84.375691 
L 376.241253 84.375691 
L 379.34661 84.375691 
" style="fill:none;stroke:#ff7f0e;stroke-linecap:square;stroke-width:1.5;"/>
   </g>
   <g id="patch_8">
    <path d="M 219.575992 107.962035 
L 219.575992 18.670875 
" style="fill:none;stroke:#000000;stroke-linecap:square;stroke-linejoin:miter;stroke-width:0.8;"/>
   </g>
   <g id="patch_9">
    <path d="M 386.954735 107.962035 
L 386.954735 18.670875 
" style="fill:none;stroke:#000000;stroke-linecap:square;stroke-linejoin:miter;stroke-width:0.8;"/>
   </g>
   <g id="patch_10">
    <path d="M 219.575992 107.962035 
L 386.954735 107.962035 
" style="fill:none;stroke:#000000;stroke-linecap:square;stroke-linejoin:miter;stroke-width:0.8;"/>
   </g>
   <g id="patch_11">
    <path d="M 219.575992 18.670875 
L 386.954735 18.670875 
" style="fill:none;stroke:#000000;stroke-linecap:square;stroke-linejoin:miter;stroke-width:0.8;"/>
   </g>
   <g id="text_9">
    <!-- New calibration -->
    <g transform="translate(275.215739 12.670875)scale(0.072 -0.072)">
     <defs>
      <path d="M 9.8125 72.90625 
L 23.09375 72.90625 
L 55.421875 11.921875 
L 55.421875 72.90625 
L 64.984375 72.90625 
L 64.984375 0 
L 51.703125 0 
L 19.390625 60.984375 
L 19.390625 0 
L 9.8125 0 
z
" id="DejaVuSans-78"/>
      <path d="M 4.203125 54.6875 
L 13.1875 54.6875 
L 24.421875 12.015625 
L 35.59375 54.6875 
L 46.1875 54.6875 
L 57.421875 12.015625 
L 68.609375 54.6875 
L 77.59375 54.6875 
L 63.28125 0 
L 52.6875 0 
L 40.921875 44.828125 
L 29.109375 0 
L 18.5 0 
z
" id="DejaVuSans-119"/>
     </defs>
     <use xlink:href="#DejaVuSans-78"/>
     <use x="74.804688" xlink:href="#DejaVuSans-101"/>
     <use x="136.328125" xlink:href="#DejaVuSans-119"/>
     <use x="218.115234" xlink:href="#DejaVuSans-32"/>
     <use x="249.902344" xlink:href="#DejaVuSans-99"/>
     <use x="304.882812" xlink:href="#DejaVuSans-97"/>
     <use x="366.162109" xlink:href="#DejaVuSans-108"/>
     <use x="393.945312" xlink:href="#DejaVuSans-105"/>
     <use x="421.728516" xlink:href="#DejaVuSans-98"/>
     <use x="485.205078" xlink:href="#DejaVuSans-114"/>
     <use x="526.318359" xlink:href="#DejaVuSans-97"/>
     <use x="587.597656" xlink:href="#DejaVuSans-116"/>
     <use x="626.806641" xlink:href="#DejaVuSans-105"/>
     <use x="654.589844" xlink:href="#DejaVuSans-111"/>
     <use x="715.771484" xlink:href="#DejaVuSans-110"/>
    </g>
   </g>
   <g id="legend_1">
    <g id="patch_12">
     <path d="M 349.281297 41.084625 
L 382.754735 41.084625 
Q 383.954735 41.084625 383.954735 39.884625 
L 383.954735 22.870875 
Q 383.954735 21.670875 382.754735 21.670875 
L 349.281297 21.670875 
Q 348.081298 21.670875 348.081298 22.870875 
L 348.081298 39.884625 
Q 348.081298 41.084625 349.281297 41.084625 
z
" style="fill:#ffffff;opacity:0.8;stroke:#cccccc;stroke-linejoin:miter;"/>
    </g>
    <g id="line2d_27">
     <path d="M 350.481297 26.529937 
L 362.481297 26.529937 
" style="fill:none;stroke:#1f77b4;stroke-linecap:square;stroke-width:1.5;"/>
    </g>
    <g id="line2d_28"/>
    <g id="text_10">
     <!-- HWP -->
     <g transform="translate(367.281297 28.629937)scale(0.06 -0.06)">
      <defs>
       <path d="M 9.8125 72.90625 
L 19.671875 72.90625 
L 19.671875 43.015625 
L 55.515625 43.015625 
L 55.515625 72.90625 
L 65.375 72.90625 
L 65.375 0 
L 55.515625 0 
L 55.515625 34.71875 
L 19.671875 34.71875 
L 19.671875 0 
L 9.8125 0 
z
" id="DejaVuSans-72"/>
       <path d="M 19.671875 64.796875 
L 19.671875 37.40625 
L 32.078125 37.40625 
Q 38.96875 37.40625 42.71875 40.96875 
Q 46.484375 44.53125 46.484375 51.125 
Q 46.484375 57.671875 42.71875 61.234375 
Q 38.96875 64.796875 32.078125 64.796875 
z
M 9.8125 72.90625 
L 32.078125 72.90625 
Q 44.34375 72.90625 50.609375 67.359375 
Q 56.890625 61.8125 56.890625 51.125 
Q 56.890625 40.328125 50.609375 34.8125 
Q 44.34375 29.296875 32.078125 29.296875 
L 19.671875 29.296875 
L 19.671875 0 
L 9.8125 0 
z
" id="DejaVuSans-80"/>
      </defs>
      <use xlink:href="#DejaVuSans-72"/>
      <use x="75.195312" xlink:href="#DejaVuSans-87"/>
      <use x="174.072266" xlink:href="#DejaVuSans-80"/>
     </g>
    </g>
    <g id="line2d_29">
     <path d="M 350.481297 35.336812 
L 362.481297 35.336812 
" style="fill:none;stroke:#ff7f0e;stroke-linecap:square;stroke-width:1.5;"/>
    </g>
    <g id="line2d_30"/>
    <g id="text_11">
     <!-- QWP -->
     <g transform="translate(367.281297 37.436812)scale(0.06 -0.06)">
      <defs>
       <path d="M 39.40625 66.21875 
Q 28.65625 66.21875 22.328125 58.203125 
Q 16.015625 50.203125 16.015625 36.375 
Q 16.015625 22.609375 22.328125 14.59375 
Q 28.65625 6.59375 39.40625 6.59375 
Q 50.140625 6.59375 56.421875 14.59375 
Q 62.703125 22.609375 62.703125 36.375 
Q 62.703125 50.203125 56.421875 58.203125 
Q 50.140625 66.21875 39.40625 66.21875 
z
M 53.21875 1.3125 
L 66.21875 -12.890625 
L 54.296875 -12.890625 
L 43.5 -1.21875 
Q 41.890625 -1.3125 41.03125 -1.359375 
Q 40.1875 -1.421875 39.40625 -1.421875 
Q 24.03125 -1.421875 14.8125 8.859375 
Q 5.609375 19.140625 5.609375 36.375 
Q 5.609375 53.65625 14.8125 63.9375 
Q 24.03125 74.21875 39.40625 74.21875 
Q 54.734375 74.21875 63.90625 63.9375 
Q 73.09375 53.65625 73.09375 36.375 
Q 73.09375 23.6875 67.984375 14.640625 
Q 62.890625 5.609375 53.21875 1.3125 
z
" id="DejaVuSans-81"/>
      </defs>
      <use xlink:href="#DejaVuSans-81"/>
      <use x="78.710938" xlink:href="#DejaVuSans-87"/>
      <use x="177.587891" xlink:href="#DejaVuSans-80"/>
     </g>
    </g>
   </g>
  </g>
  <g id="axes_3">
   <g id="patch_13">
    <path d="M 35.459375 215.111427 
L 202.838118 215.111427 
L 202.838118 125.820267 
L 35.459375 125.820267 
z
" style="fill:#ffffff;"/>
   </g>
   <g id="matplotlib.axis_5">
    <g id="xtick_11">
     <g id="line2d_31">
      <g>
       <use style="stroke:#000000;stroke-width:0.8;" x="43.0675" xlink:href="#mbee541ac71" y="215.111427"/>
      </g>
     </g>
     <g id="text_12">
      <!-- 0 -->
      <g transform="translate(41.15875 226.67049)scale(0.06 -0.06)">
       <use xlink:href="#DejaVuSans-48"/>
      </g>
     </g>
    </g>
    <g id="xtick_12">
     <g id="line2d_32">
      <g>
       <use style="stroke:#000000;stroke-width:0.8;" x="81.108123" xlink:href="#mbee541ac71" y="215.111427"/>
      </g>
     </g>
     <g id="text_13">
      <!-- 45 -->
      <g transform="translate(77.290623 226.67049)scale(0.06 -0.06)">
       <use xlink:href="#DejaVuSans-52"/>
       <use x="63.623047" xlink:href="#DejaVuSans-53"/>
      </g>
     </g>
    </g>
    <g id="xtick_13">
     <g id="line2d_33">
      <g>
       <use style="stroke:#000000;stroke-width:0.8;" x="119.148746" xlink:href="#mbee541ac71" y="215.111427"/>
      </g>
     </g>
     <g id="text_14">
      <!-- 90 -->
      <g transform="translate(115.331246 226.67049)scale(0.06 -0.06)">
       <use xlink:href="#DejaVuSans-57"/>
       <use x="63.623047" xlink:href="#DejaVuSans-48"/>
      </g>
     </g>
    </g>
    <g id="xtick_14">
     <g id="line2d_34">
      <g>
       <use style="stroke:#000000;stroke-width:0.8;" x="157.18937" xlink:href="#mbee541ac71" y="215.111427"/>
      </g>
     </g>
     <g id="text_15">
      <!-- 135 -->
      <g transform="translate(151.46312 226.67049)scale(0.06 -0.06)">
       <use xlink:href="#DejaVuSans-49"/>
       <use x="63.623047" xlink:href="#DejaVuSans-51"/>
       <use x="127.246094" xlink:href="#DejaVuSans-53"/>
      </g>
     </g>
    </g>
    <g id="xtick_15">
     <g id="line2d_35">
      <g>
       <use style="stroke:#000000;stroke-width:0.8;" x="195.229993" xlink:href="#mbee541ac71" y="215.111427"/>
      </g>
     </g>
     <g id="text_16">
      <!-- 180 -->
      <g transform="translate(189.503743 226.67049)scale(0.06 -0.06)">
       <use xlink:href="#DejaVuSans-49"/>
       <use x="63.623047" xlink:href="#DejaVuSans-56"/>
       <use x="127.246094" xlink:href="#DejaVuSans-48"/>
      </g>
     </g>
    </g>
    <g id="text_17">
     <!-- Rotation angle -->
     <g transform="translate(97.325621 236.477365)scale(0.06 -0.06)">
      <defs>
       <path d="M 44.390625 34.1875 
Q 47.5625 33.109375 50.5625 29.59375 
Q 53.5625 26.078125 56.59375 19.921875 
L 66.609375 0 
L 56 0 
L 46.6875 18.703125 
Q 43.0625 26.03125 39.671875 28.421875 
Q 36.28125 30.8125 30.421875 30.8125 
L 19.671875 30.8125 
L 19.671875 0 
L 9.8125 0 
L 9.8125 72.90625 
L 32.078125 72.90625 
Q 44.578125 72.90625 50.734375 67.671875 
Q 56.890625 62.453125 56.890625 51.90625 
Q 56.890625 45.015625 53.6875 40.46875 
Q 50.484375 35.9375 44.390625 34.1875 
z
M 19.671875 64.796875 
L 19.671875 38.921875 
L 32.078125 38.921875 
Q 39.203125 38.921875 42.84375 42.21875 
Q 46.484375 45.515625 46.484375 51.90625 
Q 46.484375 58.296875 42.84375 61.546875 
Q 39.203125 64.796875 32.078125 64.796875 
z
" id="DejaVuSans-82"/>
      </defs>
      <use xlink:href="#DejaVuSans-82"/>
      <use x="64.982422" xlink:href="#DejaVuSans-111"/>
      <use x="126.164062" xlink:href="#DejaVuSans-116"/>
      <use x="165.373047" xlink:href="#DejaVuSans-97"/>
      <use x="226.652344" xlink:href="#DejaVuSans-116"/>
      <use x="265.861328" xlink:href="#DejaVuSans-105"/>
      <use x="293.644531" xlink:href="#DejaVuSans-111"/>
      <use x="354.826172" xlink:href="#DejaVuSans-110"/>
      <use x="418.205078" xlink:href="#DejaVuSans-32"/>
      <use x="449.992188" xlink:href="#DejaVuSans-97"/>
      <use x="511.271484" xlink:href="#DejaVuSans-110"/>
      <use x="574.650391" xlink:href="#DejaVuSans-103"/>
      <use x="638.126953" xlink:href="#DejaVuSans-108"/>
      <use x="665.910156" xlink:href="#DejaVuSans-101"/>
     </g>
    </g>
   </g>
   <g id="matplotlib.axis_6">
    <g id="ytick_13">
     <g id="line2d_36">
      <g>
       <use style="stroke:#000000;stroke-width:0.8;" x="35.459375" xlink:href="#mb1b49db32e" y="195.942386"/>
      </g>
     </g>
     <g id="text_18">
      <!-- 100 -->
      <g transform="translate(17.006875 198.221918)scale(0.06 -0.06)">
       <use xlink:href="#DejaVuSans-49"/>
       <use x="63.623047" xlink:href="#DejaVuSans-48"/>
       <use x="127.246094" xlink:href="#DejaVuSans-48"/>
      </g>
     </g>
    </g>
    <g id="ytick_14">
     <g id="line2d_37">
      <g>
       <use style="stroke:#000000;stroke-width:0.8;" x="35.459375" xlink:href="#mb1b49db32e" y="176.630617"/>
      </g>
     </g>
     <g id="text_19">
      <!-- 200 -->
      <g transform="translate(17.006875 178.910148)scale(0.06 -0.06)">
       <use xlink:href="#DejaVuSans-50"/>
       <use x="63.623047" xlink:href="#DejaVuSans-48"/>
       <use x="127.246094" xlink:href="#DejaVuSans-48"/>
      </g>
     </g>
    </g>
    <g id="ytick_15">
     <g id="line2d_38">
      <g>
       <use style="stroke:#000000;stroke-width:0.8;" x="35.459375" xlink:href="#mb1b49db32e" y="157.318848"/>
      </g>
     </g>
     <g id="text_20">
      <!-- 300 -->
      <g transform="translate(17.006875 159.598379)scale(0.06 -0.06)">
       <use xlink:href="#DejaVuSans-51"/>
       <use x="63.623047" xlink:href="#DejaVuSans-48"/>
       <use x="127.246094" xlink:href="#DejaVuSans-48"/>
      </g>
     </g>
    </g>
    <g id="ytick_16">
     <g id="line2d_39">
      <g>
       <use style="stroke:#000000;stroke-width:0.8;" x="35.459375" xlink:href="#mb1b49db32e" y="138.007079"/>
      </g>
     </g>
     <g id="text_21">
      <!-- 400 -->
      <g transform="translate(17.006875 140.28661)scale(0.06 -0.06)">
       <use xlink:href="#DejaVuSans-52"/>
       <use x="63.623047" xlink:href="#DejaVuSans-48"/>
       <use x="127.246094" xlink:href="#DejaVuSans-48"/>
      </g>
     </g>
    </g>
    <g id="text_22">
     <!-- Intensity after P2 (au) -->
     <g transform="translate(11.759063 203.279284)rotate(-90)scale(0.06 -0.06)">
      <defs>
       <path d="M 9.8125 72.90625 
L 19.671875 72.90625 
L 19.671875 0 
L 9.8125 0 
z
" id="DejaVuSans-73"/>
       <path d="M 44.28125 53.078125 
L 44.28125 44.578125 
Q 40.484375 46.53125 36.375 47.5 
Q 32.28125 48.484375 27.875 48.484375 
Q 21.1875 48.484375 17.84375 46.4375 
Q 14.5 44.390625 14.5 40.28125 
Q 14.5 37.15625 16.890625 35.375 
Q 19.28125 33.59375 26.515625 31.984375 
L 29.59375 31.296875 
Q 39.15625 29.25 43.1875 25.515625 
Q 47.21875 21.78125 47.21875 15.09375 
Q 47.21875 7.46875 41.1875 3.015625 
Q 35.15625 -1.421875 24.609375 -1.421875 
Q 20.21875 -1.421875 15.453125 -0.5625 
Q 10.6875 0.296875 5.421875 2 
L 5.421875 11.28125 
Q 10.40625 8.6875 15.234375 7.390625 
Q 20.0625 6.109375 24.8125 6.109375 
Q 31.15625 6.109375 34.5625 8.28125 
Q 37.984375 10.453125 37.984375 14.40625 
Q 37.984375 18.0625 35.515625 20.015625 
Q 33.0625 21.96875 24.703125 23.78125 
L 21.578125 24.515625 
Q 13.234375 26.265625 9.515625 29.90625 
Q 5.8125 33.546875 5.8125 39.890625 
Q 5.8125 47.609375 11.28125 51.796875 
Q 16.75 56 26.8125 56 
Q 31.78125 56 36.171875 55.265625 
Q 40.578125 54.546875 44.28125 53.078125 
z
" id="DejaVuSans-115"/>
       <path d="M 32.171875 -5.078125 
Q 28.375 -14.84375 24.75 -17.8125 
Q 21.140625 -20.796875 15.09375 -20.796875 
L 7.90625 -20.796875 
L 7.90625 -13.28125 
L 13.1875 -13.28125 
Q 16.890625 -13.28125 18.9375 -11.515625 
Q 21 -9.765625 23.484375 -3.21875 
L 25.09375 0.875 
L 2.984375 54.6875 
L 12.5 54.6875 
L 29.59375 11.921875 
L 46.6875 54.6875 
L 56.203125 54.6875 
z
" id="DejaVuSans-121"/>
       <path d="M 31 75.875 
Q 24.46875 64.65625 21.28125 53.65625 
Q 18.109375 42.671875 18.109375 31.390625 
Q 18.109375 20.125 21.3125 9.0625 
Q 24.515625 -2 31 -13.1875 
L 23.1875 -13.1875 
Q 15.875 -1.703125 12.234375 9.375 
Q 8.59375 20.453125 8.59375 31.390625 
Q 8.59375 42.28125 12.203125 53.3125 
Q 15.828125 64.359375 23.1875 75.875 
z
" id="DejaVuSans-40"/>
       <path d="M 8.015625 75.875 
L 15.828125 75.875 
Q 23.140625 64.359375 26.78125 53.3125 
Q 30.421875 42.28125 30.421875 31.390625 
Q 30.421875 20.453125 26.78125 9.375 
Q 23.140625 -1.703125 15.828125 -13.1875 
L 8.015625 -13.1875 
Q 14.5 -2 17.703125 9.0625 
Q 20.90625 20.125 20.90625 31.390625 
Q 20.90625 42.671875 17.703125 53.65625 
Q 14.5 64.65625 8.015625 75.875 
z
" id="DejaVuSans-41"/>
      </defs>
      <use xlink:href="#DejaVuSans-73"/>
      <use x="29.492188" xlink:href="#DejaVuSans-110"/>
      <use x="92.871094" xlink:href="#DejaVuSans-116"/>
      <use x="132.080078" xlink:href="#DejaVuSans-101"/>
      <use x="193.603516" xlink:href="#DejaVuSans-110"/>
      <use x="256.982422" xlink:href="#DejaVuSans-115"/>
      <use x="309.082031" xlink:href="#DejaVuSans-105"/>
      <use x="336.865234" xlink:href="#DejaVuSans-116"/>
      <use x="376.074219" xlink:href="#DejaVuSans-121"/>
      <use x="435.253906" xlink:href="#DejaVuSans-32"/>
      <use x="467.041016" xlink:href="#DejaVuSans-97"/>
      <use x="528.320312" xlink:href="#DejaVuSans-102"/>
      <use x="561.775391" xlink:href="#DejaVuSans-116"/>
      <use x="600.984375" xlink:href="#DejaVuSans-101"/>
      <use x="662.507812" xlink:href="#DejaVuSans-114"/>
      <use x="703.621094" xlink:href="#DejaVuSans-32"/>
      <use x="735.408203" xlink:href="#DejaVuSans-80"/>
      <use x="795.710938" xlink:href="#DejaVuSans-50"/>
      <use x="859.333984" xlink:href="#DejaVuSans-32"/>
      <use x="891.121094" xlink:href="#DejaVuSans-40"/>
      <use x="930.134766" xlink:href="#DejaVuSans-97"/>
      <use x="991.414062" xlink:href="#DejaVuSans-117"/>
      <use x="1054.792969" xlink:href="#DejaVuSans-41"/>
     </g>
    </g>
   </g>
   <g id="line2d_40">
    <path clip-path="url(#p70f43d06a0)" d="M 43.0675 132.326762 
L 51.520972 130.097044 
L 59.974443 131.743 
L 68.427915 138.471815 
L 76.881387 148.984736 
L 85.334859 160.255453 
L 93.788331 165.176607 
L 102.241803 159.925383 
L 110.695275 145.061179 
L 119.148746 134.037664 
L 127.602218 129.878956 
L 136.05569 132.312853 
L 144.509162 140.348802 
L 152.962634 150.589243 
L 161.416106 158.533265 
L 169.869578 155.816298 
L 178.323049 147.081648 
L 186.776521 137.815316 
" style="fill:none;stroke:#1f77b4;stroke-linecap:square;stroke-width:1.5;"/>
    <defs>
     <path d="M 0 1.5 
C 0.397805 1.5 0.77937 1.341951 1.06066 1.06066 
C 1.341951 0.77937 1.5 0.397805 1.5 0 
C 1.5 -0.397805 1.341951 -0.77937 1.06066 -1.06066 
C 0.77937 -1.341951 0.397805 -1.5 0 -1.5 
C -0.397805 -1.5 -0.77937 -1.341951 -1.06066 -1.06066 
C -1.341951 -0.77937 -1.5 -0.397805 -1.5 0 
C -1.5 0.397805 -1.341951 0.77937 -1.06066 1.06066 
C -0.77937 1.341951 -0.397805 1.5 0 1.5 
z
" id="mc4782450f9" style="stroke:#1f77b4;"/>
    </defs>
    <g clip-path="url(#p70f43d06a0)">
     <use style="fill:#1f77b4;stroke:#1f77b4;" x="43.0675" xlink:href="#mc4782450f9" y="132.326762"/>
     <use style="fill:#1f77b4;stroke:#1f77b4;" x="51.520972" xlink:href="#mc4782450f9" y="130.097044"/>
     <use style="fill:#1f77b4;stroke:#1f77b4;" x="59.974443" xlink:href="#mc4782450f9" y="131.743"/>
     <use style="fill:#1f77b4;stroke:#1f77b4;" x="68.427915" xlink:href="#mc4782450f9" y="138.471815"/>
     <use style="fill:#1f77b4;stroke:#1f77b4;" x="76.881387" xlink:href="#mc4782450f9" y="148.984736"/>
     <use style="fill:#1f77b4;stroke:#1f77b4;" x="85.334859" xlink:href="#mc4782450f9" y="160.255453"/>
     <use style="fill:#1f77b4;stroke:#1f77b4;" x="93.788331" xlink:href="#mc4782450f9" y="165.176607"/>
     <use style="fill:#1f77b4;stroke:#1f77b4;" x="102.241803" xlink:href="#mc4782450f9" y="159.925383"/>
     <use style="fill:#1f77b4;stroke:#1f77b4;" x="110.695275" xlink:href="#mc4782450f9" y="145.061179"/>
     <use style="fill:#1f77b4;stroke:#1f77b4;" x="119.148746" xlink:href="#mc4782450f9" y="134.037664"/>
     <use style="fill:#1f77b4;stroke:#1f77b4;" x="127.602218" xlink:href="#mc4782450f9" y="129.878956"/>
     <use style="fill:#1f77b4;stroke:#1f77b4;" x="136.05569" xlink:href="#mc4782450f9" y="132.312853"/>
     <use style="fill:#1f77b4;stroke:#1f77b4;" x="144.509162" xlink:href="#mc4782450f9" y="140.348802"/>
     <use style="fill:#1f77b4;stroke:#1f77b4;" x="152.962634" xlink:href="#mc4782450f9" y="150.589243"/>
     <use style="fill:#1f77b4;stroke:#1f77b4;" x="161.416106" xlink:href="#mc4782450f9" y="158.533265"/>
     <use style="fill:#1f77b4;stroke:#1f77b4;" x="169.869578" xlink:href="#mc4782450f9" y="155.816298"/>
     <use style="fill:#1f77b4;stroke:#1f77b4;" x="178.323049" xlink:href="#mc4782450f9" y="147.081648"/>
     <use style="fill:#1f77b4;stroke:#1f77b4;" x="186.776521" xlink:href="#mc4782450f9" y="137.815316"/>
    </g>
   </g>
   <g id="line2d_41">
    <path clip-path="url(#p70f43d06a0)" d="M 43.0675 159.836704 
L 51.520972 154.04675 
L 59.974443 145.465077 
L 68.427915 143.367456 
L 76.881387 143.638409 
L 85.334859 149.765546 
L 93.788331 164.918796 
L 102.241803 184.423185 
L 110.695275 196.01226 
L 119.148746 180.878806 
L 127.602218 161.207168 
L 136.05569 144.350277 
L 144.509162 135.866365 
L 152.962634 134.969435 
L 161.416106 140.40667 
L 169.869578 151.411927 
L 178.323049 161.388977 
L 186.776521 164.809042 
" style="fill:none;stroke:#ff7f0e;stroke-linecap:square;stroke-width:1.5;"/>
    <defs>
     <path d="M 0 1.5 
C 0.397805 1.5 0.77937 1.341951 1.06066 1.06066 
C 1.341951 0.77937 1.5 0.397805 1.5 0 
C 1.5 -0.397805 1.341951 -0.77937 1.06066 -1.06066 
C 0.77937 -1.341951 0.397805 -1.5 0 -1.5 
C -0.397805 -1.5 -0.77937 -1.341951 -1.06066 -1.06066 
C -1.341951 -0.77937 -1.5 -0.397805 -1.5 0 
C -1.5 0.397805 -1.341951 0.77937 -1.06066 1.06066 
C -0.77937 1.341951 -0.397805 1.5 0 1.5 
z
" id="maa0320e4b6" style="stroke:#ff7f0e;"/>
    </defs>
    <g clip-path="url(#p70f43d06a0)">
     <use style="fill:#ff7f0e;stroke:#ff7f0e;" x="43.0675" xlink:href="#maa0320e4b6" y="159.836704"/>
     <use style="fill:#ff7f0e;stroke:#ff7f0e;" x="51.520972" xlink:href="#maa0320e4b6" y="154.04675"/>
     <use style="fill:#ff7f0e;stroke:#ff7f0e;" x="59.974443" xlink:href="#maa0320e4b6" y="145.465077"/>
     <use style="fill:#ff7f0e;stroke:#ff7f0e;" x="68.427915" xlink:href="#maa0320e4b6" y="143.367456"/>
     <use style="fill:#ff7f0e;stroke:#ff7f0e;" x="76.881387" xlink:href="#maa0320e4b6" y="143.638409"/>
     <use style="fill:#ff7f0e;stroke:#ff7f0e;" x="85.334859" xlink:href="#maa0320e4b6" y="149.765546"/>
     <use style="fill:#ff7f0e;stroke:#ff7f0e;" x="93.788331" xlink:href="#maa0320e4b6" y="164.918796"/>
     <use style="fill:#ff7f0e;stroke:#ff7f0e;" x="102.241803" xlink:href="#maa0320e4b6" y="184.423185"/>
     <use style="fill:#ff7f0e;stroke:#ff7f0e;" x="110.695275" xlink:href="#maa0320e4b6" y="196.01226"/>
     <use style="fill:#ff7f0e;stroke:#ff7f0e;" x="119.148746" xlink:href="#maa0320e4b6" y="180.878806"/>
     <use style="fill:#ff7f0e;stroke:#ff7f0e;" x="127.602218" xlink:href="#maa0320e4b6" y="161.207168"/>
     <use style="fill:#ff7f0e;stroke:#ff7f0e;" x="136.05569" xlink:href="#maa0320e4b6" y="144.350277"/>
     <use style="fill:#ff7f0e;stroke:#ff7f0e;" x="144.509162" xlink:href="#maa0320e4b6" y="135.866365"/>
     <use style="fill:#ff7f0e;stroke:#ff7f0e;" x="152.962634" xlink:href="#maa0320e4b6" y="134.969435"/>
     <use style="fill:#ff7f0e;stroke:#ff7f0e;" x="161.416106" xlink:href="#maa0320e4b6" y="140.40667"/>
     <use style="fill:#ff7f0e;stroke:#ff7f0e;" x="169.869578" xlink:href="#maa0320e4b6" y="151.411927"/>
     <use style="fill:#ff7f0e;stroke:#ff7f0e;" x="178.323049" xlink:href="#maa0320e4b6" y="161.388977"/>
     <use style="fill:#ff7f0e;stroke:#ff7f0e;" x="186.776521" xlink:href="#maa0320e4b6" y="164.809042"/>
    </g>
   </g>
   <g id="line2d_42">
    <path clip-path="url(#p70f43d06a0)" d="M 43.0675 204.378228 
L 51.520972 210.431948 
L 59.974443 201.101204 
L 68.427915 183.797616 
L 76.881387 164.551921 
L 85.334859 151.665205 
L 93.788331 148.806535 
L 102.241803 154.220113 
L 110.695275 172.386696 
L 119.148746 196.485523 
L 127.602218 211.052738 
L 136.05569 201.928833 
L 144.509162 180.325729 
L 152.962634 163.46788 
L 161.416106 154.564204 
L 169.869578 157.49237 
L 178.323049 170.334991 
L 186.776521 188.254413 
" style="fill:none;stroke:#2ca02c;stroke-linecap:square;stroke-width:1.5;"/>
    <defs>
     <path d="M 0 1.5 
C 0.397805 1.5 0.77937 1.341951 1.06066 1.06066 
C 1.341951 0.77937 1.5 0.397805 1.5 0 
C 1.5 -0.397805 1.341951 -0.77937 1.06066 -1.06066 
C 0.77937 -1.341951 0.397805 -1.5 0 -1.5 
C -0.397805 -1.5 -0.77937 -1.341951 -1.06066 -1.06066 
C -1.341951 -0.77937 -1.5 -0.397805 -1.5 0 
C -1.5 0.397805 -1.341951 0.77937 -1.06066 1.06066 
C -0.77937 1.341951 -0.397805 1.5 0 1.5 
z
" id="mceb2879a42" style="stroke:#2ca02c;"/>
    </defs>
    <g clip-path="url(#p70f43d06a0)">
     <use style="fill:#2ca02c;stroke:#2ca02c;" x="43.0675" xlink:href="#mceb2879a42" y="204.378228"/>
     <use style="fill:#2ca02c;stroke:#2ca02c;" x="51.520972" xlink:href="#mceb2879a42" y="210.431948"/>
     <use style="fill:#2ca02c;stroke:#2ca02c;" x="59.974443" xlink:href="#mceb2879a42" y="201.101204"/>
     <use style="fill:#2ca02c;stroke:#2ca02c;" x="68.427915" xlink:href="#mceb2879a42" y="183.797616"/>
     <use style="fill:#2ca02c;stroke:#2ca02c;" x="76.881387" xlink:href="#mceb2879a42" y="164.551921"/>
     <use style="fill:#2ca02c;stroke:#2ca02c;" x="85.334859" xlink:href="#mceb2879a42" y="151.665205"/>
     <use style="fill:#2ca02c;stroke:#2ca02c;" x="93.788331" xlink:href="#mceb2879a42" y="148.806535"/>
     <use style="fill:#2ca02c;stroke:#2ca02c;" x="102.241803" xlink:href="#mceb2879a42" y="154.220113"/>
     <use style="fill:#2ca02c;stroke:#2ca02c;" x="110.695275" xlink:href="#mceb2879a42" y="172.386696"/>
     <use style="fill:#2ca02c;stroke:#2ca02c;" x="119.148746" xlink:href="#mceb2879a42" y="196.485523"/>
     <use style="fill:#2ca02c;stroke:#2ca02c;" x="127.602218" xlink:href="#mceb2879a42" y="211.052738"/>
     <use style="fill:#2ca02c;stroke:#2ca02c;" x="136.05569" xlink:href="#mceb2879a42" y="201.928833"/>
     <use style="fill:#2ca02c;stroke:#2ca02c;" x="144.509162" xlink:href="#mceb2879a42" y="180.325729"/>
     <use style="fill:#2ca02c;stroke:#2ca02c;" x="152.962634" xlink:href="#mceb2879a42" y="163.46788"/>
     <use style="fill:#2ca02c;stroke:#2ca02c;" x="161.416106" xlink:href="#mceb2879a42" y="154.564204"/>
     <use style="fill:#2ca02c;stroke:#2ca02c;" x="169.869578" xlink:href="#mceb2879a42" y="157.49237"/>
     <use style="fill:#2ca02c;stroke:#2ca02c;" x="178.323049" xlink:href="#mceb2879a42" y="170.334991"/>
     <use style="fill:#2ca02c;stroke:#2ca02c;" x="186.776521" xlink:href="#mceb2879a42" y="188.254413"/>
    </g>
   </g>
   <g id="line2d_43">
    <path clip-path="url(#p70f43d06a0)" d="M 43.0675 154.714564 
L 51.520972 159.600882 
L 59.974443 169.188361 
L 68.427915 173.759276 
L 76.881387 172.585005 
L 85.334859 162.401513 
L 93.788331 148.795897 
L 102.241803 138.723656 
L 110.695275 134.319396 
L 119.148746 139.889405 
L 127.602218 152.154959 
L 136.05569 172.426267 
L 144.509162 190.849594 
L 152.962634 193.291478 
L 161.416106 179.552003 
L 169.869578 162.279276 
L 178.323049 153.533316 
L 186.776521 150.510589 
" style="fill:none;stroke:#d62728;stroke-linecap:square;stroke-width:1.5;"/>
    <defs>
     <path d="M 0 1.5 
C 0.397805 1.5 0.77937 1.341951 1.06066 1.06066 
C 1.341951 0.77937 1.5 0.397805 1.5 0 
C 1.5 -0.397805 1.341951 -0.77937 1.06066 -1.06066 
C 0.77937 -1.341951 0.397805 -1.5 0 -1.5 
C -0.397805 -1.5 -0.77937 -1.341951 -1.06066 -1.06066 
C -1.341951 -0.77937 -1.5 -0.397805 -1.5 0 
C -1.5 0.397805 -1.341951 0.77937 -1.06066 1.06066 
C -0.77937 1.341951 -0.397805 1.5 0 1.5 
z
" id="mab24c383d3" style="stroke:#d62728;"/>
    </defs>
    <g clip-path="url(#p70f43d06a0)">
     <use style="fill:#d62728;stroke:#d62728;" x="43.0675" xlink:href="#mab24c383d3" y="154.714564"/>
     <use style="fill:#d62728;stroke:#d62728;" x="51.520972" xlink:href="#mab24c383d3" y="159.600882"/>
     <use style="fill:#d62728;stroke:#d62728;" x="59.974443" xlink:href="#mab24c383d3" y="169.188361"/>
     <use style="fill:#d62728;stroke:#d62728;" x="68.427915" xlink:href="#mab24c383d3" y="173.759276"/>
     <use style="fill:#d62728;stroke:#d62728;" x="76.881387" xlink:href="#mab24c383d3" y="172.585005"/>
     <use style="fill:#d62728;stroke:#d62728;" x="85.334859" xlink:href="#mab24c383d3" y="162.401513"/>
     <use style="fill:#d62728;stroke:#d62728;" x="93.788331" xlink:href="#mab24c383d3" y="148.795897"/>
     <use style="fill:#d62728;stroke:#d62728;" x="102.241803" xlink:href="#mab24c383d3" y="138.723656"/>
     <use style="fill:#d62728;stroke:#d62728;" x="110.695275" xlink:href="#mab24c383d3" y="134.319396"/>
     <use style="fill:#d62728;stroke:#d62728;" x="119.148746" xlink:href="#mab24c383d3" y="139.889405"/>
     <use style="fill:#d62728;stroke:#d62728;" x="127.602218" xlink:href="#mab24c383d3" y="152.154959"/>
     <use style="fill:#d62728;stroke:#d62728;" x="136.05569" xlink:href="#mab24c383d3" y="172.426267"/>
     <use style="fill:#d62728;stroke:#d62728;" x="144.509162" xlink:href="#mab24c383d3" y="190.849594"/>
     <use style="fill:#d62728;stroke:#d62728;" x="152.962634" xlink:href="#mab24c383d3" y="193.291478"/>
     <use style="fill:#d62728;stroke:#d62728;" x="161.416106" xlink:href="#mab24c383d3" y="179.552003"/>
     <use style="fill:#d62728;stroke:#d62728;" x="169.869578" xlink:href="#mab24c383d3" y="162.279276"/>
     <use style="fill:#d62728;stroke:#d62728;" x="178.323049" xlink:href="#mab24c383d3" y="153.533316"/>
     <use style="fill:#d62728;stroke:#d62728;" x="186.776521" xlink:href="#mab24c383d3" y="150.510589"/>
    </g>
   </g>
   <g id="patch_14">
    <path d="M 35.459375 215.111427 
L 35.459375 125.820267 
" style="fill:none;stroke:#000000;stroke-linecap:square;stroke-linejoin:miter;stroke-width:0.8;"/>
   </g>
   <g id="patch_15">
    <path d="M 202.838118 215.111427 
L 202.838118 125.820267 
" style="fill:none;stroke:#000000;stroke-linecap:square;stroke-linejoin:miter;stroke-width:0.8;"/>
   </g>
   <g id="patch_16">
    <path d="M 35.459375 215.111427 
L 202.838118 215.111427 
" style="fill:none;stroke:#000000;stroke-linecap:square;stroke-linejoin:miter;stroke-width:0.8;"/>
   </g>
   <g id="patch_17">
    <path d="M 35.459375 125.820267 
L 202.838118 125.820267 
" style="fill:none;stroke:#000000;stroke-linecap:square;stroke-linejoin:miter;stroke-width:0.8;"/>
   </g>
  </g>
  <g id="axes_4">
   <g id="patch_18">
    <path d="M 219.575992 215.111427 
L 386.954735 215.111427 
L 386.954735 125.820267 
L 219.575992 125.820267 
z
" style="fill:#ffffff;"/>
   </g>
   <g id="matplotlib.axis_7">
    <g id="xtick_16">
     <g id="line2d_44">
      <g>
       <use style="stroke:#000000;stroke-width:0.8;" x="227.184117" xlink:href="#mbee541ac71" y="215.111427"/>
      </g>
     </g>
     <g id="text_23">
      <!-- 0 -->
      <g transform="translate(225.275367 226.67049)scale(0.06 -0.06)">
       <use xlink:href="#DejaVuSans-48"/>
      </g>
     </g>
    </g>
    <g id="xtick_17">
     <g id="line2d_45">
      <g>
       <use style="stroke:#000000;stroke-width:0.8;" x="265.22474" xlink:href="#mbee541ac71" y="215.111427"/>
      </g>
     </g>
     <g id="text_24">
      <!-- 45 -->
      <g transform="translate(261.40724 226.67049)scale(0.06 -0.06)">
       <use xlink:href="#DejaVuSans-52"/>
       <use x="63.623047" xlink:href="#DejaVuSans-53"/>
      </g>
     </g>
    </g>
    <g id="xtick_18">
     <g id="line2d_46">
      <g>
       <use style="stroke:#000000;stroke-width:0.8;" x="303.265364" xlink:href="#mbee541ac71" y="215.111427"/>
      </g>
     </g>
     <g id="text_25">
      <!-- 90 -->
      <g transform="translate(299.447864 226.67049)scale(0.06 -0.06)">
       <use xlink:href="#DejaVuSans-57"/>
       <use x="63.623047" xlink:href="#DejaVuSans-48"/>
      </g>
     </g>
    </g>
    <g id="xtick_19">
     <g id="line2d_47">
      <g>
       <use style="stroke:#000000;stroke-width:0.8;" x="341.305987" xlink:href="#mbee541ac71" y="215.111427"/>
      </g>
     </g>
     <g id="text_26">
      <!-- 135 -->
      <g transform="translate(335.579737 226.67049)scale(0.06 -0.06)">
       <use xlink:href="#DejaVuSans-49"/>
       <use x="63.623047" xlink:href="#DejaVuSans-51"/>
       <use x="127.246094" xlink:href="#DejaVuSans-53"/>
      </g>
     </g>
    </g>
    <g id="xtick_20">
     <g id="line2d_48">
      <g>
       <use style="stroke:#000000;stroke-width:0.8;" x="379.34661" xlink:href="#mbee541ac71" y="215.111427"/>
      </g>
     </g>
     <g id="text_27">
      <!-- 180 -->
      <g transform="translate(373.62036 226.67049)scale(0.06 -0.06)">
       <use xlink:href="#DejaVuSans-49"/>
       <use x="63.623047" xlink:href="#DejaVuSans-56"/>
       <use x="127.246094" xlink:href="#DejaVuSans-48"/>
      </g>
     </g>
    </g>
    <g id="text_28">
     <!-- Rotation angle -->
     <g transform="translate(281.442239 236.477365)scale(0.06 -0.06)">
      <use xlink:href="#DejaVuSans-82"/>
      <use x="64.982422" xlink:href="#DejaVuSans-111"/>
      <use x="126.164062" xlink:href="#DejaVuSans-116"/>
      <use x="165.373047" xlink:href="#DejaVuSans-97"/>
      <use x="226.652344" xlink:href="#DejaVuSans-116"/>
      <use x="265.861328" xlink:href="#DejaVuSans-105"/>
      <use x="293.644531" xlink:href="#DejaVuSans-111"/>
      <use x="354.826172" xlink:href="#DejaVuSans-110"/>
      <use x="418.205078" xlink:href="#DejaVuSans-32"/>
      <use x="449.992188" xlink:href="#DejaVuSans-97"/>
      <use x="511.271484" xlink:href="#DejaVuSans-110"/>
      <use x="574.650391" xlink:href="#DejaVuSans-103"/>
      <use x="638.126953" xlink:href="#DejaVuSans-108"/>
      <use x="665.910156" xlink:href="#DejaVuSans-101"/>
     </g>
    </g>
   </g>
   <g id="matplotlib.axis_8">
    <g id="ytick_17">
     <g id="line2d_49">
      <g>
       <use style="stroke:#000000;stroke-width:0.8;" x="219.575992" xlink:href="#mb1b49db32e" y="195.942386"/>
      </g>
     </g>
    </g>
    <g id="ytick_18">
     <g id="line2d_50">
      <g>
       <use style="stroke:#000000;stroke-width:0.8;" x="219.575992" xlink:href="#mb1b49db32e" y="176.630617"/>
      </g>
     </g>
    </g>
    <g id="ytick_19">
     <g id="line2d_51">
      <g>
       <use style="stroke:#000000;stroke-width:0.8;" x="219.575992" xlink:href="#mb1b49db32e" y="157.318848"/>
      </g>
     </g>
    </g>
    <g id="ytick_20">
     <g id="line2d_52">
      <g>
       <use style="stroke:#000000;stroke-width:0.8;" x="219.575992" xlink:href="#mb1b49db32e" y="138.007079"/>
      </g>
     </g>
    </g>
   </g>
   <g id="line2d_53">
    <path clip-path="url(#p112b648c43)" d="M 227.184117 130.820122 
L 235.637589 130.478288 
L 244.091061 132.598269 
L 252.544532 137.319769 
L 260.998004 144.804341 
L 269.451476 154.874036 
L 277.904948 167.908782 
L 286.35842 183.290502 
L 294.811892 198.192495 
L 303.265364 208.419481 
L 311.718835 210.092637 
L 320.172307 202.656155 
L 328.625779 188.959135 
L 337.079251 173.737028 
L 345.532723 159.228779 
L 353.986195 147.921729 
L 362.439667 139.607071 
L 370.893138 134.074704 
" style="fill:none;stroke:#1f77b4;stroke-linecap:square;stroke-width:1.5;"/>
    <g clip-path="url(#p112b648c43)">
     <use style="fill:#1f77b4;stroke:#1f77b4;" x="227.184117" xlink:href="#mc4782450f9" y="130.820122"/>
     <use style="fill:#1f77b4;stroke:#1f77b4;" x="235.637589" xlink:href="#mc4782450f9" y="130.478288"/>
     <use style="fill:#1f77b4;stroke:#1f77b4;" x="244.091061" xlink:href="#mc4782450f9" y="132.598269"/>
     <use style="fill:#1f77b4;stroke:#1f77b4;" x="252.544532" xlink:href="#mc4782450f9" y="137.319769"/>
     <use style="fill:#1f77b4;stroke:#1f77b4;" x="260.998004" xlink:href="#mc4782450f9" y="144.804341"/>
     <use style="fill:#1f77b4;stroke:#1f77b4;" x="269.451476" xlink:href="#mc4782450f9" y="154.874036"/>
     <use style="fill:#1f77b4;stroke:#1f77b4;" x="277.904948" xlink:href="#mc4782450f9" y="167.908782"/>
     <use style="fill:#1f77b4;stroke:#1f77b4;" x="286.35842" xlink:href="#mc4782450f9" y="183.290502"/>
     <use style="fill:#1f77b4;stroke:#1f77b4;" x="294.811892" xlink:href="#mc4782450f9" y="198.192495"/>
     <use style="fill:#1f77b4;stroke:#1f77b4;" x="303.265364" xlink:href="#mc4782450f9" y="208.419481"/>
     <use style="fill:#1f77b4;stroke:#1f77b4;" x="311.718835" xlink:href="#mc4782450f9" y="210.092637"/>
     <use style="fill:#1f77b4;stroke:#1f77b4;" x="320.172307" xlink:href="#mc4782450f9" y="202.656155"/>
     <use style="fill:#1f77b4;stroke:#1f77b4;" x="328.625779" xlink:href="#mc4782450f9" y="188.959135"/>
     <use style="fill:#1f77b4;stroke:#1f77b4;" x="337.079251" xlink:href="#mc4782450f9" y="173.737028"/>
     <use style="fill:#1f77b4;stroke:#1f77b4;" x="345.532723" xlink:href="#mc4782450f9" y="159.228779"/>
     <use style="fill:#1f77b4;stroke:#1f77b4;" x="353.986195" xlink:href="#mc4782450f9" y="147.921729"/>
     <use style="fill:#1f77b4;stroke:#1f77b4;" x="362.439667" xlink:href="#mc4782450f9" y="139.607071"/>
     <use style="fill:#1f77b4;stroke:#1f77b4;" x="370.893138" xlink:href="#mc4782450f9" y="134.074704"/>
    </g>
   </g>
   <g id="line2d_54">
    <path clip-path="url(#p112b648c43)" d="M 227.184117 166.057866 
L 235.637589 154.792635 
L 244.091061 144.283498 
L 252.544532 137.134613 
L 260.998004 132.757434 
L 269.451476 130.644732 
L 277.904948 130.787195 
L 286.35842 133.804983 
L 294.811892 139.599416 
L 303.265364 148.06349 
L 311.718835 159.578834 
L 320.172307 173.395967 
L 328.625779 188.429732 
L 337.079251 201.869553 
L 345.532723 209.620376 
L 353.986195 207.787276 
L 362.439667 197.479792 
L 370.893138 182.436996 
" style="fill:none;stroke:#ff7f0e;stroke-linecap:square;stroke-width:1.5;"/>
    <g clip-path="url(#p112b648c43)">
     <use style="fill:#ff7f0e;stroke:#ff7f0e;" x="227.184117" xlink:href="#maa0320e4b6" y="166.057866"/>
     <use style="fill:#ff7f0e;stroke:#ff7f0e;" x="235.637589" xlink:href="#maa0320e4b6" y="154.792635"/>
     <use style="fill:#ff7f0e;stroke:#ff7f0e;" x="244.091061" xlink:href="#maa0320e4b6" y="144.283498"/>
     <use style="fill:#ff7f0e;stroke:#ff7f0e;" x="252.544532" xlink:href="#maa0320e4b6" y="137.134613"/>
     <use style="fill:#ff7f0e;stroke:#ff7f0e;" x="260.998004" xlink:href="#maa0320e4b6" y="132.757434"/>
     <use style="fill:#ff7f0e;stroke:#ff7f0e;" x="269.451476" xlink:href="#maa0320e4b6" y="130.644732"/>
     <use style="fill:#ff7f0e;stroke:#ff7f0e;" x="277.904948" xlink:href="#maa0320e4b6" y="130.787195"/>
     <use style="fill:#ff7f0e;stroke:#ff7f0e;" x="286.35842" xlink:href="#maa0320e4b6" y="133.804983"/>
     <use style="fill:#ff7f0e;stroke:#ff7f0e;" x="294.811892" xlink:href="#maa0320e4b6" y="139.599416"/>
     <use style="fill:#ff7f0e;stroke:#ff7f0e;" x="303.265364" xlink:href="#maa0320e4b6" y="148.06349"/>
     <use style="fill:#ff7f0e;stroke:#ff7f0e;" x="311.718835" xlink:href="#maa0320e4b6" y="159.578834"/>
     <use style="fill:#ff7f0e;stroke:#ff7f0e;" x="320.172307" xlink:href="#maa0320e4b6" y="173.395967"/>
     <use style="fill:#ff7f0e;stroke:#ff7f0e;" x="328.625779" xlink:href="#maa0320e4b6" y="188.429732"/>
     <use style="fill:#ff7f0e;stroke:#ff7f0e;" x="337.079251" xlink:href="#maa0320e4b6" y="201.869553"/>
     <use style="fill:#ff7f0e;stroke:#ff7f0e;" x="345.532723" xlink:href="#maa0320e4b6" y="209.620376"/>
     <use style="fill:#ff7f0e;stroke:#ff7f0e;" x="353.986195" xlink:href="#maa0320e4b6" y="207.787276"/>
     <use style="fill:#ff7f0e;stroke:#ff7f0e;" x="362.439667" xlink:href="#maa0320e4b6" y="197.479792"/>
     <use style="fill:#ff7f0e;stroke:#ff7f0e;" x="370.893138" xlink:href="#maa0320e4b6" y="182.436996"/>
    </g>
   </g>
   <g id="line2d_55">
    <path clip-path="url(#p112b648c43)" d="M 227.184117 209.460331 
L 235.637589 210.355789 
L 244.091061 202.417868 
L 252.544532 188.666326 
L 260.998004 173.433426 
L 269.451476 159.375391 
L 277.904948 147.602066 
L 286.35842 139.201818 
L 294.811892 133.796874 
L 303.265364 130.890991 
L 311.718835 130.843313 
L 320.172307 132.869911 
L 328.625779 137.152971 
L 337.079251 144.25805 
L 345.532723 154.863451 
L 353.986195 167.920607 
L 362.439667 183.17811 
L 370.893138 198.127237 
" style="fill:none;stroke:#2ca02c;stroke-linecap:square;stroke-width:1.5;"/>
    <g clip-path="url(#p112b648c43)">
     <use style="fill:#2ca02c;stroke:#2ca02c;" x="227.184117" xlink:href="#mceb2879a42" y="209.460331"/>
     <use style="fill:#2ca02c;stroke:#2ca02c;" x="235.637589" xlink:href="#mceb2879a42" y="210.355789"/>
     <use style="fill:#2ca02c;stroke:#2ca02c;" x="244.091061" xlink:href="#mceb2879a42" y="202.417868"/>
     <use style="fill:#2ca02c;stroke:#2ca02c;" x="252.544532" xlink:href="#mceb2879a42" y="188.666326"/>
     <use style="fill:#2ca02c;stroke:#2ca02c;" x="260.998004" xlink:href="#mceb2879a42" y="173.433426"/>
     <use style="fill:#2ca02c;stroke:#2ca02c;" x="269.451476" xlink:href="#mceb2879a42" y="159.375391"/>
     <use style="fill:#2ca02c;stroke:#2ca02c;" x="277.904948" xlink:href="#mceb2879a42" y="147.602066"/>
     <use style="fill:#2ca02c;stroke:#2ca02c;" x="286.35842" xlink:href="#mceb2879a42" y="139.201818"/>
     <use style="fill:#2ca02c;stroke:#2ca02c;" x="294.811892" xlink:href="#mceb2879a42" y="133.796874"/>
     <use style="fill:#2ca02c;stroke:#2ca02c;" x="303.265364" xlink:href="#mceb2879a42" y="130.890991"/>
     <use style="fill:#2ca02c;stroke:#2ca02c;" x="311.718835" xlink:href="#mceb2879a42" y="130.843313"/>
     <use style="fill:#2ca02c;stroke:#2ca02c;" x="320.172307" xlink:href="#mceb2879a42" y="132.869911"/>
     <use style="fill:#2ca02c;stroke:#2ca02c;" x="328.625779" xlink:href="#mceb2879a42" y="137.152971"/>
     <use style="fill:#2ca02c;stroke:#2ca02c;" x="337.079251" xlink:href="#mceb2879a42" y="144.25805"/>
     <use style="fill:#2ca02c;stroke:#2ca02c;" x="345.532723" xlink:href="#mceb2879a42" y="154.863451"/>
     <use style="fill:#2ca02c;stroke:#2ca02c;" x="353.986195" xlink:href="#mceb2879a42" y="167.920607"/>
     <use style="fill:#2ca02c;stroke:#2ca02c;" x="362.439667" xlink:href="#mceb2879a42" y="183.17811"/>
     <use style="fill:#2ca02c;stroke:#2ca02c;" x="370.893138" xlink:href="#mceb2879a42" y="198.127237"/>
    </g>
   </g>
   <g id="line2d_56">
    <path clip-path="url(#p112b648c43)" d="M 227.184117 147.98859 
L 235.637589 157.794193 
L 244.091061 172.097797 
L 252.544532 187.566917 
L 260.998004 201.661076 
L 269.451476 209.942535 
L 277.904948 209.07322 
L 286.35842 199.218123 
L 294.811892 184.486588 
L 303.265364 168.970479 
L 311.718835 156.031192 
L 320.172307 145.474064 
L 328.625779 137.527844 
L 337.079251 132.659231 
L 345.532723 130.341677 
L 353.986195 130.548957 
L 362.439667 133.380452 
L 370.893138 138.984053 
" style="fill:none;stroke:#d62728;stroke-linecap:square;stroke-width:1.5;"/>
    <g clip-path="url(#p112b648c43)">
     <use style="fill:#d62728;stroke:#d62728;" x="227.184117" xlink:href="#mab24c383d3" y="147.98859"/>
     <use style="fill:#d62728;stroke:#d62728;" x="235.637589" xlink:href="#mab24c383d3" y="157.794193"/>
     <use style="fill:#d62728;stroke:#d62728;" x="244.091061" xlink:href="#mab24c383d3" y="172.097797"/>
     <use style="fill:#d62728;stroke:#d62728;" x="252.544532" xlink:href="#mab24c383d3" y="187.566917"/>
     <use style="fill:#d62728;stroke:#d62728;" x="260.998004" xlink:href="#mab24c383d3" y="201.661076"/>
     <use style="fill:#d62728;stroke:#d62728;" x="269.451476" xlink:href="#mab24c383d3" y="209.942535"/>
     <use style="fill:#d62728;stroke:#d62728;" x="277.904948" xlink:href="#mab24c383d3" y="209.07322"/>
     <use style="fill:#d62728;stroke:#d62728;" x="286.35842" xlink:href="#mab24c383d3" y="199.218123"/>
     <use style="fill:#d62728;stroke:#d62728;" x="294.811892" xlink:href="#mab24c383d3" y="184.486588"/>
     <use style="fill:#d62728;stroke:#d62728;" x="303.265364" xlink:href="#mab24c383d3" y="168.970479"/>
     <use style="fill:#d62728;stroke:#d62728;" x="311.718835" xlink:href="#mab24c383d3" y="156.031192"/>
     <use style="fill:#d62728;stroke:#d62728;" x="320.172307" xlink:href="#mab24c383d3" y="145.474064"/>
     <use style="fill:#d62728;stroke:#d62728;" x="328.625779" xlink:href="#mab24c383d3" y="137.527844"/>
     <use style="fill:#d62728;stroke:#d62728;" x="337.079251" xlink:href="#mab24c383d3" y="132.659231"/>
     <use style="fill:#d62728;stroke:#d62728;" x="345.532723" xlink:href="#mab24c383d3" y="130.341677"/>
     <use style="fill:#d62728;stroke:#d62728;" x="353.986195" xlink:href="#mab24c383d3" y="130.548957"/>
     <use style="fill:#d62728;stroke:#d62728;" x="362.439667" xlink:href="#mab24c383d3" y="133.380452"/>
     <use style="fill:#d62728;stroke:#d62728;" x="370.893138" xlink:href="#mab24c383d3" y="138.984053"/>
    </g>
   </g>
   <g id="patch_19">
    <path d="M 219.575992 215.111427 
L 219.575992 125.820267 
" style="fill:none;stroke:#000000;stroke-linecap:square;stroke-linejoin:miter;stroke-width:0.8;"/>
   </g>
   <g id="patch_20">
    <path d="M 386.954735 215.111427 
L 386.954735 125.820267 
" style="fill:none;stroke:#000000;stroke-linecap:square;stroke-linejoin:miter;stroke-width:0.8;"/>
   </g>
   <g id="patch_21">
    <path d="M 219.575992 215.111427 
L 386.954735 215.111427 
" style="fill:none;stroke:#000000;stroke-linecap:square;stroke-linejoin:miter;stroke-width:0.8;"/>
   </g>
   <g id="patch_22">
    <path d="M 219.575992 125.820267 
L 386.954735 125.820267 
" style="fill:none;stroke:#000000;stroke-linecap:square;stroke-linejoin:miter;stroke-width:0.8;"/>
   </g>
   <g id="legend_2">
    <g id="patch_23">
     <path d="M 349.102235 174.654642 
L 382.754735 174.654642 
Q 383.954735 174.654642 383.954735 173.454642 
L 383.954735 130.020267 
Q 383.954735 128.820267 382.754735 128.820267 
L 349.102235 128.820267 
Q 347.902235 128.820267 347.902235 130.020267 
L 347.902235 173.454642 
Q 347.902235 174.654642 349.102235 174.654642 
z
" style="fill:#ffffff;opacity:0.8;stroke:#cccccc;stroke-linejoin:miter;"/>
    </g>
    <g id="text_29">
     <!-- P2 angle -->
     <g transform="translate(352.933797 135.779329)scale(0.06 -0.06)">
      <use xlink:href="#DejaVuSans-80"/>
      <use x="60.302734" xlink:href="#DejaVuSans-50"/>
      <use x="123.925781" xlink:href="#DejaVuSans-32"/>
      <use x="155.712891" xlink:href="#DejaVuSans-97"/>
      <use x="216.992188" xlink:href="#DejaVuSans-110"/>
      <use x="280.371094" xlink:href="#DejaVuSans-103"/>
      <use x="343.847656" xlink:href="#DejaVuSans-108"/>
      <use x="371.630859" xlink:href="#DejaVuSans-101"/>
     </g>
    </g>
    <g id="line2d_57">
     <path d="M 350.302235 142.486205 
L 362.302235 142.486205 
" style="fill:none;stroke:#1f77b4;stroke-linecap:square;stroke-width:1.5;"/>
    </g>
    <g id="line2d_58">
     <g>
      <use style="fill:#1f77b4;stroke:#1f77b4;" x="356.302235" xlink:href="#mc4782450f9" y="142.486205"/>
     </g>
    </g>
    <g id="text_30">
     <!-- 0 -->
     <g transform="translate(367.102235 144.586205)scale(0.06 -0.06)">
      <defs>
       <path d="M 25 67.921875 
Q 21.09375 67.921875 18.40625 65.203125 
Q 15.71875 62.5 15.71875 58.59375 
Q 15.71875 54.734375 18.40625 52.078125 
Q 21.09375 49.421875 25 49.421875 
Q 28.90625 49.421875 31.59375 52.078125 
Q 34.28125 54.734375 34.28125 58.59375 
Q 34.28125 62.453125 31.5625 65.1875 
Q 28.859375 67.921875 25 67.921875 
z
M 25 74.21875 
Q 28.125 74.21875 31 73.015625 
Q 33.890625 71.828125 35.984375 69.578125 
Q 38.234375 67.390625 39.359375 64.59375 
Q 40.484375 61.8125 40.484375 58.59375 
Q 40.484375 52.15625 35.96875 47.6875 
Q 31.453125 43.21875 24.90625 43.21875 
Q 18.3125 43.21875 13.90625 47.609375 
Q 9.515625 52 9.515625 58.59375 
Q 9.515625 65.140625 14 69.671875 
Q 18.5 74.21875 25 74.21875 
z
" id="DejaVuSans-176"/>
      </defs>
      <use xlink:href="#DejaVuSans-48"/>
      <use x="63.623047" xlink:href="#DejaVuSans-176"/>
     </g>
    </g>
    <g id="line2d_59">
     <path d="M 350.302235 151.29308 
L 362.302235 151.29308 
" style="fill:none;stroke:#ff7f0e;stroke-linecap:square;stroke-width:1.5;"/>
    </g>
    <g id="line2d_60">
     <g>
      <use style="fill:#ff7f0e;stroke:#ff7f0e;" x="356.302235" xlink:href="#maa0320e4b6" y="151.29308"/>
     </g>
    </g>
    <g id="text_31">
     <!-- 45 -->
     <g transform="translate(367.102235 153.393079)scale(0.06 -0.06)">
      <use xlink:href="#DejaVuSans-52"/>
      <use x="63.623047" xlink:href="#DejaVuSans-53"/>
      <use x="127.246094" xlink:href="#DejaVuSans-176"/>
     </g>
    </g>
    <g id="line2d_61">
     <path d="M 350.302235 160.099954 
L 362.302235 160.099954 
" style="fill:none;stroke:#2ca02c;stroke-linecap:square;stroke-width:1.5;"/>
    </g>
    <g id="line2d_62">
     <g>
      <use style="fill:#2ca02c;stroke:#2ca02c;" x="356.302235" xlink:href="#mceb2879a42" y="160.099954"/>
     </g>
    </g>
    <g id="text_32">
     <!-- 90 -->
     <g transform="translate(367.102235 162.199954)scale(0.06 -0.06)">
      <use xlink:href="#DejaVuSans-57"/>
      <use x="63.623047" xlink:href="#DejaVuSans-48"/>
      <use x="127.246094" xlink:href="#DejaVuSans-176"/>
     </g>
    </g>
    <g id="line2d_63">
     <path d="M 350.302235 168.906829 
L 362.302235 168.906829 
" style="fill:none;stroke:#d62728;stroke-linecap:square;stroke-width:1.5;"/>
    </g>
    <g id="line2d_64">
     <g>
      <use style="fill:#d62728;stroke:#d62728;" x="356.302235" xlink:href="#mab24c383d3" y="168.906829"/>
     </g>
    </g>
    <g id="text_33">
     <!-- 135 -->
     <g transform="translate(367.102235 171.006829)scale(0.06 -0.06)">
      <use xlink:href="#DejaVuSans-49"/>
      <use x="63.623047" xlink:href="#DejaVuSans-51"/>
      <use x="127.246094" xlink:href="#DejaVuSans-53"/>
      <use x="190.869141" xlink:href="#DejaVuSans-176"/>
     </g>
    </g>
   </g>
  </g>
 </g>
 <defs>
  <clipPath id="p6b5b995f4b">
   <rect height="89.29116" width="167.378743" x="35.459375" y="18.670875"/>
  </clipPath>
  <clipPath id="p54adf1e80c">
   <rect height="89.29116" width="167.378743" x="219.575992" y="18.670875"/>
  </clipPath>
  <clipPath id="p70f43d06a0">
   <rect height="89.29116" width="167.378743" x="35.459375" y="125.820267"/>
  </clipPath>
  <clipPath id="p112b648c43">
   <rect height="89.29116" width="167.378743" x="219.575992" y="125.820267"/>
  </clipPath>
 </defs>
</svg>
