<?xml version="1.0" encoding="utf-8" standalone="no"?>
<!DOCTYPE svg PUBLIC "-//W3C//DTD SVG 1.1//EN"
  "http://www.w3.org/Graphics/SVG/1.1/DTD/svg11.dtd">
<!-- Created with matplotlib (https://matplotlib.org/) -->
<svg height="134.918468pt" version="1.1" viewBox="0 0 392.257235 134.918468" width="392.257235pt" xmlns="http://www.w3.org/2000/svg" xmlns:xlink="http://www.w3.org/1999/xlink">
 <metadata>
  <rdf:RDF xmlns:cc="http://creativecommons.org/ns#" xmlns:dc="http://purl.org/dc/elements/1.1/" xmlns:rdf="http://www.w3.org/1999/02/22-rdf-syntax-ns#">
   <cc:Work>
    <dc:type rdf:resource="http://purl.org/dc/dcmitype/StillImage"/>
    <dc:date>2021-04-17T18:30:50.802673</dc:date>
    <dc:format>image/svg+xml</dc:format>
    <dc:creator>
     <cc:Agent>
      <dc:title>Matplotlib v3.3.4, https://matplotlib.org/</dc:title>
     </cc:Agent>
    </dc:creator>
   </cc:Work>
  </rdf:RDF>
 </metadata>
 <defs>
  <style type="text/css">*{stroke-linecap:butt;stroke-linejoin:round;}</style>
 </defs>
 <g id="figure_1">
  <g id="patch_1">
   <path d="M 0 134.918468 
L 392.257235 134.918468 
L 392.257235 0 
L 0 0 
z
" style="fill:#ffffff;"/>
  </g>
  <g id="axes_1">
   <g id="patch_2">
    <path d="M 33.561875 105.104718 
L 109.97391 105.104718 
L 109.97391 18.670875 
L 33.561875 18.670875 
z
" style="fill:#ffffff;"/>
   </g>
   <g id="matplotlib.axis_1">
    <g id="xtick_1">
     <g id="line2d_1">
      <defs>
       <path d="M 0 0 
L 0 3.5 
" id="ma5b3148c54" style="stroke:#000000;stroke-width:0.8;"/>
      </defs>
      <g>
       <use style="stroke:#000000;stroke-width:0.8;" x="37.035149" xlink:href="#ma5b3148c54" y="105.104718"/>
      </g>
     </g>
     <g id="text_1">
      <!-- −1 -->
      <g transform="translate(32.612493 116.66378)scale(0.06 -0.06)">
       <defs>
        <path d="M 10.59375 35.5 
L 73.1875 35.5 
L 73.1875 27.203125 
L 10.59375 27.203125 
z
" id="DejaVuSans-8722"/>
        <path d="M 12.40625 8.296875 
L 28.515625 8.296875 
L 28.515625 63.921875 
L 10.984375 60.40625 
L 10.984375 69.390625 
L 28.421875 72.90625 
L 38.28125 72.90625 
L 38.28125 8.296875 
L 54.390625 8.296875 
L 54.390625 0 
L 12.40625 0 
z
" id="DejaVuSans-49"/>
       </defs>
       <use xlink:href="#DejaVuSans-8722"/>
       <use x="83.789062" xlink:href="#DejaVuSans-49"/>
      </g>
     </g>
    </g>
    <g id="xtick_2">
     <g id="line2d_2">
      <g>
       <use style="stroke:#000000;stroke-width:0.8;" x="54.401521" xlink:href="#ma5b3148c54" y="105.104718"/>
      </g>
     </g>
     <g id="text_2">
      <!-- 0 -->
      <g transform="translate(52.492771 116.66378)scale(0.06 -0.06)">
       <defs>
        <path d="M 31.78125 66.40625 
Q 24.171875 66.40625 20.328125 58.90625 
Q 16.5 51.421875 16.5 36.375 
Q 16.5 21.390625 20.328125 13.890625 
Q 24.171875 6.390625 31.78125 6.390625 
Q 39.453125 6.390625 43.28125 13.890625 
Q 47.125 21.390625 47.125 36.375 
Q 47.125 51.421875 43.28125 58.90625 
Q 39.453125 66.40625 31.78125 66.40625 
z
M 31.78125 74.21875 
Q 44.046875 74.21875 50.515625 64.515625 
Q 56.984375 54.828125 56.984375 36.375 
Q 56.984375 17.96875 50.515625 8.265625 
Q 44.046875 -1.421875 31.78125 -1.421875 
Q 19.53125 -1.421875 13.0625 8.265625 
Q 6.59375 17.96875 6.59375 36.375 
Q 6.59375 54.828125 13.0625 64.515625 
Q 19.53125 74.21875 31.78125 74.21875 
z
" id="DejaVuSans-48"/>
       </defs>
       <use xlink:href="#DejaVuSans-48"/>
      </g>
     </g>
    </g>
    <g id="xtick_3">
     <g id="line2d_3">
      <g>
       <use style="stroke:#000000;stroke-width:0.8;" x="71.767892" xlink:href="#ma5b3148c54" y="105.104718"/>
      </g>
     </g>
     <g id="text_3">
      <!-- 1 -->
      <g transform="translate(69.859142 116.66378)scale(0.06 -0.06)">
       <use xlink:href="#DejaVuSans-49"/>
      </g>
     </g>
    </g>
    <g id="xtick_4">
     <g id="line2d_4">
      <g>
       <use style="stroke:#000000;stroke-width:0.8;" x="89.134264" xlink:href="#ma5b3148c54" y="105.104718"/>
      </g>
     </g>
     <g id="text_4">
      <!-- 2 -->
      <g transform="translate(87.225514 116.66378)scale(0.06 -0.06)">
       <defs>
        <path d="M 19.1875 8.296875 
L 53.609375 8.296875 
L 53.609375 0 
L 7.328125 0 
L 7.328125 8.296875 
Q 12.9375 14.109375 22.625 23.890625 
Q 32.328125 33.6875 34.8125 36.53125 
Q 39.546875 41.84375 41.421875 45.53125 
Q 43.3125 49.21875 43.3125 52.78125 
Q 43.3125 58.59375 39.234375 62.25 
Q 35.15625 65.921875 28.609375 65.921875 
Q 23.96875 65.921875 18.8125 64.3125 
Q 13.671875 62.703125 7.8125 59.421875 
L 7.8125 69.390625 
Q 13.765625 71.78125 18.9375 73 
Q 24.125 74.21875 28.421875 74.21875 
Q 39.75 74.21875 46.484375 68.546875 
Q 53.21875 62.890625 53.21875 53.421875 
Q 53.21875 48.921875 51.53125 44.890625 
Q 49.859375 40.875 45.40625 35.40625 
Q 44.1875 33.984375 37.640625 27.21875 
Q 31.109375 20.453125 19.1875 8.296875 
z
" id="DejaVuSans-50"/>
       </defs>
       <use xlink:href="#DejaVuSans-50"/>
      </g>
     </g>
    </g>
    <g id="xtick_5">
     <g id="line2d_5">
      <g>
       <use style="stroke:#000000;stroke-width:0.8;" x="106.500635" xlink:href="#ma5b3148c54" y="105.104718"/>
      </g>
     </g>
     <g id="text_5">
      <!-- 3 -->
      <g transform="translate(104.591885 116.66378)scale(0.06 -0.06)">
       <defs>
        <path d="M 40.578125 39.3125 
Q 47.65625 37.796875 51.625 33 
Q 55.609375 28.21875 55.609375 21.1875 
Q 55.609375 10.40625 48.1875 4.484375 
Q 40.765625 -1.421875 27.09375 -1.421875 
Q 22.515625 -1.421875 17.65625 -0.515625 
Q 12.796875 0.390625 7.625 2.203125 
L 7.625 11.71875 
Q 11.71875 9.328125 16.59375 8.109375 
Q 21.484375 6.890625 26.8125 6.890625 
Q 36.078125 6.890625 40.9375 10.546875 
Q 45.796875 14.203125 45.796875 21.1875 
Q 45.796875 27.640625 41.28125 31.265625 
Q 36.765625 34.90625 28.71875 34.90625 
L 20.21875 34.90625 
L 20.21875 43.015625 
L 29.109375 43.015625 
Q 36.375 43.015625 40.234375 45.921875 
Q 44.09375 48.828125 44.09375 54.296875 
Q 44.09375 59.90625 40.109375 62.90625 
Q 36.140625 65.921875 28.71875 65.921875 
Q 24.65625 65.921875 20.015625 65.03125 
Q 15.375 64.15625 9.8125 62.3125 
L 9.8125 71.09375 
Q 15.4375 72.65625 20.34375 73.4375 
Q 25.25 74.21875 29.59375 74.21875 
Q 40.828125 74.21875 47.359375 69.109375 
Q 53.90625 64.015625 53.90625 55.328125 
Q 53.90625 49.265625 50.4375 45.09375 
Q 46.96875 40.921875 40.578125 39.3125 
z
" id="DejaVuSans-51"/>
       </defs>
       <use xlink:href="#DejaVuSans-51"/>
      </g>
     </g>
    </g>
    <g id="text_6">
     <!-- Distance (1.22 λ / NA) -->
     <g transform="translate(38.733205 126.470655)scale(0.06 -0.06)">
      <defs>
       <path d="M 19.671875 64.796875 
L 19.671875 8.109375 
L 31.59375 8.109375 
Q 46.6875 8.109375 53.6875 14.9375 
Q 60.6875 21.78125 60.6875 36.53125 
Q 60.6875 51.171875 53.6875 57.984375 
Q 46.6875 64.796875 31.59375 64.796875 
z
M 9.8125 72.90625 
L 30.078125 72.90625 
Q 51.265625 72.90625 61.171875 64.09375 
Q 71.09375 55.28125 71.09375 36.53125 
Q 71.09375 17.671875 61.125 8.828125 
Q 51.171875 0 30.078125 0 
L 9.8125 0 
z
" id="DejaVuSans-68"/>
       <path d="M 9.421875 54.6875 
L 18.40625 54.6875 
L 18.40625 0 
L 9.421875 0 
z
M 9.421875 75.984375 
L 18.40625 75.984375 
L 18.40625 64.59375 
L 9.421875 64.59375 
z
" id="DejaVuSans-105"/>
       <path d="M 44.28125 53.078125 
L 44.28125 44.578125 
Q 40.484375 46.53125 36.375 47.5 
Q 32.28125 48.484375 27.875 48.484375 
Q 21.1875 48.484375 17.84375 46.4375 
Q 14.5 44.390625 14.5 40.28125 
Q 14.5 37.15625 16.890625 35.375 
Q 19.28125 33.59375 26.515625 31.984375 
L 29.59375 31.296875 
Q 39.15625 29.25 43.1875 25.515625 
Q 47.21875 21.78125 47.21875 15.09375 
Q 47.21875 7.46875 41.1875 3.015625 
Q 35.15625 -1.421875 24.609375 -1.421875 
Q 20.21875 -1.421875 15.453125 -0.5625 
Q 10.6875 0.296875 5.421875 2 
L 5.421875 11.28125 
Q 10.40625 8.6875 15.234375 7.390625 
Q 20.0625 6.109375 24.8125 6.109375 
Q 31.15625 6.109375 34.5625 8.28125 
Q 37.984375 10.453125 37.984375 14.40625 
Q 37.984375 18.0625 35.515625 20.015625 
Q 33.0625 21.96875 24.703125 23.78125 
L 21.578125 24.515625 
Q 13.234375 26.265625 9.515625 29.90625 
Q 5.8125 33.546875 5.8125 39.890625 
Q 5.8125 47.609375 11.28125 51.796875 
Q 16.75 56 26.8125 56 
Q 31.78125 56 36.171875 55.265625 
Q 40.578125 54.546875 44.28125 53.078125 
z
" id="DejaVuSans-115"/>
       <path d="M 18.3125 70.21875 
L 18.3125 54.6875 
L 36.8125 54.6875 
L 36.8125 47.703125 
L 18.3125 47.703125 
L 18.3125 18.015625 
Q 18.3125 11.328125 20.140625 9.421875 
Q 21.96875 7.515625 27.59375 7.515625 
L 36.8125 7.515625 
L 36.8125 0 
L 27.59375 0 
Q 17.1875 0 13.234375 3.875 
Q 9.28125 7.765625 9.28125 18.015625 
L 9.28125 47.703125 
L 2.6875 47.703125 
L 2.6875 54.6875 
L 9.28125 54.6875 
L 9.28125 70.21875 
z
" id="DejaVuSans-116"/>
       <path d="M 34.28125 27.484375 
Q 23.390625 27.484375 19.1875 25 
Q 14.984375 22.515625 14.984375 16.5 
Q 14.984375 11.71875 18.140625 8.90625 
Q 21.296875 6.109375 26.703125 6.109375 
Q 34.1875 6.109375 38.703125 11.40625 
Q 43.21875 16.703125 43.21875 25.484375 
L 43.21875 27.484375 
z
M 52.203125 31.203125 
L 52.203125 0 
L 43.21875 0 
L 43.21875 8.296875 
Q 40.140625 3.328125 35.546875 0.953125 
Q 30.953125 -1.421875 24.3125 -1.421875 
Q 15.921875 -1.421875 10.953125 3.296875 
Q 6 8.015625 6 15.921875 
Q 6 25.140625 12.171875 29.828125 
Q 18.359375 34.515625 30.609375 34.515625 
L 43.21875 34.515625 
L 43.21875 35.40625 
Q 43.21875 41.609375 39.140625 45 
Q 35.0625 48.390625 27.6875 48.390625 
Q 23 48.390625 18.546875 47.265625 
Q 14.109375 46.140625 10.015625 43.890625 
L 10.015625 52.203125 
Q 14.9375 54.109375 19.578125 55.046875 
Q 24.21875 56 28.609375 56 
Q 40.484375 56 46.34375 49.84375 
Q 52.203125 43.703125 52.203125 31.203125 
z
" id="DejaVuSans-97"/>
       <path d="M 54.890625 33.015625 
L 54.890625 0 
L 45.90625 0 
L 45.90625 32.71875 
Q 45.90625 40.484375 42.875 44.328125 
Q 39.84375 48.1875 33.796875 48.1875 
Q 26.515625 48.1875 22.3125 43.546875 
Q 18.109375 38.921875 18.109375 30.90625 
L 18.109375 0 
L 9.078125 0 
L 9.078125 54.6875 
L 18.109375 54.6875 
L 18.109375 46.1875 
Q 21.34375 51.125 25.703125 53.5625 
Q 30.078125 56 35.796875 56 
Q 45.21875 56 50.046875 50.171875 
Q 54.890625 44.34375 54.890625 33.015625 
z
" id="DejaVuSans-110"/>
       <path d="M 48.78125 52.59375 
L 48.78125 44.1875 
Q 44.96875 46.296875 41.140625 47.34375 
Q 37.3125 48.390625 33.40625 48.390625 
Q 24.65625 48.390625 19.8125 42.84375 
Q 14.984375 37.3125 14.984375 27.296875 
Q 14.984375 17.28125 19.8125 11.734375 
Q 24.65625 6.203125 33.40625 6.203125 
Q 37.3125 6.203125 41.140625 7.25 
Q 44.96875 8.296875 48.78125 10.40625 
L 48.78125 2.09375 
Q 45.015625 0.34375 40.984375 -0.53125 
Q 36.96875 -1.421875 32.421875 -1.421875 
Q 20.0625 -1.421875 12.78125 6.34375 
Q 5.515625 14.109375 5.515625 27.296875 
Q 5.515625 40.671875 12.859375 48.328125 
Q 20.21875 56 33.015625 56 
Q 37.15625 56 41.109375 55.140625 
Q 45.0625 54.296875 48.78125 52.59375 
z
" id="DejaVuSans-99"/>
       <path d="M 56.203125 29.59375 
L 56.203125 25.203125 
L 14.890625 25.203125 
Q 15.484375 15.921875 20.484375 11.0625 
Q 25.484375 6.203125 34.421875 6.203125 
Q 39.59375 6.203125 44.453125 7.46875 
Q 49.3125 8.734375 54.109375 11.28125 
L 54.109375 2.78125 
Q 49.265625 0.734375 44.1875 -0.34375 
Q 39.109375 -1.421875 33.890625 -1.421875 
Q 20.796875 -1.421875 13.15625 6.1875 
Q 5.515625 13.8125 5.515625 26.8125 
Q 5.515625 40.234375 12.765625 48.109375 
Q 20.015625 56 32.328125 56 
Q 43.359375 56 49.78125 48.890625 
Q 56.203125 41.796875 56.203125 29.59375 
z
M 47.21875 32.234375 
Q 47.125 39.59375 43.09375 43.984375 
Q 39.0625 48.390625 32.421875 48.390625 
Q 24.90625 48.390625 20.390625 44.140625 
Q 15.875 39.890625 15.1875 32.171875 
z
" id="DejaVuSans-101"/>
       <path id="DejaVuSans-32"/>
       <path d="M 31 75.875 
Q 24.46875 64.65625 21.28125 53.65625 
Q 18.109375 42.671875 18.109375 31.390625 
Q 18.109375 20.125 21.3125 9.0625 
Q 24.515625 -2 31 -13.1875 
L 23.1875 -13.1875 
Q 15.875 -1.703125 12.234375 9.375 
Q 8.59375 20.453125 8.59375 31.390625 
Q 8.59375 42.28125 12.203125 53.3125 
Q 15.828125 64.359375 23.1875 75.875 
z
" id="DejaVuSans-40"/>
       <path d="M 10.6875 12.40625 
L 21 12.40625 
L 21 0 
L 10.6875 0 
z
" id="DejaVuSans-46"/>
       <path d="M 30.953125 67.4375 
L 56.203125 0 
L 46.6875 0 
L 31.34375 40.4375 
L 12.5 0 
L 2.984375 0 
L 26.953125 52.4375 
L 23.34375 62.109375 
Q 21.046875 68.265625 15.828125 68.265625 
L 11.140625 68.265625 
L 11.140625 75.984375 
L 16.84375 75.875 
Q 27.875 75.734375 30.953125 67.4375 
z
" id="DejaVuSans-955"/>
       <path d="M 25.390625 72.90625 
L 33.6875 72.90625 
L 8.296875 -9.28125 
L 0 -9.28125 
z
" id="DejaVuSans-47"/>
       <path d="M 9.8125 72.90625 
L 23.09375 72.90625 
L 55.421875 11.921875 
L 55.421875 72.90625 
L 64.984375 72.90625 
L 64.984375 0 
L 51.703125 0 
L 19.390625 60.984375 
L 19.390625 0 
L 9.8125 0 
z
" id="DejaVuSans-78"/>
       <path d="M 34.1875 63.1875 
L 20.796875 26.90625 
L 47.609375 26.90625 
z
M 28.609375 72.90625 
L 39.796875 72.90625 
L 67.578125 0 
L 57.328125 0 
L 50.6875 18.703125 
L 17.828125 18.703125 
L 11.1875 0 
L 0.78125 0 
z
" id="DejaVuSans-65"/>
       <path d="M 8.015625 75.875 
L 15.828125 75.875 
Q 23.140625 64.359375 26.78125 53.3125 
Q 30.421875 42.28125 30.421875 31.390625 
Q 30.421875 20.453125 26.78125 9.375 
Q 23.140625 -1.703125 15.828125 -13.1875 
L 8.015625 -13.1875 
Q 14.5 -2 17.703125 9.0625 
Q 20.90625 20.125 20.90625 31.390625 
Q 20.90625 42.671875 17.703125 53.65625 
Q 14.5 64.65625 8.015625 75.875 
z
" id="DejaVuSans-41"/>
      </defs>
      <use xlink:href="#DejaVuSans-68"/>
      <use x="77.001953" xlink:href="#DejaVuSans-105"/>
      <use x="104.785156" xlink:href="#DejaVuSans-115"/>
      <use x="156.884766" xlink:href="#DejaVuSans-116"/>
      <use x="196.09375" xlink:href="#DejaVuSans-97"/>
      <use x="257.373047" xlink:href="#DejaVuSans-110"/>
      <use x="320.751953" xlink:href="#DejaVuSans-99"/>
      <use x="375.732422" xlink:href="#DejaVuSans-101"/>
      <use x="437.255859" xlink:href="#DejaVuSans-32"/>
      <use x="469.042969" xlink:href="#DejaVuSans-40"/>
      <use x="508.056641" xlink:href="#DejaVuSans-49"/>
      <use x="571.679688" xlink:href="#DejaVuSans-46"/>
      <use x="603.466797" xlink:href="#DejaVuSans-50"/>
      <use x="667.089844" xlink:href="#DejaVuSans-50"/>
      <use x="730.712891" xlink:href="#DejaVuSans-32"/>
      <use x="762.5" xlink:href="#DejaVuSans-955"/>
      <use x="821.679688" xlink:href="#DejaVuSans-32"/>
      <use x="853.466797" xlink:href="#DejaVuSans-47"/>
      <use x="887.158203" xlink:href="#DejaVuSans-32"/>
      <use x="918.945312" xlink:href="#DejaVuSans-78"/>
      <use x="993.75" xlink:href="#DejaVuSans-65"/>
      <use x="1062.158203" xlink:href="#DejaVuSans-41"/>
     </g>
    </g>
   </g>
   <g id="matplotlib.axis_2">
    <g id="ytick_1">
     <g id="line2d_6">
      <defs>
       <path d="M 0 0 
L -3.5 0 
" id="m6355e1838f" style="stroke:#000000;stroke-width:0.8;"/>
      </defs>
      <g>
       <use style="stroke:#000000;stroke-width:0.8;" x="33.561875" xlink:href="#m6355e1838f" y="101.780339"/>
      </g>
     </g>
     <g id="text_7">
      <!-- 0.0 -->
      <g transform="translate(17.02 104.059871)scale(0.06 -0.06)">
       <use xlink:href="#DejaVuSans-48"/>
       <use x="63.623047" xlink:href="#DejaVuSans-46"/>
       <use x="95.410156" xlink:href="#DejaVuSans-48"/>
      </g>
     </g>
    </g>
    <g id="ytick_2">
     <g id="line2d_7">
      <g>
       <use style="stroke:#000000;stroke-width:0.8;" x="33.561875" xlink:href="#m6355e1838f" y="88.482825"/>
      </g>
     </g>
     <g id="text_8">
      <!-- 0.2 -->
      <g transform="translate(17.02 90.762356)scale(0.06 -0.06)">
       <use xlink:href="#DejaVuSans-48"/>
       <use x="63.623047" xlink:href="#DejaVuSans-46"/>
       <use x="95.410156" xlink:href="#DejaVuSans-50"/>
      </g>
     </g>
    </g>
    <g id="ytick_3">
     <g id="line2d_8">
      <g>
       <use style="stroke:#000000;stroke-width:0.8;" x="33.561875" xlink:href="#m6355e1838f" y="75.185311"/>
      </g>
     </g>
     <g id="text_9">
      <!-- 0.4 -->
      <g transform="translate(17.02 77.464842)scale(0.06 -0.06)">
       <defs>
        <path d="M 37.796875 64.3125 
L 12.890625 25.390625 
L 37.796875 25.390625 
z
M 35.203125 72.90625 
L 47.609375 72.90625 
L 47.609375 25.390625 
L 58.015625 25.390625 
L 58.015625 17.1875 
L 47.609375 17.1875 
L 47.609375 0 
L 37.796875 0 
L 37.796875 17.1875 
L 4.890625 17.1875 
L 4.890625 26.703125 
z
" id="DejaVuSans-52"/>
       </defs>
       <use xlink:href="#DejaVuSans-48"/>
       <use x="63.623047" xlink:href="#DejaVuSans-46"/>
       <use x="95.410156" xlink:href="#DejaVuSans-52"/>
      </g>
     </g>
    </g>
    <g id="ytick_4">
     <g id="line2d_9">
      <g>
       <use style="stroke:#000000;stroke-width:0.8;" x="33.561875" xlink:href="#m6355e1838f" y="61.887796"/>
      </g>
     </g>
     <g id="text_10">
      <!-- 0.6 -->
      <g transform="translate(17.02 64.167328)scale(0.06 -0.06)">
       <defs>
        <path d="M 33.015625 40.375 
Q 26.375 40.375 22.484375 35.828125 
Q 18.609375 31.296875 18.609375 23.390625 
Q 18.609375 15.53125 22.484375 10.953125 
Q 26.375 6.390625 33.015625 6.390625 
Q 39.65625 6.390625 43.53125 10.953125 
Q 47.40625 15.53125 47.40625 23.390625 
Q 47.40625 31.296875 43.53125 35.828125 
Q 39.65625 40.375 33.015625 40.375 
z
M 52.59375 71.296875 
L 52.59375 62.3125 
Q 48.875 64.0625 45.09375 64.984375 
Q 41.3125 65.921875 37.59375 65.921875 
Q 27.828125 65.921875 22.671875 59.328125 
Q 17.53125 52.734375 16.796875 39.40625 
Q 19.671875 43.65625 24.015625 45.921875 
Q 28.375 48.1875 33.59375 48.1875 
Q 44.578125 48.1875 50.953125 41.515625 
Q 57.328125 34.859375 57.328125 23.390625 
Q 57.328125 12.15625 50.6875 5.359375 
Q 44.046875 -1.421875 33.015625 -1.421875 
Q 20.359375 -1.421875 13.671875 8.265625 
Q 6.984375 17.96875 6.984375 36.375 
Q 6.984375 53.65625 15.1875 63.9375 
Q 23.390625 74.21875 37.203125 74.21875 
Q 40.921875 74.21875 44.703125 73.484375 
Q 48.484375 72.75 52.59375 71.296875 
z
" id="DejaVuSans-54"/>
       </defs>
       <use xlink:href="#DejaVuSans-48"/>
       <use x="63.623047" xlink:href="#DejaVuSans-46"/>
       <use x="95.410156" xlink:href="#DejaVuSans-54"/>
      </g>
     </g>
    </g>
    <g id="ytick_5">
     <g id="line2d_10">
      <g>
       <use style="stroke:#000000;stroke-width:0.8;" x="33.561875" xlink:href="#m6355e1838f" y="48.590282"/>
      </g>
     </g>
     <g id="text_11">
      <!-- 0.8 -->
      <g transform="translate(17.02 50.869813)scale(0.06 -0.06)">
       <defs>
        <path d="M 31.78125 34.625 
Q 24.75 34.625 20.71875 30.859375 
Q 16.703125 27.09375 16.703125 20.515625 
Q 16.703125 13.921875 20.71875 10.15625 
Q 24.75 6.390625 31.78125 6.390625 
Q 38.8125 6.390625 42.859375 10.171875 
Q 46.921875 13.96875 46.921875 20.515625 
Q 46.921875 27.09375 42.890625 30.859375 
Q 38.875 34.625 31.78125 34.625 
z
M 21.921875 38.8125 
Q 15.578125 40.375 12.03125 44.71875 
Q 8.5 49.078125 8.5 55.328125 
Q 8.5 64.0625 14.71875 69.140625 
Q 20.953125 74.21875 31.78125 74.21875 
Q 42.671875 74.21875 48.875 69.140625 
Q 55.078125 64.0625 55.078125 55.328125 
Q 55.078125 49.078125 51.53125 44.71875 
Q 48 40.375 41.703125 38.8125 
Q 48.828125 37.15625 52.796875 32.3125 
Q 56.78125 27.484375 56.78125 20.515625 
Q 56.78125 9.90625 50.3125 4.234375 
Q 43.84375 -1.421875 31.78125 -1.421875 
Q 19.734375 -1.421875 13.25 4.234375 
Q 6.78125 9.90625 6.78125 20.515625 
Q 6.78125 27.484375 10.78125 32.3125 
Q 14.796875 37.15625 21.921875 38.8125 
z
M 18.3125 54.390625 
Q 18.3125 48.734375 21.84375 45.5625 
Q 25.390625 42.390625 31.78125 42.390625 
Q 38.140625 42.390625 41.71875 45.5625 
Q 45.3125 48.734375 45.3125 54.390625 
Q 45.3125 60.0625 41.71875 63.234375 
Q 38.140625 66.40625 31.78125 66.40625 
Q 25.390625 66.40625 21.84375 63.234375 
Q 18.3125 60.0625 18.3125 54.390625 
z
" id="DejaVuSans-56"/>
       </defs>
       <use xlink:href="#DejaVuSans-48"/>
       <use x="63.623047" xlink:href="#DejaVuSans-46"/>
       <use x="95.410156" xlink:href="#DejaVuSans-56"/>
      </g>
     </g>
    </g>
    <g id="ytick_6">
     <g id="line2d_11">
      <g>
       <use style="stroke:#000000;stroke-width:0.8;" x="33.561875" xlink:href="#m6355e1838f" y="35.292768"/>
      </g>
     </g>
     <g id="text_12">
      <!-- 1.0 -->
      <g transform="translate(17.02 37.572299)scale(0.06 -0.06)">
       <use xlink:href="#DejaVuSans-49"/>
       <use x="63.623047" xlink:href="#DejaVuSans-46"/>
       <use x="95.410156" xlink:href="#DejaVuSans-48"/>
      </g>
     </g>
    </g>
    <g id="ytick_7">
     <g id="line2d_12">
      <g>
       <use style="stroke:#000000;stroke-width:0.8;" x="33.561875" xlink:href="#m6355e1838f" y="21.995254"/>
      </g>
     </g>
     <g id="text_13">
      <!-- 1.2 -->
      <g transform="translate(17.02 24.274785)scale(0.06 -0.06)">
       <use xlink:href="#DejaVuSans-49"/>
       <use x="63.623047" xlink:href="#DejaVuSans-46"/>
       <use x="95.410156" xlink:href="#DejaVuSans-50"/>
      </g>
     </g>
    </g>
    <g id="text_14">
     <!-- Intensity ($I_0$) -->
     <g transform="translate(11.76 80.547796)rotate(-90)scale(0.06 -0.06)">
      <defs>
       <path d="M 9.8125 72.90625 
L 19.671875 72.90625 
L 19.671875 0 
L 9.8125 0 
z
" id="DejaVuSans-73"/>
       <path d="M 32.171875 -5.078125 
Q 28.375 -14.84375 24.75 -17.8125 
Q 21.140625 -20.796875 15.09375 -20.796875 
L 7.90625 -20.796875 
L 7.90625 -13.28125 
L 13.1875 -13.28125 
Q 16.890625 -13.28125 18.9375 -11.515625 
Q 21 -9.765625 23.484375 -3.21875 
L 25.09375 0.875 
L 2.984375 54.6875 
L 12.5 54.6875 
L 29.59375 11.921875 
L 46.6875 54.6875 
L 56.203125 54.6875 
z
" id="DejaVuSans-121"/>
       <path d="M 16.890625 72.90625 
L 26.8125 72.90625 
L 12.59375 0 
L 2.6875 0 
z
" id="DejaVuSans-Oblique-73"/>
      </defs>
      <use transform="translate(0 0.015625)" xlink:href="#DejaVuSans-73"/>
      <use transform="translate(29.492188 0.015625)" xlink:href="#DejaVuSans-110"/>
      <use transform="translate(92.871094 0.015625)" xlink:href="#DejaVuSans-116"/>
      <use transform="translate(132.080078 0.015625)" xlink:href="#DejaVuSans-101"/>
      <use transform="translate(193.603516 0.015625)" xlink:href="#DejaVuSans-110"/>
      <use transform="translate(256.982422 0.015625)" xlink:href="#DejaVuSans-115"/>
      <use transform="translate(309.082031 0.015625)" xlink:href="#DejaVuSans-105"/>
      <use transform="translate(336.865234 0.015625)" xlink:href="#DejaVuSans-116"/>
      <use transform="translate(376.074219 0.015625)" xlink:href="#DejaVuSans-121"/>
      <use transform="translate(435.253906 0.015625)" xlink:href="#DejaVuSans-32"/>
      <use transform="translate(467.041016 0.015625)" xlink:href="#DejaVuSans-40"/>
      <use transform="translate(506.054688 0.015625)" xlink:href="#DejaVuSans-Oblique-73"/>
      <use transform="translate(535.546875 -16.390625)scale(0.7)" xlink:href="#DejaVuSans-48"/>
      <use transform="translate(582.817383 0.015625)" xlink:href="#DejaVuSans-41"/>
     </g>
    </g>
   </g>
   <g id="line2d_13">
    <path clip-path="url(#p99c1b62489)" d="M 37.035149 101.780336 
L 37.733295 101.703137 
L 38.43144 101.434678 
L 39.129586 100.921759 
L 39.827732 100.11228 
L 40.525877 98.958002 
L 41.224023 97.417393 
L 41.922168 95.458429 
L 42.969387 91.695871 
L 44.016605 86.945701 
L 45.412896 79.225271 
L 47.15826 67.99666 
L 49.950843 49.805869 
L 50.998061 44.137624 
L 52.045279 39.663041 
L 52.743425 37.487836 
L 53.441571 36.035358 
L 53.790643 35.594324 
L 54.139716 35.348241 
L 54.488789 35.298933 
L 54.837862 35.446766 
L 55.186935 35.790642 
L 55.88508 37.054927 
L 56.583226 39.054612 
L 57.281371 41.731401 
L 58.32859 46.843283 
L 59.724881 55.18949 
L 64.262827 84.221519 
L 65.310046 89.441353 
L 66.357264 93.702158 
L 67.404482 96.967876 
L 68.102628 98.610503 
L 68.800774 99.857795 
L 69.498919 100.749164 
L 70.197065 101.331441 
L 70.89521 101.656025 
L 71.593356 101.776089 
L 72.640574 101.686436 
L 74.385938 101.20083 
L 76.131302 100.755259 
L 77.527594 100.618126 
L 78.923885 100.699329 
L 81.018321 101.089118 
L 83.810904 101.625729 
L 85.905341 101.778375 
L 88.34885 101.69616 
L 92.886796 101.505481 
L 96.726597 101.666927 
L 100.915471 101.77902 
L 106.500635 101.6755 
L 106.500635 101.6755 
" style="fill:none;stroke:#1f77b4;stroke-dasharray:0.5,0.825;stroke-dashoffset:0;stroke-width:0.5;"/>
   </g>
   <g id="line2d_14">
    <path clip-path="url(#p99c1b62489)" d="M 37.035149 100.966351 
L 39.129586 100.642616 
L 40.525877 100.646254 
L 41.922168 100.873275 
L 45.761969 101.780121 
L 46.460115 101.692512 
L 47.15826 101.410334 
L 47.856406 100.88038 
L 48.554552 100.05071 
L 49.252697 98.873418 
L 49.950843 97.307487 
L 50.648988 95.321576 
L 51.696207 91.517413 
L 52.743425 86.7272 
L 54.139716 78.96212 
L 55.88508 67.703453 
L 58.677663 49.55027 
L 59.724881 43.925109 
L 60.772099 39.507017 
L 61.470245 37.375332 
L 62.168391 35.969665 
L 62.517463 35.552851 
L 62.866536 35.331295 
L 63.215609 35.30664 
L 63.564682 35.479067 
L 63.913755 35.8473 
L 64.6119 37.158865 
L 65.310046 39.202785 
L 66.008191 41.919515 
L 67.05541 47.080964 
L 68.451701 55.470101 
L 72.989647 84.456855 
L 74.036866 89.638574 
L 75.084084 93.858051 
L 76.131302 97.082734 
L 76.829448 98.699678 
L 77.527594 99.923478 
L 78.225739 100.794095 
L 78.923885 101.358729 
L 79.62203 101.668969 
L 80.320176 101.77801 
L 81.367394 101.677727 
L 83.112758 101.187475 
L 84.858122 100.74757 
L 86.254413 100.617519 
L 87.650705 100.704866 
L 89.745141 101.098742 
L 92.537724 101.631514 
L 94.63216 101.778937 
L 97.07567 101.693331 
L 101.264544 101.503907 
L 104.755272 101.630981 
L 106.500635 101.72064 
L 106.500635 101.72064 
" style="fill:none;stroke:#1f77b4;stroke-dasharray:0.5,0.825;stroke-dashoffset:0;stroke-width:0.5;"/>
   </g>
   <g id="line2d_15">
    <path clip-path="url(#p99c1b62489)" d="M 37.035149 100.966347 
L 38.082368 100.584094 
L 38.780513 100.10581 
L 39.478659 99.400143 
L 40.176804 98.42516 
L 40.87495 97.140349 
L 41.573096 95.508198 
L 42.620314 92.338382 
L 43.667532 88.231048 
L 44.714751 83.144739 
L 45.761969 77.088611 
L 47.15826 67.626655 
L 48.903624 54.045046 
L 53.441571 17.278145 
L 54.837862 8.274126 
L 55.88508 2.97804 
L 56.583226 0.26664 
L 57.000415 -1 
M 60.486163 -1 
L 61.121172 1.039173 
L 61.819318 3.964539 
L 62.866536 9.54643 
L 63.913755 16.35415 
L 65.310046 26.863799 
L 71.244283 74.004524 
L 72.640574 82.439975 
L 73.687793 87.649126 
L 74.735011 91.87753 
L 75.78223 95.160737 
L 76.829448 97.577478 
L 77.527594 98.761265 
L 78.225739 99.647637 
L 78.923885 100.277719 
L 79.62203 100.693569 
L 80.669249 101.006037 
L 81.716467 101.06068 
L 83.461831 100.878152 
L 85.905341 100.626604 
L 87.650705 100.662128 
L 90.094214 100.977148 
L 93.934015 101.505821 
L 96.377524 101.602839 
L 106.500635 101.6158 
L 106.500635 101.6158 
" style="fill:none;stroke:#1f77b4;stroke-linecap:square;stroke-width:1.5;"/>
   </g>
   <g id="patch_3">
    <path d="M 33.561875 105.104718 
L 33.561875 18.670875 
" style="fill:none;stroke:#000000;stroke-linecap:square;stroke-linejoin:miter;stroke-width:0.8;"/>
   </g>
   <g id="patch_4">
    <path d="M 109.97391 105.104718 
L 109.97391 18.670875 
" style="fill:none;stroke:#000000;stroke-linecap:square;stroke-linejoin:miter;stroke-width:0.8;"/>
   </g>
   <g id="patch_5">
    <path d="M 33.561875 105.104718 
L 109.97391 105.104718 
" style="fill:none;stroke:#000000;stroke-linecap:square;stroke-linejoin:miter;stroke-width:0.8;"/>
   </g>
   <g id="patch_6">
    <path d="M 33.561875 18.670875 
L 109.97391 18.670875 
" style="fill:none;stroke:#000000;stroke-linecap:square;stroke-linejoin:miter;stroke-width:0.8;"/>
   </g>
   <g id="text_15">
    <!-- Below limit -->
    <g transform="translate(51.873392 12.670875)scale(0.072 -0.072)">
     <defs>
      <path d="M 19.671875 34.8125 
L 19.671875 8.109375 
L 35.5 8.109375 
Q 43.453125 8.109375 47.28125 11.40625 
Q 51.125 14.703125 51.125 21.484375 
Q 51.125 28.328125 47.28125 31.5625 
Q 43.453125 34.8125 35.5 34.8125 
z
M 19.671875 64.796875 
L 19.671875 42.828125 
L 34.28125 42.828125 
Q 41.5 42.828125 45.03125 45.53125 
Q 48.578125 48.25 48.578125 53.8125 
Q 48.578125 59.328125 45.03125 62.0625 
Q 41.5 64.796875 34.28125 64.796875 
z
M 9.8125 72.90625 
L 35.015625 72.90625 
Q 46.296875 72.90625 52.390625 68.21875 
Q 58.5 63.53125 58.5 54.890625 
Q 58.5 48.1875 55.375 44.234375 
Q 52.25 40.28125 46.1875 39.3125 
Q 53.46875 37.75 57.5 32.78125 
Q 61.53125 27.828125 61.53125 20.40625 
Q 61.53125 10.640625 54.890625 5.3125 
Q 48.25 0 35.984375 0 
L 9.8125 0 
z
" id="DejaVuSans-66"/>
      <path d="M 9.421875 75.984375 
L 18.40625 75.984375 
L 18.40625 0 
L 9.421875 0 
z
" id="DejaVuSans-108"/>
      <path d="M 30.609375 48.390625 
Q 23.390625 48.390625 19.1875 42.75 
Q 14.984375 37.109375 14.984375 27.296875 
Q 14.984375 17.484375 19.15625 11.84375 
Q 23.34375 6.203125 30.609375 6.203125 
Q 37.796875 6.203125 41.984375 11.859375 
Q 46.1875 17.53125 46.1875 27.296875 
Q 46.1875 37.015625 41.984375 42.703125 
Q 37.796875 48.390625 30.609375 48.390625 
z
M 30.609375 56 
Q 42.328125 56 49.015625 48.375 
Q 55.71875 40.765625 55.71875 27.296875 
Q 55.71875 13.875 49.015625 6.21875 
Q 42.328125 -1.421875 30.609375 -1.421875 
Q 18.84375 -1.421875 12.171875 6.21875 
Q 5.515625 13.875 5.515625 27.296875 
Q 5.515625 40.765625 12.171875 48.375 
Q 18.84375 56 30.609375 56 
z
" id="DejaVuSans-111"/>
      <path d="M 4.203125 54.6875 
L 13.1875 54.6875 
L 24.421875 12.015625 
L 35.59375 54.6875 
L 46.1875 54.6875 
L 57.421875 12.015625 
L 68.609375 54.6875 
L 77.59375 54.6875 
L 63.28125 0 
L 52.6875 0 
L 40.921875 44.828125 
L 29.109375 0 
L 18.5 0 
z
" id="DejaVuSans-119"/>
      <path d="M 52 44.1875 
Q 55.375 50.25 60.0625 53.125 
Q 64.75 56 71.09375 56 
Q 79.640625 56 84.28125 50.015625 
Q 88.921875 44.046875 88.921875 33.015625 
L 88.921875 0 
L 79.890625 0 
L 79.890625 32.71875 
Q 79.890625 40.578125 77.09375 44.375 
Q 74.3125 48.1875 68.609375 48.1875 
Q 61.625 48.1875 57.5625 43.546875 
Q 53.515625 38.921875 53.515625 30.90625 
L 53.515625 0 
L 44.484375 0 
L 44.484375 32.71875 
Q 44.484375 40.625 41.703125 44.40625 
Q 38.921875 48.1875 33.109375 48.1875 
Q 26.21875 48.1875 22.15625 43.53125 
Q 18.109375 38.875 18.109375 30.90625 
L 18.109375 0 
L 9.078125 0 
L 9.078125 54.6875 
L 18.109375 54.6875 
L 18.109375 46.1875 
Q 21.1875 51.21875 25.484375 53.609375 
Q 29.78125 56 35.6875 56 
Q 41.65625 56 45.828125 52.96875 
Q 50 49.953125 52 44.1875 
z
" id="DejaVuSans-109"/>
     </defs>
     <use xlink:href="#DejaVuSans-66"/>
     <use x="68.603516" xlink:href="#DejaVuSans-101"/>
     <use x="130.126953" xlink:href="#DejaVuSans-108"/>
     <use x="157.910156" xlink:href="#DejaVuSans-111"/>
     <use x="219.091797" xlink:href="#DejaVuSans-119"/>
     <use x="300.878906" xlink:href="#DejaVuSans-32"/>
     <use x="332.666016" xlink:href="#DejaVuSans-108"/>
     <use x="360.449219" xlink:href="#DejaVuSans-105"/>
     <use x="388.232422" xlink:href="#DejaVuSans-109"/>
     <use x="485.644531" xlink:href="#DejaVuSans-105"/>
     <use x="513.427734" xlink:href="#DejaVuSans-116"/>
    </g>
   </g>
  </g>
  <g id="axes_2">
   <g id="patch_7">
    <path d="M 125.256317 105.104718 
L 201.668352 105.104718 
L 201.668352 18.670875 
L 125.256317 18.670875 
z
" style="fill:#ffffff;"/>
   </g>
   <g id="matplotlib.axis_3">
    <g id="xtick_6">
     <g id="line2d_16">
      <g>
       <use style="stroke:#000000;stroke-width:0.8;" x="128.729591" xlink:href="#ma5b3148c54" y="105.104718"/>
      </g>
     </g>
     <g id="text_16">
      <!-- −1 -->
      <g transform="translate(124.306935 116.66378)scale(0.06 -0.06)">
       <use xlink:href="#DejaVuSans-8722"/>
       <use x="83.789062" xlink:href="#DejaVuSans-49"/>
      </g>
     </g>
    </g>
    <g id="xtick_7">
     <g id="line2d_17">
      <g>
       <use style="stroke:#000000;stroke-width:0.8;" x="146.095963" xlink:href="#ma5b3148c54" y="105.104718"/>
      </g>
     </g>
     <g id="text_17">
      <!-- 0 -->
      <g transform="translate(144.187213 116.66378)scale(0.06 -0.06)">
       <use xlink:href="#DejaVuSans-48"/>
      </g>
     </g>
    </g>
    <g id="xtick_8">
     <g id="line2d_18">
      <g>
       <use style="stroke:#000000;stroke-width:0.8;" x="163.462334" xlink:href="#ma5b3148c54" y="105.104718"/>
      </g>
     </g>
     <g id="text_18">
      <!-- 1 -->
      <g transform="translate(161.553584 116.66378)scale(0.06 -0.06)">
       <use xlink:href="#DejaVuSans-49"/>
      </g>
     </g>
    </g>
    <g id="xtick_9">
     <g id="line2d_19">
      <g>
       <use style="stroke:#000000;stroke-width:0.8;" x="180.828706" xlink:href="#ma5b3148c54" y="105.104718"/>
      </g>
     </g>
     <g id="text_19">
      <!-- 2 -->
      <g transform="translate(178.919956 116.66378)scale(0.06 -0.06)">
       <use xlink:href="#DejaVuSans-50"/>
      </g>
     </g>
    </g>
    <g id="xtick_10">
     <g id="line2d_20">
      <g>
       <use style="stroke:#000000;stroke-width:0.8;" x="198.195077" xlink:href="#ma5b3148c54" y="105.104718"/>
      </g>
     </g>
     <g id="text_20">
      <!-- 3 -->
      <g transform="translate(196.286327 116.66378)scale(0.06 -0.06)">
       <use xlink:href="#DejaVuSans-51"/>
      </g>
     </g>
    </g>
    <g id="text_21">
     <!-- Distance (1.22 λ / NA) -->
     <g transform="translate(130.427647 126.470655)scale(0.06 -0.06)">
      <use xlink:href="#DejaVuSans-68"/>
      <use x="77.001953" xlink:href="#DejaVuSans-105"/>
      <use x="104.785156" xlink:href="#DejaVuSans-115"/>
      <use x="156.884766" xlink:href="#DejaVuSans-116"/>
      <use x="196.09375" xlink:href="#DejaVuSans-97"/>
      <use x="257.373047" xlink:href="#DejaVuSans-110"/>
      <use x="320.751953" xlink:href="#DejaVuSans-99"/>
      <use x="375.732422" xlink:href="#DejaVuSans-101"/>
      <use x="437.255859" xlink:href="#DejaVuSans-32"/>
      <use x="469.042969" xlink:href="#DejaVuSans-40"/>
      <use x="508.056641" xlink:href="#DejaVuSans-49"/>
      <use x="571.679688" xlink:href="#DejaVuSans-46"/>
      <use x="603.466797" xlink:href="#DejaVuSans-50"/>
      <use x="667.089844" xlink:href="#DejaVuSans-50"/>
      <use x="730.712891" xlink:href="#DejaVuSans-32"/>
      <use x="762.5" xlink:href="#DejaVuSans-955"/>
      <use x="821.679688" xlink:href="#DejaVuSans-32"/>
      <use x="853.466797" xlink:href="#DejaVuSans-47"/>
      <use x="887.158203" xlink:href="#DejaVuSans-32"/>
      <use x="918.945312" xlink:href="#DejaVuSans-78"/>
      <use x="993.75" xlink:href="#DejaVuSans-65"/>
      <use x="1062.158203" xlink:href="#DejaVuSans-41"/>
     </g>
    </g>
   </g>
   <g id="matplotlib.axis_4">
    <g id="ytick_8">
     <g id="line2d_21">
      <g>
       <use style="stroke:#000000;stroke-width:0.8;" x="125.256317" xlink:href="#m6355e1838f" y="101.780339"/>
      </g>
     </g>
    </g>
    <g id="ytick_9">
     <g id="line2d_22">
      <g>
       <use style="stroke:#000000;stroke-width:0.8;" x="125.256317" xlink:href="#m6355e1838f" y="88.482825"/>
      </g>
     </g>
    </g>
    <g id="ytick_10">
     <g id="line2d_23">
      <g>
       <use style="stroke:#000000;stroke-width:0.8;" x="125.256317" xlink:href="#m6355e1838f" y="75.185311"/>
      </g>
     </g>
    </g>
    <g id="ytick_11">
     <g id="line2d_24">
      <g>
       <use style="stroke:#000000;stroke-width:0.8;" x="125.256317" xlink:href="#m6355e1838f" y="61.887796"/>
      </g>
     </g>
    </g>
    <g id="ytick_12">
     <g id="line2d_25">
      <g>
       <use style="stroke:#000000;stroke-width:0.8;" x="125.256317" xlink:href="#m6355e1838f" y="48.590282"/>
      </g>
     </g>
    </g>
    <g id="ytick_13">
     <g id="line2d_26">
      <g>
       <use style="stroke:#000000;stroke-width:0.8;" x="125.256317" xlink:href="#m6355e1838f" y="35.292768"/>
      </g>
     </g>
    </g>
    <g id="ytick_14">
     <g id="line2d_27">
      <g>
       <use style="stroke:#000000;stroke-width:0.8;" x="125.256317" xlink:href="#m6355e1838f" y="21.995254"/>
      </g>
     </g>
    </g>
   </g>
   <g id="line2d_28">
    <path clip-path="url(#peaae5dc82c)" d="M 128.729591 101.780336 
L 129.427737 101.703137 
L 130.125882 101.434678 
L 130.824028 100.921759 
L 131.522173 100.11228 
L 132.220319 98.958002 
L 132.918465 97.417393 
L 133.61661 95.458429 
L 134.663829 91.695871 
L 135.711047 86.945701 
L 137.107338 79.225271 
L 138.852702 67.99666 
L 141.645284 49.805869 
L 142.692503 44.137624 
L 143.739721 39.663041 
L 144.437867 37.487836 
L 145.136012 36.035358 
L 145.485085 35.594324 
L 145.834158 35.348241 
L 146.183231 35.298933 
L 146.532304 35.446766 
L 146.881376 35.790642 
L 147.579522 37.054927 
L 148.277668 39.054612 
L 148.975813 41.731401 
L 150.023032 46.843283 
L 151.419323 55.18949 
L 155.957269 84.221519 
L 157.004487 89.441353 
L 158.051706 93.702158 
L 159.098924 96.967876 
L 159.79707 98.610503 
L 160.495215 99.857795 
L 161.193361 100.749164 
L 161.891507 101.331441 
L 162.589652 101.656025 
L 163.287798 101.776089 
L 164.335016 101.686436 
L 166.08038 101.20083 
L 167.825744 100.755259 
L 169.222035 100.618126 
L 170.618326 100.699329 
L 172.712763 101.089118 
L 175.505346 101.625729 
L 177.599782 101.778375 
L 180.043292 101.69616 
L 184.581238 101.505481 
L 188.421039 101.666927 
L 192.609912 101.77902 
L 198.195077 101.6755 
L 198.195077 101.6755 
" style="fill:none;stroke:#1f77b4;stroke-dasharray:0.5,0.825;stroke-dashoffset:0;stroke-width:0.5;"/>
   </g>
   <g id="line2d_29">
    <path clip-path="url(#peaae5dc82c)" d="M 128.729591 101.75244 
L 130.824028 101.509012 
L 136.06012 100.61816 
L 137.456411 100.708069 
L 138.852702 101.012357 
L 141.645284 101.751299 
L 142.692503 101.727766 
L 143.390648 101.494727 
L 144.088794 101.026053 
L 144.78694 100.269276 
L 145.485085 99.17532 
L 146.183231 97.701341 
L 146.881376 95.813551 
L 147.928595 92.161418 
L 148.975813 87.518238 
L 150.372104 79.918412 
L 152.117468 68.77381 
L 154.910051 50.491726 
L 155.957269 44.71205 
L 157.004487 40.089886 
L 157.702633 37.800318 
L 158.400779 36.224348 
L 159.098924 35.408174 
L 159.447997 35.293431 
L 159.79707 35.375868 
L 160.146143 35.654876 
L 160.495215 36.128387 
L 161.193361 37.643527 
L 161.891507 39.876844 
L 162.589652 42.763478 
L 163.636871 48.133608 
L 165.033162 56.699014 
L 169.222035 83.589453 
L 170.618326 90.475744 
L 171.665545 94.515122 
L 172.712763 97.562556 
L 173.410909 99.069325 
L 174.109054 100.192923 
L 174.8072 100.975557 
L 175.505346 101.4659 
L 176.203491 101.716247 
L 176.901637 101.779771 
L 177.948855 101.636551 
L 182.137729 100.638378 
L 183.53402 100.650628 
L 185.279384 100.915344 
L 189.468257 101.693857 
L 191.562694 101.778294 
L 194.704349 101.610462 
L 197.846004 101.504594 
L 198.195077 101.508314 
L 198.195077 101.508314 
" style="fill:none;stroke:#1f77b4;stroke-dasharray:0.5,0.825;stroke-dashoffset:0;stroke-width:0.5;"/>
   </g>
   <g id="line2d_30">
    <path clip-path="url(#peaae5dc82c)" d="M 128.729591 101.752437 
L 129.427737 101.622276 
L 130.125882 101.272122 
L 130.824028 100.650432 
L 131.522173 99.709412 
L 132.220319 98.407759 
L 132.918465 96.713256 
L 133.965683 93.39294 
L 135.012901 89.13191 
L 136.06012 83.991785 
L 137.456411 76.01656 
L 143.041576 42.354765 
L 144.088794 37.734307 
L 145.136012 34.022321 
L 146.183231 31.219935 
L 146.881376 29.823853 
L 147.579522 28.764444 
L 148.277668 27.996444 
L 148.975813 27.4693 
L 150.023032 27.016381 
L 151.07025 26.823976 
L 152.815614 26.754733 
L 154.910051 26.877216 
L 155.957269 27.153229 
L 156.655415 27.505607 
L 157.35356 28.050976 
L 158.051706 28.841565 
L 158.749851 29.927617 
L 159.447997 31.353794 
L 160.146143 33.155846 
L 161.193361 36.612351 
L 162.240579 40.985572 
L 163.636871 48.129152 
L 165.382235 58.632728 
L 169.222035 82.42724 
L 170.618326 89.394734 
L 171.665545 93.603992 
L 172.712763 96.871334 
L 173.759982 99.213833 
L 174.458127 100.300317 
L 175.156273 101.049348 
L 175.854418 101.506348 
L 176.552564 101.721635 
L 177.25071 101.747676 
L 178.297928 101.544882 
L 182.137729 100.420091 
L 183.53402 100.380859 
L 184.930311 100.577068 
L 190.864549 101.761807 
L 192.958985 101.720406 
L 198.195077 101.403475 
L 198.195077 101.403475 
" style="fill:none;stroke:#1f77b4;stroke-linecap:square;stroke-width:1.5;"/>
   </g>
   <g id="patch_8">
    <path d="M 125.256317 105.104718 
L 125.256317 18.670875 
" style="fill:none;stroke:#000000;stroke-linecap:square;stroke-linejoin:miter;stroke-width:0.8;"/>
   </g>
   <g id="patch_9">
    <path d="M 201.668352 105.104718 
L 201.668352 18.670875 
" style="fill:none;stroke:#000000;stroke-linecap:square;stroke-linejoin:miter;stroke-width:0.8;"/>
   </g>
   <g id="patch_10">
    <path d="M 125.256317 105.104718 
L 201.668352 105.104718 
" style="fill:none;stroke:#000000;stroke-linecap:square;stroke-linejoin:miter;stroke-width:0.8;"/>
   </g>
   <g id="patch_11">
    <path d="M 125.256317 18.670875 
L 201.668352 18.670875 
" style="fill:none;stroke:#000000;stroke-linecap:square;stroke-linejoin:miter;stroke-width:0.8;"/>
   </g>
   <g id="text_22">
    <!-- Sparrow criterion -->
    <g transform="translate(132.528209 12.670875)scale(0.072 -0.072)">
     <defs>
      <path d="M 53.515625 70.515625 
L 53.515625 60.890625 
Q 47.90625 63.578125 42.921875 64.890625 
Q 37.9375 66.21875 33.296875 66.21875 
Q 25.25 66.21875 20.875 63.09375 
Q 16.5 59.96875 16.5 54.203125 
Q 16.5 49.359375 19.40625 46.890625 
Q 22.3125 44.4375 30.421875 42.921875 
L 36.375 41.703125 
Q 47.40625 39.59375 52.65625 34.296875 
Q 57.90625 29 57.90625 20.125 
Q 57.90625 9.515625 50.796875 4.046875 
Q 43.703125 -1.421875 29.984375 -1.421875 
Q 24.8125 -1.421875 18.96875 -0.25 
Q 13.140625 0.921875 6.890625 3.21875 
L 6.890625 13.375 
Q 12.890625 10.015625 18.65625 8.296875 
Q 24.421875 6.59375 29.984375 6.59375 
Q 38.421875 6.59375 43.015625 9.90625 
Q 47.609375 13.234375 47.609375 19.390625 
Q 47.609375 24.75 44.3125 27.78125 
Q 41.015625 30.8125 33.5 32.328125 
L 27.484375 33.5 
Q 16.453125 35.6875 11.515625 40.375 
Q 6.59375 45.0625 6.59375 53.421875 
Q 6.59375 63.09375 13.40625 68.65625 
Q 20.21875 74.21875 32.171875 74.21875 
Q 37.3125 74.21875 42.625 73.28125 
Q 47.953125 72.359375 53.515625 70.515625 
z
" id="DejaVuSans-83"/>
      <path d="M 18.109375 8.203125 
L 18.109375 -20.796875 
L 9.078125 -20.796875 
L 9.078125 54.6875 
L 18.109375 54.6875 
L 18.109375 46.390625 
Q 20.953125 51.265625 25.265625 53.625 
Q 29.59375 56 35.59375 56 
Q 45.5625 56 51.78125 48.09375 
Q 58.015625 40.1875 58.015625 27.296875 
Q 58.015625 14.40625 51.78125 6.484375 
Q 45.5625 -1.421875 35.59375 -1.421875 
Q 29.59375 -1.421875 25.265625 0.953125 
Q 20.953125 3.328125 18.109375 8.203125 
z
M 48.6875 27.296875 
Q 48.6875 37.203125 44.609375 42.84375 
Q 40.53125 48.484375 33.40625 48.484375 
Q 26.265625 48.484375 22.1875 42.84375 
Q 18.109375 37.203125 18.109375 27.296875 
Q 18.109375 17.390625 22.1875 11.75 
Q 26.265625 6.109375 33.40625 6.109375 
Q 40.53125 6.109375 44.609375 11.75 
Q 48.6875 17.390625 48.6875 27.296875 
z
" id="DejaVuSans-112"/>
      <path d="M 41.109375 46.296875 
Q 39.59375 47.171875 37.8125 47.578125 
Q 36.03125 48 33.890625 48 
Q 26.265625 48 22.1875 43.046875 
Q 18.109375 38.09375 18.109375 28.8125 
L 18.109375 0 
L 9.078125 0 
L 9.078125 54.6875 
L 18.109375 54.6875 
L 18.109375 46.1875 
Q 20.953125 51.171875 25.484375 53.578125 
Q 30.03125 56 36.53125 56 
Q 37.453125 56 38.578125 55.875 
Q 39.703125 55.765625 41.0625 55.515625 
z
" id="DejaVuSans-114"/>
     </defs>
     <use xlink:href="#DejaVuSans-83"/>
     <use x="63.476562" xlink:href="#DejaVuSans-112"/>
     <use x="126.953125" xlink:href="#DejaVuSans-97"/>
     <use x="188.232422" xlink:href="#DejaVuSans-114"/>
     <use x="227.595703" xlink:href="#DejaVuSans-114"/>
     <use x="266.458984" xlink:href="#DejaVuSans-111"/>
     <use x="327.640625" xlink:href="#DejaVuSans-119"/>
     <use x="409.427734" xlink:href="#DejaVuSans-32"/>
     <use x="441.214844" xlink:href="#DejaVuSans-99"/>
     <use x="496.195312" xlink:href="#DejaVuSans-114"/>
     <use x="537.308594" xlink:href="#DejaVuSans-105"/>
     <use x="565.091797" xlink:href="#DejaVuSans-116"/>
     <use x="604.300781" xlink:href="#DejaVuSans-101"/>
     <use x="665.824219" xlink:href="#DejaVuSans-114"/>
     <use x="706.9375" xlink:href="#DejaVuSans-105"/>
     <use x="734.720703" xlink:href="#DejaVuSans-111"/>
     <use x="795.902344" xlink:href="#DejaVuSans-110"/>
    </g>
   </g>
  </g>
  <g id="axes_3">
   <g id="patch_12">
    <path d="M 216.950758 105.104718 
L 293.362793 105.104718 
L 293.362793 18.670875 
L 216.950758 18.670875 
z
" style="fill:#ffffff;"/>
   </g>
   <g id="matplotlib.axis_5">
    <g id="xtick_11">
     <g id="line2d_31">
      <g>
       <use style="stroke:#000000;stroke-width:0.8;" x="220.424033" xlink:href="#ma5b3148c54" y="105.104718"/>
      </g>
     </g>
     <g id="text_23">
      <!-- −1 -->
      <g transform="translate(216.001377 116.66378)scale(0.06 -0.06)">
       <use xlink:href="#DejaVuSans-8722"/>
       <use x="83.789062" xlink:href="#DejaVuSans-49"/>
      </g>
     </g>
    </g>
    <g id="xtick_12">
     <g id="line2d_32">
      <g>
       <use style="stroke:#000000;stroke-width:0.8;" x="237.790404" xlink:href="#ma5b3148c54" y="105.104718"/>
      </g>
     </g>
     <g id="text_24">
      <!-- 0 -->
      <g transform="translate(235.881654 116.66378)scale(0.06 -0.06)">
       <use xlink:href="#DejaVuSans-48"/>
      </g>
     </g>
    </g>
    <g id="xtick_13">
     <g id="line2d_33">
      <g>
       <use style="stroke:#000000;stroke-width:0.8;" x="255.156776" xlink:href="#ma5b3148c54" y="105.104718"/>
      </g>
     </g>
     <g id="text_25">
      <!-- 1 -->
      <g transform="translate(253.248026 116.66378)scale(0.06 -0.06)">
       <use xlink:href="#DejaVuSans-49"/>
      </g>
     </g>
    </g>
    <g id="xtick_14">
     <g id="line2d_34">
      <g>
       <use style="stroke:#000000;stroke-width:0.8;" x="272.523147" xlink:href="#ma5b3148c54" y="105.104718"/>
      </g>
     </g>
     <g id="text_26">
      <!-- 2 -->
      <g transform="translate(270.614397 116.66378)scale(0.06 -0.06)">
       <use xlink:href="#DejaVuSans-50"/>
      </g>
     </g>
    </g>
    <g id="xtick_15">
     <g id="line2d_35">
      <g>
       <use style="stroke:#000000;stroke-width:0.8;" x="289.889519" xlink:href="#ma5b3148c54" y="105.104718"/>
      </g>
     </g>
     <g id="text_27">
      <!-- 3 -->
      <g transform="translate(287.980769 116.66378)scale(0.06 -0.06)">
       <use xlink:href="#DejaVuSans-51"/>
      </g>
     </g>
    </g>
    <g id="text_28">
     <!-- Distance (1.22 λ / NA) -->
     <g transform="translate(222.122088 126.470655)scale(0.06 -0.06)">
      <use xlink:href="#DejaVuSans-68"/>
      <use x="77.001953" xlink:href="#DejaVuSans-105"/>
      <use x="104.785156" xlink:href="#DejaVuSans-115"/>
      <use x="156.884766" xlink:href="#DejaVuSans-116"/>
      <use x="196.09375" xlink:href="#DejaVuSans-97"/>
      <use x="257.373047" xlink:href="#DejaVuSans-110"/>
      <use x="320.751953" xlink:href="#DejaVuSans-99"/>
      <use x="375.732422" xlink:href="#DejaVuSans-101"/>
      <use x="437.255859" xlink:href="#DejaVuSans-32"/>
      <use x="469.042969" xlink:href="#DejaVuSans-40"/>
      <use x="508.056641" xlink:href="#DejaVuSans-49"/>
      <use x="571.679688" xlink:href="#DejaVuSans-46"/>
      <use x="603.466797" xlink:href="#DejaVuSans-50"/>
      <use x="667.089844" xlink:href="#DejaVuSans-50"/>
      <use x="730.712891" xlink:href="#DejaVuSans-32"/>
      <use x="762.5" xlink:href="#DejaVuSans-955"/>
      <use x="821.679688" xlink:href="#DejaVuSans-32"/>
      <use x="853.466797" xlink:href="#DejaVuSans-47"/>
      <use x="887.158203" xlink:href="#DejaVuSans-32"/>
      <use x="918.945312" xlink:href="#DejaVuSans-78"/>
      <use x="993.75" xlink:href="#DejaVuSans-65"/>
      <use x="1062.158203" xlink:href="#DejaVuSans-41"/>
     </g>
    </g>
   </g>
   <g id="matplotlib.axis_6">
    <g id="ytick_15">
     <g id="line2d_36">
      <g>
       <use style="stroke:#000000;stroke-width:0.8;" x="216.950758" xlink:href="#m6355e1838f" y="101.780339"/>
      </g>
     </g>
    </g>
    <g id="ytick_16">
     <g id="line2d_37">
      <g>
       <use style="stroke:#000000;stroke-width:0.8;" x="216.950758" xlink:href="#m6355e1838f" y="88.482825"/>
      </g>
     </g>
    </g>
    <g id="ytick_17">
     <g id="line2d_38">
      <g>
       <use style="stroke:#000000;stroke-width:0.8;" x="216.950758" xlink:href="#m6355e1838f" y="75.185311"/>
      </g>
     </g>
    </g>
    <g id="ytick_18">
     <g id="line2d_39">
      <g>
       <use style="stroke:#000000;stroke-width:0.8;" x="216.950758" xlink:href="#m6355e1838f" y="61.887796"/>
      </g>
     </g>
    </g>
    <g id="ytick_19">
     <g id="line2d_40">
      <g>
       <use style="stroke:#000000;stroke-width:0.8;" x="216.950758" xlink:href="#m6355e1838f" y="48.590282"/>
      </g>
     </g>
    </g>
    <g id="ytick_20">
     <g id="line2d_41">
      <g>
       <use style="stroke:#000000;stroke-width:0.8;" x="216.950758" xlink:href="#m6355e1838f" y="35.292768"/>
      </g>
     </g>
    </g>
    <g id="ytick_21">
     <g id="line2d_42">
      <g>
       <use style="stroke:#000000;stroke-width:0.8;" x="216.950758" xlink:href="#m6355e1838f" y="21.995254"/>
      </g>
     </g>
    </g>
   </g>
   <g id="line2d_43">
    <path clip-path="url(#p0bdd4350d7)" d="M 220.424033 101.780336 
L 221.122178 101.703137 
L 221.820324 101.434678 
L 222.51847 100.921759 
L 223.216615 100.11228 
L 223.914761 98.958002 
L 224.612906 97.417393 
L 225.311052 95.458429 
L 226.35827 91.695871 
L 227.405489 86.945701 
L 228.80178 79.225271 
L 230.547144 67.99666 
L 233.339726 49.805869 
L 234.386945 44.137624 
L 235.434163 39.663041 
L 236.132309 37.487836 
L 236.830454 36.035358 
L 237.179527 35.594324 
L 237.5286 35.348241 
L 237.877673 35.298933 
L 238.226745 35.446766 
L 238.575818 35.790642 
L 239.273964 37.054927 
L 239.972109 39.054612 
L 240.670255 41.731401 
L 241.717473 46.843283 
L 243.113764 55.18949 
L 247.651711 84.221519 
L 248.698929 89.441353 
L 249.746148 93.702158 
L 250.793366 96.967876 
L 251.491512 98.610503 
L 252.189657 99.857795 
L 252.887803 100.749164 
L 253.585948 101.331441 
L 254.284094 101.656025 
L 254.982239 101.776089 
L 256.029458 101.686436 
L 257.774822 101.20083 
L 259.520186 100.755259 
L 260.916477 100.618126 
L 262.312768 100.699329 
L 264.407205 101.089118 
L 267.199787 101.625729 
L 269.294224 101.778375 
L 271.737734 101.69616 
L 276.27568 101.505481 
L 280.115481 101.666927 
L 284.304354 101.77902 
L 289.889519 101.6755 
L 289.889519 101.6755 
" style="fill:none;stroke:#1f77b4;stroke-dasharray:0.5,0.825;stroke-dashoffset:0;stroke-width:0.5;"/>
   </g>
   <g id="line2d_44">
    <path clip-path="url(#p0bdd4350d7)" d="M 220.424033 101.643452 
L 223.914761 101.772931 
L 226.009198 101.588785 
L 228.452707 101.108378 
L 230.896217 100.669508 
L 232.292508 100.626408 
L 233.688799 100.805678 
L 235.434163 101.28158 
L 237.179527 101.731773 
L 238.226745 101.751664 
L 238.924891 101.561137 
L 239.623037 101.146113 
L 240.321182 100.453767 
L 241.019328 99.434078 
L 241.717473 98.042666 
L 242.415619 96.243622 
L 243.462837 92.730276 
L 244.510056 88.223012 
L 245.557274 82.779196 
L 246.953565 74.32754 
L 251.491512 45.455596 
L 252.53873 40.652771 
L 253.236875 38.221813 
L 253.935021 36.492163 
L 254.633167 35.51443 
L 254.982239 35.317427 
L 255.331312 35.317427 
L 255.680385 35.51443 
L 256.029458 35.906977 
L 256.727603 37.265671 
L 257.425749 39.353592 
L 258.123895 42.109957 
L 259.171113 47.320405 
L 260.567404 55.751594 
L 265.105351 84.690716 
L 266.152569 89.834111 
L 267.199787 94.012206 
L 268.247006 97.195936 
L 268.945151 98.787313 
L 269.643297 99.98778 
L 270.341442 100.83783 
L 271.039588 101.385022 
L 271.737734 101.681127 
L 272.435879 101.77935 
L 273.483098 101.668719 
L 275.577534 101.07014 
L 277.322898 100.687973 
L 278.71919 100.621735 
L 280.464553 100.820398 
L 285.700645 101.739989 
L 287.795082 101.764687 
L 289.889519 101.643452 
L 289.889519 101.643452 
" style="fill:none;stroke:#1f77b4;stroke-dasharray:0.5,0.825;stroke-dashoffset:0;stroke-width:0.5;"/>
   </g>
   <g id="line2d_45">
    <path clip-path="url(#p0bdd4350d7)" d="M 220.424033 101.643449 
L 221.122178 101.61328 
L 221.820324 101.38726 
L 222.51847 100.906107 
L 223.216615 100.11174 
L 223.914761 98.950594 
L 224.612906 97.377043 
L 225.311052 95.356735 
L 226.35827 91.449344 
L 227.405489 86.50121 
L 228.80178 78.4767 
L 230.896217 64.533892 
L 232.990653 50.808854 
L 234.037872 45.013988 
L 235.08509 40.396473 
L 235.783236 38.09717 
L 236.481381 36.474861 
L 237.179527 35.545757 
L 237.5286 35.338541 
L 237.877673 35.297944 
L 238.226745 35.41809 
L 238.575818 35.691429 
L 239.273964 36.65961 
L 239.972109 38.112102 
L 241.019328 40.954028 
L 244.160983 50.16373 
L 244.859128 51.549058 
L 245.557274 52.48336 
L 246.25542 52.912952 
L 246.604492 52.929609 
L 246.953565 52.813219 
L 247.651711 52.189872 
L 248.349856 51.078654 
L 249.048002 49.543526 
L 250.09522 46.646268 
L 252.887803 38.322417 
L 253.585948 36.816772 
L 254.284094 35.782663 
L 254.633167 35.472394 
L 254.982239 35.313177 
L 255.331312 35.312971 
L 255.680385 35.478076 
L 256.029458 35.813073 
L 256.727603 37.002257 
L 257.425749 38.88182 
L 258.123895 41.425276 
L 259.171113 46.364127 
L 260.567404 54.602207 
L 265.454423 86.044384 
L 266.501642 91.075997 
L 267.54886 95.071612 
L 268.596078 98.017917 
L 269.294224 99.432114 
L 269.99237 100.44987 
L 270.690515 101.120188 
L 271.388661 101.498725 
L 272.086806 101.644389 
L 273.134025 101.554452 
L 274.879389 101.020117 
L 276.624753 100.535568 
L 278.021044 100.402139 
L 279.417335 100.517729 
L 281.511772 100.984693 
L 284.304354 101.587466 
L 286.049718 101.730428 
L 288.144155 101.670243 
L 289.889519 101.538612 
L 289.889519 101.538612 
" style="fill:none;stroke:#1f77b4;stroke-linecap:square;stroke-width:1.5;"/>
   </g>
   <g id="patch_13">
    <path d="M 216.950758 105.104718 
L 216.950758 18.670875 
" style="fill:none;stroke:#000000;stroke-linecap:square;stroke-linejoin:miter;stroke-width:0.8;"/>
   </g>
   <g id="patch_14">
    <path d="M 293.362793 105.104718 
L 293.362793 18.670875 
" style="fill:none;stroke:#000000;stroke-linecap:square;stroke-linejoin:miter;stroke-width:0.8;"/>
   </g>
   <g id="patch_15">
    <path d="M 216.950758 105.104718 
L 293.362793 105.104718 
" style="fill:none;stroke:#000000;stroke-linecap:square;stroke-linejoin:miter;stroke-width:0.8;"/>
   </g>
   <g id="patch_16">
    <path d="M 216.950758 18.670875 
L 293.362793 18.670875 
" style="fill:none;stroke:#000000;stroke-linecap:square;stroke-linejoin:miter;stroke-width:0.8;"/>
   </g>
   <g id="text_29">
    <!-- Raileygh criterion -->
    <g transform="translate(223.422776 12.670875)scale(0.072 -0.072)">
     <defs>
      <path d="M 44.390625 34.1875 
Q 47.5625 33.109375 50.5625 29.59375 
Q 53.5625 26.078125 56.59375 19.921875 
L 66.609375 0 
L 56 0 
L 46.6875 18.703125 
Q 43.0625 26.03125 39.671875 28.421875 
Q 36.28125 30.8125 30.421875 30.8125 
L 19.671875 30.8125 
L 19.671875 0 
L 9.8125 0 
L 9.8125 72.90625 
L 32.078125 72.90625 
Q 44.578125 72.90625 50.734375 67.671875 
Q 56.890625 62.453125 56.890625 51.90625 
Q 56.890625 45.015625 53.6875 40.46875 
Q 50.484375 35.9375 44.390625 34.1875 
z
M 19.671875 64.796875 
L 19.671875 38.921875 
L 32.078125 38.921875 
Q 39.203125 38.921875 42.84375 42.21875 
Q 46.484375 45.515625 46.484375 51.90625 
Q 46.484375 58.296875 42.84375 61.546875 
Q 39.203125 64.796875 32.078125 64.796875 
z
" id="DejaVuSans-82"/>
      <path d="M 45.40625 27.984375 
Q 45.40625 37.75 41.375 43.109375 
Q 37.359375 48.484375 30.078125 48.484375 
Q 22.859375 48.484375 18.828125 43.109375 
Q 14.796875 37.75 14.796875 27.984375 
Q 14.796875 18.265625 18.828125 12.890625 
Q 22.859375 7.515625 30.078125 7.515625 
Q 37.359375 7.515625 41.375 12.890625 
Q 45.40625 18.265625 45.40625 27.984375 
z
M 54.390625 6.78125 
Q 54.390625 -7.171875 48.1875 -13.984375 
Q 42 -20.796875 29.203125 -20.796875 
Q 24.46875 -20.796875 20.265625 -20.09375 
Q 16.0625 -19.390625 12.109375 -17.921875 
L 12.109375 -9.1875 
Q 16.0625 -11.328125 19.921875 -12.34375 
Q 23.78125 -13.375 27.78125 -13.375 
Q 36.625 -13.375 41.015625 -8.765625 
Q 45.40625 -4.15625 45.40625 5.171875 
L 45.40625 9.625 
Q 42.625 4.78125 38.28125 2.390625 
Q 33.9375 0 27.875 0 
Q 17.828125 0 11.671875 7.65625 
Q 5.515625 15.328125 5.515625 27.984375 
Q 5.515625 40.671875 11.671875 48.328125 
Q 17.828125 56 27.875 56 
Q 33.9375 56 38.28125 53.609375 
Q 42.625 51.21875 45.40625 46.390625 
L 45.40625 54.6875 
L 54.390625 54.6875 
z
" id="DejaVuSans-103"/>
      <path d="M 54.890625 33.015625 
L 54.890625 0 
L 45.90625 0 
L 45.90625 32.71875 
Q 45.90625 40.484375 42.875 44.328125 
Q 39.84375 48.1875 33.796875 48.1875 
Q 26.515625 48.1875 22.3125 43.546875 
Q 18.109375 38.921875 18.109375 30.90625 
L 18.109375 0 
L 9.078125 0 
L 9.078125 75.984375 
L 18.109375 75.984375 
L 18.109375 46.1875 
Q 21.34375 51.125 25.703125 53.5625 
Q 30.078125 56 35.796875 56 
Q 45.21875 56 50.046875 50.171875 
Q 54.890625 44.34375 54.890625 33.015625 
z
" id="DejaVuSans-104"/>
     </defs>
     <use xlink:href="#DejaVuSans-82"/>
     <use x="67.232422" xlink:href="#DejaVuSans-97"/>
     <use x="128.511719" xlink:href="#DejaVuSans-105"/>
     <use x="156.294922" xlink:href="#DejaVuSans-108"/>
     <use x="184.078125" xlink:href="#DejaVuSans-101"/>
     <use x="245.601562" xlink:href="#DejaVuSans-121"/>
     <use x="304.78125" xlink:href="#DejaVuSans-103"/>
     <use x="368.257812" xlink:href="#DejaVuSans-104"/>
     <use x="431.636719" xlink:href="#DejaVuSans-32"/>
     <use x="463.423828" xlink:href="#DejaVuSans-99"/>
     <use x="518.404297" xlink:href="#DejaVuSans-114"/>
     <use x="559.517578" xlink:href="#DejaVuSans-105"/>
     <use x="587.300781" xlink:href="#DejaVuSans-116"/>
     <use x="626.509766" xlink:href="#DejaVuSans-101"/>
     <use x="688.033203" xlink:href="#DejaVuSans-114"/>
     <use x="729.146484" xlink:href="#DejaVuSans-105"/>
     <use x="756.929688" xlink:href="#DejaVuSans-111"/>
     <use x="818.111328" xlink:href="#DejaVuSans-110"/>
    </g>
   </g>
  </g>
  <g id="axes_4">
   <g id="patch_17">
    <path d="M 308.6452 105.104718 
L 385.057235 105.104718 
L 385.057235 18.670875 
L 308.6452 18.670875 
z
" style="fill:#ffffff;"/>
   </g>
   <g id="matplotlib.axis_7">
    <g id="xtick_16">
     <g id="line2d_46">
      <g>
       <use style="stroke:#000000;stroke-width:0.8;" x="312.118475" xlink:href="#ma5b3148c54" y="105.104718"/>
      </g>
     </g>
     <g id="text_30">
      <!-- −1 -->
      <g transform="translate(307.695818 116.66378)scale(0.06 -0.06)">
       <use xlink:href="#DejaVuSans-8722"/>
       <use x="83.789062" xlink:href="#DejaVuSans-49"/>
      </g>
     </g>
    </g>
    <g id="xtick_17">
     <g id="line2d_47">
      <g>
       <use style="stroke:#000000;stroke-width:0.8;" x="329.484846" xlink:href="#ma5b3148c54" y="105.104718"/>
      </g>
     </g>
     <g id="text_31">
      <!-- 0 -->
      <g transform="translate(327.576096 116.66378)scale(0.06 -0.06)">
       <use xlink:href="#DejaVuSans-48"/>
      </g>
     </g>
    </g>
    <g id="xtick_18">
     <g id="line2d_48">
      <g>
       <use style="stroke:#000000;stroke-width:0.8;" x="346.851218" xlink:href="#ma5b3148c54" y="105.104718"/>
      </g>
     </g>
     <g id="text_32">
      <!-- 1 -->
      <g transform="translate(344.942468 116.66378)scale(0.06 -0.06)">
       <use xlink:href="#DejaVuSans-49"/>
      </g>
     </g>
    </g>
    <g id="xtick_19">
     <g id="line2d_49">
      <g>
       <use style="stroke:#000000;stroke-width:0.8;" x="364.217589" xlink:href="#ma5b3148c54" y="105.104718"/>
      </g>
     </g>
     <g id="text_33">
      <!-- 2 -->
      <g transform="translate(362.308839 116.66378)scale(0.06 -0.06)">
       <use xlink:href="#DejaVuSans-50"/>
      </g>
     </g>
    </g>
    <g id="xtick_20">
     <g id="line2d_50">
      <g>
       <use style="stroke:#000000;stroke-width:0.8;" x="381.583961" xlink:href="#ma5b3148c54" y="105.104718"/>
      </g>
     </g>
     <g id="text_34">
      <!-- 3 -->
      <g transform="translate(379.675211 116.66378)scale(0.06 -0.06)">
       <use xlink:href="#DejaVuSans-51"/>
      </g>
     </g>
    </g>
    <g id="text_35">
     <!-- Distance (1.22 λ / NA) -->
     <g transform="translate(313.81653 126.470655)scale(0.06 -0.06)">
      <use xlink:href="#DejaVuSans-68"/>
      <use x="77.001953" xlink:href="#DejaVuSans-105"/>
      <use x="104.785156" xlink:href="#DejaVuSans-115"/>
      <use x="156.884766" xlink:href="#DejaVuSans-116"/>
      <use x="196.09375" xlink:href="#DejaVuSans-97"/>
      <use x="257.373047" xlink:href="#DejaVuSans-110"/>
      <use x="320.751953" xlink:href="#DejaVuSans-99"/>
      <use x="375.732422" xlink:href="#DejaVuSans-101"/>
      <use x="437.255859" xlink:href="#DejaVuSans-32"/>
      <use x="469.042969" xlink:href="#DejaVuSans-40"/>
      <use x="508.056641" xlink:href="#DejaVuSans-49"/>
      <use x="571.679688" xlink:href="#DejaVuSans-46"/>
      <use x="603.466797" xlink:href="#DejaVuSans-50"/>
      <use x="667.089844" xlink:href="#DejaVuSans-50"/>
      <use x="730.712891" xlink:href="#DejaVuSans-32"/>
      <use x="762.5" xlink:href="#DejaVuSans-955"/>
      <use x="821.679688" xlink:href="#DejaVuSans-32"/>
      <use x="853.466797" xlink:href="#DejaVuSans-47"/>
      <use x="887.158203" xlink:href="#DejaVuSans-32"/>
      <use x="918.945312" xlink:href="#DejaVuSans-78"/>
      <use x="993.75" xlink:href="#DejaVuSans-65"/>
      <use x="1062.158203" xlink:href="#DejaVuSans-41"/>
     </g>
    </g>
   </g>
   <g id="matplotlib.axis_8">
    <g id="ytick_22">
     <g id="line2d_51">
      <g>
       <use style="stroke:#000000;stroke-width:0.8;" x="308.6452" xlink:href="#m6355e1838f" y="101.780339"/>
      </g>
     </g>
    </g>
    <g id="ytick_23">
     <g id="line2d_52">
      <g>
       <use style="stroke:#000000;stroke-width:0.8;" x="308.6452" xlink:href="#m6355e1838f" y="88.482825"/>
      </g>
     </g>
    </g>
    <g id="ytick_24">
     <g id="line2d_53">
      <g>
       <use style="stroke:#000000;stroke-width:0.8;" x="308.6452" xlink:href="#m6355e1838f" y="75.185311"/>
      </g>
     </g>
    </g>
    <g id="ytick_25">
     <g id="line2d_54">
      <g>
       <use style="stroke:#000000;stroke-width:0.8;" x="308.6452" xlink:href="#m6355e1838f" y="61.887796"/>
      </g>
     </g>
    </g>
    <g id="ytick_26">
     <g id="line2d_55">
      <g>
       <use style="stroke:#000000;stroke-width:0.8;" x="308.6452" xlink:href="#m6355e1838f" y="48.590282"/>
      </g>
     </g>
    </g>
    <g id="ytick_27">
     <g id="line2d_56">
      <g>
       <use style="stroke:#000000;stroke-width:0.8;" x="308.6452" xlink:href="#m6355e1838f" y="35.292768"/>
      </g>
     </g>
    </g>
    <g id="ytick_28">
     <g id="line2d_57">
      <g>
       <use style="stroke:#000000;stroke-width:0.8;" x="308.6452" xlink:href="#m6355e1838f" y="21.995254"/>
      </g>
     </g>
    </g>
   </g>
   <g id="line2d_58">
    <path clip-path="url(#pdde250189b)" d="M 312.118475 101.780336 
L 312.81662 101.703137 
L 313.514766 101.434678 
L 314.212911 100.921759 
L 314.911057 100.11228 
L 315.609202 98.958002 
L 316.307348 97.417393 
L 317.005494 95.458429 
L 318.052712 91.695871 
L 319.09993 86.945701 
L 320.496222 79.225271 
L 322.241586 67.99666 
L 325.034168 49.805869 
L 326.081386 44.137624 
L 327.128605 39.663041 
L 327.82675 37.487836 
L 328.524896 36.035358 
L 328.873969 35.594324 
L 329.223041 35.348241 
L 329.572114 35.298933 
L 329.921187 35.446766 
L 330.27026 35.790642 
L 330.968405 37.054927 
L 331.666551 39.054612 
L 332.364697 41.731401 
L 333.411915 46.843283 
L 334.808206 55.18949 
L 339.346153 84.221519 
L 340.393371 89.441353 
L 341.440589 93.702158 
L 342.487808 96.967876 
L 343.185953 98.610503 
L 343.884099 99.857795 
L 344.582244 100.749164 
L 345.28039 101.331441 
L 345.978536 101.656025 
L 346.676681 101.776089 
L 347.7239 101.686436 
L 349.469264 101.20083 
L 351.214628 100.755259 
L 352.610919 100.618126 
L 354.00721 100.699329 
L 356.101647 101.089118 
L 358.894229 101.625729 
L 360.988666 101.778375 
L 363.432175 101.69616 
L 367.970122 101.505481 
L 371.809922 101.666927 
L 375.998796 101.77902 
L 381.583961 101.6755 
L 381.583961 101.6755 
" style="fill:none;stroke:#1f77b4;stroke-dasharray:0.5,0.825;stroke-dashoffset:0;stroke-width:0.5;"/>
   </g>
   <g id="line2d_59">
    <path clip-path="url(#pdde250189b)" d="M 312.118475 101.72064 
L 318.750858 101.528765 
L 325.383241 101.709041 
L 327.477677 101.397928 
L 331.666551 100.6366 
L 333.062842 100.653953 
L 334.459133 100.894197 
L 338.298934 101.77801 
L 338.99708 101.668969 
L 339.695225 101.358729 
L 340.393371 100.794095 
L 341.091516 99.923478 
L 341.789662 98.699678 
L 342.487808 97.082734 
L 343.185953 95.042707 
L 344.233172 91.155328 
L 345.28039 86.285465 
L 346.676681 78.432381 
L 348.422045 67.116237 
L 350.865555 51.105341 
L 352.261846 43.506418 
L 353.309064 39.202785 
L 354.00721 37.158865 
L 354.705355 35.8473 
L 355.054428 35.479067 
L 355.403501 35.30664 
L 355.752574 35.331295 
L 356.101647 35.552851 
L 356.450719 35.969665 
L 357.148865 37.375332 
L 357.847011 39.507017 
L 358.545156 42.302705 
L 359.592375 47.56158 
L 360.988666 56.033939 
L 365.177539 83.023126 
L 366.573831 90.027959 
L 367.621049 94.164622 
L 368.668267 97.307487 
L 369.366413 98.873418 
L 370.064558 100.05071 
L 370.762704 100.88038 
L 371.46085 101.410334 
L 372.158995 101.692512 
L 372.857141 101.780121 
L 373.904359 101.659421 
L 376.347869 100.960841 
L 377.74416 100.682443 
L 379.140451 100.623254 
L 380.885815 100.828288 
L 381.583961 100.966351 
L 381.583961 100.966351 
" style="fill:none;stroke:#1f77b4;stroke-dasharray:0.5,0.825;stroke-dashoffset:0;stroke-width:0.5;"/>
   </g>
   <g id="line2d_60">
    <path clip-path="url(#pdde250189b)" d="M 312.118475 101.720636 
L 312.81662 101.610321 
L 313.514766 101.304638 
L 314.212911 100.753115 
L 314.911057 99.906768 
L 315.609202 98.720599 
L 316.307348 97.156151 
L 317.354566 94.03887 
L 318.401785 89.957435 
L 319.449003 84.933391 
L 320.845294 76.954906 
L 322.939731 63.27268 
L 325.034168 49.76253 
L 326.430459 42.299663 
L 327.477677 38.106182 
L 328.175823 36.140087 
L 328.873969 34.912726 
L 329.223041 34.590205 
L 329.572114 34.466685 
L 329.921187 34.544093 
L 330.27026 34.822918 
L 330.619333 35.302186 
L 331.317478 36.850805 
L 332.015624 39.152859 
L 332.713769 42.148518 
L 333.760988 47.759787 
L 335.157279 56.759981 
L 338.648007 80.231003 
L 339.695225 85.640638 
L 340.393371 88.455109 
L 341.091516 90.535548 
L 341.789662 91.820024 
L 342.138735 92.150856 
L 342.487808 92.270271 
L 342.83688 92.177378 
L 343.185953 91.872871 
L 343.535026 91.359022 
L 344.233172 89.720172 
L 344.931317 87.309639 
L 345.978536 82.409565 
L 347.025754 76.265822 
L 348.771118 64.39543 
L 350.865555 50.149064 
L 351.912773 44.10875 
L 352.959992 39.320506 
L 353.658137 36.973119 
L 354.356283 35.376083 
L 354.705355 34.8719 
L 355.054428 34.567937 
L 355.403501 34.465349 
L 355.752574 34.563829 
L 356.101647 34.861629 
L 356.799792 36.041189 
L 357.497938 37.962744 
L 358.196083 40.565248 
L 359.243302 45.570789 
L 360.639593 53.790615 
L 365.526612 84.704802 
L 366.573831 89.766496 
L 367.621049 93.888167 
L 368.668267 97.045085 
L 369.366413 98.634259 
L 370.064558 99.843025 
L 370.762704 100.709348 
L 371.46085 101.277891 
L 372.158995 101.597464 
L 372.857141 101.718516 
L 373.904359 101.635984 
L 375.649723 101.160877 
L 377.395087 100.711143 
L 378.791378 100.561468 
L 380.18767 100.629134 
L 381.583961 100.861511 
L 381.583961 100.861511 
" style="fill:none;stroke:#1f77b4;stroke-linecap:square;stroke-width:1.5;"/>
   </g>
   <g id="patch_18">
    <path d="M 308.6452 105.104718 
L 308.6452 18.670875 
" style="fill:none;stroke:#000000;stroke-linecap:square;stroke-linejoin:miter;stroke-width:0.8;"/>
   </g>
   <g id="patch_19">
    <path d="M 385.057235 105.104718 
L 385.057235 18.670875 
" style="fill:none;stroke:#000000;stroke-linecap:square;stroke-linejoin:miter;stroke-width:0.8;"/>
   </g>
   <g id="patch_20">
    <path d="M 308.6452 105.104718 
L 385.057235 105.104718 
" style="fill:none;stroke:#000000;stroke-linecap:square;stroke-linejoin:miter;stroke-width:0.8;"/>
   </g>
   <g id="patch_21">
    <path d="M 308.6452 18.670875 
L 385.057235 18.670875 
" style="fill:none;stroke:#000000;stroke-linecap:square;stroke-linejoin:miter;stroke-width:0.8;"/>
   </g>
   <g id="text_36">
    <!-- Above limit -->
    <g transform="translate(326.492093 12.670875)scale(0.072 -0.072)">
     <defs>
      <path d="M 48.6875 27.296875 
Q 48.6875 37.203125 44.609375 42.84375 
Q 40.53125 48.484375 33.40625 48.484375 
Q 26.265625 48.484375 22.1875 42.84375 
Q 18.109375 37.203125 18.109375 27.296875 
Q 18.109375 17.390625 22.1875 11.75 
Q 26.265625 6.109375 33.40625 6.109375 
Q 40.53125 6.109375 44.609375 11.75 
Q 48.6875 17.390625 48.6875 27.296875 
z
M 18.109375 46.390625 
Q 20.953125 51.265625 25.265625 53.625 
Q 29.59375 56 35.59375 56 
Q 45.5625 56 51.78125 48.09375 
Q 58.015625 40.1875 58.015625 27.296875 
Q 58.015625 14.40625 51.78125 6.484375 
Q 45.5625 -1.421875 35.59375 -1.421875 
Q 29.59375 -1.421875 25.265625 0.953125 
Q 20.953125 3.328125 18.109375 8.203125 
L 18.109375 0 
L 9.078125 0 
L 9.078125 75.984375 
L 18.109375 75.984375 
z
" id="DejaVuSans-98"/>
      <path d="M 2.984375 54.6875 
L 12.5 54.6875 
L 29.59375 8.796875 
L 46.6875 54.6875 
L 56.203125 54.6875 
L 35.6875 0 
L 23.484375 0 
z
" id="DejaVuSans-118"/>
     </defs>
     <use xlink:href="#DejaVuSans-65"/>
     <use x="68.408203" xlink:href="#DejaVuSans-98"/>
     <use x="131.884766" xlink:href="#DejaVuSans-111"/>
     <use x="193.066406" xlink:href="#DejaVuSans-118"/>
     <use x="252.246094" xlink:href="#DejaVuSans-101"/>
     <use x="313.769531" xlink:href="#DejaVuSans-32"/>
     <use x="345.556641" xlink:href="#DejaVuSans-108"/>
     <use x="373.339844" xlink:href="#DejaVuSans-105"/>
     <use x="401.123047" xlink:href="#DejaVuSans-109"/>
     <use x="498.535156" xlink:href="#DejaVuSans-105"/>
     <use x="526.318359" xlink:href="#DejaVuSans-116"/>
    </g>
   </g>
  </g>
 </g>
 <defs>
  <clipPath id="p99c1b62489">
   <rect height="86.433843" width="76.412035" x="33.561875" y="18.670875"/>
  </clipPath>
  <clipPath id="peaae5dc82c">
   <rect height="86.433843" width="76.412035" x="125.256317" y="18.670875"/>
  </clipPath>
  <clipPath id="p0bdd4350d7">
   <rect height="86.433843" width="76.412035" x="216.950758" y="18.670875"/>
  </clipPath>
  <clipPath id="pdde250189b">
   <rect height="86.433843" width="76.412035" x="308.6452" y="18.670875"/>
  </clipPath>
 </defs>
</svg>
