<?xml version="1.0" encoding="utf-8" standalone="no"?>
<!DOCTYPE svg PUBLIC "-//W3C//DTD SVG 1.1//EN"
  "http://www.w3.org/Graphics/SVG/1.1/DTD/svg11.dtd">
<!-- Created with matplotlib (https://matplotlib.org/) -->
<svg height="133.234692pt" version="1.1" viewBox="0 0 392.257235 133.234692" width="392.257235pt" xmlns="http://www.w3.org/2000/svg" xmlns:xlink="http://www.w3.org/1999/xlink">
 <defs>
  <style type="text/css">
*{stroke-linecap:butt;stroke-linejoin:round;}
  </style>
 </defs>
 <g id="figure_1">
  <g id="patch_1">
   <path d="M 0 133.234692 
L 392.257235 133.234692 
L 392.257235 -0 
L 0 -0 
z
" style="fill:#ffffff;"/>
  </g>
  <g id="axes_1">
   <g id="patch_2">
    <path d="M 33.561875 103.420942 
L 109.97391 103.420942 
L 109.97391 18.670875 
L 33.561875 18.670875 
z
" style="fill:#ffffff;"/>
   </g>
   <g id="matplotlib.axis_1">
    <g id="xtick_1">
     <g id="line2d_1">
      <defs>
       <path d="M 0 0 
L 0 3.5 
" id="mbd38c56fec" style="stroke:#000000;stroke-width:0.8;"/>
      </defs>
      <g>
       <use style="stroke:#000000;stroke-width:0.8;" x="37.035149" xlink:href="#mbd38c56fec" y="103.420942"/>
      </g>
     </g>
     <g id="text_1">
      <!-- −2 -->
      <defs>
       <path d="M 10.59375 35.5 
L 73.1875 35.5 
L 73.1875 27.203125 
L 10.59375 27.203125 
z
" id="DejaVuSans-8722"/>
       <path d="M 19.1875 8.296875 
L 53.609375 8.296875 
L 53.609375 0 
L 7.328125 0 
L 7.328125 8.296875 
Q 12.9375 14.109375 22.625 23.890625 
Q 32.328125 33.6875 34.8125 36.53125 
Q 39.546875 41.84375 41.421875 45.53125 
Q 43.3125 49.21875 43.3125 52.78125 
Q 43.3125 58.59375 39.234375 62.25 
Q 35.15625 65.921875 28.609375 65.921875 
Q 23.96875 65.921875 18.8125 64.3125 
Q 13.671875 62.703125 7.8125 59.421875 
L 7.8125 69.390625 
Q 13.765625 71.78125 18.9375 73 
Q 24.125 74.21875 28.421875 74.21875 
Q 39.75 74.21875 46.484375 68.546875 
Q 53.21875 62.890625 53.21875 53.421875 
Q 53.21875 48.921875 51.53125 44.890625 
Q 49.859375 40.875 45.40625 35.40625 
Q 44.1875 33.984375 37.640625 27.21875 
Q 31.109375 20.453125 19.1875 8.296875 
z
" id="DejaVuSans-50"/>
      </defs>
      <g transform="translate(32.612493 114.980004)scale(0.06 -0.06)">
       <use xlink:href="#DejaVuSans-8722"/>
       <use x="83.789062" xlink:href="#DejaVuSans-50"/>
      </g>
     </g>
    </g>
    <g id="xtick_2">
     <g id="line2d_2">
      <g>
       <use style="stroke:#000000;stroke-width:0.8;" x="54.401521" xlink:href="#mbd38c56fec" y="103.420942"/>
      </g>
     </g>
     <g id="text_2">
      <!-- −1 -->
      <defs>
       <path d="M 12.40625 8.296875 
L 28.515625 8.296875 
L 28.515625 63.921875 
L 10.984375 60.40625 
L 10.984375 69.390625 
L 28.421875 72.90625 
L 38.28125 72.90625 
L 38.28125 8.296875 
L 54.390625 8.296875 
L 54.390625 0 
L 12.40625 0 
z
" id="DejaVuSans-49"/>
      </defs>
      <g transform="translate(49.978865 114.980004)scale(0.06 -0.06)">
       <use xlink:href="#DejaVuSans-8722"/>
       <use x="83.789062" xlink:href="#DejaVuSans-49"/>
      </g>
     </g>
    </g>
    <g id="xtick_3">
     <g id="line2d_3">
      <g>
       <use style="stroke:#000000;stroke-width:0.8;" x="71.767892" xlink:href="#mbd38c56fec" y="103.420942"/>
      </g>
     </g>
     <g id="text_3">
      <!-- 0 -->
      <defs>
       <path d="M 31.78125 66.40625 
Q 24.171875 66.40625 20.328125 58.90625 
Q 16.5 51.421875 16.5 36.375 
Q 16.5 21.390625 20.328125 13.890625 
Q 24.171875 6.390625 31.78125 6.390625 
Q 39.453125 6.390625 43.28125 13.890625 
Q 47.125 21.390625 47.125 36.375 
Q 47.125 51.421875 43.28125 58.90625 
Q 39.453125 66.40625 31.78125 66.40625 
z
M 31.78125 74.21875 
Q 44.046875 74.21875 50.515625 64.515625 
Q 56.984375 54.828125 56.984375 36.375 
Q 56.984375 17.96875 50.515625 8.265625 
Q 44.046875 -1.421875 31.78125 -1.421875 
Q 19.53125 -1.421875 13.0625 8.265625 
Q 6.59375 17.96875 6.59375 36.375 
Q 6.59375 54.828125 13.0625 64.515625 
Q 19.53125 74.21875 31.78125 74.21875 
z
" id="DejaVuSans-48"/>
      </defs>
      <g transform="translate(69.859142 114.980004)scale(0.06 -0.06)">
       <use xlink:href="#DejaVuSans-48"/>
      </g>
     </g>
    </g>
    <g id="xtick_4">
     <g id="line2d_4">
      <g>
       <use style="stroke:#000000;stroke-width:0.8;" x="89.134264" xlink:href="#mbd38c56fec" y="103.420942"/>
      </g>
     </g>
     <g id="text_4">
      <!-- 1 -->
      <g transform="translate(87.225514 114.980004)scale(0.06 -0.06)">
       <use xlink:href="#DejaVuSans-49"/>
      </g>
     </g>
    </g>
    <g id="xtick_5">
     <g id="line2d_5">
      <g>
       <use style="stroke:#000000;stroke-width:0.8;" x="106.500635" xlink:href="#mbd38c56fec" y="103.420942"/>
      </g>
     </g>
     <g id="text_5">
      <!-- 2 -->
      <g transform="translate(104.591885 114.980004)scale(0.06 -0.06)">
       <use xlink:href="#DejaVuSans-50"/>
      </g>
     </g>
    </g>
    <g id="text_6">
     <!-- Distance (1.22 λ / NA) -->
     <defs>
      <path d="M 19.671875 64.796875 
L 19.671875 8.109375 
L 31.59375 8.109375 
Q 46.6875 8.109375 53.6875 14.9375 
Q 60.6875 21.78125 60.6875 36.53125 
Q 60.6875 51.171875 53.6875 57.984375 
Q 46.6875 64.796875 31.59375 64.796875 
z
M 9.8125 72.90625 
L 30.078125 72.90625 
Q 51.265625 72.90625 61.171875 64.09375 
Q 71.09375 55.28125 71.09375 36.53125 
Q 71.09375 17.671875 61.125 8.828125 
Q 51.171875 0 30.078125 0 
L 9.8125 0 
z
" id="DejaVuSans-68"/>
      <path d="M 9.421875 54.6875 
L 18.40625 54.6875 
L 18.40625 0 
L 9.421875 0 
z
M 9.421875 75.984375 
L 18.40625 75.984375 
L 18.40625 64.59375 
L 9.421875 64.59375 
z
" id="DejaVuSans-105"/>
      <path d="M 44.28125 53.078125 
L 44.28125 44.578125 
Q 40.484375 46.53125 36.375 47.5 
Q 32.28125 48.484375 27.875 48.484375 
Q 21.1875 48.484375 17.84375 46.4375 
Q 14.5 44.390625 14.5 40.28125 
Q 14.5 37.15625 16.890625 35.375 
Q 19.28125 33.59375 26.515625 31.984375 
L 29.59375 31.296875 
Q 39.15625 29.25 43.1875 25.515625 
Q 47.21875 21.78125 47.21875 15.09375 
Q 47.21875 7.46875 41.1875 3.015625 
Q 35.15625 -1.421875 24.609375 -1.421875 
Q 20.21875 -1.421875 15.453125 -0.5625 
Q 10.6875 0.296875 5.421875 2 
L 5.421875 11.28125 
Q 10.40625 8.6875 15.234375 7.390625 
Q 20.0625 6.109375 24.8125 6.109375 
Q 31.15625 6.109375 34.5625 8.28125 
Q 37.984375 10.453125 37.984375 14.40625 
Q 37.984375 18.0625 35.515625 20.015625 
Q 33.0625 21.96875 24.703125 23.78125 
L 21.578125 24.515625 
Q 13.234375 26.265625 9.515625 29.90625 
Q 5.8125 33.546875 5.8125 39.890625 
Q 5.8125 47.609375 11.28125 51.796875 
Q 16.75 56 26.8125 56 
Q 31.78125 56 36.171875 55.265625 
Q 40.578125 54.546875 44.28125 53.078125 
z
" id="DejaVuSans-115"/>
      <path d="M 18.3125 70.21875 
L 18.3125 54.6875 
L 36.8125 54.6875 
L 36.8125 47.703125 
L 18.3125 47.703125 
L 18.3125 18.015625 
Q 18.3125 11.328125 20.140625 9.421875 
Q 21.96875 7.515625 27.59375 7.515625 
L 36.8125 7.515625 
L 36.8125 0 
L 27.59375 0 
Q 17.1875 0 13.234375 3.875 
Q 9.28125 7.765625 9.28125 18.015625 
L 9.28125 47.703125 
L 2.6875 47.703125 
L 2.6875 54.6875 
L 9.28125 54.6875 
L 9.28125 70.21875 
z
" id="DejaVuSans-116"/>
      <path d="M 34.28125 27.484375 
Q 23.390625 27.484375 19.1875 25 
Q 14.984375 22.515625 14.984375 16.5 
Q 14.984375 11.71875 18.140625 8.90625 
Q 21.296875 6.109375 26.703125 6.109375 
Q 34.1875 6.109375 38.703125 11.40625 
Q 43.21875 16.703125 43.21875 25.484375 
L 43.21875 27.484375 
z
M 52.203125 31.203125 
L 52.203125 0 
L 43.21875 0 
L 43.21875 8.296875 
Q 40.140625 3.328125 35.546875 0.953125 
Q 30.953125 -1.421875 24.3125 -1.421875 
Q 15.921875 -1.421875 10.953125 3.296875 
Q 6 8.015625 6 15.921875 
Q 6 25.140625 12.171875 29.828125 
Q 18.359375 34.515625 30.609375 34.515625 
L 43.21875 34.515625 
L 43.21875 35.40625 
Q 43.21875 41.609375 39.140625 45 
Q 35.0625 48.390625 27.6875 48.390625 
Q 23 48.390625 18.546875 47.265625 
Q 14.109375 46.140625 10.015625 43.890625 
L 10.015625 52.203125 
Q 14.9375 54.109375 19.578125 55.046875 
Q 24.21875 56 28.609375 56 
Q 40.484375 56 46.34375 49.84375 
Q 52.203125 43.703125 52.203125 31.203125 
z
" id="DejaVuSans-97"/>
      <path d="M 54.890625 33.015625 
L 54.890625 0 
L 45.90625 0 
L 45.90625 32.71875 
Q 45.90625 40.484375 42.875 44.328125 
Q 39.84375 48.1875 33.796875 48.1875 
Q 26.515625 48.1875 22.3125 43.546875 
Q 18.109375 38.921875 18.109375 30.90625 
L 18.109375 0 
L 9.078125 0 
L 9.078125 54.6875 
L 18.109375 54.6875 
L 18.109375 46.1875 
Q 21.34375 51.125 25.703125 53.5625 
Q 30.078125 56 35.796875 56 
Q 45.21875 56 50.046875 50.171875 
Q 54.890625 44.34375 54.890625 33.015625 
z
" id="DejaVuSans-110"/>
      <path d="M 48.78125 52.59375 
L 48.78125 44.1875 
Q 44.96875 46.296875 41.140625 47.34375 
Q 37.3125 48.390625 33.40625 48.390625 
Q 24.65625 48.390625 19.8125 42.84375 
Q 14.984375 37.3125 14.984375 27.296875 
Q 14.984375 17.28125 19.8125 11.734375 
Q 24.65625 6.203125 33.40625 6.203125 
Q 37.3125 6.203125 41.140625 7.25 
Q 44.96875 8.296875 48.78125 10.40625 
L 48.78125 2.09375 
Q 45.015625 0.34375 40.984375 -0.53125 
Q 36.96875 -1.421875 32.421875 -1.421875 
Q 20.0625 -1.421875 12.78125 6.34375 
Q 5.515625 14.109375 5.515625 27.296875 
Q 5.515625 40.671875 12.859375 48.328125 
Q 20.21875 56 33.015625 56 
Q 37.15625 56 41.109375 55.140625 
Q 45.0625 54.296875 48.78125 52.59375 
z
" id="DejaVuSans-99"/>
      <path d="M 56.203125 29.59375 
L 56.203125 25.203125 
L 14.890625 25.203125 
Q 15.484375 15.921875 20.484375 11.0625 
Q 25.484375 6.203125 34.421875 6.203125 
Q 39.59375 6.203125 44.453125 7.46875 
Q 49.3125 8.734375 54.109375 11.28125 
L 54.109375 2.78125 
Q 49.265625 0.734375 44.1875 -0.34375 
Q 39.109375 -1.421875 33.890625 -1.421875 
Q 20.796875 -1.421875 13.15625 6.1875 
Q 5.515625 13.8125 5.515625 26.8125 
Q 5.515625 40.234375 12.765625 48.109375 
Q 20.015625 56 32.328125 56 
Q 43.359375 56 49.78125 48.890625 
Q 56.203125 41.796875 56.203125 29.59375 
z
M 47.21875 32.234375 
Q 47.125 39.59375 43.09375 43.984375 
Q 39.0625 48.390625 32.421875 48.390625 
Q 24.90625 48.390625 20.390625 44.140625 
Q 15.875 39.890625 15.1875 32.171875 
z
" id="DejaVuSans-101"/>
      <path id="DejaVuSans-32"/>
      <path d="M 31 75.875 
Q 24.46875 64.65625 21.28125 53.65625 
Q 18.109375 42.671875 18.109375 31.390625 
Q 18.109375 20.125 21.3125 9.0625 
Q 24.515625 -2 31 -13.1875 
L 23.1875 -13.1875 
Q 15.875 -1.703125 12.234375 9.375 
Q 8.59375 20.453125 8.59375 31.390625 
Q 8.59375 42.28125 12.203125 53.3125 
Q 15.828125 64.359375 23.1875 75.875 
z
" id="DejaVuSans-40"/>
      <path d="M 10.6875 12.40625 
L 21 12.40625 
L 21 0 
L 10.6875 0 
z
" id="DejaVuSans-46"/>
      <path d="M 30.953125 67.4375 
L 56.203125 0 
L 46.6875 0 
L 31.34375 40.4375 
L 12.5 0 
L 2.984375 0 
L 26.953125 52.4375 
L 23.34375 62.109375 
Q 21.046875 68.265625 15.828125 68.265625 
L 11.140625 68.265625 
L 11.140625 75.984375 
L 16.84375 75.875 
Q 27.875 75.734375 30.953125 67.4375 
z
" id="DejaVuSans-955"/>
      <path d="M 25.390625 72.90625 
L 33.6875 72.90625 
L 8.296875 -9.28125 
L 0 -9.28125 
z
" id="DejaVuSans-47"/>
      <path d="M 9.8125 72.90625 
L 23.09375 72.90625 
L 55.421875 11.921875 
L 55.421875 72.90625 
L 64.984375 72.90625 
L 64.984375 0 
L 51.703125 0 
L 19.390625 60.984375 
L 19.390625 0 
L 9.8125 0 
z
" id="DejaVuSans-78"/>
      <path d="M 34.1875 63.1875 
L 20.796875 26.90625 
L 47.609375 26.90625 
z
M 28.609375 72.90625 
L 39.796875 72.90625 
L 67.578125 0 
L 57.328125 0 
L 50.6875 18.703125 
L 17.828125 18.703125 
L 11.1875 0 
L 0.78125 0 
z
" id="DejaVuSans-65"/>
      <path d="M 8.015625 75.875 
L 15.828125 75.875 
Q 23.140625 64.359375 26.78125 53.3125 
Q 30.421875 42.28125 30.421875 31.390625 
Q 30.421875 20.453125 26.78125 9.375 
Q 23.140625 -1.703125 15.828125 -13.1875 
L 8.015625 -13.1875 
Q 14.5 -2 17.703125 9.0625 
Q 20.90625 20.125 20.90625 31.390625 
Q 20.90625 42.671875 17.703125 53.65625 
Q 14.5 64.65625 8.015625 75.875 
z
" id="DejaVuSans-41"/>
     </defs>
     <g transform="translate(38.733205 124.786879)scale(0.06 -0.06)">
      <use xlink:href="#DejaVuSans-68"/>
      <use x="77.001953" xlink:href="#DejaVuSans-105"/>
      <use x="104.785156" xlink:href="#DejaVuSans-115"/>
      <use x="156.884766" xlink:href="#DejaVuSans-116"/>
      <use x="196.09375" xlink:href="#DejaVuSans-97"/>
      <use x="257.373047" xlink:href="#DejaVuSans-110"/>
      <use x="320.751953" xlink:href="#DejaVuSans-99"/>
      <use x="375.732422" xlink:href="#DejaVuSans-101"/>
      <use x="437.255859" xlink:href="#DejaVuSans-32"/>
      <use x="469.042969" xlink:href="#DejaVuSans-40"/>
      <use x="508.056641" xlink:href="#DejaVuSans-49"/>
      <use x="571.679688" xlink:href="#DejaVuSans-46"/>
      <use x="603.466797" xlink:href="#DejaVuSans-50"/>
      <use x="667.089844" xlink:href="#DejaVuSans-50"/>
      <use x="730.712891" xlink:href="#DejaVuSans-32"/>
      <use x="762.5" xlink:href="#DejaVuSans-955"/>
      <use x="821.679688" xlink:href="#DejaVuSans-32"/>
      <use x="853.466797" xlink:href="#DejaVuSans-47"/>
      <use x="887.158203" xlink:href="#DejaVuSans-32"/>
      <use x="918.945312" xlink:href="#DejaVuSans-78"/>
      <use x="993.75" xlink:href="#DejaVuSans-65"/>
      <use x="1062.158203" xlink:href="#DejaVuSans-41"/>
     </g>
    </g>
   </g>
   <g id="matplotlib.axis_2">
    <g id="ytick_1">
     <g id="line2d_6">
      <defs>
       <path d="M 0 0 
L -3.5 0 
" id="m3558dc5484" style="stroke:#000000;stroke-width:0.8;"/>
      </defs>
      <g>
       <use style="stroke:#000000;stroke-width:0.8;" x="33.561875" xlink:href="#m3558dc5484" y="100.161324"/>
      </g>
     </g>
     <g id="text_7">
      <!-- 0.0 -->
      <g transform="translate(17.02 102.440855)scale(0.06 -0.06)">
       <use xlink:href="#DejaVuSans-48"/>
       <use x="63.623047" xlink:href="#DejaVuSans-46"/>
       <use x="95.410156" xlink:href="#DejaVuSans-48"/>
      </g>
     </g>
    </g>
    <g id="ytick_2">
     <g id="line2d_7">
      <g>
       <use style="stroke:#000000;stroke-width:0.8;" x="33.561875" xlink:href="#m3558dc5484" y="87.122852"/>
      </g>
     </g>
     <g id="text_8">
      <!-- 0.2 -->
      <g transform="translate(17.02 89.402383)scale(0.06 -0.06)">
       <use xlink:href="#DejaVuSans-48"/>
       <use x="63.623047" xlink:href="#DejaVuSans-46"/>
       <use x="95.410156" xlink:href="#DejaVuSans-50"/>
      </g>
     </g>
    </g>
    <g id="ytick_3">
     <g id="line2d_8">
      <g>
       <use style="stroke:#000000;stroke-width:0.8;" x="33.561875" xlink:href="#m3558dc5484" y="74.08438"/>
      </g>
     </g>
     <g id="text_9">
      <!-- 0.4 -->
      <defs>
       <path d="M 37.796875 64.3125 
L 12.890625 25.390625 
L 37.796875 25.390625 
z
M 35.203125 72.90625 
L 47.609375 72.90625 
L 47.609375 25.390625 
L 58.015625 25.390625 
L 58.015625 17.1875 
L 47.609375 17.1875 
L 47.609375 0 
L 37.796875 0 
L 37.796875 17.1875 
L 4.890625 17.1875 
L 4.890625 26.703125 
z
" id="DejaVuSans-52"/>
      </defs>
      <g transform="translate(17.02 76.363911)scale(0.06 -0.06)">
       <use xlink:href="#DejaVuSans-48"/>
       <use x="63.623047" xlink:href="#DejaVuSans-46"/>
       <use x="95.410156" xlink:href="#DejaVuSans-52"/>
      </g>
     </g>
    </g>
    <g id="ytick_4">
     <g id="line2d_9">
      <g>
       <use style="stroke:#000000;stroke-width:0.8;" x="33.561875" xlink:href="#m3558dc5484" y="61.045908"/>
      </g>
     </g>
     <g id="text_10">
      <!-- 0.6 -->
      <defs>
       <path d="M 33.015625 40.375 
Q 26.375 40.375 22.484375 35.828125 
Q 18.609375 31.296875 18.609375 23.390625 
Q 18.609375 15.53125 22.484375 10.953125 
Q 26.375 6.390625 33.015625 6.390625 
Q 39.65625 6.390625 43.53125 10.953125 
Q 47.40625 15.53125 47.40625 23.390625 
Q 47.40625 31.296875 43.53125 35.828125 
Q 39.65625 40.375 33.015625 40.375 
z
M 52.59375 71.296875 
L 52.59375 62.3125 
Q 48.875 64.0625 45.09375 64.984375 
Q 41.3125 65.921875 37.59375 65.921875 
Q 27.828125 65.921875 22.671875 59.328125 
Q 17.53125 52.734375 16.796875 39.40625 
Q 19.671875 43.65625 24.015625 45.921875 
Q 28.375 48.1875 33.59375 48.1875 
Q 44.578125 48.1875 50.953125 41.515625 
Q 57.328125 34.859375 57.328125 23.390625 
Q 57.328125 12.15625 50.6875 5.359375 
Q 44.046875 -1.421875 33.015625 -1.421875 
Q 20.359375 -1.421875 13.671875 8.265625 
Q 6.984375 17.96875 6.984375 36.375 
Q 6.984375 53.65625 15.1875 63.9375 
Q 23.390625 74.21875 37.203125 74.21875 
Q 40.921875 74.21875 44.703125 73.484375 
Q 48.484375 72.75 52.59375 71.296875 
z
" id="DejaVuSans-54"/>
      </defs>
      <g transform="translate(17.02 63.32544)scale(0.06 -0.06)">
       <use xlink:href="#DejaVuSans-48"/>
       <use x="63.623047" xlink:href="#DejaVuSans-46"/>
       <use x="95.410156" xlink:href="#DejaVuSans-54"/>
      </g>
     </g>
    </g>
    <g id="ytick_5">
     <g id="line2d_10">
      <g>
       <use style="stroke:#000000;stroke-width:0.8;" x="33.561875" xlink:href="#m3558dc5484" y="48.007437"/>
      </g>
     </g>
     <g id="text_11">
      <!-- 0.8 -->
      <defs>
       <path d="M 31.78125 34.625 
Q 24.75 34.625 20.71875 30.859375 
Q 16.703125 27.09375 16.703125 20.515625 
Q 16.703125 13.921875 20.71875 10.15625 
Q 24.75 6.390625 31.78125 6.390625 
Q 38.8125 6.390625 42.859375 10.171875 
Q 46.921875 13.96875 46.921875 20.515625 
Q 46.921875 27.09375 42.890625 30.859375 
Q 38.875 34.625 31.78125 34.625 
z
M 21.921875 38.8125 
Q 15.578125 40.375 12.03125 44.71875 
Q 8.5 49.078125 8.5 55.328125 
Q 8.5 64.0625 14.71875 69.140625 
Q 20.953125 74.21875 31.78125 74.21875 
Q 42.671875 74.21875 48.875 69.140625 
Q 55.078125 64.0625 55.078125 55.328125 
Q 55.078125 49.078125 51.53125 44.71875 
Q 48 40.375 41.703125 38.8125 
Q 48.828125 37.15625 52.796875 32.3125 
Q 56.78125 27.484375 56.78125 20.515625 
Q 56.78125 9.90625 50.3125 4.234375 
Q 43.84375 -1.421875 31.78125 -1.421875 
Q 19.734375 -1.421875 13.25 4.234375 
Q 6.78125 9.90625 6.78125 20.515625 
Q 6.78125 27.484375 10.78125 32.3125 
Q 14.796875 37.15625 21.921875 38.8125 
z
M 18.3125 54.390625 
Q 18.3125 48.734375 21.84375 45.5625 
Q 25.390625 42.390625 31.78125 42.390625 
Q 38.140625 42.390625 41.71875 45.5625 
Q 45.3125 48.734375 45.3125 54.390625 
Q 45.3125 60.0625 41.71875 63.234375 
Q 38.140625 66.40625 31.78125 66.40625 
Q 25.390625 66.40625 21.84375 63.234375 
Q 18.3125 60.0625 18.3125 54.390625 
z
" id="DejaVuSans-56"/>
      </defs>
      <g transform="translate(17.02 50.286968)scale(0.06 -0.06)">
       <use xlink:href="#DejaVuSans-48"/>
       <use x="63.623047" xlink:href="#DejaVuSans-46"/>
       <use x="95.410156" xlink:href="#DejaVuSans-56"/>
      </g>
     </g>
    </g>
    <g id="ytick_6">
     <g id="line2d_11">
      <g>
       <use style="stroke:#000000;stroke-width:0.8;" x="33.561875" xlink:href="#m3558dc5484" y="34.968965"/>
      </g>
     </g>
     <g id="text_12">
      <!-- 1.0 -->
      <g transform="translate(17.02 37.248496)scale(0.06 -0.06)">
       <use xlink:href="#DejaVuSans-49"/>
       <use x="63.623047" xlink:href="#DejaVuSans-46"/>
       <use x="95.410156" xlink:href="#DejaVuSans-48"/>
      </g>
     </g>
    </g>
    <g id="ytick_7">
     <g id="line2d_12">
      <g>
       <use style="stroke:#000000;stroke-width:0.8;" x="33.561875" xlink:href="#m3558dc5484" y="21.930493"/>
      </g>
     </g>
     <g id="text_13">
      <!-- 1.2 -->
      <g transform="translate(17.02 24.210024)scale(0.06 -0.06)">
       <use xlink:href="#DejaVuSans-49"/>
       <use x="63.623047" xlink:href="#DejaVuSans-46"/>
       <use x="95.410156" xlink:href="#DejaVuSans-50"/>
      </g>
     </g>
    </g>
    <g id="text_14">
     <!-- Intensity ($I_0$) -->
     <defs>
      <path d="M 9.8125 72.90625 
L 19.671875 72.90625 
L 19.671875 0 
L 9.8125 0 
z
" id="DejaVuSans-73"/>
      <path d="M 32.171875 -5.078125 
Q 28.375 -14.84375 24.75 -17.8125 
Q 21.140625 -20.796875 15.09375 -20.796875 
L 7.90625 -20.796875 
L 7.90625 -13.28125 
L 13.1875 -13.28125 
Q 16.890625 -13.28125 18.9375 -11.515625 
Q 21 -9.765625 23.484375 -3.21875 
L 25.09375 0.875 
L 2.984375 54.6875 
L 12.5 54.6875 
L 29.59375 11.921875 
L 46.6875 54.6875 
L 56.203125 54.6875 
z
" id="DejaVuSans-121"/>
      <path d="M 16.890625 72.90625 
L 26.8125 72.90625 
L 12.59375 0 
L 2.6875 0 
z
" id="DejaVuSans-Oblique-73"/>
     </defs>
     <g transform="translate(11.76 79.705908)rotate(-90)scale(0.06 -0.06)">
      <use transform="translate(0 0.015625)" xlink:href="#DejaVuSans-73"/>
      <use transform="translate(29.492188 0.015625)" xlink:href="#DejaVuSans-110"/>
      <use transform="translate(92.871094 0.015625)" xlink:href="#DejaVuSans-116"/>
      <use transform="translate(132.080078 0.015625)" xlink:href="#DejaVuSans-101"/>
      <use transform="translate(193.603516 0.015625)" xlink:href="#DejaVuSans-110"/>
      <use transform="translate(256.982422 0.015625)" xlink:href="#DejaVuSans-115"/>
      <use transform="translate(309.082031 0.015625)" xlink:href="#DejaVuSans-105"/>
      <use transform="translate(336.865234 0.015625)" xlink:href="#DejaVuSans-116"/>
      <use transform="translate(376.074219 0.015625)" xlink:href="#DejaVuSans-121"/>
      <use transform="translate(435.253906 0.015625)" xlink:href="#DejaVuSans-32"/>
      <use transform="translate(467.041016 0.015625)" xlink:href="#DejaVuSans-40"/>
      <use transform="translate(506.054688 0.015625)" xlink:href="#DejaVuSans-Oblique-73"/>
      <use transform="translate(535.546875 -16.390625)scale(0.7)" xlink:href="#DejaVuSans-48"/>
      <use transform="translate(582.817383 0.015625)" xlink:href="#DejaVuSans-41"/>
     </g>
    </g>
   </g>
   <g id="line2d_13">
    <path clip-path="url(#pfc3a462195)" d="M 37.035149 99.901374 
L 39.827732 99.935427 
L 45.412896 100.131157 
L 47.507333 99.886647 
L 52.743425 99.02111 
L 54.139716 99.117309 
L 55.88508 99.521744 
L 58.32859 100.138426 
L 59.375808 100.099885 
L 60.073954 99.856449 
L 60.772099 99.378199 
L 61.470245 98.613839 
L 62.168391 97.515595 
L 62.866536 96.042008 
L 63.564682 94.160693 
L 64.6119 90.532602 
L 65.659118 85.934111 
L 67.05541 78.430523 
L 68.800774 67.466449 
L 71.593356 49.577963 
L 72.640574 43.957901 
L 73.687793 39.488321 
L 74.385938 37.291939 
L 75.084084 35.799216 
L 75.433157 35.331246 
L 75.78223 35.053937 
L 76.131302 34.969343 
L 76.480375 35.07809 
L 76.829448 35.379373 
L 77.527594 36.549223 
L 78.225739 38.444475 
L 78.923885 41.009822 
L 79.971103 45.948186 
L 81.367394 54.067052 
L 86.254413 84.418278 
L 87.301632 89.290032 
L 88.34885 93.203631 
L 89.396069 96.14577 
L 90.094214 97.594841 
L 90.79236 98.670923 
L 91.490505 99.415951 
L 92.188651 99.878001 
L 92.886796 100.108497 
L 93.934015 100.133632 
L 95.330306 99.822575 
L 97.773816 99.167902 
L 99.170107 99.023048 
L 100.566398 99.093519 
L 102.660835 99.469439 
L 105.80249 100.044684 
L 106.500635 100.111022 
L 106.500635 100.111022 
" style="fill:none;stroke:#1f77b4;stroke-dasharray:0.5,0.825;stroke-dashoffset:0;stroke-width:0.5;"/>
   </g>
   <g id="line2d_14">
    <path clip-path="url(#pfc3a462195)" d="M 37.035149 100.111022 
L 39.129586 99.831959 
L 43.667532 99.03356 
L 45.063824 99.067558 
L 46.460115 99.319002 
L 49.950843 100.159542 
L 50.648988 100.108497 
L 51.347134 99.878001 
L 52.045279 99.415951 
L 52.743425 98.670923 
L 53.441571 97.594841 
L 54.139716 96.14577 
L 54.837862 94.290678 
L 55.88508 90.703345 
L 56.932299 86.144441 
L 58.32859 78.685652 
L 60.073954 67.753159 
L 62.866536 49.832131 
L 63.913755 44.171336 
L 64.960973 39.647602 
L 65.659118 37.409164 
L 66.357264 35.870961 
L 67.05541 35.07809 
L 67.404482 34.969343 
L 67.753555 35.053937 
L 68.102628 35.331246 
L 68.451701 35.799216 
L 69.149846 37.291939 
L 69.847992 39.488321 
L 70.89521 43.957901 
L 71.942429 49.577963 
L 73.687793 60.54426 
L 76.480375 78.430523 
L 77.876666 85.934111 
L 78.923885 90.532602 
L 79.971103 94.160693 
L 81.018321 96.827987 
L 81.716467 98.109224 
L 82.414613 99.034884 
L 83.112758 99.649932 
L 83.810904 100.00425 
L 84.509049 100.149876 
L 85.556268 100.089239 
L 87.301632 99.626001 
L 89.046996 99.175946 
L 90.443287 99.024183 
L 91.839578 99.088481 
L 93.934015 99.460042 
L 97.07567 100.039602 
L 99.170107 100.161278 
L 101.962689 100.040193 
L 105.80249 99.890992 
L 106.500635 99.901374 
L 106.500635 99.901374 
" style="fill:none;stroke:#1f77b4;stroke-dasharray:0.5,0.825;stroke-dashoffset:0;stroke-width:0.5;"/>
   </g>
   <g id="line2d_15">
    <path clip-path="url(#pfc3a462195)" d="M 37.035149 99.851072 
L 39.827732 99.468164 
L 42.969387 99.057102 
L 44.714751 99.034526 
L 46.809188 99.243918 
L 48.903624 99.458436 
L 49.950843 99.38408 
L 50.998061 99.044195 
L 51.696207 98.606338 
L 52.394352 97.951978 
L 53.092498 97.039921 
L 53.790643 95.830125 
L 54.488789 94.285243 
L 55.536007 91.268845 
L 56.583226 87.339961 
L 57.630444 82.453215 
L 58.677663 76.612102 
L 60.073954 67.448284 
L 61.819318 54.229131 
L 66.706337 15.655455 
L 67.753555 9.09374 
L 68.800774 3.759515 
L 69.498919 0.99541 
L 70.169837 -1 
M 73.365947 -1 
L 74.036866 0.99541 
L 74.735011 3.759515 
L 75.78223 9.09374 
L 76.829448 15.655455 
L 78.225739 25.855228 
L 81.018321 48.579297 
L 83.112758 64.940169 
L 84.509049 74.461407 
L 85.905341 82.453215 
L 86.952559 87.339961 
L 87.999777 91.268845 
L 89.046996 94.285243 
L 90.094214 96.474656 
L 90.79236 97.530709 
L 91.490505 98.308805 
L 92.188651 98.84975 
L 93.235869 99.306442 
L 94.283088 99.455723 
L 95.679379 99.381058 
L 99.51918 99.019581 
L 101.613616 99.157652 
L 106.500635 99.851072 
L 106.500635 99.851072 
" style="fill:none;stroke:#1f77b4;stroke-linecap:square;stroke-width:1.5;"/>
   </g>
   <g id="patch_3">
    <path d="M 33.561875 103.420942 
L 33.561875 18.670875 
" style="fill:none;stroke:#000000;stroke-linecap:square;stroke-linejoin:miter;stroke-width:0.8;"/>
   </g>
   <g id="patch_4">
    <path d="M 109.97391 103.420942 
L 109.97391 18.670875 
" style="fill:none;stroke:#000000;stroke-linecap:square;stroke-linejoin:miter;stroke-width:0.8;"/>
   </g>
   <g id="patch_5">
    <path d="M 33.561875 103.420942 
L 109.97391 103.420942 
" style="fill:none;stroke:#000000;stroke-linecap:square;stroke-linejoin:miter;stroke-width:0.8;"/>
   </g>
   <g id="patch_6">
    <path d="M 33.561875 18.670875 
L 109.97391 18.670875 
" style="fill:none;stroke:#000000;stroke-linecap:square;stroke-linejoin:miter;stroke-width:0.8;"/>
   </g>
   <g id="text_15">
    <!-- Below resolution -->
    <defs>
     <path d="M 19.671875 34.8125 
L 19.671875 8.109375 
L 35.5 8.109375 
Q 43.453125 8.109375 47.28125 11.40625 
Q 51.125 14.703125 51.125 21.484375 
Q 51.125 28.328125 47.28125 31.5625 
Q 43.453125 34.8125 35.5 34.8125 
z
M 19.671875 64.796875 
L 19.671875 42.828125 
L 34.28125 42.828125 
Q 41.5 42.828125 45.03125 45.53125 
Q 48.578125 48.25 48.578125 53.8125 
Q 48.578125 59.328125 45.03125 62.0625 
Q 41.5 64.796875 34.28125 64.796875 
z
M 9.8125 72.90625 
L 35.015625 72.90625 
Q 46.296875 72.90625 52.390625 68.21875 
Q 58.5 63.53125 58.5 54.890625 
Q 58.5 48.1875 55.375 44.234375 
Q 52.25 40.28125 46.1875 39.3125 
Q 53.46875 37.75 57.5 32.78125 
Q 61.53125 27.828125 61.53125 20.40625 
Q 61.53125 10.640625 54.890625 5.3125 
Q 48.25 0 35.984375 0 
L 9.8125 0 
z
" id="DejaVuSans-66"/>
     <path d="M 9.421875 75.984375 
L 18.40625 75.984375 
L 18.40625 0 
L 9.421875 0 
z
" id="DejaVuSans-108"/>
     <path d="M 30.609375 48.390625 
Q 23.390625 48.390625 19.1875 42.75 
Q 14.984375 37.109375 14.984375 27.296875 
Q 14.984375 17.484375 19.15625 11.84375 
Q 23.34375 6.203125 30.609375 6.203125 
Q 37.796875 6.203125 41.984375 11.859375 
Q 46.1875 17.53125 46.1875 27.296875 
Q 46.1875 37.015625 41.984375 42.703125 
Q 37.796875 48.390625 30.609375 48.390625 
z
M 30.609375 56 
Q 42.328125 56 49.015625 48.375 
Q 55.71875 40.765625 55.71875 27.296875 
Q 55.71875 13.875 49.015625 6.21875 
Q 42.328125 -1.421875 30.609375 -1.421875 
Q 18.84375 -1.421875 12.171875 6.21875 
Q 5.515625 13.875 5.515625 27.296875 
Q 5.515625 40.765625 12.171875 48.375 
Q 18.84375 56 30.609375 56 
z
" id="DejaVuSans-111"/>
     <path d="M 4.203125 54.6875 
L 13.1875 54.6875 
L 24.421875 12.015625 
L 35.59375 54.6875 
L 46.1875 54.6875 
L 57.421875 12.015625 
L 68.609375 54.6875 
L 77.59375 54.6875 
L 63.28125 0 
L 52.6875 0 
L 40.921875 44.828125 
L 29.109375 0 
L 18.5 0 
z
" id="DejaVuSans-119"/>
     <path d="M 41.109375 46.296875 
Q 39.59375 47.171875 37.8125 47.578125 
Q 36.03125 48 33.890625 48 
Q 26.265625 48 22.1875 43.046875 
Q 18.109375 38.09375 18.109375 28.8125 
L 18.109375 0 
L 9.078125 0 
L 9.078125 54.6875 
L 18.109375 54.6875 
L 18.109375 46.1875 
Q 20.953125 51.171875 25.484375 53.578125 
Q 30.03125 56 36.53125 56 
Q 37.453125 56 38.578125 55.875 
Q 39.703125 55.765625 41.0625 55.515625 
z
" id="DejaVuSans-114"/>
     <path d="M 8.5 21.578125 
L 8.5 54.6875 
L 17.484375 54.6875 
L 17.484375 21.921875 
Q 17.484375 14.15625 20.5 10.265625 
Q 23.53125 6.390625 29.59375 6.390625 
Q 36.859375 6.390625 41.078125 11.03125 
Q 45.3125 15.671875 45.3125 23.6875 
L 45.3125 54.6875 
L 54.296875 54.6875 
L 54.296875 0 
L 45.3125 0 
L 45.3125 8.40625 
Q 42.046875 3.421875 37.71875 1 
Q 33.40625 -1.421875 27.6875 -1.421875 
Q 18.265625 -1.421875 13.375 4.4375 
Q 8.5 10.296875 8.5 21.578125 
z
M 31.109375 56 
z
" id="DejaVuSans-117"/>
    </defs>
    <g transform="translate(41.922205 12.670875)scale(0.072 -0.072)">
     <use xlink:href="#DejaVuSans-66"/>
     <use x="68.603516" xlink:href="#DejaVuSans-101"/>
     <use x="130.126953" xlink:href="#DejaVuSans-108"/>
     <use x="157.910156" xlink:href="#DejaVuSans-111"/>
     <use x="219.091797" xlink:href="#DejaVuSans-119"/>
     <use x="300.878906" xlink:href="#DejaVuSans-32"/>
     <use x="332.666016" xlink:href="#DejaVuSans-114"/>
     <use x="371.529297" xlink:href="#DejaVuSans-101"/>
     <use x="433.052734" xlink:href="#DejaVuSans-115"/>
     <use x="485.152344" xlink:href="#DejaVuSans-111"/>
     <use x="546.333984" xlink:href="#DejaVuSans-108"/>
     <use x="574.117188" xlink:href="#DejaVuSans-117"/>
     <use x="637.496094" xlink:href="#DejaVuSans-116"/>
     <use x="676.705078" xlink:href="#DejaVuSans-105"/>
     <use x="704.488281" xlink:href="#DejaVuSans-111"/>
     <use x="765.669922" xlink:href="#DejaVuSans-110"/>
    </g>
   </g>
  </g>
  <g id="axes_2">
   <g id="patch_7">
    <path d="M 125.256317 103.420942 
L 201.668352 103.420942 
L 201.668352 18.670875 
L 125.256317 18.670875 
z
" style="fill:#ffffff;"/>
   </g>
   <g id="matplotlib.axis_3">
    <g id="xtick_6">
     <g id="line2d_16">
      <g>
       <use style="stroke:#000000;stroke-width:0.8;" x="128.729591" xlink:href="#mbd38c56fec" y="103.420942"/>
      </g>
     </g>
     <g id="text_16">
      <!-- −2 -->
      <g transform="translate(124.306935 114.980004)scale(0.06 -0.06)">
       <use xlink:href="#DejaVuSans-8722"/>
       <use x="83.789062" xlink:href="#DejaVuSans-50"/>
      </g>
     </g>
    </g>
    <g id="xtick_7">
     <g id="line2d_17">
      <g>
       <use style="stroke:#000000;stroke-width:0.8;" x="146.095963" xlink:href="#mbd38c56fec" y="103.420942"/>
      </g>
     </g>
     <g id="text_17">
      <!-- −1 -->
      <g transform="translate(141.673306 114.980004)scale(0.06 -0.06)">
       <use xlink:href="#DejaVuSans-8722"/>
       <use x="83.789062" xlink:href="#DejaVuSans-49"/>
      </g>
     </g>
    </g>
    <g id="xtick_8">
     <g id="line2d_18">
      <g>
       <use style="stroke:#000000;stroke-width:0.8;" x="163.462334" xlink:href="#mbd38c56fec" y="103.420942"/>
      </g>
     </g>
     <g id="text_18">
      <!-- 0 -->
      <g transform="translate(161.553584 114.980004)scale(0.06 -0.06)">
       <use xlink:href="#DejaVuSans-48"/>
      </g>
     </g>
    </g>
    <g id="xtick_9">
     <g id="line2d_19">
      <g>
       <use style="stroke:#000000;stroke-width:0.8;" x="180.828706" xlink:href="#mbd38c56fec" y="103.420942"/>
      </g>
     </g>
     <g id="text_19">
      <!-- 1 -->
      <g transform="translate(178.919956 114.980004)scale(0.06 -0.06)">
       <use xlink:href="#DejaVuSans-49"/>
      </g>
     </g>
    </g>
    <g id="xtick_10">
     <g id="line2d_20">
      <g>
       <use style="stroke:#000000;stroke-width:0.8;" x="198.195077" xlink:href="#mbd38c56fec" y="103.420942"/>
      </g>
     </g>
     <g id="text_20">
      <!-- 2 -->
      <g transform="translate(196.286327 114.980004)scale(0.06 -0.06)">
       <use xlink:href="#DejaVuSans-50"/>
      </g>
     </g>
    </g>
    <g id="text_21">
     <!-- Distance (1.22 λ / NA) -->
     <g transform="translate(130.427647 124.786879)scale(0.06 -0.06)">
      <use xlink:href="#DejaVuSans-68"/>
      <use x="77.001953" xlink:href="#DejaVuSans-105"/>
      <use x="104.785156" xlink:href="#DejaVuSans-115"/>
      <use x="156.884766" xlink:href="#DejaVuSans-116"/>
      <use x="196.09375" xlink:href="#DejaVuSans-97"/>
      <use x="257.373047" xlink:href="#DejaVuSans-110"/>
      <use x="320.751953" xlink:href="#DejaVuSans-99"/>
      <use x="375.732422" xlink:href="#DejaVuSans-101"/>
      <use x="437.255859" xlink:href="#DejaVuSans-32"/>
      <use x="469.042969" xlink:href="#DejaVuSans-40"/>
      <use x="508.056641" xlink:href="#DejaVuSans-49"/>
      <use x="571.679688" xlink:href="#DejaVuSans-46"/>
      <use x="603.466797" xlink:href="#DejaVuSans-50"/>
      <use x="667.089844" xlink:href="#DejaVuSans-50"/>
      <use x="730.712891" xlink:href="#DejaVuSans-32"/>
      <use x="762.5" xlink:href="#DejaVuSans-955"/>
      <use x="821.679688" xlink:href="#DejaVuSans-32"/>
      <use x="853.466797" xlink:href="#DejaVuSans-47"/>
      <use x="887.158203" xlink:href="#DejaVuSans-32"/>
      <use x="918.945312" xlink:href="#DejaVuSans-78"/>
      <use x="993.75" xlink:href="#DejaVuSans-65"/>
      <use x="1062.158203" xlink:href="#DejaVuSans-41"/>
     </g>
    </g>
   </g>
   <g id="matplotlib.axis_4">
    <g id="ytick_8">
     <g id="line2d_21">
      <g>
       <use style="stroke:#000000;stroke-width:0.8;" x="125.256317" xlink:href="#m3558dc5484" y="100.161324"/>
      </g>
     </g>
    </g>
    <g id="ytick_9">
     <g id="line2d_22">
      <g>
       <use style="stroke:#000000;stroke-width:0.8;" x="125.256317" xlink:href="#m3558dc5484" y="87.122852"/>
      </g>
     </g>
    </g>
    <g id="ytick_10">
     <g id="line2d_23">
      <g>
       <use style="stroke:#000000;stroke-width:0.8;" x="125.256317" xlink:href="#m3558dc5484" y="74.08438"/>
      </g>
     </g>
    </g>
    <g id="ytick_11">
     <g id="line2d_24">
      <g>
       <use style="stroke:#000000;stroke-width:0.8;" x="125.256317" xlink:href="#m3558dc5484" y="61.045908"/>
      </g>
     </g>
    </g>
    <g id="ytick_12">
     <g id="line2d_25">
      <g>
       <use style="stroke:#000000;stroke-width:0.8;" x="125.256317" xlink:href="#m3558dc5484" y="48.007437"/>
      </g>
     </g>
    </g>
    <g id="ytick_13">
     <g id="line2d_26">
      <g>
       <use style="stroke:#000000;stroke-width:0.8;" x="125.256317" xlink:href="#m3558dc5484" y="34.968965"/>
      </g>
     </g>
    </g>
    <g id="ytick_14">
     <g id="line2d_27">
      <g>
       <use style="stroke:#000000;stroke-width:0.8;" x="125.256317" xlink:href="#m3558dc5484" y="21.930493"/>
      </g>
     </g>
    </g>
   </g>
   <g id="line2d_28">
    <path clip-path="url(#p5c1f059009)" d="M 128.729591 100.001211 
L 132.569392 99.894435 
L 136.06012 100.069757 
L 138.852702 100.155443 
L 140.947139 99.981229 
L 143.390648 99.514084 
L 145.834158 99.077646 
L 147.230449 99.027567 
L 148.62674 99.19494 
L 150.372104 99.656002 
L 152.117468 100.105598 
L 153.164687 100.139954 
L 153.862832 99.967897 
L 154.560978 99.579735 
L 155.259123 98.923571 
L 155.957269 97.950053 
L 156.655415 96.615138 
L 157.35356 94.882882 
L 158.400779 91.487917 
L 159.447997 87.117756 
L 160.495215 81.824328 
L 161.891507 73.581087 
L 166.429453 45.207351 
L 167.476671 40.434396 
L 168.174817 38.000557 
L 168.872962 36.249716 
L 169.571108 35.233069 
L 169.920181 35.010296 
L 170.269254 34.980561 
L 170.618326 35.144084 
L 170.967399 35.499655 
L 171.665545 36.77502 
L 172.36369 38.769167 
L 173.061836 41.423993 
L 174.109054 46.473765 
L 175.505346 54.689872 
L 180.043292 83.122365 
L 181.09051 88.211755 
L 182.137729 92.35836 
L 183.184947 95.529472 
L 183.883093 97.120698 
L 184.581238 98.325943 
L 185.279384 99.184264 
L 185.977529 99.741859 
L 186.675675 100.049272 
L 187.373821 100.158657 
L 188.421039 100.062701 
L 190.166403 99.583017 
L 191.911767 99.150389 
L 193.308058 99.021274 
L 194.704349 99.105539 
L 196.798786 99.490833 
L 198.195077 99.78441 
L 198.195077 99.78441 
" style="fill:none;stroke:#1f77b4;stroke-dasharray:0.5,0.825;stroke-dashoffset:0;stroke-width:0.5;"/>
   </g>
   <g id="line2d_29">
    <path clip-path="url(#p5c1f059009)" d="M 128.729591 99.78441 
L 132.918465 99.039235 
L 134.314756 99.057805 
L 135.711047 99.294845 
L 139.550848 100.158657 
L 140.248993 100.049272 
L 140.947139 99.741859 
L 141.645284 99.184264 
L 142.34343 98.325943 
L 143.041576 97.120698 
L 143.739721 95.529472 
L 144.78694 92.35836 
L 145.834158 88.211755 
L 146.881376 83.122365 
L 148.277668 75.086321 
L 150.721177 59.188403 
L 152.466541 48.395163 
L 153.513759 42.975935 
L 154.560978 38.769167 
L 155.259123 36.77502 
L 155.957269 35.499655 
L 156.306342 35.144084 
L 156.655415 34.980561 
L 157.004487 35.010296 
L 157.35356 35.233069 
L 157.702633 35.64723 
L 158.400779 37.036085 
L 159.098924 39.136079 
L 159.79707 41.886131 
L 160.844288 47.053401 
L 162.240579 55.369877 
L 166.429453 81.824328 
L 167.825744 88.681368 
L 168.872962 92.728097 
L 169.920181 95.800533 
L 170.618326 97.330238 
L 171.316472 98.479392 
L 172.014618 99.288329 
L 172.712763 99.8041 
L 173.410909 100.077669 
L 174.109054 100.161206 
L 175.156273 100.040625 
L 179.694219 99.027567 
L 181.09051 99.077646 
L 183.184947 99.438792 
L 186.326602 100.027664 
L 188.421039 100.16084 
L 191.213621 100.046793 
L 195.053422 99.890505 
L 198.195077 100.001211 
L 198.195077 100.001211 
" style="fill:none;stroke:#1f77b4;stroke-dasharray:0.5,0.825;stroke-dashoffset:0;stroke-width:0.5;"/>
   </g>
   <g id="line2d_30">
    <path clip-path="url(#p5c1f059009)" d="M 128.729591 99.624297 
L 132.220319 98.83506 
L 133.61661 98.784306 
L 135.012901 98.989724 
L 136.758265 99.533618 
L 138.503629 100.062218 
L 139.550848 100.122548 
L 140.248993 99.955189 
L 140.947139 99.561765 
L 141.645284 98.892292 
L 142.34343 97.901011 
L 143.041576 96.549053 
L 143.739721 94.80694 
L 144.78694 91.426648 
L 145.834158 87.128077 
L 147.230449 80.100523 
L 148.975813 69.780965 
L 152.466541 48.381566 
L 153.862832 41.230566 
L 154.910051 36.812424 
L 155.957269 33.288384 
L 157.004487 30.649505 
L 157.702633 29.345299 
L 158.400779 28.362678 
L 159.098924 27.656124 
L 159.79707 27.175649 
L 160.844288 26.768122 
L 162.240579 26.572091 
L 164.335016 26.555402 
L 165.731307 26.691975 
L 166.778526 27.004223 
L 167.476671 27.390828 
L 168.174817 27.977953 
L 168.872962 28.81649 
L 169.571108 29.954627 
L 170.269254 31.434375 
L 171.316472 34.362709 
L 172.36369 38.187578 
L 173.410909 42.89228 
L 174.8072 50.358422 
L 176.901637 63.185808 
L 179.345146 78.147556 
L 180.741437 85.501179 
L 181.788656 90.093888 
L 182.835874 93.783477 
L 183.883093 96.549053 
L 184.581238 97.901011 
L 185.279384 98.892292 
L 185.977529 99.561765 
L 186.675675 99.955189 
L 187.373821 100.122548 
L 188.421039 100.062218 
L 189.81733 99.656868 
L 191.911767 98.989724 
L 193.308058 98.784306 
L 194.704349 98.83506 
L 196.449713 99.17366 
L 198.195077 99.624297 
L 198.195077 99.624297 
" style="fill:none;stroke:#1f77b4;stroke-linecap:square;stroke-width:1.5;"/>
   </g>
   <g id="patch_8">
    <path d="M 125.256317 103.420942 
L 125.256317 18.670875 
" style="fill:none;stroke:#000000;stroke-linecap:square;stroke-linejoin:miter;stroke-width:0.8;"/>
   </g>
   <g id="patch_9">
    <path d="M 201.668352 103.420942 
L 201.668352 18.670875 
" style="fill:none;stroke:#000000;stroke-linecap:square;stroke-linejoin:miter;stroke-width:0.8;"/>
   </g>
   <g id="patch_10">
    <path d="M 125.256317 103.420942 
L 201.668352 103.420942 
" style="fill:none;stroke:#000000;stroke-linecap:square;stroke-linejoin:miter;stroke-width:0.8;"/>
   </g>
   <g id="patch_11">
    <path d="M 125.256317 18.670875 
L 201.668352 18.670875 
" style="fill:none;stroke:#000000;stroke-linecap:square;stroke-linejoin:miter;stroke-width:0.8;"/>
   </g>
   <g id="text_22">
    <!-- Sparrow limit -->
    <defs>
     <path d="M 53.515625 70.515625 
L 53.515625 60.890625 
Q 47.90625 63.578125 42.921875 64.890625 
Q 37.9375 66.21875 33.296875 66.21875 
Q 25.25 66.21875 20.875 63.09375 
Q 16.5 59.96875 16.5 54.203125 
Q 16.5 49.359375 19.40625 46.890625 
Q 22.3125 44.4375 30.421875 42.921875 
L 36.375 41.703125 
Q 47.40625 39.59375 52.65625 34.296875 
Q 57.90625 29 57.90625 20.125 
Q 57.90625 9.515625 50.796875 4.046875 
Q 43.703125 -1.421875 29.984375 -1.421875 
Q 24.8125 -1.421875 18.96875 -0.25 
Q 13.140625 0.921875 6.890625 3.21875 
L 6.890625 13.375 
Q 12.890625 10.015625 18.65625 8.296875 
Q 24.421875 6.59375 29.984375 6.59375 
Q 38.421875 6.59375 43.015625 9.90625 
Q 47.609375 13.234375 47.609375 19.390625 
Q 47.609375 24.75 44.3125 27.78125 
Q 41.015625 30.8125 33.5 32.328125 
L 27.484375 33.5 
Q 16.453125 35.6875 11.515625 40.375 
Q 6.59375 45.0625 6.59375 53.421875 
Q 6.59375 63.09375 13.40625 68.65625 
Q 20.21875 74.21875 32.171875 74.21875 
Q 37.3125 74.21875 42.625 73.28125 
Q 47.953125 72.359375 53.515625 70.515625 
z
" id="DejaVuSans-83"/>
     <path d="M 18.109375 8.203125 
L 18.109375 -20.796875 
L 9.078125 -20.796875 
L 9.078125 54.6875 
L 18.109375 54.6875 
L 18.109375 46.390625 
Q 20.953125 51.265625 25.265625 53.625 
Q 29.59375 56 35.59375 56 
Q 45.5625 56 51.78125 48.09375 
Q 58.015625 40.1875 58.015625 27.296875 
Q 58.015625 14.40625 51.78125 6.484375 
Q 45.5625 -1.421875 35.59375 -1.421875 
Q 29.59375 -1.421875 25.265625 0.953125 
Q 20.953125 3.328125 18.109375 8.203125 
z
M 48.6875 27.296875 
Q 48.6875 37.203125 44.609375 42.84375 
Q 40.53125 48.484375 33.40625 48.484375 
Q 26.265625 48.484375 22.1875 42.84375 
Q 18.109375 37.203125 18.109375 27.296875 
Q 18.109375 17.390625 22.1875 11.75 
Q 26.265625 6.109375 33.40625 6.109375 
Q 40.53125 6.109375 44.609375 11.75 
Q 48.6875 17.390625 48.6875 27.296875 
z
" id="DejaVuSans-112"/>
     <path d="M 52 44.1875 
Q 55.375 50.25 60.0625 53.125 
Q 64.75 56 71.09375 56 
Q 79.640625 56 84.28125 50.015625 
Q 88.921875 44.046875 88.921875 33.015625 
L 88.921875 0 
L 79.890625 0 
L 79.890625 32.71875 
Q 79.890625 40.578125 77.09375 44.375 
Q 74.3125 48.1875 68.609375 48.1875 
Q 61.625 48.1875 57.5625 43.546875 
Q 53.515625 38.921875 53.515625 30.90625 
L 53.515625 0 
L 44.484375 0 
L 44.484375 32.71875 
Q 44.484375 40.625 41.703125 44.40625 
Q 38.921875 48.1875 33.109375 48.1875 
Q 26.21875 48.1875 22.15625 43.53125 
Q 18.109375 38.875 18.109375 30.90625 
L 18.109375 0 
L 9.078125 0 
L 9.078125 54.6875 
L 18.109375 54.6875 
L 18.109375 46.1875 
Q 21.1875 51.21875 25.484375 53.609375 
Q 29.78125 56 35.6875 56 
Q 41.65625 56 45.828125 52.96875 
Q 50 49.953125 52 44.1875 
z
" id="DejaVuSans-109"/>
    </defs>
    <g transform="translate(139.660147 12.670875)scale(0.072 -0.072)">
     <use xlink:href="#DejaVuSans-83"/>
     <use x="63.476562" xlink:href="#DejaVuSans-112"/>
     <use x="126.953125" xlink:href="#DejaVuSans-97"/>
     <use x="188.232422" xlink:href="#DejaVuSans-114"/>
     <use x="227.595703" xlink:href="#DejaVuSans-114"/>
     <use x="266.458984" xlink:href="#DejaVuSans-111"/>
     <use x="327.640625" xlink:href="#DejaVuSans-119"/>
     <use x="409.427734" xlink:href="#DejaVuSans-32"/>
     <use x="441.214844" xlink:href="#DejaVuSans-108"/>
     <use x="468.998047" xlink:href="#DejaVuSans-105"/>
     <use x="496.78125" xlink:href="#DejaVuSans-109"/>
     <use x="594.193359" xlink:href="#DejaVuSans-105"/>
     <use x="621.976562" xlink:href="#DejaVuSans-116"/>
    </g>
   </g>
  </g>
  <g id="axes_3">
   <g id="patch_12">
    <path d="M 216.950758 103.420942 
L 293.362793 103.420942 
L 293.362793 18.670875 
L 216.950758 18.670875 
z
" style="fill:#ffffff;"/>
   </g>
   <g id="matplotlib.axis_5">
    <g id="xtick_11">
     <g id="line2d_31">
      <g>
       <use style="stroke:#000000;stroke-width:0.8;" x="220.424033" xlink:href="#mbd38c56fec" y="103.420942"/>
      </g>
     </g>
     <g id="text_23">
      <!-- −2 -->
      <g transform="translate(216.001377 114.980004)scale(0.06 -0.06)">
       <use xlink:href="#DejaVuSans-8722"/>
       <use x="83.789062" xlink:href="#DejaVuSans-50"/>
      </g>
     </g>
    </g>
    <g id="xtick_12">
     <g id="line2d_32">
      <g>
       <use style="stroke:#000000;stroke-width:0.8;" x="237.790404" xlink:href="#mbd38c56fec" y="103.420942"/>
      </g>
     </g>
     <g id="text_24">
      <!-- −1 -->
      <g transform="translate(233.367748 114.980004)scale(0.06 -0.06)">
       <use xlink:href="#DejaVuSans-8722"/>
       <use x="83.789062" xlink:href="#DejaVuSans-49"/>
      </g>
     </g>
    </g>
    <g id="xtick_13">
     <g id="line2d_33">
      <g>
       <use style="stroke:#000000;stroke-width:0.8;" x="255.156776" xlink:href="#mbd38c56fec" y="103.420942"/>
      </g>
     </g>
     <g id="text_25">
      <!-- 0 -->
      <g transform="translate(253.248026 114.980004)scale(0.06 -0.06)">
       <use xlink:href="#DejaVuSans-48"/>
      </g>
     </g>
    </g>
    <g id="xtick_14">
     <g id="line2d_34">
      <g>
       <use style="stroke:#000000;stroke-width:0.8;" x="272.523147" xlink:href="#mbd38c56fec" y="103.420942"/>
      </g>
     </g>
     <g id="text_26">
      <!-- 1 -->
      <g transform="translate(270.614397 114.980004)scale(0.06 -0.06)">
       <use xlink:href="#DejaVuSans-49"/>
      </g>
     </g>
    </g>
    <g id="xtick_15">
     <g id="line2d_35">
      <g>
       <use style="stroke:#000000;stroke-width:0.8;" x="289.889519" xlink:href="#mbd38c56fec" y="103.420942"/>
      </g>
     </g>
     <g id="text_27">
      <!-- 2 -->
      <g transform="translate(287.980769 114.980004)scale(0.06 -0.06)">
       <use xlink:href="#DejaVuSans-50"/>
      </g>
     </g>
    </g>
    <g id="text_28">
     <!-- Distance (1.22 λ / NA) -->
     <g transform="translate(222.122088 124.786879)scale(0.06 -0.06)">
      <use xlink:href="#DejaVuSans-68"/>
      <use x="77.001953" xlink:href="#DejaVuSans-105"/>
      <use x="104.785156" xlink:href="#DejaVuSans-115"/>
      <use x="156.884766" xlink:href="#DejaVuSans-116"/>
      <use x="196.09375" xlink:href="#DejaVuSans-97"/>
      <use x="257.373047" xlink:href="#DejaVuSans-110"/>
      <use x="320.751953" xlink:href="#DejaVuSans-99"/>
      <use x="375.732422" xlink:href="#DejaVuSans-101"/>
      <use x="437.255859" xlink:href="#DejaVuSans-32"/>
      <use x="469.042969" xlink:href="#DejaVuSans-40"/>
      <use x="508.056641" xlink:href="#DejaVuSans-49"/>
      <use x="571.679688" xlink:href="#DejaVuSans-46"/>
      <use x="603.466797" xlink:href="#DejaVuSans-50"/>
      <use x="667.089844" xlink:href="#DejaVuSans-50"/>
      <use x="730.712891" xlink:href="#DejaVuSans-32"/>
      <use x="762.5" xlink:href="#DejaVuSans-955"/>
      <use x="821.679688" xlink:href="#DejaVuSans-32"/>
      <use x="853.466797" xlink:href="#DejaVuSans-47"/>
      <use x="887.158203" xlink:href="#DejaVuSans-32"/>
      <use x="918.945312" xlink:href="#DejaVuSans-78"/>
      <use x="993.75" xlink:href="#DejaVuSans-65"/>
      <use x="1062.158203" xlink:href="#DejaVuSans-41"/>
     </g>
    </g>
   </g>
   <g id="matplotlib.axis_6">
    <g id="ytick_15">
     <g id="line2d_36">
      <g>
       <use style="stroke:#000000;stroke-width:0.8;" x="216.950758" xlink:href="#m3558dc5484" y="100.161324"/>
      </g>
     </g>
    </g>
    <g id="ytick_16">
     <g id="line2d_37">
      <g>
       <use style="stroke:#000000;stroke-width:0.8;" x="216.950758" xlink:href="#m3558dc5484" y="87.122852"/>
      </g>
     </g>
    </g>
    <g id="ytick_17">
     <g id="line2d_38">
      <g>
       <use style="stroke:#000000;stroke-width:0.8;" x="216.950758" xlink:href="#m3558dc5484" y="74.08438"/>
      </g>
     </g>
    </g>
    <g id="ytick_18">
     <g id="line2d_39">
      <g>
       <use style="stroke:#000000;stroke-width:0.8;" x="216.950758" xlink:href="#m3558dc5484" y="61.045908"/>
      </g>
     </g>
    </g>
    <g id="ytick_19">
     <g id="line2d_40">
      <g>
       <use style="stroke:#000000;stroke-width:0.8;" x="216.950758" xlink:href="#m3558dc5484" y="48.007437"/>
      </g>
     </g>
    </g>
    <g id="ytick_20">
     <g id="line2d_41">
      <g>
       <use style="stroke:#000000;stroke-width:0.8;" x="216.950758" xlink:href="#m3558dc5484" y="34.968965"/>
      </g>
     </g>
    </g>
    <g id="ytick_21">
     <g id="line2d_42">
      <g>
       <use style="stroke:#000000;stroke-width:0.8;" x="216.950758" xlink:href="#m3558dc5484" y="21.930493"/>
      </g>
     </g>
    </g>
   </g>
   <g id="line2d_43">
    <path clip-path="url(#pe55595024c)" d="M 220.424033 100.102787 
L 227.056416 99.914651 
L 233.688799 100.091415 
L 235.783236 99.786362 
L 239.972109 99.039865 
L 241.3684 99.05688 
L 242.764692 99.292444 
L 246.604492 100.15904 
L 247.302638 100.052123 
L 248.000784 99.747926 
L 248.698929 99.194292 
L 249.397075 98.340635 
L 250.09522 97.140675 
L 250.793366 95.555231 
L 251.840584 92.393366 
L 252.887803 88.256086 
L 253.935021 83.17531 
L 255.331312 75.148212 
L 257.774822 59.254136 
L 259.520186 48.451911 
L 260.567404 43.022609 
L 261.614623 38.802813 
L 262.312768 36.798709 
L 263.010914 35.512694 
L 263.359987 35.151635 
L 263.709059 34.982567 
L 264.058132 35.006742 
L 264.407205 35.223981 
L 264.756278 35.632676 
L 265.454423 37.010959 
L 266.152569 39.101118 
L 266.850714 41.842345 
L 267.897933 46.998774 
L 269.294224 55.306087 
L 273.483098 81.769511 
L 274.879389 88.637886 
L 275.926607 92.693965 
L 276.973826 95.775605 
L 277.671971 97.311031 
L 278.370117 98.465389 
L 279.068262 99.278896 
L 279.766408 99.798527 
L 280.464553 100.075207 
L 281.162699 100.16111 
L 282.209917 100.042761 
L 284.653427 99.357789 
L 286.049718 99.084815 
L 287.446009 99.026779 
L 289.191373 99.227819 
L 289.889519 99.363192 
L 289.889519 99.363192 
" style="fill:none;stroke:#1f77b4;stroke-dasharray:0.5,0.825;stroke-dashoffset:0;stroke-width:0.5;"/>
   </g>
   <g id="line2d_44">
    <path clip-path="url(#pe55595024c)" d="M 220.424033 99.363192 
L 222.51847 99.045764 
L 223.914761 99.049331 
L 225.311052 99.271929 
L 229.150853 100.16111 
L 229.848998 100.075207 
L 230.547144 99.798527 
L 231.245289 99.278896 
L 231.943435 98.465389 
L 232.641581 97.311031 
L 233.339726 95.775605 
L 234.037872 93.82838 
L 235.08509 90.098325 
L 236.132309 85.401428 
L 237.5286 77.787615 
L 239.273964 66.748273 
L 242.066546 48.948724 
L 243.113764 43.433144 
L 244.160983 39.101118 
L 244.859128 37.010959 
L 245.557274 35.632676 
L 245.906347 35.223981 
L 246.25542 35.006742 
L 246.604492 34.982567 
L 246.953565 35.151635 
L 247.302638 35.512694 
L 248.000784 36.798709 
L 248.698929 38.802813 
L 249.397075 41.466619 
L 250.444293 46.52752 
L 251.840584 54.753233 
L 256.378531 83.17531 
L 257.425749 88.256086 
L 258.472967 92.393366 
L 259.520186 95.555231 
L 260.218331 97.140675 
L 260.916477 98.340635 
L 261.614623 99.194292 
L 262.312768 99.747926 
L 263.010914 100.052123 
L 263.709059 100.15904 
L 264.756278 100.060711 
L 266.501642 99.580009 
L 268.247006 99.148673 
L 269.643297 99.021156 
L 271.039588 99.106801 
L 273.134025 99.493005 
L 275.926607 100.015398 
L 278.021044 100.159949 
L 280.464553 100.07601 
L 284.653427 99.890276 
L 288.144155 100.014875 
L 289.889519 100.102787 
L 289.889519 100.102787 
" style="fill:none;stroke:#1f77b4;stroke-dasharray:0.5,0.825;stroke-dashoffset:0;stroke-width:0.5;"/>
   </g>
   <g id="line2d_45">
    <path clip-path="url(#pe55595024c)" d="M 220.424033 99.304655 
L 222.51847 98.880405 
L 223.914761 98.816552 
L 225.311052 99.002842 
L 227.056416 99.517829 
L 228.80178 99.99418 
L 229.848998 99.989893 
L 230.547144 99.754348 
L 231.245289 99.265012 
L 231.943435 98.465118 
L 232.641581 97.302531 
L 233.339726 95.73311 
L 234.037872 93.723968 
L 235.08509 89.849436 
L 236.132309 84.956676 
L 237.5286 77.044346 
L 239.623037 63.347215 
L 241.717473 49.927044 
L 242.764692 44.287106 
L 243.81191 39.813565 
L 244.510056 37.599568 
L 245.208201 36.051161 
L 245.906347 35.182538 
L 246.25542 35.000038 
L 246.604492 34.980282 
L 246.953565 35.117302 
L 247.651711 35.8297 
L 248.349856 37.058386 
L 249.397075 39.645931 
L 253.236875 50.364645 
L 253.935021 51.482304 
L 254.633167 52.124731 
L 254.982239 52.255084 
L 255.331312 52.255084 
L 255.680385 52.124731 
L 256.378531 51.482304 
L 257.076676 50.364645 
L 257.774822 48.836106 
L 258.82204 45.972231 
L 261.614623 37.835781 
L 262.312768 36.385312 
L 263.010914 35.403493 
L 263.359987 35.117302 
L 263.709059 34.980282 
L 264.058132 35.000038 
L 264.407205 35.182538 
L 264.756278 35.532063 
L 265.454423 36.740639 
L 266.152569 38.62531 
L 266.850714 41.158445 
L 267.897933 46.052018 
L 269.294224 54.176753 
L 274.181243 84.956676 
L 275.228462 89.849436 
L 276.27568 93.723968 
L 277.322898 96.571031 
L 278.021044 97.932146 
L 278.71919 98.907291 
L 279.417335 99.545022 
L 280.115481 99.900206 
L 280.813626 100.030696 
L 281.860845 99.930578 
L 283.606209 99.401484 
L 285.351573 98.932863 
L 286.747864 98.810023 
L 288.144155 98.930147 
L 289.889519 99.304655 
L 289.889519 99.304655 
" style="fill:none;stroke:#1f77b4;stroke-linecap:square;stroke-width:1.5;"/>
   </g>
   <g id="patch_13">
    <path d="M 216.950758 103.420942 
L 216.950758 18.670875 
" style="fill:none;stroke:#000000;stroke-linecap:square;stroke-linejoin:miter;stroke-width:0.8;"/>
   </g>
   <g id="patch_14">
    <path d="M 293.362793 103.420942 
L 293.362793 18.670875 
" style="fill:none;stroke:#000000;stroke-linecap:square;stroke-linejoin:miter;stroke-width:0.8;"/>
   </g>
   <g id="patch_15">
    <path d="M 216.950758 103.420942 
L 293.362793 103.420942 
" style="fill:none;stroke:#000000;stroke-linecap:square;stroke-linejoin:miter;stroke-width:0.8;"/>
   </g>
   <g id="patch_16">
    <path d="M 216.950758 18.670875 
L 293.362793 18.670875 
" style="fill:none;stroke:#000000;stroke-linecap:square;stroke-linejoin:miter;stroke-width:0.8;"/>
   </g>
   <g id="text_29">
    <!-- Raileygh limit -->
    <defs>
     <path d="M 44.390625 34.1875 
Q 47.5625 33.109375 50.5625 29.59375 
Q 53.5625 26.078125 56.59375 19.921875 
L 66.609375 0 
L 56 0 
L 46.6875 18.703125 
Q 43.0625 26.03125 39.671875 28.421875 
Q 36.28125 30.8125 30.421875 30.8125 
L 19.671875 30.8125 
L 19.671875 0 
L 9.8125 0 
L 9.8125 72.90625 
L 32.078125 72.90625 
Q 44.578125 72.90625 50.734375 67.671875 
Q 56.890625 62.453125 56.890625 51.90625 
Q 56.890625 45.015625 53.6875 40.46875 
Q 50.484375 35.9375 44.390625 34.1875 
z
M 19.671875 64.796875 
L 19.671875 38.921875 
L 32.078125 38.921875 
Q 39.203125 38.921875 42.84375 42.21875 
Q 46.484375 45.515625 46.484375 51.90625 
Q 46.484375 58.296875 42.84375 61.546875 
Q 39.203125 64.796875 32.078125 64.796875 
z
" id="DejaVuSans-82"/>
     <path d="M 45.40625 27.984375 
Q 45.40625 37.75 41.375 43.109375 
Q 37.359375 48.484375 30.078125 48.484375 
Q 22.859375 48.484375 18.828125 43.109375 
Q 14.796875 37.75 14.796875 27.984375 
Q 14.796875 18.265625 18.828125 12.890625 
Q 22.859375 7.515625 30.078125 7.515625 
Q 37.359375 7.515625 41.375 12.890625 
Q 45.40625 18.265625 45.40625 27.984375 
z
M 54.390625 6.78125 
Q 54.390625 -7.171875 48.1875 -13.984375 
Q 42 -20.796875 29.203125 -20.796875 
Q 24.46875 -20.796875 20.265625 -20.09375 
Q 16.0625 -19.390625 12.109375 -17.921875 
L 12.109375 -9.1875 
Q 16.0625 -11.328125 19.921875 -12.34375 
Q 23.78125 -13.375 27.78125 -13.375 
Q 36.625 -13.375 41.015625 -8.765625 
Q 45.40625 -4.15625 45.40625 5.171875 
L 45.40625 9.625 
Q 42.625 4.78125 38.28125 2.390625 
Q 33.9375 0 27.875 0 
Q 17.828125 0 11.671875 7.65625 
Q 5.515625 15.328125 5.515625 27.984375 
Q 5.515625 40.671875 11.671875 48.328125 
Q 17.828125 56 27.875 56 
Q 33.9375 56 38.28125 53.609375 
Q 42.625 51.21875 45.40625 46.390625 
L 45.40625 54.6875 
L 54.390625 54.6875 
z
" id="DejaVuSans-103"/>
     <path d="M 54.890625 33.015625 
L 54.890625 0 
L 45.90625 0 
L 45.90625 32.71875 
Q 45.90625 40.484375 42.875 44.328125 
Q 39.84375 48.1875 33.796875 48.1875 
Q 26.515625 48.1875 22.3125 43.546875 
Q 18.109375 38.921875 18.109375 30.90625 
L 18.109375 0 
L 9.078125 0 
L 9.078125 75.984375 
L 18.109375 75.984375 
L 18.109375 46.1875 
Q 21.34375 51.125 25.703125 53.5625 
Q 30.078125 56 35.796875 56 
Q 45.21875 56 50.046875 50.171875 
Q 54.890625 44.34375 54.890625 33.015625 
z
" id="DejaVuSans-104"/>
    </defs>
    <g transform="translate(230.554713 12.670875)scale(0.072 -0.072)">
     <use xlink:href="#DejaVuSans-82"/>
     <use x="67.232422" xlink:href="#DejaVuSans-97"/>
     <use x="128.511719" xlink:href="#DejaVuSans-105"/>
     <use x="156.294922" xlink:href="#DejaVuSans-108"/>
     <use x="184.078125" xlink:href="#DejaVuSans-101"/>
     <use x="245.601562" xlink:href="#DejaVuSans-121"/>
     <use x="304.78125" xlink:href="#DejaVuSans-103"/>
     <use x="368.257812" xlink:href="#DejaVuSans-104"/>
     <use x="431.636719" xlink:href="#DejaVuSans-32"/>
     <use x="463.423828" xlink:href="#DejaVuSans-108"/>
     <use x="491.207031" xlink:href="#DejaVuSans-105"/>
     <use x="518.990234" xlink:href="#DejaVuSans-109"/>
     <use x="616.402344" xlink:href="#DejaVuSans-105"/>
     <use x="644.185547" xlink:href="#DejaVuSans-116"/>
    </g>
   </g>
  </g>
  <g id="axes_4">
   <g id="patch_17">
    <path d="M 308.6452 103.420942 
L 385.057235 103.420942 
L 385.057235 18.670875 
L 308.6452 18.670875 
z
" style="fill:#ffffff;"/>
   </g>
   <g id="matplotlib.axis_7">
    <g id="xtick_16">
     <g id="line2d_46">
      <g>
       <use style="stroke:#000000;stroke-width:0.8;" x="312.118475" xlink:href="#mbd38c56fec" y="103.420942"/>
      </g>
     </g>
     <g id="text_30">
      <!-- −2 -->
      <g transform="translate(307.695818 114.980004)scale(0.06 -0.06)">
       <use xlink:href="#DejaVuSans-8722"/>
       <use x="83.789062" xlink:href="#DejaVuSans-50"/>
      </g>
     </g>
    </g>
    <g id="xtick_17">
     <g id="line2d_47">
      <g>
       <use style="stroke:#000000;stroke-width:0.8;" x="329.484846" xlink:href="#mbd38c56fec" y="103.420942"/>
      </g>
     </g>
     <g id="text_31">
      <!-- −1 -->
      <g transform="translate(325.06219 114.980004)scale(0.06 -0.06)">
       <use xlink:href="#DejaVuSans-8722"/>
       <use x="83.789062" xlink:href="#DejaVuSans-49"/>
      </g>
     </g>
    </g>
    <g id="xtick_18">
     <g id="line2d_48">
      <g>
       <use style="stroke:#000000;stroke-width:0.8;" x="346.851218" xlink:href="#mbd38c56fec" y="103.420942"/>
      </g>
     </g>
     <g id="text_32">
      <!-- 0 -->
      <g transform="translate(344.942468 114.980004)scale(0.06 -0.06)">
       <use xlink:href="#DejaVuSans-48"/>
      </g>
     </g>
    </g>
    <g id="xtick_19">
     <g id="line2d_49">
      <g>
       <use style="stroke:#000000;stroke-width:0.8;" x="364.217589" xlink:href="#mbd38c56fec" y="103.420942"/>
      </g>
     </g>
     <g id="text_33">
      <!-- 1 -->
      <g transform="translate(362.308839 114.980004)scale(0.06 -0.06)">
       <use xlink:href="#DejaVuSans-49"/>
      </g>
     </g>
    </g>
    <g id="xtick_20">
     <g id="line2d_50">
      <g>
       <use style="stroke:#000000;stroke-width:0.8;" x="381.583961" xlink:href="#mbd38c56fec" y="103.420942"/>
      </g>
     </g>
     <g id="text_34">
      <!-- 2 -->
      <g transform="translate(379.675211 114.980004)scale(0.06 -0.06)">
       <use xlink:href="#DejaVuSans-50"/>
      </g>
     </g>
    </g>
    <g id="text_35">
     <!-- Distance (1.22 λ / NA) -->
     <g transform="translate(313.81653 124.786879)scale(0.06 -0.06)">
      <use xlink:href="#DejaVuSans-68"/>
      <use x="77.001953" xlink:href="#DejaVuSans-105"/>
      <use x="104.785156" xlink:href="#DejaVuSans-115"/>
      <use x="156.884766" xlink:href="#DejaVuSans-116"/>
      <use x="196.09375" xlink:href="#DejaVuSans-97"/>
      <use x="257.373047" xlink:href="#DejaVuSans-110"/>
      <use x="320.751953" xlink:href="#DejaVuSans-99"/>
      <use x="375.732422" xlink:href="#DejaVuSans-101"/>
      <use x="437.255859" xlink:href="#DejaVuSans-32"/>
      <use x="469.042969" xlink:href="#DejaVuSans-40"/>
      <use x="508.056641" xlink:href="#DejaVuSans-49"/>
      <use x="571.679688" xlink:href="#DejaVuSans-46"/>
      <use x="603.466797" xlink:href="#DejaVuSans-50"/>
      <use x="667.089844" xlink:href="#DejaVuSans-50"/>
      <use x="730.712891" xlink:href="#DejaVuSans-32"/>
      <use x="762.5" xlink:href="#DejaVuSans-955"/>
      <use x="821.679688" xlink:href="#DejaVuSans-32"/>
      <use x="853.466797" xlink:href="#DejaVuSans-47"/>
      <use x="887.158203" xlink:href="#DejaVuSans-32"/>
      <use x="918.945312" xlink:href="#DejaVuSans-78"/>
      <use x="993.75" xlink:href="#DejaVuSans-65"/>
      <use x="1062.158203" xlink:href="#DejaVuSans-41"/>
     </g>
    </g>
   </g>
   <g id="matplotlib.axis_8">
    <g id="ytick_22">
     <g id="line2d_51">
      <g>
       <use style="stroke:#000000;stroke-width:0.8;" x="308.6452" xlink:href="#m3558dc5484" y="100.161324"/>
      </g>
     </g>
    </g>
    <g id="ytick_23">
     <g id="line2d_52">
      <g>
       <use style="stroke:#000000;stroke-width:0.8;" x="308.6452" xlink:href="#m3558dc5484" y="87.122852"/>
      </g>
     </g>
    </g>
    <g id="ytick_24">
     <g id="line2d_53">
      <g>
       <use style="stroke:#000000;stroke-width:0.8;" x="308.6452" xlink:href="#m3558dc5484" y="74.08438"/>
      </g>
     </g>
    </g>
    <g id="ytick_25">
     <g id="line2d_54">
      <g>
       <use style="stroke:#000000;stroke-width:0.8;" x="308.6452" xlink:href="#m3558dc5484" y="61.045908"/>
      </g>
     </g>
    </g>
    <g id="ytick_26">
     <g id="line2d_55">
      <g>
       <use style="stroke:#000000;stroke-width:0.8;" x="308.6452" xlink:href="#m3558dc5484" y="48.007437"/>
      </g>
     </g>
    </g>
    <g id="ytick_27">
     <g id="line2d_56">
      <g>
       <use style="stroke:#000000;stroke-width:0.8;" x="308.6452" xlink:href="#m3558dc5484" y="34.968965"/>
      </g>
     </g>
    </g>
    <g id="ytick_28">
     <g id="line2d_57">
      <g>
       <use style="stroke:#000000;stroke-width:0.8;" x="308.6452" xlink:href="#m3558dc5484" y="21.930493"/>
      </g>
     </g>
    </g>
   </g>
   <g id="line2d_58">
    <path clip-path="url(#p1fa9af69f7)" d="M 312.118475 100.058526 
L 322.241586 100.03146 
L 326.430459 99.891901 
L 329.572114 100.032917 
L 332.713769 100.159398 
L 334.808206 100.009725 
L 337.251716 99.559211 
L 340.044298 99.063715 
L 341.440589 99.034328 
L 342.83688 99.223675 
L 344.931317 99.803382 
L 346.327608 100.125678 
L 347.374827 100.120106 
L 348.072972 99.908636 
L 348.771118 99.470509 
L 349.469264 98.754125 
L 350.167409 97.710976 
L 350.865555 96.298434 
L 351.5637 94.482518 
L 352.610919 90.956275 
L 353.658137 86.456971 
L 354.705355 81.047911 
L 356.101647 72.691525 
L 360.29052 46.29447 
L 361.337739 41.28217 
L 362.035884 38.657526 
L 362.73403 36.696796 
L 363.432175 35.45714 
L 363.781248 35.119962 
L 364.130321 34.97501 
L 364.479394 35.023358 
L 364.828467 35.264646 
L 365.177539 35.697089 
L 365.875685 37.121272 
L 366.573831 39.254103 
L 367.271976 42.033579 
L 368.319194 47.236926 
L 369.715486 55.583741 
L 373.904359 82.007317 
L 375.30065 88.826298 
L 376.347869 92.84171 
L 377.395087 95.88337 
L 378.093233 97.393968 
L 378.791378 98.525759 
L 379.489524 99.319469 
L 380.18767 99.822396 
L 380.885815 100.085626 
L 381.583961 100.161321 
L 381.583961 100.161321 
" style="fill:none;stroke:#1f77b4;stroke-dasharray:0.5,0.825;stroke-dashoffset:0;stroke-width:0.5;"/>
   </g>
   <g id="line2d_59">
    <path clip-path="url(#p1fa9af69f7)" d="M 312.118475 100.161321 
L 312.81662 100.085626 
L 313.514766 99.822396 
L 314.212911 99.319469 
L 314.911057 98.525759 
L 315.609202 97.393968 
L 316.307348 95.88337 
L 317.005494 93.962567 
L 318.052712 90.273306 
L 319.09993 85.615672 
L 320.496222 78.04564 
L 322.241586 67.035768 
L 325.034168 49.199343 
L 326.081386 43.641519 
L 327.128605 39.254103 
L 327.82675 37.121272 
L 328.524896 35.697089 
L 328.873969 35.264646 
L 329.223041 35.023358 
L 329.572114 34.97501 
L 329.921187 35.119962 
L 330.27026 35.45714 
L 330.968405 36.696796 
L 331.666551 38.657526 
L 332.364697 41.28217 
L 333.411915 46.29447 
L 334.808206 54.478088 
L 339.346153 82.944558 
L 340.393371 88.062707 
L 341.440589 92.24051 
L 342.487808 95.44261 
L 343.185953 97.053238 
L 343.884099 98.276231 
L 344.582244 99.150236 
L 345.28039 99.72117 
L 345.978536 100.039432 
L 346.676681 100.157157 
L 347.7239 100.069249 
L 349.469264 99.593104 
L 351.214628 99.156212 
L 352.610919 99.021751 
L 354.00721 99.101372 
L 356.101647 99.483568 
L 359.243302 100.052103 
L 361.337739 100.161227 
L 364.130321 100.032917 
L 367.621049 99.890254 
L 371.111777 100.012502 
L 375.649723 100.161288 
L 381.583961 100.058526 
L 381.583961 100.058526 
" style="fill:none;stroke:#1f77b4;stroke-dasharray:0.5,0.825;stroke-dashoffset:0;stroke-width:0.5;"/>
   </g>
   <g id="line2d_60">
    <path clip-path="url(#p1fa9af69f7)" d="M 312.118475 100.058523 
L 312.81662 99.989194 
L 313.514766 99.736829 
L 314.212911 99.248357 
L 314.911057 98.471351 
L 315.609202 97.356815 
L 316.307348 95.862115 
L 317.005494 93.95388 
L 318.052712 90.27327 
L 319.09993 85.607972 
L 320.496222 77.999482 
L 322.241586 66.905905 
L 325.034168 48.942053 
L 326.081386 43.370449 
L 327.128605 38.997733 
L 327.82675 36.890377 
L 328.524896 35.50221 
L 328.873969 35.090779 
L 329.223041 34.871842 
L 329.572114 34.846603 
L 329.921187 35.014778 
L 330.27026 35.374601 
L 330.968405 36.65489 
L 331.666551 38.64504 
L 332.364697 41.282073 
L 333.411915 46.270203 
L 334.808206 54.32649 
L 339.346153 81.932141 
L 340.742444 88.424844 
L 341.789662 92.315352 
L 342.83688 95.360785 
L 343.884099 97.604889 
L 344.582244 98.687654 
L 345.28039 99.462888 
L 345.978536 99.947357 
L 346.676681 100.152787 
L 347.374827 100.08446 
L 348.072972 99.740597 
L 348.771118 99.112568 
L 349.469264 98.185905 
L 350.167409 96.942063 
L 350.865555 95.360785 
L 351.912773 92.315352 
L 352.959992 88.424844 
L 354.00721 83.689478 
L 355.403501 76.181934 
L 357.497938 63.190092 
L 359.941447 48.160236 
L 360.988666 42.818569 
L 362.035884 38.64504 
L 362.73403 36.65489 
L 363.432175 35.374601 
L 363.781248 35.014778 
L 364.130321 34.846603 
L 364.479394 34.871842 
L 364.828467 35.090779 
L 365.177539 35.50221 
L 365.875685 36.890377 
L 366.573831 38.997733 
L 367.271976 41.764156 
L 368.319194 46.972078 
L 369.715486 55.363842 
L 373.904359 81.984336 
L 375.30065 88.825684 
L 376.347869 92.837472 
L 377.395087 95.862115 
L 378.093233 97.356815 
L 378.791378 98.471351 
L 379.489524 99.248357 
L 380.18767 99.736829 
L 380.885815 99.989194 
L 381.583961 100.058523 
L 381.583961 100.058523 
" style="fill:none;stroke:#1f77b4;stroke-linecap:square;stroke-width:1.5;"/>
   </g>
   <g id="patch_18">
    <path d="M 308.6452 103.420942 
L 308.6452 18.670875 
" style="fill:none;stroke:#000000;stroke-linecap:square;stroke-linejoin:miter;stroke-width:0.8;"/>
   </g>
   <g id="patch_19">
    <path d="M 385.057235 103.420942 
L 385.057235 18.670875 
" style="fill:none;stroke:#000000;stroke-linecap:square;stroke-linejoin:miter;stroke-width:0.8;"/>
   </g>
   <g id="patch_20">
    <path d="M 308.6452 103.420942 
L 385.057235 103.420942 
" style="fill:none;stroke:#000000;stroke-linecap:square;stroke-linejoin:miter;stroke-width:0.8;"/>
   </g>
   <g id="patch_21">
    <path d="M 308.6452 18.670875 
L 385.057235 18.670875 
" style="fill:none;stroke:#000000;stroke-linecap:square;stroke-linejoin:miter;stroke-width:0.8;"/>
   </g>
   <g id="text_36">
    <!-- Above resolution -->
    <defs>
     <path d="M 48.6875 27.296875 
Q 48.6875 37.203125 44.609375 42.84375 
Q 40.53125 48.484375 33.40625 48.484375 
Q 26.265625 48.484375 22.1875 42.84375 
Q 18.109375 37.203125 18.109375 27.296875 
Q 18.109375 17.390625 22.1875 11.75 
Q 26.265625 6.109375 33.40625 6.109375 
Q 40.53125 6.109375 44.609375 11.75 
Q 48.6875 17.390625 48.6875 27.296875 
z
M 18.109375 46.390625 
Q 20.953125 51.265625 25.265625 53.625 
Q 29.59375 56 35.59375 56 
Q 45.5625 56 51.78125 48.09375 
Q 58.015625 40.1875 58.015625 27.296875 
Q 58.015625 14.40625 51.78125 6.484375 
Q 45.5625 -1.421875 35.59375 -1.421875 
Q 29.59375 -1.421875 25.265625 0.953125 
Q 20.953125 3.328125 18.109375 8.203125 
L 18.109375 0 
L 9.078125 0 
L 9.078125 75.984375 
L 18.109375 75.984375 
z
" id="DejaVuSans-98"/>
     <path d="M 2.984375 54.6875 
L 12.5 54.6875 
L 29.59375 8.796875 
L 46.6875 54.6875 
L 56.203125 54.6875 
L 35.6875 0 
L 23.484375 0 
z
" id="DejaVuSans-118"/>
    </defs>
    <g transform="translate(316.540905 12.670875)scale(0.072 -0.072)">
     <use xlink:href="#DejaVuSans-65"/>
     <use x="68.408203" xlink:href="#DejaVuSans-98"/>
     <use x="131.884766" xlink:href="#DejaVuSans-111"/>
     <use x="193.066406" xlink:href="#DejaVuSans-118"/>
     <use x="252.246094" xlink:href="#DejaVuSans-101"/>
     <use x="313.769531" xlink:href="#DejaVuSans-32"/>
     <use x="345.556641" xlink:href="#DejaVuSans-114"/>
     <use x="384.419922" xlink:href="#DejaVuSans-101"/>
     <use x="445.943359" xlink:href="#DejaVuSans-115"/>
     <use x="498.042969" xlink:href="#DejaVuSans-111"/>
     <use x="559.224609" xlink:href="#DejaVuSans-108"/>
     <use x="587.007812" xlink:href="#DejaVuSans-117"/>
     <use x="650.386719" xlink:href="#DejaVuSans-116"/>
     <use x="689.595703" xlink:href="#DejaVuSans-105"/>
     <use x="717.378906" xlink:href="#DejaVuSans-111"/>
     <use x="778.560547" xlink:href="#DejaVuSans-110"/>
    </g>
   </g>
  </g>
 </g>
 <defs>
  <clipPath id="pfc3a462195">
   <rect height="84.750067" width="76.412035" x="33.561875" y="18.670875"/>
  </clipPath>
  <clipPath id="p5c1f059009">
   <rect height="84.750067" width="76.412035" x="125.256317" y="18.670875"/>
  </clipPath>
  <clipPath id="pe55595024c">
   <rect height="84.750067" width="76.412035" x="216.950758" y="18.670875"/>
  </clipPath>
  <clipPath id="p1fa9af69f7">
   <rect height="84.750067" width="76.412035" x="308.6452" y="18.670875"/>
  </clipPath>
 </defs>
</svg>
