<?xml version="1.0" encoding="utf-8" standalone="no"?>
<!DOCTYPE svg PUBLIC "-//W3C//DTD SVG 1.1//EN"
  "http://www.w3.org/Graphics/SVG/1.1/DTD/svg11.dtd">
<!-- Created with matplotlib (https://matplotlib.org/) -->
<svg height="134.918468pt" version="1.1" viewBox="0 0 392.257235 134.918468" width="392.257235pt" xmlns="http://www.w3.org/2000/svg" xmlns:xlink="http://www.w3.org/1999/xlink">
 <metadata>
  <rdf:RDF xmlns:cc="http://creativecommons.org/ns#" xmlns:dc="http://purl.org/dc/elements/1.1/" xmlns:rdf="http://www.w3.org/1999/02/22-rdf-syntax-ns#">
   <cc:Work>
    <dc:type rdf:resource="http://purl.org/dc/dcmitype/StillImage"/>
    <dc:date>2021-04-15T23:08:29.912578</dc:date>
    <dc:format>image/svg+xml</dc:format>
    <dc:creator>
     <cc:Agent>
      <dc:title>Matplotlib v3.3.4, https://matplotlib.org/</dc:title>
     </cc:Agent>
    </dc:creator>
   </cc:Work>
  </rdf:RDF>
 </metadata>
 <defs>
  <style type="text/css">*{stroke-linecap:butt;stroke-linejoin:round;}</style>
 </defs>
 <g id="figure_1">
  <g id="patch_1">
   <path d="M 0 134.918468 
L 392.257235 134.918468 
L 392.257235 0 
L 0 0 
z
" style="fill:#ffffff;"/>
  </g>
  <g id="axes_1">
   <g id="patch_2">
    <path d="M 33.561875 105.104718 
L 109.97391 105.104718 
L 109.97391 18.670875 
L 33.561875 18.670875 
z
" style="fill:#ffffff;"/>
   </g>
   <g id="matplotlib.axis_1">
    <g id="xtick_1">
     <g id="line2d_1">
      <defs>
       <path d="M 0 0 
L 0 3.5 
" id="m805f1bd0e9" style="stroke:#000000;stroke-width:0.8;"/>
      </defs>
      <g>
       <use style="stroke:#000000;stroke-width:0.8;" x="37.035149" xlink:href="#m805f1bd0e9" y="105.104718"/>
      </g>
     </g>
     <g id="text_1">
      <!-- −2 -->
      <g transform="translate(32.612493 116.66378)scale(0.06 -0.06)">
       <defs>
        <path d="M 10.59375 35.5 
L 73.1875 35.5 
L 73.1875 27.203125 
L 10.59375 27.203125 
z
" id="DejaVuSans-8722"/>
        <path d="M 19.1875 8.296875 
L 53.609375 8.296875 
L 53.609375 0 
L 7.328125 0 
L 7.328125 8.296875 
Q 12.9375 14.109375 22.625 23.890625 
Q 32.328125 33.6875 34.8125 36.53125 
Q 39.546875 41.84375 41.421875 45.53125 
Q 43.3125 49.21875 43.3125 52.78125 
Q 43.3125 58.59375 39.234375 62.25 
Q 35.15625 65.921875 28.609375 65.921875 
Q 23.96875 65.921875 18.8125 64.3125 
Q 13.671875 62.703125 7.8125 59.421875 
L 7.8125 69.390625 
Q 13.765625 71.78125 18.9375 73 
Q 24.125 74.21875 28.421875 74.21875 
Q 39.75 74.21875 46.484375 68.546875 
Q 53.21875 62.890625 53.21875 53.421875 
Q 53.21875 48.921875 51.53125 44.890625 
Q 49.859375 40.875 45.40625 35.40625 
Q 44.1875 33.984375 37.640625 27.21875 
Q 31.109375 20.453125 19.1875 8.296875 
z
" id="DejaVuSans-50"/>
       </defs>
       <use xlink:href="#DejaVuSans-8722"/>
       <use x="83.789062" xlink:href="#DejaVuSans-50"/>
      </g>
     </g>
    </g>
    <g id="xtick_2">
     <g id="line2d_2">
      <g>
       <use style="stroke:#000000;stroke-width:0.8;" x="54.401521" xlink:href="#m805f1bd0e9" y="105.104718"/>
      </g>
     </g>
     <g id="text_2">
      <!-- −1 -->
      <g transform="translate(49.978865 116.66378)scale(0.06 -0.06)">
       <defs>
        <path d="M 12.40625 8.296875 
L 28.515625 8.296875 
L 28.515625 63.921875 
L 10.984375 60.40625 
L 10.984375 69.390625 
L 28.421875 72.90625 
L 38.28125 72.90625 
L 38.28125 8.296875 
L 54.390625 8.296875 
L 54.390625 0 
L 12.40625 0 
z
" id="DejaVuSans-49"/>
       </defs>
       <use xlink:href="#DejaVuSans-8722"/>
       <use x="83.789062" xlink:href="#DejaVuSans-49"/>
      </g>
     </g>
    </g>
    <g id="xtick_3">
     <g id="line2d_3">
      <g>
       <use style="stroke:#000000;stroke-width:0.8;" x="71.767892" xlink:href="#m805f1bd0e9" y="105.104718"/>
      </g>
     </g>
     <g id="text_3">
      <!-- 0 -->
      <g transform="translate(69.859142 116.66378)scale(0.06 -0.06)">
       <defs>
        <path d="M 31.78125 66.40625 
Q 24.171875 66.40625 20.328125 58.90625 
Q 16.5 51.421875 16.5 36.375 
Q 16.5 21.390625 20.328125 13.890625 
Q 24.171875 6.390625 31.78125 6.390625 
Q 39.453125 6.390625 43.28125 13.890625 
Q 47.125 21.390625 47.125 36.375 
Q 47.125 51.421875 43.28125 58.90625 
Q 39.453125 66.40625 31.78125 66.40625 
z
M 31.78125 74.21875 
Q 44.046875 74.21875 50.515625 64.515625 
Q 56.984375 54.828125 56.984375 36.375 
Q 56.984375 17.96875 50.515625 8.265625 
Q 44.046875 -1.421875 31.78125 -1.421875 
Q 19.53125 -1.421875 13.0625 8.265625 
Q 6.59375 17.96875 6.59375 36.375 
Q 6.59375 54.828125 13.0625 64.515625 
Q 19.53125 74.21875 31.78125 74.21875 
z
" id="DejaVuSans-48"/>
       </defs>
       <use xlink:href="#DejaVuSans-48"/>
      </g>
     </g>
    </g>
    <g id="xtick_4">
     <g id="line2d_4">
      <g>
       <use style="stroke:#000000;stroke-width:0.8;" x="89.134264" xlink:href="#m805f1bd0e9" y="105.104718"/>
      </g>
     </g>
     <g id="text_4">
      <!-- 1 -->
      <g transform="translate(87.225514 116.66378)scale(0.06 -0.06)">
       <use xlink:href="#DejaVuSans-49"/>
      </g>
     </g>
    </g>
    <g id="xtick_5">
     <g id="line2d_5">
      <g>
       <use style="stroke:#000000;stroke-width:0.8;" x="106.500635" xlink:href="#m805f1bd0e9" y="105.104718"/>
      </g>
     </g>
     <g id="text_5">
      <!-- 2 -->
      <g transform="translate(104.591885 116.66378)scale(0.06 -0.06)">
       <use xlink:href="#DejaVuSans-50"/>
      </g>
     </g>
    </g>
    <g id="text_6">
     <!-- Distance (1.22 λ / NA) -->
     <g transform="translate(38.733205 126.470655)scale(0.06 -0.06)">
      <defs>
       <path d="M 19.671875 64.796875 
L 19.671875 8.109375 
L 31.59375 8.109375 
Q 46.6875 8.109375 53.6875 14.9375 
Q 60.6875 21.78125 60.6875 36.53125 
Q 60.6875 51.171875 53.6875 57.984375 
Q 46.6875 64.796875 31.59375 64.796875 
z
M 9.8125 72.90625 
L 30.078125 72.90625 
Q 51.265625 72.90625 61.171875 64.09375 
Q 71.09375 55.28125 71.09375 36.53125 
Q 71.09375 17.671875 61.125 8.828125 
Q 51.171875 0 30.078125 0 
L 9.8125 0 
z
" id="DejaVuSans-68"/>
       <path d="M 9.421875 54.6875 
L 18.40625 54.6875 
L 18.40625 0 
L 9.421875 0 
z
M 9.421875 75.984375 
L 18.40625 75.984375 
L 18.40625 64.59375 
L 9.421875 64.59375 
z
" id="DejaVuSans-105"/>
       <path d="M 44.28125 53.078125 
L 44.28125 44.578125 
Q 40.484375 46.53125 36.375 47.5 
Q 32.28125 48.484375 27.875 48.484375 
Q 21.1875 48.484375 17.84375 46.4375 
Q 14.5 44.390625 14.5 40.28125 
Q 14.5 37.15625 16.890625 35.375 
Q 19.28125 33.59375 26.515625 31.984375 
L 29.59375 31.296875 
Q 39.15625 29.25 43.1875 25.515625 
Q 47.21875 21.78125 47.21875 15.09375 
Q 47.21875 7.46875 41.1875 3.015625 
Q 35.15625 -1.421875 24.609375 -1.421875 
Q 20.21875 -1.421875 15.453125 -0.5625 
Q 10.6875 0.296875 5.421875 2 
L 5.421875 11.28125 
Q 10.40625 8.6875 15.234375 7.390625 
Q 20.0625 6.109375 24.8125 6.109375 
Q 31.15625 6.109375 34.5625 8.28125 
Q 37.984375 10.453125 37.984375 14.40625 
Q 37.984375 18.0625 35.515625 20.015625 
Q 33.0625 21.96875 24.703125 23.78125 
L 21.578125 24.515625 
Q 13.234375 26.265625 9.515625 29.90625 
Q 5.8125 33.546875 5.8125 39.890625 
Q 5.8125 47.609375 11.28125 51.796875 
Q 16.75 56 26.8125 56 
Q 31.78125 56 36.171875 55.265625 
Q 40.578125 54.546875 44.28125 53.078125 
z
" id="DejaVuSans-115"/>
       <path d="M 18.3125 70.21875 
L 18.3125 54.6875 
L 36.8125 54.6875 
L 36.8125 47.703125 
L 18.3125 47.703125 
L 18.3125 18.015625 
Q 18.3125 11.328125 20.140625 9.421875 
Q 21.96875 7.515625 27.59375 7.515625 
L 36.8125 7.515625 
L 36.8125 0 
L 27.59375 0 
Q 17.1875 0 13.234375 3.875 
Q 9.28125 7.765625 9.28125 18.015625 
L 9.28125 47.703125 
L 2.6875 47.703125 
L 2.6875 54.6875 
L 9.28125 54.6875 
L 9.28125 70.21875 
z
" id="DejaVuSans-116"/>
       <path d="M 34.28125 27.484375 
Q 23.390625 27.484375 19.1875 25 
Q 14.984375 22.515625 14.984375 16.5 
Q 14.984375 11.71875 18.140625 8.90625 
Q 21.296875 6.109375 26.703125 6.109375 
Q 34.1875 6.109375 38.703125 11.40625 
Q 43.21875 16.703125 43.21875 25.484375 
L 43.21875 27.484375 
z
M 52.203125 31.203125 
L 52.203125 0 
L 43.21875 0 
L 43.21875 8.296875 
Q 40.140625 3.328125 35.546875 0.953125 
Q 30.953125 -1.421875 24.3125 -1.421875 
Q 15.921875 -1.421875 10.953125 3.296875 
Q 6 8.015625 6 15.921875 
Q 6 25.140625 12.171875 29.828125 
Q 18.359375 34.515625 30.609375 34.515625 
L 43.21875 34.515625 
L 43.21875 35.40625 
Q 43.21875 41.609375 39.140625 45 
Q 35.0625 48.390625 27.6875 48.390625 
Q 23 48.390625 18.546875 47.265625 
Q 14.109375 46.140625 10.015625 43.890625 
L 10.015625 52.203125 
Q 14.9375 54.109375 19.578125 55.046875 
Q 24.21875 56 28.609375 56 
Q 40.484375 56 46.34375 49.84375 
Q 52.203125 43.703125 52.203125 31.203125 
z
" id="DejaVuSans-97"/>
       <path d="M 54.890625 33.015625 
L 54.890625 0 
L 45.90625 0 
L 45.90625 32.71875 
Q 45.90625 40.484375 42.875 44.328125 
Q 39.84375 48.1875 33.796875 48.1875 
Q 26.515625 48.1875 22.3125 43.546875 
Q 18.109375 38.921875 18.109375 30.90625 
L 18.109375 0 
L 9.078125 0 
L 9.078125 54.6875 
L 18.109375 54.6875 
L 18.109375 46.1875 
Q 21.34375 51.125 25.703125 53.5625 
Q 30.078125 56 35.796875 56 
Q 45.21875 56 50.046875 50.171875 
Q 54.890625 44.34375 54.890625 33.015625 
z
" id="DejaVuSans-110"/>
       <path d="M 48.78125 52.59375 
L 48.78125 44.1875 
Q 44.96875 46.296875 41.140625 47.34375 
Q 37.3125 48.390625 33.40625 48.390625 
Q 24.65625 48.390625 19.8125 42.84375 
Q 14.984375 37.3125 14.984375 27.296875 
Q 14.984375 17.28125 19.8125 11.734375 
Q 24.65625 6.203125 33.40625 6.203125 
Q 37.3125 6.203125 41.140625 7.25 
Q 44.96875 8.296875 48.78125 10.40625 
L 48.78125 2.09375 
Q 45.015625 0.34375 40.984375 -0.53125 
Q 36.96875 -1.421875 32.421875 -1.421875 
Q 20.0625 -1.421875 12.78125 6.34375 
Q 5.515625 14.109375 5.515625 27.296875 
Q 5.515625 40.671875 12.859375 48.328125 
Q 20.21875 56 33.015625 56 
Q 37.15625 56 41.109375 55.140625 
Q 45.0625 54.296875 48.78125 52.59375 
z
" id="DejaVuSans-99"/>
       <path d="M 56.203125 29.59375 
L 56.203125 25.203125 
L 14.890625 25.203125 
Q 15.484375 15.921875 20.484375 11.0625 
Q 25.484375 6.203125 34.421875 6.203125 
Q 39.59375 6.203125 44.453125 7.46875 
Q 49.3125 8.734375 54.109375 11.28125 
L 54.109375 2.78125 
Q 49.265625 0.734375 44.1875 -0.34375 
Q 39.109375 -1.421875 33.890625 -1.421875 
Q 20.796875 -1.421875 13.15625 6.1875 
Q 5.515625 13.8125 5.515625 26.8125 
Q 5.515625 40.234375 12.765625 48.109375 
Q 20.015625 56 32.328125 56 
Q 43.359375 56 49.78125 48.890625 
Q 56.203125 41.796875 56.203125 29.59375 
z
M 47.21875 32.234375 
Q 47.125 39.59375 43.09375 43.984375 
Q 39.0625 48.390625 32.421875 48.390625 
Q 24.90625 48.390625 20.390625 44.140625 
Q 15.875 39.890625 15.1875 32.171875 
z
" id="DejaVuSans-101"/>
       <path id="DejaVuSans-32"/>
       <path d="M 31 75.875 
Q 24.46875 64.65625 21.28125 53.65625 
Q 18.109375 42.671875 18.109375 31.390625 
Q 18.109375 20.125 21.3125 9.0625 
Q 24.515625 -2 31 -13.1875 
L 23.1875 -13.1875 
Q 15.875 -1.703125 12.234375 9.375 
Q 8.59375 20.453125 8.59375 31.390625 
Q 8.59375 42.28125 12.203125 53.3125 
Q 15.828125 64.359375 23.1875 75.875 
z
" id="DejaVuSans-40"/>
       <path d="M 10.6875 12.40625 
L 21 12.40625 
L 21 0 
L 10.6875 0 
z
" id="DejaVuSans-46"/>
       <path d="M 30.953125 67.4375 
L 56.203125 0 
L 46.6875 0 
L 31.34375 40.4375 
L 12.5 0 
L 2.984375 0 
L 26.953125 52.4375 
L 23.34375 62.109375 
Q 21.046875 68.265625 15.828125 68.265625 
L 11.140625 68.265625 
L 11.140625 75.984375 
L 16.84375 75.875 
Q 27.875 75.734375 30.953125 67.4375 
z
" id="DejaVuSans-955"/>
       <path d="M 25.390625 72.90625 
L 33.6875 72.90625 
L 8.296875 -9.28125 
L 0 -9.28125 
z
" id="DejaVuSans-47"/>
       <path d="M 9.8125 72.90625 
L 23.09375 72.90625 
L 55.421875 11.921875 
L 55.421875 72.90625 
L 64.984375 72.90625 
L 64.984375 0 
L 51.703125 0 
L 19.390625 60.984375 
L 19.390625 0 
L 9.8125 0 
z
" id="DejaVuSans-78"/>
       <path d="M 34.1875 63.1875 
L 20.796875 26.90625 
L 47.609375 26.90625 
z
M 28.609375 72.90625 
L 39.796875 72.90625 
L 67.578125 0 
L 57.328125 0 
L 50.6875 18.703125 
L 17.828125 18.703125 
L 11.1875 0 
L 0.78125 0 
z
" id="DejaVuSans-65"/>
       <path d="M 8.015625 75.875 
L 15.828125 75.875 
Q 23.140625 64.359375 26.78125 53.3125 
Q 30.421875 42.28125 30.421875 31.390625 
Q 30.421875 20.453125 26.78125 9.375 
Q 23.140625 -1.703125 15.828125 -13.1875 
L 8.015625 -13.1875 
Q 14.5 -2 17.703125 9.0625 
Q 20.90625 20.125 20.90625 31.390625 
Q 20.90625 42.671875 17.703125 53.65625 
Q 14.5 64.65625 8.015625 75.875 
z
" id="DejaVuSans-41"/>
      </defs>
      <use xlink:href="#DejaVuSans-68"/>
      <use x="77.001953" xlink:href="#DejaVuSans-105"/>
      <use x="104.785156" xlink:href="#DejaVuSans-115"/>
      <use x="156.884766" xlink:href="#DejaVuSans-116"/>
      <use x="196.09375" xlink:href="#DejaVuSans-97"/>
      <use x="257.373047" xlink:href="#DejaVuSans-110"/>
      <use x="320.751953" xlink:href="#DejaVuSans-99"/>
      <use x="375.732422" xlink:href="#DejaVuSans-101"/>
      <use x="437.255859" xlink:href="#DejaVuSans-32"/>
      <use x="469.042969" xlink:href="#DejaVuSans-40"/>
      <use x="508.056641" xlink:href="#DejaVuSans-49"/>
      <use x="571.679688" xlink:href="#DejaVuSans-46"/>
      <use x="603.466797" xlink:href="#DejaVuSans-50"/>
      <use x="667.089844" xlink:href="#DejaVuSans-50"/>
      <use x="730.712891" xlink:href="#DejaVuSans-32"/>
      <use x="762.5" xlink:href="#DejaVuSans-955"/>
      <use x="821.679688" xlink:href="#DejaVuSans-32"/>
      <use x="853.466797" xlink:href="#DejaVuSans-47"/>
      <use x="887.158203" xlink:href="#DejaVuSans-32"/>
      <use x="918.945312" xlink:href="#DejaVuSans-78"/>
      <use x="993.75" xlink:href="#DejaVuSans-65"/>
      <use x="1062.158203" xlink:href="#DejaVuSans-41"/>
     </g>
    </g>
   </g>
   <g id="matplotlib.axis_2">
    <g id="ytick_1">
     <g id="line2d_6">
      <defs>
       <path d="M 0 0 
L -3.5 0 
" id="m4d08706edf" style="stroke:#000000;stroke-width:0.8;"/>
      </defs>
      <g>
       <use style="stroke:#000000;stroke-width:0.8;" x="33.561875" xlink:href="#m4d08706edf" y="101.780339"/>
      </g>
     </g>
     <g id="text_7">
      <!-- 0.0 -->
      <g transform="translate(17.02 104.059871)scale(0.06 -0.06)">
       <use xlink:href="#DejaVuSans-48"/>
       <use x="63.623047" xlink:href="#DejaVuSans-46"/>
       <use x="95.410156" xlink:href="#DejaVuSans-48"/>
      </g>
     </g>
    </g>
    <g id="ytick_2">
     <g id="line2d_7">
      <g>
       <use style="stroke:#000000;stroke-width:0.8;" x="33.561875" xlink:href="#m4d08706edf" y="88.482825"/>
      </g>
     </g>
     <g id="text_8">
      <!-- 0.2 -->
      <g transform="translate(17.02 90.762356)scale(0.06 -0.06)">
       <use xlink:href="#DejaVuSans-48"/>
       <use x="63.623047" xlink:href="#DejaVuSans-46"/>
       <use x="95.410156" xlink:href="#DejaVuSans-50"/>
      </g>
     </g>
    </g>
    <g id="ytick_3">
     <g id="line2d_8">
      <g>
       <use style="stroke:#000000;stroke-width:0.8;" x="33.561875" xlink:href="#m4d08706edf" y="75.185311"/>
      </g>
     </g>
     <g id="text_9">
      <!-- 0.4 -->
      <g transform="translate(17.02 77.464842)scale(0.06 -0.06)">
       <defs>
        <path d="M 37.796875 64.3125 
L 12.890625 25.390625 
L 37.796875 25.390625 
z
M 35.203125 72.90625 
L 47.609375 72.90625 
L 47.609375 25.390625 
L 58.015625 25.390625 
L 58.015625 17.1875 
L 47.609375 17.1875 
L 47.609375 0 
L 37.796875 0 
L 37.796875 17.1875 
L 4.890625 17.1875 
L 4.890625 26.703125 
z
" id="DejaVuSans-52"/>
       </defs>
       <use xlink:href="#DejaVuSans-48"/>
       <use x="63.623047" xlink:href="#DejaVuSans-46"/>
       <use x="95.410156" xlink:href="#DejaVuSans-52"/>
      </g>
     </g>
    </g>
    <g id="ytick_4">
     <g id="line2d_9">
      <g>
       <use style="stroke:#000000;stroke-width:0.8;" x="33.561875" xlink:href="#m4d08706edf" y="61.887796"/>
      </g>
     </g>
     <g id="text_10">
      <!-- 0.6 -->
      <g transform="translate(17.02 64.167328)scale(0.06 -0.06)">
       <defs>
        <path d="M 33.015625 40.375 
Q 26.375 40.375 22.484375 35.828125 
Q 18.609375 31.296875 18.609375 23.390625 
Q 18.609375 15.53125 22.484375 10.953125 
Q 26.375 6.390625 33.015625 6.390625 
Q 39.65625 6.390625 43.53125 10.953125 
Q 47.40625 15.53125 47.40625 23.390625 
Q 47.40625 31.296875 43.53125 35.828125 
Q 39.65625 40.375 33.015625 40.375 
z
M 52.59375 71.296875 
L 52.59375 62.3125 
Q 48.875 64.0625 45.09375 64.984375 
Q 41.3125 65.921875 37.59375 65.921875 
Q 27.828125 65.921875 22.671875 59.328125 
Q 17.53125 52.734375 16.796875 39.40625 
Q 19.671875 43.65625 24.015625 45.921875 
Q 28.375 48.1875 33.59375 48.1875 
Q 44.578125 48.1875 50.953125 41.515625 
Q 57.328125 34.859375 57.328125 23.390625 
Q 57.328125 12.15625 50.6875 5.359375 
Q 44.046875 -1.421875 33.015625 -1.421875 
Q 20.359375 -1.421875 13.671875 8.265625 
Q 6.984375 17.96875 6.984375 36.375 
Q 6.984375 53.65625 15.1875 63.9375 
Q 23.390625 74.21875 37.203125 74.21875 
Q 40.921875 74.21875 44.703125 73.484375 
Q 48.484375 72.75 52.59375 71.296875 
z
" id="DejaVuSans-54"/>
       </defs>
       <use xlink:href="#DejaVuSans-48"/>
       <use x="63.623047" xlink:href="#DejaVuSans-46"/>
       <use x="95.410156" xlink:href="#DejaVuSans-54"/>
      </g>
     </g>
    </g>
    <g id="ytick_5">
     <g id="line2d_10">
      <g>
       <use style="stroke:#000000;stroke-width:0.8;" x="33.561875" xlink:href="#m4d08706edf" y="48.590282"/>
      </g>
     </g>
     <g id="text_11">
      <!-- 0.8 -->
      <g transform="translate(17.02 50.869813)scale(0.06 -0.06)">
       <defs>
        <path d="M 31.78125 34.625 
Q 24.75 34.625 20.71875 30.859375 
Q 16.703125 27.09375 16.703125 20.515625 
Q 16.703125 13.921875 20.71875 10.15625 
Q 24.75 6.390625 31.78125 6.390625 
Q 38.8125 6.390625 42.859375 10.171875 
Q 46.921875 13.96875 46.921875 20.515625 
Q 46.921875 27.09375 42.890625 30.859375 
Q 38.875 34.625 31.78125 34.625 
z
M 21.921875 38.8125 
Q 15.578125 40.375 12.03125 44.71875 
Q 8.5 49.078125 8.5 55.328125 
Q 8.5 64.0625 14.71875 69.140625 
Q 20.953125 74.21875 31.78125 74.21875 
Q 42.671875 74.21875 48.875 69.140625 
Q 55.078125 64.0625 55.078125 55.328125 
Q 55.078125 49.078125 51.53125 44.71875 
Q 48 40.375 41.703125 38.8125 
Q 48.828125 37.15625 52.796875 32.3125 
Q 56.78125 27.484375 56.78125 20.515625 
Q 56.78125 9.90625 50.3125 4.234375 
Q 43.84375 -1.421875 31.78125 -1.421875 
Q 19.734375 -1.421875 13.25 4.234375 
Q 6.78125 9.90625 6.78125 20.515625 
Q 6.78125 27.484375 10.78125 32.3125 
Q 14.796875 37.15625 21.921875 38.8125 
z
M 18.3125 54.390625 
Q 18.3125 48.734375 21.84375 45.5625 
Q 25.390625 42.390625 31.78125 42.390625 
Q 38.140625 42.390625 41.71875 45.5625 
Q 45.3125 48.734375 45.3125 54.390625 
Q 45.3125 60.0625 41.71875 63.234375 
Q 38.140625 66.40625 31.78125 66.40625 
Q 25.390625 66.40625 21.84375 63.234375 
Q 18.3125 60.0625 18.3125 54.390625 
z
" id="DejaVuSans-56"/>
       </defs>
       <use xlink:href="#DejaVuSans-48"/>
       <use x="63.623047" xlink:href="#DejaVuSans-46"/>
       <use x="95.410156" xlink:href="#DejaVuSans-56"/>
      </g>
     </g>
    </g>
    <g id="ytick_6">
     <g id="line2d_11">
      <g>
       <use style="stroke:#000000;stroke-width:0.8;" x="33.561875" xlink:href="#m4d08706edf" y="35.292768"/>
      </g>
     </g>
     <g id="text_12">
      <!-- 1.0 -->
      <g transform="translate(17.02 37.572299)scale(0.06 -0.06)">
       <use xlink:href="#DejaVuSans-49"/>
       <use x="63.623047" xlink:href="#DejaVuSans-46"/>
       <use x="95.410156" xlink:href="#DejaVuSans-48"/>
      </g>
     </g>
    </g>
    <g id="ytick_7">
     <g id="line2d_12">
      <g>
       <use style="stroke:#000000;stroke-width:0.8;" x="33.561875" xlink:href="#m4d08706edf" y="21.995254"/>
      </g>
     </g>
     <g id="text_13">
      <!-- 1.2 -->
      <g transform="translate(17.02 24.274785)scale(0.06 -0.06)">
       <use xlink:href="#DejaVuSans-49"/>
       <use x="63.623047" xlink:href="#DejaVuSans-46"/>
       <use x="95.410156" xlink:href="#DejaVuSans-50"/>
      </g>
     </g>
    </g>
    <g id="text_14">
     <!-- Intensity ($I_0$) -->
     <g transform="translate(11.76 80.547796)rotate(-90)scale(0.06 -0.06)">
      <defs>
       <path d="M 9.8125 72.90625 
L 19.671875 72.90625 
L 19.671875 0 
L 9.8125 0 
z
" id="DejaVuSans-73"/>
       <path d="M 32.171875 -5.078125 
Q 28.375 -14.84375 24.75 -17.8125 
Q 21.140625 -20.796875 15.09375 -20.796875 
L 7.90625 -20.796875 
L 7.90625 -13.28125 
L 13.1875 -13.28125 
Q 16.890625 -13.28125 18.9375 -11.515625 
Q 21 -9.765625 23.484375 -3.21875 
L 25.09375 0.875 
L 2.984375 54.6875 
L 12.5 54.6875 
L 29.59375 11.921875 
L 46.6875 54.6875 
L 56.203125 54.6875 
z
" id="DejaVuSans-121"/>
       <path d="M 16.890625 72.90625 
L 26.8125 72.90625 
L 12.59375 0 
L 2.6875 0 
z
" id="DejaVuSans-Oblique-73"/>
      </defs>
      <use transform="translate(0 0.015625)" xlink:href="#DejaVuSans-73"/>
      <use transform="translate(29.492188 0.015625)" xlink:href="#DejaVuSans-110"/>
      <use transform="translate(92.871094 0.015625)" xlink:href="#DejaVuSans-116"/>
      <use transform="translate(132.080078 0.015625)" xlink:href="#DejaVuSans-101"/>
      <use transform="translate(193.603516 0.015625)" xlink:href="#DejaVuSans-110"/>
      <use transform="translate(256.982422 0.015625)" xlink:href="#DejaVuSans-115"/>
      <use transform="translate(309.082031 0.015625)" xlink:href="#DejaVuSans-105"/>
      <use transform="translate(336.865234 0.015625)" xlink:href="#DejaVuSans-116"/>
      <use transform="translate(376.074219 0.015625)" xlink:href="#DejaVuSans-121"/>
      <use transform="translate(435.253906 0.015625)" xlink:href="#DejaVuSans-32"/>
      <use transform="translate(467.041016 0.015625)" xlink:href="#DejaVuSans-40"/>
      <use transform="translate(506.054688 0.015625)" xlink:href="#DejaVuSans-Oblique-73"/>
      <use transform="translate(535.546875 -16.390625)scale(0.7)" xlink:href="#DejaVuSans-48"/>
      <use transform="translate(582.817383 0.015625)" xlink:href="#DejaVuSans-41"/>
     </g>
    </g>
   </g>
   <g id="line2d_13">
    <path clip-path="url(#p1c85fcd9da)" d="M 37.035149 101.515225 
L 39.827732 101.549955 
L 45.412896 101.749573 
L 47.507333 101.500206 
L 52.743425 100.617472 
L 54.139716 100.715583 
L 55.536007 101.02647 
L 58.32859 101.756987 
L 59.375808 101.71768 
L 60.073954 101.469407 
L 60.772099 100.981656 
L 61.470245 100.20211 
L 62.168391 99.082046 
L 62.866536 97.579183 
L 63.564682 95.660491 
L 64.6119 91.960318 
L 65.659118 87.270467 
L 67.05541 79.617801 
L 68.800774 68.435898 
L 71.593356 50.192011 
L 72.640574 44.460292 
L 73.687793 39.901913 
L 74.385938 37.661894 
L 75.084084 36.139514 
L 75.433157 35.662247 
L 75.78223 35.379428 
L 76.131302 35.293153 
L 76.480375 35.404061 
L 76.829448 35.71133 
L 77.527594 36.904422 
L 78.225739 38.837328 
L 78.923885 41.453642 
L 79.971103 46.490119 
L 81.367394 54.770287 
L 86.254413 85.724517 
L 87.301632 90.693062 
L 88.34885 94.684414 
L 89.396069 97.685006 
L 90.094214 99.162867 
L 90.79236 100.260328 
L 91.490505 101.020158 
L 92.188651 101.491387 
L 92.886796 101.726463 
L 93.934015 101.752098 
L 95.330306 101.434861 
L 97.773816 100.767181 
L 99.170107 100.619449 
L 100.566398 100.69132 
L 102.660835 101.074708 
L 105.80249 101.661382 
L 106.500635 101.729038 
L 106.500635 101.729038 
" style="fill:none;stroke:#1f77b4;stroke-dasharray:0.5,0.825;stroke-dashoffset:0;stroke-width:0.5;"/>
   </g>
   <g id="line2d_14">
    <path clip-path="url(#p1c85fcd9da)" d="M 37.035149 101.729038 
L 39.129586 101.444431 
L 43.667532 100.63017 
L 45.063824 100.664843 
L 46.460115 100.921283 
L 49.950843 101.778523 
L 50.648988 101.726463 
L 51.347134 101.491387 
L 52.045279 101.020158 
L 52.743425 100.260328 
L 53.441571 99.162867 
L 54.139716 97.685006 
L 54.837862 95.793059 
L 55.88508 92.134454 
L 56.932299 87.484976 
L 58.32859 79.877999 
L 60.073954 68.728304 
L 62.866536 50.451229 
L 63.913755 44.677967 
L 64.960973 40.064359 
L 65.659118 37.781447 
L 66.357264 36.212685 
L 67.05541 35.404061 
L 67.404482 35.293153 
L 67.753555 35.379428 
L 68.102628 35.662247 
L 68.451701 36.139514 
L 69.149846 37.661894 
L 69.847992 39.901913 
L 70.89521 44.460292 
L 71.942429 50.192011 
L 73.687793 61.376182 
L 76.480375 79.617801 
L 77.876666 87.270467 
L 78.923885 91.960318 
L 79.971103 95.660491 
L 81.018321 98.380778 
L 81.716467 99.68747 
L 82.414613 100.63152 
L 83.112758 101.258787 
L 83.810904 101.620144 
L 84.509049 101.768664 
L 85.556268 101.706822 
L 87.301632 101.234381 
L 89.046996 100.775385 
L 90.443287 100.620606 
L 91.839578 100.686182 
L 93.934015 101.065125 
L 97.07567 101.656199 
L 99.170107 101.780293 
L 101.962689 101.656802 
L 105.80249 101.504636 
L 106.500635 101.515225 
L 106.500635 101.515225 
" style="fill:none;stroke:#1f77b4;stroke-dasharray:0.5,0.825;stroke-dashoffset:0;stroke-width:0.5;"/>
   </g>
   <g id="line2d_15">
    <path clip-path="url(#p1c85fcd9da)" d="M 37.035149 101.463924 
L 39.827732 101.073409 
L 42.969387 100.654179 
L 44.714751 100.631155 
L 46.809188 100.844707 
L 48.903624 101.063487 
L 49.950843 100.987654 
L 50.998061 100.641016 
L 51.696207 100.19446 
L 52.394352 99.527099 
L 53.092498 98.596922 
L 53.790643 97.36309 
L 54.488789 95.787515 
L 55.536007 92.711189 
L 56.583226 88.704247 
L 57.630444 83.720414 
L 58.677663 77.763253 
L 60.073954 68.417372 
L 61.819318 54.935587 
L 66.706337 15.595546 
L 67.753555 8.903466 
L 68.800774 3.463263 
L 69.498919 0.644241 
L 70.028283 -1 
M 73.507502 -1 
L 74.036866 0.644241 
L 74.735011 3.463263 
L 75.78223 8.903466 
L 76.829448 15.595546 
L 78.225739 25.997964 
L 81.018321 49.173504 
L 83.112758 65.859426 
L 84.509049 75.569828 
L 85.905341 83.720414 
L 86.952559 88.704247 
L 87.999777 92.711189 
L 89.046996 95.787515 
L 90.094214 98.020427 
L 90.79236 99.097461 
L 91.490505 99.891015 
L 92.188651 100.442708 
L 92.886796 100.794576 
L 93.934015 101.036883 
L 95.330306 101.021779 
L 99.868252 100.620698 
L 101.962689 100.802065 
L 106.500635 101.463924 
L 106.500635 101.463924 
" style="fill:none;stroke:#1f77b4;stroke-linecap:square;stroke-width:1.5;"/>
   </g>
   <g id="patch_3">
    <path d="M 33.561875 105.104718 
L 33.561875 18.670875 
" style="fill:none;stroke:#000000;stroke-linecap:square;stroke-linejoin:miter;stroke-width:0.8;"/>
   </g>
   <g id="patch_4">
    <path d="M 109.97391 105.104718 
L 109.97391 18.670875 
" style="fill:none;stroke:#000000;stroke-linecap:square;stroke-linejoin:miter;stroke-width:0.8;"/>
   </g>
   <g id="patch_5">
    <path d="M 33.561875 105.104718 
L 109.97391 105.104718 
" style="fill:none;stroke:#000000;stroke-linecap:square;stroke-linejoin:miter;stroke-width:0.8;"/>
   </g>
   <g id="patch_6">
    <path d="M 33.561875 18.670875 
L 109.97391 18.670875 
" style="fill:none;stroke:#000000;stroke-linecap:square;stroke-linejoin:miter;stroke-width:0.8;"/>
   </g>
   <g id="text_15">
    <!-- Below resolution -->
    <g transform="translate(41.922205 12.670875)scale(0.072 -0.072)">
     <defs>
      <path d="M 19.671875 34.8125 
L 19.671875 8.109375 
L 35.5 8.109375 
Q 43.453125 8.109375 47.28125 11.40625 
Q 51.125 14.703125 51.125 21.484375 
Q 51.125 28.328125 47.28125 31.5625 
Q 43.453125 34.8125 35.5 34.8125 
z
M 19.671875 64.796875 
L 19.671875 42.828125 
L 34.28125 42.828125 
Q 41.5 42.828125 45.03125 45.53125 
Q 48.578125 48.25 48.578125 53.8125 
Q 48.578125 59.328125 45.03125 62.0625 
Q 41.5 64.796875 34.28125 64.796875 
z
M 9.8125 72.90625 
L 35.015625 72.90625 
Q 46.296875 72.90625 52.390625 68.21875 
Q 58.5 63.53125 58.5 54.890625 
Q 58.5 48.1875 55.375 44.234375 
Q 52.25 40.28125 46.1875 39.3125 
Q 53.46875 37.75 57.5 32.78125 
Q 61.53125 27.828125 61.53125 20.40625 
Q 61.53125 10.640625 54.890625 5.3125 
Q 48.25 0 35.984375 0 
L 9.8125 0 
z
" id="DejaVuSans-66"/>
      <path d="M 9.421875 75.984375 
L 18.40625 75.984375 
L 18.40625 0 
L 9.421875 0 
z
" id="DejaVuSans-108"/>
      <path d="M 30.609375 48.390625 
Q 23.390625 48.390625 19.1875 42.75 
Q 14.984375 37.109375 14.984375 27.296875 
Q 14.984375 17.484375 19.15625 11.84375 
Q 23.34375 6.203125 30.609375 6.203125 
Q 37.796875 6.203125 41.984375 11.859375 
Q 46.1875 17.53125 46.1875 27.296875 
Q 46.1875 37.015625 41.984375 42.703125 
Q 37.796875 48.390625 30.609375 48.390625 
z
M 30.609375 56 
Q 42.328125 56 49.015625 48.375 
Q 55.71875 40.765625 55.71875 27.296875 
Q 55.71875 13.875 49.015625 6.21875 
Q 42.328125 -1.421875 30.609375 -1.421875 
Q 18.84375 -1.421875 12.171875 6.21875 
Q 5.515625 13.875 5.515625 27.296875 
Q 5.515625 40.765625 12.171875 48.375 
Q 18.84375 56 30.609375 56 
z
" id="DejaVuSans-111"/>
      <path d="M 4.203125 54.6875 
L 13.1875 54.6875 
L 24.421875 12.015625 
L 35.59375 54.6875 
L 46.1875 54.6875 
L 57.421875 12.015625 
L 68.609375 54.6875 
L 77.59375 54.6875 
L 63.28125 0 
L 52.6875 0 
L 40.921875 44.828125 
L 29.109375 0 
L 18.5 0 
z
" id="DejaVuSans-119"/>
      <path d="M 41.109375 46.296875 
Q 39.59375 47.171875 37.8125 47.578125 
Q 36.03125 48 33.890625 48 
Q 26.265625 48 22.1875 43.046875 
Q 18.109375 38.09375 18.109375 28.8125 
L 18.109375 0 
L 9.078125 0 
L 9.078125 54.6875 
L 18.109375 54.6875 
L 18.109375 46.1875 
Q 20.953125 51.171875 25.484375 53.578125 
Q 30.03125 56 36.53125 56 
Q 37.453125 56 38.578125 55.875 
Q 39.703125 55.765625 41.0625 55.515625 
z
" id="DejaVuSans-114"/>
      <path d="M 8.5 21.578125 
L 8.5 54.6875 
L 17.484375 54.6875 
L 17.484375 21.921875 
Q 17.484375 14.15625 20.5 10.265625 
Q 23.53125 6.390625 29.59375 6.390625 
Q 36.859375 6.390625 41.078125 11.03125 
Q 45.3125 15.671875 45.3125 23.6875 
L 45.3125 54.6875 
L 54.296875 54.6875 
L 54.296875 0 
L 45.3125 0 
L 45.3125 8.40625 
Q 42.046875 3.421875 37.71875 1 
Q 33.40625 -1.421875 27.6875 -1.421875 
Q 18.265625 -1.421875 13.375 4.4375 
Q 8.5 10.296875 8.5 21.578125 
z
M 31.109375 56 
z
" id="DejaVuSans-117"/>
     </defs>
     <use xlink:href="#DejaVuSans-66"/>
     <use x="68.603516" xlink:href="#DejaVuSans-101"/>
     <use x="130.126953" xlink:href="#DejaVuSans-108"/>
     <use x="157.910156" xlink:href="#DejaVuSans-111"/>
     <use x="219.091797" xlink:href="#DejaVuSans-119"/>
     <use x="300.878906" xlink:href="#DejaVuSans-32"/>
     <use x="332.666016" xlink:href="#DejaVuSans-114"/>
     <use x="371.529297" xlink:href="#DejaVuSans-101"/>
     <use x="433.052734" xlink:href="#DejaVuSans-115"/>
     <use x="485.152344" xlink:href="#DejaVuSans-111"/>
     <use x="546.333984" xlink:href="#DejaVuSans-108"/>
     <use x="574.117188" xlink:href="#DejaVuSans-117"/>
     <use x="637.496094" xlink:href="#DejaVuSans-116"/>
     <use x="676.705078" xlink:href="#DejaVuSans-105"/>
     <use x="704.488281" xlink:href="#DejaVuSans-111"/>
     <use x="765.669922" xlink:href="#DejaVuSans-110"/>
    </g>
   </g>
  </g>
  <g id="axes_2">
   <g id="patch_7">
    <path d="M 125.256317 105.104718 
L 201.668352 105.104718 
L 201.668352 18.670875 
L 125.256317 18.670875 
z
" style="fill:#ffffff;"/>
   </g>
   <g id="matplotlib.axis_3">
    <g id="xtick_6">
     <g id="line2d_16">
      <g>
       <use style="stroke:#000000;stroke-width:0.8;" x="128.729591" xlink:href="#m805f1bd0e9" y="105.104718"/>
      </g>
     </g>
     <g id="text_16">
      <!-- −2 -->
      <g transform="translate(124.306935 116.66378)scale(0.06 -0.06)">
       <use xlink:href="#DejaVuSans-8722"/>
       <use x="83.789062" xlink:href="#DejaVuSans-50"/>
      </g>
     </g>
    </g>
    <g id="xtick_7">
     <g id="line2d_17">
      <g>
       <use style="stroke:#000000;stroke-width:0.8;" x="146.095963" xlink:href="#m805f1bd0e9" y="105.104718"/>
      </g>
     </g>
     <g id="text_17">
      <!-- −1 -->
      <g transform="translate(141.673306 116.66378)scale(0.06 -0.06)">
       <use xlink:href="#DejaVuSans-8722"/>
       <use x="83.789062" xlink:href="#DejaVuSans-49"/>
      </g>
     </g>
    </g>
    <g id="xtick_8">
     <g id="line2d_18">
      <g>
       <use style="stroke:#000000;stroke-width:0.8;" x="163.462334" xlink:href="#m805f1bd0e9" y="105.104718"/>
      </g>
     </g>
     <g id="text_18">
      <!-- 0 -->
      <g transform="translate(161.553584 116.66378)scale(0.06 -0.06)">
       <use xlink:href="#DejaVuSans-48"/>
      </g>
     </g>
    </g>
    <g id="xtick_9">
     <g id="line2d_19">
      <g>
       <use style="stroke:#000000;stroke-width:0.8;" x="180.828706" xlink:href="#m805f1bd0e9" y="105.104718"/>
      </g>
     </g>
     <g id="text_19">
      <!-- 1 -->
      <g transform="translate(178.919956 116.66378)scale(0.06 -0.06)">
       <use xlink:href="#DejaVuSans-49"/>
      </g>
     </g>
    </g>
    <g id="xtick_10">
     <g id="line2d_20">
      <g>
       <use style="stroke:#000000;stroke-width:0.8;" x="198.195077" xlink:href="#m805f1bd0e9" y="105.104718"/>
      </g>
     </g>
     <g id="text_20">
      <!-- 2 -->
      <g transform="translate(196.286327 116.66378)scale(0.06 -0.06)">
       <use xlink:href="#DejaVuSans-50"/>
      </g>
     </g>
    </g>
    <g id="text_21">
     <!-- Distance (1.22 λ / NA) -->
     <g transform="translate(130.427647 126.470655)scale(0.06 -0.06)">
      <use xlink:href="#DejaVuSans-68"/>
      <use x="77.001953" xlink:href="#DejaVuSans-105"/>
      <use x="104.785156" xlink:href="#DejaVuSans-115"/>
      <use x="156.884766" xlink:href="#DejaVuSans-116"/>
      <use x="196.09375" xlink:href="#DejaVuSans-97"/>
      <use x="257.373047" xlink:href="#DejaVuSans-110"/>
      <use x="320.751953" xlink:href="#DejaVuSans-99"/>
      <use x="375.732422" xlink:href="#DejaVuSans-101"/>
      <use x="437.255859" xlink:href="#DejaVuSans-32"/>
      <use x="469.042969" xlink:href="#DejaVuSans-40"/>
      <use x="508.056641" xlink:href="#DejaVuSans-49"/>
      <use x="571.679688" xlink:href="#DejaVuSans-46"/>
      <use x="603.466797" xlink:href="#DejaVuSans-50"/>
      <use x="667.089844" xlink:href="#DejaVuSans-50"/>
      <use x="730.712891" xlink:href="#DejaVuSans-32"/>
      <use x="762.5" xlink:href="#DejaVuSans-955"/>
      <use x="821.679688" xlink:href="#DejaVuSans-32"/>
      <use x="853.466797" xlink:href="#DejaVuSans-47"/>
      <use x="887.158203" xlink:href="#DejaVuSans-32"/>
      <use x="918.945312" xlink:href="#DejaVuSans-78"/>
      <use x="993.75" xlink:href="#DejaVuSans-65"/>
      <use x="1062.158203" xlink:href="#DejaVuSans-41"/>
     </g>
    </g>
   </g>
   <g id="matplotlib.axis_4">
    <g id="ytick_8">
     <g id="line2d_21">
      <g>
       <use style="stroke:#000000;stroke-width:0.8;" x="125.256317" xlink:href="#m4d08706edf" y="101.780339"/>
      </g>
     </g>
    </g>
    <g id="ytick_9">
     <g id="line2d_22">
      <g>
       <use style="stroke:#000000;stroke-width:0.8;" x="125.256317" xlink:href="#m4d08706edf" y="88.482825"/>
      </g>
     </g>
    </g>
    <g id="ytick_10">
     <g id="line2d_23">
      <g>
       <use style="stroke:#000000;stroke-width:0.8;" x="125.256317" xlink:href="#m4d08706edf" y="75.185311"/>
      </g>
     </g>
    </g>
    <g id="ytick_11">
     <g id="line2d_24">
      <g>
       <use style="stroke:#000000;stroke-width:0.8;" x="125.256317" xlink:href="#m4d08706edf" y="61.887796"/>
      </g>
     </g>
    </g>
    <g id="ytick_12">
     <g id="line2d_25">
      <g>
       <use style="stroke:#000000;stroke-width:0.8;" x="125.256317" xlink:href="#m4d08706edf" y="48.590282"/>
      </g>
     </g>
    </g>
    <g id="ytick_13">
     <g id="line2d_26">
      <g>
       <use style="stroke:#000000;stroke-width:0.8;" x="125.256317" xlink:href="#m4d08706edf" y="35.292768"/>
      </g>
     </g>
    </g>
    <g id="ytick_14">
     <g id="line2d_27">
      <g>
       <use style="stroke:#000000;stroke-width:0.8;" x="125.256317" xlink:href="#m4d08706edf" y="21.995254"/>
      </g>
     </g>
    </g>
   </g>
   <g id="line2d_28">
    <path clip-path="url(#p51cee1a932)" d="M 128.729591 101.617281 
L 132.569392 101.508083 
L 136.06012 101.686671 
L 138.852702 101.774447 
L 140.947139 101.597287 
L 143.390648 101.121184 
L 145.834158 100.67559 
L 147.230449 100.623885 
L 148.62674 100.793899 
L 150.372104 101.263658 
L 152.117468 101.722825 
L 153.164687 101.759049 
L 153.862832 101.584758 
L 154.560978 101.190395 
L 155.259123 100.523024 
L 155.957269 99.532287 
L 156.655415 98.173226 
L 157.35356 96.409124 
L 158.400779 92.950759 
L 159.447997 88.49778 
L 160.495215 83.102799 
L 161.891507 74.699374 
L 166.429453 45.756887 
L 167.476671 40.883972 
L 168.174817 38.39772 
L 168.872962 36.607654 
L 169.571108 35.566112 
L 169.920181 35.336512 
L 170.269254 35.303774 
L 170.618326 35.468139 
L 170.967399 35.828391 
L 171.665545 37.12447 
L 172.36369 39.153913 
L 173.061836 41.857581 
L 174.109054 47.00284 
L 175.505346 55.377999 
L 180.043292 84.379858 
L 181.09051 89.574096 
L 182.137729 93.80713 
L 183.184947 97.045259 
L 183.883093 98.67061 
L 184.581238 99.902095 
L 185.279384 100.779496 
L 185.977529 101.349892 
L 186.675675 101.664812 
L 187.373821 101.777445 
L 188.421039 101.680616 
L 190.166403 101.191849 
L 191.911767 100.750068 
L 193.308058 100.617694 
L 194.704349 100.703034 
L 196.798786 101.095585 
L 198.195077 101.395089 
L 198.195077 101.395089 
" style="fill:none;stroke:#1f77b4;stroke-dasharray:0.5,0.825;stroke-dashoffset:0;stroke-width:0.5;"/>
   </g>
   <g id="line2d_29">
    <path clip-path="url(#p51cee1a932)" d="M 128.729591 101.395089 
L 132.918465 100.635688 
L 134.314756 100.655301 
L 135.711047 100.897691 
L 139.201775 101.774337 
L 139.89992 101.743098 
L 140.598066 101.53597 
L 141.296212 101.09992 
L 141.994357 100.382251 
L 142.692503 99.333304 
L 143.390648 97.909292 
L 144.088794 96.075134 
L 145.136012 92.506729 
L 146.183231 87.945353 
L 147.230449 82.453147 
L 148.62674 73.954261 
L 152.815614 47.00284 
L 153.862832 41.857581 
L 154.560978 39.153913 
L 155.259123 37.12447 
L 155.957269 35.828391 
L 156.306342 35.468139 
L 156.655415 35.303774 
L 157.004487 35.336512 
L 157.35356 35.566112 
L 157.702633 35.990873 
L 158.400779 37.411906 
L 159.098924 39.557887 
L 159.79707 42.3664 
L 160.844288 47.641027 
L 162.240579 56.126693 
L 166.429453 83.102799 
L 167.825744 90.091148 
L 168.872962 94.214217 
L 169.920181 97.343702 
L 170.618326 98.901318 
L 171.316472 100.071046 
L 172.014618 100.894076 
L 172.712763 101.418422 
L 173.410909 101.696079 
L 174.109054 101.780252 
L 175.156273 101.656312 
L 179.694219 100.623885 
L 181.09051 100.67559 
L 182.835874 100.969365 
L 186.675675 101.684836 
L 188.770112 101.779314 
L 191.911767 101.616202 
L 195.053422 101.504156 
L 198.195077 101.617281 
L 198.195077 101.617281 
" style="fill:none;stroke:#1f77b4;stroke-dasharray:0.5,0.825;stroke-dashoffset:0;stroke-width:0.5;"/>
   </g>
   <g id="line2d_30">
    <path clip-path="url(#p51cee1a932)" d="M 128.729591 101.23203 
L 132.220319 100.427156 
L 133.61661 100.375838 
L 135.012901 100.58593 
L 136.758265 101.14123 
L 138.503629 101.680152 
L 139.550848 101.740891 
L 140.248993 101.569309 
L 140.947139 101.16684 
L 141.645284 100.482493 
L 142.34343 99.469603 
L 143.041576 98.088547 
L 143.739721 96.309304 
L 144.78694 92.857688 
L 145.834158 88.469347 
L 147.230449 81.296694 
L 148.975813 70.767285 
L 152.466541 48.946882 
L 153.862832 41.662 
L 154.910051 37.164485 
L 155.957269 33.580339 
L 157.004487 30.899875 
L 157.702633 29.577168 
L 158.400779 28.582326 
L 159.098924 27.868695 
L 159.79707 27.385075 
L 160.844288 26.97755 
L 162.240579 26.784715 
L 164.335016 26.768697 
L 165.731307 26.902097 
L 166.778526 27.213168 
L 167.476671 27.601413 
L 168.174817 28.193494 
L 168.872962 29.041531 
L 169.571108 30.194897 
L 170.269254 31.69666 
L 171.316472 34.67257 
L 172.36369 38.563968 
L 173.410909 43.354336 
L 174.8072 50.961558 
L 176.901637 64.040066 
L 179.345146 79.303724 
L 180.741437 86.808689 
L 181.788656 91.496998 
L 182.835874 95.26416 
L 183.883093 98.088547 
L 184.581238 99.469603 
L 185.279384 100.482493 
L 185.977529 101.16684 
L 186.675675 101.569309 
L 187.373821 101.740891 
L 188.421039 101.680152 
L 189.81733 101.266979 
L 191.911767 100.58593 
L 193.308058 100.375838 
L 194.704349 100.427156 
L 196.449713 100.772284 
L 198.195077 101.23203 
L 198.195077 101.23203 
" style="fill:none;stroke:#1f77b4;stroke-linecap:square;stroke-width:1.5;"/>
   </g>
   <g id="patch_8">
    <path d="M 125.256317 105.104718 
L 125.256317 18.670875 
" style="fill:none;stroke:#000000;stroke-linecap:square;stroke-linejoin:miter;stroke-width:0.8;"/>
   </g>
   <g id="patch_9">
    <path d="M 201.668352 105.104718 
L 201.668352 18.670875 
" style="fill:none;stroke:#000000;stroke-linecap:square;stroke-linejoin:miter;stroke-width:0.8;"/>
   </g>
   <g id="patch_10">
    <path d="M 125.256317 105.104718 
L 201.668352 105.104718 
" style="fill:none;stroke:#000000;stroke-linecap:square;stroke-linejoin:miter;stroke-width:0.8;"/>
   </g>
   <g id="patch_11">
    <path d="M 125.256317 18.670875 
L 201.668352 18.670875 
" style="fill:none;stroke:#000000;stroke-linecap:square;stroke-linejoin:miter;stroke-width:0.8;"/>
   </g>
   <g id="text_22">
    <!-- Sparrow limit -->
    <g transform="translate(139.660147 12.670875)scale(0.072 -0.072)">
     <defs>
      <path d="M 53.515625 70.515625 
L 53.515625 60.890625 
Q 47.90625 63.578125 42.921875 64.890625 
Q 37.9375 66.21875 33.296875 66.21875 
Q 25.25 66.21875 20.875 63.09375 
Q 16.5 59.96875 16.5 54.203125 
Q 16.5 49.359375 19.40625 46.890625 
Q 22.3125 44.4375 30.421875 42.921875 
L 36.375 41.703125 
Q 47.40625 39.59375 52.65625 34.296875 
Q 57.90625 29 57.90625 20.125 
Q 57.90625 9.515625 50.796875 4.046875 
Q 43.703125 -1.421875 29.984375 -1.421875 
Q 24.8125 -1.421875 18.96875 -0.25 
Q 13.140625 0.921875 6.890625 3.21875 
L 6.890625 13.375 
Q 12.890625 10.015625 18.65625 8.296875 
Q 24.421875 6.59375 29.984375 6.59375 
Q 38.421875 6.59375 43.015625 9.90625 
Q 47.609375 13.234375 47.609375 19.390625 
Q 47.609375 24.75 44.3125 27.78125 
Q 41.015625 30.8125 33.5 32.328125 
L 27.484375 33.5 
Q 16.453125 35.6875 11.515625 40.375 
Q 6.59375 45.0625 6.59375 53.421875 
Q 6.59375 63.09375 13.40625 68.65625 
Q 20.21875 74.21875 32.171875 74.21875 
Q 37.3125 74.21875 42.625 73.28125 
Q 47.953125 72.359375 53.515625 70.515625 
z
" id="DejaVuSans-83"/>
      <path d="M 18.109375 8.203125 
L 18.109375 -20.796875 
L 9.078125 -20.796875 
L 9.078125 54.6875 
L 18.109375 54.6875 
L 18.109375 46.390625 
Q 20.953125 51.265625 25.265625 53.625 
Q 29.59375 56 35.59375 56 
Q 45.5625 56 51.78125 48.09375 
Q 58.015625 40.1875 58.015625 27.296875 
Q 58.015625 14.40625 51.78125 6.484375 
Q 45.5625 -1.421875 35.59375 -1.421875 
Q 29.59375 -1.421875 25.265625 0.953125 
Q 20.953125 3.328125 18.109375 8.203125 
z
M 48.6875 27.296875 
Q 48.6875 37.203125 44.609375 42.84375 
Q 40.53125 48.484375 33.40625 48.484375 
Q 26.265625 48.484375 22.1875 42.84375 
Q 18.109375 37.203125 18.109375 27.296875 
Q 18.109375 17.390625 22.1875 11.75 
Q 26.265625 6.109375 33.40625 6.109375 
Q 40.53125 6.109375 44.609375 11.75 
Q 48.6875 17.390625 48.6875 27.296875 
z
" id="DejaVuSans-112"/>
      <path d="M 52 44.1875 
Q 55.375 50.25 60.0625 53.125 
Q 64.75 56 71.09375 56 
Q 79.640625 56 84.28125 50.015625 
Q 88.921875 44.046875 88.921875 33.015625 
L 88.921875 0 
L 79.890625 0 
L 79.890625 32.71875 
Q 79.890625 40.578125 77.09375 44.375 
Q 74.3125 48.1875 68.609375 48.1875 
Q 61.625 48.1875 57.5625 43.546875 
Q 53.515625 38.921875 53.515625 30.90625 
L 53.515625 0 
L 44.484375 0 
L 44.484375 32.71875 
Q 44.484375 40.625 41.703125 44.40625 
Q 38.921875 48.1875 33.109375 48.1875 
Q 26.21875 48.1875 22.15625 43.53125 
Q 18.109375 38.875 18.109375 30.90625 
L 18.109375 0 
L 9.078125 0 
L 9.078125 54.6875 
L 18.109375 54.6875 
L 18.109375 46.1875 
Q 21.1875 51.21875 25.484375 53.609375 
Q 29.78125 56 35.6875 56 
Q 41.65625 56 45.828125 52.96875 
Q 50 49.953125 52 44.1875 
z
" id="DejaVuSans-109"/>
     </defs>
     <use xlink:href="#DejaVuSans-83"/>
     <use x="63.476562" xlink:href="#DejaVuSans-112"/>
     <use x="126.953125" xlink:href="#DejaVuSans-97"/>
     <use x="188.232422" xlink:href="#DejaVuSans-114"/>
     <use x="227.595703" xlink:href="#DejaVuSans-114"/>
     <use x="266.458984" xlink:href="#DejaVuSans-111"/>
     <use x="327.640625" xlink:href="#DejaVuSans-119"/>
     <use x="409.427734" xlink:href="#DejaVuSans-32"/>
     <use x="441.214844" xlink:href="#DejaVuSans-108"/>
     <use x="468.998047" xlink:href="#DejaVuSans-105"/>
     <use x="496.78125" xlink:href="#DejaVuSans-109"/>
     <use x="594.193359" xlink:href="#DejaVuSans-105"/>
     <use x="621.976562" xlink:href="#DejaVuSans-116"/>
    </g>
   </g>
  </g>
  <g id="axes_3">
   <g id="patch_12">
    <path d="M 216.950758 105.104718 
L 293.362793 105.104718 
L 293.362793 18.670875 
L 216.950758 18.670875 
z
" style="fill:#ffffff;"/>
   </g>
   <g id="matplotlib.axis_5">
    <g id="xtick_11">
     <g id="line2d_31">
      <g>
       <use style="stroke:#000000;stroke-width:0.8;" x="220.424033" xlink:href="#m805f1bd0e9" y="105.104718"/>
      </g>
     </g>
     <g id="text_23">
      <!-- −2 -->
      <g transform="translate(216.001377 116.66378)scale(0.06 -0.06)">
       <use xlink:href="#DejaVuSans-8722"/>
       <use x="83.789062" xlink:href="#DejaVuSans-50"/>
      </g>
     </g>
    </g>
    <g id="xtick_12">
     <g id="line2d_32">
      <g>
       <use style="stroke:#000000;stroke-width:0.8;" x="237.790404" xlink:href="#m805f1bd0e9" y="105.104718"/>
      </g>
     </g>
     <g id="text_24">
      <!-- −1 -->
      <g transform="translate(233.367748 116.66378)scale(0.06 -0.06)">
       <use xlink:href="#DejaVuSans-8722"/>
       <use x="83.789062" xlink:href="#DejaVuSans-49"/>
      </g>
     </g>
    </g>
    <g id="xtick_13">
     <g id="line2d_33">
      <g>
       <use style="stroke:#000000;stroke-width:0.8;" x="255.156776" xlink:href="#m805f1bd0e9" y="105.104718"/>
      </g>
     </g>
     <g id="text_25">
      <!-- 0 -->
      <g transform="translate(253.248026 116.66378)scale(0.06 -0.06)">
       <use xlink:href="#DejaVuSans-48"/>
      </g>
     </g>
    </g>
    <g id="xtick_14">
     <g id="line2d_34">
      <g>
       <use style="stroke:#000000;stroke-width:0.8;" x="272.523147" xlink:href="#m805f1bd0e9" y="105.104718"/>
      </g>
     </g>
     <g id="text_26">
      <!-- 1 -->
      <g transform="translate(270.614397 116.66378)scale(0.06 -0.06)">
       <use xlink:href="#DejaVuSans-49"/>
      </g>
     </g>
    </g>
    <g id="xtick_15">
     <g id="line2d_35">
      <g>
       <use style="stroke:#000000;stroke-width:0.8;" x="289.889519" xlink:href="#m805f1bd0e9" y="105.104718"/>
      </g>
     </g>
     <g id="text_27">
      <!-- 2 -->
      <g transform="translate(287.980769 116.66378)scale(0.06 -0.06)">
       <use xlink:href="#DejaVuSans-50"/>
      </g>
     </g>
    </g>
    <g id="text_28">
     <!-- Distance (1.22 λ / NA) -->
     <g transform="translate(222.122088 126.470655)scale(0.06 -0.06)">
      <use xlink:href="#DejaVuSans-68"/>
      <use x="77.001953" xlink:href="#DejaVuSans-105"/>
      <use x="104.785156" xlink:href="#DejaVuSans-115"/>
      <use x="156.884766" xlink:href="#DejaVuSans-116"/>
      <use x="196.09375" xlink:href="#DejaVuSans-97"/>
      <use x="257.373047" xlink:href="#DejaVuSans-110"/>
      <use x="320.751953" xlink:href="#DejaVuSans-99"/>
      <use x="375.732422" xlink:href="#DejaVuSans-101"/>
      <use x="437.255859" xlink:href="#DejaVuSans-32"/>
      <use x="469.042969" xlink:href="#DejaVuSans-40"/>
      <use x="508.056641" xlink:href="#DejaVuSans-49"/>
      <use x="571.679688" xlink:href="#DejaVuSans-46"/>
      <use x="603.466797" xlink:href="#DejaVuSans-50"/>
      <use x="667.089844" xlink:href="#DejaVuSans-50"/>
      <use x="730.712891" xlink:href="#DejaVuSans-32"/>
      <use x="762.5" xlink:href="#DejaVuSans-955"/>
      <use x="821.679688" xlink:href="#DejaVuSans-32"/>
      <use x="853.466797" xlink:href="#DejaVuSans-47"/>
      <use x="887.158203" xlink:href="#DejaVuSans-32"/>
      <use x="918.945312" xlink:href="#DejaVuSans-78"/>
      <use x="993.75" xlink:href="#DejaVuSans-65"/>
      <use x="1062.158203" xlink:href="#DejaVuSans-41"/>
     </g>
    </g>
   </g>
   <g id="matplotlib.axis_6">
    <g id="ytick_15">
     <g id="line2d_36">
      <g>
       <use style="stroke:#000000;stroke-width:0.8;" x="216.950758" xlink:href="#m4d08706edf" y="101.780339"/>
      </g>
     </g>
    </g>
    <g id="ytick_16">
     <g id="line2d_37">
      <g>
       <use style="stroke:#000000;stroke-width:0.8;" x="216.950758" xlink:href="#m4d08706edf" y="88.482825"/>
      </g>
     </g>
    </g>
    <g id="ytick_17">
     <g id="line2d_38">
      <g>
       <use style="stroke:#000000;stroke-width:0.8;" x="216.950758" xlink:href="#m4d08706edf" y="75.185311"/>
      </g>
     </g>
    </g>
    <g id="ytick_18">
     <g id="line2d_39">
      <g>
       <use style="stroke:#000000;stroke-width:0.8;" x="216.950758" xlink:href="#m4d08706edf" y="61.887796"/>
      </g>
     </g>
    </g>
    <g id="ytick_19">
     <g id="line2d_40">
      <g>
       <use style="stroke:#000000;stroke-width:0.8;" x="216.950758" xlink:href="#m4d08706edf" y="48.590282"/>
      </g>
     </g>
    </g>
    <g id="ytick_20">
     <g id="line2d_41">
      <g>
       <use style="stroke:#000000;stroke-width:0.8;" x="216.950758" xlink:href="#m4d08706edf" y="35.292768"/>
      </g>
     </g>
    </g>
    <g id="ytick_21">
     <g id="line2d_42">
      <g>
       <use style="stroke:#000000;stroke-width:0.8;" x="216.950758" xlink:href="#m4d08706edf" y="21.995254"/>
      </g>
     </g>
    </g>
   </g>
   <g id="line2d_43">
    <path clip-path="url(#pc81b21c01f)" d="M 220.424033 101.72064 
L 227.056416 101.528765 
L 233.688799 101.709041 
L 235.783236 101.397928 
L 239.972109 100.6366 
L 241.3684 100.653953 
L 242.764692 100.894197 
L 246.604492 101.77801 
L 247.302638 101.668969 
L 248.000784 101.358729 
L 248.698929 100.794095 
L 249.397075 99.923478 
L 250.09522 98.699678 
L 250.793366 97.082734 
L 251.491512 95.042707 
L 252.53873 91.155328 
L 253.585948 86.285465 
L 254.982239 78.432381 
L 256.727603 67.116237 
L 259.171113 51.105341 
L 260.567404 43.506418 
L 261.614623 39.202785 
L 262.312768 37.158865 
L 263.010914 35.8473 
L 263.359987 35.479067 
L 263.709059 35.30664 
L 264.058132 35.331295 
L 264.407205 35.552851 
L 264.756278 35.969665 
L 265.454423 37.375332 
L 266.152569 39.507017 
L 266.850714 42.302705 
L 267.897933 47.56158 
L 269.294224 56.033939 
L 273.483098 83.023126 
L 274.879389 90.027959 
L 275.926607 94.164622 
L 276.973826 97.307487 
L 277.671971 98.873418 
L 278.370117 100.05071 
L 279.068262 100.88038 
L 279.766408 101.410334 
L 280.464553 101.692512 
L 281.162699 101.780121 
L 282.209917 101.659421 
L 284.653427 100.960841 
L 286.049718 100.682443 
L 287.446009 100.623254 
L 289.191373 100.828288 
L 289.889519 100.966351 
L 289.889519 100.966351 
" style="fill:none;stroke:#1f77b4;stroke-dasharray:0.5,0.825;stroke-dashoffset:0;stroke-width:0.5;"/>
   </g>
   <g id="line2d_44">
    <path clip-path="url(#pc81b21c01f)" d="M 220.424033 100.966351 
L 222.51847 100.642616 
L 223.914761 100.646254 
L 225.311052 100.873275 
L 229.150853 101.780121 
L 229.848998 101.692512 
L 230.547144 101.410334 
L 231.245289 100.88038 
L 231.943435 100.05071 
L 232.641581 98.873418 
L 233.339726 97.307487 
L 234.037872 95.321576 
L 235.08509 91.517413 
L 236.132309 86.7272 
L 237.5286 78.96212 
L 239.273964 67.703453 
L 242.066546 49.55027 
L 243.113764 43.925109 
L 244.160983 39.507017 
L 244.859128 37.375332 
L 245.557274 35.969665 
L 245.906347 35.552851 
L 246.25542 35.331295 
L 246.604492 35.30664 
L 246.953565 35.479067 
L 247.302638 35.8473 
L 248.000784 37.158865 
L 248.698929 39.202785 
L 249.397075 41.919515 
L 250.444293 47.080964 
L 251.840584 55.470101 
L 256.378531 84.456855 
L 257.425749 89.638574 
L 258.472967 93.858051 
L 259.520186 97.082734 
L 260.218331 98.699678 
L 260.916477 99.923478 
L 261.614623 100.794095 
L 262.312768 101.358729 
L 263.010914 101.668969 
L 263.709059 101.77801 
L 264.756278 101.677727 
L 266.501642 101.187475 
L 268.247006 100.74757 
L 269.643297 100.617519 
L 271.039588 100.704866 
L 273.134025 101.098742 
L 275.926607 101.631514 
L 278.021044 101.778937 
L 280.464553 101.693331 
L 284.653427 101.503907 
L 288.144155 101.630981 
L 289.889519 101.72064 
L 289.889519 101.72064 
" style="fill:none;stroke:#1f77b4;stroke-dasharray:0.5,0.825;stroke-dashoffset:0;stroke-width:0.5;"/>
   </g>
   <g id="line2d_45">
    <path clip-path="url(#pc81b21c01f)" d="M 220.424033 100.906651 
L 222.51847 100.473972 
L 223.914761 100.40885 
L 225.311052 100.598841 
L 227.056416 101.12406 
L 228.80178 101.609875 
L 229.499925 101.647116 
L 230.198071 101.514034 
L 230.896217 101.151793 
L 231.594362 100.501392 
L 232.292508 99.506873 
L 232.990653 98.118716 
L 233.688799 96.297238 
L 234.736017 92.698528 
L 235.783236 88.047795 
L 236.830454 82.418685 
L 238.226745 73.705027 
L 242.066546 48.5175 
L 243.113764 43.129014 
L 244.160983 39.021755 
L 244.859128 37.099641 
L 245.557274 35.867053 
L 245.906347 35.510585 
L 246.25542 35.324458 
L 246.604492 35.30431 
L 246.953565 35.444052 
L 247.651711 36.170604 
L 248.349856 37.4237 
L 249.397075 40.062654 
L 253.236875 50.994323 
L 253.935021 52.134186 
L 254.633167 52.789377 
L 254.982239 52.92232 
L 255.331312 52.92232 
L 255.680385 52.789377 
L 256.378531 52.134186 
L 257.076676 50.994323 
L 257.774822 49.435415 
L 258.82204 46.514642 
L 261.614623 38.216541 
L 262.312768 36.737254 
L 263.010914 35.735929 
L 263.359987 35.444052 
L 263.709059 35.30431 
L 264.058132 35.324458 
L 264.407205 35.510585 
L 264.756278 35.867053 
L 265.454423 37.099641 
L 266.152569 39.021755 
L 266.850714 41.605218 
L 267.897933 46.596015 
L 269.294224 54.882168 
L 274.181243 86.273613 
L 275.228462 91.263579 
L 276.27568 95.215089 
L 277.322898 98.118716 
L 278.021044 99.506873 
L 278.71919 100.501392 
L 279.417335 101.151793 
L 280.115481 101.514034 
L 280.813626 101.647116 
L 281.860845 101.545009 
L 283.606209 101.005403 
L 285.351573 100.527472 
L 286.747864 100.402191 
L 288.144155 100.524702 
L 289.889519 100.906651 
L 289.889519 100.906651 
" style="fill:none;stroke:#1f77b4;stroke-linecap:square;stroke-width:1.5;"/>
   </g>
   <g id="patch_13">
    <path d="M 216.950758 105.104718 
L 216.950758 18.670875 
" style="fill:none;stroke:#000000;stroke-linecap:square;stroke-linejoin:miter;stroke-width:0.8;"/>
   </g>
   <g id="patch_14">
    <path d="M 293.362793 105.104718 
L 293.362793 18.670875 
" style="fill:none;stroke:#000000;stroke-linecap:square;stroke-linejoin:miter;stroke-width:0.8;"/>
   </g>
   <g id="patch_15">
    <path d="M 216.950758 105.104718 
L 293.362793 105.104718 
" style="fill:none;stroke:#000000;stroke-linecap:square;stroke-linejoin:miter;stroke-width:0.8;"/>
   </g>
   <g id="patch_16">
    <path d="M 216.950758 18.670875 
L 293.362793 18.670875 
" style="fill:none;stroke:#000000;stroke-linecap:square;stroke-linejoin:miter;stroke-width:0.8;"/>
   </g>
   <g id="text_29">
    <!-- Raileygh limit -->
    <g transform="translate(230.554713 12.670875)scale(0.072 -0.072)">
     <defs>
      <path d="M 44.390625 34.1875 
Q 47.5625 33.109375 50.5625 29.59375 
Q 53.5625 26.078125 56.59375 19.921875 
L 66.609375 0 
L 56 0 
L 46.6875 18.703125 
Q 43.0625 26.03125 39.671875 28.421875 
Q 36.28125 30.8125 30.421875 30.8125 
L 19.671875 30.8125 
L 19.671875 0 
L 9.8125 0 
L 9.8125 72.90625 
L 32.078125 72.90625 
Q 44.578125 72.90625 50.734375 67.671875 
Q 56.890625 62.453125 56.890625 51.90625 
Q 56.890625 45.015625 53.6875 40.46875 
Q 50.484375 35.9375 44.390625 34.1875 
z
M 19.671875 64.796875 
L 19.671875 38.921875 
L 32.078125 38.921875 
Q 39.203125 38.921875 42.84375 42.21875 
Q 46.484375 45.515625 46.484375 51.90625 
Q 46.484375 58.296875 42.84375 61.546875 
Q 39.203125 64.796875 32.078125 64.796875 
z
" id="DejaVuSans-82"/>
      <path d="M 45.40625 27.984375 
Q 45.40625 37.75 41.375 43.109375 
Q 37.359375 48.484375 30.078125 48.484375 
Q 22.859375 48.484375 18.828125 43.109375 
Q 14.796875 37.75 14.796875 27.984375 
Q 14.796875 18.265625 18.828125 12.890625 
Q 22.859375 7.515625 30.078125 7.515625 
Q 37.359375 7.515625 41.375 12.890625 
Q 45.40625 18.265625 45.40625 27.984375 
z
M 54.390625 6.78125 
Q 54.390625 -7.171875 48.1875 -13.984375 
Q 42 -20.796875 29.203125 -20.796875 
Q 24.46875 -20.796875 20.265625 -20.09375 
Q 16.0625 -19.390625 12.109375 -17.921875 
L 12.109375 -9.1875 
Q 16.0625 -11.328125 19.921875 -12.34375 
Q 23.78125 -13.375 27.78125 -13.375 
Q 36.625 -13.375 41.015625 -8.765625 
Q 45.40625 -4.15625 45.40625 5.171875 
L 45.40625 9.625 
Q 42.625 4.78125 38.28125 2.390625 
Q 33.9375 0 27.875 0 
Q 17.828125 0 11.671875 7.65625 
Q 5.515625 15.328125 5.515625 27.984375 
Q 5.515625 40.671875 11.671875 48.328125 
Q 17.828125 56 27.875 56 
Q 33.9375 56 38.28125 53.609375 
Q 42.625 51.21875 45.40625 46.390625 
L 45.40625 54.6875 
L 54.390625 54.6875 
z
" id="DejaVuSans-103"/>
      <path d="M 54.890625 33.015625 
L 54.890625 0 
L 45.90625 0 
L 45.90625 32.71875 
Q 45.90625 40.484375 42.875 44.328125 
Q 39.84375 48.1875 33.796875 48.1875 
Q 26.515625 48.1875 22.3125 43.546875 
Q 18.109375 38.921875 18.109375 30.90625 
L 18.109375 0 
L 9.078125 0 
L 9.078125 75.984375 
L 18.109375 75.984375 
L 18.109375 46.1875 
Q 21.34375 51.125 25.703125 53.5625 
Q 30.078125 56 35.796875 56 
Q 45.21875 56 50.046875 50.171875 
Q 54.890625 44.34375 54.890625 33.015625 
z
" id="DejaVuSans-104"/>
     </defs>
     <use xlink:href="#DejaVuSans-82"/>
     <use x="67.232422" xlink:href="#DejaVuSans-97"/>
     <use x="128.511719" xlink:href="#DejaVuSans-105"/>
     <use x="156.294922" xlink:href="#DejaVuSans-108"/>
     <use x="184.078125" xlink:href="#DejaVuSans-101"/>
     <use x="245.601562" xlink:href="#DejaVuSans-121"/>
     <use x="304.78125" xlink:href="#DejaVuSans-103"/>
     <use x="368.257812" xlink:href="#DejaVuSans-104"/>
     <use x="431.636719" xlink:href="#DejaVuSans-32"/>
     <use x="463.423828" xlink:href="#DejaVuSans-108"/>
     <use x="491.207031" xlink:href="#DejaVuSans-105"/>
     <use x="518.990234" xlink:href="#DejaVuSans-109"/>
     <use x="616.402344" xlink:href="#DejaVuSans-105"/>
     <use x="644.185547" xlink:href="#DejaVuSans-116"/>
    </g>
   </g>
  </g>
  <g id="axes_4">
   <g id="patch_17">
    <path d="M 308.6452 105.104718 
L 385.057235 105.104718 
L 385.057235 18.670875 
L 308.6452 18.670875 
z
" style="fill:#ffffff;"/>
   </g>
   <g id="matplotlib.axis_7">
    <g id="xtick_16">
     <g id="line2d_46">
      <g>
       <use style="stroke:#000000;stroke-width:0.8;" x="312.118475" xlink:href="#m805f1bd0e9" y="105.104718"/>
      </g>
     </g>
     <g id="text_30">
      <!-- −2 -->
      <g transform="translate(307.695818 116.66378)scale(0.06 -0.06)">
       <use xlink:href="#DejaVuSans-8722"/>
       <use x="83.789062" xlink:href="#DejaVuSans-50"/>
      </g>
     </g>
    </g>
    <g id="xtick_17">
     <g id="line2d_47">
      <g>
       <use style="stroke:#000000;stroke-width:0.8;" x="329.484846" xlink:href="#m805f1bd0e9" y="105.104718"/>
      </g>
     </g>
     <g id="text_31">
      <!-- −1 -->
      <g transform="translate(325.06219 116.66378)scale(0.06 -0.06)">
       <use xlink:href="#DejaVuSans-8722"/>
       <use x="83.789062" xlink:href="#DejaVuSans-49"/>
      </g>
     </g>
    </g>
    <g id="xtick_18">
     <g id="line2d_48">
      <g>
       <use style="stroke:#000000;stroke-width:0.8;" x="346.851218" xlink:href="#m805f1bd0e9" y="105.104718"/>
      </g>
     </g>
     <g id="text_32">
      <!-- 0 -->
      <g transform="translate(344.942468 116.66378)scale(0.06 -0.06)">
       <use xlink:href="#DejaVuSans-48"/>
      </g>
     </g>
    </g>
    <g id="xtick_19">
     <g id="line2d_49">
      <g>
       <use style="stroke:#000000;stroke-width:0.8;" x="364.217589" xlink:href="#m805f1bd0e9" y="105.104718"/>
      </g>
     </g>
     <g id="text_33">
      <!-- 1 -->
      <g transform="translate(362.308839 116.66378)scale(0.06 -0.06)">
       <use xlink:href="#DejaVuSans-49"/>
      </g>
     </g>
    </g>
    <g id="xtick_20">
     <g id="line2d_50">
      <g>
       <use style="stroke:#000000;stroke-width:0.8;" x="381.583961" xlink:href="#m805f1bd0e9" y="105.104718"/>
      </g>
     </g>
     <g id="text_34">
      <!-- 2 -->
      <g transform="translate(379.675211 116.66378)scale(0.06 -0.06)">
       <use xlink:href="#DejaVuSans-50"/>
      </g>
     </g>
    </g>
    <g id="text_35">
     <!-- Distance (1.22 λ / NA) -->
     <g transform="translate(313.81653 126.470655)scale(0.06 -0.06)">
      <use xlink:href="#DejaVuSans-68"/>
      <use x="77.001953" xlink:href="#DejaVuSans-105"/>
      <use x="104.785156" xlink:href="#DejaVuSans-115"/>
      <use x="156.884766" xlink:href="#DejaVuSans-116"/>
      <use x="196.09375" xlink:href="#DejaVuSans-97"/>
      <use x="257.373047" xlink:href="#DejaVuSans-110"/>
      <use x="320.751953" xlink:href="#DejaVuSans-99"/>
      <use x="375.732422" xlink:href="#DejaVuSans-101"/>
      <use x="437.255859" xlink:href="#DejaVuSans-32"/>
      <use x="469.042969" xlink:href="#DejaVuSans-40"/>
      <use x="508.056641" xlink:href="#DejaVuSans-49"/>
      <use x="571.679688" xlink:href="#DejaVuSans-46"/>
      <use x="603.466797" xlink:href="#DejaVuSans-50"/>
      <use x="667.089844" xlink:href="#DejaVuSans-50"/>
      <use x="730.712891" xlink:href="#DejaVuSans-32"/>
      <use x="762.5" xlink:href="#DejaVuSans-955"/>
      <use x="821.679688" xlink:href="#DejaVuSans-32"/>
      <use x="853.466797" xlink:href="#DejaVuSans-47"/>
      <use x="887.158203" xlink:href="#DejaVuSans-32"/>
      <use x="918.945312" xlink:href="#DejaVuSans-78"/>
      <use x="993.75" xlink:href="#DejaVuSans-65"/>
      <use x="1062.158203" xlink:href="#DejaVuSans-41"/>
     </g>
    </g>
   </g>
   <g id="matplotlib.axis_8">
    <g id="ytick_22">
     <g id="line2d_51">
      <g>
       <use style="stroke:#000000;stroke-width:0.8;" x="308.6452" xlink:href="#m4d08706edf" y="101.780339"/>
      </g>
     </g>
    </g>
    <g id="ytick_23">
     <g id="line2d_52">
      <g>
       <use style="stroke:#000000;stroke-width:0.8;" x="308.6452" xlink:href="#m4d08706edf" y="88.482825"/>
      </g>
     </g>
    </g>
    <g id="ytick_24">
     <g id="line2d_53">
      <g>
       <use style="stroke:#000000;stroke-width:0.8;" x="308.6452" xlink:href="#m4d08706edf" y="75.185311"/>
      </g>
     </g>
    </g>
    <g id="ytick_25">
     <g id="line2d_54">
      <g>
       <use style="stroke:#000000;stroke-width:0.8;" x="308.6452" xlink:href="#m4d08706edf" y="61.887796"/>
      </g>
     </g>
    </g>
    <g id="ytick_26">
     <g id="line2d_55">
      <g>
       <use style="stroke:#000000;stroke-width:0.8;" x="308.6452" xlink:href="#m4d08706edf" y="48.590282"/>
      </g>
     </g>
    </g>
    <g id="ytick_27">
     <g id="line2d_56">
      <g>
       <use style="stroke:#000000;stroke-width:0.8;" x="308.6452" xlink:href="#m4d08706edf" y="35.292768"/>
      </g>
     </g>
    </g>
    <g id="ytick_28">
     <g id="line2d_57">
      <g>
       <use style="stroke:#000000;stroke-width:0.8;" x="308.6452" xlink:href="#m4d08706edf" y="21.995254"/>
      </g>
     </g>
    </g>
   </g>
   <g id="line2d_58">
    <path clip-path="url(#p2db45088fd)" d="M 312.118475 101.6755 
L 322.241586 101.647896 
L 326.430459 101.505564 
L 329.572114 101.649381 
L 332.713769 101.778375 
L 334.808206 101.625729 
L 337.251716 101.166264 
L 340.044298 100.660924 
L 341.440589 100.630953 
L 342.83688 100.824062 
L 344.931317 101.415286 
L 346.327608 101.743985 
L 347.374827 101.738303 
L 348.072972 101.522631 
L 348.771118 101.0758 
L 349.469264 100.345183 
L 350.167409 99.28131 
L 350.865555 97.840703 
L 351.5637 95.988709 
L 352.610919 92.392409 
L 353.658137 87.803714 
L 354.705355 82.287189 
L 356.101647 73.764783 
L 360.29052 46.843283 
L 361.337739 41.731401 
L 362.035884 39.054612 
L 362.73403 37.054927 
L 363.432175 35.790642 
L 363.781248 35.446766 
L 364.130321 35.298933 
L 364.479394 35.348241 
L 364.828467 35.594324 
L 365.177539 36.035358 
L 365.875685 37.487836 
L 366.573831 39.663041 
L 367.271976 42.497739 
L 368.319194 47.804463 
L 369.715486 56.31711 
L 373.904359 83.265657 
L 375.30065 90.220114 
L 376.347869 94.315303 
L 377.395087 97.417393 
L 378.093233 98.958002 
L 378.791378 100.11228 
L 379.489524 100.921759 
L 380.18767 101.434678 
L 380.885815 101.703137 
L 381.583961 101.780336 
L 381.583961 101.780336 
" style="fill:none;stroke:#1f77b4;stroke-dasharray:0.5,0.825;stroke-dashoffset:0;stroke-width:0.5;"/>
   </g>
   <g id="line2d_59">
    <path clip-path="url(#p2db45088fd)" d="M 312.118475 101.780336 
L 312.81662 101.703137 
L 313.514766 101.434678 
L 314.212911 100.921759 
L 314.911057 100.11228 
L 315.609202 98.958002 
L 316.307348 97.417393 
L 317.005494 95.458429 
L 318.052712 91.695871 
L 319.09993 86.945701 
L 320.496222 79.225271 
L 322.241586 67.99666 
L 325.034168 49.805869 
L 326.081386 44.137624 
L 327.128605 39.663041 
L 327.82675 37.487836 
L 328.524896 36.035358 
L 328.873969 35.594324 
L 329.223041 35.348241 
L 329.572114 35.298933 
L 329.921187 35.446766 
L 330.27026 35.790642 
L 330.968405 37.054927 
L 331.666551 39.054612 
L 332.364697 41.731401 
L 333.411915 46.843283 
L 334.808206 55.18949 
L 339.346153 84.221519 
L 340.393371 89.441353 
L 341.440589 93.702158 
L 342.487808 96.967876 
L 343.185953 98.610503 
L 343.884099 99.857795 
L 344.582244 100.749164 
L 345.28039 101.331441 
L 345.978536 101.656025 
L 346.676681 101.776089 
L 347.7239 101.686436 
L 349.469264 101.20083 
L 351.214628 100.755259 
L 352.610919 100.618126 
L 354.00721 100.699329 
L 356.101647 101.089118 
L 358.894229 101.625729 
L 360.988666 101.778375 
L 363.432175 101.69616 
L 367.970122 101.505481 
L 371.809922 101.666927 
L 375.998796 101.77902 
L 381.583961 101.6755 
L 381.583961 101.6755 
" style="fill:none;stroke:#1f77b4;stroke-dasharray:0.5,0.825;stroke-dashoffset:0;stroke-width:0.5;"/>
   </g>
   <g id="line2d_60">
    <path clip-path="url(#p2db45088fd)" d="M 312.118475 101.675496 
L 312.81662 101.604789 
L 313.514766 101.347411 
L 314.212911 100.849234 
L 314.911057 100.056791 
L 315.609202 98.920112 
L 316.307348 97.395715 
L 317.005494 95.449569 
L 318.052712 91.695834 
L 319.09993 86.937848 
L 320.496222 79.178196 
L 322.241586 67.864216 
L 325.034168 49.543467 
L 326.081386 43.861169 
L 327.128605 39.401578 
L 327.82675 37.252353 
L 328.524896 35.836608 
L 328.873969 35.417003 
L 329.223041 35.193716 
L 329.572114 35.167975 
L 329.921187 35.339491 
L 330.27026 35.706463 
L 330.968405 37.012189 
L 331.666551 39.041877 
L 332.364697 41.731302 
L 333.411915 46.818534 
L 334.808206 55.034879 
L 339.346153 83.188988 
L 340.742444 89.810684 
L 341.789662 93.778487 
L 342.83688 96.884426 
L 343.884099 99.173114 
L 344.582244 100.277392 
L 345.28039 101.068027 
L 345.978536 101.562122 
L 346.676681 101.771633 
L 347.374827 101.701948 
L 348.072972 101.351254 
L 348.771118 100.710747 
L 349.469264 99.765674 
L 350.167409 98.49712 
L 350.865555 96.884426 
L 351.912773 93.778487 
L 352.959992 89.810684 
L 354.00721 84.981239 
L 355.403501 77.324538 
L 357.497938 64.07458 
L 359.941447 48.746117 
L 360.988666 43.298324 
L 362.035884 39.041877 
L 362.73403 37.012189 
L 363.432175 35.706463 
L 363.781248 35.339491 
L 364.130321 35.167975 
L 364.479394 35.193716 
L 364.828467 35.417003 
L 365.177539 35.836608 
L 365.875685 37.252353 
L 366.573831 39.401578 
L 367.271976 42.222963 
L 368.319194 47.534354 
L 369.715486 56.092841 
L 373.904359 83.242219 
L 375.30065 90.219488 
L 376.347869 94.31098 
L 377.395087 97.395715 
L 378.093233 98.920112 
L 378.791378 100.056791 
L 379.489524 100.849234 
L 380.18767 101.347411 
L 380.885815 101.604789 
L 381.583961 101.675496 
L 381.583961 101.675496 
" style="fill:none;stroke:#1f77b4;stroke-linecap:square;stroke-width:1.5;"/>
   </g>
   <g id="patch_18">
    <path d="M 308.6452 105.104718 
L 308.6452 18.670875 
" style="fill:none;stroke:#000000;stroke-linecap:square;stroke-linejoin:miter;stroke-width:0.8;"/>
   </g>
   <g id="patch_19">
    <path d="M 385.057235 105.104718 
L 385.057235 18.670875 
" style="fill:none;stroke:#000000;stroke-linecap:square;stroke-linejoin:miter;stroke-width:0.8;"/>
   </g>
   <g id="patch_20">
    <path d="M 308.6452 105.104718 
L 385.057235 105.104718 
" style="fill:none;stroke:#000000;stroke-linecap:square;stroke-linejoin:miter;stroke-width:0.8;"/>
   </g>
   <g id="patch_21">
    <path d="M 308.6452 18.670875 
L 385.057235 18.670875 
" style="fill:none;stroke:#000000;stroke-linecap:square;stroke-linejoin:miter;stroke-width:0.8;"/>
   </g>
   <g id="text_36">
    <!-- Above resolution -->
    <g transform="translate(316.540905 12.670875)scale(0.072 -0.072)">
     <defs>
      <path d="M 48.6875 27.296875 
Q 48.6875 37.203125 44.609375 42.84375 
Q 40.53125 48.484375 33.40625 48.484375 
Q 26.265625 48.484375 22.1875 42.84375 
Q 18.109375 37.203125 18.109375 27.296875 
Q 18.109375 17.390625 22.1875 11.75 
Q 26.265625 6.109375 33.40625 6.109375 
Q 40.53125 6.109375 44.609375 11.75 
Q 48.6875 17.390625 48.6875 27.296875 
z
M 18.109375 46.390625 
Q 20.953125 51.265625 25.265625 53.625 
Q 29.59375 56 35.59375 56 
Q 45.5625 56 51.78125 48.09375 
Q 58.015625 40.1875 58.015625 27.296875 
Q 58.015625 14.40625 51.78125 6.484375 
Q 45.5625 -1.421875 35.59375 -1.421875 
Q 29.59375 -1.421875 25.265625 0.953125 
Q 20.953125 3.328125 18.109375 8.203125 
L 18.109375 0 
L 9.078125 0 
L 9.078125 75.984375 
L 18.109375 75.984375 
z
" id="DejaVuSans-98"/>
      <path d="M 2.984375 54.6875 
L 12.5 54.6875 
L 29.59375 8.796875 
L 46.6875 54.6875 
L 56.203125 54.6875 
L 35.6875 0 
L 23.484375 0 
z
" id="DejaVuSans-118"/>
     </defs>
     <use xlink:href="#DejaVuSans-65"/>
     <use x="68.408203" xlink:href="#DejaVuSans-98"/>
     <use x="131.884766" xlink:href="#DejaVuSans-111"/>
     <use x="193.066406" xlink:href="#DejaVuSans-118"/>
     <use x="252.246094" xlink:href="#DejaVuSans-101"/>
     <use x="313.769531" xlink:href="#DejaVuSans-32"/>
     <use x="345.556641" xlink:href="#DejaVuSans-114"/>
     <use x="384.419922" xlink:href="#DejaVuSans-101"/>
     <use x="445.943359" xlink:href="#DejaVuSans-115"/>
     <use x="498.042969" xlink:href="#DejaVuSans-111"/>
     <use x="559.224609" xlink:href="#DejaVuSans-108"/>
     <use x="587.007812" xlink:href="#DejaVuSans-117"/>
     <use x="650.386719" xlink:href="#DejaVuSans-116"/>
     <use x="689.595703" xlink:href="#DejaVuSans-105"/>
     <use x="717.378906" xlink:href="#DejaVuSans-111"/>
     <use x="778.560547" xlink:href="#DejaVuSans-110"/>
    </g>
   </g>
  </g>
 </g>
 <defs>
  <clipPath id="p1c85fcd9da">
   <rect height="86.433843" width="76.412035" x="33.561875" y="18.670875"/>
  </clipPath>
  <clipPath id="p51cee1a932">
   <rect height="86.433843" width="76.412035" x="125.256317" y="18.670875"/>
  </clipPath>
  <clipPath id="pc81b21c01f">
   <rect height="86.433843" width="76.412035" x="216.950758" y="18.670875"/>
  </clipPath>
  <clipPath id="p2db45088fd">
   <rect height="86.433843" width="76.412035" x="308.6452" y="18.670875"/>
  </clipPath>
 </defs>
</svg>
