<?xml version="1.0" encoding="utf-8" standalone="no"?>
<!DOCTYPE svg PUBLIC "-//W3C//DTD SVG 1.1//EN"
  "http://www.w3.org/Graphics/SVG/1.1/DTD/svg11.dtd">
<!-- Created with matplotlib (https://matplotlib.org/) -->
<svg height="112.769796pt" version="1.1" viewBox="0 0 302.173424 112.769796" width="302.173424pt" xmlns="http://www.w3.org/2000/svg" xmlns:xlink="http://www.w3.org/1999/xlink">
 <metadata>
  <rdf:RDF xmlns:cc="http://creativecommons.org/ns#" xmlns:dc="http://purl.org/dc/elements/1.1/" xmlns:rdf="http://www.w3.org/1999/02/22-rdf-syntax-ns#">
   <cc:Work>
    <dc:type rdf:resource="http://purl.org/dc/dcmitype/StillImage"/>
    <dc:date>2021-05-03T11:15:31.201233</dc:date>
    <dc:format>image/svg+xml</dc:format>
    <dc:creator>
     <cc:Agent>
      <dc:title>Matplotlib v3.3.4, https://matplotlib.org/</dc:title>
     </cc:Agent>
    </dc:creator>
   </cc:Work>
  </rdf:RDF>
 </metadata>
 <defs>
  <style type="text/css">*{stroke-linecap:butt;stroke-linejoin:round;}</style>
 </defs>
 <g id="figure_1">
  <g id="patch_1">
   <path d="M 0 112.769796 
L 302.173424 112.769796 
L 302.173424 0 
L 0 0 
z
" style="fill:#ffffff;"/>
  </g>
  <g id="axes_1">
   <g id="patch_2">
    <path d="M 33.54875 82.956046 
L 90.380201 82.956046 
L 90.380201 18.670875 
L 33.54875 18.670875 
z
" style="fill:#ffffff;"/>
   </g>
   <g id="matplotlib.axis_1">
    <g id="xtick_1">
     <g id="line2d_1">
      <defs>
       <path d="M 0 0 
L 0 3.5 
" id="m0389a6ffad" style="stroke:#000000;stroke-width:0.8;"/>
      </defs>
      <g>
       <use style="stroke:#000000;stroke-width:0.8;" x="36.131998" xlink:href="#m0389a6ffad" y="82.956046"/>
      </g>
     </g>
     <g id="text_1">
      <!-- −1 -->
      <g transform="translate(31.709342 94.515108)scale(0.06 -0.06)">
       <defs>
        <path d="M 10.59375 35.5 
L 73.1875 35.5 
L 73.1875 27.203125 
L 10.59375 27.203125 
z
" id="DejaVuSans-8722"/>
        <path d="M 12.40625 8.296875 
L 28.515625 8.296875 
L 28.515625 63.921875 
L 10.984375 60.40625 
L 10.984375 69.390625 
L 28.421875 72.90625 
L 38.28125 72.90625 
L 38.28125 8.296875 
L 54.390625 8.296875 
L 54.390625 0 
L 12.40625 0 
z
" id="DejaVuSans-49"/>
       </defs>
       <use xlink:href="#DejaVuSans-8722"/>
       <use x="83.789062" xlink:href="#DejaVuSans-49"/>
      </g>
     </g>
    </g>
    <g id="xtick_2">
     <g id="line2d_2">
      <g>
       <use style="stroke:#000000;stroke-width:0.8;" x="49.048237" xlink:href="#m0389a6ffad" y="82.956046"/>
      </g>
     </g>
     <g id="text_2">
      <!-- 0 -->
      <g transform="translate(47.139487 94.515108)scale(0.06 -0.06)">
       <defs>
        <path d="M 31.78125 66.40625 
Q 24.171875 66.40625 20.328125 58.90625 
Q 16.5 51.421875 16.5 36.375 
Q 16.5 21.390625 20.328125 13.890625 
Q 24.171875 6.390625 31.78125 6.390625 
Q 39.453125 6.390625 43.28125 13.890625 
Q 47.125 21.390625 47.125 36.375 
Q 47.125 51.421875 43.28125 58.90625 
Q 39.453125 66.40625 31.78125 66.40625 
z
M 31.78125 74.21875 
Q 44.046875 74.21875 50.515625 64.515625 
Q 56.984375 54.828125 56.984375 36.375 
Q 56.984375 17.96875 50.515625 8.265625 
Q 44.046875 -1.421875 31.78125 -1.421875 
Q 19.53125 -1.421875 13.0625 8.265625 
Q 6.59375 17.96875 6.59375 36.375 
Q 6.59375 54.828125 13.0625 64.515625 
Q 19.53125 74.21875 31.78125 74.21875 
z
" id="DejaVuSans-48"/>
       </defs>
       <use xlink:href="#DejaVuSans-48"/>
      </g>
     </g>
    </g>
    <g id="xtick_3">
     <g id="line2d_3">
      <g>
       <use style="stroke:#000000;stroke-width:0.8;" x="61.964475" xlink:href="#m0389a6ffad" y="82.956046"/>
      </g>
     </g>
     <g id="text_3">
      <!-- 1 -->
      <g transform="translate(60.055725 94.515108)scale(0.06 -0.06)">
       <use xlink:href="#DejaVuSans-49"/>
      </g>
     </g>
    </g>
    <g id="xtick_4">
     <g id="line2d_4">
      <g>
       <use style="stroke:#000000;stroke-width:0.8;" x="74.880714" xlink:href="#m0389a6ffad" y="82.956046"/>
      </g>
     </g>
     <g id="text_4">
      <!-- 2 -->
      <g transform="translate(72.971964 94.515108)scale(0.06 -0.06)">
       <defs>
        <path d="M 19.1875 8.296875 
L 53.609375 8.296875 
L 53.609375 0 
L 7.328125 0 
L 7.328125 8.296875 
Q 12.9375 14.109375 22.625 23.890625 
Q 32.328125 33.6875 34.8125 36.53125 
Q 39.546875 41.84375 41.421875 45.53125 
Q 43.3125 49.21875 43.3125 52.78125 
Q 43.3125 58.59375 39.234375 62.25 
Q 35.15625 65.921875 28.609375 65.921875 
Q 23.96875 65.921875 18.8125 64.3125 
Q 13.671875 62.703125 7.8125 59.421875 
L 7.8125 69.390625 
Q 13.765625 71.78125 18.9375 73 
Q 24.125 74.21875 28.421875 74.21875 
Q 39.75 74.21875 46.484375 68.546875 
Q 53.21875 62.890625 53.21875 53.421875 
Q 53.21875 48.921875 51.53125 44.890625 
Q 49.859375 40.875 45.40625 35.40625 
Q 44.1875 33.984375 37.640625 27.21875 
Q 31.109375 20.453125 19.1875 8.296875 
z
" id="DejaVuSans-50"/>
       </defs>
       <use xlink:href="#DejaVuSans-50"/>
      </g>
     </g>
    </g>
    <g id="xtick_5">
     <g id="line2d_5">
      <g>
       <use style="stroke:#000000;stroke-width:0.8;" x="87.796953" xlink:href="#m0389a6ffad" y="82.956046"/>
      </g>
     </g>
     <g id="text_5">
      <!-- 3 -->
      <g transform="translate(85.888203 94.515108)scale(0.06 -0.06)">
       <defs>
        <path d="M 40.578125 39.3125 
Q 47.65625 37.796875 51.625 33 
Q 55.609375 28.21875 55.609375 21.1875 
Q 55.609375 10.40625 48.1875 4.484375 
Q 40.765625 -1.421875 27.09375 -1.421875 
Q 22.515625 -1.421875 17.65625 -0.515625 
Q 12.796875 0.390625 7.625 2.203125 
L 7.625 11.71875 
Q 11.71875 9.328125 16.59375 8.109375 
Q 21.484375 6.890625 26.8125 6.890625 
Q 36.078125 6.890625 40.9375 10.546875 
Q 45.796875 14.203125 45.796875 21.1875 
Q 45.796875 27.640625 41.28125 31.265625 
Q 36.765625 34.90625 28.71875 34.90625 
L 20.21875 34.90625 
L 20.21875 43.015625 
L 29.109375 43.015625 
Q 36.375 43.015625 40.234375 45.921875 
Q 44.09375 48.828125 44.09375 54.296875 
Q 44.09375 59.90625 40.109375 62.90625 
Q 36.140625 65.921875 28.71875 65.921875 
Q 24.65625 65.921875 20.015625 65.03125 
Q 15.375 64.15625 9.8125 62.3125 
L 9.8125 71.09375 
Q 15.4375 72.65625 20.34375 73.4375 
Q 25.25 74.21875 29.59375 74.21875 
Q 40.828125 74.21875 47.359375 69.109375 
Q 53.90625 64.015625 53.90625 55.328125 
Q 53.90625 49.265625 50.4375 45.09375 
Q 46.96875 40.921875 40.578125 39.3125 
z
" id="DejaVuSans-51"/>
       </defs>
       <use xlink:href="#DejaVuSans-51"/>
      </g>
     </g>
    </g>
    <g id="text_6">
     <!-- Distance (au) -->
     <g transform="translate(41.812913 104.321983)scale(0.06 -0.06)">
      <defs>
       <path d="M 19.671875 64.796875 
L 19.671875 8.109375 
L 31.59375 8.109375 
Q 46.6875 8.109375 53.6875 14.9375 
Q 60.6875 21.78125 60.6875 36.53125 
Q 60.6875 51.171875 53.6875 57.984375 
Q 46.6875 64.796875 31.59375 64.796875 
z
M 9.8125 72.90625 
L 30.078125 72.90625 
Q 51.265625 72.90625 61.171875 64.09375 
Q 71.09375 55.28125 71.09375 36.53125 
Q 71.09375 17.671875 61.125 8.828125 
Q 51.171875 0 30.078125 0 
L 9.8125 0 
z
" id="DejaVuSans-68"/>
       <path d="M 9.421875 54.6875 
L 18.40625 54.6875 
L 18.40625 0 
L 9.421875 0 
z
M 9.421875 75.984375 
L 18.40625 75.984375 
L 18.40625 64.59375 
L 9.421875 64.59375 
z
" id="DejaVuSans-105"/>
       <path d="M 44.28125 53.078125 
L 44.28125 44.578125 
Q 40.484375 46.53125 36.375 47.5 
Q 32.28125 48.484375 27.875 48.484375 
Q 21.1875 48.484375 17.84375 46.4375 
Q 14.5 44.390625 14.5 40.28125 
Q 14.5 37.15625 16.890625 35.375 
Q 19.28125 33.59375 26.515625 31.984375 
L 29.59375 31.296875 
Q 39.15625 29.25 43.1875 25.515625 
Q 47.21875 21.78125 47.21875 15.09375 
Q 47.21875 7.46875 41.1875 3.015625 
Q 35.15625 -1.421875 24.609375 -1.421875 
Q 20.21875 -1.421875 15.453125 -0.5625 
Q 10.6875 0.296875 5.421875 2 
L 5.421875 11.28125 
Q 10.40625 8.6875 15.234375 7.390625 
Q 20.0625 6.109375 24.8125 6.109375 
Q 31.15625 6.109375 34.5625 8.28125 
Q 37.984375 10.453125 37.984375 14.40625 
Q 37.984375 18.0625 35.515625 20.015625 
Q 33.0625 21.96875 24.703125 23.78125 
L 21.578125 24.515625 
Q 13.234375 26.265625 9.515625 29.90625 
Q 5.8125 33.546875 5.8125 39.890625 
Q 5.8125 47.609375 11.28125 51.796875 
Q 16.75 56 26.8125 56 
Q 31.78125 56 36.171875 55.265625 
Q 40.578125 54.546875 44.28125 53.078125 
z
" id="DejaVuSans-115"/>
       <path d="M 18.3125 70.21875 
L 18.3125 54.6875 
L 36.8125 54.6875 
L 36.8125 47.703125 
L 18.3125 47.703125 
L 18.3125 18.015625 
Q 18.3125 11.328125 20.140625 9.421875 
Q 21.96875 7.515625 27.59375 7.515625 
L 36.8125 7.515625 
L 36.8125 0 
L 27.59375 0 
Q 17.1875 0 13.234375 3.875 
Q 9.28125 7.765625 9.28125 18.015625 
L 9.28125 47.703125 
L 2.6875 47.703125 
L 2.6875 54.6875 
L 9.28125 54.6875 
L 9.28125 70.21875 
z
" id="DejaVuSans-116"/>
       <path d="M 34.28125 27.484375 
Q 23.390625 27.484375 19.1875 25 
Q 14.984375 22.515625 14.984375 16.5 
Q 14.984375 11.71875 18.140625 8.90625 
Q 21.296875 6.109375 26.703125 6.109375 
Q 34.1875 6.109375 38.703125 11.40625 
Q 43.21875 16.703125 43.21875 25.484375 
L 43.21875 27.484375 
z
M 52.203125 31.203125 
L 52.203125 0 
L 43.21875 0 
L 43.21875 8.296875 
Q 40.140625 3.328125 35.546875 0.953125 
Q 30.953125 -1.421875 24.3125 -1.421875 
Q 15.921875 -1.421875 10.953125 3.296875 
Q 6 8.015625 6 15.921875 
Q 6 25.140625 12.171875 29.828125 
Q 18.359375 34.515625 30.609375 34.515625 
L 43.21875 34.515625 
L 43.21875 35.40625 
Q 43.21875 41.609375 39.140625 45 
Q 35.0625 48.390625 27.6875 48.390625 
Q 23 48.390625 18.546875 47.265625 
Q 14.109375 46.140625 10.015625 43.890625 
L 10.015625 52.203125 
Q 14.9375 54.109375 19.578125 55.046875 
Q 24.21875 56 28.609375 56 
Q 40.484375 56 46.34375 49.84375 
Q 52.203125 43.703125 52.203125 31.203125 
z
" id="DejaVuSans-97"/>
       <path d="M 54.890625 33.015625 
L 54.890625 0 
L 45.90625 0 
L 45.90625 32.71875 
Q 45.90625 40.484375 42.875 44.328125 
Q 39.84375 48.1875 33.796875 48.1875 
Q 26.515625 48.1875 22.3125 43.546875 
Q 18.109375 38.921875 18.109375 30.90625 
L 18.109375 0 
L 9.078125 0 
L 9.078125 54.6875 
L 18.109375 54.6875 
L 18.109375 46.1875 
Q 21.34375 51.125 25.703125 53.5625 
Q 30.078125 56 35.796875 56 
Q 45.21875 56 50.046875 50.171875 
Q 54.890625 44.34375 54.890625 33.015625 
z
" id="DejaVuSans-110"/>
       <path d="M 48.78125 52.59375 
L 48.78125 44.1875 
Q 44.96875 46.296875 41.140625 47.34375 
Q 37.3125 48.390625 33.40625 48.390625 
Q 24.65625 48.390625 19.8125 42.84375 
Q 14.984375 37.3125 14.984375 27.296875 
Q 14.984375 17.28125 19.8125 11.734375 
Q 24.65625 6.203125 33.40625 6.203125 
Q 37.3125 6.203125 41.140625 7.25 
Q 44.96875 8.296875 48.78125 10.40625 
L 48.78125 2.09375 
Q 45.015625 0.34375 40.984375 -0.53125 
Q 36.96875 -1.421875 32.421875 -1.421875 
Q 20.0625 -1.421875 12.78125 6.34375 
Q 5.515625 14.109375 5.515625 27.296875 
Q 5.515625 40.671875 12.859375 48.328125 
Q 20.21875 56 33.015625 56 
Q 37.15625 56 41.109375 55.140625 
Q 45.0625 54.296875 48.78125 52.59375 
z
" id="DejaVuSans-99"/>
       <path d="M 56.203125 29.59375 
L 56.203125 25.203125 
L 14.890625 25.203125 
Q 15.484375 15.921875 20.484375 11.0625 
Q 25.484375 6.203125 34.421875 6.203125 
Q 39.59375 6.203125 44.453125 7.46875 
Q 49.3125 8.734375 54.109375 11.28125 
L 54.109375 2.78125 
Q 49.265625 0.734375 44.1875 -0.34375 
Q 39.109375 -1.421875 33.890625 -1.421875 
Q 20.796875 -1.421875 13.15625 6.1875 
Q 5.515625 13.8125 5.515625 26.8125 
Q 5.515625 40.234375 12.765625 48.109375 
Q 20.015625 56 32.328125 56 
Q 43.359375 56 49.78125 48.890625 
Q 56.203125 41.796875 56.203125 29.59375 
z
M 47.21875 32.234375 
Q 47.125 39.59375 43.09375 43.984375 
Q 39.0625 48.390625 32.421875 48.390625 
Q 24.90625 48.390625 20.390625 44.140625 
Q 15.875 39.890625 15.1875 32.171875 
z
" id="DejaVuSans-101"/>
       <path id="DejaVuSans-32"/>
       <path d="M 31 75.875 
Q 24.46875 64.65625 21.28125 53.65625 
Q 18.109375 42.671875 18.109375 31.390625 
Q 18.109375 20.125 21.3125 9.0625 
Q 24.515625 -2 31 -13.1875 
L 23.1875 -13.1875 
Q 15.875 -1.703125 12.234375 9.375 
Q 8.59375 20.453125 8.59375 31.390625 
Q 8.59375 42.28125 12.203125 53.3125 
Q 15.828125 64.359375 23.1875 75.875 
z
" id="DejaVuSans-40"/>
       <path d="M 8.5 21.578125 
L 8.5 54.6875 
L 17.484375 54.6875 
L 17.484375 21.921875 
Q 17.484375 14.15625 20.5 10.265625 
Q 23.53125 6.390625 29.59375 6.390625 
Q 36.859375 6.390625 41.078125 11.03125 
Q 45.3125 15.671875 45.3125 23.6875 
L 45.3125 54.6875 
L 54.296875 54.6875 
L 54.296875 0 
L 45.3125 0 
L 45.3125 8.40625 
Q 42.046875 3.421875 37.71875 1 
Q 33.40625 -1.421875 27.6875 -1.421875 
Q 18.265625 -1.421875 13.375 4.4375 
Q 8.5 10.296875 8.5 21.578125 
z
M 31.109375 56 
z
" id="DejaVuSans-117"/>
       <path d="M 8.015625 75.875 
L 15.828125 75.875 
Q 23.140625 64.359375 26.78125 53.3125 
Q 30.421875 42.28125 30.421875 31.390625 
Q 30.421875 20.453125 26.78125 9.375 
Q 23.140625 -1.703125 15.828125 -13.1875 
L 8.015625 -13.1875 
Q 14.5 -2 17.703125 9.0625 
Q 20.90625 20.125 20.90625 31.390625 
Q 20.90625 42.671875 17.703125 53.65625 
Q 14.5 64.65625 8.015625 75.875 
z
" id="DejaVuSans-41"/>
      </defs>
      <use xlink:href="#DejaVuSans-68"/>
      <use x="77.001953" xlink:href="#DejaVuSans-105"/>
      <use x="104.785156" xlink:href="#DejaVuSans-115"/>
      <use x="156.884766" xlink:href="#DejaVuSans-116"/>
      <use x="196.09375" xlink:href="#DejaVuSans-97"/>
      <use x="257.373047" xlink:href="#DejaVuSans-110"/>
      <use x="320.751953" xlink:href="#DejaVuSans-99"/>
      <use x="375.732422" xlink:href="#DejaVuSans-101"/>
      <use x="437.255859" xlink:href="#DejaVuSans-32"/>
      <use x="469.042969" xlink:href="#DejaVuSans-40"/>
      <use x="508.056641" xlink:href="#DejaVuSans-97"/>
      <use x="569.335938" xlink:href="#DejaVuSans-117"/>
      <use x="632.714844" xlink:href="#DejaVuSans-41"/>
     </g>
    </g>
   </g>
   <g id="matplotlib.axis_2">
    <g id="ytick_1">
     <g id="line2d_6">
      <defs>
       <path d="M 0 0 
L -3.5 0 
" id="m0187bde5c8" style="stroke:#000000;stroke-width:0.8;"/>
      </defs>
      <g>
       <use style="stroke:#000000;stroke-width:0.8;" x="33.54875" xlink:href="#m0187bde5c8" y="80.483539"/>
      </g>
     </g>
     <g id="text_7">
      <!-- 0.0 -->
      <g transform="translate(17.006875 82.76307)scale(0.06 -0.06)">
       <defs>
        <path d="M 10.6875 12.40625 
L 21 12.40625 
L 21 0 
L 10.6875 0 
z
" id="DejaVuSans-46"/>
       </defs>
       <use xlink:href="#DejaVuSans-48"/>
       <use x="63.623047" xlink:href="#DejaVuSans-46"/>
       <use x="95.410156" xlink:href="#DejaVuSans-48"/>
      </g>
     </g>
    </g>
    <g id="ytick_2">
     <g id="line2d_7">
      <g>
       <use style="stroke:#000000;stroke-width:0.8;" x="33.54875" xlink:href="#m0187bde5c8" y="55.758473"/>
      </g>
     </g>
     <g id="text_8">
      <!-- 0.5 -->
      <g transform="translate(17.006875 58.038005)scale(0.06 -0.06)">
       <defs>
        <path d="M 10.796875 72.90625 
L 49.515625 72.90625 
L 49.515625 64.59375 
L 19.828125 64.59375 
L 19.828125 46.734375 
Q 21.96875 47.46875 24.109375 47.828125 
Q 26.265625 48.1875 28.421875 48.1875 
Q 40.625 48.1875 47.75 41.5 
Q 54.890625 34.8125 54.890625 23.390625 
Q 54.890625 11.625 47.5625 5.09375 
Q 40.234375 -1.421875 26.90625 -1.421875 
Q 22.3125 -1.421875 17.546875 -0.640625 
Q 12.796875 0.140625 7.71875 1.703125 
L 7.71875 11.625 
Q 12.109375 9.234375 16.796875 8.0625 
Q 21.484375 6.890625 26.703125 6.890625 
Q 35.15625 6.890625 40.078125 11.328125 
Q 45.015625 15.765625 45.015625 23.390625 
Q 45.015625 31 40.078125 35.4375 
Q 35.15625 39.890625 26.703125 39.890625 
Q 22.75 39.890625 18.8125 39.015625 
Q 14.890625 38.140625 10.796875 36.28125 
z
" id="DejaVuSans-53"/>
       </defs>
       <use xlink:href="#DejaVuSans-48"/>
       <use x="63.623047" xlink:href="#DejaVuSans-46"/>
       <use x="95.410156" xlink:href="#DejaVuSans-53"/>
      </g>
     </g>
    </g>
    <g id="ytick_3">
     <g id="line2d_8">
      <g>
       <use style="stroke:#000000;stroke-width:0.8;" x="33.54875" xlink:href="#m0187bde5c8" y="31.033408"/>
      </g>
     </g>
     <g id="text_9">
      <!-- 1.0 -->
      <g transform="translate(17.006875 33.312939)scale(0.06 -0.06)">
       <use xlink:href="#DejaVuSans-49"/>
       <use x="63.623047" xlink:href="#DejaVuSans-46"/>
       <use x="95.410156" xlink:href="#DejaVuSans-48"/>
      </g>
     </g>
    </g>
    <g id="text_10">
     <!-- Intensity (I₀) -->
     <g transform="translate(11.759062 69.253148)rotate(-90)scale(0.06 -0.06)">
      <defs>
       <path d="M 9.8125 72.90625 
L 19.671875 72.90625 
L 19.671875 0 
L 9.8125 0 
z
" id="DejaVuSans-73"/>
       <path d="M 32.171875 -5.078125 
Q 28.375 -14.84375 24.75 -17.8125 
Q 21.140625 -20.796875 15.09375 -20.796875 
L 7.90625 -20.796875 
L 7.90625 -13.28125 
L 13.1875 -13.28125 
Q 16.890625 -13.28125 18.9375 -11.515625 
Q 21 -9.765625 23.484375 -3.21875 
L 25.09375 0.875 
L 2.984375 54.6875 
L 12.5 54.6875 
L 29.59375 11.921875 
L 46.6875 54.6875 
L 56.203125 54.6875 
z
" id="DejaVuSans-121"/>
       <path d="M 27.828125 32.671875 
Q 25.390625 36.875 20.453125 36.875 
Q 15.53125 36.875 13.09375 32.671875 
Q 10.59375 28.46875 10.59375 20.078125 
Q 10.59375 11.625 13.09375 7.4375 
Q 15.53125 3.234375 20.453125 3.234375 
Q 25.390625 3.234375 27.828125 7.4375 
Q 30.328125 11.625 30.328125 20.078125 
Q 30.328125 28.46875 27.828125 32.671875 
z
M 20.453125 41.21875 
Q 28.328125 41.21875 32.46875 35.796875 
Q 36.625 30.375 36.625 20.078125 
Q 36.625 9.71875 32.46875 4.296875 
Q 28.328125 -1.109375 20.453125 -1.109375 
Q 12.546875 -1.109375 8.390625 4.296875 
Q 4.25 9.71875 4.25 20.078125 
Q 4.25 30.375 8.390625 35.796875 
Q 12.546875 41.21875 20.453125 41.21875 
z
" id="DejaVuSans-8320"/>
      </defs>
      <use xlink:href="#DejaVuSans-73"/>
      <use x="29.492188" xlink:href="#DejaVuSans-110"/>
      <use x="92.871094" xlink:href="#DejaVuSans-116"/>
      <use x="132.080078" xlink:href="#DejaVuSans-101"/>
      <use x="193.603516" xlink:href="#DejaVuSans-110"/>
      <use x="256.982422" xlink:href="#DejaVuSans-115"/>
      <use x="309.082031" xlink:href="#DejaVuSans-105"/>
      <use x="336.865234" xlink:href="#DejaVuSans-116"/>
      <use x="376.074219" xlink:href="#DejaVuSans-121"/>
      <use x="435.253906" xlink:href="#DejaVuSans-32"/>
      <use x="467.041016" xlink:href="#DejaVuSans-40"/>
      <use x="506.054688" xlink:href="#DejaVuSans-73"/>
      <use x="535.546875" xlink:href="#DejaVuSans-8320"/>
      <use x="575.634766" xlink:href="#DejaVuSans-41"/>
     </g>
    </g>
   </g>
   <g id="line2d_9">
    <path clip-path="url(#p26f6dc9b28)" d="M 36.131998 80.483537 
L 36.910866 80.346537 
L 37.430112 80.060903 
L 37.949358 79.57385 
L 38.468604 78.847801 
L 39.247472 77.238598 
L 40.026341 74.931418 
L 40.80521 71.885622 
L 41.843701 66.713244 
L 43.141816 58.803076 
L 46.257291 38.930477 
L 47.036159 35.280129 
L 47.815028 32.66599 
L 48.334274 31.585709 
L 48.853519 31.074666 
L 49.113142 31.037993 
L 49.372765 31.147944 
L 49.892011 31.803375 
L 50.411257 33.021637 
L 50.930503 34.76704 
L 51.709371 38.259308 
L 52.747863 44.18809 
L 56.901829 70.088424 
L 57.940321 74.475392 
L 58.719189 76.90427 
L 59.498058 78.624886 
L 60.276927 79.716602 
L 60.796172 80.149671 
L 61.575041 80.452274 
L 62.35391 80.4565 
L 63.652024 80.132659 
L 65.469384 79.679811 
L 66.767499 79.630861 
L 68.325236 79.857829 
L 71.440711 80.427534 
L 73.258071 80.474068 
L 79.489021 80.342372 
L 83.90261 80.480324 
L 87.796953 80.405564 
L 87.796953 80.405564 
" style="fill:none;stroke:#1f77b4;stroke-dasharray:0.75,1.2375;stroke-dashoffset:0;stroke-width:0.75;"/>
   </g>
   <g id="line2d_10">
    <path clip-path="url(#p26f6dc9b28)" d="M 36.131998 79.878135 
L 37.689735 79.637357 
L 38.98785 79.666979 
L 40.285964 79.945948 
L 42.362947 80.473844 
L 43.141816 80.418217 
L 43.661062 80.208348 
L 44.180307 79.814195 
L 44.699553 79.197127 
L 45.218799 78.321517 
L 45.997668 76.458511 
L 46.776536 73.876261 
L 47.555405 70.554377 
L 48.593897 65.053197 
L 49.892011 56.876114 
L 52.48824 40.158337 
L 53.526731 35.149108 
L 54.3056 32.582315 
L 54.824846 31.53685 
L 55.344092 31.062063 
L 55.603715 31.043725 
L 55.863337 31.171968 
L 56.382583 31.863318 
L 56.901829 33.115734 
L 57.680698 35.962051 
L 58.459566 39.800878 
L 59.757681 47.73176 
L 62.613533 66.168984 
L 63.652024 71.453101 
L 64.690516 75.472425 
L 65.469384 77.629136 
L 66.248253 79.102499 
L 67.027122 79.986094 
L 67.546368 80.306519 
L 68.325236 80.481807 
L 69.104105 80.407221 
L 72.998448 79.62085 
L 74.296563 79.763794 
L 78.710152 80.477091 
L 80.787135 80.418826 
L 84.421856 80.283245 
L 87.796953 80.439137 
L 87.796953 80.439137 
" style="fill:none;stroke:#1f77b4;stroke-dasharray:0.75,1.2375;stroke-dashoffset:0;stroke-width:0.75;"/>
   </g>
   <g id="line2d_11">
    <path clip-path="url(#p26f6dc9b28)" d="M 36.131998 79.878133 
L 36.910866 79.593832 
L 37.689735 78.998788 
L 38.468604 77.988125 
L 39.247472 76.459506 
L 40.026341 74.321916 
L 40.80521 71.50463 
L 41.584078 67.965605 
L 42.62257 62.119066 
L 43.920685 53.160903 
L 45.738045 38.500842 
L 48.074651 19.518719 
L 49.113142 12.471492 
L 50.151634 6.999329 
L 50.930503 4.172103 
L 51.449748 2.965116 
L 51.968994 2.328241 
L 52.228617 2.227762 
L 52.48824 2.273448 
L 52.747863 2.465084 
L 53.267109 3.281913 
L 53.786354 4.66291 
L 54.565223 7.733037 
L 55.344092 11.884569 
L 56.382583 18.803945 
L 57.940321 31.134163 
L 60.796172 54.368245 
L 62.094287 63.115181 
L 63.132778 68.763312 
L 64.17127 73.118325 
L 64.950139 75.56021 
L 65.729007 77.357661 
L 66.507876 78.593491 
L 67.286745 79.365965 
L 68.065613 79.779843 
L 68.844482 79.938008 
L 69.882974 79.911375 
L 73.258071 79.623412 
L 75.075431 79.804822 
L 78.969775 80.315697 
L 81.306381 80.338114 
L 86.498839 80.312747 
L 87.796953 80.361163 
L 87.796953 80.361163 
" style="fill:none;stroke:#1f77b4;stroke-linecap:square;stroke-width:1.5;"/>
   </g>
   <g id="patch_3">
    <path d="M 33.54875 82.956046 
L 33.54875 18.670875 
" style="fill:none;stroke:#000000;stroke-linecap:square;stroke-linejoin:miter;stroke-width:0.8;"/>
   </g>
   <g id="patch_4">
    <path d="M 90.380201 82.956046 
L 90.380201 18.670875 
" style="fill:none;stroke:#000000;stroke-linecap:square;stroke-linejoin:miter;stroke-width:0.8;"/>
   </g>
   <g id="patch_5">
    <path d="M 33.54875 82.956046 
L 90.380201 82.956046 
" style="fill:none;stroke:#000000;stroke-linecap:square;stroke-linejoin:miter;stroke-width:0.8;"/>
   </g>
   <g id="patch_6">
    <path d="M 33.54875 18.670875 
L 90.380201 18.670875 
" style="fill:none;stroke:#000000;stroke-linecap:square;stroke-linejoin:miter;stroke-width:0.8;"/>
   </g>
   <g id="text_11">
    <!-- Below limit -->
    <g transform="translate(42.069975 12.670875)scale(0.072 -0.072)">
     <defs>
      <path d="M 19.671875 34.8125 
L 19.671875 8.109375 
L 35.5 8.109375 
Q 43.453125 8.109375 47.28125 11.40625 
Q 51.125 14.703125 51.125 21.484375 
Q 51.125 28.328125 47.28125 31.5625 
Q 43.453125 34.8125 35.5 34.8125 
z
M 19.671875 64.796875 
L 19.671875 42.828125 
L 34.28125 42.828125 
Q 41.5 42.828125 45.03125 45.53125 
Q 48.578125 48.25 48.578125 53.8125 
Q 48.578125 59.328125 45.03125 62.0625 
Q 41.5 64.796875 34.28125 64.796875 
z
M 9.8125 72.90625 
L 35.015625 72.90625 
Q 46.296875 72.90625 52.390625 68.21875 
Q 58.5 63.53125 58.5 54.890625 
Q 58.5 48.1875 55.375 44.234375 
Q 52.25 40.28125 46.1875 39.3125 
Q 53.46875 37.75 57.5 32.78125 
Q 61.53125 27.828125 61.53125 20.40625 
Q 61.53125 10.640625 54.890625 5.3125 
Q 48.25 0 35.984375 0 
L 9.8125 0 
z
" id="DejaVuSans-66"/>
      <path d="M 9.421875 75.984375 
L 18.40625 75.984375 
L 18.40625 0 
L 9.421875 0 
z
" id="DejaVuSans-108"/>
      <path d="M 30.609375 48.390625 
Q 23.390625 48.390625 19.1875 42.75 
Q 14.984375 37.109375 14.984375 27.296875 
Q 14.984375 17.484375 19.15625 11.84375 
Q 23.34375 6.203125 30.609375 6.203125 
Q 37.796875 6.203125 41.984375 11.859375 
Q 46.1875 17.53125 46.1875 27.296875 
Q 46.1875 37.015625 41.984375 42.703125 
Q 37.796875 48.390625 30.609375 48.390625 
z
M 30.609375 56 
Q 42.328125 56 49.015625 48.375 
Q 55.71875 40.765625 55.71875 27.296875 
Q 55.71875 13.875 49.015625 6.21875 
Q 42.328125 -1.421875 30.609375 -1.421875 
Q 18.84375 -1.421875 12.171875 6.21875 
Q 5.515625 13.875 5.515625 27.296875 
Q 5.515625 40.765625 12.171875 48.375 
Q 18.84375 56 30.609375 56 
z
" id="DejaVuSans-111"/>
      <path d="M 4.203125 54.6875 
L 13.1875 54.6875 
L 24.421875 12.015625 
L 35.59375 54.6875 
L 46.1875 54.6875 
L 57.421875 12.015625 
L 68.609375 54.6875 
L 77.59375 54.6875 
L 63.28125 0 
L 52.6875 0 
L 40.921875 44.828125 
L 29.109375 0 
L 18.5 0 
z
" id="DejaVuSans-119"/>
      <path d="M 52 44.1875 
Q 55.375 50.25 60.0625 53.125 
Q 64.75 56 71.09375 56 
Q 79.640625 56 84.28125 50.015625 
Q 88.921875 44.046875 88.921875 33.015625 
L 88.921875 0 
L 79.890625 0 
L 79.890625 32.71875 
Q 79.890625 40.578125 77.09375 44.375 
Q 74.3125 48.1875 68.609375 48.1875 
Q 61.625 48.1875 57.5625 43.546875 
Q 53.515625 38.921875 53.515625 30.90625 
L 53.515625 0 
L 44.484375 0 
L 44.484375 32.71875 
Q 44.484375 40.625 41.703125 44.40625 
Q 38.921875 48.1875 33.109375 48.1875 
Q 26.21875 48.1875 22.15625 43.53125 
Q 18.109375 38.875 18.109375 30.90625 
L 18.109375 0 
L 9.078125 0 
L 9.078125 54.6875 
L 18.109375 54.6875 
L 18.109375 46.1875 
Q 21.1875 51.21875 25.484375 53.609375 
Q 29.78125 56 35.6875 56 
Q 41.65625 56 45.828125 52.96875 
Q 50 49.953125 52 44.1875 
z
" id="DejaVuSans-109"/>
     </defs>
     <use xlink:href="#DejaVuSans-66"/>
     <use x="68.603516" xlink:href="#DejaVuSans-101"/>
     <use x="130.126953" xlink:href="#DejaVuSans-108"/>
     <use x="157.910156" xlink:href="#DejaVuSans-111"/>
     <use x="219.091797" xlink:href="#DejaVuSans-119"/>
     <use x="300.878906" xlink:href="#DejaVuSans-32"/>
     <use x="332.666016" xlink:href="#DejaVuSans-108"/>
     <use x="360.449219" xlink:href="#DejaVuSans-105"/>
     <use x="388.232422" xlink:href="#DejaVuSans-109"/>
     <use x="485.644531" xlink:href="#DejaVuSans-105"/>
     <use x="513.427734" xlink:href="#DejaVuSans-116"/>
    </g>
   </g>
  </g>
  <g id="axes_2">
   <g id="patch_7">
    <path d="M 101.746491 82.956046 
L 158.577942 82.956046 
L 158.577942 18.670875 
L 101.746491 18.670875 
z
" style="fill:#ffffff;"/>
   </g>
   <g id="matplotlib.axis_3">
    <g id="xtick_6">
     <g id="line2d_12">
      <g>
       <use style="stroke:#000000;stroke-width:0.8;" x="104.329739" xlink:href="#m0389a6ffad" y="82.956046"/>
      </g>
     </g>
     <g id="text_12">
      <!-- −1 -->
      <g transform="translate(99.907083 94.515108)scale(0.06 -0.06)">
       <use xlink:href="#DejaVuSans-8722"/>
       <use x="83.789062" xlink:href="#DejaVuSans-49"/>
      </g>
     </g>
    </g>
    <g id="xtick_7">
     <g id="line2d_13">
      <g>
       <use style="stroke:#000000;stroke-width:0.8;" x="117.245978" xlink:href="#m0389a6ffad" y="82.956046"/>
      </g>
     </g>
     <g id="text_13">
      <!-- 0 -->
      <g transform="translate(115.337228 94.515108)scale(0.06 -0.06)">
       <use xlink:href="#DejaVuSans-48"/>
      </g>
     </g>
    </g>
    <g id="xtick_8">
     <g id="line2d_14">
      <g>
       <use style="stroke:#000000;stroke-width:0.8;" x="130.162216" xlink:href="#m0389a6ffad" y="82.956046"/>
      </g>
     </g>
     <g id="text_14">
      <!-- 1 -->
      <g transform="translate(128.253466 94.515108)scale(0.06 -0.06)">
       <use xlink:href="#DejaVuSans-49"/>
      </g>
     </g>
    </g>
    <g id="xtick_9">
     <g id="line2d_15">
      <g>
       <use style="stroke:#000000;stroke-width:0.8;" x="143.078455" xlink:href="#m0389a6ffad" y="82.956046"/>
      </g>
     </g>
     <g id="text_15">
      <!-- 2 -->
      <g transform="translate(141.169705 94.515108)scale(0.06 -0.06)">
       <use xlink:href="#DejaVuSans-50"/>
      </g>
     </g>
    </g>
    <g id="xtick_10">
     <g id="line2d_16">
      <g>
       <use style="stroke:#000000;stroke-width:0.8;" x="155.994694" xlink:href="#m0389a6ffad" y="82.956046"/>
      </g>
     </g>
     <g id="text_16">
      <!-- 3 -->
      <g transform="translate(154.085944 94.515108)scale(0.06 -0.06)">
       <use xlink:href="#DejaVuSans-51"/>
      </g>
     </g>
    </g>
    <g id="text_17">
     <!-- Distance (au) -->
     <g transform="translate(110.010654 104.321983)scale(0.06 -0.06)">
      <use xlink:href="#DejaVuSans-68"/>
      <use x="77.001953" xlink:href="#DejaVuSans-105"/>
      <use x="104.785156" xlink:href="#DejaVuSans-115"/>
      <use x="156.884766" xlink:href="#DejaVuSans-116"/>
      <use x="196.09375" xlink:href="#DejaVuSans-97"/>
      <use x="257.373047" xlink:href="#DejaVuSans-110"/>
      <use x="320.751953" xlink:href="#DejaVuSans-99"/>
      <use x="375.732422" xlink:href="#DejaVuSans-101"/>
      <use x="437.255859" xlink:href="#DejaVuSans-32"/>
      <use x="469.042969" xlink:href="#DejaVuSans-40"/>
      <use x="508.056641" xlink:href="#DejaVuSans-97"/>
      <use x="569.335938" xlink:href="#DejaVuSans-117"/>
      <use x="632.714844" xlink:href="#DejaVuSans-41"/>
     </g>
    </g>
   </g>
   <g id="matplotlib.axis_4">
    <g id="ytick_4">
     <g id="line2d_17">
      <g>
       <use style="stroke:#000000;stroke-width:0.8;" x="101.746491" xlink:href="#m0187bde5c8" y="80.483539"/>
      </g>
     </g>
    </g>
    <g id="ytick_5">
     <g id="line2d_18">
      <g>
       <use style="stroke:#000000;stroke-width:0.8;" x="101.746491" xlink:href="#m0187bde5c8" y="55.758473"/>
      </g>
     </g>
    </g>
    <g id="ytick_6">
     <g id="line2d_19">
      <g>
       <use style="stroke:#000000;stroke-width:0.8;" x="101.746491" xlink:href="#m0187bde5c8" y="31.033408"/>
      </g>
     </g>
    </g>
   </g>
   <g id="line2d_20">
    <path clip-path="url(#p7413d76665)" d="M 104.329739 80.483537 
L 105.108607 80.346537 
L 105.627853 80.060903 
L 106.147099 79.57385 
L 106.666345 78.847801 
L 107.445214 77.238598 
L 108.224082 74.931418 
L 109.002951 71.885622 
L 110.041442 66.713244 
L 111.339557 58.803076 
L 114.455032 38.930477 
L 115.2339 35.280129 
L 116.012769 32.66599 
L 116.532015 31.585709 
L 117.05126 31.074666 
L 117.310883 31.037993 
L 117.570506 31.147944 
L 118.089752 31.803375 
L 118.608998 33.021637 
L 119.128244 34.76704 
L 119.907112 38.259308 
L 120.945604 44.18809 
L 125.09957 70.088424 
L 126.138062 74.475392 
L 126.91693 76.90427 
L 127.695799 78.624886 
L 128.474668 79.716602 
L 128.993913 80.149671 
L 129.772782 80.452274 
L 130.551651 80.4565 
L 131.849765 80.132659 
L 133.667126 79.679811 
L 134.96524 79.630861 
L 136.522977 79.857829 
L 139.638452 80.427534 
L 141.455812 80.474068 
L 147.686762 80.342372 
L 152.100351 80.480324 
L 155.994694 80.405564 
L 155.994694 80.405564 
" style="fill:none;stroke:#1f77b4;stroke-dasharray:0.75,1.2375;stroke-dashoffset:0;stroke-width:0.75;"/>
   </g>
   <g id="line2d_21">
    <path clip-path="url(#p7413d76665)" d="M 104.329739 80.462789 
L 106.147099 80.234662 
L 109.78182 79.619168 
L 111.079934 79.729066 
L 112.637671 80.146126 
L 113.935786 80.46194 
L 114.714654 80.444438 
L 115.2339 80.271115 
L 115.753146 79.922538 
L 116.272392 79.359686 
L 116.791638 78.546056 
L 117.570506 76.787486 
L 118.349375 74.317493 
L 119.128244 71.107273 
L 120.166735 65.73728 
L 121.46485 57.663018 
L 124.320701 39.388568 
L 125.09957 35.636822 
L 125.878439 32.898399 
L 126.397685 31.726271 
L 126.91693 31.119241 
L 127.176553 31.033901 
L 127.436176 31.095214 
L 127.695799 31.302726 
L 128.215045 32.149133 
L 128.734291 33.548211 
L 129.513159 36.589749 
L 130.292028 40.583783 
L 131.590142 48.664012 
L 134.186371 65.493372 
L 135.224863 70.910822 
L 136.263354 75.080034 
L 137.042223 77.346562 
L 137.821092 78.918859 
L 138.59996 79.884982 
L 139.119206 80.249675 
L 139.898075 80.474417 
L 140.676944 80.429755 
L 142.234681 79.999914 
L 143.792418 79.657986 
L 145.090533 79.643316 
L 146.64827 79.894253 
L 149.504122 80.419218 
L 151.321482 80.476635 
L 155.994694 80.281221 
L 155.994694 80.281221 
" style="fill:none;stroke:#1f77b4;stroke-dasharray:0.75,1.2375;stroke-dashoffset:0;stroke-width:0.75;"/>
   </g>
   <g id="line2d_22">
    <path clip-path="url(#p7413d76665)" d="M 104.329739 80.462787 
L 104.848985 80.36598 
L 105.36823 80.105552 
L 105.887476 79.64317 
L 106.406722 78.943287 
L 107.185591 77.382747 
L 107.964459 75.146941 
L 108.743328 72.208732 
L 109.78182 67.253301 
L 111.079934 59.727159 
L 114.714654 37.572668 
L 115.753146 32.849302 
L 116.532015 30.088513 
L 117.310883 28.004238 
L 118.089752 26.542616 
L 118.868621 25.606767 
L 119.647489 25.073684 
L 120.426358 24.814068 
L 121.724473 24.68909 
L 123.541833 24.739448 
L 124.580324 24.979626 
L 125.359193 25.424144 
L 126.138062 26.235325 
L 126.91693 27.539971 
L 127.695799 29.444072 
L 128.474668 32.014848 
L 129.513159 36.49729 
L 130.551651 42.057751 
L 132.369011 53.392959 
L 134.445994 66.089671 
L 135.484486 71.271745 
L 136.522977 75.290722 
L 137.301846 77.487513 
L 138.080715 79.012022 
L 138.859583 79.939865 
L 139.378829 80.279758 
L 140.157698 80.464709 
L 140.936566 80.376523 
L 142.494304 79.861665 
L 143.792418 79.510166 
L 144.83091 79.431736 
L 146.129024 79.588606 
L 150.542613 80.469755 
L 152.359974 80.419853 
L 155.994694 80.203246 
L 155.994694 80.203246 
" style="fill:none;stroke:#1f77b4;stroke-linecap:square;stroke-width:1.5;"/>
   </g>
   <g id="patch_8">
    <path d="M 101.746491 82.956046 
L 101.746491 18.670875 
" style="fill:none;stroke:#000000;stroke-linecap:square;stroke-linejoin:miter;stroke-width:0.8;"/>
   </g>
   <g id="patch_9">
    <path d="M 158.577942 82.956046 
L 158.577942 18.670875 
" style="fill:none;stroke:#000000;stroke-linecap:square;stroke-linejoin:miter;stroke-width:0.8;"/>
   </g>
   <g id="patch_10">
    <path d="M 101.746491 82.956046 
L 158.577942 82.956046 
" style="fill:none;stroke:#000000;stroke-linecap:square;stroke-linejoin:miter;stroke-width:0.8;"/>
   </g>
   <g id="patch_11">
    <path d="M 101.746491 18.670875 
L 158.577942 18.670875 
" style="fill:none;stroke:#000000;stroke-linecap:square;stroke-linejoin:miter;stroke-width:0.8;"/>
   </g>
   <g id="text_18">
    <!-- Sparrow criterion -->
    <g transform="translate(99.228091 12.670875)scale(0.072 -0.072)">
     <defs>
      <path d="M 53.515625 70.515625 
L 53.515625 60.890625 
Q 47.90625 63.578125 42.921875 64.890625 
Q 37.9375 66.21875 33.296875 66.21875 
Q 25.25 66.21875 20.875 63.09375 
Q 16.5 59.96875 16.5 54.203125 
Q 16.5 49.359375 19.40625 46.890625 
Q 22.3125 44.4375 30.421875 42.921875 
L 36.375 41.703125 
Q 47.40625 39.59375 52.65625 34.296875 
Q 57.90625 29 57.90625 20.125 
Q 57.90625 9.515625 50.796875 4.046875 
Q 43.703125 -1.421875 29.984375 -1.421875 
Q 24.8125 -1.421875 18.96875 -0.25 
Q 13.140625 0.921875 6.890625 3.21875 
L 6.890625 13.375 
Q 12.890625 10.015625 18.65625 8.296875 
Q 24.421875 6.59375 29.984375 6.59375 
Q 38.421875 6.59375 43.015625 9.90625 
Q 47.609375 13.234375 47.609375 19.390625 
Q 47.609375 24.75 44.3125 27.78125 
Q 41.015625 30.8125 33.5 32.328125 
L 27.484375 33.5 
Q 16.453125 35.6875 11.515625 40.375 
Q 6.59375 45.0625 6.59375 53.421875 
Q 6.59375 63.09375 13.40625 68.65625 
Q 20.21875 74.21875 32.171875 74.21875 
Q 37.3125 74.21875 42.625 73.28125 
Q 47.953125 72.359375 53.515625 70.515625 
z
" id="DejaVuSans-83"/>
      <path d="M 18.109375 8.203125 
L 18.109375 -20.796875 
L 9.078125 -20.796875 
L 9.078125 54.6875 
L 18.109375 54.6875 
L 18.109375 46.390625 
Q 20.953125 51.265625 25.265625 53.625 
Q 29.59375 56 35.59375 56 
Q 45.5625 56 51.78125 48.09375 
Q 58.015625 40.1875 58.015625 27.296875 
Q 58.015625 14.40625 51.78125 6.484375 
Q 45.5625 -1.421875 35.59375 -1.421875 
Q 29.59375 -1.421875 25.265625 0.953125 
Q 20.953125 3.328125 18.109375 8.203125 
z
M 48.6875 27.296875 
Q 48.6875 37.203125 44.609375 42.84375 
Q 40.53125 48.484375 33.40625 48.484375 
Q 26.265625 48.484375 22.1875 42.84375 
Q 18.109375 37.203125 18.109375 27.296875 
Q 18.109375 17.390625 22.1875 11.75 
Q 26.265625 6.109375 33.40625 6.109375 
Q 40.53125 6.109375 44.609375 11.75 
Q 48.6875 17.390625 48.6875 27.296875 
z
" id="DejaVuSans-112"/>
      <path d="M 41.109375 46.296875 
Q 39.59375 47.171875 37.8125 47.578125 
Q 36.03125 48 33.890625 48 
Q 26.265625 48 22.1875 43.046875 
Q 18.109375 38.09375 18.109375 28.8125 
L 18.109375 0 
L 9.078125 0 
L 9.078125 54.6875 
L 18.109375 54.6875 
L 18.109375 46.1875 
Q 20.953125 51.171875 25.484375 53.578125 
Q 30.03125 56 36.53125 56 
Q 37.453125 56 38.578125 55.875 
Q 39.703125 55.765625 41.0625 55.515625 
z
" id="DejaVuSans-114"/>
     </defs>
     <use xlink:href="#DejaVuSans-83"/>
     <use x="63.476562" xlink:href="#DejaVuSans-112"/>
     <use x="126.953125" xlink:href="#DejaVuSans-97"/>
     <use x="188.232422" xlink:href="#DejaVuSans-114"/>
     <use x="227.595703" xlink:href="#DejaVuSans-114"/>
     <use x="266.458984" xlink:href="#DejaVuSans-111"/>
     <use x="327.640625" xlink:href="#DejaVuSans-119"/>
     <use x="409.427734" xlink:href="#DejaVuSans-32"/>
     <use x="441.214844" xlink:href="#DejaVuSans-99"/>
     <use x="496.195312" xlink:href="#DejaVuSans-114"/>
     <use x="537.308594" xlink:href="#DejaVuSans-105"/>
     <use x="565.091797" xlink:href="#DejaVuSans-116"/>
     <use x="604.300781" xlink:href="#DejaVuSans-101"/>
     <use x="665.824219" xlink:href="#DejaVuSans-114"/>
     <use x="706.9375" xlink:href="#DejaVuSans-105"/>
     <use x="734.720703" xlink:href="#DejaVuSans-111"/>
     <use x="795.902344" xlink:href="#DejaVuSans-110"/>
    </g>
   </g>
  </g>
  <g id="axes_3">
   <g id="patch_12">
    <path d="M 169.944232 82.956046 
L 226.775683 82.956046 
L 226.775683 18.670875 
L 169.944232 18.670875 
z
" style="fill:#ffffff;"/>
   </g>
   <g id="matplotlib.axis_5">
    <g id="xtick_11">
     <g id="line2d_23">
      <g>
       <use style="stroke:#000000;stroke-width:0.8;" x="172.52748" xlink:href="#m0389a6ffad" y="82.956046"/>
      </g>
     </g>
     <g id="text_19">
      <!-- −1 -->
      <g transform="translate(168.104824 94.515108)scale(0.06 -0.06)">
       <use xlink:href="#DejaVuSans-8722"/>
       <use x="83.789062" xlink:href="#DejaVuSans-49"/>
      </g>
     </g>
    </g>
    <g id="xtick_12">
     <g id="line2d_24">
      <g>
       <use style="stroke:#000000;stroke-width:0.8;" x="185.443719" xlink:href="#m0389a6ffad" y="82.956046"/>
      </g>
     </g>
     <g id="text_20">
      <!-- 0 -->
      <g transform="translate(183.534969 94.515108)scale(0.06 -0.06)">
       <use xlink:href="#DejaVuSans-48"/>
      </g>
     </g>
    </g>
    <g id="xtick_13">
     <g id="line2d_25">
      <g>
       <use style="stroke:#000000;stroke-width:0.8;" x="198.359958" xlink:href="#m0389a6ffad" y="82.956046"/>
      </g>
     </g>
     <g id="text_21">
      <!-- 1 -->
      <g transform="translate(196.451208 94.515108)scale(0.06 -0.06)">
       <use xlink:href="#DejaVuSans-49"/>
      </g>
     </g>
    </g>
    <g id="xtick_14">
     <g id="line2d_26">
      <g>
       <use style="stroke:#000000;stroke-width:0.8;" x="211.276196" xlink:href="#m0389a6ffad" y="82.956046"/>
      </g>
     </g>
     <g id="text_22">
      <!-- 2 -->
      <g transform="translate(209.367446 94.515108)scale(0.06 -0.06)">
       <use xlink:href="#DejaVuSans-50"/>
      </g>
     </g>
    </g>
    <g id="xtick_15">
     <g id="line2d_27">
      <g>
       <use style="stroke:#000000;stroke-width:0.8;" x="224.192435" xlink:href="#m0389a6ffad" y="82.956046"/>
      </g>
     </g>
     <g id="text_23">
      <!-- 3 -->
      <g transform="translate(222.283685 94.515108)scale(0.06 -0.06)">
       <use xlink:href="#DejaVuSans-51"/>
      </g>
     </g>
    </g>
    <g id="text_24">
     <!-- Distance (au) -->
     <g transform="translate(178.208395 104.321983)scale(0.06 -0.06)">
      <use xlink:href="#DejaVuSans-68"/>
      <use x="77.001953" xlink:href="#DejaVuSans-105"/>
      <use x="104.785156" xlink:href="#DejaVuSans-115"/>
      <use x="156.884766" xlink:href="#DejaVuSans-116"/>
      <use x="196.09375" xlink:href="#DejaVuSans-97"/>
      <use x="257.373047" xlink:href="#DejaVuSans-110"/>
      <use x="320.751953" xlink:href="#DejaVuSans-99"/>
      <use x="375.732422" xlink:href="#DejaVuSans-101"/>
      <use x="437.255859" xlink:href="#DejaVuSans-32"/>
      <use x="469.042969" xlink:href="#DejaVuSans-40"/>
      <use x="508.056641" xlink:href="#DejaVuSans-97"/>
      <use x="569.335938" xlink:href="#DejaVuSans-117"/>
      <use x="632.714844" xlink:href="#DejaVuSans-41"/>
     </g>
    </g>
   </g>
   <g id="matplotlib.axis_6">
    <g id="ytick_7">
     <g id="line2d_28">
      <g>
       <use style="stroke:#000000;stroke-width:0.8;" x="169.944232" xlink:href="#m0187bde5c8" y="80.483539"/>
      </g>
     </g>
    </g>
    <g id="ytick_8">
     <g id="line2d_29">
      <g>
       <use style="stroke:#000000;stroke-width:0.8;" x="169.944232" xlink:href="#m0187bde5c8" y="55.758473"/>
      </g>
     </g>
    </g>
    <g id="ytick_9">
     <g id="line2d_30">
      <g>
       <use style="stroke:#000000;stroke-width:0.8;" x="169.944232" xlink:href="#m0187bde5c8" y="31.033408"/>
      </g>
     </g>
    </g>
   </g>
   <g id="line2d_31">
    <path clip-path="url(#pb813990ea1)" d="M 172.52748 80.483537 
L 173.306349 80.346537 
L 173.825594 80.060903 
L 174.34484 79.57385 
L 174.864086 78.847801 
L 175.642955 77.238598 
L 176.421823 74.931418 
L 177.200692 71.885622 
L 178.239183 66.713244 
L 179.537298 58.803076 
L 182.652773 38.930477 
L 183.431641 35.280129 
L 184.21051 32.66599 
L 184.729756 31.585709 
L 185.249002 31.074666 
L 185.508624 31.037993 
L 185.768247 31.147944 
L 186.287493 31.803375 
L 186.806739 33.021637 
L 187.325985 34.76704 
L 188.104853 38.259308 
L 189.143345 44.18809 
L 193.297311 70.088424 
L 194.335803 74.475392 
L 195.114671 76.90427 
L 195.89354 78.624886 
L 196.672409 79.716602 
L 197.191655 80.149671 
L 197.970523 80.452274 
L 198.749392 80.4565 
L 200.047506 80.132659 
L 201.864867 79.679811 
L 203.162981 79.630861 
L 204.720718 79.857829 
L 207.836193 80.427534 
L 209.653553 80.474068 
L 215.884503 80.342372 
L 220.298092 80.480324 
L 224.192435 80.405564 
L 224.192435 80.405564 
" style="fill:none;stroke:#1f77b4;stroke-dasharray:0.75,1.2375;stroke-dashoffset:0;stroke-width:0.75;"/>
   </g>
   <g id="line2d_32">
    <path clip-path="url(#pb813990ea1)" d="M 172.52748 80.381729 
L 175.383332 80.468346 
L 177.200692 80.254826 
L 181.095035 79.618402 
L 182.39315 79.758635 
L 184.21051 80.269259 
L 185.249002 80.476324 
L 186.02787 80.40975 
L 186.547116 80.189522 
L 187.066362 79.782548 
L 187.585608 79.150323 
L 188.104853 78.257476 
L 188.883722 76.365606 
L 189.662591 73.752555 
L 190.441459 70.400277 
L 191.479951 64.863825 
L 193.037688 54.920577 
L 195.114671 41.448436 
L 196.153163 36.103692 
L 196.932032 33.211885 
L 197.451277 31.925458 
L 197.970523 31.198269 
L 198.230146 31.051748 
L 198.489769 31.051748 
L 198.749392 31.198269 
L 199.268638 31.925458 
L 199.787883 33.211885 
L 200.566752 36.103692 
L 201.345621 39.978963 
L 202.643735 47.945604 
L 205.499587 66.351438 
L 206.538079 71.598531 
L 207.316947 74.70599 
L 208.095816 77.073889 
L 208.874685 78.738507 
L 209.653553 79.782548 
L 210.172799 80.189522 
L 210.951668 80.462212 
L 211.730536 80.447418 
L 213.028651 80.112587 
L 214.586388 79.709853 
L 215.884503 79.621827 
L 217.182617 79.769583 
L 221.336583 80.468346 
L 223.153944 80.448272 
L 224.192435 80.381729 
L 224.192435 80.381729 
" style="fill:none;stroke:#1f77b4;stroke-dasharray:0.75,1.2375;stroke-dashoffset:0;stroke-width:0.75;"/>
   </g>
   <g id="line2d_33">
    <path clip-path="url(#pb813990ea1)" d="M 172.52748 80.381727 
L 173.306349 80.296194 
L 173.825594 80.038726 
L 174.34484 79.569641 
L 174.864086 78.847105 
L 175.383332 77.833914 
L 176.1622 75.705983 
L 176.941069 72.799862 
L 177.979561 67.731994 
L 179.277675 59.816623 
L 182.39315 39.614077 
L 183.172018 35.863894 
L 183.950887 33.119182 
L 184.470133 31.91259 
L 184.989379 31.221569 
L 185.508624 31.037257 
L 186.02787 31.329912 
L 186.547116 32.049996 
L 187.325985 33.780401 
L 188.364476 36.844209 
L 189.922214 41.470634 
L 190.701082 43.124024 
L 191.220328 43.818911 
L 191.739574 44.138419 
L 192.25882 44.064243 
L 192.778065 43.600629 
L 193.297311 42.774161 
L 194.07618 40.963331 
L 195.374294 37.048858 
L 196.672409 33.286709 
L 197.451277 31.733788 
L 197.970523 31.167004 
L 198.489769 31.048434 
L 198.749392 31.171231 
L 199.268638 31.797995 
L 199.787883 32.940377 
L 200.307129 34.5889 
L 201.085998 37.94091 
L 202.124489 43.75968 
L 203.94185 55.892057 
L 205.499587 65.89472 
L 206.538079 71.35784 
L 207.316947 74.590998 
L 208.095816 77.03935 
L 208.874685 78.737046 
L 209.653553 79.773077 
L 210.172799 80.157736 
L 210.692045 80.347142 
L 211.470914 80.361396 
L 212.509405 80.094119 
L 214.326765 79.55774 
L 215.365257 79.458503 
L 216.663371 79.589384 
L 221.336583 80.446417 
L 223.413567 80.363778 
L 224.192435 80.303755 
L 224.192435 80.303755 
" style="fill:none;stroke:#1f77b4;stroke-linecap:square;stroke-width:1.5;"/>
   </g>
   <g id="patch_13">
    <path d="M 169.944232 82.956046 
L 169.944232 18.670875 
" style="fill:none;stroke:#000000;stroke-linecap:square;stroke-linejoin:miter;stroke-width:0.8;"/>
   </g>
   <g id="patch_14">
    <path d="M 226.775683 82.956046 
L 226.775683 18.670875 
" style="fill:none;stroke:#000000;stroke-linecap:square;stroke-linejoin:miter;stroke-width:0.8;"/>
   </g>
   <g id="patch_15">
    <path d="M 169.944232 82.956046 
L 226.775683 82.956046 
" style="fill:none;stroke:#000000;stroke-linecap:square;stroke-linejoin:miter;stroke-width:0.8;"/>
   </g>
   <g id="patch_16">
    <path d="M 169.944232 18.670875 
L 226.775683 18.670875 
" style="fill:none;stroke:#000000;stroke-linecap:square;stroke-linejoin:miter;stroke-width:0.8;"/>
   </g>
   <g id="text_25">
    <!-- Raileygh criterion -->
    <g transform="translate(166.625958 12.670875)scale(0.072 -0.072)">
     <defs>
      <path d="M 44.390625 34.1875 
Q 47.5625 33.109375 50.5625 29.59375 
Q 53.5625 26.078125 56.59375 19.921875 
L 66.609375 0 
L 56 0 
L 46.6875 18.703125 
Q 43.0625 26.03125 39.671875 28.421875 
Q 36.28125 30.8125 30.421875 30.8125 
L 19.671875 30.8125 
L 19.671875 0 
L 9.8125 0 
L 9.8125 72.90625 
L 32.078125 72.90625 
Q 44.578125 72.90625 50.734375 67.671875 
Q 56.890625 62.453125 56.890625 51.90625 
Q 56.890625 45.015625 53.6875 40.46875 
Q 50.484375 35.9375 44.390625 34.1875 
z
M 19.671875 64.796875 
L 19.671875 38.921875 
L 32.078125 38.921875 
Q 39.203125 38.921875 42.84375 42.21875 
Q 46.484375 45.515625 46.484375 51.90625 
Q 46.484375 58.296875 42.84375 61.546875 
Q 39.203125 64.796875 32.078125 64.796875 
z
" id="DejaVuSans-82"/>
      <path d="M 45.40625 27.984375 
Q 45.40625 37.75 41.375 43.109375 
Q 37.359375 48.484375 30.078125 48.484375 
Q 22.859375 48.484375 18.828125 43.109375 
Q 14.796875 37.75 14.796875 27.984375 
Q 14.796875 18.265625 18.828125 12.890625 
Q 22.859375 7.515625 30.078125 7.515625 
Q 37.359375 7.515625 41.375 12.890625 
Q 45.40625 18.265625 45.40625 27.984375 
z
M 54.390625 6.78125 
Q 54.390625 -7.171875 48.1875 -13.984375 
Q 42 -20.796875 29.203125 -20.796875 
Q 24.46875 -20.796875 20.265625 -20.09375 
Q 16.0625 -19.390625 12.109375 -17.921875 
L 12.109375 -9.1875 
Q 16.0625 -11.328125 19.921875 -12.34375 
Q 23.78125 -13.375 27.78125 -13.375 
Q 36.625 -13.375 41.015625 -8.765625 
Q 45.40625 -4.15625 45.40625 5.171875 
L 45.40625 9.625 
Q 42.625 4.78125 38.28125 2.390625 
Q 33.9375 0 27.875 0 
Q 17.828125 0 11.671875 7.65625 
Q 5.515625 15.328125 5.515625 27.984375 
Q 5.515625 40.671875 11.671875 48.328125 
Q 17.828125 56 27.875 56 
Q 33.9375 56 38.28125 53.609375 
Q 42.625 51.21875 45.40625 46.390625 
L 45.40625 54.6875 
L 54.390625 54.6875 
z
" id="DejaVuSans-103"/>
      <path d="M 54.890625 33.015625 
L 54.890625 0 
L 45.90625 0 
L 45.90625 32.71875 
Q 45.90625 40.484375 42.875 44.328125 
Q 39.84375 48.1875 33.796875 48.1875 
Q 26.515625 48.1875 22.3125 43.546875 
Q 18.109375 38.921875 18.109375 30.90625 
L 18.109375 0 
L 9.078125 0 
L 9.078125 75.984375 
L 18.109375 75.984375 
L 18.109375 46.1875 
Q 21.34375 51.125 25.703125 53.5625 
Q 30.078125 56 35.796875 56 
Q 45.21875 56 50.046875 50.171875 
Q 54.890625 44.34375 54.890625 33.015625 
z
" id="DejaVuSans-104"/>
     </defs>
     <use xlink:href="#DejaVuSans-82"/>
     <use x="67.232422" xlink:href="#DejaVuSans-97"/>
     <use x="128.511719" xlink:href="#DejaVuSans-105"/>
     <use x="156.294922" xlink:href="#DejaVuSans-108"/>
     <use x="184.078125" xlink:href="#DejaVuSans-101"/>
     <use x="245.601562" xlink:href="#DejaVuSans-121"/>
     <use x="304.78125" xlink:href="#DejaVuSans-103"/>
     <use x="368.257812" xlink:href="#DejaVuSans-104"/>
     <use x="431.636719" xlink:href="#DejaVuSans-32"/>
     <use x="463.423828" xlink:href="#DejaVuSans-99"/>
     <use x="518.404297" xlink:href="#DejaVuSans-114"/>
     <use x="559.517578" xlink:href="#DejaVuSans-105"/>
     <use x="587.300781" xlink:href="#DejaVuSans-116"/>
     <use x="626.509766" xlink:href="#DejaVuSans-101"/>
     <use x="688.033203" xlink:href="#DejaVuSans-114"/>
     <use x="729.146484" xlink:href="#DejaVuSans-105"/>
     <use x="756.929688" xlink:href="#DejaVuSans-111"/>
     <use x="818.111328" xlink:href="#DejaVuSans-110"/>
    </g>
   </g>
  </g>
  <g id="axes_4">
   <g id="patch_17">
    <path d="M 238.141973 82.956046 
L 294.973424 82.956046 
L 294.973424 18.670875 
L 238.141973 18.670875 
z
" style="fill:#ffffff;"/>
   </g>
   <g id="matplotlib.axis_7">
    <g id="xtick_16">
     <g id="line2d_34">
      <g>
       <use style="stroke:#000000;stroke-width:0.8;" x="240.725221" xlink:href="#m0389a6ffad" y="82.956046"/>
      </g>
     </g>
     <g id="text_26">
      <!-- −1 -->
      <g transform="translate(236.302565 94.515108)scale(0.06 -0.06)">
       <use xlink:href="#DejaVuSans-8722"/>
       <use x="83.789062" xlink:href="#DejaVuSans-49"/>
      </g>
     </g>
    </g>
    <g id="xtick_17">
     <g id="line2d_35">
      <g>
       <use style="stroke:#000000;stroke-width:0.8;" x="253.64146" xlink:href="#m0389a6ffad" y="82.956046"/>
      </g>
     </g>
     <g id="text_27">
      <!-- 0 -->
      <g transform="translate(251.73271 94.515108)scale(0.06 -0.06)">
       <use xlink:href="#DejaVuSans-48"/>
      </g>
     </g>
    </g>
    <g id="xtick_18">
     <g id="line2d_36">
      <g>
       <use style="stroke:#000000;stroke-width:0.8;" x="266.557699" xlink:href="#m0389a6ffad" y="82.956046"/>
      </g>
     </g>
     <g id="text_28">
      <!-- 1 -->
      <g transform="translate(264.648949 94.515108)scale(0.06 -0.06)">
       <use xlink:href="#DejaVuSans-49"/>
      </g>
     </g>
    </g>
    <g id="xtick_19">
     <g id="line2d_37">
      <g>
       <use style="stroke:#000000;stroke-width:0.8;" x="279.473937" xlink:href="#m0389a6ffad" y="82.956046"/>
      </g>
     </g>
     <g id="text_29">
      <!-- 2 -->
      <g transform="translate(277.565187 94.515108)scale(0.06 -0.06)">
       <use xlink:href="#DejaVuSans-50"/>
      </g>
     </g>
    </g>
    <g id="xtick_20">
     <g id="line2d_38">
      <g>
       <use style="stroke:#000000;stroke-width:0.8;" x="292.390176" xlink:href="#m0389a6ffad" y="82.956046"/>
      </g>
     </g>
     <g id="text_30">
      <!-- 3 -->
      <g transform="translate(290.481426 94.515108)scale(0.06 -0.06)">
       <use xlink:href="#DejaVuSans-51"/>
      </g>
     </g>
    </g>
    <g id="text_31">
     <!-- Distance (au) -->
     <g transform="translate(246.406136 104.321983)scale(0.06 -0.06)">
      <use xlink:href="#DejaVuSans-68"/>
      <use x="77.001953" xlink:href="#DejaVuSans-105"/>
      <use x="104.785156" xlink:href="#DejaVuSans-115"/>
      <use x="156.884766" xlink:href="#DejaVuSans-116"/>
      <use x="196.09375" xlink:href="#DejaVuSans-97"/>
      <use x="257.373047" xlink:href="#DejaVuSans-110"/>
      <use x="320.751953" xlink:href="#DejaVuSans-99"/>
      <use x="375.732422" xlink:href="#DejaVuSans-101"/>
      <use x="437.255859" xlink:href="#DejaVuSans-32"/>
      <use x="469.042969" xlink:href="#DejaVuSans-40"/>
      <use x="508.056641" xlink:href="#DejaVuSans-97"/>
      <use x="569.335938" xlink:href="#DejaVuSans-117"/>
      <use x="632.714844" xlink:href="#DejaVuSans-41"/>
     </g>
    </g>
   </g>
   <g id="matplotlib.axis_8">
    <g id="ytick_10">
     <g id="line2d_39">
      <g>
       <use style="stroke:#000000;stroke-width:0.8;" x="238.141973" xlink:href="#m0187bde5c8" y="80.483539"/>
      </g>
     </g>
    </g>
    <g id="ytick_11">
     <g id="line2d_40">
      <g>
       <use style="stroke:#000000;stroke-width:0.8;" x="238.141973" xlink:href="#m0187bde5c8" y="55.758473"/>
      </g>
     </g>
    </g>
    <g id="ytick_12">
     <g id="line2d_41">
      <g>
       <use style="stroke:#000000;stroke-width:0.8;" x="238.141973" xlink:href="#m0187bde5c8" y="31.033408"/>
      </g>
     </g>
    </g>
   </g>
   <g id="line2d_42">
    <path clip-path="url(#p1d3e1e55dd)" d="M 240.725221 80.483537 
L 241.50409 80.346537 
L 242.023335 80.060903 
L 242.542581 79.57385 
L 243.061827 78.847801 
L 243.840696 77.238598 
L 244.619564 74.931418 
L 245.398433 71.885622 
L 246.436925 66.713244 
L 247.735039 58.803076 
L 250.850514 38.930477 
L 251.629382 35.280129 
L 252.408251 32.66599 
L 252.927497 31.585709 
L 253.446743 31.074666 
L 253.706365 31.037993 
L 253.965988 31.147944 
L 254.485234 31.803375 
L 255.00448 33.021637 
L 255.523726 34.76704 
L 256.302594 38.259308 
L 257.341086 44.18809 
L 261.495052 70.088424 
L 262.533544 74.475392 
L 263.312412 76.90427 
L 264.091281 78.624886 
L 264.87015 79.716602 
L 265.389396 80.149671 
L 266.168264 80.452274 
L 266.947133 80.4565 
L 268.245247 80.132659 
L 270.062608 79.679811 
L 271.360722 79.630861 
L 272.918459 79.857829 
L 276.033934 80.427534 
L 277.851294 80.474068 
L 284.082244 80.342372 
L 288.495833 80.480324 
L 292.390176 80.405564 
L 292.390176 80.405564 
" style="fill:none;stroke:#1f77b4;stroke-dasharray:0.75,1.2375;stroke-dashoffset:0;stroke-width:0.75;"/>
   </g>
   <g id="line2d_43">
    <path clip-path="url(#p1d3e1e55dd)" d="M 240.725221 80.439137 
L 245.917679 80.306937 
L 250.590891 80.430511 
L 252.408251 80.146184 
L 255.264103 79.632883 
L 256.562217 79.675369 
L 257.860332 79.964783 
L 259.937315 80.478454 
L 260.716184 80.400707 
L 261.235429 80.169966 
L 261.754675 79.75002 
L 262.273921 79.102499 
L 262.793167 78.192297 
L 263.572035 76.271441 
L 264.350904 73.627556 
L 265.129773 70.244957 
L 266.168264 64.673509 
L 267.726002 54.702113 
L 269.802985 41.26058 
L 270.841476 35.962051 
L 271.620345 33.115734 
L 272.139591 31.863318 
L 272.658837 31.171968 
L 272.918459 31.043725 
L 273.178082 31.062063 
L 273.437705 31.226844 
L 273.956951 31.989787 
L 274.476197 33.310079 
L 275.255065 36.247049 
L 276.033934 40.158337 
L 277.332049 48.159912 
L 280.1879 66.532862 
L 281.226392 71.742706 
L 282.005261 74.81935 
L 282.784129 77.156855 
L 283.562998 78.793692 
L 284.341867 79.814195 
L 284.861112 80.208348 
L 285.639981 80.466429 
L 286.41885 80.442451 
L 287.716964 80.102548 
L 289.274702 79.704447 
L 290.572816 79.622957 
L 291.87093 79.775451 
L 292.390176 79.878135 
L 292.390176 79.878135 
" style="fill:none;stroke:#1f77b4;stroke-dasharray:0.75,1.2375;stroke-dashoffset:0;stroke-width:0.75;"/>
   </g>
   <g id="line2d_44">
    <path clip-path="url(#p1d3e1e55dd)" d="M 240.725221 80.439135 
L 241.50409 80.263926 
L 242.023335 79.949818 
L 242.542581 79.434398 
L 243.061827 78.68248 
L 243.840696 77.044299 
L 244.619564 74.725821 
L 245.398433 71.690254 
L 246.436925 66.563523 
L 247.735039 58.738363 
L 250.850514 38.851278 
L 251.629382 35.09134 
L 252.408251 32.328634 
L 252.927497 31.136156 
L 253.446743 30.510877 
L 253.706365 30.419009 
L 253.965988 30.476581 
L 254.225611 30.683957 
L 254.744857 31.54413 
L 255.264103 32.980623 
L 256.042971 36.132372 
L 256.82184 40.305753 
L 258.119955 48.796753 
L 260.456561 64.45622 
L 261.235429 68.479636 
L 262.014298 71.418082 
L 262.533544 72.674094 
L 263.05279 73.321611 
L 263.312412 73.410426 
L 263.572035 73.341337 
L 263.831658 73.114859 
L 264.350904 72.197663 
L 264.87015 70.686164 
L 265.649018 67.407528 
L 266.68751 61.507117 
L 268.245247 50.846432 
L 269.802985 40.498176 
L 270.841476 35.097655 
L 271.620345 32.283169 
L 272.139591 31.095373 
L 272.658837 30.494315 
L 272.918459 30.418015 
L 273.178082 30.49126 
L 273.697328 31.080132 
L 274.216574 32.238156 
L 274.73582 33.927064 
L 275.514688 37.33872 
L 276.55318 43.169269 
L 278.630163 56.829694 
L 280.1879 66.385041 
L 281.226392 71.548243 
L 282.264883 75.475408 
L 283.043752 77.589553 
L 283.822621 79.042661 
L 284.601489 79.923881 
L 285.380358 80.347526 
L 286.159227 80.438832 
L 287.197718 80.254085 
L 289.793947 79.611882 
L 291.092062 79.601037 
L 292.390176 79.80016 
L 292.390176 79.80016 
" style="fill:none;stroke:#1f77b4;stroke-linecap:square;stroke-width:1.5;"/>
   </g>
   <g id="patch_18">
    <path d="M 238.141973 82.956046 
L 238.141973 18.670875 
" style="fill:none;stroke:#000000;stroke-linecap:square;stroke-linejoin:miter;stroke-width:0.8;"/>
   </g>
   <g id="patch_19">
    <path d="M 294.973424 82.956046 
L 294.973424 18.670875 
" style="fill:none;stroke:#000000;stroke-linecap:square;stroke-linejoin:miter;stroke-width:0.8;"/>
   </g>
   <g id="patch_20">
    <path d="M 238.141973 82.956046 
L 294.973424 82.956046 
" style="fill:none;stroke:#000000;stroke-linecap:square;stroke-linejoin:miter;stroke-width:0.8;"/>
   </g>
   <g id="patch_21">
    <path d="M 238.141973 18.670875 
L 294.973424 18.670875 
" style="fill:none;stroke:#000000;stroke-linecap:square;stroke-linejoin:miter;stroke-width:0.8;"/>
   </g>
   <g id="text_32">
    <!-- Above limit -->
    <g transform="translate(246.198574 12.670875)scale(0.072 -0.072)">
     <defs>
      <path d="M 34.1875 63.1875 
L 20.796875 26.90625 
L 47.609375 26.90625 
z
M 28.609375 72.90625 
L 39.796875 72.90625 
L 67.578125 0 
L 57.328125 0 
L 50.6875 18.703125 
L 17.828125 18.703125 
L 11.1875 0 
L 0.78125 0 
z
" id="DejaVuSans-65"/>
      <path d="M 48.6875 27.296875 
Q 48.6875 37.203125 44.609375 42.84375 
Q 40.53125 48.484375 33.40625 48.484375 
Q 26.265625 48.484375 22.1875 42.84375 
Q 18.109375 37.203125 18.109375 27.296875 
Q 18.109375 17.390625 22.1875 11.75 
Q 26.265625 6.109375 33.40625 6.109375 
Q 40.53125 6.109375 44.609375 11.75 
Q 48.6875 17.390625 48.6875 27.296875 
z
M 18.109375 46.390625 
Q 20.953125 51.265625 25.265625 53.625 
Q 29.59375 56 35.59375 56 
Q 45.5625 56 51.78125 48.09375 
Q 58.015625 40.1875 58.015625 27.296875 
Q 58.015625 14.40625 51.78125 6.484375 
Q 45.5625 -1.421875 35.59375 -1.421875 
Q 29.59375 -1.421875 25.265625 0.953125 
Q 20.953125 3.328125 18.109375 8.203125 
L 18.109375 0 
L 9.078125 0 
L 9.078125 75.984375 
L 18.109375 75.984375 
z
" id="DejaVuSans-98"/>
      <path d="M 2.984375 54.6875 
L 12.5 54.6875 
L 29.59375 8.796875 
L 46.6875 54.6875 
L 56.203125 54.6875 
L 35.6875 0 
L 23.484375 0 
z
" id="DejaVuSans-118"/>
     </defs>
     <use xlink:href="#DejaVuSans-65"/>
     <use x="68.408203" xlink:href="#DejaVuSans-98"/>
     <use x="131.884766" xlink:href="#DejaVuSans-111"/>
     <use x="193.066406" xlink:href="#DejaVuSans-118"/>
     <use x="252.246094" xlink:href="#DejaVuSans-101"/>
     <use x="313.769531" xlink:href="#DejaVuSans-32"/>
     <use x="345.556641" xlink:href="#DejaVuSans-108"/>
     <use x="373.339844" xlink:href="#DejaVuSans-105"/>
     <use x="401.123047" xlink:href="#DejaVuSans-109"/>
     <use x="498.535156" xlink:href="#DejaVuSans-105"/>
     <use x="526.318359" xlink:href="#DejaVuSans-116"/>
    </g>
   </g>
  </g>
 </g>
 <defs>
  <clipPath id="p26f6dc9b28">
   <rect height="64.285171" width="56.831451" x="33.54875" y="18.670875"/>
  </clipPath>
  <clipPath id="p7413d76665">
   <rect height="64.285171" width="56.831451" x="101.746491" y="18.670875"/>
  </clipPath>
  <clipPath id="pb813990ea1">
   <rect height="64.285171" width="56.831451" x="169.944232" y="18.670875"/>
  </clipPath>
  <clipPath id="p1d3e1e55dd">
   <rect height="64.285171" width="56.831451" x="238.141973" y="18.670875"/>
  </clipPath>
 </defs>
</svg>
