<?xml version="1.0" encoding="utf-8" standalone="no"?>
<!DOCTYPE svg PUBLIC "-//W3C//DTD SVG 1.1//EN"
  "http://www.w3.org/Graphics/SVG/1.1/DTD/svg11.dtd">
<!-- Created with matplotlib (https://matplotlib.org/) -->
<svg height="145.886399pt" version="1.1" viewBox="0 0 296.773963 145.886399" width="296.773963pt" xmlns="http://www.w3.org/2000/svg" xmlns:xlink="http://www.w3.org/1999/xlink">
 <metadata>
  <rdf:RDF xmlns:cc="http://creativecommons.org/ns#" xmlns:dc="http://purl.org/dc/elements/1.1/" xmlns:rdf="http://www.w3.org/1999/02/22-rdf-syntax-ns#">
   <cc:Work>
    <dc:type rdf:resource="http://purl.org/dc/dcmitype/StillImage"/>
    <dc:date>2021-05-03T11:15:19.708835</dc:date>
    <dc:format>image/svg+xml</dc:format>
    <dc:creator>
     <cc:Agent>
      <dc:title>Matplotlib v3.3.4, https://matplotlib.org/</dc:title>
     </cc:Agent>
    </dc:creator>
   </cc:Work>
  </rdf:RDF>
 </metadata>
 <defs>
  <style type="text/css">*{stroke-linecap:butt;stroke-linejoin:round;}</style>
 </defs>
 <g id="figure_1">
  <g id="patch_1">
   <path d="M 0 145.886399 
L 296.773963 145.886399 
L 296.773963 -0 
L 0 -0 
z
" style="fill:#ffffff;"/>
  </g>
  <g id="axes_1">
   <g id="patch_2">
    <path d="M 27.824375 116.072649 
L 146.653772 116.072649 
L 146.653772 18.670875 
L 27.824375 18.670875 
z
" style="fill:#ffffff;"/>
   </g>
   <g id="matplotlib.axis_1">
    <g id="xtick_1">
     <g id="line2d_1">
      <defs>
       <path d="M 0 0 
L 0 3.5 
" id="m8db1563462" style="stroke:#000000;stroke-width:0.8;"/>
      </defs>
      <g>
       <use style="stroke:#000000;stroke-width:0.8;" x="33.225711" xlink:href="#m8db1563462" y="116.072649"/>
      </g>
     </g>
     <g id="text_1">
      <!-- 0 -->
      <g transform="translate(31.316961 127.631711)scale(0.06 -0.06)">
       <defs>
        <path d="M 31.78125 66.40625 
Q 24.171875 66.40625 20.328125 58.90625 
Q 16.5 51.421875 16.5 36.375 
Q 16.5 21.390625 20.328125 13.890625 
Q 24.171875 6.390625 31.78125 6.390625 
Q 39.453125 6.390625 43.28125 13.890625 
Q 47.125 21.390625 47.125 36.375 
Q 47.125 51.421875 43.28125 58.90625 
Q 39.453125 66.40625 31.78125 66.40625 
z
M 31.78125 74.21875 
Q 44.046875 74.21875 50.515625 64.515625 
Q 56.984375 54.828125 56.984375 36.375 
Q 56.984375 17.96875 50.515625 8.265625 
Q 44.046875 -1.421875 31.78125 -1.421875 
Q 19.53125 -1.421875 13.0625 8.265625 
Q 6.59375 17.96875 6.59375 36.375 
Q 6.59375 54.828125 13.0625 64.515625 
Q 19.53125 74.21875 31.78125 74.21875 
z
" id="DejaVuSans-48"/>
       </defs>
       <use xlink:href="#DejaVuSans-48"/>
      </g>
     </g>
    </g>
    <g id="xtick_2">
     <g id="line2d_2">
      <g>
       <use style="stroke:#000000;stroke-width:0.8;" x="54.831056" xlink:href="#m8db1563462" y="116.072649"/>
      </g>
     </g>
     <g id="text_2">
      <!-- 1 -->
      <g transform="translate(52.922306 127.631711)scale(0.06 -0.06)">
       <defs>
        <path d="M 12.40625 8.296875 
L 28.515625 8.296875 
L 28.515625 63.921875 
L 10.984375 60.40625 
L 10.984375 69.390625 
L 28.421875 72.90625 
L 38.28125 72.90625 
L 38.28125 8.296875 
L 54.390625 8.296875 
L 54.390625 0 
L 12.40625 0 
z
" id="DejaVuSans-49"/>
       </defs>
       <use xlink:href="#DejaVuSans-49"/>
      </g>
     </g>
    </g>
    <g id="xtick_3">
     <g id="line2d_3">
      <g>
       <use style="stroke:#000000;stroke-width:0.8;" x="76.436401" xlink:href="#m8db1563462" y="116.072649"/>
      </g>
     </g>
     <g id="text_3">
      <!-- 2 -->
      <g transform="translate(74.527651 127.631711)scale(0.06 -0.06)">
       <defs>
        <path d="M 19.1875 8.296875 
L 53.609375 8.296875 
L 53.609375 0 
L 7.328125 0 
L 7.328125 8.296875 
Q 12.9375 14.109375 22.625 23.890625 
Q 32.328125 33.6875 34.8125 36.53125 
Q 39.546875 41.84375 41.421875 45.53125 
Q 43.3125 49.21875 43.3125 52.78125 
Q 43.3125 58.59375 39.234375 62.25 
Q 35.15625 65.921875 28.609375 65.921875 
Q 23.96875 65.921875 18.8125 64.3125 
Q 13.671875 62.703125 7.8125 59.421875 
L 7.8125 69.390625 
Q 13.765625 71.78125 18.9375 73 
Q 24.125 74.21875 28.421875 74.21875 
Q 39.75 74.21875 46.484375 68.546875 
Q 53.21875 62.890625 53.21875 53.421875 
Q 53.21875 48.921875 51.53125 44.890625 
Q 49.859375 40.875 45.40625 35.40625 
Q 44.1875 33.984375 37.640625 27.21875 
Q 31.109375 20.453125 19.1875 8.296875 
z
" id="DejaVuSans-50"/>
       </defs>
       <use xlink:href="#DejaVuSans-50"/>
      </g>
     </g>
    </g>
    <g id="xtick_4">
     <g id="line2d_4">
      <g>
       <use style="stroke:#000000;stroke-width:0.8;" x="98.041746" xlink:href="#m8db1563462" y="116.072649"/>
      </g>
     </g>
     <g id="text_4">
      <!-- 3 -->
      <g transform="translate(96.132996 127.631711)scale(0.06 -0.06)">
       <defs>
        <path d="M 40.578125 39.3125 
Q 47.65625 37.796875 51.625 33 
Q 55.609375 28.21875 55.609375 21.1875 
Q 55.609375 10.40625 48.1875 4.484375 
Q 40.765625 -1.421875 27.09375 -1.421875 
Q 22.515625 -1.421875 17.65625 -0.515625 
Q 12.796875 0.390625 7.625 2.203125 
L 7.625 11.71875 
Q 11.71875 9.328125 16.59375 8.109375 
Q 21.484375 6.890625 26.8125 6.890625 
Q 36.078125 6.890625 40.9375 10.546875 
Q 45.796875 14.203125 45.796875 21.1875 
Q 45.796875 27.640625 41.28125 31.265625 
Q 36.765625 34.90625 28.71875 34.90625 
L 20.21875 34.90625 
L 20.21875 43.015625 
L 29.109375 43.015625 
Q 36.375 43.015625 40.234375 45.921875 
Q 44.09375 48.828125 44.09375 54.296875 
Q 44.09375 59.90625 40.109375 62.90625 
Q 36.140625 65.921875 28.71875 65.921875 
Q 24.65625 65.921875 20.015625 65.03125 
Q 15.375 64.15625 9.8125 62.3125 
L 9.8125 71.09375 
Q 15.4375 72.65625 20.34375 73.4375 
Q 25.25 74.21875 29.59375 74.21875 
Q 40.828125 74.21875 47.359375 69.109375 
Q 53.90625 64.015625 53.90625 55.328125 
Q 53.90625 49.265625 50.4375 45.09375 
Q 46.96875 40.921875 40.578125 39.3125 
z
" id="DejaVuSans-51"/>
       </defs>
       <use xlink:href="#DejaVuSans-51"/>
      </g>
     </g>
    </g>
    <g id="xtick_5">
     <g id="line2d_5">
      <g>
       <use style="stroke:#000000;stroke-width:0.8;" x="119.647091" xlink:href="#m8db1563462" y="116.072649"/>
      </g>
     </g>
     <g id="text_5">
      <!-- 4 -->
      <g transform="translate(117.738341 127.631711)scale(0.06 -0.06)">
       <defs>
        <path d="M 37.796875 64.3125 
L 12.890625 25.390625 
L 37.796875 25.390625 
z
M 35.203125 72.90625 
L 47.609375 72.90625 
L 47.609375 25.390625 
L 58.015625 25.390625 
L 58.015625 17.1875 
L 47.609375 17.1875 
L 47.609375 0 
L 37.796875 0 
L 37.796875 17.1875 
L 4.890625 17.1875 
L 4.890625 26.703125 
z
" id="DejaVuSans-52"/>
       </defs>
       <use xlink:href="#DejaVuSans-52"/>
      </g>
     </g>
    </g>
    <g id="xtick_6">
     <g id="line2d_6">
      <g>
       <use style="stroke:#000000;stroke-width:0.8;" x="141.252436" xlink:href="#m8db1563462" y="116.072649"/>
      </g>
     </g>
     <g id="text_6">
      <!-- 5 -->
      <g transform="translate(139.343686 127.631711)scale(0.06 -0.06)">
       <defs>
        <path d="M 10.796875 72.90625 
L 49.515625 72.90625 
L 49.515625 64.59375 
L 19.828125 64.59375 
L 19.828125 46.734375 
Q 21.96875 47.46875 24.109375 47.828125 
Q 26.265625 48.1875 28.421875 48.1875 
Q 40.625 48.1875 47.75 41.5 
Q 54.890625 34.8125 54.890625 23.390625 
Q 54.890625 11.625 47.5625 5.09375 
Q 40.234375 -1.421875 26.90625 -1.421875 
Q 22.3125 -1.421875 17.546875 -0.640625 
Q 12.796875 0.140625 7.71875 1.703125 
L 7.71875 11.625 
Q 12.109375 9.234375 16.796875 8.0625 
Q 21.484375 6.890625 26.703125 6.890625 
Q 35.15625 6.890625 40.078125 11.328125 
Q 45.015625 15.765625 45.015625 23.390625 
Q 45.015625 31 40.078125 35.4375 
Q 35.15625 39.890625 26.703125 39.890625 
Q 22.75 39.890625 18.8125 39.015625 
Q 14.890625 38.140625 10.796875 36.28125 
z
" id="DejaVuSans-53"/>
       </defs>
       <use xlink:href="#DejaVuSans-53"/>
      </g>
     </g>
    </g>
    <g id="text_7">
     <!-- Power setting (%) -->
     <g transform="translate(60.672199 137.438586)scale(0.06 -0.06)">
      <defs>
       <path d="M 19.671875 64.796875 
L 19.671875 37.40625 
L 32.078125 37.40625 
Q 38.96875 37.40625 42.71875 40.96875 
Q 46.484375 44.53125 46.484375 51.125 
Q 46.484375 57.671875 42.71875 61.234375 
Q 38.96875 64.796875 32.078125 64.796875 
z
M 9.8125 72.90625 
L 32.078125 72.90625 
Q 44.34375 72.90625 50.609375 67.359375 
Q 56.890625 61.8125 56.890625 51.125 
Q 56.890625 40.328125 50.609375 34.8125 
Q 44.34375 29.296875 32.078125 29.296875 
L 19.671875 29.296875 
L 19.671875 0 
L 9.8125 0 
z
" id="DejaVuSans-80"/>
       <path d="M 30.609375 48.390625 
Q 23.390625 48.390625 19.1875 42.75 
Q 14.984375 37.109375 14.984375 27.296875 
Q 14.984375 17.484375 19.15625 11.84375 
Q 23.34375 6.203125 30.609375 6.203125 
Q 37.796875 6.203125 41.984375 11.859375 
Q 46.1875 17.53125 46.1875 27.296875 
Q 46.1875 37.015625 41.984375 42.703125 
Q 37.796875 48.390625 30.609375 48.390625 
z
M 30.609375 56 
Q 42.328125 56 49.015625 48.375 
Q 55.71875 40.765625 55.71875 27.296875 
Q 55.71875 13.875 49.015625 6.21875 
Q 42.328125 -1.421875 30.609375 -1.421875 
Q 18.84375 -1.421875 12.171875 6.21875 
Q 5.515625 13.875 5.515625 27.296875 
Q 5.515625 40.765625 12.171875 48.375 
Q 18.84375 56 30.609375 56 
z
" id="DejaVuSans-111"/>
       <path d="M 4.203125 54.6875 
L 13.1875 54.6875 
L 24.421875 12.015625 
L 35.59375 54.6875 
L 46.1875 54.6875 
L 57.421875 12.015625 
L 68.609375 54.6875 
L 77.59375 54.6875 
L 63.28125 0 
L 52.6875 0 
L 40.921875 44.828125 
L 29.109375 0 
L 18.5 0 
z
" id="DejaVuSans-119"/>
       <path d="M 56.203125 29.59375 
L 56.203125 25.203125 
L 14.890625 25.203125 
Q 15.484375 15.921875 20.484375 11.0625 
Q 25.484375 6.203125 34.421875 6.203125 
Q 39.59375 6.203125 44.453125 7.46875 
Q 49.3125 8.734375 54.109375 11.28125 
L 54.109375 2.78125 
Q 49.265625 0.734375 44.1875 -0.34375 
Q 39.109375 -1.421875 33.890625 -1.421875 
Q 20.796875 -1.421875 13.15625 6.1875 
Q 5.515625 13.8125 5.515625 26.8125 
Q 5.515625 40.234375 12.765625 48.109375 
Q 20.015625 56 32.328125 56 
Q 43.359375 56 49.78125 48.890625 
Q 56.203125 41.796875 56.203125 29.59375 
z
M 47.21875 32.234375 
Q 47.125 39.59375 43.09375 43.984375 
Q 39.0625 48.390625 32.421875 48.390625 
Q 24.90625 48.390625 20.390625 44.140625 
Q 15.875 39.890625 15.1875 32.171875 
z
" id="DejaVuSans-101"/>
       <path d="M 41.109375 46.296875 
Q 39.59375 47.171875 37.8125 47.578125 
Q 36.03125 48 33.890625 48 
Q 26.265625 48 22.1875 43.046875 
Q 18.109375 38.09375 18.109375 28.8125 
L 18.109375 0 
L 9.078125 0 
L 9.078125 54.6875 
L 18.109375 54.6875 
L 18.109375 46.1875 
Q 20.953125 51.171875 25.484375 53.578125 
Q 30.03125 56 36.53125 56 
Q 37.453125 56 38.578125 55.875 
Q 39.703125 55.765625 41.0625 55.515625 
z
" id="DejaVuSans-114"/>
       <path id="DejaVuSans-32"/>
       <path d="M 44.28125 53.078125 
L 44.28125 44.578125 
Q 40.484375 46.53125 36.375 47.5 
Q 32.28125 48.484375 27.875 48.484375 
Q 21.1875 48.484375 17.84375 46.4375 
Q 14.5 44.390625 14.5 40.28125 
Q 14.5 37.15625 16.890625 35.375 
Q 19.28125 33.59375 26.515625 31.984375 
L 29.59375 31.296875 
Q 39.15625 29.25 43.1875 25.515625 
Q 47.21875 21.78125 47.21875 15.09375 
Q 47.21875 7.46875 41.1875 3.015625 
Q 35.15625 -1.421875 24.609375 -1.421875 
Q 20.21875 -1.421875 15.453125 -0.5625 
Q 10.6875 0.296875 5.421875 2 
L 5.421875 11.28125 
Q 10.40625 8.6875 15.234375 7.390625 
Q 20.0625 6.109375 24.8125 6.109375 
Q 31.15625 6.109375 34.5625 8.28125 
Q 37.984375 10.453125 37.984375 14.40625 
Q 37.984375 18.0625 35.515625 20.015625 
Q 33.0625 21.96875 24.703125 23.78125 
L 21.578125 24.515625 
Q 13.234375 26.265625 9.515625 29.90625 
Q 5.8125 33.546875 5.8125 39.890625 
Q 5.8125 47.609375 11.28125 51.796875 
Q 16.75 56 26.8125 56 
Q 31.78125 56 36.171875 55.265625 
Q 40.578125 54.546875 44.28125 53.078125 
z
" id="DejaVuSans-115"/>
       <path d="M 18.3125 70.21875 
L 18.3125 54.6875 
L 36.8125 54.6875 
L 36.8125 47.703125 
L 18.3125 47.703125 
L 18.3125 18.015625 
Q 18.3125 11.328125 20.140625 9.421875 
Q 21.96875 7.515625 27.59375 7.515625 
L 36.8125 7.515625 
L 36.8125 0 
L 27.59375 0 
Q 17.1875 0 13.234375 3.875 
Q 9.28125 7.765625 9.28125 18.015625 
L 9.28125 47.703125 
L 2.6875 47.703125 
L 2.6875 54.6875 
L 9.28125 54.6875 
L 9.28125 70.21875 
z
" id="DejaVuSans-116"/>
       <path d="M 9.421875 54.6875 
L 18.40625 54.6875 
L 18.40625 0 
L 9.421875 0 
z
M 9.421875 75.984375 
L 18.40625 75.984375 
L 18.40625 64.59375 
L 9.421875 64.59375 
z
" id="DejaVuSans-105"/>
       <path d="M 54.890625 33.015625 
L 54.890625 0 
L 45.90625 0 
L 45.90625 32.71875 
Q 45.90625 40.484375 42.875 44.328125 
Q 39.84375 48.1875 33.796875 48.1875 
Q 26.515625 48.1875 22.3125 43.546875 
Q 18.109375 38.921875 18.109375 30.90625 
L 18.109375 0 
L 9.078125 0 
L 9.078125 54.6875 
L 18.109375 54.6875 
L 18.109375 46.1875 
Q 21.34375 51.125 25.703125 53.5625 
Q 30.078125 56 35.796875 56 
Q 45.21875 56 50.046875 50.171875 
Q 54.890625 44.34375 54.890625 33.015625 
z
" id="DejaVuSans-110"/>
       <path d="M 45.40625 27.984375 
Q 45.40625 37.75 41.375 43.109375 
Q 37.359375 48.484375 30.078125 48.484375 
Q 22.859375 48.484375 18.828125 43.109375 
Q 14.796875 37.75 14.796875 27.984375 
Q 14.796875 18.265625 18.828125 12.890625 
Q 22.859375 7.515625 30.078125 7.515625 
Q 37.359375 7.515625 41.375 12.890625 
Q 45.40625 18.265625 45.40625 27.984375 
z
M 54.390625 6.78125 
Q 54.390625 -7.171875 48.1875 -13.984375 
Q 42 -20.796875 29.203125 -20.796875 
Q 24.46875 -20.796875 20.265625 -20.09375 
Q 16.0625 -19.390625 12.109375 -17.921875 
L 12.109375 -9.1875 
Q 16.0625 -11.328125 19.921875 -12.34375 
Q 23.78125 -13.375 27.78125 -13.375 
Q 36.625 -13.375 41.015625 -8.765625 
Q 45.40625 -4.15625 45.40625 5.171875 
L 45.40625 9.625 
Q 42.625 4.78125 38.28125 2.390625 
Q 33.9375 0 27.875 0 
Q 17.828125 0 11.671875 7.65625 
Q 5.515625 15.328125 5.515625 27.984375 
Q 5.515625 40.671875 11.671875 48.328125 
Q 17.828125 56 27.875 56 
Q 33.9375 56 38.28125 53.609375 
Q 42.625 51.21875 45.40625 46.390625 
L 45.40625 54.6875 
L 54.390625 54.6875 
z
" id="DejaVuSans-103"/>
       <path d="M 31 75.875 
Q 24.46875 64.65625 21.28125 53.65625 
Q 18.109375 42.671875 18.109375 31.390625 
Q 18.109375 20.125 21.3125 9.0625 
Q 24.515625 -2 31 -13.1875 
L 23.1875 -13.1875 
Q 15.875 -1.703125 12.234375 9.375 
Q 8.59375 20.453125 8.59375 31.390625 
Q 8.59375 42.28125 12.203125 53.3125 
Q 15.828125 64.359375 23.1875 75.875 
z
" id="DejaVuSans-40"/>
       <path d="M 72.703125 32.078125 
Q 68.453125 32.078125 66.03125 28.46875 
Q 63.625 24.859375 63.625 18.40625 
Q 63.625 12.0625 66.03125 8.421875 
Q 68.453125 4.78125 72.703125 4.78125 
Q 76.859375 4.78125 79.265625 8.421875 
Q 81.6875 12.0625 81.6875 18.40625 
Q 81.6875 24.8125 79.265625 28.4375 
Q 76.859375 32.078125 72.703125 32.078125 
z
M 72.703125 38.28125 
Q 80.421875 38.28125 84.953125 32.90625 
Q 89.5 27.546875 89.5 18.40625 
Q 89.5 9.28125 84.9375 3.921875 
Q 80.375 -1.421875 72.703125 -1.421875 
Q 64.890625 -1.421875 60.34375 3.921875 
Q 55.8125 9.28125 55.8125 18.40625 
Q 55.8125 27.59375 60.375 32.9375 
Q 64.9375 38.28125 72.703125 38.28125 
z
M 22.3125 68.015625 
Q 18.109375 68.015625 15.6875 64.375 
Q 13.28125 60.75 13.28125 54.390625 
Q 13.28125 47.953125 15.671875 44.328125 
Q 18.0625 40.71875 22.3125 40.71875 
Q 26.5625 40.71875 28.96875 44.328125 
Q 31.390625 47.953125 31.390625 54.390625 
Q 31.390625 60.6875 28.953125 64.34375 
Q 26.515625 68.015625 22.3125 68.015625 
z
M 66.40625 74.21875 
L 74.21875 74.21875 
L 28.609375 -1.421875 
L 20.796875 -1.421875 
z
M 22.3125 74.21875 
Q 30.03125 74.21875 34.609375 68.875 
Q 39.203125 63.53125 39.203125 54.390625 
Q 39.203125 45.171875 34.640625 39.84375 
Q 30.078125 34.515625 22.3125 34.515625 
Q 14.546875 34.515625 10.03125 39.859375 
Q 5.515625 45.21875 5.515625 54.390625 
Q 5.515625 63.484375 10.046875 68.84375 
Q 14.59375 74.21875 22.3125 74.21875 
z
" id="DejaVuSans-37"/>
       <path d="M 8.015625 75.875 
L 15.828125 75.875 
Q 23.140625 64.359375 26.78125 53.3125 
Q 30.421875 42.28125 30.421875 31.390625 
Q 30.421875 20.453125 26.78125 9.375 
Q 23.140625 -1.703125 15.828125 -13.1875 
L 8.015625 -13.1875 
Q 14.5 -2 17.703125 9.0625 
Q 20.90625 20.125 20.90625 31.390625 
Q 20.90625 42.671875 17.703125 53.65625 
Q 14.5 64.65625 8.015625 75.875 
z
" id="DejaVuSans-41"/>
      </defs>
      <use xlink:href="#DejaVuSans-80"/>
      <use x="56.677734" xlink:href="#DejaVuSans-111"/>
      <use x="117.859375" xlink:href="#DejaVuSans-119"/>
      <use x="199.646484" xlink:href="#DejaVuSans-101"/>
      <use x="261.169922" xlink:href="#DejaVuSans-114"/>
      <use x="302.283203" xlink:href="#DejaVuSans-32"/>
      <use x="334.070312" xlink:href="#DejaVuSans-115"/>
      <use x="386.169922" xlink:href="#DejaVuSans-101"/>
      <use x="447.693359" xlink:href="#DejaVuSans-116"/>
      <use x="486.902344" xlink:href="#DejaVuSans-116"/>
      <use x="526.111328" xlink:href="#DejaVuSans-105"/>
      <use x="553.894531" xlink:href="#DejaVuSans-110"/>
      <use x="617.273438" xlink:href="#DejaVuSans-103"/>
      <use x="680.75" xlink:href="#DejaVuSans-32"/>
      <use x="712.537109" xlink:href="#DejaVuSans-40"/>
      <use x="751.550781" xlink:href="#DejaVuSans-37"/>
      <use x="846.570312" xlink:href="#DejaVuSans-41"/>
     </g>
    </g>
   </g>
   <g id="matplotlib.axis_2">
    <g id="ytick_1">
     <g id="line2d_7">
      <defs>
       <path d="M 0 0 
L -3.5 0 
" id="mb52b723b3e" style="stroke:#000000;stroke-width:0.8;"/>
      </defs>
      <g>
       <use style="stroke:#000000;stroke-width:0.8;" x="27.824375" xlink:href="#mb52b723b3e" y="111.645295"/>
      </g>
     </g>
     <g id="text_8">
      <!-- 0 -->
      <g transform="translate(17.006875 113.924827)scale(0.06 -0.06)">
       <use xlink:href="#DejaVuSans-48"/>
      </g>
     </g>
    </g>
    <g id="ytick_2">
     <g id="line2d_8">
      <g>
       <use style="stroke:#000000;stroke-width:0.8;" x="27.824375" xlink:href="#mb52b723b3e" y="92.141536"/>
      </g>
     </g>
     <g id="text_9">
      <!-- 1 -->
      <g transform="translate(17.006875 94.421067)scale(0.06 -0.06)">
       <use xlink:href="#DejaVuSans-49"/>
      </g>
     </g>
    </g>
    <g id="ytick_3">
     <g id="line2d_9">
      <g>
       <use style="stroke:#000000;stroke-width:0.8;" x="27.824375" xlink:href="#mb52b723b3e" y="72.637777"/>
      </g>
     </g>
     <g id="text_10">
      <!-- 2 -->
      <g transform="translate(17.006875 74.917308)scale(0.06 -0.06)">
       <use xlink:href="#DejaVuSans-50"/>
      </g>
     </g>
    </g>
    <g id="ytick_4">
     <g id="line2d_10">
      <g>
       <use style="stroke:#000000;stroke-width:0.8;" x="27.824375" xlink:href="#mb52b723b3e" y="53.134018"/>
      </g>
     </g>
     <g id="text_11">
      <!-- 3 -->
      <g transform="translate(17.006875 55.413549)scale(0.06 -0.06)">
       <use xlink:href="#DejaVuSans-51"/>
      </g>
     </g>
    </g>
    <g id="ytick_5">
     <g id="line2d_11">
      <g>
       <use style="stroke:#000000;stroke-width:0.8;" x="27.824375" xlink:href="#mb52b723b3e" y="33.630258"/>
      </g>
     </g>
     <g id="text_12">
      <!-- 4 -->
      <g transform="translate(17.006875 35.90979)scale(0.06 -0.06)">
       <use xlink:href="#DejaVuSans-52"/>
      </g>
     </g>
    </g>
    <g id="text_13">
     <!-- Power (μW) -->
     <g transform="translate(11.759063 84.609574)rotate(-90)scale(0.06 -0.06)">
      <defs>
       <path d="M 8.5 -20.796875 
L 8.5 54.6875 
L 17.484375 54.6875 
L 17.484375 20.703125 
Q 17.484375 13.625 20.84375 10 
Q 24.21875 6.390625 30.8125 6.390625 
Q 38.03125 6.390625 41.671875 10.484375 
Q 45.3125 14.59375 45.3125 22.796875 
L 45.3125 54.6875 
L 54.296875 54.6875 
L 54.296875 12.59375 
Q 54.296875 9.671875 55.140625 8.28125 
Q 56 6.890625 57.8125 6.890625 
Q 58.25 6.890625 59.03125 7.15625 
Q 59.8125 7.421875 61.1875 8.015625 
L 61.1875 0.78125 
Q 59.1875 -0.34375 57.390625 -0.875 
Q 55.609375 -1.421875 53.90625 -1.421875 
Q 50.53125 -1.421875 48.53125 0.484375 
Q 46.53125 2.390625 45.796875 6.296875 
Q 43.359375 2.4375 39.8125 0.5 
Q 36.28125 -1.421875 31.5 -1.421875 
Q 26.515625 -1.421875 23.015625 0.484375 
Q 19.53125 2.390625 17.484375 6.203125 
L 17.484375 -20.796875 
z
" id="DejaVuSans-956"/>
       <path d="M 3.328125 72.90625 
L 13.28125 72.90625 
L 28.609375 11.28125 
L 43.890625 72.90625 
L 54.984375 72.90625 
L 70.3125 11.28125 
L 85.59375 72.90625 
L 95.609375 72.90625 
L 77.296875 0 
L 64.890625 0 
L 49.515625 63.28125 
L 33.984375 0 
L 21.578125 0 
z
" id="DejaVuSans-87"/>
      </defs>
      <use xlink:href="#DejaVuSans-80"/>
      <use x="56.677734" xlink:href="#DejaVuSans-111"/>
      <use x="117.859375" xlink:href="#DejaVuSans-119"/>
      <use x="199.646484" xlink:href="#DejaVuSans-101"/>
      <use x="261.169922" xlink:href="#DejaVuSans-114"/>
      <use x="302.283203" xlink:href="#DejaVuSans-32"/>
      <use x="334.070312" xlink:href="#DejaVuSans-40"/>
      <use x="373.083984" xlink:href="#DejaVuSans-956"/>
      <use x="436.707031" xlink:href="#DejaVuSans-87"/>
      <use x="535.583984" xlink:href="#DejaVuSans-41"/>
     </g>
    </g>
   </g>
   <g id="line2d_12">
    <path clip-path="url(#p15c8b9907a)" d="M 33.225711 111.645295 
L 54.831056 111.645295 
L 56.991591 111.645295 
L 59.152125 111.450258 
L 61.31266 111.25522 
L 63.473194 111.060183 
L 65.633729 111.060183 
L 67.794263 110.865145 
L 69.954798 110.865145 
L 72.115332 110.865145 
L 74.275867 110.670107 
L 76.436401 110.670107 
L 78.596936 110.670107 
L 80.75747 110.47507 
L 82.918005 110.280032 
L 85.078539 109.694919 
L 87.239074 109.109807 
L 89.399608 107.939581 
L 91.560143 106.37928 
L 93.720677 104.038829 
L 95.881212 101.893416 
L 98.041746 101.698378 
L 119.647091 99.748002 
L 141.252436 97.797626 
" style="fill:none;stroke:#1f77b4;stroke-linecap:square;stroke-width:1.5;"/>
    <defs>
     <path d="M 0 0.75 
C 0.198902 0.75 0.389685 0.670975 0.53033 0.53033 
C 0.670975 0.389685 0.75 0.198902 0.75 0 
C 0.75 -0.198902 0.670975 -0.389685 0.53033 -0.53033 
C 0.389685 -0.670975 0.198902 -0.75 0 -0.75 
C -0.198902 -0.75 -0.389685 -0.670975 -0.53033 -0.53033 
C -0.670975 -0.389685 -0.75 -0.198902 -0.75 0 
C -0.75 0.198902 -0.670975 0.389685 -0.53033 0.53033 
C -0.389685 0.670975 -0.198902 0.75 0 0.75 
z
" id="m1f8f89b3c6" style="stroke:#1f77b4;"/>
    </defs>
    <g clip-path="url(#p15c8b9907a)">
     <use style="fill:#1f77b4;stroke:#1f77b4;" x="33.225711" xlink:href="#m1f8f89b3c6" y="111.645295"/>
     <use style="fill:#1f77b4;stroke:#1f77b4;" x="54.831056" xlink:href="#m1f8f89b3c6" y="111.645295"/>
     <use style="fill:#1f77b4;stroke:#1f77b4;" x="56.991591" xlink:href="#m1f8f89b3c6" y="111.645295"/>
     <use style="fill:#1f77b4;stroke:#1f77b4;" x="59.152125" xlink:href="#m1f8f89b3c6" y="111.450258"/>
     <use style="fill:#1f77b4;stroke:#1f77b4;" x="61.31266" xlink:href="#m1f8f89b3c6" y="111.25522"/>
     <use style="fill:#1f77b4;stroke:#1f77b4;" x="63.473194" xlink:href="#m1f8f89b3c6" y="111.060183"/>
     <use style="fill:#1f77b4;stroke:#1f77b4;" x="65.633729" xlink:href="#m1f8f89b3c6" y="111.060183"/>
     <use style="fill:#1f77b4;stroke:#1f77b4;" x="67.794263" xlink:href="#m1f8f89b3c6" y="110.865145"/>
     <use style="fill:#1f77b4;stroke:#1f77b4;" x="69.954798" xlink:href="#m1f8f89b3c6" y="110.865145"/>
     <use style="fill:#1f77b4;stroke:#1f77b4;" x="72.115332" xlink:href="#m1f8f89b3c6" y="110.865145"/>
     <use style="fill:#1f77b4;stroke:#1f77b4;" x="74.275867" xlink:href="#m1f8f89b3c6" y="110.670107"/>
     <use style="fill:#1f77b4;stroke:#1f77b4;" x="76.436401" xlink:href="#m1f8f89b3c6" y="110.670107"/>
     <use style="fill:#1f77b4;stroke:#1f77b4;" x="78.596936" xlink:href="#m1f8f89b3c6" y="110.670107"/>
     <use style="fill:#1f77b4;stroke:#1f77b4;" x="80.75747" xlink:href="#m1f8f89b3c6" y="110.47507"/>
     <use style="fill:#1f77b4;stroke:#1f77b4;" x="82.918005" xlink:href="#m1f8f89b3c6" y="110.280032"/>
     <use style="fill:#1f77b4;stroke:#1f77b4;" x="85.078539" xlink:href="#m1f8f89b3c6" y="109.694919"/>
     <use style="fill:#1f77b4;stroke:#1f77b4;" x="87.239074" xlink:href="#m1f8f89b3c6" y="109.109807"/>
     <use style="fill:#1f77b4;stroke:#1f77b4;" x="89.399608" xlink:href="#m1f8f89b3c6" y="107.939581"/>
     <use style="fill:#1f77b4;stroke:#1f77b4;" x="91.560143" xlink:href="#m1f8f89b3c6" y="106.37928"/>
     <use style="fill:#1f77b4;stroke:#1f77b4;" x="93.720677" xlink:href="#m1f8f89b3c6" y="104.038829"/>
     <use style="fill:#1f77b4;stroke:#1f77b4;" x="95.881212" xlink:href="#m1f8f89b3c6" y="101.893416"/>
     <use style="fill:#1f77b4;stroke:#1f77b4;" x="98.041746" xlink:href="#m1f8f89b3c6" y="101.698378"/>
     <use style="fill:#1f77b4;stroke:#1f77b4;" x="119.647091" xlink:href="#m1f8f89b3c6" y="99.748002"/>
     <use style="fill:#1f77b4;stroke:#1f77b4;" x="141.252436" xlink:href="#m1f8f89b3c6" y="97.797626"/>
    </g>
   </g>
   <g id="line2d_13">
    <path clip-path="url(#p15c8b9907a)" d="M 33.225711 111.645295 
L 35.386246 111.645295 
L 37.54678 110.670107 
L 39.707315 107.549506 
L 41.867849 106.37928 
L 44.028384 104.623942 
L 46.188918 103.453716 
L 48.349453 102.868604 
L 50.509987 102.283491 
L 52.670522 101.698378 
L 54.831056 101.113265 
L 56.991591 100.528153 
L 59.152125 99.94304 
L 61.31266 99.357927 
L 63.473194 98.772814 
L 65.633729 97.992664 
L 67.794263 97.407551 
L 69.954798 96.627401 
L 72.115332 96.042288 
L 74.275867 95.457175 
L 76.436401 94.677025 
L 98.041746 82.974769 
L 119.647091 77.318679 
L 141.252436 75.173266 
" style="fill:none;stroke:#ff7f0e;stroke-linecap:square;stroke-width:1.5;"/>
    <defs>
     <path d="M 0 0.75 
C 0.198902 0.75 0.389685 0.670975 0.53033 0.53033 
C 0.670975 0.389685 0.75 0.198902 0.75 0 
C 0.75 -0.198902 0.670975 -0.389685 0.53033 -0.53033 
C 0.389685 -0.670975 0.198902 -0.75 0 -0.75 
C -0.198902 -0.75 -0.389685 -0.670975 -0.53033 -0.53033 
C -0.670975 -0.389685 -0.75 -0.198902 -0.75 0 
C -0.75 0.198902 -0.670975 0.389685 -0.53033 0.53033 
C -0.389685 0.670975 -0.198902 0.75 0 0.75 
z
" id="mf1ff06e942" style="stroke:#ff7f0e;"/>
    </defs>
    <g clip-path="url(#p15c8b9907a)">
     <use style="fill:#ff7f0e;stroke:#ff7f0e;" x="33.225711" xlink:href="#mf1ff06e942" y="111.645295"/>
     <use style="fill:#ff7f0e;stroke:#ff7f0e;" x="35.386246" xlink:href="#mf1ff06e942" y="111.645295"/>
     <use style="fill:#ff7f0e;stroke:#ff7f0e;" x="37.54678" xlink:href="#mf1ff06e942" y="110.670107"/>
     <use style="fill:#ff7f0e;stroke:#ff7f0e;" x="39.707315" xlink:href="#mf1ff06e942" y="107.549506"/>
     <use style="fill:#ff7f0e;stroke:#ff7f0e;" x="41.867849" xlink:href="#mf1ff06e942" y="106.37928"/>
     <use style="fill:#ff7f0e;stroke:#ff7f0e;" x="44.028384" xlink:href="#mf1ff06e942" y="104.623942"/>
     <use style="fill:#ff7f0e;stroke:#ff7f0e;" x="46.188918" xlink:href="#mf1ff06e942" y="103.453716"/>
     <use style="fill:#ff7f0e;stroke:#ff7f0e;" x="48.349453" xlink:href="#mf1ff06e942" y="102.868604"/>
     <use style="fill:#ff7f0e;stroke:#ff7f0e;" x="50.509987" xlink:href="#mf1ff06e942" y="102.283491"/>
     <use style="fill:#ff7f0e;stroke:#ff7f0e;" x="52.670522" xlink:href="#mf1ff06e942" y="101.698378"/>
     <use style="fill:#ff7f0e;stroke:#ff7f0e;" x="54.831056" xlink:href="#mf1ff06e942" y="101.113265"/>
     <use style="fill:#ff7f0e;stroke:#ff7f0e;" x="56.991591" xlink:href="#mf1ff06e942" y="100.528153"/>
     <use style="fill:#ff7f0e;stroke:#ff7f0e;" x="59.152125" xlink:href="#mf1ff06e942" y="99.94304"/>
     <use style="fill:#ff7f0e;stroke:#ff7f0e;" x="61.31266" xlink:href="#mf1ff06e942" y="99.357927"/>
     <use style="fill:#ff7f0e;stroke:#ff7f0e;" x="63.473194" xlink:href="#mf1ff06e942" y="98.772814"/>
     <use style="fill:#ff7f0e;stroke:#ff7f0e;" x="65.633729" xlink:href="#mf1ff06e942" y="97.992664"/>
     <use style="fill:#ff7f0e;stroke:#ff7f0e;" x="67.794263" xlink:href="#mf1ff06e942" y="97.407551"/>
     <use style="fill:#ff7f0e;stroke:#ff7f0e;" x="69.954798" xlink:href="#mf1ff06e942" y="96.627401"/>
     <use style="fill:#ff7f0e;stroke:#ff7f0e;" x="72.115332" xlink:href="#mf1ff06e942" y="96.042288"/>
     <use style="fill:#ff7f0e;stroke:#ff7f0e;" x="74.275867" xlink:href="#mf1ff06e942" y="95.457175"/>
     <use style="fill:#ff7f0e;stroke:#ff7f0e;" x="76.436401" xlink:href="#mf1ff06e942" y="94.677025"/>
     <use style="fill:#ff7f0e;stroke:#ff7f0e;" x="98.041746" xlink:href="#mf1ff06e942" y="82.974769"/>
     <use style="fill:#ff7f0e;stroke:#ff7f0e;" x="119.647091" xlink:href="#mf1ff06e942" y="77.318679"/>
     <use style="fill:#ff7f0e;stroke:#ff7f0e;" x="141.252436" xlink:href="#mf1ff06e942" y="75.173266"/>
    </g>
   </g>
   <g id="line2d_14">
    <path clip-path="url(#p15c8b9907a)" d="M 35.386246 111.645295 
L 37.54678 111.645295 
L 39.707315 111.578983 
L 41.867849 110.989969 
L 44.028384 109.363356 
L 46.188918 106.398784 
L 48.349453 101.932423 
L 50.509987 97.680604 
L 52.670522 96.646904 
L 54.831056 95.574198 
L 56.991591 94.462483 
L 59.152125 93.292258 
L 61.31266 92.141536 
L 63.473194 90.776273 
L 65.633729 89.606047 
L 67.794263 88.240784 
L 69.954798 86.875521 
L 72.115332 85.510258 
L 74.275867 83.949957 
L 76.436401 82.584694 
L 98.041746 65.226348 
L 119.647091 43.772213 
L 141.252436 23.098228 
" style="fill:none;stroke:#2ca02c;stroke-linecap:square;stroke-width:1.5;"/>
    <defs>
     <path d="M 0 0.75 
C 0.198902 0.75 0.389685 0.670975 0.53033 0.53033 
C 0.670975 0.389685 0.75 0.198902 0.75 0 
C 0.75 -0.198902 0.670975 -0.389685 0.53033 -0.53033 
C 0.389685 -0.670975 0.198902 -0.75 0 -0.75 
C -0.198902 -0.75 -0.389685 -0.670975 -0.53033 -0.53033 
C -0.670975 -0.389685 -0.75 -0.198902 -0.75 0 
C -0.75 0.198902 -0.670975 0.389685 -0.53033 0.53033 
C -0.389685 0.670975 -0.198902 0.75 0 0.75 
z
" id="mf74d9a11cd" style="stroke:#2ca02c;"/>
    </defs>
    <g clip-path="url(#p15c8b9907a)">
     <use style="fill:#2ca02c;stroke:#2ca02c;" x="35.386246" xlink:href="#mf74d9a11cd" y="111.645295"/>
     <use style="fill:#2ca02c;stroke:#2ca02c;" x="37.54678" xlink:href="#mf74d9a11cd" y="111.645295"/>
     <use style="fill:#2ca02c;stroke:#2ca02c;" x="39.707315" xlink:href="#mf74d9a11cd" y="111.578983"/>
     <use style="fill:#2ca02c;stroke:#2ca02c;" x="41.867849" xlink:href="#mf74d9a11cd" y="110.989969"/>
     <use style="fill:#2ca02c;stroke:#2ca02c;" x="44.028384" xlink:href="#mf74d9a11cd" y="109.363356"/>
     <use style="fill:#2ca02c;stroke:#2ca02c;" x="46.188918" xlink:href="#mf74d9a11cd" y="106.398784"/>
     <use style="fill:#2ca02c;stroke:#2ca02c;" x="48.349453" xlink:href="#mf74d9a11cd" y="101.932423"/>
     <use style="fill:#2ca02c;stroke:#2ca02c;" x="50.509987" xlink:href="#mf74d9a11cd" y="97.680604"/>
     <use style="fill:#2ca02c;stroke:#2ca02c;" x="52.670522" xlink:href="#mf74d9a11cd" y="96.646904"/>
     <use style="fill:#2ca02c;stroke:#2ca02c;" x="54.831056" xlink:href="#mf74d9a11cd" y="95.574198"/>
     <use style="fill:#2ca02c;stroke:#2ca02c;" x="56.991591" xlink:href="#mf74d9a11cd" y="94.462483"/>
     <use style="fill:#2ca02c;stroke:#2ca02c;" x="59.152125" xlink:href="#mf74d9a11cd" y="93.292258"/>
     <use style="fill:#2ca02c;stroke:#2ca02c;" x="61.31266" xlink:href="#mf74d9a11cd" y="92.141536"/>
     <use style="fill:#2ca02c;stroke:#2ca02c;" x="63.473194" xlink:href="#mf74d9a11cd" y="90.776273"/>
     <use style="fill:#2ca02c;stroke:#2ca02c;" x="65.633729" xlink:href="#mf74d9a11cd" y="89.606047"/>
     <use style="fill:#2ca02c;stroke:#2ca02c;" x="67.794263" xlink:href="#mf74d9a11cd" y="88.240784"/>
     <use style="fill:#2ca02c;stroke:#2ca02c;" x="69.954798" xlink:href="#mf74d9a11cd" y="86.875521"/>
     <use style="fill:#2ca02c;stroke:#2ca02c;" x="72.115332" xlink:href="#mf74d9a11cd" y="85.510258"/>
     <use style="fill:#2ca02c;stroke:#2ca02c;" x="74.275867" xlink:href="#mf74d9a11cd" y="83.949957"/>
     <use style="fill:#2ca02c;stroke:#2ca02c;" x="76.436401" xlink:href="#mf74d9a11cd" y="82.584694"/>
     <use style="fill:#2ca02c;stroke:#2ca02c;" x="98.041746" xlink:href="#mf74d9a11cd" y="65.226348"/>
     <use style="fill:#2ca02c;stroke:#2ca02c;" x="119.647091" xlink:href="#mf74d9a11cd" y="43.772213"/>
     <use style="fill:#2ca02c;stroke:#2ca02c;" x="141.252436" xlink:href="#mf74d9a11cd" y="23.098228"/>
    </g>
   </g>
   <g id="patch_3">
    <path d="M 27.824375 116.072649 
L 27.824375 18.670875 
" style="fill:none;stroke:#000000;stroke-linecap:square;stroke-linejoin:miter;stroke-width:0.8;"/>
   </g>
   <g id="patch_4">
    <path d="M 146.653772 116.072649 
L 146.653772 18.670875 
" style="fill:none;stroke:#000000;stroke-linecap:square;stroke-linejoin:miter;stroke-width:0.8;"/>
   </g>
   <g id="patch_5">
    <path d="M 27.824375 116.072649 
L 146.653772 116.072649 
" style="fill:none;stroke:#000000;stroke-linecap:square;stroke-linejoin:miter;stroke-width:0.8;"/>
   </g>
   <g id="patch_6">
    <path d="M 27.824375 18.670875 
L 146.653772 18.670875 
" style="fill:none;stroke:#000000;stroke-linecap:square;stroke-linejoin:miter;stroke-width:0.8;"/>
   </g>
   <g id="text_14">
    <!-- Low powers -->
    <g transform="translate(66.002449 12.670875)scale(0.072 -0.072)">
     <defs>
      <path d="M 9.8125 72.90625 
L 19.671875 72.90625 
L 19.671875 8.296875 
L 55.171875 8.296875 
L 55.171875 0 
L 9.8125 0 
z
" id="DejaVuSans-76"/>
      <path d="M 18.109375 8.203125 
L 18.109375 -20.796875 
L 9.078125 -20.796875 
L 9.078125 54.6875 
L 18.109375 54.6875 
L 18.109375 46.390625 
Q 20.953125 51.265625 25.265625 53.625 
Q 29.59375 56 35.59375 56 
Q 45.5625 56 51.78125 48.09375 
Q 58.015625 40.1875 58.015625 27.296875 
Q 58.015625 14.40625 51.78125 6.484375 
Q 45.5625 -1.421875 35.59375 -1.421875 
Q 29.59375 -1.421875 25.265625 0.953125 
Q 20.953125 3.328125 18.109375 8.203125 
z
M 48.6875 27.296875 
Q 48.6875 37.203125 44.609375 42.84375 
Q 40.53125 48.484375 33.40625 48.484375 
Q 26.265625 48.484375 22.1875 42.84375 
Q 18.109375 37.203125 18.109375 27.296875 
Q 18.109375 17.390625 22.1875 11.75 
Q 26.265625 6.109375 33.40625 6.109375 
Q 40.53125 6.109375 44.609375 11.75 
Q 48.6875 17.390625 48.6875 27.296875 
z
" id="DejaVuSans-112"/>
     </defs>
     <use xlink:href="#DejaVuSans-76"/>
     <use x="53.962891" xlink:href="#DejaVuSans-111"/>
     <use x="115.144531" xlink:href="#DejaVuSans-119"/>
     <use x="196.931641" xlink:href="#DejaVuSans-32"/>
     <use x="228.71875" xlink:href="#DejaVuSans-112"/>
     <use x="292.195312" xlink:href="#DejaVuSans-111"/>
     <use x="353.376953" xlink:href="#DejaVuSans-119"/>
     <use x="435.164062" xlink:href="#DejaVuSans-101"/>
     <use x="496.6875" xlink:href="#DejaVuSans-114"/>
     <use x="537.800781" xlink:href="#DejaVuSans-115"/>
    </g>
   </g>
   <g id="legend_1">
    <g id="patch_7">
     <path d="M 32.024375 59.1915 
L 119.204375 59.1915 
Q 120.404375 59.1915 120.404375 57.9915 
L 120.404375 22.870875 
Q 120.404375 21.670875 119.204375 21.670875 
L 32.024375 21.670875 
Q 30.824375 21.670875 30.824375 22.870875 
L 30.824375 57.9915 
Q 30.824375 59.1915 32.024375 59.1915 
z
" style="fill:#ffffff;opacity:0.8;stroke:#cccccc;stroke-linejoin:miter;"/>
    </g>
    <g id="text_15">
     <!-- Laser source -->
     <g transform="translate(56.547969 28.629937)scale(0.06 -0.06)">
      <defs>
       <path d="M 34.28125 27.484375 
Q 23.390625 27.484375 19.1875 25 
Q 14.984375 22.515625 14.984375 16.5 
Q 14.984375 11.71875 18.140625 8.90625 
Q 21.296875 6.109375 26.703125 6.109375 
Q 34.1875 6.109375 38.703125 11.40625 
Q 43.21875 16.703125 43.21875 25.484375 
L 43.21875 27.484375 
z
M 52.203125 31.203125 
L 52.203125 0 
L 43.21875 0 
L 43.21875 8.296875 
Q 40.140625 3.328125 35.546875 0.953125 
Q 30.953125 -1.421875 24.3125 -1.421875 
Q 15.921875 -1.421875 10.953125 3.296875 
Q 6 8.015625 6 15.921875 
Q 6 25.140625 12.171875 29.828125 
Q 18.359375 34.515625 30.609375 34.515625 
L 43.21875 34.515625 
L 43.21875 35.40625 
Q 43.21875 41.609375 39.140625 45 
Q 35.0625 48.390625 27.6875 48.390625 
Q 23 48.390625 18.546875 47.265625 
Q 14.109375 46.140625 10.015625 43.890625 
L 10.015625 52.203125 
Q 14.9375 54.109375 19.578125 55.046875 
Q 24.21875 56 28.609375 56 
Q 40.484375 56 46.34375 49.84375 
Q 52.203125 43.703125 52.203125 31.203125 
z
" id="DejaVuSans-97"/>
       <path d="M 8.5 21.578125 
L 8.5 54.6875 
L 17.484375 54.6875 
L 17.484375 21.921875 
Q 17.484375 14.15625 20.5 10.265625 
Q 23.53125 6.390625 29.59375 6.390625 
Q 36.859375 6.390625 41.078125 11.03125 
Q 45.3125 15.671875 45.3125 23.6875 
L 45.3125 54.6875 
L 54.296875 54.6875 
L 54.296875 0 
L 45.3125 0 
L 45.3125 8.40625 
Q 42.046875 3.421875 37.71875 1 
Q 33.40625 -1.421875 27.6875 -1.421875 
Q 18.265625 -1.421875 13.375 4.4375 
Q 8.5 10.296875 8.5 21.578125 
z
M 31.109375 56 
z
" id="DejaVuSans-117"/>
       <path d="M 48.78125 52.59375 
L 48.78125 44.1875 
Q 44.96875 46.296875 41.140625 47.34375 
Q 37.3125 48.390625 33.40625 48.390625 
Q 24.65625 48.390625 19.8125 42.84375 
Q 14.984375 37.3125 14.984375 27.296875 
Q 14.984375 17.28125 19.8125 11.734375 
Q 24.65625 6.203125 33.40625 6.203125 
Q 37.3125 6.203125 41.140625 7.25 
Q 44.96875 8.296875 48.78125 10.40625 
L 48.78125 2.09375 
Q 45.015625 0.34375 40.984375 -0.53125 
Q 36.96875 -1.421875 32.421875 -1.421875 
Q 20.0625 -1.421875 12.78125 6.34375 
Q 5.515625 14.109375 5.515625 27.296875 
Q 5.515625 40.671875 12.859375 48.328125 
Q 20.21875 56 33.015625 56 
Q 37.15625 56 41.109375 55.140625 
Q 45.0625 54.296875 48.78125 52.59375 
z
" id="DejaVuSans-99"/>
      </defs>
      <use xlink:href="#DejaVuSans-76"/>
      <use x="55.712891" xlink:href="#DejaVuSans-97"/>
      <use x="116.992188" xlink:href="#DejaVuSans-115"/>
      <use x="169.091797" xlink:href="#DejaVuSans-101"/>
      <use x="230.615234" xlink:href="#DejaVuSans-114"/>
      <use x="271.728516" xlink:href="#DejaVuSans-32"/>
      <use x="303.515625" xlink:href="#DejaVuSans-115"/>
      <use x="355.615234" xlink:href="#DejaVuSans-111"/>
      <use x="416.796875" xlink:href="#DejaVuSans-117"/>
      <use x="480.175781" xlink:href="#DejaVuSans-114"/>
      <use x="519.039062" xlink:href="#DejaVuSans-99"/>
      <use x="574.019531" xlink:href="#DejaVuSans-101"/>
     </g>
    </g>
    <g id="line2d_15">
     <path d="M 33.224375 35.336812 
L 45.224375 35.336812 
" style="fill:none;stroke:#1f77b4;stroke-linecap:square;stroke-width:1.5;"/>
    </g>
    <g id="line2d_16">
     <g>
      <use style="fill:#1f77b4;stroke:#1f77b4;" x="39.224375" xlink:href="#m1f8f89b3c6" y="35.336812"/>
     </g>
    </g>
    <g id="text_16">
     <!-- 561 nm -->
     <g transform="translate(50.024375 37.436812)scale(0.06 -0.06)">
      <defs>
       <path d="M 33.015625 40.375 
Q 26.375 40.375 22.484375 35.828125 
Q 18.609375 31.296875 18.609375 23.390625 
Q 18.609375 15.53125 22.484375 10.953125 
Q 26.375 6.390625 33.015625 6.390625 
Q 39.65625 6.390625 43.53125 10.953125 
Q 47.40625 15.53125 47.40625 23.390625 
Q 47.40625 31.296875 43.53125 35.828125 
Q 39.65625 40.375 33.015625 40.375 
z
M 52.59375 71.296875 
L 52.59375 62.3125 
Q 48.875 64.0625 45.09375 64.984375 
Q 41.3125 65.921875 37.59375 65.921875 
Q 27.828125 65.921875 22.671875 59.328125 
Q 17.53125 52.734375 16.796875 39.40625 
Q 19.671875 43.65625 24.015625 45.921875 
Q 28.375 48.1875 33.59375 48.1875 
Q 44.578125 48.1875 50.953125 41.515625 
Q 57.328125 34.859375 57.328125 23.390625 
Q 57.328125 12.15625 50.6875 5.359375 
Q 44.046875 -1.421875 33.015625 -1.421875 
Q 20.359375 -1.421875 13.671875 8.265625 
Q 6.984375 17.96875 6.984375 36.375 
Q 6.984375 53.65625 15.1875 63.9375 
Q 23.390625 74.21875 37.203125 74.21875 
Q 40.921875 74.21875 44.703125 73.484375 
Q 48.484375 72.75 52.59375 71.296875 
z
" id="DejaVuSans-54"/>
       <path d="M 52 44.1875 
Q 55.375 50.25 60.0625 53.125 
Q 64.75 56 71.09375 56 
Q 79.640625 56 84.28125 50.015625 
Q 88.921875 44.046875 88.921875 33.015625 
L 88.921875 0 
L 79.890625 0 
L 79.890625 32.71875 
Q 79.890625 40.578125 77.09375 44.375 
Q 74.3125 48.1875 68.609375 48.1875 
Q 61.625 48.1875 57.5625 43.546875 
Q 53.515625 38.921875 53.515625 30.90625 
L 53.515625 0 
L 44.484375 0 
L 44.484375 32.71875 
Q 44.484375 40.625 41.703125 44.40625 
Q 38.921875 48.1875 33.109375 48.1875 
Q 26.21875 48.1875 22.15625 43.53125 
Q 18.109375 38.875 18.109375 30.90625 
L 18.109375 0 
L 9.078125 0 
L 9.078125 54.6875 
L 18.109375 54.6875 
L 18.109375 46.1875 
Q 21.1875 51.21875 25.484375 53.609375 
Q 29.78125 56 35.6875 56 
Q 41.65625 56 45.828125 52.96875 
Q 50 49.953125 52 44.1875 
z
" id="DejaVuSans-109"/>
      </defs>
      <use xlink:href="#DejaVuSans-53"/>
      <use x="63.623047" xlink:href="#DejaVuSans-54"/>
      <use x="127.246094" xlink:href="#DejaVuSans-49"/>
      <use x="190.869141" xlink:href="#DejaVuSans-32"/>
      <use x="222.65625" xlink:href="#DejaVuSans-110"/>
      <use x="286.035156" xlink:href="#DejaVuSans-109"/>
     </g>
    </g>
    <g id="line2d_17">
     <path d="M 33.224375 44.143687 
L 45.224375 44.143687 
" style="fill:none;stroke:#ff7f0e;stroke-linecap:square;stroke-width:1.5;"/>
    </g>
    <g id="line2d_18">
     <g>
      <use style="fill:#ff7f0e;stroke:#ff7f0e;" x="39.224375" xlink:href="#mf1ff06e942" y="44.143687"/>
     </g>
    </g>
    <g id="text_17">
     <!-- 640 nm -->
     <g transform="translate(50.024375 46.243687)scale(0.06 -0.06)">
      <use xlink:href="#DejaVuSans-54"/>
      <use x="63.623047" xlink:href="#DejaVuSans-52"/>
      <use x="127.246094" xlink:href="#DejaVuSans-48"/>
      <use x="190.869141" xlink:href="#DejaVuSans-32"/>
      <use x="222.65625" xlink:href="#DejaVuSans-110"/>
      <use x="286.035156" xlink:href="#DejaVuSans-109"/>
     </g>
    </g>
    <g id="line2d_19">
     <path d="M 33.224375 53.443687 
L 45.224375 53.443687 
" style="fill:none;stroke:#2ca02c;stroke-linecap:square;stroke-width:1.5;"/>
    </g>
    <g id="line2d_20">
     <g>
      <use style="fill:#2ca02c;stroke:#2ca02c;" x="39.224375" xlink:href="#mf74d9a11cd" y="53.443687"/>
     </g>
    </g>
    <g id="text_18">
     <!-- 775 nm, 1.2 W (x$ 10^{-3}$) -->
     <g transform="translate(50.024375 55.543687)scale(0.06 -0.06)">
      <defs>
       <path d="M 8.203125 72.90625 
L 55.078125 72.90625 
L 55.078125 68.703125 
L 28.609375 0 
L 18.3125 0 
L 43.21875 64.59375 
L 8.203125 64.59375 
z
" id="DejaVuSans-55"/>
       <path d="M 11.71875 12.40625 
L 22.015625 12.40625 
L 22.015625 4 
L 14.015625 -11.625 
L 7.71875 -11.625 
L 11.71875 4 
z
" id="DejaVuSans-44"/>
       <path d="M 10.6875 12.40625 
L 21 12.40625 
L 21 0 
L 10.6875 0 
z
" id="DejaVuSans-46"/>
       <path d="M 54.890625 54.6875 
L 35.109375 28.078125 
L 55.90625 0 
L 45.3125 0 
L 29.390625 21.484375 
L 13.484375 0 
L 2.875 0 
L 24.125 28.609375 
L 4.6875 54.6875 
L 15.28125 54.6875 
L 29.78125 35.203125 
L 44.28125 54.6875 
z
" id="DejaVuSans-120"/>
       <path d="M 10.59375 35.5 
L 73.1875 35.5 
L 73.1875 27.203125 
L 10.59375 27.203125 
z
" id="DejaVuSans-8722"/>
      </defs>
      <use transform="translate(0 0.765625)" xlink:href="#DejaVuSans-55"/>
      <use transform="translate(61.873047 0.765625)" xlink:href="#DejaVuSans-55"/>
      <use transform="translate(125.496094 0.765625)" xlink:href="#DejaVuSans-53"/>
      <use transform="translate(189.119141 0.765625)" xlink:href="#DejaVuSans-32"/>
      <use transform="translate(220.90625 0.765625)" xlink:href="#DejaVuSans-110"/>
      <use transform="translate(284.285156 0.765625)" xlink:href="#DejaVuSans-109"/>
      <use transform="translate(381.697266 0.765625)" xlink:href="#DejaVuSans-44"/>
      <use transform="translate(413.484375 0.765625)" xlink:href="#DejaVuSans-32"/>
      <use transform="translate(445.271484 0.765625)" xlink:href="#DejaVuSans-49"/>
      <use transform="translate(508.894531 0.765625)" xlink:href="#DejaVuSans-46"/>
      <use transform="translate(535.181641 0.765625)" xlink:href="#DejaVuSans-50"/>
      <use transform="translate(598.804688 0.765625)" xlink:href="#DejaVuSans-32"/>
      <use transform="translate(630.591797 0.765625)" xlink:href="#DejaVuSans-87"/>
      <use transform="translate(729.46875 0.765625)" xlink:href="#DejaVuSans-32"/>
      <use transform="translate(761.255859 0.765625)" xlink:href="#DejaVuSans-40"/>
      <use transform="translate(800.269531 0.765625)" xlink:href="#DejaVuSans-120"/>
      <use transform="translate(859.449219 0.765625)" xlink:href="#DejaVuSans-49"/>
      <use transform="translate(923.072266 0.765625)" xlink:href="#DejaVuSans-48"/>
      <use transform="translate(987.652344 39.046875)scale(0.7)" xlink:href="#DejaVuSans-8722"/>
      <use transform="translate(1046.304688 39.046875)scale(0.7)" xlink:href="#DejaVuSans-51"/>
      <use transform="translate(1093.575195 0.765625)" xlink:href="#DejaVuSans-41"/>
     </g>
    </g>
   </g>
  </g>
  <g id="axes_2">
   <g id="patch_8">
    <path d="M 170.419652 116.072649 
L 289.249049 116.072649 
L 289.249049 18.670875 
L 170.419652 18.670875 
z
" style="fill:#ffffff;"/>
   </g>
   <g id="matplotlib.axis_3">
    <g id="xtick_7">
     <g id="line2d_21">
      <g>
       <use style="stroke:#000000;stroke-width:0.8;" x="175.820988" xlink:href="#m8db1563462" y="116.072649"/>
      </g>
     </g>
     <g id="text_19">
      <!-- 0 -->
      <g transform="translate(173.912238 127.631711)scale(0.06 -0.06)">
       <use xlink:href="#DejaVuSans-48"/>
      </g>
     </g>
    </g>
    <g id="xtick_8">
     <g id="line2d_22">
      <g>
       <use style="stroke:#000000;stroke-width:0.8;" x="197.426333" xlink:href="#m8db1563462" y="116.072649"/>
      </g>
     </g>
     <g id="text_20">
      <!-- 20 -->
      <g transform="translate(193.608833 127.631711)scale(0.06 -0.06)">
       <use xlink:href="#DejaVuSans-50"/>
       <use x="63.623047" xlink:href="#DejaVuSans-48"/>
      </g>
     </g>
    </g>
    <g id="xtick_9">
     <g id="line2d_23">
      <g>
       <use style="stroke:#000000;stroke-width:0.8;" x="219.031678" xlink:href="#m8db1563462" y="116.072649"/>
      </g>
     </g>
     <g id="text_21">
      <!-- 40 -->
      <g transform="translate(215.214178 127.631711)scale(0.06 -0.06)">
       <use xlink:href="#DejaVuSans-52"/>
       <use x="63.623047" xlink:href="#DejaVuSans-48"/>
      </g>
     </g>
    </g>
    <g id="xtick_10">
     <g id="line2d_24">
      <g>
       <use style="stroke:#000000;stroke-width:0.8;" x="240.637023" xlink:href="#m8db1563462" y="116.072649"/>
      </g>
     </g>
     <g id="text_22">
      <!-- 60 -->
      <g transform="translate(236.819523 127.631711)scale(0.06 -0.06)">
       <use xlink:href="#DejaVuSans-54"/>
       <use x="63.623047" xlink:href="#DejaVuSans-48"/>
      </g>
     </g>
    </g>
    <g id="xtick_11">
     <g id="line2d_25">
      <g>
       <use style="stroke:#000000;stroke-width:0.8;" x="262.242368" xlink:href="#m8db1563462" y="116.072649"/>
      </g>
     </g>
     <g id="text_23">
      <!-- 80 -->
      <g transform="translate(258.424868 127.631711)scale(0.06 -0.06)">
       <defs>
        <path d="M 31.78125 34.625 
Q 24.75 34.625 20.71875 30.859375 
Q 16.703125 27.09375 16.703125 20.515625 
Q 16.703125 13.921875 20.71875 10.15625 
Q 24.75 6.390625 31.78125 6.390625 
Q 38.8125 6.390625 42.859375 10.171875 
Q 46.921875 13.96875 46.921875 20.515625 
Q 46.921875 27.09375 42.890625 30.859375 
Q 38.875 34.625 31.78125 34.625 
z
M 21.921875 38.8125 
Q 15.578125 40.375 12.03125 44.71875 
Q 8.5 49.078125 8.5 55.328125 
Q 8.5 64.0625 14.71875 69.140625 
Q 20.953125 74.21875 31.78125 74.21875 
Q 42.671875 74.21875 48.875 69.140625 
Q 55.078125 64.0625 55.078125 55.328125 
Q 55.078125 49.078125 51.53125 44.71875 
Q 48 40.375 41.703125 38.8125 
Q 48.828125 37.15625 52.796875 32.3125 
Q 56.78125 27.484375 56.78125 20.515625 
Q 56.78125 9.90625 50.3125 4.234375 
Q 43.84375 -1.421875 31.78125 -1.421875 
Q 19.734375 -1.421875 13.25 4.234375 
Q 6.78125 9.90625 6.78125 20.515625 
Q 6.78125 27.484375 10.78125 32.3125 
Q 14.796875 37.15625 21.921875 38.8125 
z
M 18.3125 54.390625 
Q 18.3125 48.734375 21.84375 45.5625 
Q 25.390625 42.390625 31.78125 42.390625 
Q 38.140625 42.390625 41.71875 45.5625 
Q 45.3125 48.734375 45.3125 54.390625 
Q 45.3125 60.0625 41.71875 63.234375 
Q 38.140625 66.40625 31.78125 66.40625 
Q 25.390625 66.40625 21.84375 63.234375 
Q 18.3125 60.0625 18.3125 54.390625 
z
" id="DejaVuSans-56"/>
       </defs>
       <use xlink:href="#DejaVuSans-56"/>
       <use x="63.623047" xlink:href="#DejaVuSans-48"/>
      </g>
     </g>
    </g>
    <g id="xtick_12">
     <g id="line2d_26">
      <g>
       <use style="stroke:#000000;stroke-width:0.8;" x="283.847713" xlink:href="#m8db1563462" y="116.072649"/>
      </g>
     </g>
     <g id="text_24">
      <!-- 100 -->
      <g transform="translate(278.121463 127.631711)scale(0.06 -0.06)">
       <use xlink:href="#DejaVuSans-49"/>
       <use x="63.623047" xlink:href="#DejaVuSans-48"/>
       <use x="127.246094" xlink:href="#DejaVuSans-48"/>
      </g>
     </g>
    </g>
    <g id="text_25">
     <!-- Power setting (%) -->
     <g transform="translate(203.267475 137.438586)scale(0.06 -0.06)">
      <use xlink:href="#DejaVuSans-80"/>
      <use x="56.677734" xlink:href="#DejaVuSans-111"/>
      <use x="117.859375" xlink:href="#DejaVuSans-119"/>
      <use x="199.646484" xlink:href="#DejaVuSans-101"/>
      <use x="261.169922" xlink:href="#DejaVuSans-114"/>
      <use x="302.283203" xlink:href="#DejaVuSans-32"/>
      <use x="334.070312" xlink:href="#DejaVuSans-115"/>
      <use x="386.169922" xlink:href="#DejaVuSans-101"/>
      <use x="447.693359" xlink:href="#DejaVuSans-116"/>
      <use x="486.902344" xlink:href="#DejaVuSans-116"/>
      <use x="526.111328" xlink:href="#DejaVuSans-105"/>
      <use x="553.894531" xlink:href="#DejaVuSans-110"/>
      <use x="617.273438" xlink:href="#DejaVuSans-103"/>
      <use x="680.75" xlink:href="#DejaVuSans-32"/>
      <use x="712.537109" xlink:href="#DejaVuSans-40"/>
      <use x="751.550781" xlink:href="#DejaVuSans-37"/>
      <use x="846.570312" xlink:href="#DejaVuSans-41"/>
     </g>
    </g>
   </g>
   <g id="matplotlib.axis_4">
    <g id="ytick_6">
     <g id="line2d_27">
      <g>
       <use style="stroke:#000000;stroke-width:0.8;" x="170.419652" xlink:href="#mb52b723b3e" y="111.645295"/>
      </g>
     </g>
     <g id="text_26">
      <!-- 0 -->
      <g transform="translate(159.602152 113.924827)scale(0.06 -0.06)">
       <use xlink:href="#DejaVuSans-48"/>
      </g>
     </g>
    </g>
    <g id="ytick_7">
     <g id="line2d_28">
      <g>
       <use style="stroke:#000000;stroke-width:0.8;" x="170.419652" xlink:href="#mb52b723b3e" y="89.862499"/>
      </g>
     </g>
     <g id="text_27">
      <!-- 20 -->
      <g transform="translate(155.784652 92.14203)scale(0.06 -0.06)">
       <use xlink:href="#DejaVuSans-50"/>
       <use x="63.623047" xlink:href="#DejaVuSans-48"/>
      </g>
     </g>
    </g>
    <g id="ytick_8">
     <g id="line2d_29">
      <g>
       <use style="stroke:#000000;stroke-width:0.8;" x="170.419652" xlink:href="#mb52b723b3e" y="68.079703"/>
      </g>
     </g>
     <g id="text_28">
      <!-- 40 -->
      <g transform="translate(155.784652 70.359234)scale(0.06 -0.06)">
       <use xlink:href="#DejaVuSans-52"/>
       <use x="63.623047" xlink:href="#DejaVuSans-48"/>
      </g>
     </g>
    </g>
    <g id="ytick_9">
     <g id="line2d_30">
      <g>
       <use style="stroke:#000000;stroke-width:0.8;" x="170.419652" xlink:href="#mb52b723b3e" y="46.296906"/>
      </g>
     </g>
     <g id="text_29">
      <!-- 60 -->
      <g transform="translate(155.784652 48.576438)scale(0.06 -0.06)">
       <use xlink:href="#DejaVuSans-54"/>
       <use x="63.623047" xlink:href="#DejaVuSans-48"/>
      </g>
     </g>
    </g>
    <g id="ytick_10">
     <g id="line2d_31">
      <g>
       <use style="stroke:#000000;stroke-width:0.8;" x="170.419652" xlink:href="#mb52b723b3e" y="24.51411"/>
      </g>
     </g>
     <g id="text_30">
      <!-- 80 -->
      <g transform="translate(155.784652 26.793641)scale(0.06 -0.06)">
       <use xlink:href="#DejaVuSans-56"/>
       <use x="63.623047" xlink:href="#DejaVuSans-48"/>
      </g>
     </g>
    </g>
   </g>
   <g id="line2d_32">
    <path clip-path="url(#p4c75bd3c6f)" d="M 175.820988 111.645295 
L 176.901255 111.645295 
L 177.009282 111.645295 
L 177.117309 111.634404 
L 177.225335 111.623513 
L 177.333362 111.612621 
L 177.441389 111.612621 
L 177.549416 111.60173 
L 177.657442 111.60173 
L 177.765469 111.60173 
L 177.873496 111.590838 
L 177.981522 111.590838 
L 178.089549 111.590838 
L 178.197576 111.579947 
L 178.305603 111.569056 
L 178.413629 111.536381 
L 178.521656 111.503707 
L 178.629683 111.438359 
L 178.73771 111.351228 
L 178.845736 111.220531 
L 178.953763 111.100725 
L 179.06179 111.089834 
L 180.142057 110.98092 
L 181.222324 110.872006 
L 182.302591 110.730418 
L 183.382859 110.58883 
L 184.463126 110.414567 
L 185.543393 110.229414 
L 186.62366 110.033368 
L 192.024997 108.748183 
L 197.426333 107.452107 
L 202.827669 106.428316 
L 208.229005 105.328284 
L 213.630342 104.184688 
L 219.031678 103.008417 
L 224.433014 101.799471 
L 229.83435 100.644983 
L 235.235687 99.446929 
L 240.637023 98.35779 
L 246.038359 97.26865 
L 251.439695 96.17951 
L 256.841032 95.199284 
L 262.242368 94.219058 
L 267.643704 93.347746 
L 273.04504 92.476435 
L 278.446377 91.822951 
L 283.847713 90.842725 
" style="fill:none;stroke:#1f77b4;stroke-linecap:square;stroke-width:1.5;"/>
    <g clip-path="url(#p4c75bd3c6f)">
     <use style="fill:#1f77b4;stroke:#1f77b4;" x="175.820988" xlink:href="#m1f8f89b3c6" y="111.645295"/>
     <use style="fill:#1f77b4;stroke:#1f77b4;" x="176.901255" xlink:href="#m1f8f89b3c6" y="111.645295"/>
     <use style="fill:#1f77b4;stroke:#1f77b4;" x="177.009282" xlink:href="#m1f8f89b3c6" y="111.645295"/>
     <use style="fill:#1f77b4;stroke:#1f77b4;" x="177.117309" xlink:href="#m1f8f89b3c6" y="111.634404"/>
     <use style="fill:#1f77b4;stroke:#1f77b4;" x="177.225335" xlink:href="#m1f8f89b3c6" y="111.623513"/>
     <use style="fill:#1f77b4;stroke:#1f77b4;" x="177.333362" xlink:href="#m1f8f89b3c6" y="111.612621"/>
     <use style="fill:#1f77b4;stroke:#1f77b4;" x="177.441389" xlink:href="#m1f8f89b3c6" y="111.612621"/>
     <use style="fill:#1f77b4;stroke:#1f77b4;" x="177.549416" xlink:href="#m1f8f89b3c6" y="111.60173"/>
     <use style="fill:#1f77b4;stroke:#1f77b4;" x="177.657442" xlink:href="#m1f8f89b3c6" y="111.60173"/>
     <use style="fill:#1f77b4;stroke:#1f77b4;" x="177.765469" xlink:href="#m1f8f89b3c6" y="111.60173"/>
     <use style="fill:#1f77b4;stroke:#1f77b4;" x="177.873496" xlink:href="#m1f8f89b3c6" y="111.590838"/>
     <use style="fill:#1f77b4;stroke:#1f77b4;" x="177.981522" xlink:href="#m1f8f89b3c6" y="111.590838"/>
     <use style="fill:#1f77b4;stroke:#1f77b4;" x="178.089549" xlink:href="#m1f8f89b3c6" y="111.590838"/>
     <use style="fill:#1f77b4;stroke:#1f77b4;" x="178.197576" xlink:href="#m1f8f89b3c6" y="111.579947"/>
     <use style="fill:#1f77b4;stroke:#1f77b4;" x="178.305603" xlink:href="#m1f8f89b3c6" y="111.569056"/>
     <use style="fill:#1f77b4;stroke:#1f77b4;" x="178.413629" xlink:href="#m1f8f89b3c6" y="111.536381"/>
     <use style="fill:#1f77b4;stroke:#1f77b4;" x="178.521656" xlink:href="#m1f8f89b3c6" y="111.503707"/>
     <use style="fill:#1f77b4;stroke:#1f77b4;" x="178.629683" xlink:href="#m1f8f89b3c6" y="111.438359"/>
     <use style="fill:#1f77b4;stroke:#1f77b4;" x="178.73771" xlink:href="#m1f8f89b3c6" y="111.351228"/>
     <use style="fill:#1f77b4;stroke:#1f77b4;" x="178.845736" xlink:href="#m1f8f89b3c6" y="111.220531"/>
     <use style="fill:#1f77b4;stroke:#1f77b4;" x="178.953763" xlink:href="#m1f8f89b3c6" y="111.100725"/>
     <use style="fill:#1f77b4;stroke:#1f77b4;" x="179.06179" xlink:href="#m1f8f89b3c6" y="111.089834"/>
     <use style="fill:#1f77b4;stroke:#1f77b4;" x="180.142057" xlink:href="#m1f8f89b3c6" y="110.98092"/>
     <use style="fill:#1f77b4;stroke:#1f77b4;" x="181.222324" xlink:href="#m1f8f89b3c6" y="110.872006"/>
     <use style="fill:#1f77b4;stroke:#1f77b4;" x="182.302591" xlink:href="#m1f8f89b3c6" y="110.730418"/>
     <use style="fill:#1f77b4;stroke:#1f77b4;" x="183.382859" xlink:href="#m1f8f89b3c6" y="110.58883"/>
     <use style="fill:#1f77b4;stroke:#1f77b4;" x="184.463126" xlink:href="#m1f8f89b3c6" y="110.414567"/>
     <use style="fill:#1f77b4;stroke:#1f77b4;" x="185.543393" xlink:href="#m1f8f89b3c6" y="110.229414"/>
     <use style="fill:#1f77b4;stroke:#1f77b4;" x="186.62366" xlink:href="#m1f8f89b3c6" y="110.033368"/>
     <use style="fill:#1f77b4;stroke:#1f77b4;" x="192.024997" xlink:href="#m1f8f89b3c6" y="108.748183"/>
     <use style="fill:#1f77b4;stroke:#1f77b4;" x="197.426333" xlink:href="#m1f8f89b3c6" y="107.452107"/>
     <use style="fill:#1f77b4;stroke:#1f77b4;" x="202.827669" xlink:href="#m1f8f89b3c6" y="106.428316"/>
     <use style="fill:#1f77b4;stroke:#1f77b4;" x="208.229005" xlink:href="#m1f8f89b3c6" y="105.328284"/>
     <use style="fill:#1f77b4;stroke:#1f77b4;" x="213.630342" xlink:href="#m1f8f89b3c6" y="104.184688"/>
     <use style="fill:#1f77b4;stroke:#1f77b4;" x="219.031678" xlink:href="#m1f8f89b3c6" y="103.008417"/>
     <use style="fill:#1f77b4;stroke:#1f77b4;" x="224.433014" xlink:href="#m1f8f89b3c6" y="101.799471"/>
     <use style="fill:#1f77b4;stroke:#1f77b4;" x="229.83435" xlink:href="#m1f8f89b3c6" y="100.644983"/>
     <use style="fill:#1f77b4;stroke:#1f77b4;" x="235.235687" xlink:href="#m1f8f89b3c6" y="99.446929"/>
     <use style="fill:#1f77b4;stroke:#1f77b4;" x="240.637023" xlink:href="#m1f8f89b3c6" y="98.35779"/>
     <use style="fill:#1f77b4;stroke:#1f77b4;" x="246.038359" xlink:href="#m1f8f89b3c6" y="97.26865"/>
     <use style="fill:#1f77b4;stroke:#1f77b4;" x="251.439695" xlink:href="#m1f8f89b3c6" y="96.17951"/>
     <use style="fill:#1f77b4;stroke:#1f77b4;" x="256.841032" xlink:href="#m1f8f89b3c6" y="95.199284"/>
     <use style="fill:#1f77b4;stroke:#1f77b4;" x="262.242368" xlink:href="#m1f8f89b3c6" y="94.219058"/>
     <use style="fill:#1f77b4;stroke:#1f77b4;" x="267.643704" xlink:href="#m1f8f89b3c6" y="93.347746"/>
     <use style="fill:#1f77b4;stroke:#1f77b4;" x="273.04504" xlink:href="#m1f8f89b3c6" y="92.476435"/>
     <use style="fill:#1f77b4;stroke:#1f77b4;" x="278.446377" xlink:href="#m1f8f89b3c6" y="91.822951"/>
     <use style="fill:#1f77b4;stroke:#1f77b4;" x="283.847713" xlink:href="#m1f8f89b3c6" y="90.842725"/>
    </g>
   </g>
   <g id="line2d_33">
    <path clip-path="url(#p4c75bd3c6f)" d="M 175.820988 111.645295 
L 175.929015 111.645295 
L 176.037041 111.590838 
L 176.145068 111.416576 
L 176.253095 111.351228 
L 176.361122 111.253205 
L 176.469148 111.187857 
L 176.577175 111.155182 
L 176.685202 111.122508 
L 176.793228 111.089834 
L 176.901255 111.05716 
L 177.009282 111.024486 
L 177.117309 110.991811 
L 177.225335 110.959137 
L 177.333362 110.926463 
L 177.441389 110.882897 
L 177.549416 110.850223 
L 177.657442 110.806658 
L 177.765469 110.773983 
L 177.873496 110.741309 
L 177.981522 110.697744 
L 179.06179 110.04426 
L 180.142057 109.728409 
L 181.222324 109.608604 
L 182.302591 109.401667 
L 183.382859 109.162057 
L 184.463126 108.922446 
L 185.543393 108.650161 
L 186.62366 108.377876 
L 197.426333 103.258919 
L 208.229005 99.338015 
L 219.031678 95.526026 
L 229.83435 91.714037 
L 240.637023 86.486166 
L 251.439695 82.129606 
L 262.242368 78.971101 
L 273.04504 76.030423 
L 283.847713 74.069972 
" style="fill:none;stroke:#ff7f0e;stroke-linecap:square;stroke-width:1.5;"/>
    <g clip-path="url(#p4c75bd3c6f)">
     <use style="fill:#ff7f0e;stroke:#ff7f0e;" x="175.820988" xlink:href="#mf1ff06e942" y="111.645295"/>
     <use style="fill:#ff7f0e;stroke:#ff7f0e;" x="175.929015" xlink:href="#mf1ff06e942" y="111.645295"/>
     <use style="fill:#ff7f0e;stroke:#ff7f0e;" x="176.037041" xlink:href="#mf1ff06e942" y="111.590838"/>
     <use style="fill:#ff7f0e;stroke:#ff7f0e;" x="176.145068" xlink:href="#mf1ff06e942" y="111.416576"/>
     <use style="fill:#ff7f0e;stroke:#ff7f0e;" x="176.253095" xlink:href="#mf1ff06e942" y="111.351228"/>
     <use style="fill:#ff7f0e;stroke:#ff7f0e;" x="176.361122" xlink:href="#mf1ff06e942" y="111.253205"/>
     <use style="fill:#ff7f0e;stroke:#ff7f0e;" x="176.469148" xlink:href="#mf1ff06e942" y="111.187857"/>
     <use style="fill:#ff7f0e;stroke:#ff7f0e;" x="176.577175" xlink:href="#mf1ff06e942" y="111.155182"/>
     <use style="fill:#ff7f0e;stroke:#ff7f0e;" x="176.685202" xlink:href="#mf1ff06e942" y="111.122508"/>
     <use style="fill:#ff7f0e;stroke:#ff7f0e;" x="176.793228" xlink:href="#mf1ff06e942" y="111.089834"/>
     <use style="fill:#ff7f0e;stroke:#ff7f0e;" x="176.901255" xlink:href="#mf1ff06e942" y="111.05716"/>
     <use style="fill:#ff7f0e;stroke:#ff7f0e;" x="177.009282" xlink:href="#mf1ff06e942" y="111.024486"/>
     <use style="fill:#ff7f0e;stroke:#ff7f0e;" x="177.117309" xlink:href="#mf1ff06e942" y="110.991811"/>
     <use style="fill:#ff7f0e;stroke:#ff7f0e;" x="177.225335" xlink:href="#mf1ff06e942" y="110.959137"/>
     <use style="fill:#ff7f0e;stroke:#ff7f0e;" x="177.333362" xlink:href="#mf1ff06e942" y="110.926463"/>
     <use style="fill:#ff7f0e;stroke:#ff7f0e;" x="177.441389" xlink:href="#mf1ff06e942" y="110.882897"/>
     <use style="fill:#ff7f0e;stroke:#ff7f0e;" x="177.549416" xlink:href="#mf1ff06e942" y="110.850223"/>
     <use style="fill:#ff7f0e;stroke:#ff7f0e;" x="177.657442" xlink:href="#mf1ff06e942" y="110.806658"/>
     <use style="fill:#ff7f0e;stroke:#ff7f0e;" x="177.765469" xlink:href="#mf1ff06e942" y="110.773983"/>
     <use style="fill:#ff7f0e;stroke:#ff7f0e;" x="177.873496" xlink:href="#mf1ff06e942" y="110.741309"/>
     <use style="fill:#ff7f0e;stroke:#ff7f0e;" x="177.981522" xlink:href="#mf1ff06e942" y="110.697744"/>
     <use style="fill:#ff7f0e;stroke:#ff7f0e;" x="179.06179" xlink:href="#mf1ff06e942" y="110.04426"/>
     <use style="fill:#ff7f0e;stroke:#ff7f0e;" x="180.142057" xlink:href="#mf1ff06e942" y="109.728409"/>
     <use style="fill:#ff7f0e;stroke:#ff7f0e;" x="181.222324" xlink:href="#mf1ff06e942" y="109.608604"/>
     <use style="fill:#ff7f0e;stroke:#ff7f0e;" x="182.302591" xlink:href="#mf1ff06e942" y="109.401667"/>
     <use style="fill:#ff7f0e;stroke:#ff7f0e;" x="183.382859" xlink:href="#mf1ff06e942" y="109.162057"/>
     <use style="fill:#ff7f0e;stroke:#ff7f0e;" x="184.463126" xlink:href="#mf1ff06e942" y="108.922446"/>
     <use style="fill:#ff7f0e;stroke:#ff7f0e;" x="185.543393" xlink:href="#mf1ff06e942" y="108.650161"/>
     <use style="fill:#ff7f0e;stroke:#ff7f0e;" x="186.62366" xlink:href="#mf1ff06e942" y="108.377876"/>
     <use style="fill:#ff7f0e;stroke:#ff7f0e;" x="197.426333" xlink:href="#mf1ff06e942" y="103.258919"/>
     <use style="fill:#ff7f0e;stroke:#ff7f0e;" x="208.229005" xlink:href="#mf1ff06e942" y="99.338015"/>
     <use style="fill:#ff7f0e;stroke:#ff7f0e;" x="219.031678" xlink:href="#mf1ff06e942" y="95.526026"/>
     <use style="fill:#ff7f0e;stroke:#ff7f0e;" x="229.83435" xlink:href="#mf1ff06e942" y="91.714037"/>
     <use style="fill:#ff7f0e;stroke:#ff7f0e;" x="240.637023" xlink:href="#mf1ff06e942" y="86.486166"/>
     <use style="fill:#ff7f0e;stroke:#ff7f0e;" x="251.439695" xlink:href="#mf1ff06e942" y="82.129606"/>
     <use style="fill:#ff7f0e;stroke:#ff7f0e;" x="262.242368" xlink:href="#mf1ff06e942" y="78.971101"/>
     <use style="fill:#ff7f0e;stroke:#ff7f0e;" x="273.04504" xlink:href="#mf1ff06e942" y="76.030423"/>
     <use style="fill:#ff7f0e;stroke:#ff7f0e;" x="283.847713" xlink:href="#mf1ff06e942" y="74.069972"/>
    </g>
   </g>
   <g id="line2d_34">
    <path clip-path="url(#p4c75bd3c6f)" d="M 175.929015 111.645295 
L 176.037041 111.645295 
L 176.145068 111.641592 
L 176.253095 111.6087 
L 176.361122 111.517866 
L 176.469148 111.352317 
L 176.577175 111.102904 
L 176.685202 110.865471 
L 176.793228 110.807747 
L 176.901255 110.747844 
L 177.009282 110.685763 
L 177.117309 110.620415 
L 177.225335 110.556156 
L 177.333362 110.479916 
L 177.441389 110.414567 
L 177.549416 110.338328 
L 177.657442 110.262088 
L 177.765469 110.185848 
L 177.873496 110.098717 
L 177.981522 110.022477 
L 179.06179 109.053143 
L 180.142057 107.855089 
L 181.222324 106.700601 
L 182.302591 105.91642 
L 183.382859 105.066891 
L 184.463126 104.152013 
L 185.543393 103.182679 
L 186.62366 102.158888 
L 197.426333 91.822951 
L 208.229005 81.69395 
L 219.031678 71.129294 
L 229.83435 60.564638 
L 240.637023 50.871294 
L 251.439695 41.940347 
L 262.242368 34.534196 
L 273.04504 27.890444 
L 283.847713 23.098228 
" style="fill:none;stroke:#2ca02c;stroke-linecap:square;stroke-width:1.5;"/>
    <g clip-path="url(#p4c75bd3c6f)">
     <use style="fill:#2ca02c;stroke:#2ca02c;" x="175.929015" xlink:href="#mf74d9a11cd" y="111.645295"/>
     <use style="fill:#2ca02c;stroke:#2ca02c;" x="176.037041" xlink:href="#mf74d9a11cd" y="111.645295"/>
     <use style="fill:#2ca02c;stroke:#2ca02c;" x="176.145068" xlink:href="#mf74d9a11cd" y="111.641592"/>
     <use style="fill:#2ca02c;stroke:#2ca02c;" x="176.253095" xlink:href="#mf74d9a11cd" y="111.6087"/>
     <use style="fill:#2ca02c;stroke:#2ca02c;" x="176.361122" xlink:href="#mf74d9a11cd" y="111.517866"/>
     <use style="fill:#2ca02c;stroke:#2ca02c;" x="176.469148" xlink:href="#mf74d9a11cd" y="111.352317"/>
     <use style="fill:#2ca02c;stroke:#2ca02c;" x="176.577175" xlink:href="#mf74d9a11cd" y="111.102904"/>
     <use style="fill:#2ca02c;stroke:#2ca02c;" x="176.685202" xlink:href="#mf74d9a11cd" y="110.865471"/>
     <use style="fill:#2ca02c;stroke:#2ca02c;" x="176.793228" xlink:href="#mf74d9a11cd" y="110.807747"/>
     <use style="fill:#2ca02c;stroke:#2ca02c;" x="176.901255" xlink:href="#mf74d9a11cd" y="110.747844"/>
     <use style="fill:#2ca02c;stroke:#2ca02c;" x="177.009282" xlink:href="#mf74d9a11cd" y="110.685763"/>
     <use style="fill:#2ca02c;stroke:#2ca02c;" x="177.117309" xlink:href="#mf74d9a11cd" y="110.620415"/>
     <use style="fill:#2ca02c;stroke:#2ca02c;" x="177.225335" xlink:href="#mf74d9a11cd" y="110.556156"/>
     <use style="fill:#2ca02c;stroke:#2ca02c;" x="177.333362" xlink:href="#mf74d9a11cd" y="110.479916"/>
     <use style="fill:#2ca02c;stroke:#2ca02c;" x="177.441389" xlink:href="#mf74d9a11cd" y="110.414567"/>
     <use style="fill:#2ca02c;stroke:#2ca02c;" x="177.549416" xlink:href="#mf74d9a11cd" y="110.338328"/>
     <use style="fill:#2ca02c;stroke:#2ca02c;" x="177.657442" xlink:href="#mf74d9a11cd" y="110.262088"/>
     <use style="fill:#2ca02c;stroke:#2ca02c;" x="177.765469" xlink:href="#mf74d9a11cd" y="110.185848"/>
     <use style="fill:#2ca02c;stroke:#2ca02c;" x="177.873496" xlink:href="#mf74d9a11cd" y="110.098717"/>
     <use style="fill:#2ca02c;stroke:#2ca02c;" x="177.981522" xlink:href="#mf74d9a11cd" y="110.022477"/>
     <use style="fill:#2ca02c;stroke:#2ca02c;" x="179.06179" xlink:href="#mf74d9a11cd" y="109.053143"/>
     <use style="fill:#2ca02c;stroke:#2ca02c;" x="180.142057" xlink:href="#mf74d9a11cd" y="107.855089"/>
     <use style="fill:#2ca02c;stroke:#2ca02c;" x="181.222324" xlink:href="#mf74d9a11cd" y="106.700601"/>
     <use style="fill:#2ca02c;stroke:#2ca02c;" x="182.302591" xlink:href="#mf74d9a11cd" y="105.91642"/>
     <use style="fill:#2ca02c;stroke:#2ca02c;" x="183.382859" xlink:href="#mf74d9a11cd" y="105.066891"/>
     <use style="fill:#2ca02c;stroke:#2ca02c;" x="184.463126" xlink:href="#mf74d9a11cd" y="104.152013"/>
     <use style="fill:#2ca02c;stroke:#2ca02c;" x="185.543393" xlink:href="#mf74d9a11cd" y="103.182679"/>
     <use style="fill:#2ca02c;stroke:#2ca02c;" x="186.62366" xlink:href="#mf74d9a11cd" y="102.158888"/>
     <use style="fill:#2ca02c;stroke:#2ca02c;" x="197.426333" xlink:href="#mf74d9a11cd" y="91.822951"/>
     <use style="fill:#2ca02c;stroke:#2ca02c;" x="208.229005" xlink:href="#mf74d9a11cd" y="81.69395"/>
     <use style="fill:#2ca02c;stroke:#2ca02c;" x="219.031678" xlink:href="#mf74d9a11cd" y="71.129294"/>
     <use style="fill:#2ca02c;stroke:#2ca02c;" x="229.83435" xlink:href="#mf74d9a11cd" y="60.564638"/>
     <use style="fill:#2ca02c;stroke:#2ca02c;" x="240.637023" xlink:href="#mf74d9a11cd" y="50.871294"/>
     <use style="fill:#2ca02c;stroke:#2ca02c;" x="251.439695" xlink:href="#mf74d9a11cd" y="41.940347"/>
     <use style="fill:#2ca02c;stroke:#2ca02c;" x="262.242368" xlink:href="#mf74d9a11cd" y="34.534196"/>
     <use style="fill:#2ca02c;stroke:#2ca02c;" x="273.04504" xlink:href="#mf74d9a11cd" y="27.890444"/>
     <use style="fill:#2ca02c;stroke:#2ca02c;" x="283.847713" xlink:href="#mf74d9a11cd" y="23.098228"/>
    </g>
   </g>
   <g id="patch_9">
    <path d="M 170.419652 116.072649 
L 170.419652 18.670875 
" style="fill:none;stroke:#000000;stroke-linecap:square;stroke-linejoin:miter;stroke-width:0.8;"/>
   </g>
   <g id="patch_10">
    <path d="M 289.249049 116.072649 
L 289.249049 18.670875 
" style="fill:none;stroke:#000000;stroke-linecap:square;stroke-linejoin:miter;stroke-width:0.8;"/>
   </g>
   <g id="patch_11">
    <path d="M 170.419652 116.072649 
L 289.249049 116.072649 
" style="fill:none;stroke:#000000;stroke-linecap:square;stroke-linejoin:miter;stroke-width:0.8;"/>
   </g>
   <g id="patch_12">
    <path d="M 170.419652 18.670875 
L 289.249049 18.670875 
" style="fill:none;stroke:#000000;stroke-linecap:square;stroke-linejoin:miter;stroke-width:0.8;"/>
   </g>
   <g id="text_31">
    <!-- High powers -->
    <g transform="translate(207.4131 12.670875)scale(0.072 -0.072)">
     <defs>
      <path d="M 9.8125 72.90625 
L 19.671875 72.90625 
L 19.671875 43.015625 
L 55.515625 43.015625 
L 55.515625 72.90625 
L 65.375 72.90625 
L 65.375 0 
L 55.515625 0 
L 55.515625 34.71875 
L 19.671875 34.71875 
L 19.671875 0 
L 9.8125 0 
z
" id="DejaVuSans-72"/>
      <path d="M 54.890625 33.015625 
L 54.890625 0 
L 45.90625 0 
L 45.90625 32.71875 
Q 45.90625 40.484375 42.875 44.328125 
Q 39.84375 48.1875 33.796875 48.1875 
Q 26.515625 48.1875 22.3125 43.546875 
Q 18.109375 38.921875 18.109375 30.90625 
L 18.109375 0 
L 9.078125 0 
L 9.078125 75.984375 
L 18.109375 75.984375 
L 18.109375 46.1875 
Q 21.34375 51.125 25.703125 53.5625 
Q 30.078125 56 35.796875 56 
Q 45.21875 56 50.046875 50.171875 
Q 54.890625 44.34375 54.890625 33.015625 
z
" id="DejaVuSans-104"/>
     </defs>
     <use xlink:href="#DejaVuSans-72"/>
     <use x="75.195312" xlink:href="#DejaVuSans-105"/>
     <use x="102.978516" xlink:href="#DejaVuSans-103"/>
     <use x="166.455078" xlink:href="#DejaVuSans-104"/>
     <use x="229.833984" xlink:href="#DejaVuSans-32"/>
     <use x="261.621094" xlink:href="#DejaVuSans-112"/>
     <use x="325.097656" xlink:href="#DejaVuSans-111"/>
     <use x="386.279297" xlink:href="#DejaVuSans-119"/>
     <use x="468.066406" xlink:href="#DejaVuSans-101"/>
     <use x="529.589844" xlink:href="#DejaVuSans-114"/>
     <use x="570.703125" xlink:href="#DejaVuSans-115"/>
    </g>
   </g>
  </g>
 </g>
 <defs>
  <clipPath id="p15c8b9907a">
   <rect height="97.401774" width="118.829397" x="27.824375" y="18.670875"/>
  </clipPath>
  <clipPath id="p4c75bd3c6f">
   <rect height="97.401774" width="118.829397" x="170.419652" y="18.670875"/>
  </clipPath>
 </defs>
</svg>
