<?xml version="1.0" encoding="utf-8" standalone="no"?>
<!DOCTYPE svg PUBLIC "-//W3C//DTD SVG 1.1//EN"
  "http://www.w3.org/Graphics/SVG/1.1/DTD/svg11.dtd">
<!-- Created with matplotlib (https://matplotlib.org/) -->
<svg height="179.444993pt" version="1.1" viewBox="0 0 386.519735 179.444993" width="386.519735pt" xmlns="http://www.w3.org/2000/svg" xmlns:xlink="http://www.w3.org/1999/xlink">
 <defs>
  <style type="text/css">
*{stroke-linecap:butt;stroke-linejoin:round;}
  </style>
 </defs>
 <g id="figure_1">
  <g id="patch_1">
   <path d="M 0 179.444993 
L 386.519735 179.444993 
L 386.519735 -0 
L 0 -0 
z
" style="fill:#ffffff;"/>
  </g>
  <g id="axes_1">
   <g id="patch_2">
    <path d="M 27.824375 149.631243 
L 187.594993 149.631243 
L 187.594993 18.670875 
L 27.824375 18.670875 
z
" style="fill:#ffffff;"/>
   </g>
   <g id="matplotlib.axis_1">
    <g id="xtick_1">
     <g id="line2d_1">
      <defs>
       <path d="M 0 0 
L 0 3.5 
" id="mf11b61ce9f" style="stroke:#000000;stroke-width:0.8;"/>
      </defs>
      <g>
       <use style="stroke:#000000;stroke-width:0.8;" x="35.086676" xlink:href="#mf11b61ce9f" y="149.631243"/>
      </g>
     </g>
     <g id="text_1">
      <!-- 0 -->
      <defs>
       <path d="M 31.78125 66.40625 
Q 24.171875 66.40625 20.328125 58.90625 
Q 16.5 51.421875 16.5 36.375 
Q 16.5 21.390625 20.328125 13.890625 
Q 24.171875 6.390625 31.78125 6.390625 
Q 39.453125 6.390625 43.28125 13.890625 
Q 47.125 21.390625 47.125 36.375 
Q 47.125 51.421875 43.28125 58.90625 
Q 39.453125 66.40625 31.78125 66.40625 
z
M 31.78125 74.21875 
Q 44.046875 74.21875 50.515625 64.515625 
Q 56.984375 54.828125 56.984375 36.375 
Q 56.984375 17.96875 50.515625 8.265625 
Q 44.046875 -1.421875 31.78125 -1.421875 
Q 19.53125 -1.421875 13.0625 8.265625 
Q 6.59375 17.96875 6.59375 36.375 
Q 6.59375 54.828125 13.0625 64.515625 
Q 19.53125 74.21875 31.78125 74.21875 
z
" id="DejaVuSans-48"/>
      </defs>
      <g transform="translate(33.177926 161.190305)scale(0.06 -0.06)">
       <use xlink:href="#DejaVuSans-48"/>
      </g>
     </g>
    </g>
    <g id="xtick_2">
     <g id="line2d_2">
      <g>
       <use style="stroke:#000000;stroke-width:0.8;" x="64.135879" xlink:href="#mf11b61ce9f" y="149.631243"/>
      </g>
     </g>
     <g id="text_2">
      <!-- 1 -->
      <defs>
       <path d="M 12.40625 8.296875 
L 28.515625 8.296875 
L 28.515625 63.921875 
L 10.984375 60.40625 
L 10.984375 69.390625 
L 28.421875 72.90625 
L 38.28125 72.90625 
L 38.28125 8.296875 
L 54.390625 8.296875 
L 54.390625 0 
L 12.40625 0 
z
" id="DejaVuSans-49"/>
      </defs>
      <g transform="translate(62.227129 161.190305)scale(0.06 -0.06)">
       <use xlink:href="#DejaVuSans-49"/>
      </g>
     </g>
    </g>
    <g id="xtick_3">
     <g id="line2d_3">
      <g>
       <use style="stroke:#000000;stroke-width:0.8;" x="93.185082" xlink:href="#mf11b61ce9f" y="149.631243"/>
      </g>
     </g>
     <g id="text_3">
      <!-- 2 -->
      <defs>
       <path d="M 19.1875 8.296875 
L 53.609375 8.296875 
L 53.609375 0 
L 7.328125 0 
L 7.328125 8.296875 
Q 12.9375 14.109375 22.625 23.890625 
Q 32.328125 33.6875 34.8125 36.53125 
Q 39.546875 41.84375 41.421875 45.53125 
Q 43.3125 49.21875 43.3125 52.78125 
Q 43.3125 58.59375 39.234375 62.25 
Q 35.15625 65.921875 28.609375 65.921875 
Q 23.96875 65.921875 18.8125 64.3125 
Q 13.671875 62.703125 7.8125 59.421875 
L 7.8125 69.390625 
Q 13.765625 71.78125 18.9375 73 
Q 24.125 74.21875 28.421875 74.21875 
Q 39.75 74.21875 46.484375 68.546875 
Q 53.21875 62.890625 53.21875 53.421875 
Q 53.21875 48.921875 51.53125 44.890625 
Q 49.859375 40.875 45.40625 35.40625 
Q 44.1875 33.984375 37.640625 27.21875 
Q 31.109375 20.453125 19.1875 8.296875 
z
" id="DejaVuSans-50"/>
      </defs>
      <g transform="translate(91.276332 161.190305)scale(0.06 -0.06)">
       <use xlink:href="#DejaVuSans-50"/>
      </g>
     </g>
    </g>
    <g id="xtick_4">
     <g id="line2d_4">
      <g>
       <use style="stroke:#000000;stroke-width:0.8;" x="122.234286" xlink:href="#mf11b61ce9f" y="149.631243"/>
      </g>
     </g>
     <g id="text_4">
      <!-- 3 -->
      <defs>
       <path d="M 40.578125 39.3125 
Q 47.65625 37.796875 51.625 33 
Q 55.609375 28.21875 55.609375 21.1875 
Q 55.609375 10.40625 48.1875 4.484375 
Q 40.765625 -1.421875 27.09375 -1.421875 
Q 22.515625 -1.421875 17.65625 -0.515625 
Q 12.796875 0.390625 7.625 2.203125 
L 7.625 11.71875 
Q 11.71875 9.328125 16.59375 8.109375 
Q 21.484375 6.890625 26.8125 6.890625 
Q 36.078125 6.890625 40.9375 10.546875 
Q 45.796875 14.203125 45.796875 21.1875 
Q 45.796875 27.640625 41.28125 31.265625 
Q 36.765625 34.90625 28.71875 34.90625 
L 20.21875 34.90625 
L 20.21875 43.015625 
L 29.109375 43.015625 
Q 36.375 43.015625 40.234375 45.921875 
Q 44.09375 48.828125 44.09375 54.296875 
Q 44.09375 59.90625 40.109375 62.90625 
Q 36.140625 65.921875 28.71875 65.921875 
Q 24.65625 65.921875 20.015625 65.03125 
Q 15.375 64.15625 9.8125 62.3125 
L 9.8125 71.09375 
Q 15.4375 72.65625 20.34375 73.4375 
Q 25.25 74.21875 29.59375 74.21875 
Q 40.828125 74.21875 47.359375 69.109375 
Q 53.90625 64.015625 53.90625 55.328125 
Q 53.90625 49.265625 50.4375 45.09375 
Q 46.96875 40.921875 40.578125 39.3125 
z
" id="DejaVuSans-51"/>
      </defs>
      <g transform="translate(120.325536 161.190305)scale(0.06 -0.06)">
       <use xlink:href="#DejaVuSans-51"/>
      </g>
     </g>
    </g>
    <g id="xtick_5">
     <g id="line2d_5">
      <g>
       <use style="stroke:#000000;stroke-width:0.8;" x="151.283489" xlink:href="#mf11b61ce9f" y="149.631243"/>
      </g>
     </g>
     <g id="text_5">
      <!-- 4 -->
      <defs>
       <path d="M 37.796875 64.3125 
L 12.890625 25.390625 
L 37.796875 25.390625 
z
M 35.203125 72.90625 
L 47.609375 72.90625 
L 47.609375 25.390625 
L 58.015625 25.390625 
L 58.015625 17.1875 
L 47.609375 17.1875 
L 47.609375 0 
L 37.796875 0 
L 37.796875 17.1875 
L 4.890625 17.1875 
L 4.890625 26.703125 
z
" id="DejaVuSans-52"/>
      </defs>
      <g transform="translate(149.374739 161.190305)scale(0.06 -0.06)">
       <use xlink:href="#DejaVuSans-52"/>
      </g>
     </g>
    </g>
    <g id="xtick_6">
     <g id="line2d_6">
      <g>
       <use style="stroke:#000000;stroke-width:0.8;" x="180.332692" xlink:href="#mf11b61ce9f" y="149.631243"/>
      </g>
     </g>
     <g id="text_6">
      <!-- 5 -->
      <defs>
       <path d="M 10.796875 72.90625 
L 49.515625 72.90625 
L 49.515625 64.59375 
L 19.828125 64.59375 
L 19.828125 46.734375 
Q 21.96875 47.46875 24.109375 47.828125 
Q 26.265625 48.1875 28.421875 48.1875 
Q 40.625 48.1875 47.75 41.5 
Q 54.890625 34.8125 54.890625 23.390625 
Q 54.890625 11.625 47.5625 5.09375 
Q 40.234375 -1.421875 26.90625 -1.421875 
Q 22.3125 -1.421875 17.546875 -0.640625 
Q 12.796875 0.140625 7.71875 1.703125 
L 7.71875 11.625 
Q 12.109375 9.234375 16.796875 8.0625 
Q 21.484375 6.890625 26.703125 6.890625 
Q 35.15625 6.890625 40.078125 11.328125 
Q 45.015625 15.765625 45.015625 23.390625 
Q 45.015625 31 40.078125 35.4375 
Q 35.15625 39.890625 26.703125 39.890625 
Q 22.75 39.890625 18.8125 39.015625 
Q 14.890625 38.140625 10.796875 36.28125 
z
" id="DejaVuSans-53"/>
      </defs>
      <g transform="translate(178.423942 161.190305)scale(0.06 -0.06)">
       <use xlink:href="#DejaVuSans-53"/>
      </g>
     </g>
    </g>
    <g id="text_7">
     <!-- Power setting (%) -->
     <defs>
      <path d="M 19.671875 64.796875 
L 19.671875 37.40625 
L 32.078125 37.40625 
Q 38.96875 37.40625 42.71875 40.96875 
Q 46.484375 44.53125 46.484375 51.125 
Q 46.484375 57.671875 42.71875 61.234375 
Q 38.96875 64.796875 32.078125 64.796875 
z
M 9.8125 72.90625 
L 32.078125 72.90625 
Q 44.34375 72.90625 50.609375 67.359375 
Q 56.890625 61.8125 56.890625 51.125 
Q 56.890625 40.328125 50.609375 34.8125 
Q 44.34375 29.296875 32.078125 29.296875 
L 19.671875 29.296875 
L 19.671875 0 
L 9.8125 0 
z
" id="DejaVuSans-80"/>
      <path d="M 30.609375 48.390625 
Q 23.390625 48.390625 19.1875 42.75 
Q 14.984375 37.109375 14.984375 27.296875 
Q 14.984375 17.484375 19.15625 11.84375 
Q 23.34375 6.203125 30.609375 6.203125 
Q 37.796875 6.203125 41.984375 11.859375 
Q 46.1875 17.53125 46.1875 27.296875 
Q 46.1875 37.015625 41.984375 42.703125 
Q 37.796875 48.390625 30.609375 48.390625 
z
M 30.609375 56 
Q 42.328125 56 49.015625 48.375 
Q 55.71875 40.765625 55.71875 27.296875 
Q 55.71875 13.875 49.015625 6.21875 
Q 42.328125 -1.421875 30.609375 -1.421875 
Q 18.84375 -1.421875 12.171875 6.21875 
Q 5.515625 13.875 5.515625 27.296875 
Q 5.515625 40.765625 12.171875 48.375 
Q 18.84375 56 30.609375 56 
z
" id="DejaVuSans-111"/>
      <path d="M 4.203125 54.6875 
L 13.1875 54.6875 
L 24.421875 12.015625 
L 35.59375 54.6875 
L 46.1875 54.6875 
L 57.421875 12.015625 
L 68.609375 54.6875 
L 77.59375 54.6875 
L 63.28125 0 
L 52.6875 0 
L 40.921875 44.828125 
L 29.109375 0 
L 18.5 0 
z
" id="DejaVuSans-119"/>
      <path d="M 56.203125 29.59375 
L 56.203125 25.203125 
L 14.890625 25.203125 
Q 15.484375 15.921875 20.484375 11.0625 
Q 25.484375 6.203125 34.421875 6.203125 
Q 39.59375 6.203125 44.453125 7.46875 
Q 49.3125 8.734375 54.109375 11.28125 
L 54.109375 2.78125 
Q 49.265625 0.734375 44.1875 -0.34375 
Q 39.109375 -1.421875 33.890625 -1.421875 
Q 20.796875 -1.421875 13.15625 6.1875 
Q 5.515625 13.8125 5.515625 26.8125 
Q 5.515625 40.234375 12.765625 48.109375 
Q 20.015625 56 32.328125 56 
Q 43.359375 56 49.78125 48.890625 
Q 56.203125 41.796875 56.203125 29.59375 
z
M 47.21875 32.234375 
Q 47.125 39.59375 43.09375 43.984375 
Q 39.0625 48.390625 32.421875 48.390625 
Q 24.90625 48.390625 20.390625 44.140625 
Q 15.875 39.890625 15.1875 32.171875 
z
" id="DejaVuSans-101"/>
      <path d="M 41.109375 46.296875 
Q 39.59375 47.171875 37.8125 47.578125 
Q 36.03125 48 33.890625 48 
Q 26.265625 48 22.1875 43.046875 
Q 18.109375 38.09375 18.109375 28.8125 
L 18.109375 0 
L 9.078125 0 
L 9.078125 54.6875 
L 18.109375 54.6875 
L 18.109375 46.1875 
Q 20.953125 51.171875 25.484375 53.578125 
Q 30.03125 56 36.53125 56 
Q 37.453125 56 38.578125 55.875 
Q 39.703125 55.765625 41.0625 55.515625 
z
" id="DejaVuSans-114"/>
      <path id="DejaVuSans-32"/>
      <path d="M 44.28125 53.078125 
L 44.28125 44.578125 
Q 40.484375 46.53125 36.375 47.5 
Q 32.28125 48.484375 27.875 48.484375 
Q 21.1875 48.484375 17.84375 46.4375 
Q 14.5 44.390625 14.5 40.28125 
Q 14.5 37.15625 16.890625 35.375 
Q 19.28125 33.59375 26.515625 31.984375 
L 29.59375 31.296875 
Q 39.15625 29.25 43.1875 25.515625 
Q 47.21875 21.78125 47.21875 15.09375 
Q 47.21875 7.46875 41.1875 3.015625 
Q 35.15625 -1.421875 24.609375 -1.421875 
Q 20.21875 -1.421875 15.453125 -0.5625 
Q 10.6875 0.296875 5.421875 2 
L 5.421875 11.28125 
Q 10.40625 8.6875 15.234375 7.390625 
Q 20.0625 6.109375 24.8125 6.109375 
Q 31.15625 6.109375 34.5625 8.28125 
Q 37.984375 10.453125 37.984375 14.40625 
Q 37.984375 18.0625 35.515625 20.015625 
Q 33.0625 21.96875 24.703125 23.78125 
L 21.578125 24.515625 
Q 13.234375 26.265625 9.515625 29.90625 
Q 5.8125 33.546875 5.8125 39.890625 
Q 5.8125 47.609375 11.28125 51.796875 
Q 16.75 56 26.8125 56 
Q 31.78125 56 36.171875 55.265625 
Q 40.578125 54.546875 44.28125 53.078125 
z
" id="DejaVuSans-115"/>
      <path d="M 18.3125 70.21875 
L 18.3125 54.6875 
L 36.8125 54.6875 
L 36.8125 47.703125 
L 18.3125 47.703125 
L 18.3125 18.015625 
Q 18.3125 11.328125 20.140625 9.421875 
Q 21.96875 7.515625 27.59375 7.515625 
L 36.8125 7.515625 
L 36.8125 0 
L 27.59375 0 
Q 17.1875 0 13.234375 3.875 
Q 9.28125 7.765625 9.28125 18.015625 
L 9.28125 47.703125 
L 2.6875 47.703125 
L 2.6875 54.6875 
L 9.28125 54.6875 
L 9.28125 70.21875 
z
" id="DejaVuSans-116"/>
      <path d="M 9.421875 54.6875 
L 18.40625 54.6875 
L 18.40625 0 
L 9.421875 0 
z
M 9.421875 75.984375 
L 18.40625 75.984375 
L 18.40625 64.59375 
L 9.421875 64.59375 
z
" id="DejaVuSans-105"/>
      <path d="M 54.890625 33.015625 
L 54.890625 0 
L 45.90625 0 
L 45.90625 32.71875 
Q 45.90625 40.484375 42.875 44.328125 
Q 39.84375 48.1875 33.796875 48.1875 
Q 26.515625 48.1875 22.3125 43.546875 
Q 18.109375 38.921875 18.109375 30.90625 
L 18.109375 0 
L 9.078125 0 
L 9.078125 54.6875 
L 18.109375 54.6875 
L 18.109375 46.1875 
Q 21.34375 51.125 25.703125 53.5625 
Q 30.078125 56 35.796875 56 
Q 45.21875 56 50.046875 50.171875 
Q 54.890625 44.34375 54.890625 33.015625 
z
" id="DejaVuSans-110"/>
      <path d="M 45.40625 27.984375 
Q 45.40625 37.75 41.375 43.109375 
Q 37.359375 48.484375 30.078125 48.484375 
Q 22.859375 48.484375 18.828125 43.109375 
Q 14.796875 37.75 14.796875 27.984375 
Q 14.796875 18.265625 18.828125 12.890625 
Q 22.859375 7.515625 30.078125 7.515625 
Q 37.359375 7.515625 41.375 12.890625 
Q 45.40625 18.265625 45.40625 27.984375 
z
M 54.390625 6.78125 
Q 54.390625 -7.171875 48.1875 -13.984375 
Q 42 -20.796875 29.203125 -20.796875 
Q 24.46875 -20.796875 20.265625 -20.09375 
Q 16.0625 -19.390625 12.109375 -17.921875 
L 12.109375 -9.1875 
Q 16.0625 -11.328125 19.921875 -12.34375 
Q 23.78125 -13.375 27.78125 -13.375 
Q 36.625 -13.375 41.015625 -8.765625 
Q 45.40625 -4.15625 45.40625 5.171875 
L 45.40625 9.625 
Q 42.625 4.78125 38.28125 2.390625 
Q 33.9375 0 27.875 0 
Q 17.828125 0 11.671875 7.65625 
Q 5.515625 15.328125 5.515625 27.984375 
Q 5.515625 40.671875 11.671875 48.328125 
Q 17.828125 56 27.875 56 
Q 33.9375 56 38.28125 53.609375 
Q 42.625 51.21875 45.40625 46.390625 
L 45.40625 54.6875 
L 54.390625 54.6875 
z
" id="DejaVuSans-103"/>
      <path d="M 31 75.875 
Q 24.46875 64.65625 21.28125 53.65625 
Q 18.109375 42.671875 18.109375 31.390625 
Q 18.109375 20.125 21.3125 9.0625 
Q 24.515625 -2 31 -13.1875 
L 23.1875 -13.1875 
Q 15.875 -1.703125 12.234375 9.375 
Q 8.59375 20.453125 8.59375 31.390625 
Q 8.59375 42.28125 12.203125 53.3125 
Q 15.828125 64.359375 23.1875 75.875 
z
" id="DejaVuSans-40"/>
      <path d="M 72.703125 32.078125 
Q 68.453125 32.078125 66.03125 28.46875 
Q 63.625 24.859375 63.625 18.40625 
Q 63.625 12.0625 66.03125 8.421875 
Q 68.453125 4.78125 72.703125 4.78125 
Q 76.859375 4.78125 79.265625 8.421875 
Q 81.6875 12.0625 81.6875 18.40625 
Q 81.6875 24.8125 79.265625 28.4375 
Q 76.859375 32.078125 72.703125 32.078125 
z
M 72.703125 38.28125 
Q 80.421875 38.28125 84.953125 32.90625 
Q 89.5 27.546875 89.5 18.40625 
Q 89.5 9.28125 84.9375 3.921875 
Q 80.375 -1.421875 72.703125 -1.421875 
Q 64.890625 -1.421875 60.34375 3.921875 
Q 55.8125 9.28125 55.8125 18.40625 
Q 55.8125 27.59375 60.375 32.9375 
Q 64.9375 38.28125 72.703125 38.28125 
z
M 22.3125 68.015625 
Q 18.109375 68.015625 15.6875 64.375 
Q 13.28125 60.75 13.28125 54.390625 
Q 13.28125 47.953125 15.671875 44.328125 
Q 18.0625 40.71875 22.3125 40.71875 
Q 26.5625 40.71875 28.96875 44.328125 
Q 31.390625 47.953125 31.390625 54.390625 
Q 31.390625 60.6875 28.953125 64.34375 
Q 26.515625 68.015625 22.3125 68.015625 
z
M 66.40625 74.21875 
L 74.21875 74.21875 
L 28.609375 -1.421875 
L 20.796875 -1.421875 
z
M 22.3125 74.21875 
Q 30.03125 74.21875 34.609375 68.875 
Q 39.203125 63.53125 39.203125 54.390625 
Q 39.203125 45.171875 34.640625 39.84375 
Q 30.078125 34.515625 22.3125 34.515625 
Q 14.546875 34.515625 10.03125 39.859375 
Q 5.515625 45.21875 5.515625 54.390625 
Q 5.515625 63.484375 10.046875 68.84375 
Q 14.59375 74.21875 22.3125 74.21875 
z
" id="DejaVuSans-37"/>
      <path d="M 8.015625 75.875 
L 15.828125 75.875 
Q 23.140625 64.359375 26.78125 53.3125 
Q 30.421875 42.28125 30.421875 31.390625 
Q 30.421875 20.453125 26.78125 9.375 
Q 23.140625 -1.703125 15.828125 -13.1875 
L 8.015625 -13.1875 
Q 14.5 -2 17.703125 9.0625 
Q 20.90625 20.125 20.90625 31.390625 
Q 20.90625 42.671875 17.703125 53.65625 
Q 14.5 64.65625 8.015625 75.875 
z
" id="DejaVuSans-41"/>
     </defs>
     <g transform="translate(81.142809 170.99718)scale(0.06 -0.06)">
      <use xlink:href="#DejaVuSans-80"/>
      <use x="56.677734" xlink:href="#DejaVuSans-111"/>
      <use x="117.859375" xlink:href="#DejaVuSans-119"/>
      <use x="199.646484" xlink:href="#DejaVuSans-101"/>
      <use x="261.169922" xlink:href="#DejaVuSans-114"/>
      <use x="302.283203" xlink:href="#DejaVuSans-32"/>
      <use x="334.070312" xlink:href="#DejaVuSans-115"/>
      <use x="386.169922" xlink:href="#DejaVuSans-101"/>
      <use x="447.693359" xlink:href="#DejaVuSans-116"/>
      <use x="486.902344" xlink:href="#DejaVuSans-116"/>
      <use x="526.111328" xlink:href="#DejaVuSans-105"/>
      <use x="553.894531" xlink:href="#DejaVuSans-110"/>
      <use x="617.273438" xlink:href="#DejaVuSans-103"/>
      <use x="680.75" xlink:href="#DejaVuSans-32"/>
      <use x="712.537109" xlink:href="#DejaVuSans-40"/>
      <use x="751.550781" xlink:href="#DejaVuSans-37"/>
      <use x="846.570312" xlink:href="#DejaVuSans-41"/>
     </g>
    </g>
   </g>
   <g id="matplotlib.axis_2">
    <g id="ytick_1">
     <g id="line2d_7">
      <defs>
       <path d="M 0 0 
L -3.5 0 
" id="m9409a37c42" style="stroke:#000000;stroke-width:0.8;"/>
      </defs>
      <g>
       <use style="stroke:#000000;stroke-width:0.8;" x="27.824375" xlink:href="#m9409a37c42" y="143.678499"/>
      </g>
     </g>
     <g id="text_8">
      <!-- 0 -->
      <g transform="translate(17.006875 145.95803)scale(0.06 -0.06)">
       <use xlink:href="#DejaVuSans-48"/>
      </g>
     </g>
    </g>
    <g id="ytick_2">
     <g id="line2d_8">
      <g>
       <use style="stroke:#000000;stroke-width:0.8;" x="27.824375" xlink:href="#m9409a37c42" y="117.454957"/>
      </g>
     </g>
     <g id="text_9">
      <!-- 1 -->
      <g transform="translate(17.006875 119.734488)scale(0.06 -0.06)">
       <use xlink:href="#DejaVuSans-49"/>
      </g>
     </g>
    </g>
    <g id="ytick_3">
     <g id="line2d_9">
      <g>
       <use style="stroke:#000000;stroke-width:0.8;" x="27.824375" xlink:href="#m9409a37c42" y="91.231415"/>
      </g>
     </g>
     <g id="text_10">
      <!-- 2 -->
      <g transform="translate(17.006875 93.510947)scale(0.06 -0.06)">
       <use xlink:href="#DejaVuSans-50"/>
      </g>
     </g>
    </g>
    <g id="ytick_4">
     <g id="line2d_10">
      <g>
       <use style="stroke:#000000;stroke-width:0.8;" x="27.824375" xlink:href="#m9409a37c42" y="65.007873"/>
      </g>
     </g>
     <g id="text_11">
      <!-- 3 -->
      <g transform="translate(17.006875 67.287405)scale(0.06 -0.06)">
       <use xlink:href="#DejaVuSans-51"/>
      </g>
     </g>
    </g>
    <g id="ytick_5">
     <g id="line2d_11">
      <g>
       <use style="stroke:#000000;stroke-width:0.8;" x="27.824375" xlink:href="#m9409a37c42" y="38.784332"/>
      </g>
     </g>
     <g id="text_12">
      <!-- 4 -->
      <g transform="translate(17.006875 41.063863)scale(0.06 -0.06)">
       <use xlink:href="#DejaVuSans-52"/>
      </g>
     </g>
    </g>
    <g id="text_13">
     <!-- Measured power through 10x objective (μW) -->
     <defs>
      <path d="M 9.8125 72.90625 
L 24.515625 72.90625 
L 43.109375 23.296875 
L 61.8125 72.90625 
L 76.515625 72.90625 
L 76.515625 0 
L 66.890625 0 
L 66.890625 64.015625 
L 48.09375 14.015625 
L 38.1875 14.015625 
L 19.390625 64.015625 
L 19.390625 0 
L 9.8125 0 
z
" id="DejaVuSans-77"/>
      <path d="M 34.28125 27.484375 
Q 23.390625 27.484375 19.1875 25 
Q 14.984375 22.515625 14.984375 16.5 
Q 14.984375 11.71875 18.140625 8.90625 
Q 21.296875 6.109375 26.703125 6.109375 
Q 34.1875 6.109375 38.703125 11.40625 
Q 43.21875 16.703125 43.21875 25.484375 
L 43.21875 27.484375 
z
M 52.203125 31.203125 
L 52.203125 0 
L 43.21875 0 
L 43.21875 8.296875 
Q 40.140625 3.328125 35.546875 0.953125 
Q 30.953125 -1.421875 24.3125 -1.421875 
Q 15.921875 -1.421875 10.953125 3.296875 
Q 6 8.015625 6 15.921875 
Q 6 25.140625 12.171875 29.828125 
Q 18.359375 34.515625 30.609375 34.515625 
L 43.21875 34.515625 
L 43.21875 35.40625 
Q 43.21875 41.609375 39.140625 45 
Q 35.0625 48.390625 27.6875 48.390625 
Q 23 48.390625 18.546875 47.265625 
Q 14.109375 46.140625 10.015625 43.890625 
L 10.015625 52.203125 
Q 14.9375 54.109375 19.578125 55.046875 
Q 24.21875 56 28.609375 56 
Q 40.484375 56 46.34375 49.84375 
Q 52.203125 43.703125 52.203125 31.203125 
z
" id="DejaVuSans-97"/>
      <path d="M 8.5 21.578125 
L 8.5 54.6875 
L 17.484375 54.6875 
L 17.484375 21.921875 
Q 17.484375 14.15625 20.5 10.265625 
Q 23.53125 6.390625 29.59375 6.390625 
Q 36.859375 6.390625 41.078125 11.03125 
Q 45.3125 15.671875 45.3125 23.6875 
L 45.3125 54.6875 
L 54.296875 54.6875 
L 54.296875 0 
L 45.3125 0 
L 45.3125 8.40625 
Q 42.046875 3.421875 37.71875 1 
Q 33.40625 -1.421875 27.6875 -1.421875 
Q 18.265625 -1.421875 13.375 4.4375 
Q 8.5 10.296875 8.5 21.578125 
z
M 31.109375 56 
z
" id="DejaVuSans-117"/>
      <path d="M 45.40625 46.390625 
L 45.40625 75.984375 
L 54.390625 75.984375 
L 54.390625 0 
L 45.40625 0 
L 45.40625 8.203125 
Q 42.578125 3.328125 38.25 0.953125 
Q 33.9375 -1.421875 27.875 -1.421875 
Q 17.96875 -1.421875 11.734375 6.484375 
Q 5.515625 14.40625 5.515625 27.296875 
Q 5.515625 40.1875 11.734375 48.09375 
Q 17.96875 56 27.875 56 
Q 33.9375 56 38.25 53.625 
Q 42.578125 51.265625 45.40625 46.390625 
z
M 14.796875 27.296875 
Q 14.796875 17.390625 18.875 11.75 
Q 22.953125 6.109375 30.078125 6.109375 
Q 37.203125 6.109375 41.296875 11.75 
Q 45.40625 17.390625 45.40625 27.296875 
Q 45.40625 37.203125 41.296875 42.84375 
Q 37.203125 48.484375 30.078125 48.484375 
Q 22.953125 48.484375 18.875 42.84375 
Q 14.796875 37.203125 14.796875 27.296875 
z
" id="DejaVuSans-100"/>
      <path d="M 18.109375 8.203125 
L 18.109375 -20.796875 
L 9.078125 -20.796875 
L 9.078125 54.6875 
L 18.109375 54.6875 
L 18.109375 46.390625 
Q 20.953125 51.265625 25.265625 53.625 
Q 29.59375 56 35.59375 56 
Q 45.5625 56 51.78125 48.09375 
Q 58.015625 40.1875 58.015625 27.296875 
Q 58.015625 14.40625 51.78125 6.484375 
Q 45.5625 -1.421875 35.59375 -1.421875 
Q 29.59375 -1.421875 25.265625 0.953125 
Q 20.953125 3.328125 18.109375 8.203125 
z
M 48.6875 27.296875 
Q 48.6875 37.203125 44.609375 42.84375 
Q 40.53125 48.484375 33.40625 48.484375 
Q 26.265625 48.484375 22.1875 42.84375 
Q 18.109375 37.203125 18.109375 27.296875 
Q 18.109375 17.390625 22.1875 11.75 
Q 26.265625 6.109375 33.40625 6.109375 
Q 40.53125 6.109375 44.609375 11.75 
Q 48.6875 17.390625 48.6875 27.296875 
z
" id="DejaVuSans-112"/>
      <path d="M 54.890625 33.015625 
L 54.890625 0 
L 45.90625 0 
L 45.90625 32.71875 
Q 45.90625 40.484375 42.875 44.328125 
Q 39.84375 48.1875 33.796875 48.1875 
Q 26.515625 48.1875 22.3125 43.546875 
Q 18.109375 38.921875 18.109375 30.90625 
L 18.109375 0 
L 9.078125 0 
L 9.078125 75.984375 
L 18.109375 75.984375 
L 18.109375 46.1875 
Q 21.34375 51.125 25.703125 53.5625 
Q 30.078125 56 35.796875 56 
Q 45.21875 56 50.046875 50.171875 
Q 54.890625 44.34375 54.890625 33.015625 
z
" id="DejaVuSans-104"/>
      <path d="M 54.890625 54.6875 
L 35.109375 28.078125 
L 55.90625 0 
L 45.3125 0 
L 29.390625 21.484375 
L 13.484375 0 
L 2.875 0 
L 24.125 28.609375 
L 4.6875 54.6875 
L 15.28125 54.6875 
L 29.78125 35.203125 
L 44.28125 54.6875 
z
" id="DejaVuSans-120"/>
      <path d="M 48.6875 27.296875 
Q 48.6875 37.203125 44.609375 42.84375 
Q 40.53125 48.484375 33.40625 48.484375 
Q 26.265625 48.484375 22.1875 42.84375 
Q 18.109375 37.203125 18.109375 27.296875 
Q 18.109375 17.390625 22.1875 11.75 
Q 26.265625 6.109375 33.40625 6.109375 
Q 40.53125 6.109375 44.609375 11.75 
Q 48.6875 17.390625 48.6875 27.296875 
z
M 18.109375 46.390625 
Q 20.953125 51.265625 25.265625 53.625 
Q 29.59375 56 35.59375 56 
Q 45.5625 56 51.78125 48.09375 
Q 58.015625 40.1875 58.015625 27.296875 
Q 58.015625 14.40625 51.78125 6.484375 
Q 45.5625 -1.421875 35.59375 -1.421875 
Q 29.59375 -1.421875 25.265625 0.953125 
Q 20.953125 3.328125 18.109375 8.203125 
L 18.109375 0 
L 9.078125 0 
L 9.078125 75.984375 
L 18.109375 75.984375 
z
" id="DejaVuSans-98"/>
      <path d="M 9.421875 54.6875 
L 18.40625 54.6875 
L 18.40625 -0.984375 
Q 18.40625 -11.421875 14.421875 -16.109375 
Q 10.453125 -20.796875 1.609375 -20.796875 
L -1.8125 -20.796875 
L -1.8125 -13.1875 
L 0.59375 -13.1875 
Q 5.71875 -13.1875 7.5625 -10.8125 
Q 9.421875 -8.453125 9.421875 -0.984375 
z
M 9.421875 75.984375 
L 18.40625 75.984375 
L 18.40625 64.59375 
L 9.421875 64.59375 
z
" id="DejaVuSans-106"/>
      <path d="M 48.78125 52.59375 
L 48.78125 44.1875 
Q 44.96875 46.296875 41.140625 47.34375 
Q 37.3125 48.390625 33.40625 48.390625 
Q 24.65625 48.390625 19.8125 42.84375 
Q 14.984375 37.3125 14.984375 27.296875 
Q 14.984375 17.28125 19.8125 11.734375 
Q 24.65625 6.203125 33.40625 6.203125 
Q 37.3125 6.203125 41.140625 7.25 
Q 44.96875 8.296875 48.78125 10.40625 
L 48.78125 2.09375 
Q 45.015625 0.34375 40.984375 -0.53125 
Q 36.96875 -1.421875 32.421875 -1.421875 
Q 20.0625 -1.421875 12.78125 6.34375 
Q 5.515625 14.109375 5.515625 27.296875 
Q 5.515625 40.671875 12.859375 48.328125 
Q 20.21875 56 33.015625 56 
Q 37.15625 56 41.109375 55.140625 
Q 45.0625 54.296875 48.78125 52.59375 
z
" id="DejaVuSans-99"/>
      <path d="M 2.984375 54.6875 
L 12.5 54.6875 
L 29.59375 8.796875 
L 46.6875 54.6875 
L 56.203125 54.6875 
L 35.6875 0 
L 23.484375 0 
z
" id="DejaVuSans-118"/>
      <path d="M 8.5 -20.796875 
L 8.5 54.6875 
L 17.484375 54.6875 
L 17.484375 20.703125 
Q 17.484375 13.625 20.84375 10 
Q 24.21875 6.390625 30.8125 6.390625 
Q 38.03125 6.390625 41.671875 10.484375 
Q 45.3125 14.59375 45.3125 22.796875 
L 45.3125 54.6875 
L 54.296875 54.6875 
L 54.296875 12.59375 
Q 54.296875 9.671875 55.140625 8.28125 
Q 56 6.890625 57.8125 6.890625 
Q 58.25 6.890625 59.03125 7.15625 
Q 59.8125 7.421875 61.1875 8.015625 
L 61.1875 0.78125 
Q 59.1875 -0.34375 57.390625 -0.875 
Q 55.609375 -1.421875 53.90625 -1.421875 
Q 50.53125 -1.421875 48.53125 0.484375 
Q 46.53125 2.390625 45.796875 6.296875 
Q 43.359375 2.4375 39.8125 0.5 
Q 36.28125 -1.421875 31.5 -1.421875 
Q 26.515625 -1.421875 23.015625 0.484375 
Q 19.53125 2.390625 17.484375 6.203125 
L 17.484375 -20.796875 
z
" id="DejaVuSans-956"/>
      <path d="M 3.328125 72.90625 
L 13.28125 72.90625 
L 28.609375 11.28125 
L 43.890625 72.90625 
L 54.984375 72.90625 
L 70.3125 11.28125 
L 85.59375 72.90625 
L 95.609375 72.90625 
L 77.296875 0 
L 64.890625 0 
L 49.515625 63.28125 
L 33.984375 0 
L 21.578125 0 
z
" id="DejaVuSans-87"/>
     </defs>
     <g transform="translate(11.759062 151.139184)rotate(-90)scale(0.06 -0.06)">
      <use xlink:href="#DejaVuSans-77"/>
      <use x="86.279297" xlink:href="#DejaVuSans-101"/>
      <use x="147.802734" xlink:href="#DejaVuSans-97"/>
      <use x="209.082031" xlink:href="#DejaVuSans-115"/>
      <use x="261.181641" xlink:href="#DejaVuSans-117"/>
      <use x="324.560547" xlink:href="#DejaVuSans-114"/>
      <use x="363.423828" xlink:href="#DejaVuSans-101"/>
      <use x="424.947266" xlink:href="#DejaVuSans-100"/>
      <use x="488.423828" xlink:href="#DejaVuSans-32"/>
      <use x="520.210938" xlink:href="#DejaVuSans-112"/>
      <use x="583.6875" xlink:href="#DejaVuSans-111"/>
      <use x="644.869141" xlink:href="#DejaVuSans-119"/>
      <use x="726.65625" xlink:href="#DejaVuSans-101"/>
      <use x="788.179688" xlink:href="#DejaVuSans-114"/>
      <use x="829.292969" xlink:href="#DejaVuSans-32"/>
      <use x="861.080078" xlink:href="#DejaVuSans-116"/>
      <use x="900.289062" xlink:href="#DejaVuSans-104"/>
      <use x="963.667969" xlink:href="#DejaVuSans-114"/>
      <use x="1002.53125" xlink:href="#DejaVuSans-111"/>
      <use x="1063.712891" xlink:href="#DejaVuSans-117"/>
      <use x="1127.091797" xlink:href="#DejaVuSans-103"/>
      <use x="1190.568359" xlink:href="#DejaVuSans-104"/>
      <use x="1253.947266" xlink:href="#DejaVuSans-32"/>
      <use x="1285.734375" xlink:href="#DejaVuSans-49"/>
      <use x="1349.357422" xlink:href="#DejaVuSans-48"/>
      <use x="1412.980469" xlink:href="#DejaVuSans-120"/>
      <use x="1472.160156" xlink:href="#DejaVuSans-32"/>
      <use x="1503.947266" xlink:href="#DejaVuSans-111"/>
      <use x="1565.128906" xlink:href="#DejaVuSans-98"/>
      <use x="1628.605469" xlink:href="#DejaVuSans-106"/>
      <use x="1656.388672" xlink:href="#DejaVuSans-101"/>
      <use x="1717.912109" xlink:href="#DejaVuSans-99"/>
      <use x="1772.892578" xlink:href="#DejaVuSans-116"/>
      <use x="1812.101562" xlink:href="#DejaVuSans-105"/>
      <use x="1839.884766" xlink:href="#DejaVuSans-118"/>
      <use x="1899.064453" xlink:href="#DejaVuSans-101"/>
      <use x="1960.587891" xlink:href="#DejaVuSans-32"/>
      <use x="1992.375" xlink:href="#DejaVuSans-40"/>
      <use x="2031.388672" xlink:href="#DejaVuSans-956"/>
      <use x="2095.011719" xlink:href="#DejaVuSans-87"/>
      <use x="2193.888672" xlink:href="#DejaVuSans-41"/>
     </g>
    </g>
   </g>
   <g id="line2d_12">
    <path clip-path="url(#p748743d378)" d="M 35.086676 143.678499 
L 64.135879 143.678499 
L 67.040799 143.678499 
L 69.94572 143.416264 
L 72.85064 143.154028 
L 75.75556 142.891793 
L 78.660481 142.891793 
L 81.565401 142.629557 
L 84.470321 142.629557 
L 87.375242 142.629557 
L 90.280162 142.367322 
L 93.185082 142.367322 
L 96.090003 142.367322 
L 98.994923 142.105086 
L 101.899843 141.842851 
L 104.804764 141.056145 
L 107.709684 140.269439 
L 110.614604 138.696026 
L 113.519525 136.598143 
L 116.424445 133.451318 
L 119.329365 130.566728 
L 122.234286 130.304493 
L 151.283489 127.682138 
L 180.332692 125.059784 
" style="fill:none;stroke:#1f77b4;stroke-linecap:square;stroke-width:1.5;"/>
    <defs>
     <path d="M 0 0.75 
C 0.198902 0.75 0.389685 0.670975 0.53033 0.53033 
C 0.670975 0.389685 0.75 0.198902 0.75 0 
C 0.75 -0.198902 0.670975 -0.389685 0.53033 -0.53033 
C 0.389685 -0.670975 0.198902 -0.75 0 -0.75 
C -0.198902 -0.75 -0.389685 -0.670975 -0.53033 -0.53033 
C -0.670975 -0.389685 -0.75 -0.198902 -0.75 0 
C -0.75 0.198902 -0.670975 0.389685 -0.53033 0.53033 
C -0.389685 0.670975 -0.198902 0.75 0 0.75 
z
" id="me41cfbde57" style="stroke:#1f77b4;"/>
    </defs>
    <g clip-path="url(#p748743d378)">
     <use style="fill:#1f77b4;stroke:#1f77b4;" x="35.086676" xlink:href="#me41cfbde57" y="143.678499"/>
     <use style="fill:#1f77b4;stroke:#1f77b4;" x="64.135879" xlink:href="#me41cfbde57" y="143.678499"/>
     <use style="fill:#1f77b4;stroke:#1f77b4;" x="67.040799" xlink:href="#me41cfbde57" y="143.678499"/>
     <use style="fill:#1f77b4;stroke:#1f77b4;" x="69.94572" xlink:href="#me41cfbde57" y="143.416264"/>
     <use style="fill:#1f77b4;stroke:#1f77b4;" x="72.85064" xlink:href="#me41cfbde57" y="143.154028"/>
     <use style="fill:#1f77b4;stroke:#1f77b4;" x="75.75556" xlink:href="#me41cfbde57" y="142.891793"/>
     <use style="fill:#1f77b4;stroke:#1f77b4;" x="78.660481" xlink:href="#me41cfbde57" y="142.891793"/>
     <use style="fill:#1f77b4;stroke:#1f77b4;" x="81.565401" xlink:href="#me41cfbde57" y="142.629557"/>
     <use style="fill:#1f77b4;stroke:#1f77b4;" x="84.470321" xlink:href="#me41cfbde57" y="142.629557"/>
     <use style="fill:#1f77b4;stroke:#1f77b4;" x="87.375242" xlink:href="#me41cfbde57" y="142.629557"/>
     <use style="fill:#1f77b4;stroke:#1f77b4;" x="90.280162" xlink:href="#me41cfbde57" y="142.367322"/>
     <use style="fill:#1f77b4;stroke:#1f77b4;" x="93.185082" xlink:href="#me41cfbde57" y="142.367322"/>
     <use style="fill:#1f77b4;stroke:#1f77b4;" x="96.090003" xlink:href="#me41cfbde57" y="142.367322"/>
     <use style="fill:#1f77b4;stroke:#1f77b4;" x="98.994923" xlink:href="#me41cfbde57" y="142.105086"/>
     <use style="fill:#1f77b4;stroke:#1f77b4;" x="101.899843" xlink:href="#me41cfbde57" y="141.842851"/>
     <use style="fill:#1f77b4;stroke:#1f77b4;" x="104.804764" xlink:href="#me41cfbde57" y="141.056145"/>
     <use style="fill:#1f77b4;stroke:#1f77b4;" x="107.709684" xlink:href="#me41cfbde57" y="140.269439"/>
     <use style="fill:#1f77b4;stroke:#1f77b4;" x="110.614604" xlink:href="#me41cfbde57" y="138.696026"/>
     <use style="fill:#1f77b4;stroke:#1f77b4;" x="113.519525" xlink:href="#me41cfbde57" y="136.598143"/>
     <use style="fill:#1f77b4;stroke:#1f77b4;" x="116.424445" xlink:href="#me41cfbde57" y="133.451318"/>
     <use style="fill:#1f77b4;stroke:#1f77b4;" x="119.329365" xlink:href="#me41cfbde57" y="130.566728"/>
     <use style="fill:#1f77b4;stroke:#1f77b4;" x="122.234286" xlink:href="#me41cfbde57" y="130.304493"/>
     <use style="fill:#1f77b4;stroke:#1f77b4;" x="151.283489" xlink:href="#me41cfbde57" y="127.682138"/>
     <use style="fill:#1f77b4;stroke:#1f77b4;" x="180.332692" xlink:href="#me41cfbde57" y="125.059784"/>
    </g>
   </g>
   <g id="line2d_13">
    <path clip-path="url(#p748743d378)" d="M 35.086676 143.678499 
L 37.991596 143.678499 
L 40.896516 142.367322 
L 43.801437 138.171555 
L 46.706357 136.598143 
L 49.611277 134.238024 
L 52.516198 132.664611 
L 55.421118 131.877905 
L 58.326038 131.091199 
L 61.230959 130.304493 
L 64.135879 129.517786 
L 67.040799 128.73108 
L 69.94572 127.944374 
L 72.85064 127.157668 
L 75.75556 126.370961 
L 78.660481 125.32202 
L 81.565401 124.535313 
L 84.470321 123.486372 
L 87.375242 122.699666 
L 90.280162 121.912959 
L 93.185082 120.864018 
L 122.234286 105.129892 
L 151.283489 97.525065 
L 180.332692 94.640476 
" style="fill:none;stroke:#ff7f0e;stroke-linecap:square;stroke-width:1.5;"/>
    <defs>
     <path d="M 0 0.75 
C 0.198902 0.75 0.389685 0.670975 0.53033 0.53033 
C 0.670975 0.389685 0.75 0.198902 0.75 0 
C 0.75 -0.198902 0.670975 -0.389685 0.53033 -0.53033 
C 0.389685 -0.670975 0.198902 -0.75 0 -0.75 
C -0.198902 -0.75 -0.389685 -0.670975 -0.53033 -0.53033 
C -0.670975 -0.389685 -0.75 -0.198902 -0.75 0 
C -0.75 0.198902 -0.670975 0.389685 -0.53033 0.53033 
C -0.389685 0.670975 -0.198902 0.75 0 0.75 
z
" id="m2293d86df5" style="stroke:#ff7f0e;"/>
    </defs>
    <g clip-path="url(#p748743d378)">
     <use style="fill:#ff7f0e;stroke:#ff7f0e;" x="35.086676" xlink:href="#m2293d86df5" y="143.678499"/>
     <use style="fill:#ff7f0e;stroke:#ff7f0e;" x="37.991596" xlink:href="#m2293d86df5" y="143.678499"/>
     <use style="fill:#ff7f0e;stroke:#ff7f0e;" x="40.896516" xlink:href="#m2293d86df5" y="142.367322"/>
     <use style="fill:#ff7f0e;stroke:#ff7f0e;" x="43.801437" xlink:href="#m2293d86df5" y="138.171555"/>
     <use style="fill:#ff7f0e;stroke:#ff7f0e;" x="46.706357" xlink:href="#m2293d86df5" y="136.598143"/>
     <use style="fill:#ff7f0e;stroke:#ff7f0e;" x="49.611277" xlink:href="#m2293d86df5" y="134.238024"/>
     <use style="fill:#ff7f0e;stroke:#ff7f0e;" x="52.516198" xlink:href="#m2293d86df5" y="132.664611"/>
     <use style="fill:#ff7f0e;stroke:#ff7f0e;" x="55.421118" xlink:href="#m2293d86df5" y="131.877905"/>
     <use style="fill:#ff7f0e;stroke:#ff7f0e;" x="58.326038" xlink:href="#m2293d86df5" y="131.091199"/>
     <use style="fill:#ff7f0e;stroke:#ff7f0e;" x="61.230959" xlink:href="#m2293d86df5" y="130.304493"/>
     <use style="fill:#ff7f0e;stroke:#ff7f0e;" x="64.135879" xlink:href="#m2293d86df5" y="129.517786"/>
     <use style="fill:#ff7f0e;stroke:#ff7f0e;" x="67.040799" xlink:href="#m2293d86df5" y="128.73108"/>
     <use style="fill:#ff7f0e;stroke:#ff7f0e;" x="69.94572" xlink:href="#m2293d86df5" y="127.944374"/>
     <use style="fill:#ff7f0e;stroke:#ff7f0e;" x="72.85064" xlink:href="#m2293d86df5" y="127.157668"/>
     <use style="fill:#ff7f0e;stroke:#ff7f0e;" x="75.75556" xlink:href="#m2293d86df5" y="126.370961"/>
     <use style="fill:#ff7f0e;stroke:#ff7f0e;" x="78.660481" xlink:href="#m2293d86df5" y="125.32202"/>
     <use style="fill:#ff7f0e;stroke:#ff7f0e;" x="81.565401" xlink:href="#m2293d86df5" y="124.535313"/>
     <use style="fill:#ff7f0e;stroke:#ff7f0e;" x="84.470321" xlink:href="#m2293d86df5" y="123.486372"/>
     <use style="fill:#ff7f0e;stroke:#ff7f0e;" x="87.375242" xlink:href="#m2293d86df5" y="122.699666"/>
     <use style="fill:#ff7f0e;stroke:#ff7f0e;" x="90.280162" xlink:href="#m2293d86df5" y="121.912959"/>
     <use style="fill:#ff7f0e;stroke:#ff7f0e;" x="93.185082" xlink:href="#m2293d86df5" y="120.864018"/>
     <use style="fill:#ff7f0e;stroke:#ff7f0e;" x="122.234286" xlink:href="#m2293d86df5" y="105.129892"/>
     <use style="fill:#ff7f0e;stroke:#ff7f0e;" x="151.283489" xlink:href="#m2293d86df5" y="97.525065"/>
     <use style="fill:#ff7f0e;stroke:#ff7f0e;" x="180.332692" xlink:href="#m2293d86df5" y="94.640476"/>
    </g>
   </g>
   <g id="line2d_14">
    <path clip-path="url(#p748743d378)" d="M 37.991596 143.678499 
L 40.896516 143.678499 
L 43.801437 143.589339 
L 46.706357 142.797388 
L 49.611277 140.610345 
L 52.516198 136.624366 
L 55.421118 130.619175 
L 58.326038 124.902443 
L 61.230959 123.512595 
L 64.135879 122.070301 
L 67.040799 120.575559 
L 69.94572 119.002146 
L 72.85064 117.454957 
L 75.75556 115.619309 
L 78.660481 114.045897 
L 81.565401 112.210249 
L 84.470321 110.374601 
L 87.375242 108.538953 
L 90.280162 106.44107 
L 93.185082 104.605422 
L 122.234286 81.266469 
L 151.283489 52.420573 
L 180.332692 24.623619 
" style="fill:none;stroke:#2ca02c;stroke-linecap:square;stroke-width:1.5;"/>
    <defs>
     <path d="M 0 0.75 
C 0.198902 0.75 0.389685 0.670975 0.53033 0.53033 
C 0.670975 0.389685 0.75 0.198902 0.75 0 
C 0.75 -0.198902 0.670975 -0.389685 0.53033 -0.53033 
C 0.389685 -0.670975 0.198902 -0.75 0 -0.75 
C -0.198902 -0.75 -0.389685 -0.670975 -0.53033 -0.53033 
C -0.670975 -0.389685 -0.75 -0.198902 -0.75 0 
C -0.75 0.198902 -0.670975 0.389685 -0.53033 0.53033 
C -0.389685 0.670975 -0.198902 0.75 0 0.75 
z
" id="mbe2b17623e" style="stroke:#2ca02c;"/>
    </defs>
    <g clip-path="url(#p748743d378)">
     <use style="fill:#2ca02c;stroke:#2ca02c;" x="37.991596" xlink:href="#mbe2b17623e" y="143.678499"/>
     <use style="fill:#2ca02c;stroke:#2ca02c;" x="40.896516" xlink:href="#mbe2b17623e" y="143.678499"/>
     <use style="fill:#2ca02c;stroke:#2ca02c;" x="43.801437" xlink:href="#mbe2b17623e" y="143.589339"/>
     <use style="fill:#2ca02c;stroke:#2ca02c;" x="46.706357" xlink:href="#mbe2b17623e" y="142.797388"/>
     <use style="fill:#2ca02c;stroke:#2ca02c;" x="49.611277" xlink:href="#mbe2b17623e" y="140.610345"/>
     <use style="fill:#2ca02c;stroke:#2ca02c;" x="52.516198" xlink:href="#mbe2b17623e" y="136.624366"/>
     <use style="fill:#2ca02c;stroke:#2ca02c;" x="55.421118" xlink:href="#mbe2b17623e" y="130.619175"/>
     <use style="fill:#2ca02c;stroke:#2ca02c;" x="58.326038" xlink:href="#mbe2b17623e" y="124.902443"/>
     <use style="fill:#2ca02c;stroke:#2ca02c;" x="61.230959" xlink:href="#mbe2b17623e" y="123.512595"/>
     <use style="fill:#2ca02c;stroke:#2ca02c;" x="64.135879" xlink:href="#mbe2b17623e" y="122.070301"/>
     <use style="fill:#2ca02c;stroke:#2ca02c;" x="67.040799" xlink:href="#mbe2b17623e" y="120.575559"/>
     <use style="fill:#2ca02c;stroke:#2ca02c;" x="69.94572" xlink:href="#mbe2b17623e" y="119.002146"/>
     <use style="fill:#2ca02c;stroke:#2ca02c;" x="72.85064" xlink:href="#mbe2b17623e" y="117.454957"/>
     <use style="fill:#2ca02c;stroke:#2ca02c;" x="75.75556" xlink:href="#mbe2b17623e" y="115.619309"/>
     <use style="fill:#2ca02c;stroke:#2ca02c;" x="78.660481" xlink:href="#mbe2b17623e" y="114.045897"/>
     <use style="fill:#2ca02c;stroke:#2ca02c;" x="81.565401" xlink:href="#mbe2b17623e" y="112.210249"/>
     <use style="fill:#2ca02c;stroke:#2ca02c;" x="84.470321" xlink:href="#mbe2b17623e" y="110.374601"/>
     <use style="fill:#2ca02c;stroke:#2ca02c;" x="87.375242" xlink:href="#mbe2b17623e" y="108.538953"/>
     <use style="fill:#2ca02c;stroke:#2ca02c;" x="90.280162" xlink:href="#mbe2b17623e" y="106.44107"/>
     <use style="fill:#2ca02c;stroke:#2ca02c;" x="93.185082" xlink:href="#mbe2b17623e" y="104.605422"/>
     <use style="fill:#2ca02c;stroke:#2ca02c;" x="122.234286" xlink:href="#mbe2b17623e" y="81.266469"/>
     <use style="fill:#2ca02c;stroke:#2ca02c;" x="151.283489" xlink:href="#mbe2b17623e" y="52.420573"/>
     <use style="fill:#2ca02c;stroke:#2ca02c;" x="180.332692" xlink:href="#mbe2b17623e" y="24.623619"/>
    </g>
   </g>
   <g id="patch_3">
    <path d="M 27.824375 149.631243 
L 27.824375 18.670875 
" style="fill:none;stroke:#000000;stroke-linecap:square;stroke-linejoin:miter;stroke-width:0.8;"/>
   </g>
   <g id="patch_4">
    <path d="M 187.594993 149.631243 
L 187.594993 18.670875 
" style="fill:none;stroke:#000000;stroke-linecap:square;stroke-linejoin:miter;stroke-width:0.8;"/>
   </g>
   <g id="patch_5">
    <path d="M 27.824375 149.631243 
L 187.594993 149.631243 
" style="fill:none;stroke:#000000;stroke-linecap:square;stroke-linejoin:miter;stroke-width:0.8;"/>
   </g>
   <g id="patch_6">
    <path d="M 27.824375 18.670875 
L 187.594993 18.670875 
" style="fill:none;stroke:#000000;stroke-linecap:square;stroke-linejoin:miter;stroke-width:0.8;"/>
   </g>
   <g id="text_14">
    <!-- Low powers -->
    <defs>
     <path d="M 9.8125 72.90625 
L 19.671875 72.90625 
L 19.671875 8.296875 
L 55.171875 8.296875 
L 55.171875 0 
L 9.8125 0 
z
" id="DejaVuSans-76"/>
    </defs>
    <g transform="translate(86.473059 12.670875)scale(0.072 -0.072)">
     <use xlink:href="#DejaVuSans-76"/>
     <use x="53.962891" xlink:href="#DejaVuSans-111"/>
     <use x="115.144531" xlink:href="#DejaVuSans-119"/>
     <use x="196.931641" xlink:href="#DejaVuSans-32"/>
     <use x="228.71875" xlink:href="#DejaVuSans-112"/>
     <use x="292.195312" xlink:href="#DejaVuSans-111"/>
     <use x="353.376953" xlink:href="#DejaVuSans-119"/>
     <use x="435.164062" xlink:href="#DejaVuSans-101"/>
     <use x="496.6875" xlink:href="#DejaVuSans-114"/>
     <use x="537.800781" xlink:href="#DejaVuSans-115"/>
    </g>
   </g>
   <g id="legend_1">
    <g id="patch_7">
     <path d="M 32.024375 59.1915 
L 119.204375 59.1915 
Q 120.404375 59.1915 120.404375 57.9915 
L 120.404375 22.870875 
Q 120.404375 21.670875 119.204375 21.670875 
L 32.024375 21.670875 
Q 30.824375 21.670875 30.824375 22.870875 
L 30.824375 57.9915 
Q 30.824375 59.1915 32.024375 59.1915 
z
" style="fill:#ffffff;opacity:0.8;stroke:#cccccc;stroke-linejoin:miter;"/>
    </g>
    <g id="text_15">
     <!-- Laser source -->
     <g transform="translate(56.547969 28.629937)scale(0.06 -0.06)">
      <use xlink:href="#DejaVuSans-76"/>
      <use x="55.712891" xlink:href="#DejaVuSans-97"/>
      <use x="116.992188" xlink:href="#DejaVuSans-115"/>
      <use x="169.091797" xlink:href="#DejaVuSans-101"/>
      <use x="230.615234" xlink:href="#DejaVuSans-114"/>
      <use x="271.728516" xlink:href="#DejaVuSans-32"/>
      <use x="303.515625" xlink:href="#DejaVuSans-115"/>
      <use x="355.615234" xlink:href="#DejaVuSans-111"/>
      <use x="416.796875" xlink:href="#DejaVuSans-117"/>
      <use x="480.175781" xlink:href="#DejaVuSans-114"/>
      <use x="519.039062" xlink:href="#DejaVuSans-99"/>
      <use x="574.019531" xlink:href="#DejaVuSans-101"/>
     </g>
    </g>
    <g id="line2d_15">
     <path d="M 33.224375 35.336812 
L 45.224375 35.336812 
" style="fill:none;stroke:#1f77b4;stroke-linecap:square;stroke-width:1.5;"/>
    </g>
    <g id="line2d_16">
     <g>
      <use style="fill:#1f77b4;stroke:#1f77b4;" x="39.224375" xlink:href="#me41cfbde57" y="35.336812"/>
     </g>
    </g>
    <g id="text_16">
     <!-- 561 nm -->
     <defs>
      <path d="M 33.015625 40.375 
Q 26.375 40.375 22.484375 35.828125 
Q 18.609375 31.296875 18.609375 23.390625 
Q 18.609375 15.53125 22.484375 10.953125 
Q 26.375 6.390625 33.015625 6.390625 
Q 39.65625 6.390625 43.53125 10.953125 
Q 47.40625 15.53125 47.40625 23.390625 
Q 47.40625 31.296875 43.53125 35.828125 
Q 39.65625 40.375 33.015625 40.375 
z
M 52.59375 71.296875 
L 52.59375 62.3125 
Q 48.875 64.0625 45.09375 64.984375 
Q 41.3125 65.921875 37.59375 65.921875 
Q 27.828125 65.921875 22.671875 59.328125 
Q 17.53125 52.734375 16.796875 39.40625 
Q 19.671875 43.65625 24.015625 45.921875 
Q 28.375 48.1875 33.59375 48.1875 
Q 44.578125 48.1875 50.953125 41.515625 
Q 57.328125 34.859375 57.328125 23.390625 
Q 57.328125 12.15625 50.6875 5.359375 
Q 44.046875 -1.421875 33.015625 -1.421875 
Q 20.359375 -1.421875 13.671875 8.265625 
Q 6.984375 17.96875 6.984375 36.375 
Q 6.984375 53.65625 15.1875 63.9375 
Q 23.390625 74.21875 37.203125 74.21875 
Q 40.921875 74.21875 44.703125 73.484375 
Q 48.484375 72.75 52.59375 71.296875 
z
" id="DejaVuSans-54"/>
      <path d="M 52 44.1875 
Q 55.375 50.25 60.0625 53.125 
Q 64.75 56 71.09375 56 
Q 79.640625 56 84.28125 50.015625 
Q 88.921875 44.046875 88.921875 33.015625 
L 88.921875 0 
L 79.890625 0 
L 79.890625 32.71875 
Q 79.890625 40.578125 77.09375 44.375 
Q 74.3125 48.1875 68.609375 48.1875 
Q 61.625 48.1875 57.5625 43.546875 
Q 53.515625 38.921875 53.515625 30.90625 
L 53.515625 0 
L 44.484375 0 
L 44.484375 32.71875 
Q 44.484375 40.625 41.703125 44.40625 
Q 38.921875 48.1875 33.109375 48.1875 
Q 26.21875 48.1875 22.15625 43.53125 
Q 18.109375 38.875 18.109375 30.90625 
L 18.109375 0 
L 9.078125 0 
L 9.078125 54.6875 
L 18.109375 54.6875 
L 18.109375 46.1875 
Q 21.1875 51.21875 25.484375 53.609375 
Q 29.78125 56 35.6875 56 
Q 41.65625 56 45.828125 52.96875 
Q 50 49.953125 52 44.1875 
z
" id="DejaVuSans-109"/>
     </defs>
     <g transform="translate(50.024375 37.436812)scale(0.06 -0.06)">
      <use xlink:href="#DejaVuSans-53"/>
      <use x="63.623047" xlink:href="#DejaVuSans-54"/>
      <use x="127.246094" xlink:href="#DejaVuSans-49"/>
      <use x="190.869141" xlink:href="#DejaVuSans-32"/>
      <use x="222.65625" xlink:href="#DejaVuSans-110"/>
      <use x="286.035156" xlink:href="#DejaVuSans-109"/>
     </g>
    </g>
    <g id="line2d_17">
     <path d="M 33.224375 44.143687 
L 45.224375 44.143687 
" style="fill:none;stroke:#ff7f0e;stroke-linecap:square;stroke-width:1.5;"/>
    </g>
    <g id="line2d_18">
     <g>
      <use style="fill:#ff7f0e;stroke:#ff7f0e;" x="39.224375" xlink:href="#m2293d86df5" y="44.143687"/>
     </g>
    </g>
    <g id="text_17">
     <!-- 640 nm -->
     <g transform="translate(50.024375 46.243687)scale(0.06 -0.06)">
      <use xlink:href="#DejaVuSans-54"/>
      <use x="63.623047" xlink:href="#DejaVuSans-52"/>
      <use x="127.246094" xlink:href="#DejaVuSans-48"/>
      <use x="190.869141" xlink:href="#DejaVuSans-32"/>
      <use x="222.65625" xlink:href="#DejaVuSans-110"/>
      <use x="286.035156" xlink:href="#DejaVuSans-109"/>
     </g>
    </g>
    <g id="line2d_19">
     <path d="M 33.224375 53.443687 
L 45.224375 53.443687 
" style="fill:none;stroke:#2ca02c;stroke-linecap:square;stroke-width:1.5;"/>
    </g>
    <g id="line2d_20">
     <g>
      <use style="fill:#2ca02c;stroke:#2ca02c;" x="39.224375" xlink:href="#mbe2b17623e" y="53.443687"/>
     </g>
    </g>
    <g id="text_18">
     <!-- 775 nm, 1.2 W (x$ 10^{-3}$) -->
     <defs>
      <path d="M 8.203125 72.90625 
L 55.078125 72.90625 
L 55.078125 68.703125 
L 28.609375 0 
L 18.3125 0 
L 43.21875 64.59375 
L 8.203125 64.59375 
z
" id="DejaVuSans-55"/>
      <path d="M 11.71875 12.40625 
L 22.015625 12.40625 
L 22.015625 4 
L 14.015625 -11.625 
L 7.71875 -11.625 
L 11.71875 4 
z
" id="DejaVuSans-44"/>
      <path d="M 10.6875 12.40625 
L 21 12.40625 
L 21 0 
L 10.6875 0 
z
" id="DejaVuSans-46"/>
      <path d="M 10.59375 35.5 
L 73.1875 35.5 
L 73.1875 27.203125 
L 10.59375 27.203125 
z
" id="DejaVuSans-8722"/>
     </defs>
     <g transform="translate(50.024375 55.543687)scale(0.06 -0.06)">
      <use transform="translate(0 0.765625)" xlink:href="#DejaVuSans-55"/>
      <use transform="translate(61.873047 0.765625)" xlink:href="#DejaVuSans-55"/>
      <use transform="translate(125.496094 0.765625)" xlink:href="#DejaVuSans-53"/>
      <use transform="translate(189.119141 0.765625)" xlink:href="#DejaVuSans-32"/>
      <use transform="translate(220.90625 0.765625)" xlink:href="#DejaVuSans-110"/>
      <use transform="translate(284.285156 0.765625)" xlink:href="#DejaVuSans-109"/>
      <use transform="translate(381.697266 0.765625)" xlink:href="#DejaVuSans-44"/>
      <use transform="translate(413.484375 0.765625)" xlink:href="#DejaVuSans-32"/>
      <use transform="translate(445.271484 0.765625)" xlink:href="#DejaVuSans-49"/>
      <use transform="translate(508.894531 0.765625)" xlink:href="#DejaVuSans-46"/>
      <use transform="translate(535.181641 0.765625)" xlink:href="#DejaVuSans-50"/>
      <use transform="translate(598.804688 0.765625)" xlink:href="#DejaVuSans-32"/>
      <use transform="translate(630.591797 0.765625)" xlink:href="#DejaVuSans-87"/>
      <use transform="translate(729.46875 0.765625)" xlink:href="#DejaVuSans-32"/>
      <use transform="translate(761.255859 0.765625)" xlink:href="#DejaVuSans-40"/>
      <use transform="translate(800.269531 0.765625)" xlink:href="#DejaVuSans-120"/>
      <use transform="translate(859.449219 0.765625)" xlink:href="#DejaVuSans-49"/>
      <use transform="translate(923.072266 0.765625)" xlink:href="#DejaVuSans-48"/>
      <use transform="translate(987.652344 39.046875)scale(0.7)" xlink:href="#DejaVuSans-8722"/>
      <use transform="translate(1046.304688 39.046875)scale(0.7)" xlink:href="#DejaVuSans-51"/>
      <use transform="translate(1093.575195 0.765625)" xlink:href="#DejaVuSans-41"/>
     </g>
    </g>
   </g>
  </g>
  <g id="axes_2">
   <g id="patch_8">
    <path d="M 219.549117 149.631243 
L 379.319735 149.631243 
L 379.319735 18.670875 
L 219.549117 18.670875 
z
" style="fill:#ffffff;"/>
   </g>
   <g id="matplotlib.axis_3">
    <g id="xtick_7">
     <g id="line2d_21">
      <g>
       <use style="stroke:#000000;stroke-width:0.8;" x="226.811418" xlink:href="#mf11b61ce9f" y="149.631243"/>
      </g>
     </g>
     <g id="text_19">
      <!-- 0 -->
      <g transform="translate(224.902668 161.190305)scale(0.06 -0.06)">
       <use xlink:href="#DejaVuSans-48"/>
      </g>
     </g>
    </g>
    <g id="xtick_8">
     <g id="line2d_22">
      <g>
       <use style="stroke:#000000;stroke-width:0.8;" x="255.860621" xlink:href="#mf11b61ce9f" y="149.631243"/>
      </g>
     </g>
     <g id="text_20">
      <!-- 20 -->
      <g transform="translate(252.043121 161.190305)scale(0.06 -0.06)">
       <use xlink:href="#DejaVuSans-50"/>
       <use x="63.623047" xlink:href="#DejaVuSans-48"/>
      </g>
     </g>
    </g>
    <g id="xtick_9">
     <g id="line2d_23">
      <g>
       <use style="stroke:#000000;stroke-width:0.8;" x="284.909824" xlink:href="#mf11b61ce9f" y="149.631243"/>
      </g>
     </g>
     <g id="text_21">
      <!-- 40 -->
      <g transform="translate(281.092324 161.190305)scale(0.06 -0.06)">
       <use xlink:href="#DejaVuSans-52"/>
       <use x="63.623047" xlink:href="#DejaVuSans-48"/>
      </g>
     </g>
    </g>
    <g id="xtick_10">
     <g id="line2d_24">
      <g>
       <use style="stroke:#000000;stroke-width:0.8;" x="313.959028" xlink:href="#mf11b61ce9f" y="149.631243"/>
      </g>
     </g>
     <g id="text_22">
      <!-- 60 -->
      <g transform="translate(310.141528 161.190305)scale(0.06 -0.06)">
       <use xlink:href="#DejaVuSans-54"/>
       <use x="63.623047" xlink:href="#DejaVuSans-48"/>
      </g>
     </g>
    </g>
    <g id="xtick_11">
     <g id="line2d_25">
      <g>
       <use style="stroke:#000000;stroke-width:0.8;" x="343.008231" xlink:href="#mf11b61ce9f" y="149.631243"/>
      </g>
     </g>
     <g id="text_23">
      <!-- 80 -->
      <defs>
       <path d="M 31.78125 34.625 
Q 24.75 34.625 20.71875 30.859375 
Q 16.703125 27.09375 16.703125 20.515625 
Q 16.703125 13.921875 20.71875 10.15625 
Q 24.75 6.390625 31.78125 6.390625 
Q 38.8125 6.390625 42.859375 10.171875 
Q 46.921875 13.96875 46.921875 20.515625 
Q 46.921875 27.09375 42.890625 30.859375 
Q 38.875 34.625 31.78125 34.625 
z
M 21.921875 38.8125 
Q 15.578125 40.375 12.03125 44.71875 
Q 8.5 49.078125 8.5 55.328125 
Q 8.5 64.0625 14.71875 69.140625 
Q 20.953125 74.21875 31.78125 74.21875 
Q 42.671875 74.21875 48.875 69.140625 
Q 55.078125 64.0625 55.078125 55.328125 
Q 55.078125 49.078125 51.53125 44.71875 
Q 48 40.375 41.703125 38.8125 
Q 48.828125 37.15625 52.796875 32.3125 
Q 56.78125 27.484375 56.78125 20.515625 
Q 56.78125 9.90625 50.3125 4.234375 
Q 43.84375 -1.421875 31.78125 -1.421875 
Q 19.734375 -1.421875 13.25 4.234375 
Q 6.78125 9.90625 6.78125 20.515625 
Q 6.78125 27.484375 10.78125 32.3125 
Q 14.796875 37.15625 21.921875 38.8125 
z
M 18.3125 54.390625 
Q 18.3125 48.734375 21.84375 45.5625 
Q 25.390625 42.390625 31.78125 42.390625 
Q 38.140625 42.390625 41.71875 45.5625 
Q 45.3125 48.734375 45.3125 54.390625 
Q 45.3125 60.0625 41.71875 63.234375 
Q 38.140625 66.40625 31.78125 66.40625 
Q 25.390625 66.40625 21.84375 63.234375 
Q 18.3125 60.0625 18.3125 54.390625 
z
" id="DejaVuSans-56"/>
      </defs>
      <g transform="translate(339.190731 161.190305)scale(0.06 -0.06)">
       <use xlink:href="#DejaVuSans-56"/>
       <use x="63.623047" xlink:href="#DejaVuSans-48"/>
      </g>
     </g>
    </g>
    <g id="xtick_12">
     <g id="line2d_26">
      <g>
       <use style="stroke:#000000;stroke-width:0.8;" x="372.057434" xlink:href="#mf11b61ce9f" y="149.631243"/>
      </g>
     </g>
     <g id="text_24">
      <!-- 100 -->
      <g transform="translate(366.331184 161.190305)scale(0.06 -0.06)">
       <use xlink:href="#DejaVuSans-49"/>
       <use x="63.623047" xlink:href="#DejaVuSans-48"/>
       <use x="127.246094" xlink:href="#DejaVuSans-48"/>
      </g>
     </g>
    </g>
    <g id="text_25">
     <!-- Power setting (%) -->
     <g transform="translate(272.867551 170.99718)scale(0.06 -0.06)">
      <use xlink:href="#DejaVuSans-80"/>
      <use x="56.677734" xlink:href="#DejaVuSans-111"/>
      <use x="117.859375" xlink:href="#DejaVuSans-119"/>
      <use x="199.646484" xlink:href="#DejaVuSans-101"/>
      <use x="261.169922" xlink:href="#DejaVuSans-114"/>
      <use x="302.283203" xlink:href="#DejaVuSans-32"/>
      <use x="334.070312" xlink:href="#DejaVuSans-115"/>
      <use x="386.169922" xlink:href="#DejaVuSans-101"/>
      <use x="447.693359" xlink:href="#DejaVuSans-116"/>
      <use x="486.902344" xlink:href="#DejaVuSans-116"/>
      <use x="526.111328" xlink:href="#DejaVuSans-105"/>
      <use x="553.894531" xlink:href="#DejaVuSans-110"/>
      <use x="617.273438" xlink:href="#DejaVuSans-103"/>
      <use x="680.75" xlink:href="#DejaVuSans-32"/>
      <use x="712.537109" xlink:href="#DejaVuSans-40"/>
      <use x="751.550781" xlink:href="#DejaVuSans-37"/>
      <use x="846.570312" xlink:href="#DejaVuSans-41"/>
     </g>
    </g>
   </g>
   <g id="matplotlib.axis_4">
    <g id="ytick_6">
     <g id="line2d_27">
      <g>
       <use style="stroke:#000000;stroke-width:0.8;" x="219.549117" xlink:href="#m9409a37c42" y="143.678499"/>
      </g>
     </g>
     <g id="text_26">
      <!-- 0 -->
      <g transform="translate(208.731617 145.95803)scale(0.06 -0.06)">
       <use xlink:href="#DejaVuSans-48"/>
      </g>
     </g>
    </g>
    <g id="ytick_7">
     <g id="line2d_28">
      <g>
       <use style="stroke:#000000;stroke-width:0.8;" x="219.549117" xlink:href="#m9409a37c42" y="129.034602"/>
      </g>
     </g>
     <g id="text_27">
      <!-- 10 -->
      <g transform="translate(204.914117 131.314134)scale(0.06 -0.06)">
       <use xlink:href="#DejaVuSans-49"/>
       <use x="63.623047" xlink:href="#DejaVuSans-48"/>
      </g>
     </g>
    </g>
    <g id="ytick_8">
     <g id="line2d_29">
      <g>
       <use style="stroke:#000000;stroke-width:0.8;" x="219.549117" xlink:href="#m9409a37c42" y="114.390706"/>
      </g>
     </g>
     <g id="text_28">
      <!-- 20 -->
      <g transform="translate(204.914117 116.670237)scale(0.06 -0.06)">
       <use xlink:href="#DejaVuSans-50"/>
       <use x="63.623047" xlink:href="#DejaVuSans-48"/>
      </g>
     </g>
    </g>
    <g id="ytick_9">
     <g id="line2d_30">
      <g>
       <use style="stroke:#000000;stroke-width:0.8;" x="219.549117" xlink:href="#m9409a37c42" y="99.746809"/>
      </g>
     </g>
     <g id="text_29">
      <!-- 30 -->
      <g transform="translate(204.914117 102.02634)scale(0.06 -0.06)">
       <use xlink:href="#DejaVuSans-51"/>
       <use x="63.623047" xlink:href="#DejaVuSans-48"/>
      </g>
     </g>
    </g>
    <g id="ytick_10">
     <g id="line2d_31">
      <g>
       <use style="stroke:#000000;stroke-width:0.8;" x="219.549117" xlink:href="#m9409a37c42" y="85.102912"/>
      </g>
     </g>
     <g id="text_30">
      <!-- 40 -->
      <g transform="translate(204.914117 87.382444)scale(0.06 -0.06)">
       <use xlink:href="#DejaVuSans-52"/>
       <use x="63.623047" xlink:href="#DejaVuSans-48"/>
      </g>
     </g>
    </g>
    <g id="ytick_11">
     <g id="line2d_32">
      <g>
       <use style="stroke:#000000;stroke-width:0.8;" x="219.549117" xlink:href="#m9409a37c42" y="70.459016"/>
      </g>
     </g>
     <g id="text_31">
      <!-- 50 -->
      <g transform="translate(204.914117 72.738547)scale(0.06 -0.06)">
       <use xlink:href="#DejaVuSans-53"/>
       <use x="63.623047" xlink:href="#DejaVuSans-48"/>
      </g>
     </g>
    </g>
    <g id="ytick_12">
     <g id="line2d_33">
      <g>
       <use style="stroke:#000000;stroke-width:0.8;" x="219.549117" xlink:href="#m9409a37c42" y="55.815119"/>
      </g>
     </g>
     <g id="text_32">
      <!-- 60 -->
      <g transform="translate(204.914117 58.09465)scale(0.06 -0.06)">
       <use xlink:href="#DejaVuSans-54"/>
       <use x="63.623047" xlink:href="#DejaVuSans-48"/>
      </g>
     </g>
    </g>
    <g id="ytick_13">
     <g id="line2d_34">
      <g>
       <use style="stroke:#000000;stroke-width:0.8;" x="219.549117" xlink:href="#m9409a37c42" y="41.171222"/>
      </g>
     </g>
     <g id="text_33">
      <!-- 70 -->
      <g transform="translate(204.914117 43.450753)scale(0.06 -0.06)">
       <use xlink:href="#DejaVuSans-55"/>
       <use x="63.623047" xlink:href="#DejaVuSans-48"/>
      </g>
     </g>
    </g>
    <g id="ytick_14">
     <g id="line2d_35">
      <g>
       <use style="stroke:#000000;stroke-width:0.8;" x="219.549117" xlink:href="#m9409a37c42" y="26.527326"/>
      </g>
     </g>
     <g id="text_34">
      <!-- 80 -->
      <g transform="translate(204.914117 28.806857)scale(0.06 -0.06)">
       <use xlink:href="#DejaVuSans-56"/>
       <use x="63.623047" xlink:href="#DejaVuSans-48"/>
      </g>
     </g>
    </g>
   </g>
   <g id="line2d_36">
    <path clip-path="url(#pae81de60df)" d="M 226.811418 143.678499 
L 228.263878 143.678499 
L 228.409124 143.678499 
L 228.55437 143.663855 
L 228.699616 143.649211 
L 228.844862 143.634567 
L 228.990108 143.634567 
L 229.135354 143.619923 
L 229.2806 143.619923 
L 229.425846 143.619923 
L 229.571092 143.60528 
L 229.716338 143.60528 
L 229.861584 143.60528 
L 230.00683 143.590636 
L 230.152076 143.575992 
L 230.297322 143.53206 
L 230.442568 143.488128 
L 230.587814 143.400265 
L 230.73306 143.283114 
L 230.878306 143.107387 
L 231.023552 142.946304 
L 231.168798 142.93166 
L 232.621258 142.785221 
L 234.073718 142.638782 
L 235.526179 142.448412 
L 236.978639 142.258041 
L 238.431099 142.023739 
L 239.883559 141.774792 
L 241.336019 141.511202 
L 248.59832 139.783222 
L 255.860621 138.040599 
L 263.122922 136.664072 
L 270.385223 135.185039 
L 277.647523 133.64743 
L 284.909824 132.065889 
L 292.172125 130.440416 
L 299.434426 128.888163 
L 306.696727 127.277335 
L 313.959028 125.812945 
L 321.221328 124.348555 
L 328.483629 122.884166 
L 335.74593 121.566215 
L 343.008231 120.248264 
L 350.270532 119.076753 
L 357.532833 117.905241 
L 364.795133 117.026607 
L 372.057434 115.708656 
" style="fill:none;stroke:#1f77b4;stroke-linecap:square;stroke-width:1.5;"/>
    <g clip-path="url(#pae81de60df)">
     <use style="fill:#1f77b4;stroke:#1f77b4;" x="226.811418" xlink:href="#me41cfbde57" y="143.678499"/>
     <use style="fill:#1f77b4;stroke:#1f77b4;" x="228.263878" xlink:href="#me41cfbde57" y="143.678499"/>
     <use style="fill:#1f77b4;stroke:#1f77b4;" x="228.409124" xlink:href="#me41cfbde57" y="143.678499"/>
     <use style="fill:#1f77b4;stroke:#1f77b4;" x="228.55437" xlink:href="#me41cfbde57" y="143.663855"/>
     <use style="fill:#1f77b4;stroke:#1f77b4;" x="228.699616" xlink:href="#me41cfbde57" y="143.649211"/>
     <use style="fill:#1f77b4;stroke:#1f77b4;" x="228.844862" xlink:href="#me41cfbde57" y="143.634567"/>
     <use style="fill:#1f77b4;stroke:#1f77b4;" x="228.990108" xlink:href="#me41cfbde57" y="143.634567"/>
     <use style="fill:#1f77b4;stroke:#1f77b4;" x="229.135354" xlink:href="#me41cfbde57" y="143.619923"/>
     <use style="fill:#1f77b4;stroke:#1f77b4;" x="229.2806" xlink:href="#me41cfbde57" y="143.619923"/>
     <use style="fill:#1f77b4;stroke:#1f77b4;" x="229.425846" xlink:href="#me41cfbde57" y="143.619923"/>
     <use style="fill:#1f77b4;stroke:#1f77b4;" x="229.571092" xlink:href="#me41cfbde57" y="143.60528"/>
     <use style="fill:#1f77b4;stroke:#1f77b4;" x="229.716338" xlink:href="#me41cfbde57" y="143.60528"/>
     <use style="fill:#1f77b4;stroke:#1f77b4;" x="229.861584" xlink:href="#me41cfbde57" y="143.60528"/>
     <use style="fill:#1f77b4;stroke:#1f77b4;" x="230.00683" xlink:href="#me41cfbde57" y="143.590636"/>
     <use style="fill:#1f77b4;stroke:#1f77b4;" x="230.152076" xlink:href="#me41cfbde57" y="143.575992"/>
     <use style="fill:#1f77b4;stroke:#1f77b4;" x="230.297322" xlink:href="#me41cfbde57" y="143.53206"/>
     <use style="fill:#1f77b4;stroke:#1f77b4;" x="230.442568" xlink:href="#me41cfbde57" y="143.488128"/>
     <use style="fill:#1f77b4;stroke:#1f77b4;" x="230.587814" xlink:href="#me41cfbde57" y="143.400265"/>
     <use style="fill:#1f77b4;stroke:#1f77b4;" x="230.73306" xlink:href="#me41cfbde57" y="143.283114"/>
     <use style="fill:#1f77b4;stroke:#1f77b4;" x="230.878306" xlink:href="#me41cfbde57" y="143.107387"/>
     <use style="fill:#1f77b4;stroke:#1f77b4;" x="231.023552" xlink:href="#me41cfbde57" y="142.946304"/>
     <use style="fill:#1f77b4;stroke:#1f77b4;" x="231.168798" xlink:href="#me41cfbde57" y="142.93166"/>
     <use style="fill:#1f77b4;stroke:#1f77b4;" x="232.621258" xlink:href="#me41cfbde57" y="142.785221"/>
     <use style="fill:#1f77b4;stroke:#1f77b4;" x="234.073718" xlink:href="#me41cfbde57" y="142.638782"/>
     <use style="fill:#1f77b4;stroke:#1f77b4;" x="235.526179" xlink:href="#me41cfbde57" y="142.448412"/>
     <use style="fill:#1f77b4;stroke:#1f77b4;" x="236.978639" xlink:href="#me41cfbde57" y="142.258041"/>
     <use style="fill:#1f77b4;stroke:#1f77b4;" x="238.431099" xlink:href="#me41cfbde57" y="142.023739"/>
     <use style="fill:#1f77b4;stroke:#1f77b4;" x="239.883559" xlink:href="#me41cfbde57" y="141.774792"/>
     <use style="fill:#1f77b4;stroke:#1f77b4;" x="241.336019" xlink:href="#me41cfbde57" y="141.511202"/>
     <use style="fill:#1f77b4;stroke:#1f77b4;" x="248.59832" xlink:href="#me41cfbde57" y="139.783222"/>
     <use style="fill:#1f77b4;stroke:#1f77b4;" x="255.860621" xlink:href="#me41cfbde57" y="138.040599"/>
     <use style="fill:#1f77b4;stroke:#1f77b4;" x="263.122922" xlink:href="#me41cfbde57" y="136.664072"/>
     <use style="fill:#1f77b4;stroke:#1f77b4;" x="270.385223" xlink:href="#me41cfbde57" y="135.185039"/>
     <use style="fill:#1f77b4;stroke:#1f77b4;" x="277.647523" xlink:href="#me41cfbde57" y="133.64743"/>
     <use style="fill:#1f77b4;stroke:#1f77b4;" x="284.909824" xlink:href="#me41cfbde57" y="132.065889"/>
     <use style="fill:#1f77b4;stroke:#1f77b4;" x="292.172125" xlink:href="#me41cfbde57" y="130.440416"/>
     <use style="fill:#1f77b4;stroke:#1f77b4;" x="299.434426" xlink:href="#me41cfbde57" y="128.888163"/>
     <use style="fill:#1f77b4;stroke:#1f77b4;" x="306.696727" xlink:href="#me41cfbde57" y="127.277335"/>
     <use style="fill:#1f77b4;stroke:#1f77b4;" x="313.959028" xlink:href="#me41cfbde57" y="125.812945"/>
     <use style="fill:#1f77b4;stroke:#1f77b4;" x="321.221328" xlink:href="#me41cfbde57" y="124.348555"/>
     <use style="fill:#1f77b4;stroke:#1f77b4;" x="328.483629" xlink:href="#me41cfbde57" y="122.884166"/>
     <use style="fill:#1f77b4;stroke:#1f77b4;" x="335.74593" xlink:href="#me41cfbde57" y="121.566215"/>
     <use style="fill:#1f77b4;stroke:#1f77b4;" x="343.008231" xlink:href="#me41cfbde57" y="120.248264"/>
     <use style="fill:#1f77b4;stroke:#1f77b4;" x="350.270532" xlink:href="#me41cfbde57" y="119.076753"/>
     <use style="fill:#1f77b4;stroke:#1f77b4;" x="357.532833" xlink:href="#me41cfbde57" y="117.905241"/>
     <use style="fill:#1f77b4;stroke:#1f77b4;" x="364.795133" xlink:href="#me41cfbde57" y="117.026607"/>
     <use style="fill:#1f77b4;stroke:#1f77b4;" x="372.057434" xlink:href="#me41cfbde57" y="115.708656"/>
    </g>
   </g>
   <g id="line2d_37">
    <path clip-path="url(#pae81de60df)" d="M 226.811418 143.678499 
L 226.956664 143.678499 
L 227.10191 143.60528 
L 227.247156 143.370977 
L 227.392402 143.283114 
L 227.537648 143.151319 
L 227.682894 143.063455 
L 227.82814 143.019524 
L 227.973386 142.975592 
L 228.118632 142.93166 
L 228.263878 142.887729 
L 228.409124 142.843797 
L 228.55437 142.799865 
L 228.699616 142.755934 
L 228.844862 142.712002 
L 228.990108 142.653426 
L 229.135354 142.609495 
L 229.2806 142.550919 
L 229.425846 142.506987 
L 229.571092 142.463056 
L 229.716338 142.40448 
L 231.168798 141.525846 
L 232.621258 141.101173 
L 234.073718 140.94009 
L 235.526179 140.661856 
L 236.978639 140.339691 
L 238.431099 140.017525 
L 239.883559 139.651427 
L 241.336019 139.28533 
L 255.860621 132.402699 
L 270.385223 127.130896 
L 284.909824 122.005532 
L 299.434426 116.880168 
L 313.959028 109.851098 
L 328.483629 103.993539 
L 343.008231 99.746809 
L 357.532833 95.792957 
L 372.057434 93.157055 
" style="fill:none;stroke:#ff7f0e;stroke-linecap:square;stroke-width:1.5;"/>
    <g clip-path="url(#pae81de60df)">
     <use style="fill:#ff7f0e;stroke:#ff7f0e;" x="226.811418" xlink:href="#m2293d86df5" y="143.678499"/>
     <use style="fill:#ff7f0e;stroke:#ff7f0e;" x="226.956664" xlink:href="#m2293d86df5" y="143.678499"/>
     <use style="fill:#ff7f0e;stroke:#ff7f0e;" x="227.10191" xlink:href="#m2293d86df5" y="143.60528"/>
     <use style="fill:#ff7f0e;stroke:#ff7f0e;" x="227.247156" xlink:href="#m2293d86df5" y="143.370977"/>
     <use style="fill:#ff7f0e;stroke:#ff7f0e;" x="227.392402" xlink:href="#m2293d86df5" y="143.283114"/>
     <use style="fill:#ff7f0e;stroke:#ff7f0e;" x="227.537648" xlink:href="#m2293d86df5" y="143.151319"/>
     <use style="fill:#ff7f0e;stroke:#ff7f0e;" x="227.682894" xlink:href="#m2293d86df5" y="143.063455"/>
     <use style="fill:#ff7f0e;stroke:#ff7f0e;" x="227.82814" xlink:href="#m2293d86df5" y="143.019524"/>
     <use style="fill:#ff7f0e;stroke:#ff7f0e;" x="227.973386" xlink:href="#m2293d86df5" y="142.975592"/>
     <use style="fill:#ff7f0e;stroke:#ff7f0e;" x="228.118632" xlink:href="#m2293d86df5" y="142.93166"/>
     <use style="fill:#ff7f0e;stroke:#ff7f0e;" x="228.263878" xlink:href="#m2293d86df5" y="142.887729"/>
     <use style="fill:#ff7f0e;stroke:#ff7f0e;" x="228.409124" xlink:href="#m2293d86df5" y="142.843797"/>
     <use style="fill:#ff7f0e;stroke:#ff7f0e;" x="228.55437" xlink:href="#m2293d86df5" y="142.799865"/>
     <use style="fill:#ff7f0e;stroke:#ff7f0e;" x="228.699616" xlink:href="#m2293d86df5" y="142.755934"/>
     <use style="fill:#ff7f0e;stroke:#ff7f0e;" x="228.844862" xlink:href="#m2293d86df5" y="142.712002"/>
     <use style="fill:#ff7f0e;stroke:#ff7f0e;" x="228.990108" xlink:href="#m2293d86df5" y="142.653426"/>
     <use style="fill:#ff7f0e;stroke:#ff7f0e;" x="229.135354" xlink:href="#m2293d86df5" y="142.609495"/>
     <use style="fill:#ff7f0e;stroke:#ff7f0e;" x="229.2806" xlink:href="#m2293d86df5" y="142.550919"/>
     <use style="fill:#ff7f0e;stroke:#ff7f0e;" x="229.425846" xlink:href="#m2293d86df5" y="142.506987"/>
     <use style="fill:#ff7f0e;stroke:#ff7f0e;" x="229.571092" xlink:href="#m2293d86df5" y="142.463056"/>
     <use style="fill:#ff7f0e;stroke:#ff7f0e;" x="229.716338" xlink:href="#m2293d86df5" y="142.40448"/>
     <use style="fill:#ff7f0e;stroke:#ff7f0e;" x="231.168798" xlink:href="#m2293d86df5" y="141.525846"/>
     <use style="fill:#ff7f0e;stroke:#ff7f0e;" x="232.621258" xlink:href="#m2293d86df5" y="141.101173"/>
     <use style="fill:#ff7f0e;stroke:#ff7f0e;" x="234.073718" xlink:href="#m2293d86df5" y="140.94009"/>
     <use style="fill:#ff7f0e;stroke:#ff7f0e;" x="235.526179" xlink:href="#m2293d86df5" y="140.661856"/>
     <use style="fill:#ff7f0e;stroke:#ff7f0e;" x="236.978639" xlink:href="#m2293d86df5" y="140.339691"/>
     <use style="fill:#ff7f0e;stroke:#ff7f0e;" x="238.431099" xlink:href="#m2293d86df5" y="140.017525"/>
     <use style="fill:#ff7f0e;stroke:#ff7f0e;" x="239.883559" xlink:href="#m2293d86df5" y="139.651427"/>
     <use style="fill:#ff7f0e;stroke:#ff7f0e;" x="241.336019" xlink:href="#m2293d86df5" y="139.28533"/>
     <use style="fill:#ff7f0e;stroke:#ff7f0e;" x="255.860621" xlink:href="#m2293d86df5" y="132.402699"/>
     <use style="fill:#ff7f0e;stroke:#ff7f0e;" x="270.385223" xlink:href="#m2293d86df5" y="127.130896"/>
     <use style="fill:#ff7f0e;stroke:#ff7f0e;" x="284.909824" xlink:href="#m2293d86df5" y="122.005532"/>
     <use style="fill:#ff7f0e;stroke:#ff7f0e;" x="299.434426" xlink:href="#m2293d86df5" y="116.880168"/>
     <use style="fill:#ff7f0e;stroke:#ff7f0e;" x="313.959028" xlink:href="#m2293d86df5" y="109.851098"/>
     <use style="fill:#ff7f0e;stroke:#ff7f0e;" x="328.483629" xlink:href="#m2293d86df5" y="103.993539"/>
     <use style="fill:#ff7f0e;stroke:#ff7f0e;" x="343.008231" xlink:href="#m2293d86df5" y="99.746809"/>
     <use style="fill:#ff7f0e;stroke:#ff7f0e;" x="357.532833" xlink:href="#m2293d86df5" y="95.792957"/>
     <use style="fill:#ff7f0e;stroke:#ff7f0e;" x="372.057434" xlink:href="#m2293d86df5" y="93.157055"/>
    </g>
   </g>
   <g id="line2d_38">
    <path clip-path="url(#pae81de60df)" d="M 226.956664 143.678499 
L 227.10191 143.678499 
L 227.247156 143.67352 
L 227.392402 143.629296 
L 227.537648 143.507165 
L 227.682894 143.284578 
L 227.82814 142.949233 
L 227.973386 142.629996 
L 228.118632 142.552383 
L 228.263878 142.471842 
L 228.409124 142.388372 
L 228.55437 142.300508 
L 228.699616 142.214109 
L 228.844862 142.111602 
L 228.990108 142.023739 
L 229.135354 141.921231 
L 229.2806 141.818724 
L 229.425846 141.716217 
L 229.571092 141.599066 
L 229.716338 141.496558 
L 231.168798 140.193252 
L 232.621258 138.582423 
L 234.073718 137.03017 
L 235.526179 135.975809 
L 236.978639 134.833585 
L 238.431099 133.603498 
L 239.883559 132.300191 
L 241.336019 130.923665 
L 255.860621 117.026607 
L 270.385223 103.407783 
L 284.909824 89.203203 
L 299.434426 74.998624 
L 313.959028 61.965556 
L 328.483629 49.95756 
L 343.008231 39.999711 
L 357.532833 31.066934 
L 372.057434 24.623619 
" style="fill:none;stroke:#2ca02c;stroke-linecap:square;stroke-width:1.5;"/>
    <g clip-path="url(#pae81de60df)">
     <use style="fill:#2ca02c;stroke:#2ca02c;" x="226.956664" xlink:href="#mbe2b17623e" y="143.678499"/>
     <use style="fill:#2ca02c;stroke:#2ca02c;" x="227.10191" xlink:href="#mbe2b17623e" y="143.678499"/>
     <use style="fill:#2ca02c;stroke:#2ca02c;" x="227.247156" xlink:href="#mbe2b17623e" y="143.67352"/>
     <use style="fill:#2ca02c;stroke:#2ca02c;" x="227.392402" xlink:href="#mbe2b17623e" y="143.629296"/>
     <use style="fill:#2ca02c;stroke:#2ca02c;" x="227.537648" xlink:href="#mbe2b17623e" y="143.507165"/>
     <use style="fill:#2ca02c;stroke:#2ca02c;" x="227.682894" xlink:href="#mbe2b17623e" y="143.284578"/>
     <use style="fill:#2ca02c;stroke:#2ca02c;" x="227.82814" xlink:href="#mbe2b17623e" y="142.949233"/>
     <use style="fill:#2ca02c;stroke:#2ca02c;" x="227.973386" xlink:href="#mbe2b17623e" y="142.629996"/>
     <use style="fill:#2ca02c;stroke:#2ca02c;" x="228.118632" xlink:href="#mbe2b17623e" y="142.552383"/>
     <use style="fill:#2ca02c;stroke:#2ca02c;" x="228.263878" xlink:href="#mbe2b17623e" y="142.471842"/>
     <use style="fill:#2ca02c;stroke:#2ca02c;" x="228.409124" xlink:href="#mbe2b17623e" y="142.388372"/>
     <use style="fill:#2ca02c;stroke:#2ca02c;" x="228.55437" xlink:href="#mbe2b17623e" y="142.300508"/>
     <use style="fill:#2ca02c;stroke:#2ca02c;" x="228.699616" xlink:href="#mbe2b17623e" y="142.214109"/>
     <use style="fill:#2ca02c;stroke:#2ca02c;" x="228.844862" xlink:href="#mbe2b17623e" y="142.111602"/>
     <use style="fill:#2ca02c;stroke:#2ca02c;" x="228.990108" xlink:href="#mbe2b17623e" y="142.023739"/>
     <use style="fill:#2ca02c;stroke:#2ca02c;" x="229.135354" xlink:href="#mbe2b17623e" y="141.921231"/>
     <use style="fill:#2ca02c;stroke:#2ca02c;" x="229.2806" xlink:href="#mbe2b17623e" y="141.818724"/>
     <use style="fill:#2ca02c;stroke:#2ca02c;" x="229.425846" xlink:href="#mbe2b17623e" y="141.716217"/>
     <use style="fill:#2ca02c;stroke:#2ca02c;" x="229.571092" xlink:href="#mbe2b17623e" y="141.599066"/>
     <use style="fill:#2ca02c;stroke:#2ca02c;" x="229.716338" xlink:href="#mbe2b17623e" y="141.496558"/>
     <use style="fill:#2ca02c;stroke:#2ca02c;" x="231.168798" xlink:href="#mbe2b17623e" y="140.193252"/>
     <use style="fill:#2ca02c;stroke:#2ca02c;" x="232.621258" xlink:href="#mbe2b17623e" y="138.582423"/>
     <use style="fill:#2ca02c;stroke:#2ca02c;" x="234.073718" xlink:href="#mbe2b17623e" y="137.03017"/>
     <use style="fill:#2ca02c;stroke:#2ca02c;" x="235.526179" xlink:href="#mbe2b17623e" y="135.975809"/>
     <use style="fill:#2ca02c;stroke:#2ca02c;" x="236.978639" xlink:href="#mbe2b17623e" y="134.833585"/>
     <use style="fill:#2ca02c;stroke:#2ca02c;" x="238.431099" xlink:href="#mbe2b17623e" y="133.603498"/>
     <use style="fill:#2ca02c;stroke:#2ca02c;" x="239.883559" xlink:href="#mbe2b17623e" y="132.300191"/>
     <use style="fill:#2ca02c;stroke:#2ca02c;" x="241.336019" xlink:href="#mbe2b17623e" y="130.923665"/>
     <use style="fill:#2ca02c;stroke:#2ca02c;" x="255.860621" xlink:href="#mbe2b17623e" y="117.026607"/>
     <use style="fill:#2ca02c;stroke:#2ca02c;" x="270.385223" xlink:href="#mbe2b17623e" y="103.407783"/>
     <use style="fill:#2ca02c;stroke:#2ca02c;" x="284.909824" xlink:href="#mbe2b17623e" y="89.203203"/>
     <use style="fill:#2ca02c;stroke:#2ca02c;" x="299.434426" xlink:href="#mbe2b17623e" y="74.998624"/>
     <use style="fill:#2ca02c;stroke:#2ca02c;" x="313.959028" xlink:href="#mbe2b17623e" y="61.965556"/>
     <use style="fill:#2ca02c;stroke:#2ca02c;" x="328.483629" xlink:href="#mbe2b17623e" y="49.95756"/>
     <use style="fill:#2ca02c;stroke:#2ca02c;" x="343.008231" xlink:href="#mbe2b17623e" y="39.999711"/>
     <use style="fill:#2ca02c;stroke:#2ca02c;" x="357.532833" xlink:href="#mbe2b17623e" y="31.066934"/>
     <use style="fill:#2ca02c;stroke:#2ca02c;" x="372.057434" xlink:href="#mbe2b17623e" y="24.623619"/>
    </g>
   </g>
   <g id="patch_9">
    <path d="M 219.549117 149.631243 
L 219.549117 18.670875 
" style="fill:none;stroke:#000000;stroke-linecap:square;stroke-linejoin:miter;stroke-width:0.8;"/>
   </g>
   <g id="patch_10">
    <path d="M 379.319735 149.631243 
L 379.319735 18.670875 
" style="fill:none;stroke:#000000;stroke-linecap:square;stroke-linejoin:miter;stroke-width:0.8;"/>
   </g>
   <g id="patch_11">
    <path d="M 219.549117 149.631243 
L 379.319735 149.631243 
" style="fill:none;stroke:#000000;stroke-linecap:square;stroke-linejoin:miter;stroke-width:0.8;"/>
   </g>
   <g id="patch_12">
    <path d="M 219.549117 18.670875 
L 379.319735 18.670875 
" style="fill:none;stroke:#000000;stroke-linecap:square;stroke-linejoin:miter;stroke-width:0.8;"/>
   </g>
   <g id="text_35">
    <!-- High powers -->
    <defs>
     <path d="M 9.8125 72.90625 
L 19.671875 72.90625 
L 19.671875 43.015625 
L 55.515625 43.015625 
L 55.515625 72.90625 
L 65.375 72.90625 
L 65.375 0 
L 55.515625 0 
L 55.515625 34.71875 
L 19.671875 34.71875 
L 19.671875 0 
L 9.8125 0 
z
" id="DejaVuSans-72"/>
    </defs>
    <g transform="translate(277.013176 12.670875)scale(0.072 -0.072)">
     <use xlink:href="#DejaVuSans-72"/>
     <use x="75.195312" xlink:href="#DejaVuSans-105"/>
     <use x="102.978516" xlink:href="#DejaVuSans-103"/>
     <use x="166.455078" xlink:href="#DejaVuSans-104"/>
     <use x="229.833984" xlink:href="#DejaVuSans-32"/>
     <use x="261.621094" xlink:href="#DejaVuSans-112"/>
     <use x="325.097656" xlink:href="#DejaVuSans-111"/>
     <use x="386.279297" xlink:href="#DejaVuSans-119"/>
     <use x="468.066406" xlink:href="#DejaVuSans-101"/>
     <use x="529.589844" xlink:href="#DejaVuSans-114"/>
     <use x="570.703125" xlink:href="#DejaVuSans-115"/>
    </g>
   </g>
  </g>
 </g>
 <defs>
  <clipPath id="p748743d378">
   <rect height="130.960368" width="159.770618" x="27.824375" y="18.670875"/>
  </clipPath>
  <clipPath id="pae81de60df">
   <rect height="130.960368" width="159.770618" x="219.549117" y="18.670875"/>
  </clipPath>
 </defs>
</svg>
