<?xml version="1.0" encoding="utf-8" standalone="no"?>
<!DOCTYPE svg PUBLIC "-//W3C//DTD SVG 1.1//EN"
  "http://www.w3.org/Graphics/SVG/1.1/DTD/svg11.dtd">
<!-- Created with matplotlib (https://matplotlib.org/) -->
<svg height="179.444993pt" version="1.1" viewBox="0 0 394.154735 179.444993" width="394.154735pt" xmlns="http://www.w3.org/2000/svg" xmlns:xlink="http://www.w3.org/1999/xlink">
 <metadata>
  <rdf:RDF xmlns:cc="http://creativecommons.org/ns#" xmlns:dc="http://purl.org/dc/elements/1.1/" xmlns:rdf="http://www.w3.org/1999/02/22-rdf-syntax-ns#">
   <cc:Work>
    <dc:type rdf:resource="http://purl.org/dc/dcmitype/StillImage"/>
    <dc:date>2021-04-15T23:07:11.737102</dc:date>
    <dc:format>image/svg+xml</dc:format>
    <dc:creator>
     <cc:Agent>
      <dc:title>Matplotlib v3.3.4, https://matplotlib.org/</dc:title>
     </cc:Agent>
    </dc:creator>
   </cc:Work>
  </rdf:RDF>
 </metadata>
 <defs>
  <style type="text/css">*{stroke-linecap:butt;stroke-linejoin:round;}</style>
 </defs>
 <g id="figure_1">
  <g id="patch_1">
   <path d="M 0 179.444993 
L 394.154735 179.444993 
L 394.154735 -0 
L 0 -0 
z
" style="fill:#ffffff;"/>
  </g>
  <g id="axes_1">
   <g id="patch_2">
    <path d="M 35.459375 149.631243 
L 202.838118 149.631243 
L 202.838118 18.670875 
L 35.459375 18.670875 
z
" style="fill:#ffffff;"/>
   </g>
   <g id="matplotlib.axis_1">
    <g id="xtick_1">
     <g id="line2d_1">
      <defs>
       <path d="M 0 0 
L 0 3.5 
" id="me33f144e6a" style="stroke:#000000;stroke-width:0.8;"/>
      </defs>
      <g>
       <use style="stroke:#000000;stroke-width:0.8;" x="43.006958" xlink:href="#me33f144e6a" y="149.631243"/>
      </g>
     </g>
     <g id="text_1">
      <!-- 0 -->
      <g transform="translate(41.098208 161.190305)scale(0.06 -0.06)">
       <defs>
        <path d="M 31.78125 66.40625 
Q 24.171875 66.40625 20.328125 58.90625 
Q 16.5 51.421875 16.5 36.375 
Q 16.5 21.390625 20.328125 13.890625 
Q 24.171875 6.390625 31.78125 6.390625 
Q 39.453125 6.390625 43.28125 13.890625 
Q 47.125 21.390625 47.125 36.375 
Q 47.125 51.421875 43.28125 58.90625 
Q 39.453125 66.40625 31.78125 66.40625 
z
M 31.78125 74.21875 
Q 44.046875 74.21875 50.515625 64.515625 
Q 56.984375 54.828125 56.984375 36.375 
Q 56.984375 17.96875 50.515625 8.265625 
Q 44.046875 -1.421875 31.78125 -1.421875 
Q 19.53125 -1.421875 13.0625 8.265625 
Q 6.59375 17.96875 6.59375 36.375 
Q 6.59375 54.828125 13.0625 64.515625 
Q 19.53125 74.21875 31.78125 74.21875 
z
" id="DejaVuSans-48"/>
       </defs>
       <use xlink:href="#DejaVuSans-48"/>
      </g>
     </g>
    </g>
    <g id="xtick_2">
     <g id="line2d_2">
      <g>
       <use style="stroke:#000000;stroke-width:0.8;" x="82.964748" xlink:href="#me33f144e6a" y="149.631243"/>
      </g>
     </g>
     <g id="text_2">
      <!-- 45 -->
      <g transform="translate(79.147248 161.190305)scale(0.06 -0.06)">
       <defs>
        <path d="M 37.796875 64.3125 
L 12.890625 25.390625 
L 37.796875 25.390625 
z
M 35.203125 72.90625 
L 47.609375 72.90625 
L 47.609375 25.390625 
L 58.015625 25.390625 
L 58.015625 17.1875 
L 47.609375 17.1875 
L 47.609375 0 
L 37.796875 0 
L 37.796875 17.1875 
L 4.890625 17.1875 
L 4.890625 26.703125 
z
" id="DejaVuSans-52"/>
        <path d="M 10.796875 72.90625 
L 49.515625 72.90625 
L 49.515625 64.59375 
L 19.828125 64.59375 
L 19.828125 46.734375 
Q 21.96875 47.46875 24.109375 47.828125 
Q 26.265625 48.1875 28.421875 48.1875 
Q 40.625 48.1875 47.75 41.5 
Q 54.890625 34.8125 54.890625 23.390625 
Q 54.890625 11.625 47.5625 5.09375 
Q 40.234375 -1.421875 26.90625 -1.421875 
Q 22.3125 -1.421875 17.546875 -0.640625 
Q 12.796875 0.140625 7.71875 1.703125 
L 7.71875 11.625 
Q 12.109375 9.234375 16.796875 8.0625 
Q 21.484375 6.890625 26.703125 6.890625 
Q 35.15625 6.890625 40.078125 11.328125 
Q 45.015625 15.765625 45.015625 23.390625 
Q 45.015625 31 40.078125 35.4375 
Q 35.15625 39.890625 26.703125 39.890625 
Q 22.75 39.890625 18.8125 39.015625 
Q 14.890625 38.140625 10.796875 36.28125 
z
" id="DejaVuSans-53"/>
       </defs>
       <use xlink:href="#DejaVuSans-52"/>
       <use x="63.623047" xlink:href="#DejaVuSans-53"/>
      </g>
     </g>
    </g>
    <g id="xtick_3">
     <g id="line2d_3">
      <g>
       <use style="stroke:#000000;stroke-width:0.8;" x="122.922538" xlink:href="#me33f144e6a" y="149.631243"/>
      </g>
     </g>
     <g id="text_3">
      <!-- 90 -->
      <g transform="translate(119.105038 161.190305)scale(0.06 -0.06)">
       <defs>
        <path d="M 10.984375 1.515625 
L 10.984375 10.5 
Q 14.703125 8.734375 18.5 7.8125 
Q 22.3125 6.890625 25.984375 6.890625 
Q 35.75 6.890625 40.890625 13.453125 
Q 46.046875 20.015625 46.78125 33.40625 
Q 43.953125 29.203125 39.59375 26.953125 
Q 35.25 24.703125 29.984375 24.703125 
Q 19.046875 24.703125 12.671875 31.3125 
Q 6.296875 37.9375 6.296875 49.421875 
Q 6.296875 60.640625 12.9375 67.421875 
Q 19.578125 74.21875 30.609375 74.21875 
Q 43.265625 74.21875 49.921875 64.515625 
Q 56.59375 54.828125 56.59375 36.375 
Q 56.59375 19.140625 48.40625 8.859375 
Q 40.234375 -1.421875 26.421875 -1.421875 
Q 22.703125 -1.421875 18.890625 -0.6875 
Q 15.09375 0.046875 10.984375 1.515625 
z
M 30.609375 32.421875 
Q 37.25 32.421875 41.125 36.953125 
Q 45.015625 41.5 45.015625 49.421875 
Q 45.015625 57.28125 41.125 61.84375 
Q 37.25 66.40625 30.609375 66.40625 
Q 23.96875 66.40625 20.09375 61.84375 
Q 16.21875 57.28125 16.21875 49.421875 
Q 16.21875 41.5 20.09375 36.953125 
Q 23.96875 32.421875 30.609375 32.421875 
z
" id="DejaVuSans-57"/>
       </defs>
       <use xlink:href="#DejaVuSans-57"/>
       <use x="63.623047" xlink:href="#DejaVuSans-48"/>
      </g>
     </g>
    </g>
    <g id="xtick_4">
     <g id="line2d_4">
      <g>
       <use style="stroke:#000000;stroke-width:0.8;" x="162.880328" xlink:href="#me33f144e6a" y="149.631243"/>
      </g>
     </g>
     <g id="text_4">
      <!-- 135 -->
      <g transform="translate(157.154078 161.190305)scale(0.06 -0.06)">
       <defs>
        <path d="M 12.40625 8.296875 
L 28.515625 8.296875 
L 28.515625 63.921875 
L 10.984375 60.40625 
L 10.984375 69.390625 
L 28.421875 72.90625 
L 38.28125 72.90625 
L 38.28125 8.296875 
L 54.390625 8.296875 
L 54.390625 0 
L 12.40625 0 
z
" id="DejaVuSans-49"/>
        <path d="M 40.578125 39.3125 
Q 47.65625 37.796875 51.625 33 
Q 55.609375 28.21875 55.609375 21.1875 
Q 55.609375 10.40625 48.1875 4.484375 
Q 40.765625 -1.421875 27.09375 -1.421875 
Q 22.515625 -1.421875 17.65625 -0.515625 
Q 12.796875 0.390625 7.625 2.203125 
L 7.625 11.71875 
Q 11.71875 9.328125 16.59375 8.109375 
Q 21.484375 6.890625 26.8125 6.890625 
Q 36.078125 6.890625 40.9375 10.546875 
Q 45.796875 14.203125 45.796875 21.1875 
Q 45.796875 27.640625 41.28125 31.265625 
Q 36.765625 34.90625 28.71875 34.90625 
L 20.21875 34.90625 
L 20.21875 43.015625 
L 29.109375 43.015625 
Q 36.375 43.015625 40.234375 45.921875 
Q 44.09375 48.828125 44.09375 54.296875 
Q 44.09375 59.90625 40.109375 62.90625 
Q 36.140625 65.921875 28.71875 65.921875 
Q 24.65625 65.921875 20.015625 65.03125 
Q 15.375 64.15625 9.8125 62.3125 
L 9.8125 71.09375 
Q 15.4375 72.65625 20.34375 73.4375 
Q 25.25 74.21875 29.59375 74.21875 
Q 40.828125 74.21875 47.359375 69.109375 
Q 53.90625 64.015625 53.90625 55.328125 
Q 53.90625 49.265625 50.4375 45.09375 
Q 46.96875 40.921875 40.578125 39.3125 
z
" id="DejaVuSans-51"/>
       </defs>
       <use xlink:href="#DejaVuSans-49"/>
       <use x="63.623047" xlink:href="#DejaVuSans-51"/>
       <use x="127.246094" xlink:href="#DejaVuSans-53"/>
      </g>
     </g>
    </g>
    <g id="xtick_5">
     <g id="line2d_5">
      <g>
       <use style="stroke:#000000;stroke-width:0.8;" x="202.838118" xlink:href="#me33f144e6a" y="149.631243"/>
      </g>
     </g>
     <g id="text_5">
      <!-- 180 -->
      <g transform="translate(197.111868 161.190305)scale(0.06 -0.06)">
       <defs>
        <path d="M 31.78125 34.625 
Q 24.75 34.625 20.71875 30.859375 
Q 16.703125 27.09375 16.703125 20.515625 
Q 16.703125 13.921875 20.71875 10.15625 
Q 24.75 6.390625 31.78125 6.390625 
Q 38.8125 6.390625 42.859375 10.171875 
Q 46.921875 13.96875 46.921875 20.515625 
Q 46.921875 27.09375 42.890625 30.859375 
Q 38.875 34.625 31.78125 34.625 
z
M 21.921875 38.8125 
Q 15.578125 40.375 12.03125 44.71875 
Q 8.5 49.078125 8.5 55.328125 
Q 8.5 64.0625 14.71875 69.140625 
Q 20.953125 74.21875 31.78125 74.21875 
Q 42.671875 74.21875 48.875 69.140625 
Q 55.078125 64.0625 55.078125 55.328125 
Q 55.078125 49.078125 51.53125 44.71875 
Q 48 40.375 41.703125 38.8125 
Q 48.828125 37.15625 52.796875 32.3125 
Q 56.78125 27.484375 56.78125 20.515625 
Q 56.78125 9.90625 50.3125 4.234375 
Q 43.84375 -1.421875 31.78125 -1.421875 
Q 19.734375 -1.421875 13.25 4.234375 
Q 6.78125 9.90625 6.78125 20.515625 
Q 6.78125 27.484375 10.78125 32.3125 
Q 14.796875 37.15625 21.921875 38.8125 
z
M 18.3125 54.390625 
Q 18.3125 48.734375 21.84375 45.5625 
Q 25.390625 42.390625 31.78125 42.390625 
Q 38.140625 42.390625 41.71875 45.5625 
Q 45.3125 48.734375 45.3125 54.390625 
Q 45.3125 60.0625 41.71875 63.234375 
Q 38.140625 66.40625 31.78125 66.40625 
Q 25.390625 66.40625 21.84375 63.234375 
Q 18.3125 60.0625 18.3125 54.390625 
z
" id="DejaVuSans-56"/>
       </defs>
       <use xlink:href="#DejaVuSans-49"/>
       <use x="63.623047" xlink:href="#DejaVuSans-56"/>
       <use x="127.246094" xlink:href="#DejaVuSans-48"/>
      </g>
     </g>
    </g>
    <g id="text_6">
     <!-- Rotation angle (deg) -->
     <g transform="translate(88.376246 170.99718)scale(0.06 -0.06)">
      <defs>
       <path d="M 44.390625 34.1875 
Q 47.5625 33.109375 50.5625 29.59375 
Q 53.5625 26.078125 56.59375 19.921875 
L 66.609375 0 
L 56 0 
L 46.6875 18.703125 
Q 43.0625 26.03125 39.671875 28.421875 
Q 36.28125 30.8125 30.421875 30.8125 
L 19.671875 30.8125 
L 19.671875 0 
L 9.8125 0 
L 9.8125 72.90625 
L 32.078125 72.90625 
Q 44.578125 72.90625 50.734375 67.671875 
Q 56.890625 62.453125 56.890625 51.90625 
Q 56.890625 45.015625 53.6875 40.46875 
Q 50.484375 35.9375 44.390625 34.1875 
z
M 19.671875 64.796875 
L 19.671875 38.921875 
L 32.078125 38.921875 
Q 39.203125 38.921875 42.84375 42.21875 
Q 46.484375 45.515625 46.484375 51.90625 
Q 46.484375 58.296875 42.84375 61.546875 
Q 39.203125 64.796875 32.078125 64.796875 
z
" id="DejaVuSans-82"/>
       <path d="M 30.609375 48.390625 
Q 23.390625 48.390625 19.1875 42.75 
Q 14.984375 37.109375 14.984375 27.296875 
Q 14.984375 17.484375 19.15625 11.84375 
Q 23.34375 6.203125 30.609375 6.203125 
Q 37.796875 6.203125 41.984375 11.859375 
Q 46.1875 17.53125 46.1875 27.296875 
Q 46.1875 37.015625 41.984375 42.703125 
Q 37.796875 48.390625 30.609375 48.390625 
z
M 30.609375 56 
Q 42.328125 56 49.015625 48.375 
Q 55.71875 40.765625 55.71875 27.296875 
Q 55.71875 13.875 49.015625 6.21875 
Q 42.328125 -1.421875 30.609375 -1.421875 
Q 18.84375 -1.421875 12.171875 6.21875 
Q 5.515625 13.875 5.515625 27.296875 
Q 5.515625 40.765625 12.171875 48.375 
Q 18.84375 56 30.609375 56 
z
" id="DejaVuSans-111"/>
       <path d="M 18.3125 70.21875 
L 18.3125 54.6875 
L 36.8125 54.6875 
L 36.8125 47.703125 
L 18.3125 47.703125 
L 18.3125 18.015625 
Q 18.3125 11.328125 20.140625 9.421875 
Q 21.96875 7.515625 27.59375 7.515625 
L 36.8125 7.515625 
L 36.8125 0 
L 27.59375 0 
Q 17.1875 0 13.234375 3.875 
Q 9.28125 7.765625 9.28125 18.015625 
L 9.28125 47.703125 
L 2.6875 47.703125 
L 2.6875 54.6875 
L 9.28125 54.6875 
L 9.28125 70.21875 
z
" id="DejaVuSans-116"/>
       <path d="M 34.28125 27.484375 
Q 23.390625 27.484375 19.1875 25 
Q 14.984375 22.515625 14.984375 16.5 
Q 14.984375 11.71875 18.140625 8.90625 
Q 21.296875 6.109375 26.703125 6.109375 
Q 34.1875 6.109375 38.703125 11.40625 
Q 43.21875 16.703125 43.21875 25.484375 
L 43.21875 27.484375 
z
M 52.203125 31.203125 
L 52.203125 0 
L 43.21875 0 
L 43.21875 8.296875 
Q 40.140625 3.328125 35.546875 0.953125 
Q 30.953125 -1.421875 24.3125 -1.421875 
Q 15.921875 -1.421875 10.953125 3.296875 
Q 6 8.015625 6 15.921875 
Q 6 25.140625 12.171875 29.828125 
Q 18.359375 34.515625 30.609375 34.515625 
L 43.21875 34.515625 
L 43.21875 35.40625 
Q 43.21875 41.609375 39.140625 45 
Q 35.0625 48.390625 27.6875 48.390625 
Q 23 48.390625 18.546875 47.265625 
Q 14.109375 46.140625 10.015625 43.890625 
L 10.015625 52.203125 
Q 14.9375 54.109375 19.578125 55.046875 
Q 24.21875 56 28.609375 56 
Q 40.484375 56 46.34375 49.84375 
Q 52.203125 43.703125 52.203125 31.203125 
z
" id="DejaVuSans-97"/>
       <path d="M 9.421875 54.6875 
L 18.40625 54.6875 
L 18.40625 0 
L 9.421875 0 
z
M 9.421875 75.984375 
L 18.40625 75.984375 
L 18.40625 64.59375 
L 9.421875 64.59375 
z
" id="DejaVuSans-105"/>
       <path d="M 54.890625 33.015625 
L 54.890625 0 
L 45.90625 0 
L 45.90625 32.71875 
Q 45.90625 40.484375 42.875 44.328125 
Q 39.84375 48.1875 33.796875 48.1875 
Q 26.515625 48.1875 22.3125 43.546875 
Q 18.109375 38.921875 18.109375 30.90625 
L 18.109375 0 
L 9.078125 0 
L 9.078125 54.6875 
L 18.109375 54.6875 
L 18.109375 46.1875 
Q 21.34375 51.125 25.703125 53.5625 
Q 30.078125 56 35.796875 56 
Q 45.21875 56 50.046875 50.171875 
Q 54.890625 44.34375 54.890625 33.015625 
z
" id="DejaVuSans-110"/>
       <path id="DejaVuSans-32"/>
       <path d="M 45.40625 27.984375 
Q 45.40625 37.75 41.375 43.109375 
Q 37.359375 48.484375 30.078125 48.484375 
Q 22.859375 48.484375 18.828125 43.109375 
Q 14.796875 37.75 14.796875 27.984375 
Q 14.796875 18.265625 18.828125 12.890625 
Q 22.859375 7.515625 30.078125 7.515625 
Q 37.359375 7.515625 41.375 12.890625 
Q 45.40625 18.265625 45.40625 27.984375 
z
M 54.390625 6.78125 
Q 54.390625 -7.171875 48.1875 -13.984375 
Q 42 -20.796875 29.203125 -20.796875 
Q 24.46875 -20.796875 20.265625 -20.09375 
Q 16.0625 -19.390625 12.109375 -17.921875 
L 12.109375 -9.1875 
Q 16.0625 -11.328125 19.921875 -12.34375 
Q 23.78125 -13.375 27.78125 -13.375 
Q 36.625 -13.375 41.015625 -8.765625 
Q 45.40625 -4.15625 45.40625 5.171875 
L 45.40625 9.625 
Q 42.625 4.78125 38.28125 2.390625 
Q 33.9375 0 27.875 0 
Q 17.828125 0 11.671875 7.65625 
Q 5.515625 15.328125 5.515625 27.984375 
Q 5.515625 40.671875 11.671875 48.328125 
Q 17.828125 56 27.875 56 
Q 33.9375 56 38.28125 53.609375 
Q 42.625 51.21875 45.40625 46.390625 
L 45.40625 54.6875 
L 54.390625 54.6875 
z
" id="DejaVuSans-103"/>
       <path d="M 9.421875 75.984375 
L 18.40625 75.984375 
L 18.40625 0 
L 9.421875 0 
z
" id="DejaVuSans-108"/>
       <path d="M 56.203125 29.59375 
L 56.203125 25.203125 
L 14.890625 25.203125 
Q 15.484375 15.921875 20.484375 11.0625 
Q 25.484375 6.203125 34.421875 6.203125 
Q 39.59375 6.203125 44.453125 7.46875 
Q 49.3125 8.734375 54.109375 11.28125 
L 54.109375 2.78125 
Q 49.265625 0.734375 44.1875 -0.34375 
Q 39.109375 -1.421875 33.890625 -1.421875 
Q 20.796875 -1.421875 13.15625 6.1875 
Q 5.515625 13.8125 5.515625 26.8125 
Q 5.515625 40.234375 12.765625 48.109375 
Q 20.015625 56 32.328125 56 
Q 43.359375 56 49.78125 48.890625 
Q 56.203125 41.796875 56.203125 29.59375 
z
M 47.21875 32.234375 
Q 47.125 39.59375 43.09375 43.984375 
Q 39.0625 48.390625 32.421875 48.390625 
Q 24.90625 48.390625 20.390625 44.140625 
Q 15.875 39.890625 15.1875 32.171875 
z
" id="DejaVuSans-101"/>
       <path d="M 31 75.875 
Q 24.46875 64.65625 21.28125 53.65625 
Q 18.109375 42.671875 18.109375 31.390625 
Q 18.109375 20.125 21.3125 9.0625 
Q 24.515625 -2 31 -13.1875 
L 23.1875 -13.1875 
Q 15.875 -1.703125 12.234375 9.375 
Q 8.59375 20.453125 8.59375 31.390625 
Q 8.59375 42.28125 12.203125 53.3125 
Q 15.828125 64.359375 23.1875 75.875 
z
" id="DejaVuSans-40"/>
       <path d="M 45.40625 46.390625 
L 45.40625 75.984375 
L 54.390625 75.984375 
L 54.390625 0 
L 45.40625 0 
L 45.40625 8.203125 
Q 42.578125 3.328125 38.25 0.953125 
Q 33.9375 -1.421875 27.875 -1.421875 
Q 17.96875 -1.421875 11.734375 6.484375 
Q 5.515625 14.40625 5.515625 27.296875 
Q 5.515625 40.1875 11.734375 48.09375 
Q 17.96875 56 27.875 56 
Q 33.9375 56 38.25 53.625 
Q 42.578125 51.265625 45.40625 46.390625 
z
M 14.796875 27.296875 
Q 14.796875 17.390625 18.875 11.75 
Q 22.953125 6.109375 30.078125 6.109375 
Q 37.203125 6.109375 41.296875 11.75 
Q 45.40625 17.390625 45.40625 27.296875 
Q 45.40625 37.203125 41.296875 42.84375 
Q 37.203125 48.484375 30.078125 48.484375 
Q 22.953125 48.484375 18.875 42.84375 
Q 14.796875 37.203125 14.796875 27.296875 
z
" id="DejaVuSans-100"/>
       <path d="M 8.015625 75.875 
L 15.828125 75.875 
Q 23.140625 64.359375 26.78125 53.3125 
Q 30.421875 42.28125 30.421875 31.390625 
Q 30.421875 20.453125 26.78125 9.375 
Q 23.140625 -1.703125 15.828125 -13.1875 
L 8.015625 -13.1875 
Q 14.5 -2 17.703125 9.0625 
Q 20.90625 20.125 20.90625 31.390625 
Q 20.90625 42.671875 17.703125 53.65625 
Q 14.5 64.65625 8.015625 75.875 
z
" id="DejaVuSans-41"/>
      </defs>
      <use xlink:href="#DejaVuSans-82"/>
      <use x="64.982422" xlink:href="#DejaVuSans-111"/>
      <use x="126.164062" xlink:href="#DejaVuSans-116"/>
      <use x="165.373047" xlink:href="#DejaVuSans-97"/>
      <use x="226.652344" xlink:href="#DejaVuSans-116"/>
      <use x="265.861328" xlink:href="#DejaVuSans-105"/>
      <use x="293.644531" xlink:href="#DejaVuSans-111"/>
      <use x="354.826172" xlink:href="#DejaVuSans-110"/>
      <use x="418.205078" xlink:href="#DejaVuSans-32"/>
      <use x="449.992188" xlink:href="#DejaVuSans-97"/>
      <use x="511.271484" xlink:href="#DejaVuSans-110"/>
      <use x="574.650391" xlink:href="#DejaVuSans-103"/>
      <use x="638.126953" xlink:href="#DejaVuSans-108"/>
      <use x="665.910156" xlink:href="#DejaVuSans-101"/>
      <use x="727.433594" xlink:href="#DejaVuSans-32"/>
      <use x="759.220703" xlink:href="#DejaVuSans-40"/>
      <use x="798.234375" xlink:href="#DejaVuSans-100"/>
      <use x="861.710938" xlink:href="#DejaVuSans-101"/>
      <use x="923.234375" xlink:href="#DejaVuSans-103"/>
      <use x="986.710938" xlink:href="#DejaVuSans-41"/>
     </g>
    </g>
   </g>
   <g id="matplotlib.axis_2">
    <g id="ytick_1">
     <g id="line2d_6">
      <defs>
       <path d="M 0 0 
L -3.5 0 
" id="mbf63eb8af5" style="stroke:#000000;stroke-width:0.8;"/>
      </defs>
      <g>
       <use style="stroke:#000000;stroke-width:0.8;" x="35.459375" xlink:href="#mbf63eb8af5" y="131.084349"/>
      </g>
     </g>
     <g id="text_7">
      <!-- 100 -->
      <g transform="translate(17.006875 133.36388)scale(0.06 -0.06)">
       <use xlink:href="#DejaVuSans-49"/>
       <use x="63.623047" xlink:href="#DejaVuSans-48"/>
       <use x="127.246094" xlink:href="#DejaVuSans-48"/>
      </g>
     </g>
    </g>
    <g id="ytick_2">
     <g id="line2d_7">
      <g>
       <use style="stroke:#000000;stroke-width:0.8;" x="35.459375" xlink:href="#mbf63eb8af5" y="108.573951"/>
      </g>
     </g>
     <g id="text_8">
      <!-- 200 -->
      <g transform="translate(17.006875 110.853482)scale(0.06 -0.06)">
       <defs>
        <path d="M 19.1875 8.296875 
L 53.609375 8.296875 
L 53.609375 0 
L 7.328125 0 
L 7.328125 8.296875 
Q 12.9375 14.109375 22.625 23.890625 
Q 32.328125 33.6875 34.8125 36.53125 
Q 39.546875 41.84375 41.421875 45.53125 
Q 43.3125 49.21875 43.3125 52.78125 
Q 43.3125 58.59375 39.234375 62.25 
Q 35.15625 65.921875 28.609375 65.921875 
Q 23.96875 65.921875 18.8125 64.3125 
Q 13.671875 62.703125 7.8125 59.421875 
L 7.8125 69.390625 
Q 13.765625 71.78125 18.9375 73 
Q 24.125 74.21875 28.421875 74.21875 
Q 39.75 74.21875 46.484375 68.546875 
Q 53.21875 62.890625 53.21875 53.421875 
Q 53.21875 48.921875 51.53125 44.890625 
Q 49.859375 40.875 45.40625 35.40625 
Q 44.1875 33.984375 37.640625 27.21875 
Q 31.109375 20.453125 19.1875 8.296875 
z
" id="DejaVuSans-50"/>
       </defs>
       <use xlink:href="#DejaVuSans-50"/>
       <use x="63.623047" xlink:href="#DejaVuSans-48"/>
       <use x="127.246094" xlink:href="#DejaVuSans-48"/>
      </g>
     </g>
    </g>
    <g id="ytick_3">
     <g id="line2d_8">
      <g>
       <use style="stroke:#000000;stroke-width:0.8;" x="35.459375" xlink:href="#mbf63eb8af5" y="86.063554"/>
      </g>
     </g>
     <g id="text_9">
      <!-- 300 -->
      <g transform="translate(17.006875 88.343085)scale(0.06 -0.06)">
       <use xlink:href="#DejaVuSans-51"/>
       <use x="63.623047" xlink:href="#DejaVuSans-48"/>
       <use x="127.246094" xlink:href="#DejaVuSans-48"/>
      </g>
     </g>
    </g>
    <g id="ytick_4">
     <g id="line2d_9">
      <g>
       <use style="stroke:#000000;stroke-width:0.8;" x="35.459375" xlink:href="#mbf63eb8af5" y="63.553156"/>
      </g>
     </g>
     <g id="text_10">
      <!-- 400 -->
      <g transform="translate(17.006875 65.832687)scale(0.06 -0.06)">
       <use xlink:href="#DejaVuSans-52"/>
       <use x="63.623047" xlink:href="#DejaVuSans-48"/>
       <use x="127.246094" xlink:href="#DejaVuSans-48"/>
      </g>
     </g>
    </g>
    <g id="ytick_5">
     <g id="line2d_10">
      <g>
       <use style="stroke:#000000;stroke-width:0.8;" x="35.459375" xlink:href="#mbf63eb8af5" y="41.042758"/>
      </g>
     </g>
     <g id="text_11">
      <!-- 500 -->
      <g transform="translate(17.006875 43.32229)scale(0.06 -0.06)">
       <use xlink:href="#DejaVuSans-53"/>
       <use x="63.623047" xlink:href="#DejaVuSans-48"/>
       <use x="127.246094" xlink:href="#DejaVuSans-48"/>
      </g>
     </g>
    </g>
    <g id="text_12">
     <!-- Intensity at APD (au) -->
     <g transform="translate(11.759063 115.335121)rotate(-90)scale(0.06 -0.06)">
      <defs>
       <path d="M 9.8125 72.90625 
L 19.671875 72.90625 
L 19.671875 0 
L 9.8125 0 
z
" id="DejaVuSans-73"/>
       <path d="M 44.28125 53.078125 
L 44.28125 44.578125 
Q 40.484375 46.53125 36.375 47.5 
Q 32.28125 48.484375 27.875 48.484375 
Q 21.1875 48.484375 17.84375 46.4375 
Q 14.5 44.390625 14.5 40.28125 
Q 14.5 37.15625 16.890625 35.375 
Q 19.28125 33.59375 26.515625 31.984375 
L 29.59375 31.296875 
Q 39.15625 29.25 43.1875 25.515625 
Q 47.21875 21.78125 47.21875 15.09375 
Q 47.21875 7.46875 41.1875 3.015625 
Q 35.15625 -1.421875 24.609375 -1.421875 
Q 20.21875 -1.421875 15.453125 -0.5625 
Q 10.6875 0.296875 5.421875 2 
L 5.421875 11.28125 
Q 10.40625 8.6875 15.234375 7.390625 
Q 20.0625 6.109375 24.8125 6.109375 
Q 31.15625 6.109375 34.5625 8.28125 
Q 37.984375 10.453125 37.984375 14.40625 
Q 37.984375 18.0625 35.515625 20.015625 
Q 33.0625 21.96875 24.703125 23.78125 
L 21.578125 24.515625 
Q 13.234375 26.265625 9.515625 29.90625 
Q 5.8125 33.546875 5.8125 39.890625 
Q 5.8125 47.609375 11.28125 51.796875 
Q 16.75 56 26.8125 56 
Q 31.78125 56 36.171875 55.265625 
Q 40.578125 54.546875 44.28125 53.078125 
z
" id="DejaVuSans-115"/>
       <path d="M 32.171875 -5.078125 
Q 28.375 -14.84375 24.75 -17.8125 
Q 21.140625 -20.796875 15.09375 -20.796875 
L 7.90625 -20.796875 
L 7.90625 -13.28125 
L 13.1875 -13.28125 
Q 16.890625 -13.28125 18.9375 -11.515625 
Q 21 -9.765625 23.484375 -3.21875 
L 25.09375 0.875 
L 2.984375 54.6875 
L 12.5 54.6875 
L 29.59375 11.921875 
L 46.6875 54.6875 
L 56.203125 54.6875 
z
" id="DejaVuSans-121"/>
       <path d="M 34.1875 63.1875 
L 20.796875 26.90625 
L 47.609375 26.90625 
z
M 28.609375 72.90625 
L 39.796875 72.90625 
L 67.578125 0 
L 57.328125 0 
L 50.6875 18.703125 
L 17.828125 18.703125 
L 11.1875 0 
L 0.78125 0 
z
" id="DejaVuSans-65"/>
       <path d="M 19.671875 64.796875 
L 19.671875 37.40625 
L 32.078125 37.40625 
Q 38.96875 37.40625 42.71875 40.96875 
Q 46.484375 44.53125 46.484375 51.125 
Q 46.484375 57.671875 42.71875 61.234375 
Q 38.96875 64.796875 32.078125 64.796875 
z
M 9.8125 72.90625 
L 32.078125 72.90625 
Q 44.34375 72.90625 50.609375 67.359375 
Q 56.890625 61.8125 56.890625 51.125 
Q 56.890625 40.328125 50.609375 34.8125 
Q 44.34375 29.296875 32.078125 29.296875 
L 19.671875 29.296875 
L 19.671875 0 
L 9.8125 0 
z
" id="DejaVuSans-80"/>
       <path d="M 19.671875 64.796875 
L 19.671875 8.109375 
L 31.59375 8.109375 
Q 46.6875 8.109375 53.6875 14.9375 
Q 60.6875 21.78125 60.6875 36.53125 
Q 60.6875 51.171875 53.6875 57.984375 
Q 46.6875 64.796875 31.59375 64.796875 
z
M 9.8125 72.90625 
L 30.078125 72.90625 
Q 51.265625 72.90625 61.171875 64.09375 
Q 71.09375 55.28125 71.09375 36.53125 
Q 71.09375 17.671875 61.125 8.828125 
Q 51.171875 0 30.078125 0 
L 9.8125 0 
z
" id="DejaVuSans-68"/>
       <path d="M 8.5 21.578125 
L 8.5 54.6875 
L 17.484375 54.6875 
L 17.484375 21.921875 
Q 17.484375 14.15625 20.5 10.265625 
Q 23.53125 6.390625 29.59375 6.390625 
Q 36.859375 6.390625 41.078125 11.03125 
Q 45.3125 15.671875 45.3125 23.6875 
L 45.3125 54.6875 
L 54.296875 54.6875 
L 54.296875 0 
L 45.3125 0 
L 45.3125 8.40625 
Q 42.046875 3.421875 37.71875 1 
Q 33.40625 -1.421875 27.6875 -1.421875 
Q 18.265625 -1.421875 13.375 4.4375 
Q 8.5 10.296875 8.5 21.578125 
z
M 31.109375 56 
z
" id="DejaVuSans-117"/>
      </defs>
      <use xlink:href="#DejaVuSans-73"/>
      <use x="29.492188" xlink:href="#DejaVuSans-110"/>
      <use x="92.871094" xlink:href="#DejaVuSans-116"/>
      <use x="132.080078" xlink:href="#DejaVuSans-101"/>
      <use x="193.603516" xlink:href="#DejaVuSans-110"/>
      <use x="256.982422" xlink:href="#DejaVuSans-115"/>
      <use x="309.082031" xlink:href="#DejaVuSans-105"/>
      <use x="336.865234" xlink:href="#DejaVuSans-116"/>
      <use x="376.074219" xlink:href="#DejaVuSans-121"/>
      <use x="435.253906" xlink:href="#DejaVuSans-32"/>
      <use x="467.041016" xlink:href="#DejaVuSans-97"/>
      <use x="528.320312" xlink:href="#DejaVuSans-116"/>
      <use x="567.529297" xlink:href="#DejaVuSans-32"/>
      <use x="599.316406" xlink:href="#DejaVuSans-65"/>
      <use x="667.724609" xlink:href="#DejaVuSans-80"/>
      <use x="728.027344" xlink:href="#DejaVuSans-68"/>
      <use x="805.029297" xlink:href="#DejaVuSans-32"/>
      <use x="836.816406" xlink:href="#DejaVuSans-40"/>
      <use x="875.830078" xlink:href="#DejaVuSans-97"/>
      <use x="937.109375" xlink:href="#DejaVuSans-117"/>
      <use x="1000.488281" xlink:href="#DejaVuSans-41"/>
     </g>
    </g>
   </g>
   <g id="line2d_11">
    <path clip-path="url(#pcd81e4e4b9)" d="M 43.006958 24.623619 
L 51.886466 26.612569 
L 60.765975 32.247093 
L 69.645484 41.272788 
L 78.524993 54.512897 
L 87.404502 72.013687 
L 96.284011 94.039961 
L 105.16352 117.861486 
L 114.043029 135.613981 
L 122.922538 138.384016 
L 131.802047 125.213111 
L 140.681556 102.919371 
L 149.561064 79.474302 
L 158.440573 60.169363 
L 167.320082 45.044757 
L 176.199591 34.796645 
L 185.0791 28.376813 
L 193.958609 25.091317 
" style="fill:none;stroke:#1f77b4;stroke-linecap:square;stroke-width:1.5;"/>
    <defs>
     <path d="M 0 1.5 
C 0.397805 1.5 0.77937 1.341951 1.06066 1.06066 
C 1.341951 0.77937 1.5 0.397805 1.5 0 
C 1.5 -0.397805 1.341951 -0.77937 1.06066 -1.06066 
C 0.77937 -1.341951 0.397805 -1.5 0 -1.5 
C -0.397805 -1.5 -0.77937 -1.341951 -1.06066 -1.06066 
C -1.341951 -0.77937 -1.5 -0.397805 -1.5 0 
C -1.5 0.397805 -1.341951 0.77937 -1.06066 1.06066 
C -0.77937 1.341951 -0.397805 1.5 0 1.5 
z
" id="m25da75159a" style="stroke:#1f77b4;"/>
    </defs>
    <g clip-path="url(#pcd81e4e4b9)">
     <use style="fill:#1f77b4;stroke:#1f77b4;" x="43.006958" xlink:href="#m25da75159a" y="24.623619"/>
     <use style="fill:#1f77b4;stroke:#1f77b4;" x="51.886466" xlink:href="#m25da75159a" y="26.612569"/>
     <use style="fill:#1f77b4;stroke:#1f77b4;" x="60.765975" xlink:href="#m25da75159a" y="32.247093"/>
     <use style="fill:#1f77b4;stroke:#1f77b4;" x="69.645484" xlink:href="#m25da75159a" y="41.272788"/>
     <use style="fill:#1f77b4;stroke:#1f77b4;" x="78.524993" xlink:href="#m25da75159a" y="54.512897"/>
     <use style="fill:#1f77b4;stroke:#1f77b4;" x="87.404502" xlink:href="#m25da75159a" y="72.013687"/>
     <use style="fill:#1f77b4;stroke:#1f77b4;" x="96.284011" xlink:href="#m25da75159a" y="94.039961"/>
     <use style="fill:#1f77b4;stroke:#1f77b4;" x="105.16352" xlink:href="#m25da75159a" y="117.861486"/>
     <use style="fill:#1f77b4;stroke:#1f77b4;" x="114.043029" xlink:href="#m25da75159a" y="135.613981"/>
     <use style="fill:#1f77b4;stroke:#1f77b4;" x="122.922538" xlink:href="#m25da75159a" y="138.384016"/>
     <use style="fill:#1f77b4;stroke:#1f77b4;" x="131.802047" xlink:href="#m25da75159a" y="125.213111"/>
     <use style="fill:#1f77b4;stroke:#1f77b4;" x="140.681556" xlink:href="#m25da75159a" y="102.919371"/>
     <use style="fill:#1f77b4;stroke:#1f77b4;" x="149.561064" xlink:href="#m25da75159a" y="79.474302"/>
     <use style="fill:#1f77b4;stroke:#1f77b4;" x="158.440573" xlink:href="#m25da75159a" y="60.169363"/>
     <use style="fill:#1f77b4;stroke:#1f77b4;" x="167.320082" xlink:href="#m25da75159a" y="45.044757"/>
     <use style="fill:#1f77b4;stroke:#1f77b4;" x="176.199591" xlink:href="#m25da75159a" y="34.796645"/>
     <use style="fill:#1f77b4;stroke:#1f77b4;" x="185.0791" xlink:href="#m25da75159a" y="28.376813"/>
     <use style="fill:#1f77b4;stroke:#1f77b4;" x="193.958609" xlink:href="#m25da75159a" y="25.091317"/>
    </g>
   </g>
   <g id="line2d_12">
    <path clip-path="url(#pcd81e4e4b9)" d="M 43.006958 54.944832 
L 51.886466 58.653758 
L 60.765975 62.918773 
L 69.645484 66.402829 
L 78.524993 68.492556 
L 87.404502 68.492027 
L 96.284011 66.502033 
L 105.16352 63.547262 
L 114.043029 59.871351 
L 122.922538 55.704819 
L 131.802047 52.491509 
L 140.681556 49.443057 
L 149.561064 46.9798 
L 158.440573 46.084406 
L 167.320082 46.397112 
L 176.199591 47.895604 
L 185.0791 50.741925 
L 193.958609 54.599365 
" style="fill:none;stroke:#ff7f0e;stroke-linecap:square;stroke-width:1.5;"/>
    <defs>
     <path d="M 0 1.5 
C 0.397805 1.5 0.77937 1.341951 1.06066 1.06066 
C 1.341951 0.77937 1.5 0.397805 1.5 0 
C 1.5 -0.397805 1.341951 -0.77937 1.06066 -1.06066 
C 0.77937 -1.341951 0.397805 -1.5 0 -1.5 
C -0.397805 -1.5 -0.77937 -1.341951 -1.06066 -1.06066 
C -1.341951 -0.77937 -1.5 -0.397805 -1.5 0 
C -1.5 0.397805 -1.341951 0.77937 -1.06066 1.06066 
C -0.77937 1.341951 -0.397805 1.5 0 1.5 
z
" id="m81b1506661" style="stroke:#ff7f0e;"/>
    </defs>
    <g clip-path="url(#pcd81e4e4b9)">
     <use style="fill:#ff7f0e;stroke:#ff7f0e;" x="43.006958" xlink:href="#m81b1506661" y="54.944832"/>
     <use style="fill:#ff7f0e;stroke:#ff7f0e;" x="51.886466" xlink:href="#m81b1506661" y="58.653758"/>
     <use style="fill:#ff7f0e;stroke:#ff7f0e;" x="60.765975" xlink:href="#m81b1506661" y="62.918773"/>
     <use style="fill:#ff7f0e;stroke:#ff7f0e;" x="69.645484" xlink:href="#m81b1506661" y="66.402829"/>
     <use style="fill:#ff7f0e;stroke:#ff7f0e;" x="78.524993" xlink:href="#m81b1506661" y="68.492556"/>
     <use style="fill:#ff7f0e;stroke:#ff7f0e;" x="87.404502" xlink:href="#m81b1506661" y="68.492027"/>
     <use style="fill:#ff7f0e;stroke:#ff7f0e;" x="96.284011" xlink:href="#m81b1506661" y="66.502033"/>
     <use style="fill:#ff7f0e;stroke:#ff7f0e;" x="105.16352" xlink:href="#m81b1506661" y="63.547262"/>
     <use style="fill:#ff7f0e;stroke:#ff7f0e;" x="114.043029" xlink:href="#m81b1506661" y="59.871351"/>
     <use style="fill:#ff7f0e;stroke:#ff7f0e;" x="122.922538" xlink:href="#m81b1506661" y="55.704819"/>
     <use style="fill:#ff7f0e;stroke:#ff7f0e;" x="131.802047" xlink:href="#m81b1506661" y="52.491509"/>
     <use style="fill:#ff7f0e;stroke:#ff7f0e;" x="140.681556" xlink:href="#m81b1506661" y="49.443057"/>
     <use style="fill:#ff7f0e;stroke:#ff7f0e;" x="149.561064" xlink:href="#m81b1506661" y="46.9798"/>
     <use style="fill:#ff7f0e;stroke:#ff7f0e;" x="158.440573" xlink:href="#m81b1506661" y="46.084406"/>
     <use style="fill:#ff7f0e;stroke:#ff7f0e;" x="167.320082" xlink:href="#m81b1506661" y="46.397112"/>
     <use style="fill:#ff7f0e;stroke:#ff7f0e;" x="176.199591" xlink:href="#m81b1506661" y="47.895604"/>
     <use style="fill:#ff7f0e;stroke:#ff7f0e;" x="185.0791" xlink:href="#m81b1506661" y="50.741925"/>
     <use style="fill:#ff7f0e;stroke:#ff7f0e;" x="193.958609" xlink:href="#m81b1506661" y="54.599365"/>
    </g>
   </g>
   <g id="line2d_13">
    <path clip-path="url(#pcd81e4e4b9)" d="M 43.006958 137.518489 
L 51.886466 125.385601 
L 60.765975 103.002264 
L 69.645484 80.724671 
L 78.524993 62.051703 
L 87.404502 47.564062 
L 96.284011 36.938513 
L 105.16352 30.467612 
L 114.043029 27.342 
L 122.922538 26.895213 
L 131.802047 29.73002 
L 140.681556 35.135895 
L 149.561064 43.583834 
L 158.440573 56.316154 
L 167.320082 74.273424 
L 176.199591 95.50866 
L 185.0791 118.045767 
L 193.958609 134.562383 
" style="fill:none;stroke:#2ca02c;stroke-linecap:square;stroke-width:1.5;"/>
    <defs>
     <path d="M 0 1.5 
C 0.397805 1.5 0.77937 1.341951 1.06066 1.06066 
C 1.341951 0.77937 1.5 0.397805 1.5 0 
C 1.5 -0.397805 1.341951 -0.77937 1.06066 -1.06066 
C 0.77937 -1.341951 0.397805 -1.5 0 -1.5 
C -0.397805 -1.5 -0.77937 -1.341951 -1.06066 -1.06066 
C -1.341951 -0.77937 -1.5 -0.397805 -1.5 0 
C -1.5 0.397805 -1.341951 0.77937 -1.06066 1.06066 
C -0.77937 1.341951 -0.397805 1.5 0 1.5 
z
" id="m0c269f5450" style="stroke:#2ca02c;"/>
    </defs>
    <g clip-path="url(#pcd81e4e4b9)">
     <use style="fill:#2ca02c;stroke:#2ca02c;" x="43.006958" xlink:href="#m0c269f5450" y="137.518489"/>
     <use style="fill:#2ca02c;stroke:#2ca02c;" x="51.886466" xlink:href="#m0c269f5450" y="125.385601"/>
     <use style="fill:#2ca02c;stroke:#2ca02c;" x="60.765975" xlink:href="#m0c269f5450" y="103.002264"/>
     <use style="fill:#2ca02c;stroke:#2ca02c;" x="69.645484" xlink:href="#m0c269f5450" y="80.724671"/>
     <use style="fill:#2ca02c;stroke:#2ca02c;" x="78.524993" xlink:href="#m0c269f5450" y="62.051703"/>
     <use style="fill:#2ca02c;stroke:#2ca02c;" x="87.404502" xlink:href="#m0c269f5450" y="47.564062"/>
     <use style="fill:#2ca02c;stroke:#2ca02c;" x="96.284011" xlink:href="#m0c269f5450" y="36.938513"/>
     <use style="fill:#2ca02c;stroke:#2ca02c;" x="105.16352" xlink:href="#m0c269f5450" y="30.467612"/>
     <use style="fill:#2ca02c;stroke:#2ca02c;" x="114.043029" xlink:href="#m0c269f5450" y="27.342"/>
     <use style="fill:#2ca02c;stroke:#2ca02c;" x="122.922538" xlink:href="#m0c269f5450" y="26.895213"/>
     <use style="fill:#2ca02c;stroke:#2ca02c;" x="131.802047" xlink:href="#m0c269f5450" y="29.73002"/>
     <use style="fill:#2ca02c;stroke:#2ca02c;" x="140.681556" xlink:href="#m0c269f5450" y="35.135895"/>
     <use style="fill:#2ca02c;stroke:#2ca02c;" x="149.561064" xlink:href="#m0c269f5450" y="43.583834"/>
     <use style="fill:#2ca02c;stroke:#2ca02c;" x="158.440573" xlink:href="#m0c269f5450" y="56.316154"/>
     <use style="fill:#2ca02c;stroke:#2ca02c;" x="167.320082" xlink:href="#m0c269f5450" y="74.273424"/>
     <use style="fill:#2ca02c;stroke:#2ca02c;" x="176.199591" xlink:href="#m0c269f5450" y="95.50866"/>
     <use style="fill:#2ca02c;stroke:#2ca02c;" x="185.0791" xlink:href="#m0c269f5450" y="118.045767"/>
     <use style="fill:#2ca02c;stroke:#2ca02c;" x="193.958609" xlink:href="#m0c269f5450" y="134.562383"/>
    </g>
   </g>
   <g id="line2d_14">
    <path clip-path="url(#pcd81e4e4b9)" d="M 43.006958 57.016409 
L 51.886466 53.526467 
L 60.765975 50.634786 
L 69.645484 49.094746 
L 78.524993 48.951329 
L 87.404502 49.746777 
L 96.284011 51.612478 
L 105.16352 54.939549 
L 114.043029 59.192838 
L 122.922538 63.57068 
L 131.802047 68.066557 
L 140.681556 71.344496 
L 149.561064 72.723265 
L 158.440573 72.475807 
L 167.320082 70.345941 
L 176.199591 66.615767 
L 185.0791 62.168658 
L 193.958609 57.396746 
" style="fill:none;stroke:#d62728;stroke-linecap:square;stroke-width:1.5;"/>
    <defs>
     <path d="M 0 1.5 
C 0.397805 1.5 0.77937 1.341951 1.06066 1.06066 
C 1.341951 0.77937 1.5 0.397805 1.5 0 
C 1.5 -0.397805 1.341951 -0.77937 1.06066 -1.06066 
C 0.77937 -1.341951 0.397805 -1.5 0 -1.5 
C -0.397805 -1.5 -0.77937 -1.341951 -1.06066 -1.06066 
C -1.341951 -0.77937 -1.5 -0.397805 -1.5 0 
C -1.5 0.397805 -1.341951 0.77937 -1.06066 1.06066 
C -0.77937 1.341951 -0.397805 1.5 0 1.5 
z
" id="mcbd4a03efc" style="stroke:#d62728;"/>
    </defs>
    <g clip-path="url(#pcd81e4e4b9)">
     <use style="fill:#d62728;stroke:#d62728;" x="43.006958" xlink:href="#mcbd4a03efc" y="57.016409"/>
     <use style="fill:#d62728;stroke:#d62728;" x="51.886466" xlink:href="#mcbd4a03efc" y="53.526467"/>
     <use style="fill:#d62728;stroke:#d62728;" x="60.765975" xlink:href="#mcbd4a03efc" y="50.634786"/>
     <use style="fill:#d62728;stroke:#d62728;" x="69.645484" xlink:href="#mcbd4a03efc" y="49.094746"/>
     <use style="fill:#d62728;stroke:#d62728;" x="78.524993" xlink:href="#mcbd4a03efc" y="48.951329"/>
     <use style="fill:#d62728;stroke:#d62728;" x="87.404502" xlink:href="#mcbd4a03efc" y="49.746777"/>
     <use style="fill:#d62728;stroke:#d62728;" x="96.284011" xlink:href="#mcbd4a03efc" y="51.612478"/>
     <use style="fill:#d62728;stroke:#d62728;" x="105.16352" xlink:href="#mcbd4a03efc" y="54.939549"/>
     <use style="fill:#d62728;stroke:#d62728;" x="114.043029" xlink:href="#mcbd4a03efc" y="59.192838"/>
     <use style="fill:#d62728;stroke:#d62728;" x="122.922538" xlink:href="#mcbd4a03efc" y="63.57068"/>
     <use style="fill:#d62728;stroke:#d62728;" x="131.802047" xlink:href="#mcbd4a03efc" y="68.066557"/>
     <use style="fill:#d62728;stroke:#d62728;" x="140.681556" xlink:href="#mcbd4a03efc" y="71.344496"/>
     <use style="fill:#d62728;stroke:#d62728;" x="149.561064" xlink:href="#mcbd4a03efc" y="72.723265"/>
     <use style="fill:#d62728;stroke:#d62728;" x="158.440573" xlink:href="#mcbd4a03efc" y="72.475807"/>
     <use style="fill:#d62728;stroke:#d62728;" x="167.320082" xlink:href="#mcbd4a03efc" y="70.345941"/>
     <use style="fill:#d62728;stroke:#d62728;" x="176.199591" xlink:href="#mcbd4a03efc" y="66.615767"/>
     <use style="fill:#d62728;stroke:#d62728;" x="185.0791" xlink:href="#mcbd4a03efc" y="62.168658"/>
     <use style="fill:#d62728;stroke:#d62728;" x="193.958609" xlink:href="#mcbd4a03efc" y="57.396746"/>
    </g>
   </g>
   <g id="patch_3">
    <path d="M 35.459375 149.631243 
L 35.459375 18.670875 
" style="fill:none;stroke:#000000;stroke-linecap:square;stroke-linejoin:miter;stroke-width:0.8;"/>
   </g>
   <g id="patch_4">
    <path d="M 202.838118 149.631243 
L 202.838118 18.670875 
" style="fill:none;stroke:#000000;stroke-linecap:square;stroke-linejoin:miter;stroke-width:0.8;"/>
   </g>
   <g id="patch_5">
    <path d="M 35.459375 149.631243 
L 202.838118 149.631243 
" style="fill:none;stroke:#000000;stroke-linecap:square;stroke-linejoin:miter;stroke-width:0.8;"/>
   </g>
   <g id="patch_6">
    <path d="M 35.459375 18.670875 
L 202.838118 18.670875 
" style="fill:none;stroke:#000000;stroke-linecap:square;stroke-linejoin:miter;stroke-width:0.8;"/>
   </g>
   <g id="text_13">
    <!-- APD1 -->
    <g transform="translate(109.452934 12.670875)scale(0.072 -0.072)">
     <use xlink:href="#DejaVuSans-65"/>
     <use x="68.408203" xlink:href="#DejaVuSans-80"/>
     <use x="128.710938" xlink:href="#DejaVuSans-68"/>
     <use x="205.712891" xlink:href="#DejaVuSans-49"/>
    </g>
   </g>
  </g>
  <g id="axes_2">
   <g id="patch_7">
    <path d="M 219.575992 149.631243 
L 386.954735 149.631243 
L 386.954735 18.670875 
L 219.575992 18.670875 
z
" style="fill:#ffffff;"/>
   </g>
   <g id="matplotlib.axis_3">
    <g id="xtick_6">
     <g id="line2d_15">
      <g>
       <use style="stroke:#000000;stroke-width:0.8;" x="227.184117" xlink:href="#me33f144e6a" y="149.631243"/>
      </g>
     </g>
     <g id="text_14">
      <!-- 0 -->
      <g transform="translate(225.275367 161.190305)scale(0.06 -0.06)">
       <use xlink:href="#DejaVuSans-48"/>
      </g>
     </g>
    </g>
    <g id="xtick_7">
     <g id="line2d_16">
      <g>
       <use style="stroke:#000000;stroke-width:0.8;" x="267.462424" xlink:href="#me33f144e6a" y="149.631243"/>
      </g>
     </g>
     <g id="text_15">
      <!-- 45 -->
      <g transform="translate(263.644924 161.190305)scale(0.06 -0.06)">
       <use xlink:href="#DejaVuSans-52"/>
       <use x="63.623047" xlink:href="#DejaVuSans-53"/>
      </g>
     </g>
    </g>
    <g id="xtick_8">
     <g id="line2d_17">
      <g>
       <use style="stroke:#000000;stroke-width:0.8;" x="307.740731" xlink:href="#me33f144e6a" y="149.631243"/>
      </g>
     </g>
     <g id="text_16">
      <!-- 90 -->
      <g transform="translate(303.923231 161.190305)scale(0.06 -0.06)">
       <use xlink:href="#DejaVuSans-57"/>
       <use x="63.623047" xlink:href="#DejaVuSans-48"/>
      </g>
     </g>
    </g>
    <g id="xtick_9">
     <g id="line2d_18">
      <g>
       <use style="stroke:#000000;stroke-width:0.8;" x="348.019038" xlink:href="#me33f144e6a" y="149.631243"/>
      </g>
     </g>
     <g id="text_17">
      <!-- 135 -->
      <g transform="translate(342.292788 161.190305)scale(0.06 -0.06)">
       <use xlink:href="#DejaVuSans-49"/>
       <use x="63.623047" xlink:href="#DejaVuSans-51"/>
       <use x="127.246094" xlink:href="#DejaVuSans-53"/>
      </g>
     </g>
    </g>
    <g id="text_18">
     <!-- Rotation angle (deg) -->
     <g transform="translate(272.492864 170.99718)scale(0.06 -0.06)">
      <use xlink:href="#DejaVuSans-82"/>
      <use x="64.982422" xlink:href="#DejaVuSans-111"/>
      <use x="126.164062" xlink:href="#DejaVuSans-116"/>
      <use x="165.373047" xlink:href="#DejaVuSans-97"/>
      <use x="226.652344" xlink:href="#DejaVuSans-116"/>
      <use x="265.861328" xlink:href="#DejaVuSans-105"/>
      <use x="293.644531" xlink:href="#DejaVuSans-111"/>
      <use x="354.826172" xlink:href="#DejaVuSans-110"/>
      <use x="418.205078" xlink:href="#DejaVuSans-32"/>
      <use x="449.992188" xlink:href="#DejaVuSans-97"/>
      <use x="511.271484" xlink:href="#DejaVuSans-110"/>
      <use x="574.650391" xlink:href="#DejaVuSans-103"/>
      <use x="638.126953" xlink:href="#DejaVuSans-108"/>
      <use x="665.910156" xlink:href="#DejaVuSans-101"/>
      <use x="727.433594" xlink:href="#DejaVuSans-32"/>
      <use x="759.220703" xlink:href="#DejaVuSans-40"/>
      <use x="798.234375" xlink:href="#DejaVuSans-100"/>
      <use x="861.710938" xlink:href="#DejaVuSans-101"/>
      <use x="923.234375" xlink:href="#DejaVuSans-103"/>
      <use x="986.710938" xlink:href="#DejaVuSans-41"/>
     </g>
    </g>
   </g>
   <g id="matplotlib.axis_4">
    <g id="ytick_6">
     <g id="line2d_19">
      <g>
       <use style="stroke:#000000;stroke-width:0.8;" x="219.575992" xlink:href="#mbf63eb8af5" y="131.084349"/>
      </g>
     </g>
    </g>
    <g id="ytick_7">
     <g id="line2d_20">
      <g>
       <use style="stroke:#000000;stroke-width:0.8;" x="219.575992" xlink:href="#mbf63eb8af5" y="108.573951"/>
      </g>
     </g>
    </g>
    <g id="ytick_8">
     <g id="line2d_21">
      <g>
       <use style="stroke:#000000;stroke-width:0.8;" x="219.575992" xlink:href="#mbf63eb8af5" y="86.063554"/>
      </g>
     </g>
    </g>
    <g id="ytick_9">
     <g id="line2d_22">
      <g>
       <use style="stroke:#000000;stroke-width:0.8;" x="219.575992" xlink:href="#mbf63eb8af5" y="63.553156"/>
      </g>
     </g>
    </g>
    <g id="ytick_10">
     <g id="line2d_23">
      <g>
       <use style="stroke:#000000;stroke-width:0.8;" x="219.575992" xlink:href="#mbf63eb8af5" y="41.042758"/>
      </g>
     </g>
    </g>
   </g>
   <g id="line2d_24">
    <path clip-path="url(#p803e794b9c)" d="M 227.184117 143.678499 
L 236.134852 131.600497 
L 245.085587 109.294452 
L 254.036322 87.43118 
L 262.987056 69.317276 
L 271.937791 55.398956 
L 280.888526 45.148886 
L 289.839261 38.924948 
L 298.789996 35.855983 
L 307.740731 35.362675 
L 316.691466 37.985884 
L 325.642201 43.061804 
L 334.592936 51.090785 
L 343.543671 63.07674 
L 352.494406 80.194885 
L 361.445141 100.847443 
L 370.395875 123.275955 
L 379.34661 140.377865 
" style="fill:none;stroke:#1f77b4;stroke-linecap:square;stroke-width:1.5;"/>
    <g clip-path="url(#p803e794b9c)">
     <use style="fill:#1f77b4;stroke:#1f77b4;" x="227.184117" xlink:href="#m25da75159a" y="143.678499"/>
     <use style="fill:#1f77b4;stroke:#1f77b4;" x="236.134852" xlink:href="#m25da75159a" y="131.600497"/>
     <use style="fill:#1f77b4;stroke:#1f77b4;" x="245.085587" xlink:href="#m25da75159a" y="109.294452"/>
     <use style="fill:#1f77b4;stroke:#1f77b4;" x="254.036322" xlink:href="#m25da75159a" y="87.43118"/>
     <use style="fill:#1f77b4;stroke:#1f77b4;" x="262.987056" xlink:href="#m25da75159a" y="69.317276"/>
     <use style="fill:#1f77b4;stroke:#1f77b4;" x="271.937791" xlink:href="#m25da75159a" y="55.398956"/>
     <use style="fill:#1f77b4;stroke:#1f77b4;" x="280.888526" xlink:href="#m25da75159a" y="45.148886"/>
     <use style="fill:#1f77b4;stroke:#1f77b4;" x="289.839261" xlink:href="#m25da75159a" y="38.924948"/>
     <use style="fill:#1f77b4;stroke:#1f77b4;" x="298.789996" xlink:href="#m25da75159a" y="35.855983"/>
     <use style="fill:#1f77b4;stroke:#1f77b4;" x="307.740731" xlink:href="#m25da75159a" y="35.362675"/>
     <use style="fill:#1f77b4;stroke:#1f77b4;" x="316.691466" xlink:href="#m25da75159a" y="37.985884"/>
     <use style="fill:#1f77b4;stroke:#1f77b4;" x="325.642201" xlink:href="#m25da75159a" y="43.061804"/>
     <use style="fill:#1f77b4;stroke:#1f77b4;" x="334.592936" xlink:href="#m25da75159a" y="51.090785"/>
     <use style="fill:#1f77b4;stroke:#1f77b4;" x="343.543671" xlink:href="#m25da75159a" y="63.07674"/>
     <use style="fill:#1f77b4;stroke:#1f77b4;" x="352.494406" xlink:href="#m25da75159a" y="80.194885"/>
     <use style="fill:#1f77b4;stroke:#1f77b4;" x="361.445141" xlink:href="#m25da75159a" y="100.847443"/>
     <use style="fill:#1f77b4;stroke:#1f77b4;" x="370.395875" xlink:href="#m25da75159a" y="123.275955"/>
     <use style="fill:#1f77b4;stroke:#1f77b4;" x="379.34661" xlink:href="#m25da75159a" y="140.377865"/>
    </g>
   </g>
   <g id="line2d_25">
    <path clip-path="url(#p803e794b9c)" d="M 227.184117 66.566573 
L 236.134852 62.757337 
L 245.085587 59.159383 
L 254.036322 56.832276 
L 262.987056 55.748592 
L 271.937791 55.581282 
L 280.888526 56.448779 
L 289.839261 58.810653 
L 298.789996 62.24105 
L 307.740731 66.136775 
L 316.691466 70.568056 
L 325.642201 74.304502 
L 334.592936 76.797016 
L 343.543671 78.026989 
L 352.494406 77.485669 
L 361.445141 75.107926 
L 370.395875 71.592682 
L 379.34661 67.211027 
" style="fill:none;stroke:#ff7f0e;stroke-linecap:square;stroke-width:1.5;"/>
    <g clip-path="url(#p803e794b9c)">
     <use style="fill:#ff7f0e;stroke:#ff7f0e;" x="227.184117" xlink:href="#m81b1506661" y="66.566573"/>
     <use style="fill:#ff7f0e;stroke:#ff7f0e;" x="236.134852" xlink:href="#m81b1506661" y="62.757337"/>
     <use style="fill:#ff7f0e;stroke:#ff7f0e;" x="245.085587" xlink:href="#m81b1506661" y="59.159383"/>
     <use style="fill:#ff7f0e;stroke:#ff7f0e;" x="254.036322" xlink:href="#m81b1506661" y="56.832276"/>
     <use style="fill:#ff7f0e;stroke:#ff7f0e;" x="262.987056" xlink:href="#m81b1506661" y="55.748592"/>
     <use style="fill:#ff7f0e;stroke:#ff7f0e;" x="271.937791" xlink:href="#m81b1506661" y="55.581282"/>
     <use style="fill:#ff7f0e;stroke:#ff7f0e;" x="280.888526" xlink:href="#m81b1506661" y="56.448779"/>
     <use style="fill:#ff7f0e;stroke:#ff7f0e;" x="289.839261" xlink:href="#m81b1506661" y="58.810653"/>
     <use style="fill:#ff7f0e;stroke:#ff7f0e;" x="298.789996" xlink:href="#m81b1506661" y="62.24105"/>
     <use style="fill:#ff7f0e;stroke:#ff7f0e;" x="307.740731" xlink:href="#m81b1506661" y="66.136775"/>
     <use style="fill:#ff7f0e;stroke:#ff7f0e;" x="316.691466" xlink:href="#m81b1506661" y="70.568056"/>
     <use style="fill:#ff7f0e;stroke:#ff7f0e;" x="325.642201" xlink:href="#m81b1506661" y="74.304502"/>
     <use style="fill:#ff7f0e;stroke:#ff7f0e;" x="334.592936" xlink:href="#m81b1506661" y="76.797016"/>
     <use style="fill:#ff7f0e;stroke:#ff7f0e;" x="343.543671" xlink:href="#m81b1506661" y="78.026989"/>
     <use style="fill:#ff7f0e;stroke:#ff7f0e;" x="352.494406" xlink:href="#m81b1506661" y="77.485669"/>
     <use style="fill:#ff7f0e;stroke:#ff7f0e;" x="361.445141" xlink:href="#m81b1506661" y="75.107926"/>
     <use style="fill:#ff7f0e;stroke:#ff7f0e;" x="370.395875" xlink:href="#m81b1506661" y="71.592682"/>
     <use style="fill:#ff7f0e;stroke:#ff7f0e;" x="379.34661" xlink:href="#m81b1506661" y="67.211027"/>
    </g>
   </g>
   <g id="line2d_26">
    <path clip-path="url(#p803e794b9c)" d="M 227.184117 37.452691 
L 236.134852 39.293737 
L 245.085587 44.631287 
L 254.036322 53.170778 
L 262.987056 65.567269 
L 271.937791 81.81192 
L 280.888526 102.234212 
L 289.839261 124.177769 
L 298.789996 140.528817 
L 307.740731 143.042189 
L 316.691466 130.823363 
L 325.642201 110.250721 
L 334.592936 88.612625 
L 343.543671 70.82711 
L 352.494406 56.689628 
L 361.445141 46.97109 
L 370.395875 40.912242 
L 379.34661 37.738467 
" style="fill:none;stroke:#2ca02c;stroke-linecap:square;stroke-width:1.5;"/>
    <g clip-path="url(#p803e794b9c)">
     <use style="fill:#2ca02c;stroke:#2ca02c;" x="227.184117" xlink:href="#m0c269f5450" y="37.452691"/>
     <use style="fill:#2ca02c;stroke:#2ca02c;" x="236.134852" xlink:href="#m0c269f5450" y="39.293737"/>
     <use style="fill:#2ca02c;stroke:#2ca02c;" x="245.085587" xlink:href="#m0c269f5450" y="44.631287"/>
     <use style="fill:#2ca02c;stroke:#2ca02c;" x="254.036322" xlink:href="#m0c269f5450" y="53.170778"/>
     <use style="fill:#2ca02c;stroke:#2ca02c;" x="262.987056" xlink:href="#m0c269f5450" y="65.567269"/>
     <use style="fill:#2ca02c;stroke:#2ca02c;" x="271.937791" xlink:href="#m0c269f5450" y="81.81192"/>
     <use style="fill:#2ca02c;stroke:#2ca02c;" x="280.888526" xlink:href="#m0c269f5450" y="102.234212"/>
     <use style="fill:#2ca02c;stroke:#2ca02c;" x="289.839261" xlink:href="#m0c269f5450" y="124.177769"/>
     <use style="fill:#2ca02c;stroke:#2ca02c;" x="298.789996" xlink:href="#m0c269f5450" y="140.528817"/>
     <use style="fill:#2ca02c;stroke:#2ca02c;" x="307.740731" xlink:href="#m0c269f5450" y="143.042189"/>
     <use style="fill:#2ca02c;stroke:#2ca02c;" x="316.691466" xlink:href="#m0c269f5450" y="130.823363"/>
     <use style="fill:#2ca02c;stroke:#2ca02c;" x="325.642201" xlink:href="#m0c269f5450" y="110.250721"/>
     <use style="fill:#2ca02c;stroke:#2ca02c;" x="334.592936" xlink:href="#m0c269f5450" y="88.612625"/>
     <use style="fill:#2ca02c;stroke:#2ca02c;" x="343.543671" xlink:href="#m0c269f5450" y="70.82711"/>
     <use style="fill:#2ca02c;stroke:#2ca02c;" x="352.494406" xlink:href="#m0c269f5450" y="56.689628"/>
     <use style="fill:#2ca02c;stroke:#2ca02c;" x="361.445141" xlink:href="#m0c269f5450" y="46.97109"/>
     <use style="fill:#2ca02c;stroke:#2ca02c;" x="370.395875" xlink:href="#m0c269f5450" y="40.912242"/>
     <use style="fill:#2ca02c;stroke:#2ca02c;" x="379.34661" xlink:href="#m0c269f5450" y="37.738467"/>
    </g>
   </g>
   <g id="line2d_27">
    <path clip-path="url(#p803e794b9c)" d="M 227.184117 69.912762 
L 236.134852 73.825723 
L 245.085587 77.813961 
L 254.036322 80.376532 
L 262.987056 81.188268 
L 271.937791 79.824365 
L 280.888526 76.580891 
L 289.839261 72.625448 
L 298.789996 68.430956 
L 307.740731 64.26983 
L 316.691466 61.257113 
L 325.642201 58.879563 
L 334.592936 57.236409 
L 343.543671 57.126372 
L 352.494406 58.394409 
L 361.445141 60.77207 
L 370.395875 64.513599 
L 379.34661 69.134729 
" style="fill:none;stroke:#d62728;stroke-linecap:square;stroke-width:1.5;"/>
    <g clip-path="url(#p803e794b9c)">
     <use style="fill:#d62728;stroke:#d62728;" x="227.184117" xlink:href="#mcbd4a03efc" y="69.912762"/>
     <use style="fill:#d62728;stroke:#d62728;" x="236.134852" xlink:href="#mcbd4a03efc" y="73.825723"/>
     <use style="fill:#d62728;stroke:#d62728;" x="245.085587" xlink:href="#mcbd4a03efc" y="77.813961"/>
     <use style="fill:#d62728;stroke:#d62728;" x="254.036322" xlink:href="#mcbd4a03efc" y="80.376532"/>
     <use style="fill:#d62728;stroke:#d62728;" x="262.987056" xlink:href="#mcbd4a03efc" y="81.188268"/>
     <use style="fill:#d62728;stroke:#d62728;" x="271.937791" xlink:href="#mcbd4a03efc" y="79.824365"/>
     <use style="fill:#d62728;stroke:#d62728;" x="280.888526" xlink:href="#mcbd4a03efc" y="76.580891"/>
     <use style="fill:#d62728;stroke:#d62728;" x="289.839261" xlink:href="#mcbd4a03efc" y="72.625448"/>
     <use style="fill:#d62728;stroke:#d62728;" x="298.789996" xlink:href="#mcbd4a03efc" y="68.430956"/>
     <use style="fill:#d62728;stroke:#d62728;" x="307.740731" xlink:href="#mcbd4a03efc" y="64.26983"/>
     <use style="fill:#d62728;stroke:#d62728;" x="316.691466" xlink:href="#mcbd4a03efc" y="61.257113"/>
     <use style="fill:#d62728;stroke:#d62728;" x="325.642201" xlink:href="#mcbd4a03efc" y="58.879563"/>
     <use style="fill:#d62728;stroke:#d62728;" x="334.592936" xlink:href="#mcbd4a03efc" y="57.236409"/>
     <use style="fill:#d62728;stroke:#d62728;" x="343.543671" xlink:href="#mcbd4a03efc" y="57.126372"/>
     <use style="fill:#d62728;stroke:#d62728;" x="352.494406" xlink:href="#mcbd4a03efc" y="58.394409"/>
     <use style="fill:#d62728;stroke:#d62728;" x="361.445141" xlink:href="#mcbd4a03efc" y="60.77207"/>
     <use style="fill:#d62728;stroke:#d62728;" x="370.395875" xlink:href="#mcbd4a03efc" y="64.513599"/>
     <use style="fill:#d62728;stroke:#d62728;" x="379.34661" xlink:href="#mcbd4a03efc" y="69.134729"/>
    </g>
   </g>
   <g id="patch_8">
    <path d="M 219.575992 149.631243 
L 219.575992 18.670875 
" style="fill:none;stroke:#000000;stroke-linecap:square;stroke-linejoin:miter;stroke-width:0.8;"/>
   </g>
   <g id="patch_9">
    <path d="M 386.954735 149.631243 
L 386.954735 18.670875 
" style="fill:none;stroke:#000000;stroke-linecap:square;stroke-linejoin:miter;stroke-width:0.8;"/>
   </g>
   <g id="patch_10">
    <path d="M 219.575992 149.631243 
L 386.954735 149.631243 
" style="fill:none;stroke:#000000;stroke-linecap:square;stroke-linejoin:miter;stroke-width:0.8;"/>
   </g>
   <g id="patch_11">
    <path d="M 219.575992 18.670875 
L 386.954735 18.670875 
" style="fill:none;stroke:#000000;stroke-linecap:square;stroke-linejoin:miter;stroke-width:0.8;"/>
   </g>
   <g id="text_19">
    <!-- APD2 -->
    <g transform="translate(293.569551 12.670875)scale(0.072 -0.072)">
     <use xlink:href="#DejaVuSans-65"/>
     <use x="68.408203" xlink:href="#DejaVuSans-80"/>
     <use x="128.710938" xlink:href="#DejaVuSans-68"/>
     <use x="205.712891" xlink:href="#DejaVuSans-50"/>
    </g>
   </g>
   <g id="legend_1">
    <g id="patch_12">
     <path d="M 223.775992 146.631243 
L 254.428492 146.631243 
Q 255.628492 146.631243 255.628492 145.431243 
L 255.628492 101.996868 
Q 255.628492 100.796868 254.428492 100.796868 
L 223.775992 100.796868 
Q 222.575992 100.796868 222.575992 101.996868 
L 222.575992 145.431243 
Q 222.575992 146.631243 223.775992 146.631243 
z
" style="fill:#ffffff;opacity:0.8;stroke:#cccccc;stroke-linejoin:miter;"/>
    </g>
    <g id="text_20">
     <!-- P1 angle -->
     <g transform="translate(226.107555 107.75593)scale(0.06 -0.06)">
      <use xlink:href="#DejaVuSans-80"/>
      <use x="60.302734" xlink:href="#DejaVuSans-49"/>
      <use x="123.925781" xlink:href="#DejaVuSans-32"/>
      <use x="155.712891" xlink:href="#DejaVuSans-97"/>
      <use x="216.992188" xlink:href="#DejaVuSans-110"/>
      <use x="280.371094" xlink:href="#DejaVuSans-103"/>
      <use x="343.847656" xlink:href="#DejaVuSans-108"/>
      <use x="371.630859" xlink:href="#DejaVuSans-101"/>
     </g>
    </g>
    <g id="line2d_28">
     <path d="M 224.975992 114.462805 
L 236.975992 114.462805 
" style="fill:none;stroke:#1f77b4;stroke-linecap:square;stroke-width:1.5;"/>
    </g>
    <g id="line2d_29">
     <g>
      <use style="fill:#1f77b4;stroke:#1f77b4;" x="230.975992" xlink:href="#m25da75159a" y="114.462805"/>
     </g>
    </g>
    <g id="text_21">
     <!-- 0 -->
     <g transform="translate(241.775992 116.562805)scale(0.06 -0.06)">
      <use xlink:href="#DejaVuSans-48"/>
     </g>
    </g>
    <g id="line2d_30">
     <path d="M 224.975992 123.26968 
L 236.975992 123.26968 
" style="fill:none;stroke:#ff7f0e;stroke-linecap:square;stroke-width:1.5;"/>
    </g>
    <g id="line2d_31">
     <g>
      <use style="fill:#ff7f0e;stroke:#ff7f0e;" x="230.975992" xlink:href="#m81b1506661" y="123.26968"/>
     </g>
    </g>
    <g id="text_22">
     <!-- 45 -->
     <g transform="translate(241.775992 125.36968)scale(0.06 -0.06)">
      <use xlink:href="#DejaVuSans-52"/>
      <use x="63.623047" xlink:href="#DejaVuSans-53"/>
     </g>
    </g>
    <g id="line2d_32">
     <path d="M 224.975992 132.076555 
L 236.975992 132.076555 
" style="fill:none;stroke:#2ca02c;stroke-linecap:square;stroke-width:1.5;"/>
    </g>
    <g id="line2d_33">
     <g>
      <use style="fill:#2ca02c;stroke:#2ca02c;" x="230.975992" xlink:href="#m0c269f5450" y="132.076555"/>
     </g>
    </g>
    <g id="text_23">
     <!-- 90 -->
     <g transform="translate(241.775992 134.176555)scale(0.06 -0.06)">
      <use xlink:href="#DejaVuSans-57"/>
      <use x="63.623047" xlink:href="#DejaVuSans-48"/>
     </g>
    </g>
    <g id="line2d_34">
     <path d="M 224.975992 140.883431 
L 236.975992 140.883431 
" style="fill:none;stroke:#d62728;stroke-linecap:square;stroke-width:1.5;"/>
    </g>
    <g id="line2d_35">
     <g>
      <use style="fill:#d62728;stroke:#d62728;" x="230.975992" xlink:href="#mcbd4a03efc" y="140.883431"/>
     </g>
    </g>
    <g id="text_24">
     <!-- 135 -->
     <g transform="translate(241.775992 142.98343)scale(0.06 -0.06)">
      <use xlink:href="#DejaVuSans-49"/>
      <use x="63.623047" xlink:href="#DejaVuSans-51"/>
      <use x="127.246094" xlink:href="#DejaVuSans-53"/>
     </g>
    </g>
   </g>
  </g>
 </g>
 <defs>
  <clipPath id="pcd81e4e4b9">
   <rect height="130.960368" width="167.378743" x="35.459375" y="18.670875"/>
  </clipPath>
  <clipPath id="p803e794b9c">
   <rect height="130.960368" width="167.378743" x="219.575992" y="18.670875"/>
  </clipPath>
 </defs>
</svg>
