<?xml version="1.0" encoding="utf-8" standalone="no"?>
<!DOCTYPE svg PUBLIC "-//W3C//DTD SVG 1.1//EN"
  "http://www.w3.org/Graphics/SVG/1.1/DTD/svg11.dtd">
<!-- Created with matplotlib (https://matplotlib.org/) -->
<svg height="179.444993pt" version="1.1" viewBox="0 0 395.365047 179.444993" width="395.365047pt" xmlns="http://www.w3.org/2000/svg" xmlns:xlink="http://www.w3.org/1999/xlink">
 <defs>
  <style type="text/css">
*{stroke-linecap:butt;stroke-linejoin:round;}
  </style>
 </defs>
 <g id="figure_1">
  <g id="patch_1">
   <path d="M 0 179.444993 
L 395.365047 179.444993 
L 395.365047 -0 
L 0 -0 
z
" style="fill:#ffffff;"/>
  </g>
  <g id="axes_1">
   <g id="patch_2">
    <path d="M 36.669688 149.631243 
L 196.440306 149.631243 
L 196.440306 18.670875 
L 36.669688 18.670875 
z
" style="fill:#ffffff;"/>
   </g>
   <g id="matplotlib.axis_1">
    <g id="xtick_1">
     <g id="line2d_1">
      <defs>
       <path d="M 0 0 
L 0 3.5 
" id="m45dd4e0bbc" style="stroke:#000000;stroke-width:0.8;"/>
      </defs>
      <g>
       <use style="stroke:#000000;stroke-width:0.8;" x="43.931988" xlink:href="#m45dd4e0bbc" y="149.631243"/>
      </g>
     </g>
     <g id="text_1">
      <!-- 0 -->
      <defs>
       <path d="M 31.78125 66.40625 
Q 24.171875 66.40625 20.328125 58.90625 
Q 16.5 51.421875 16.5 36.375 
Q 16.5 21.390625 20.328125 13.890625 
Q 24.171875 6.390625 31.78125 6.390625 
Q 39.453125 6.390625 43.28125 13.890625 
Q 47.125 21.390625 47.125 36.375 
Q 47.125 51.421875 43.28125 58.90625 
Q 39.453125 66.40625 31.78125 66.40625 
z
M 31.78125 74.21875 
Q 44.046875 74.21875 50.515625 64.515625 
Q 56.984375 54.828125 56.984375 36.375 
Q 56.984375 17.96875 50.515625 8.265625 
Q 44.046875 -1.421875 31.78125 -1.421875 
Q 19.53125 -1.421875 13.0625 8.265625 
Q 6.59375 17.96875 6.59375 36.375 
Q 6.59375 54.828125 13.0625 64.515625 
Q 19.53125 74.21875 31.78125 74.21875 
z
" id="DejaVuSans-48"/>
      </defs>
      <g transform="translate(42.023238 161.190305)scale(0.06 -0.06)">
       <use xlink:href="#DejaVuSans-48"/>
      </g>
     </g>
    </g>
    <g id="xtick_2">
     <g id="line2d_2">
      <g>
       <use style="stroke:#000000;stroke-width:0.8;" x="68.139658" xlink:href="#m45dd4e0bbc" y="149.631243"/>
      </g>
     </g>
     <g id="text_2">
      <!-- 30 -->
      <defs>
       <path d="M 40.578125 39.3125 
Q 47.65625 37.796875 51.625 33 
Q 55.609375 28.21875 55.609375 21.1875 
Q 55.609375 10.40625 48.1875 4.484375 
Q 40.765625 -1.421875 27.09375 -1.421875 
Q 22.515625 -1.421875 17.65625 -0.515625 
Q 12.796875 0.390625 7.625 2.203125 
L 7.625 11.71875 
Q 11.71875 9.328125 16.59375 8.109375 
Q 21.484375 6.890625 26.8125 6.890625 
Q 36.078125 6.890625 40.9375 10.546875 
Q 45.796875 14.203125 45.796875 21.1875 
Q 45.796875 27.640625 41.28125 31.265625 
Q 36.765625 34.90625 28.71875 34.90625 
L 20.21875 34.90625 
L 20.21875 43.015625 
L 29.109375 43.015625 
Q 36.375 43.015625 40.234375 45.921875 
Q 44.09375 48.828125 44.09375 54.296875 
Q 44.09375 59.90625 40.109375 62.90625 
Q 36.140625 65.921875 28.71875 65.921875 
Q 24.65625 65.921875 20.015625 65.03125 
Q 15.375 64.15625 9.8125 62.3125 
L 9.8125 71.09375 
Q 15.4375 72.65625 20.34375 73.4375 
Q 25.25 74.21875 29.59375 74.21875 
Q 40.828125 74.21875 47.359375 69.109375 
Q 53.90625 64.015625 53.90625 55.328125 
Q 53.90625 49.265625 50.4375 45.09375 
Q 46.96875 40.921875 40.578125 39.3125 
z
" id="DejaVuSans-51"/>
      </defs>
      <g transform="translate(64.322158 161.190305)scale(0.06 -0.06)">
       <use xlink:href="#DejaVuSans-51"/>
       <use x="63.623047" xlink:href="#DejaVuSans-48"/>
      </g>
     </g>
    </g>
    <g id="xtick_3">
     <g id="line2d_3">
      <g>
       <use style="stroke:#000000;stroke-width:0.8;" x="92.347327" xlink:href="#m45dd4e0bbc" y="149.631243"/>
      </g>
     </g>
     <g id="text_3">
      <!-- 60 -->
      <defs>
       <path d="M 33.015625 40.375 
Q 26.375 40.375 22.484375 35.828125 
Q 18.609375 31.296875 18.609375 23.390625 
Q 18.609375 15.53125 22.484375 10.953125 
Q 26.375 6.390625 33.015625 6.390625 
Q 39.65625 6.390625 43.53125 10.953125 
Q 47.40625 15.53125 47.40625 23.390625 
Q 47.40625 31.296875 43.53125 35.828125 
Q 39.65625 40.375 33.015625 40.375 
z
M 52.59375 71.296875 
L 52.59375 62.3125 
Q 48.875 64.0625 45.09375 64.984375 
Q 41.3125 65.921875 37.59375 65.921875 
Q 27.828125 65.921875 22.671875 59.328125 
Q 17.53125 52.734375 16.796875 39.40625 
Q 19.671875 43.65625 24.015625 45.921875 
Q 28.375 48.1875 33.59375 48.1875 
Q 44.578125 48.1875 50.953125 41.515625 
Q 57.328125 34.859375 57.328125 23.390625 
Q 57.328125 12.15625 50.6875 5.359375 
Q 44.046875 -1.421875 33.015625 -1.421875 
Q 20.359375 -1.421875 13.671875 8.265625 
Q 6.984375 17.96875 6.984375 36.375 
Q 6.984375 53.65625 15.1875 63.9375 
Q 23.390625 74.21875 37.203125 74.21875 
Q 40.921875 74.21875 44.703125 73.484375 
Q 48.484375 72.75 52.59375 71.296875 
z
" id="DejaVuSans-54"/>
      </defs>
      <g transform="translate(88.529827 161.190305)scale(0.06 -0.06)">
       <use xlink:href="#DejaVuSans-54"/>
       <use x="63.623047" xlink:href="#DejaVuSans-48"/>
      </g>
     </g>
    </g>
    <g id="xtick_4">
     <g id="line2d_4">
      <g>
       <use style="stroke:#000000;stroke-width:0.8;" x="116.554997" xlink:href="#m45dd4e0bbc" y="149.631243"/>
      </g>
     </g>
     <g id="text_4">
      <!-- 90 -->
      <defs>
       <path d="M 10.984375 1.515625 
L 10.984375 10.5 
Q 14.703125 8.734375 18.5 7.8125 
Q 22.3125 6.890625 25.984375 6.890625 
Q 35.75 6.890625 40.890625 13.453125 
Q 46.046875 20.015625 46.78125 33.40625 
Q 43.953125 29.203125 39.59375 26.953125 
Q 35.25 24.703125 29.984375 24.703125 
Q 19.046875 24.703125 12.671875 31.3125 
Q 6.296875 37.9375 6.296875 49.421875 
Q 6.296875 60.640625 12.9375 67.421875 
Q 19.578125 74.21875 30.609375 74.21875 
Q 43.265625 74.21875 49.921875 64.515625 
Q 56.59375 54.828125 56.59375 36.375 
Q 56.59375 19.140625 48.40625 8.859375 
Q 40.234375 -1.421875 26.421875 -1.421875 
Q 22.703125 -1.421875 18.890625 -0.6875 
Q 15.09375 0.046875 10.984375 1.515625 
z
M 30.609375 32.421875 
Q 37.25 32.421875 41.125 36.953125 
Q 45.015625 41.5 45.015625 49.421875 
Q 45.015625 57.28125 41.125 61.84375 
Q 37.25 66.40625 30.609375 66.40625 
Q 23.96875 66.40625 20.09375 61.84375 
Q 16.21875 57.28125 16.21875 49.421875 
Q 16.21875 41.5 20.09375 36.953125 
Q 23.96875 32.421875 30.609375 32.421875 
z
" id="DejaVuSans-57"/>
      </defs>
      <g transform="translate(112.737497 161.190305)scale(0.06 -0.06)">
       <use xlink:href="#DejaVuSans-57"/>
       <use x="63.623047" xlink:href="#DejaVuSans-48"/>
      </g>
     </g>
    </g>
    <g id="xtick_5">
     <g id="line2d_5">
      <g>
       <use style="stroke:#000000;stroke-width:0.8;" x="140.762666" xlink:href="#m45dd4e0bbc" y="149.631243"/>
      </g>
     </g>
     <g id="text_5">
      <!-- 120 -->
      <defs>
       <path d="M 12.40625 8.296875 
L 28.515625 8.296875 
L 28.515625 63.921875 
L 10.984375 60.40625 
L 10.984375 69.390625 
L 28.421875 72.90625 
L 38.28125 72.90625 
L 38.28125 8.296875 
L 54.390625 8.296875 
L 54.390625 0 
L 12.40625 0 
z
" id="DejaVuSans-49"/>
       <path d="M 19.1875 8.296875 
L 53.609375 8.296875 
L 53.609375 0 
L 7.328125 0 
L 7.328125 8.296875 
Q 12.9375 14.109375 22.625 23.890625 
Q 32.328125 33.6875 34.8125 36.53125 
Q 39.546875 41.84375 41.421875 45.53125 
Q 43.3125 49.21875 43.3125 52.78125 
Q 43.3125 58.59375 39.234375 62.25 
Q 35.15625 65.921875 28.609375 65.921875 
Q 23.96875 65.921875 18.8125 64.3125 
Q 13.671875 62.703125 7.8125 59.421875 
L 7.8125 69.390625 
Q 13.765625 71.78125 18.9375 73 
Q 24.125 74.21875 28.421875 74.21875 
Q 39.75 74.21875 46.484375 68.546875 
Q 53.21875 62.890625 53.21875 53.421875 
Q 53.21875 48.921875 51.53125 44.890625 
Q 49.859375 40.875 45.40625 35.40625 
Q 44.1875 33.984375 37.640625 27.21875 
Q 31.109375 20.453125 19.1875 8.296875 
z
" id="DejaVuSans-50"/>
      </defs>
      <g transform="translate(135.036416 161.190305)scale(0.06 -0.06)">
       <use xlink:href="#DejaVuSans-49"/>
       <use x="63.623047" xlink:href="#DejaVuSans-50"/>
       <use x="127.246094" xlink:href="#DejaVuSans-48"/>
      </g>
     </g>
    </g>
    <g id="xtick_6">
     <g id="line2d_6">
      <g>
       <use style="stroke:#000000;stroke-width:0.8;" x="164.970335" xlink:href="#m45dd4e0bbc" y="149.631243"/>
      </g>
     </g>
     <g id="text_6">
      <!-- 150 -->
      <defs>
       <path d="M 10.796875 72.90625 
L 49.515625 72.90625 
L 49.515625 64.59375 
L 19.828125 64.59375 
L 19.828125 46.734375 
Q 21.96875 47.46875 24.109375 47.828125 
Q 26.265625 48.1875 28.421875 48.1875 
Q 40.625 48.1875 47.75 41.5 
Q 54.890625 34.8125 54.890625 23.390625 
Q 54.890625 11.625 47.5625 5.09375 
Q 40.234375 -1.421875 26.90625 -1.421875 
Q 22.3125 -1.421875 17.546875 -0.640625 
Q 12.796875 0.140625 7.71875 1.703125 
L 7.71875 11.625 
Q 12.109375 9.234375 16.796875 8.0625 
Q 21.484375 6.890625 26.703125 6.890625 
Q 35.15625 6.890625 40.078125 11.328125 
Q 45.015625 15.765625 45.015625 23.390625 
Q 45.015625 31 40.078125 35.4375 
Q 35.15625 39.890625 26.703125 39.890625 
Q 22.75 39.890625 18.8125 39.015625 
Q 14.890625 38.140625 10.796875 36.28125 
z
" id="DejaVuSans-53"/>
      </defs>
      <g transform="translate(159.244085 161.190305)scale(0.06 -0.06)">
       <use xlink:href="#DejaVuSans-49"/>
       <use x="63.623047" xlink:href="#DejaVuSans-53"/>
       <use x="127.246094" xlink:href="#DejaVuSans-48"/>
      </g>
     </g>
    </g>
    <g id="xtick_7">
     <g id="line2d_7">
      <g>
       <use style="stroke:#000000;stroke-width:0.8;" x="189.178005" xlink:href="#m45dd4e0bbc" y="149.631243"/>
      </g>
     </g>
     <g id="text_7">
      <!-- 180 -->
      <defs>
       <path d="M 31.78125 34.625 
Q 24.75 34.625 20.71875 30.859375 
Q 16.703125 27.09375 16.703125 20.515625 
Q 16.703125 13.921875 20.71875 10.15625 
Q 24.75 6.390625 31.78125 6.390625 
Q 38.8125 6.390625 42.859375 10.171875 
Q 46.921875 13.96875 46.921875 20.515625 
Q 46.921875 27.09375 42.890625 30.859375 
Q 38.875 34.625 31.78125 34.625 
z
M 21.921875 38.8125 
Q 15.578125 40.375 12.03125 44.71875 
Q 8.5 49.078125 8.5 55.328125 
Q 8.5 64.0625 14.71875 69.140625 
Q 20.953125 74.21875 31.78125 74.21875 
Q 42.671875 74.21875 48.875 69.140625 
Q 55.078125 64.0625 55.078125 55.328125 
Q 55.078125 49.078125 51.53125 44.71875 
Q 48 40.375 41.703125 38.8125 
Q 48.828125 37.15625 52.796875 32.3125 
Q 56.78125 27.484375 56.78125 20.515625 
Q 56.78125 9.90625 50.3125 4.234375 
Q 43.84375 -1.421875 31.78125 -1.421875 
Q 19.734375 -1.421875 13.25 4.234375 
Q 6.78125 9.90625 6.78125 20.515625 
Q 6.78125 27.484375 10.78125 32.3125 
Q 14.796875 37.15625 21.921875 38.8125 
z
M 18.3125 54.390625 
Q 18.3125 48.734375 21.84375 45.5625 
Q 25.390625 42.390625 31.78125 42.390625 
Q 38.140625 42.390625 41.71875 45.5625 
Q 45.3125 48.734375 45.3125 54.390625 
Q 45.3125 60.0625 41.71875 63.234375 
Q 38.140625 66.40625 31.78125 66.40625 
Q 25.390625 66.40625 21.84375 63.234375 
Q 18.3125 60.0625 18.3125 54.390625 
z
" id="DejaVuSans-56"/>
      </defs>
      <g transform="translate(183.451755 161.190305)scale(0.06 -0.06)">
       <use xlink:href="#DejaVuSans-49"/>
       <use x="63.623047" xlink:href="#DejaVuSans-56"/>
       <use x="127.246094" xlink:href="#DejaVuSans-48"/>
      </g>
     </g>
    </g>
    <g id="text_8">
     <!-- Depletion polarisation (deg) -->
     <defs>
      <path d="M 19.671875 64.796875 
L 19.671875 8.109375 
L 31.59375 8.109375 
Q 46.6875 8.109375 53.6875 14.9375 
Q 60.6875 21.78125 60.6875 36.53125 
Q 60.6875 51.171875 53.6875 57.984375 
Q 46.6875 64.796875 31.59375 64.796875 
z
M 9.8125 72.90625 
L 30.078125 72.90625 
Q 51.265625 72.90625 61.171875 64.09375 
Q 71.09375 55.28125 71.09375 36.53125 
Q 71.09375 17.671875 61.125 8.828125 
Q 51.171875 0 30.078125 0 
L 9.8125 0 
z
" id="DejaVuSans-68"/>
      <path d="M 56.203125 29.59375 
L 56.203125 25.203125 
L 14.890625 25.203125 
Q 15.484375 15.921875 20.484375 11.0625 
Q 25.484375 6.203125 34.421875 6.203125 
Q 39.59375 6.203125 44.453125 7.46875 
Q 49.3125 8.734375 54.109375 11.28125 
L 54.109375 2.78125 
Q 49.265625 0.734375 44.1875 -0.34375 
Q 39.109375 -1.421875 33.890625 -1.421875 
Q 20.796875 -1.421875 13.15625 6.1875 
Q 5.515625 13.8125 5.515625 26.8125 
Q 5.515625 40.234375 12.765625 48.109375 
Q 20.015625 56 32.328125 56 
Q 43.359375 56 49.78125 48.890625 
Q 56.203125 41.796875 56.203125 29.59375 
z
M 47.21875 32.234375 
Q 47.125 39.59375 43.09375 43.984375 
Q 39.0625 48.390625 32.421875 48.390625 
Q 24.90625 48.390625 20.390625 44.140625 
Q 15.875 39.890625 15.1875 32.171875 
z
" id="DejaVuSans-101"/>
      <path d="M 18.109375 8.203125 
L 18.109375 -20.796875 
L 9.078125 -20.796875 
L 9.078125 54.6875 
L 18.109375 54.6875 
L 18.109375 46.390625 
Q 20.953125 51.265625 25.265625 53.625 
Q 29.59375 56 35.59375 56 
Q 45.5625 56 51.78125 48.09375 
Q 58.015625 40.1875 58.015625 27.296875 
Q 58.015625 14.40625 51.78125 6.484375 
Q 45.5625 -1.421875 35.59375 -1.421875 
Q 29.59375 -1.421875 25.265625 0.953125 
Q 20.953125 3.328125 18.109375 8.203125 
z
M 48.6875 27.296875 
Q 48.6875 37.203125 44.609375 42.84375 
Q 40.53125 48.484375 33.40625 48.484375 
Q 26.265625 48.484375 22.1875 42.84375 
Q 18.109375 37.203125 18.109375 27.296875 
Q 18.109375 17.390625 22.1875 11.75 
Q 26.265625 6.109375 33.40625 6.109375 
Q 40.53125 6.109375 44.609375 11.75 
Q 48.6875 17.390625 48.6875 27.296875 
z
" id="DejaVuSans-112"/>
      <path d="M 9.421875 75.984375 
L 18.40625 75.984375 
L 18.40625 0 
L 9.421875 0 
z
" id="DejaVuSans-108"/>
      <path d="M 18.3125 70.21875 
L 18.3125 54.6875 
L 36.8125 54.6875 
L 36.8125 47.703125 
L 18.3125 47.703125 
L 18.3125 18.015625 
Q 18.3125 11.328125 20.140625 9.421875 
Q 21.96875 7.515625 27.59375 7.515625 
L 36.8125 7.515625 
L 36.8125 0 
L 27.59375 0 
Q 17.1875 0 13.234375 3.875 
Q 9.28125 7.765625 9.28125 18.015625 
L 9.28125 47.703125 
L 2.6875 47.703125 
L 2.6875 54.6875 
L 9.28125 54.6875 
L 9.28125 70.21875 
z
" id="DejaVuSans-116"/>
      <path d="M 9.421875 54.6875 
L 18.40625 54.6875 
L 18.40625 0 
L 9.421875 0 
z
M 9.421875 75.984375 
L 18.40625 75.984375 
L 18.40625 64.59375 
L 9.421875 64.59375 
z
" id="DejaVuSans-105"/>
      <path d="M 30.609375 48.390625 
Q 23.390625 48.390625 19.1875 42.75 
Q 14.984375 37.109375 14.984375 27.296875 
Q 14.984375 17.484375 19.15625 11.84375 
Q 23.34375 6.203125 30.609375 6.203125 
Q 37.796875 6.203125 41.984375 11.859375 
Q 46.1875 17.53125 46.1875 27.296875 
Q 46.1875 37.015625 41.984375 42.703125 
Q 37.796875 48.390625 30.609375 48.390625 
z
M 30.609375 56 
Q 42.328125 56 49.015625 48.375 
Q 55.71875 40.765625 55.71875 27.296875 
Q 55.71875 13.875 49.015625 6.21875 
Q 42.328125 -1.421875 30.609375 -1.421875 
Q 18.84375 -1.421875 12.171875 6.21875 
Q 5.515625 13.875 5.515625 27.296875 
Q 5.515625 40.765625 12.171875 48.375 
Q 18.84375 56 30.609375 56 
z
" id="DejaVuSans-111"/>
      <path d="M 54.890625 33.015625 
L 54.890625 0 
L 45.90625 0 
L 45.90625 32.71875 
Q 45.90625 40.484375 42.875 44.328125 
Q 39.84375 48.1875 33.796875 48.1875 
Q 26.515625 48.1875 22.3125 43.546875 
Q 18.109375 38.921875 18.109375 30.90625 
L 18.109375 0 
L 9.078125 0 
L 9.078125 54.6875 
L 18.109375 54.6875 
L 18.109375 46.1875 
Q 21.34375 51.125 25.703125 53.5625 
Q 30.078125 56 35.796875 56 
Q 45.21875 56 50.046875 50.171875 
Q 54.890625 44.34375 54.890625 33.015625 
z
" id="DejaVuSans-110"/>
      <path id="DejaVuSans-32"/>
      <path d="M 34.28125 27.484375 
Q 23.390625 27.484375 19.1875 25 
Q 14.984375 22.515625 14.984375 16.5 
Q 14.984375 11.71875 18.140625 8.90625 
Q 21.296875 6.109375 26.703125 6.109375 
Q 34.1875 6.109375 38.703125 11.40625 
Q 43.21875 16.703125 43.21875 25.484375 
L 43.21875 27.484375 
z
M 52.203125 31.203125 
L 52.203125 0 
L 43.21875 0 
L 43.21875 8.296875 
Q 40.140625 3.328125 35.546875 0.953125 
Q 30.953125 -1.421875 24.3125 -1.421875 
Q 15.921875 -1.421875 10.953125 3.296875 
Q 6 8.015625 6 15.921875 
Q 6 25.140625 12.171875 29.828125 
Q 18.359375 34.515625 30.609375 34.515625 
L 43.21875 34.515625 
L 43.21875 35.40625 
Q 43.21875 41.609375 39.140625 45 
Q 35.0625 48.390625 27.6875 48.390625 
Q 23 48.390625 18.546875 47.265625 
Q 14.109375 46.140625 10.015625 43.890625 
L 10.015625 52.203125 
Q 14.9375 54.109375 19.578125 55.046875 
Q 24.21875 56 28.609375 56 
Q 40.484375 56 46.34375 49.84375 
Q 52.203125 43.703125 52.203125 31.203125 
z
" id="DejaVuSans-97"/>
      <path d="M 41.109375 46.296875 
Q 39.59375 47.171875 37.8125 47.578125 
Q 36.03125 48 33.890625 48 
Q 26.265625 48 22.1875 43.046875 
Q 18.109375 38.09375 18.109375 28.8125 
L 18.109375 0 
L 9.078125 0 
L 9.078125 54.6875 
L 18.109375 54.6875 
L 18.109375 46.1875 
Q 20.953125 51.171875 25.484375 53.578125 
Q 30.03125 56 36.53125 56 
Q 37.453125 56 38.578125 55.875 
Q 39.703125 55.765625 41.0625 55.515625 
z
" id="DejaVuSans-114"/>
      <path d="M 44.28125 53.078125 
L 44.28125 44.578125 
Q 40.484375 46.53125 36.375 47.5 
Q 32.28125 48.484375 27.875 48.484375 
Q 21.1875 48.484375 17.84375 46.4375 
Q 14.5 44.390625 14.5 40.28125 
Q 14.5 37.15625 16.890625 35.375 
Q 19.28125 33.59375 26.515625 31.984375 
L 29.59375 31.296875 
Q 39.15625 29.25 43.1875 25.515625 
Q 47.21875 21.78125 47.21875 15.09375 
Q 47.21875 7.46875 41.1875 3.015625 
Q 35.15625 -1.421875 24.609375 -1.421875 
Q 20.21875 -1.421875 15.453125 -0.5625 
Q 10.6875 0.296875 5.421875 2 
L 5.421875 11.28125 
Q 10.40625 8.6875 15.234375 7.390625 
Q 20.0625 6.109375 24.8125 6.109375 
Q 31.15625 6.109375 34.5625 8.28125 
Q 37.984375 10.453125 37.984375 14.40625 
Q 37.984375 18.0625 35.515625 20.015625 
Q 33.0625 21.96875 24.703125 23.78125 
L 21.578125 24.515625 
Q 13.234375 26.265625 9.515625 29.90625 
Q 5.8125 33.546875 5.8125 39.890625 
Q 5.8125 47.609375 11.28125 51.796875 
Q 16.75 56 26.8125 56 
Q 31.78125 56 36.171875 55.265625 
Q 40.578125 54.546875 44.28125 53.078125 
z
" id="DejaVuSans-115"/>
      <path d="M 31 75.875 
Q 24.46875 64.65625 21.28125 53.65625 
Q 18.109375 42.671875 18.109375 31.390625 
Q 18.109375 20.125 21.3125 9.0625 
Q 24.515625 -2 31 -13.1875 
L 23.1875 -13.1875 
Q 15.875 -1.703125 12.234375 9.375 
Q 8.59375 20.453125 8.59375 31.390625 
Q 8.59375 42.28125 12.203125 53.3125 
Q 15.828125 64.359375 23.1875 75.875 
z
" id="DejaVuSans-40"/>
      <path d="M 45.40625 46.390625 
L 45.40625 75.984375 
L 54.390625 75.984375 
L 54.390625 0 
L 45.40625 0 
L 45.40625 8.203125 
Q 42.578125 3.328125 38.25 0.953125 
Q 33.9375 -1.421875 27.875 -1.421875 
Q 17.96875 -1.421875 11.734375 6.484375 
Q 5.515625 14.40625 5.515625 27.296875 
Q 5.515625 40.1875 11.734375 48.09375 
Q 17.96875 56 27.875 56 
Q 33.9375 56 38.25 53.625 
Q 42.578125 51.265625 45.40625 46.390625 
z
M 14.796875 27.296875 
Q 14.796875 17.390625 18.875 11.75 
Q 22.953125 6.109375 30.078125 6.109375 
Q 37.203125 6.109375 41.296875 11.75 
Q 45.40625 17.390625 45.40625 27.296875 
Q 45.40625 37.203125 41.296875 42.84375 
Q 37.203125 48.484375 30.078125 48.484375 
Q 22.953125 48.484375 18.875 42.84375 
Q 14.796875 37.203125 14.796875 27.296875 
z
" id="DejaVuSans-100"/>
      <path d="M 45.40625 27.984375 
Q 45.40625 37.75 41.375 43.109375 
Q 37.359375 48.484375 30.078125 48.484375 
Q 22.859375 48.484375 18.828125 43.109375 
Q 14.796875 37.75 14.796875 27.984375 
Q 14.796875 18.265625 18.828125 12.890625 
Q 22.859375 7.515625 30.078125 7.515625 
Q 37.359375 7.515625 41.375 12.890625 
Q 45.40625 18.265625 45.40625 27.984375 
z
M 54.390625 6.78125 
Q 54.390625 -7.171875 48.1875 -13.984375 
Q 42 -20.796875 29.203125 -20.796875 
Q 24.46875 -20.796875 20.265625 -20.09375 
Q 16.0625 -19.390625 12.109375 -17.921875 
L 12.109375 -9.1875 
Q 16.0625 -11.328125 19.921875 -12.34375 
Q 23.78125 -13.375 27.78125 -13.375 
Q 36.625 -13.375 41.015625 -8.765625 
Q 45.40625 -4.15625 45.40625 5.171875 
L 45.40625 9.625 
Q 42.625 4.78125 38.28125 2.390625 
Q 33.9375 0 27.875 0 
Q 17.828125 0 11.671875 7.65625 
Q 5.515625 15.328125 5.515625 27.984375 
Q 5.515625 40.671875 11.671875 48.328125 
Q 17.828125 56 27.875 56 
Q 33.9375 56 38.28125 53.609375 
Q 42.625 51.21875 45.40625 46.390625 
L 45.40625 54.6875 
L 54.390625 54.6875 
z
" id="DejaVuSans-103"/>
      <path d="M 8.015625 75.875 
L 15.828125 75.875 
Q 23.140625 64.359375 26.78125 53.3125 
Q 30.421875 42.28125 30.421875 31.390625 
Q 30.421875 20.453125 26.78125 9.375 
Q 23.140625 -1.703125 15.828125 -13.1875 
L 8.015625 -13.1875 
Q 14.5 -2 17.703125 9.0625 
Q 20.90625 20.125 20.90625 31.390625 
Q 20.90625 42.671875 17.703125 53.65625 
Q 14.5 64.65625 8.015625 75.875 
z
" id="DejaVuSans-41"/>
     </defs>
     <g transform="translate(74.539528 170.99718)scale(0.06 -0.06)">
      <use xlink:href="#DejaVuSans-68"/>
      <use x="77.001953" xlink:href="#DejaVuSans-101"/>
      <use x="138.525391" xlink:href="#DejaVuSans-112"/>
      <use x="202.001953" xlink:href="#DejaVuSans-108"/>
      <use x="229.785156" xlink:href="#DejaVuSans-101"/>
      <use x="291.308594" xlink:href="#DejaVuSans-116"/>
      <use x="330.517578" xlink:href="#DejaVuSans-105"/>
      <use x="358.300781" xlink:href="#DejaVuSans-111"/>
      <use x="419.482422" xlink:href="#DejaVuSans-110"/>
      <use x="482.861328" xlink:href="#DejaVuSans-32"/>
      <use x="514.648438" xlink:href="#DejaVuSans-112"/>
      <use x="578.125" xlink:href="#DejaVuSans-111"/>
      <use x="639.306641" xlink:href="#DejaVuSans-108"/>
      <use x="667.089844" xlink:href="#DejaVuSans-97"/>
      <use x="728.369141" xlink:href="#DejaVuSans-114"/>
      <use x="769.482422" xlink:href="#DejaVuSans-105"/>
      <use x="797.265625" xlink:href="#DejaVuSans-115"/>
      <use x="849.365234" xlink:href="#DejaVuSans-97"/>
      <use x="910.644531" xlink:href="#DejaVuSans-116"/>
      <use x="949.853516" xlink:href="#DejaVuSans-105"/>
      <use x="977.636719" xlink:href="#DejaVuSans-111"/>
      <use x="1038.818359" xlink:href="#DejaVuSans-110"/>
      <use x="1102.197266" xlink:href="#DejaVuSans-32"/>
      <use x="1133.984375" xlink:href="#DejaVuSans-40"/>
      <use x="1172.998047" xlink:href="#DejaVuSans-100"/>
      <use x="1236.474609" xlink:href="#DejaVuSans-101"/>
      <use x="1297.998047" xlink:href="#DejaVuSans-103"/>
      <use x="1361.474609" xlink:href="#DejaVuSans-41"/>
     </g>
    </g>
   </g>
   <g id="matplotlib.axis_2">
    <g id="ytick_1">
     <g id="line2d_8">
      <defs>
       <path d="M 0 0 
L -3.5 0 
" id="m2a5014a8ad" style="stroke:#000000;stroke-width:0.8;"/>
      </defs>
      <g>
       <use style="stroke:#000000;stroke-width:0.8;" x="36.669688" xlink:href="#m2a5014a8ad" y="132.752899"/>
      </g>
     </g>
     <g id="text_9">
      <!-- −20 -->
      <defs>
       <path d="M 10.59375 35.5 
L 73.1875 35.5 
L 73.1875 27.203125 
L 10.59375 27.203125 
z
" id="DejaVuSans-8722"/>
      </defs>
      <g transform="translate(17.006875 135.03243)scale(0.06 -0.06)">
       <use xlink:href="#DejaVuSans-8722"/>
       <use x="83.789062" xlink:href="#DejaVuSans-50"/>
       <use x="147.412109" xlink:href="#DejaVuSans-48"/>
      </g>
     </g>
    </g>
    <g id="ytick_2">
     <g id="line2d_9">
      <g>
       <use style="stroke:#000000;stroke-width:0.8;" x="36.669688" xlink:href="#m2a5014a8ad" y="115.376378"/>
      </g>
     </g>
     <g id="text_10">
      <!-- 0 -->
      <g transform="translate(25.852188 117.655909)scale(0.06 -0.06)">
       <use xlink:href="#DejaVuSans-48"/>
      </g>
     </g>
    </g>
    <g id="ytick_3">
     <g id="line2d_10">
      <g>
       <use style="stroke:#000000;stroke-width:0.8;" x="36.669688" xlink:href="#m2a5014a8ad" y="97.999858"/>
      </g>
     </g>
     <g id="text_11">
      <!-- 20 -->
      <g transform="translate(22.034688 100.279389)scale(0.06 -0.06)">
       <use xlink:href="#DejaVuSans-50"/>
       <use x="63.623047" xlink:href="#DejaVuSans-48"/>
      </g>
     </g>
    </g>
    <g id="ytick_4">
     <g id="line2d_11">
      <g>
       <use style="stroke:#000000;stroke-width:0.8;" x="36.669688" xlink:href="#m2a5014a8ad" y="80.623337"/>
      </g>
     </g>
     <g id="text_12">
      <!-- 40 -->
      <defs>
       <path d="M 37.796875 64.3125 
L 12.890625 25.390625 
L 37.796875 25.390625 
z
M 35.203125 72.90625 
L 47.609375 72.90625 
L 47.609375 25.390625 
L 58.015625 25.390625 
L 58.015625 17.1875 
L 47.609375 17.1875 
L 47.609375 0 
L 37.796875 0 
L 37.796875 17.1875 
L 4.890625 17.1875 
L 4.890625 26.703125 
z
" id="DejaVuSans-52"/>
      </defs>
      <g transform="translate(22.034688 82.902868)scale(0.06 -0.06)">
       <use xlink:href="#DejaVuSans-52"/>
       <use x="63.623047" xlink:href="#DejaVuSans-48"/>
      </g>
     </g>
    </g>
    <g id="ytick_5">
     <g id="line2d_12">
      <g>
       <use style="stroke:#000000;stroke-width:0.8;" x="36.669688" xlink:href="#m2a5014a8ad" y="63.246816"/>
      </g>
     </g>
     <g id="text_13">
      <!-- 60 -->
      <g transform="translate(22.034688 65.526347)scale(0.06 -0.06)">
       <use xlink:href="#DejaVuSans-54"/>
       <use x="63.623047" xlink:href="#DejaVuSans-48"/>
      </g>
     </g>
    </g>
    <g id="ytick_6">
     <g id="line2d_13">
      <g>
       <use style="stroke:#000000;stroke-width:0.8;" x="36.669688" xlink:href="#m2a5014a8ad" y="45.870295"/>
      </g>
     </g>
     <g id="text_14">
      <!-- 80 -->
      <g transform="translate(22.034688 48.149827)scale(0.06 -0.06)">
       <use xlink:href="#DejaVuSans-56"/>
       <use x="63.623047" xlink:href="#DejaVuSans-48"/>
      </g>
     </g>
    </g>
    <g id="ytick_7">
     <g id="line2d_14">
      <g>
       <use style="stroke:#000000;stroke-width:0.8;" x="36.669688" xlink:href="#m2a5014a8ad" y="28.493775"/>
      </g>
     </g>
     <g id="text_15">
      <!-- 100 -->
      <g transform="translate(18.217188 30.773306)scale(0.06 -0.06)">
       <use xlink:href="#DejaVuSans-49"/>
       <use x="63.623047" xlink:href="#DejaVuSans-48"/>
       <use x="127.246094" xlink:href="#DejaVuSans-48"/>
      </g>
     </g>
    </g>
    <g id="text_16">
     <!-- Displacement (nm) -->
     <defs>
      <path d="M 48.78125 52.59375 
L 48.78125 44.1875 
Q 44.96875 46.296875 41.140625 47.34375 
Q 37.3125 48.390625 33.40625 48.390625 
Q 24.65625 48.390625 19.8125 42.84375 
Q 14.984375 37.3125 14.984375 27.296875 
Q 14.984375 17.28125 19.8125 11.734375 
Q 24.65625 6.203125 33.40625 6.203125 
Q 37.3125 6.203125 41.140625 7.25 
Q 44.96875 8.296875 48.78125 10.40625 
L 48.78125 2.09375 
Q 45.015625 0.34375 40.984375 -0.53125 
Q 36.96875 -1.421875 32.421875 -1.421875 
Q 20.0625 -1.421875 12.78125 6.34375 
Q 5.515625 14.109375 5.515625 27.296875 
Q 5.515625 40.671875 12.859375 48.328125 
Q 20.21875 56 33.015625 56 
Q 37.15625 56 41.109375 55.140625 
Q 45.0625 54.296875 48.78125 52.59375 
z
" id="DejaVuSans-99"/>
      <path d="M 52 44.1875 
Q 55.375 50.25 60.0625 53.125 
Q 64.75 56 71.09375 56 
Q 79.640625 56 84.28125 50.015625 
Q 88.921875 44.046875 88.921875 33.015625 
L 88.921875 0 
L 79.890625 0 
L 79.890625 32.71875 
Q 79.890625 40.578125 77.09375 44.375 
Q 74.3125 48.1875 68.609375 48.1875 
Q 61.625 48.1875 57.5625 43.546875 
Q 53.515625 38.921875 53.515625 30.90625 
L 53.515625 0 
L 44.484375 0 
L 44.484375 32.71875 
Q 44.484375 40.625 41.703125 44.40625 
Q 38.921875 48.1875 33.109375 48.1875 
Q 26.21875 48.1875 22.15625 43.53125 
Q 18.109375 38.875 18.109375 30.90625 
L 18.109375 0 
L 9.078125 0 
L 9.078125 54.6875 
L 18.109375 54.6875 
L 18.109375 46.1875 
Q 21.1875 51.21875 25.484375 53.609375 
Q 29.78125 56 35.6875 56 
Q 41.65625 56 45.828125 52.96875 
Q 50 49.953125 52 44.1875 
z
" id="DejaVuSans-109"/>
     </defs>
     <g transform="translate(11.759062 112.892465)rotate(-90)scale(0.06 -0.06)">
      <use xlink:href="#DejaVuSans-68"/>
      <use x="77.001953" xlink:href="#DejaVuSans-105"/>
      <use x="104.785156" xlink:href="#DejaVuSans-115"/>
      <use x="156.884766" xlink:href="#DejaVuSans-112"/>
      <use x="220.361328" xlink:href="#DejaVuSans-108"/>
      <use x="248.144531" xlink:href="#DejaVuSans-97"/>
      <use x="309.423828" xlink:href="#DejaVuSans-99"/>
      <use x="364.404297" xlink:href="#DejaVuSans-101"/>
      <use x="425.927734" xlink:href="#DejaVuSans-109"/>
      <use x="523.339844" xlink:href="#DejaVuSans-101"/>
      <use x="584.863281" xlink:href="#DejaVuSans-110"/>
      <use x="648.242188" xlink:href="#DejaVuSans-116"/>
      <use x="687.451172" xlink:href="#DejaVuSans-32"/>
      <use x="719.238281" xlink:href="#DejaVuSans-40"/>
      <use x="758.251953" xlink:href="#DejaVuSans-110"/>
      <use x="821.630859" xlink:href="#DejaVuSans-109"/>
      <use x="919.042969" xlink:href="#DejaVuSans-41"/>
     </g>
    </g>
   </g>
   <g id="LineCollection_1">
    <path clip-path="url(#p6a105b759f)" d="M 43.931988 115.376378 
L 43.931988 115.376378 
" style="fill:none;stroke:#1f77b4;stroke-width:1.5;"/>
    <path clip-path="url(#p6a105b759f)" d="M 60.070435 111.123295 
L 60.070435 98.430106 
" style="fill:none;stroke:#1f77b4;stroke-width:1.5;"/>
    <path clip-path="url(#p6a105b759f)" d="M 76.208881 102.148226 
L 76.208881 93.590841 
" style="fill:none;stroke:#1f77b4;stroke-width:1.5;"/>
    <path clip-path="url(#p6a105b759f)" d="M 92.347327 87.598825 
L 92.347327 79.382101 
" style="fill:none;stroke:#1f77b4;stroke-width:1.5;"/>
    <path clip-path="url(#p6a105b759f)" d="M 108.485773 71.34661 
L 108.485773 59.838682 
" style="fill:none;stroke:#1f77b4;stroke-width:1.5;"/>
    <path clip-path="url(#p6a105b759f)" d="M 124.62422 58.16666 
L 124.62422 48.257091 
" style="fill:none;stroke:#1f77b4;stroke-width:1.5;"/>
    <path clip-path="url(#p6a105b759f)" d="M 140.762666 67.986761 
L 140.762666 56.682336 
" style="fill:none;stroke:#1f77b4;stroke-width:1.5;"/>
    <path clip-path="url(#p6a105b759f)" d="M 156.901112 74.399353 
L 156.901112 64.084079 
" style="fill:none;stroke:#1f77b4;stroke-width:1.5;"/>
    <path clip-path="url(#p6a105b759f)" d="M 173.039559 68.232098 
L 173.039559 56.523882 
" style="fill:none;stroke:#1f77b4;stroke-width:1.5;"/>
    <path clip-path="url(#p6a105b759f)" d="M 189.178005 66.740587 
L 189.178005 57.320333 
" style="fill:none;stroke:#1f77b4;stroke-width:1.5;"/>
   </g>
   <g id="LineCollection_2">
    <path clip-path="url(#p6a105b759f)" d="M 43.931988 115.376378 
L 43.931988 115.376378 
" style="fill:none;stroke:#ff7f0e;stroke-width:1.5;"/>
    <path clip-path="url(#p6a105b759f)" d="M 60.070435 92.176424 
L 60.070435 75.76021 
" style="fill:none;stroke:#ff7f0e;stroke-width:1.5;"/>
    <path clip-path="url(#p6a105b759f)" d="M 76.208881 106.554957 
L 76.208881 83.276093 
" style="fill:none;stroke:#ff7f0e;stroke-width:1.5;"/>
    <path clip-path="url(#p6a105b759f)" d="M 92.347327 104.963906 
L 92.347327 75.744471 
" style="fill:none;stroke:#ff7f0e;stroke-width:1.5;"/>
    <path clip-path="url(#p6a105b759f)" d="M 108.485773 107.146629 
L 108.485773 79.556648 
" style="fill:none;stroke:#ff7f0e;stroke-width:1.5;"/>
    <path clip-path="url(#p6a105b759f)" d="M 124.62422 99.566107 
L 124.62422 58.031497 
" style="fill:none;stroke:#ff7f0e;stroke-width:1.5;"/>
    <path clip-path="url(#p6a105b759f)" d="M 140.762666 63.006419 
L 140.762666 33.165185 
" style="fill:none;stroke:#ff7f0e;stroke-width:1.5;"/>
    <path clip-path="url(#p6a105b759f)" d="M 156.901112 66.943207 
L 156.901112 24.623619 
" style="fill:none;stroke:#ff7f0e;stroke-width:1.5;"/>
    <path clip-path="url(#p6a105b759f)" d="M 173.039559 71.128174 
L 173.039559 34.861164 
" style="fill:none;stroke:#ff7f0e;stroke-width:1.5;"/>
    <path clip-path="url(#p6a105b759f)" d="M 189.178005 70.246047 
L 189.178005 34.179404 
" style="fill:none;stroke:#ff7f0e;stroke-width:1.5;"/>
   </g>
   <g id="line2d_15">
    <defs>
     <path d="M 3 0 
L -3 -0 
" id="me11e9317f7" style="stroke:#1f77b4;"/>
    </defs>
    <g clip-path="url(#p6a105b759f)">
     <use style="fill:#1f77b4;stroke:#1f77b4;" x="43.931988" xlink:href="#me11e9317f7" y="115.376378"/>
     <use style="fill:#1f77b4;stroke:#1f77b4;" x="60.070435" xlink:href="#me11e9317f7" y="111.123295"/>
     <use style="fill:#1f77b4;stroke:#1f77b4;" x="76.208881" xlink:href="#me11e9317f7" y="102.148226"/>
     <use style="fill:#1f77b4;stroke:#1f77b4;" x="92.347327" xlink:href="#me11e9317f7" y="87.598825"/>
     <use style="fill:#1f77b4;stroke:#1f77b4;" x="108.485773" xlink:href="#me11e9317f7" y="71.34661"/>
     <use style="fill:#1f77b4;stroke:#1f77b4;" x="124.62422" xlink:href="#me11e9317f7" y="58.16666"/>
     <use style="fill:#1f77b4;stroke:#1f77b4;" x="140.762666" xlink:href="#me11e9317f7" y="67.986761"/>
     <use style="fill:#1f77b4;stroke:#1f77b4;" x="156.901112" xlink:href="#me11e9317f7" y="74.399353"/>
     <use style="fill:#1f77b4;stroke:#1f77b4;" x="173.039559" xlink:href="#me11e9317f7" y="68.232098"/>
     <use style="fill:#1f77b4;stroke:#1f77b4;" x="189.178005" xlink:href="#me11e9317f7" y="66.740587"/>
    </g>
   </g>
   <g id="line2d_16">
    <g clip-path="url(#p6a105b759f)">
     <use style="fill:#1f77b4;stroke:#1f77b4;" x="43.931988" xlink:href="#me11e9317f7" y="115.376378"/>
     <use style="fill:#1f77b4;stroke:#1f77b4;" x="60.070435" xlink:href="#me11e9317f7" y="98.430106"/>
     <use style="fill:#1f77b4;stroke:#1f77b4;" x="76.208881" xlink:href="#me11e9317f7" y="93.590841"/>
     <use style="fill:#1f77b4;stroke:#1f77b4;" x="92.347327" xlink:href="#me11e9317f7" y="79.382101"/>
     <use style="fill:#1f77b4;stroke:#1f77b4;" x="108.485773" xlink:href="#me11e9317f7" y="59.838682"/>
     <use style="fill:#1f77b4;stroke:#1f77b4;" x="124.62422" xlink:href="#me11e9317f7" y="48.257091"/>
     <use style="fill:#1f77b4;stroke:#1f77b4;" x="140.762666" xlink:href="#me11e9317f7" y="56.682336"/>
     <use style="fill:#1f77b4;stroke:#1f77b4;" x="156.901112" xlink:href="#me11e9317f7" y="64.084079"/>
     <use style="fill:#1f77b4;stroke:#1f77b4;" x="173.039559" xlink:href="#me11e9317f7" y="56.523882"/>
     <use style="fill:#1f77b4;stroke:#1f77b4;" x="189.178005" xlink:href="#me11e9317f7" y="57.320333"/>
    </g>
   </g>
   <g id="line2d_17">
    <defs>
     <path d="M 3 0 
L -3 -0 
" id="m7d4c87ce96" style="stroke:#ff7f0e;"/>
    </defs>
    <g clip-path="url(#p6a105b759f)">
     <use style="fill:#ff7f0e;stroke:#ff7f0e;" x="43.931988" xlink:href="#m7d4c87ce96" y="115.376378"/>
     <use style="fill:#ff7f0e;stroke:#ff7f0e;" x="60.070435" xlink:href="#m7d4c87ce96" y="92.176424"/>
     <use style="fill:#ff7f0e;stroke:#ff7f0e;" x="76.208881" xlink:href="#m7d4c87ce96" y="106.554957"/>
     <use style="fill:#ff7f0e;stroke:#ff7f0e;" x="92.347327" xlink:href="#m7d4c87ce96" y="104.963906"/>
     <use style="fill:#ff7f0e;stroke:#ff7f0e;" x="108.485773" xlink:href="#m7d4c87ce96" y="107.146629"/>
     <use style="fill:#ff7f0e;stroke:#ff7f0e;" x="124.62422" xlink:href="#m7d4c87ce96" y="99.566107"/>
     <use style="fill:#ff7f0e;stroke:#ff7f0e;" x="140.762666" xlink:href="#m7d4c87ce96" y="63.006419"/>
     <use style="fill:#ff7f0e;stroke:#ff7f0e;" x="156.901112" xlink:href="#m7d4c87ce96" y="66.943207"/>
     <use style="fill:#ff7f0e;stroke:#ff7f0e;" x="173.039559" xlink:href="#m7d4c87ce96" y="71.128174"/>
     <use style="fill:#ff7f0e;stroke:#ff7f0e;" x="189.178005" xlink:href="#m7d4c87ce96" y="70.246047"/>
    </g>
   </g>
   <g id="line2d_18">
    <g clip-path="url(#p6a105b759f)">
     <use style="fill:#ff7f0e;stroke:#ff7f0e;" x="43.931988" xlink:href="#m7d4c87ce96" y="115.376378"/>
     <use style="fill:#ff7f0e;stroke:#ff7f0e;" x="60.070435" xlink:href="#m7d4c87ce96" y="75.76021"/>
     <use style="fill:#ff7f0e;stroke:#ff7f0e;" x="76.208881" xlink:href="#m7d4c87ce96" y="83.276093"/>
     <use style="fill:#ff7f0e;stroke:#ff7f0e;" x="92.347327" xlink:href="#m7d4c87ce96" y="75.744471"/>
     <use style="fill:#ff7f0e;stroke:#ff7f0e;" x="108.485773" xlink:href="#m7d4c87ce96" y="79.556648"/>
     <use style="fill:#ff7f0e;stroke:#ff7f0e;" x="124.62422" xlink:href="#m7d4c87ce96" y="58.031497"/>
     <use style="fill:#ff7f0e;stroke:#ff7f0e;" x="140.762666" xlink:href="#m7d4c87ce96" y="33.165185"/>
     <use style="fill:#ff7f0e;stroke:#ff7f0e;" x="156.901112" xlink:href="#m7d4c87ce96" y="24.623619"/>
     <use style="fill:#ff7f0e;stroke:#ff7f0e;" x="173.039559" xlink:href="#m7d4c87ce96" y="34.861164"/>
     <use style="fill:#ff7f0e;stroke:#ff7f0e;" x="189.178005" xlink:href="#m7d4c87ce96" y="34.179404"/>
    </g>
   </g>
   <g id="line2d_19">
    <path clip-path="url(#p6a105b759f)" d="M 43.931988 115.376378 
L 60.070435 104.776701 
L 76.208881 97.869534 
L 92.347327 83.490463 
L 108.485773 65.592646 
L 124.62422 53.211875 
L 140.762666 62.334549 
L 156.901112 69.241716 
L 173.039559 62.37799 
L 189.178005 62.03046 
" style="fill:none;stroke:#1f77b4;stroke-linecap:square;stroke-width:1.5;"/>
   </g>
   <g id="line2d_20">
    <path clip-path="url(#p6a105b759f)" d="M 43.931988 115.376378 
L 60.070435 83.968317 
L 76.208881 94.915525 
L 92.347327 90.354188 
L 108.485773 93.351638 
L 124.62422 78.798802 
L 140.762666 48.085802 
L 156.901112 45.783413 
L 173.039559 52.994669 
L 189.178005 52.212726 
" style="fill:none;stroke:#ff7f0e;stroke-linecap:square;stroke-width:1.5;"/>
   </g>
   <g id="patch_3">
    <path d="M 36.669688 149.631243 
L 36.669688 18.670875 
" style="fill:none;stroke:#000000;stroke-linecap:square;stroke-linejoin:miter;stroke-width:0.8;"/>
   </g>
   <g id="patch_4">
    <path d="M 196.440306 149.631243 
L 196.440306 18.670875 
" style="fill:none;stroke:#000000;stroke-linecap:square;stroke-linejoin:miter;stroke-width:0.8;"/>
   </g>
   <g id="patch_5">
    <path d="M 36.669688 149.631243 
L 196.440306 149.631243 
" style="fill:none;stroke:#000000;stroke-linecap:square;stroke-linejoin:miter;stroke-width:0.8;"/>
   </g>
   <g id="patch_6">
    <path d="M 36.669688 18.670875 
L 196.440306 18.670875 
" style="fill:none;stroke:#000000;stroke-linecap:square;stroke-linejoin:miter;stroke-width:0.8;"/>
   </g>
   <g id="text_17">
    <!-- Excitation PSFs -->
    <defs>
     <path d="M 9.8125 72.90625 
L 55.90625 72.90625 
L 55.90625 64.59375 
L 19.671875 64.59375 
L 19.671875 43.015625 
L 54.390625 43.015625 
L 54.390625 34.71875 
L 19.671875 34.71875 
L 19.671875 8.296875 
L 56.78125 8.296875 
L 56.78125 0 
L 9.8125 0 
z
" id="DejaVuSans-69"/>
     <path d="M 54.890625 54.6875 
L 35.109375 28.078125 
L 55.90625 0 
L 45.3125 0 
L 29.390625 21.484375 
L 13.484375 0 
L 2.875 0 
L 24.125 28.609375 
L 4.6875 54.6875 
L 15.28125 54.6875 
L 29.78125 35.203125 
L 44.28125 54.6875 
z
" id="DejaVuSans-120"/>
     <path d="M 19.671875 64.796875 
L 19.671875 37.40625 
L 32.078125 37.40625 
Q 38.96875 37.40625 42.71875 40.96875 
Q 46.484375 44.53125 46.484375 51.125 
Q 46.484375 57.671875 42.71875 61.234375 
Q 38.96875 64.796875 32.078125 64.796875 
z
M 9.8125 72.90625 
L 32.078125 72.90625 
Q 44.34375 72.90625 50.609375 67.359375 
Q 56.890625 61.8125 56.890625 51.125 
Q 56.890625 40.328125 50.609375 34.8125 
Q 44.34375 29.296875 32.078125 29.296875 
L 19.671875 29.296875 
L 19.671875 0 
L 9.8125 0 
z
" id="DejaVuSans-80"/>
     <path d="M 53.515625 70.515625 
L 53.515625 60.890625 
Q 47.90625 63.578125 42.921875 64.890625 
Q 37.9375 66.21875 33.296875 66.21875 
Q 25.25 66.21875 20.875 63.09375 
Q 16.5 59.96875 16.5 54.203125 
Q 16.5 49.359375 19.40625 46.890625 
Q 22.3125 44.4375 30.421875 42.921875 
L 36.375 41.703125 
Q 47.40625 39.59375 52.65625 34.296875 
Q 57.90625 29 57.90625 20.125 
Q 57.90625 9.515625 50.796875 4.046875 
Q 43.703125 -1.421875 29.984375 -1.421875 
Q 24.8125 -1.421875 18.96875 -0.25 
Q 13.140625 0.921875 6.890625 3.21875 
L 6.890625 13.375 
Q 12.890625 10.015625 18.65625 8.296875 
Q 24.421875 6.59375 29.984375 6.59375 
Q 38.421875 6.59375 43.015625 9.90625 
Q 47.609375 13.234375 47.609375 19.390625 
Q 47.609375 24.75 44.3125 27.78125 
Q 41.015625 30.8125 33.5 32.328125 
L 27.484375 33.5 
Q 16.453125 35.6875 11.515625 40.375 
Q 6.59375 45.0625 6.59375 53.421875 
Q 6.59375 63.09375 13.40625 68.65625 
Q 20.21875 74.21875 32.171875 74.21875 
Q 37.3125 74.21875 42.625 73.28125 
Q 47.953125 72.359375 53.515625 70.515625 
z
" id="DejaVuSans-83"/>
     <path d="M 9.8125 72.90625 
L 51.703125 72.90625 
L 51.703125 64.59375 
L 19.671875 64.59375 
L 19.671875 43.109375 
L 48.578125 43.109375 
L 48.578125 34.8125 
L 19.671875 34.8125 
L 19.671875 0 
L 9.8125 0 
z
" id="DejaVuSans-70"/>
    </defs>
    <g transform="translate(89.173622 12.670875)scale(0.072 -0.072)">
     <use xlink:href="#DejaVuSans-69"/>
     <use x="63.183594" xlink:href="#DejaVuSans-120"/>
     <use x="120.613281" xlink:href="#DejaVuSans-99"/>
     <use x="175.59375" xlink:href="#DejaVuSans-105"/>
     <use x="203.376953" xlink:href="#DejaVuSans-116"/>
     <use x="242.585938" xlink:href="#DejaVuSans-97"/>
     <use x="303.865234" xlink:href="#DejaVuSans-116"/>
     <use x="343.074219" xlink:href="#DejaVuSans-105"/>
     <use x="370.857422" xlink:href="#DejaVuSans-111"/>
     <use x="432.039062" xlink:href="#DejaVuSans-110"/>
     <use x="495.417969" xlink:href="#DejaVuSans-32"/>
     <use x="527.205078" xlink:href="#DejaVuSans-80"/>
     <use x="587.507812" xlink:href="#DejaVuSans-83"/>
     <use x="650.984375" xlink:href="#DejaVuSans-70"/>
     <use x="708.503906" xlink:href="#DejaVuSans-115"/>
    </g>
   </g>
   <g id="legend_1">
    <g id="patch_7">
     <path d="M 40.869688 41.084625 
L 63.620937 41.084625 
Q 64.820937 41.084625 64.820937 39.884625 
L 64.820937 22.870875 
Q 64.820937 21.670875 63.620937 21.670875 
L 40.869688 21.670875 
Q 39.669688 21.670875 39.669688 22.870875 
L 39.669688 39.884625 
Q 39.669688 41.084625 40.869688 41.084625 
z
" style="fill:#ffffff;opacity:0.8;stroke:#cccccc;stroke-linejoin:miter;"/>
    </g>
    <g id="LineCollection_3">
     <path d="M 48.069688 29.529937 
L 48.069688 23.529937 
" style="fill:none;stroke:#1f77b4;stroke-width:1.5;"/>
    </g>
    <g id="line2d_21">
     <g>
      <use style="fill:#1f77b4;stroke:#1f77b4;" x="48.069688" xlink:href="#me11e9317f7" y="29.529937"/>
     </g>
    </g>
    <g id="line2d_22">
     <g>
      <use style="fill:#1f77b4;stroke:#1f77b4;" x="48.069688" xlink:href="#me11e9317f7" y="23.529937"/>
     </g>
    </g>
    <g id="line2d_23">
     <path d="M 42.069688 26.529937 
L 54.069688 26.529937 
" style="fill:none;stroke:#1f77b4;stroke-linecap:square;stroke-width:1.5;"/>
    </g>
    <g id="line2d_24"/>
    <g id="text_18">
     <!-- x -->
     <g transform="translate(58.869687 28.629937)scale(0.06 -0.06)">
      <use xlink:href="#DejaVuSans-120"/>
     </g>
    </g>
    <g id="LineCollection_4">
     <path d="M 48.069688 38.336812 
L 48.069688 32.336812 
" style="fill:none;stroke:#ff7f0e;stroke-width:1.5;"/>
    </g>
    <g id="line2d_25">
     <g>
      <use style="fill:#ff7f0e;stroke:#ff7f0e;" x="48.069688" xlink:href="#m7d4c87ce96" y="38.336812"/>
     </g>
    </g>
    <g id="line2d_26">
     <g>
      <use style="fill:#ff7f0e;stroke:#ff7f0e;" x="48.069688" xlink:href="#m7d4c87ce96" y="32.336812"/>
     </g>
    </g>
    <g id="line2d_27">
     <path d="M 42.069688 35.336812 
L 54.069688 35.336812 
" style="fill:none;stroke:#ff7f0e;stroke-linecap:square;stroke-width:1.5;"/>
    </g>
    <g id="line2d_28"/>
    <g id="text_19">
     <!-- y -->
     <defs>
      <path d="M 32.171875 -5.078125 
Q 28.375 -14.84375 24.75 -17.8125 
Q 21.140625 -20.796875 15.09375 -20.796875 
L 7.90625 -20.796875 
L 7.90625 -13.28125 
L 13.1875 -13.28125 
Q 16.890625 -13.28125 18.9375 -11.515625 
Q 21 -9.765625 23.484375 -3.21875 
L 25.09375 0.875 
L 2.984375 54.6875 
L 12.5 54.6875 
L 29.59375 11.921875 
L 46.6875 54.6875 
L 56.203125 54.6875 
z
" id="DejaVuSans-121"/>
     </defs>
     <g transform="translate(58.869687 37.436812)scale(0.06 -0.06)">
      <use xlink:href="#DejaVuSans-121"/>
     </g>
    </g>
   </g>
  </g>
  <g id="axes_2">
   <g id="patch_8">
    <path d="M 228.394429 149.631243 
L 388.165047 149.631243 
L 388.165047 18.670875 
L 228.394429 18.670875 
z
" style="fill:#ffffff;"/>
   </g>
   <g id="matplotlib.axis_3">
    <g id="xtick_8">
     <g id="line2d_29">
      <g>
       <use style="stroke:#000000;stroke-width:0.8;" x="235.65673" xlink:href="#m45dd4e0bbc" y="149.631243"/>
      </g>
     </g>
     <g id="text_20">
      <!-- 0 -->
      <g transform="translate(233.74798 161.190305)scale(0.06 -0.06)">
       <use xlink:href="#DejaVuSans-48"/>
      </g>
     </g>
    </g>
    <g id="xtick_9">
     <g id="line2d_30">
      <g>
       <use style="stroke:#000000;stroke-width:0.8;" x="259.8644" xlink:href="#m45dd4e0bbc" y="149.631243"/>
      </g>
     </g>
     <g id="text_21">
      <!-- 30 -->
      <g transform="translate(256.0469 161.190305)scale(0.06 -0.06)">
       <use xlink:href="#DejaVuSans-51"/>
       <use x="63.623047" xlink:href="#DejaVuSans-48"/>
      </g>
     </g>
    </g>
    <g id="xtick_10">
     <g id="line2d_31">
      <g>
       <use style="stroke:#000000;stroke-width:0.8;" x="284.072069" xlink:href="#m45dd4e0bbc" y="149.631243"/>
      </g>
     </g>
     <g id="text_22">
      <!-- 60 -->
      <g transform="translate(280.254569 161.190305)scale(0.06 -0.06)">
       <use xlink:href="#DejaVuSans-54"/>
       <use x="63.623047" xlink:href="#DejaVuSans-48"/>
      </g>
     </g>
    </g>
    <g id="xtick_11">
     <g id="line2d_32">
      <g>
       <use style="stroke:#000000;stroke-width:0.8;" x="308.279738" xlink:href="#m45dd4e0bbc" y="149.631243"/>
      </g>
     </g>
     <g id="text_23">
      <!-- 90 -->
      <g transform="translate(304.462238 161.190305)scale(0.06 -0.06)">
       <use xlink:href="#DejaVuSans-57"/>
       <use x="63.623047" xlink:href="#DejaVuSans-48"/>
      </g>
     </g>
    </g>
    <g id="xtick_12">
     <g id="line2d_33">
      <g>
       <use style="stroke:#000000;stroke-width:0.8;" x="332.487408" xlink:href="#m45dd4e0bbc" y="149.631243"/>
      </g>
     </g>
     <g id="text_24">
      <!-- 120 -->
      <g transform="translate(326.761158 161.190305)scale(0.06 -0.06)">
       <use xlink:href="#DejaVuSans-49"/>
       <use x="63.623047" xlink:href="#DejaVuSans-50"/>
       <use x="127.246094" xlink:href="#DejaVuSans-48"/>
      </g>
     </g>
    </g>
    <g id="xtick_13">
     <g id="line2d_34">
      <g>
       <use style="stroke:#000000;stroke-width:0.8;" x="356.695077" xlink:href="#m45dd4e0bbc" y="149.631243"/>
      </g>
     </g>
     <g id="text_25">
      <!-- 150 -->
      <g transform="translate(350.968827 161.190305)scale(0.06 -0.06)">
       <use xlink:href="#DejaVuSans-49"/>
       <use x="63.623047" xlink:href="#DejaVuSans-53"/>
       <use x="127.246094" xlink:href="#DejaVuSans-48"/>
      </g>
     </g>
    </g>
    <g id="xtick_14">
     <g id="line2d_35">
      <g>
       <use style="stroke:#000000;stroke-width:0.8;" x="380.902747" xlink:href="#m45dd4e0bbc" y="149.631243"/>
      </g>
     </g>
     <g id="text_26">
      <!-- 180 -->
      <g transform="translate(375.176497 161.190305)scale(0.06 -0.06)">
       <use xlink:href="#DejaVuSans-49"/>
       <use x="63.623047" xlink:href="#DejaVuSans-56"/>
       <use x="127.246094" xlink:href="#DejaVuSans-48"/>
      </g>
     </g>
    </g>
    <g id="text_27">
     <!-- Depletion polarisation (deg) -->
     <g transform="translate(266.26427 170.99718)scale(0.06 -0.06)">
      <use xlink:href="#DejaVuSans-68"/>
      <use x="77.001953" xlink:href="#DejaVuSans-101"/>
      <use x="138.525391" xlink:href="#DejaVuSans-112"/>
      <use x="202.001953" xlink:href="#DejaVuSans-108"/>
      <use x="229.785156" xlink:href="#DejaVuSans-101"/>
      <use x="291.308594" xlink:href="#DejaVuSans-116"/>
      <use x="330.517578" xlink:href="#DejaVuSans-105"/>
      <use x="358.300781" xlink:href="#DejaVuSans-111"/>
      <use x="419.482422" xlink:href="#DejaVuSans-110"/>
      <use x="482.861328" xlink:href="#DejaVuSans-32"/>
      <use x="514.648438" xlink:href="#DejaVuSans-112"/>
      <use x="578.125" xlink:href="#DejaVuSans-111"/>
      <use x="639.306641" xlink:href="#DejaVuSans-108"/>
      <use x="667.089844" xlink:href="#DejaVuSans-97"/>
      <use x="728.369141" xlink:href="#DejaVuSans-114"/>
      <use x="769.482422" xlink:href="#DejaVuSans-105"/>
      <use x="797.265625" xlink:href="#DejaVuSans-115"/>
      <use x="849.365234" xlink:href="#DejaVuSans-97"/>
      <use x="910.644531" xlink:href="#DejaVuSans-116"/>
      <use x="949.853516" xlink:href="#DejaVuSans-105"/>
      <use x="977.636719" xlink:href="#DejaVuSans-111"/>
      <use x="1038.818359" xlink:href="#DejaVuSans-110"/>
      <use x="1102.197266" xlink:href="#DejaVuSans-32"/>
      <use x="1133.984375" xlink:href="#DejaVuSans-40"/>
      <use x="1172.998047" xlink:href="#DejaVuSans-100"/>
      <use x="1236.474609" xlink:href="#DejaVuSans-101"/>
      <use x="1297.998047" xlink:href="#DejaVuSans-103"/>
      <use x="1361.474609" xlink:href="#DejaVuSans-41"/>
     </g>
    </g>
   </g>
   <g id="matplotlib.axis_4">
    <g id="ytick_8">
     <g id="line2d_36">
      <g>
       <use style="stroke:#000000;stroke-width:0.8;" x="228.394429" xlink:href="#m2a5014a8ad" y="132.752899"/>
      </g>
     </g>
    </g>
    <g id="ytick_9">
     <g id="line2d_37">
      <g>
       <use style="stroke:#000000;stroke-width:0.8;" x="228.394429" xlink:href="#m2a5014a8ad" y="115.376378"/>
      </g>
     </g>
    </g>
    <g id="ytick_10">
     <g id="line2d_38">
      <g>
       <use style="stroke:#000000;stroke-width:0.8;" x="228.394429" xlink:href="#m2a5014a8ad" y="97.999858"/>
      </g>
     </g>
    </g>
    <g id="ytick_11">
     <g id="line2d_39">
      <g>
       <use style="stroke:#000000;stroke-width:0.8;" x="228.394429" xlink:href="#m2a5014a8ad" y="80.623337"/>
      </g>
     </g>
    </g>
    <g id="ytick_12">
     <g id="line2d_40">
      <g>
       <use style="stroke:#000000;stroke-width:0.8;" x="228.394429" xlink:href="#m2a5014a8ad" y="63.246816"/>
      </g>
     </g>
    </g>
    <g id="ytick_13">
     <g id="line2d_41">
      <g>
       <use style="stroke:#000000;stroke-width:0.8;" x="228.394429" xlink:href="#m2a5014a8ad" y="45.870295"/>
      </g>
     </g>
    </g>
    <g id="ytick_14">
     <g id="line2d_42">
      <g>
       <use style="stroke:#000000;stroke-width:0.8;" x="228.394429" xlink:href="#m2a5014a8ad" y="28.493775"/>
      </g>
     </g>
    </g>
   </g>
   <g id="LineCollection_5">
    <path clip-path="url(#p8bd517f669)" d="M 235.65673 115.376378 
L 235.65673 115.376378 
" style="fill:none;stroke:#1f77b4;stroke-width:1.5;"/>
    <path clip-path="url(#p8bd517f669)" d="M 251.795176 126.932584 
L 251.795176 117.721389 
" style="fill:none;stroke:#1f77b4;stroke-width:1.5;"/>
    <path clip-path="url(#p8bd517f669)" d="M 267.933623 135.799366 
L 267.933623 126.31801 
" style="fill:none;stroke:#1f77b4;stroke-width:1.5;"/>
    <path clip-path="url(#p8bd517f669)" d="M 284.072069 142.116184 
L 284.072069 128.950101 
" style="fill:none;stroke:#1f77b4;stroke-width:1.5;"/>
    <path clip-path="url(#p8bd517f669)" d="M 300.210515 141.5522 
L 300.210515 130.904206 
" style="fill:none;stroke:#1f77b4;stroke-width:1.5;"/>
    <path clip-path="url(#p8bd517f669)" d="M 316.348962 143.678499 
L 316.348962 131.123737 
" style="fill:none;stroke:#1f77b4;stroke-width:1.5;"/>
    <path clip-path="url(#p8bd517f669)" d="M 332.487408 140.05441 
L 332.487408 131.098757 
" style="fill:none;stroke:#1f77b4;stroke-width:1.5;"/>
    <path clip-path="url(#p8bd517f669)" d="M 348.625854 133.803866 
L 348.625854 123.882497 
" style="fill:none;stroke:#1f77b4;stroke-width:1.5;"/>
    <path clip-path="url(#p8bd517f669)" d="M 364.7643 123.022047 
L 364.7643 116.7665 
" style="fill:none;stroke:#1f77b4;stroke-width:1.5;"/>
    <path clip-path="url(#p8bd517f669)" d="M 380.902747 114.516223 
L 380.902747 110.154751 
" style="fill:none;stroke:#1f77b4;stroke-width:1.5;"/>
   </g>
   <g id="LineCollection_6">
    <path clip-path="url(#p8bd517f669)" d="M 235.65673 115.376378 
L 235.65673 115.376378 
" style="fill:none;stroke:#ff7f0e;stroke-width:1.5;"/>
    <path clip-path="url(#p8bd517f669)" d="M 251.795176 112.926252 
L 251.795176 104.707231 
" style="fill:none;stroke:#ff7f0e;stroke-width:1.5;"/>
    <path clip-path="url(#p8bd517f669)" d="M 267.933623 108.531428 
L 267.933623 93.636952 
" style="fill:none;stroke:#ff7f0e;stroke-width:1.5;"/>
    <path clip-path="url(#p8bd517f669)" d="M 284.072069 101.250141 
L 284.072069 83.628601 
" style="fill:none;stroke:#ff7f0e;stroke-width:1.5;"/>
    <path clip-path="url(#p8bd517f669)" d="M 300.210515 92.970275 
L 300.210515 72.533647 
" style="fill:none;stroke:#ff7f0e;stroke-width:1.5;"/>
    <path clip-path="url(#p8bd517f669)" d="M 316.348962 82.330387 
L 316.348962 61.887296 
" style="fill:none;stroke:#ff7f0e;stroke-width:1.5;"/>
    <path clip-path="url(#p8bd517f669)" d="M 332.487408 71.940591 
L 332.487408 55.50875 
" style="fill:none;stroke:#ff7f0e;stroke-width:1.5;"/>
    <path clip-path="url(#p8bd517f669)" d="M 348.625854 62.620151 
L 348.625854 48.755909 
" style="fill:none;stroke:#ff7f0e;stroke-width:1.5;"/>
    <path clip-path="url(#p8bd517f669)" d="M 364.7643 52.286562 
L 364.7643 40.14909 
" style="fill:none;stroke:#ff7f0e;stroke-width:1.5;"/>
    <path clip-path="url(#p8bd517f669)" d="M 380.902747 46.312849 
L 380.902747 32.395351 
" style="fill:none;stroke:#ff7f0e;stroke-width:1.5;"/>
   </g>
   <g id="line2d_43">
    <g clip-path="url(#p8bd517f669)">
     <use style="fill:#1f77b4;stroke:#1f77b4;" x="235.65673" xlink:href="#me11e9317f7" y="115.376378"/>
     <use style="fill:#1f77b4;stroke:#1f77b4;" x="251.795176" xlink:href="#me11e9317f7" y="126.932584"/>
     <use style="fill:#1f77b4;stroke:#1f77b4;" x="267.933623" xlink:href="#me11e9317f7" y="135.799366"/>
     <use style="fill:#1f77b4;stroke:#1f77b4;" x="284.072069" xlink:href="#me11e9317f7" y="142.116184"/>
     <use style="fill:#1f77b4;stroke:#1f77b4;" x="300.210515" xlink:href="#me11e9317f7" y="141.5522"/>
     <use style="fill:#1f77b4;stroke:#1f77b4;" x="316.348962" xlink:href="#me11e9317f7" y="143.678499"/>
     <use style="fill:#1f77b4;stroke:#1f77b4;" x="332.487408" xlink:href="#me11e9317f7" y="140.05441"/>
     <use style="fill:#1f77b4;stroke:#1f77b4;" x="348.625854" xlink:href="#me11e9317f7" y="133.803866"/>
     <use style="fill:#1f77b4;stroke:#1f77b4;" x="364.7643" xlink:href="#me11e9317f7" y="123.022047"/>
     <use style="fill:#1f77b4;stroke:#1f77b4;" x="380.902747" xlink:href="#me11e9317f7" y="114.516223"/>
    </g>
   </g>
   <g id="line2d_44">
    <g clip-path="url(#p8bd517f669)">
     <use style="fill:#1f77b4;stroke:#1f77b4;" x="235.65673" xlink:href="#me11e9317f7" y="115.376378"/>
     <use style="fill:#1f77b4;stroke:#1f77b4;" x="251.795176" xlink:href="#me11e9317f7" y="117.721389"/>
     <use style="fill:#1f77b4;stroke:#1f77b4;" x="267.933623" xlink:href="#me11e9317f7" y="126.31801"/>
     <use style="fill:#1f77b4;stroke:#1f77b4;" x="284.072069" xlink:href="#me11e9317f7" y="128.950101"/>
     <use style="fill:#1f77b4;stroke:#1f77b4;" x="300.210515" xlink:href="#me11e9317f7" y="130.904206"/>
     <use style="fill:#1f77b4;stroke:#1f77b4;" x="316.348962" xlink:href="#me11e9317f7" y="131.123737"/>
     <use style="fill:#1f77b4;stroke:#1f77b4;" x="332.487408" xlink:href="#me11e9317f7" y="131.098757"/>
     <use style="fill:#1f77b4;stroke:#1f77b4;" x="348.625854" xlink:href="#me11e9317f7" y="123.882497"/>
     <use style="fill:#1f77b4;stroke:#1f77b4;" x="364.7643" xlink:href="#me11e9317f7" y="116.7665"/>
     <use style="fill:#1f77b4;stroke:#1f77b4;" x="380.902747" xlink:href="#me11e9317f7" y="110.154751"/>
    </g>
   </g>
   <g id="line2d_45">
    <g clip-path="url(#p8bd517f669)">
     <use style="fill:#ff7f0e;stroke:#ff7f0e;" x="235.65673" xlink:href="#m7d4c87ce96" y="115.376378"/>
     <use style="fill:#ff7f0e;stroke:#ff7f0e;" x="251.795176" xlink:href="#m7d4c87ce96" y="112.926252"/>
     <use style="fill:#ff7f0e;stroke:#ff7f0e;" x="267.933623" xlink:href="#m7d4c87ce96" y="108.531428"/>
     <use style="fill:#ff7f0e;stroke:#ff7f0e;" x="284.072069" xlink:href="#m7d4c87ce96" y="101.250141"/>
     <use style="fill:#ff7f0e;stroke:#ff7f0e;" x="300.210515" xlink:href="#m7d4c87ce96" y="92.970275"/>
     <use style="fill:#ff7f0e;stroke:#ff7f0e;" x="316.348962" xlink:href="#m7d4c87ce96" y="82.330387"/>
     <use style="fill:#ff7f0e;stroke:#ff7f0e;" x="332.487408" xlink:href="#m7d4c87ce96" y="71.940591"/>
     <use style="fill:#ff7f0e;stroke:#ff7f0e;" x="348.625854" xlink:href="#m7d4c87ce96" y="62.620151"/>
     <use style="fill:#ff7f0e;stroke:#ff7f0e;" x="364.7643" xlink:href="#m7d4c87ce96" y="52.286562"/>
     <use style="fill:#ff7f0e;stroke:#ff7f0e;" x="380.902747" xlink:href="#m7d4c87ce96" y="46.312849"/>
    </g>
   </g>
   <g id="line2d_46">
    <g clip-path="url(#p8bd517f669)">
     <use style="fill:#ff7f0e;stroke:#ff7f0e;" x="235.65673" xlink:href="#m7d4c87ce96" y="115.376378"/>
     <use style="fill:#ff7f0e;stroke:#ff7f0e;" x="251.795176" xlink:href="#m7d4c87ce96" y="104.707231"/>
     <use style="fill:#ff7f0e;stroke:#ff7f0e;" x="267.933623" xlink:href="#m7d4c87ce96" y="93.636952"/>
     <use style="fill:#ff7f0e;stroke:#ff7f0e;" x="284.072069" xlink:href="#m7d4c87ce96" y="83.628601"/>
     <use style="fill:#ff7f0e;stroke:#ff7f0e;" x="300.210515" xlink:href="#m7d4c87ce96" y="72.533647"/>
     <use style="fill:#ff7f0e;stroke:#ff7f0e;" x="316.348962" xlink:href="#m7d4c87ce96" y="61.887296"/>
     <use style="fill:#ff7f0e;stroke:#ff7f0e;" x="332.487408" xlink:href="#m7d4c87ce96" y="55.50875"/>
     <use style="fill:#ff7f0e;stroke:#ff7f0e;" x="348.625854" xlink:href="#m7d4c87ce96" y="48.755909"/>
     <use style="fill:#ff7f0e;stroke:#ff7f0e;" x="364.7643" xlink:href="#m7d4c87ce96" y="40.14909"/>
     <use style="fill:#ff7f0e;stroke:#ff7f0e;" x="380.902747" xlink:href="#m7d4c87ce96" y="32.395351"/>
    </g>
   </g>
   <g id="line2d_47">
    <path clip-path="url(#p8bd517f669)" d="M 235.65673 115.376378 
L 251.795176 122.326986 
L 267.933623 131.058688 
L 284.072069 135.533142 
L 300.210515 136.228203 
L 316.348962 137.401118 
L 332.487408 135.576583 
L 348.625854 128.843182 
L 364.7643 119.894274 
L 380.902747 112.335487 
" style="fill:none;stroke:#1f77b4;stroke-linecap:square;stroke-width:1.5;"/>
   </g>
   <g id="line2d_48">
    <path clip-path="url(#p8bd517f669)" d="M 235.65673 115.376378 
L 251.795176 108.816742 
L 267.933623 101.08419 
L 284.072069 92.439371 
L 300.210515 82.751961 
L 316.348962 72.108842 
L 332.487408 63.72467 
L 348.625854 55.68803 
L 364.7643 46.217826 
L 380.902747 39.3541 
" style="fill:none;stroke:#ff7f0e;stroke-linecap:square;stroke-width:1.5;"/>
   </g>
   <g id="patch_9">
    <path d="M 228.394429 149.631243 
L 228.394429 18.670875 
" style="fill:none;stroke:#000000;stroke-linecap:square;stroke-linejoin:miter;stroke-width:0.8;"/>
   </g>
   <g id="patch_10">
    <path d="M 388.165047 149.631243 
L 388.165047 18.670875 
" style="fill:none;stroke:#000000;stroke-linecap:square;stroke-linejoin:miter;stroke-width:0.8;"/>
   </g>
   <g id="patch_11">
    <path d="M 228.394429 149.631243 
L 388.165047 149.631243 
" style="fill:none;stroke:#000000;stroke-linecap:square;stroke-linejoin:miter;stroke-width:0.8;"/>
   </g>
   <g id="patch_12">
    <path d="M 228.394429 18.670875 
L 388.165047 18.670875 
" style="fill:none;stroke:#000000;stroke-linecap:square;stroke-linejoin:miter;stroke-width:0.8;"/>
   </g>
   <g id="text_28">
    <!-- pSTED PSF (relative to excitation) -->
    <defs>
     <path d="M -0.296875 72.90625 
L 61.375 72.90625 
L 61.375 64.59375 
L 35.5 64.59375 
L 35.5 0 
L 25.59375 0 
L 25.59375 64.59375 
L -0.296875 64.59375 
z
" id="DejaVuSans-84"/>
     <path d="M 2.984375 54.6875 
L 12.5 54.6875 
L 29.59375 8.796875 
L 46.6875 54.6875 
L 56.203125 54.6875 
L 35.6875 0 
L 23.484375 0 
z
" id="DejaVuSans-118"/>
    </defs>
    <g transform="translate(247.646738 12.670875)scale(0.072 -0.072)">
     <use xlink:href="#DejaVuSans-112"/>
     <use x="63.476562" xlink:href="#DejaVuSans-83"/>
     <use x="126.953125" xlink:href="#DejaVuSans-84"/>
     <use x="188.037109" xlink:href="#DejaVuSans-69"/>
     <use x="251.220703" xlink:href="#DejaVuSans-68"/>
     <use x="328.222656" xlink:href="#DejaVuSans-32"/>
     <use x="360.009766" xlink:href="#DejaVuSans-80"/>
     <use x="420.3125" xlink:href="#DejaVuSans-83"/>
     <use x="483.789062" xlink:href="#DejaVuSans-70"/>
     <use x="541.308594" xlink:href="#DejaVuSans-32"/>
     <use x="573.095703" xlink:href="#DejaVuSans-40"/>
     <use x="612.109375" xlink:href="#DejaVuSans-114"/>
     <use x="650.972656" xlink:href="#DejaVuSans-101"/>
     <use x="712.496094" xlink:href="#DejaVuSans-108"/>
     <use x="740.279297" xlink:href="#DejaVuSans-97"/>
     <use x="801.558594" xlink:href="#DejaVuSans-116"/>
     <use x="840.767578" xlink:href="#DejaVuSans-105"/>
     <use x="868.550781" xlink:href="#DejaVuSans-118"/>
     <use x="927.730469" xlink:href="#DejaVuSans-101"/>
     <use x="989.253906" xlink:href="#DejaVuSans-32"/>
     <use x="1021.041016" xlink:href="#DejaVuSans-116"/>
     <use x="1060.25" xlink:href="#DejaVuSans-111"/>
     <use x="1121.431641" xlink:href="#DejaVuSans-32"/>
     <use x="1153.21875" xlink:href="#DejaVuSans-101"/>
     <use x="1212.992188" xlink:href="#DejaVuSans-120"/>
     <use x="1270.421875" xlink:href="#DejaVuSans-99"/>
     <use x="1325.402344" xlink:href="#DejaVuSans-105"/>
     <use x="1353.185547" xlink:href="#DejaVuSans-116"/>
     <use x="1392.394531" xlink:href="#DejaVuSans-97"/>
     <use x="1453.673828" xlink:href="#DejaVuSans-116"/>
     <use x="1492.882812" xlink:href="#DejaVuSans-105"/>
     <use x="1520.666016" xlink:href="#DejaVuSans-111"/>
     <use x="1581.847656" xlink:href="#DejaVuSans-110"/>
     <use x="1645.226562" xlink:href="#DejaVuSans-41"/>
    </g>
   </g>
  </g>
 </g>
 <defs>
  <clipPath id="p6a105b759f">
   <rect height="130.960368" width="159.770618" x="36.669688" y="18.670875"/>
  </clipPath>
  <clipPath id="p8bd517f669">
   <rect height="130.960368" width="159.770618" x="228.394429" y="18.670875"/>
  </clipPath>
 </defs>
</svg>
