<?xml version="1.0" encoding="utf-8" standalone="no"?>
<!DOCTYPE svg PUBLIC "-//W3C//DTD SVG 1.1//EN"
  "http://www.w3.org/Graphics/SVG/1.1/DTD/svg11.dtd">
<!-- Created with matplotlib (https://matplotlib.org/) -->
<svg height="143.550762pt" version="1.1" viewBox="0 0 370.727308 143.550762" width="370.727308pt" xmlns="http://www.w3.org/2000/svg" xmlns:xlink="http://www.w3.org/1999/xlink">
 <defs>
  <style type="text/css">
*{stroke-linecap:butt;stroke-linejoin:round;}
  </style>
 </defs>
 <g id="figure_1">
  <g id="patch_1">
   <path d="M 0 143.550762 
L 370.727308 143.550762 
L 370.727308 0 
L 0 0 
z
" style="fill:#ffffff;"/>
  </g>
  <g id="axes_1">
   <g id="line2d_1">
    <path clip-path="url(#p68a144c862)" d="M 12.031948 32.189927 
L 39.070052 32.189927 
" style="fill:none;stroke:#000000;stroke-linecap:square;stroke-width:0.3;"/>
   </g>
   <g id="line2d_2">
    <path clip-path="url(#p68a144c862)" d="M 39.070052 32.189927 
L 38.959061 32.189927 
L 38.62791 32.189927 
L 38.082036 32.189927 
L 37.330403 32.189927 
L 36.385353 32.189927 
L 35.262402 32.189927 
L 33.979991 32.189927 
L 32.559176 32.189927 
L 31.023287 32.189927 
L 29.397543 32.189927 
L 27.708639 32.189927 
L 25.984307 32.189927 
L 24.25286 32.189927 
L 22.542728 32.189927 
L 20.881992 32.189927 
L 19.297921 32.189927 
L 17.816525 32.189927 
L 16.462129 32.189927 
L 15.256972 32.189927 
L 14.220843 32.189927 
L 13.370755 32.189927 
L 12.720666 32.189927 
L 12.28125 32.189927 
L 12.059724 32.189927 
L 12.059724 32.189927 
L 12.28125 32.189927 
L 12.720666 32.189927 
L 13.370755 32.189927 
L 14.220843 32.189927 
L 15.256972 32.189927 
L 16.462129 32.189927 
L 17.816525 32.189927 
L 19.297921 32.189927 
L 20.881992 32.189927 
L 22.542728 32.189927 
L 24.25286 32.189927 
L 25.984307 32.189927 
L 27.708639 32.189927 
L 29.397543 32.189927 
L 31.023287 32.189927 
L 32.559176 32.189927 
L 33.979991 32.189927 
L 35.262402 32.189927 
L 36.385353 32.189927 
L 37.330403 32.189927 
L 38.082036 32.189927 
L 38.62791 32.189927 
L 38.959061 32.189927 
L 39.070052 32.189927 
" style="fill:none;stroke:#1f77b4;stroke-linecap:square;stroke-width:1.5;"/>
   </g>
   <g id="text_1">
    <!-- Initial -->
    <defs>
     <path d="M 9.8125 72.90625 
L 19.671875 72.90625 
L 19.671875 0 
L 9.8125 0 
z
" id="DejaVuSans-73"/>
     <path d="M 54.890625 33.015625 
L 54.890625 0 
L 45.90625 0 
L 45.90625 32.71875 
Q 45.90625 40.484375 42.875 44.328125 
Q 39.84375 48.1875 33.796875 48.1875 
Q 26.515625 48.1875 22.3125 43.546875 
Q 18.109375 38.921875 18.109375 30.90625 
L 18.109375 0 
L 9.078125 0 
L 9.078125 54.6875 
L 18.109375 54.6875 
L 18.109375 46.1875 
Q 21.34375 51.125 25.703125 53.5625 
Q 30.078125 56 35.796875 56 
Q 45.21875 56 50.046875 50.171875 
Q 54.890625 44.34375 54.890625 33.015625 
z
" id="DejaVuSans-110"/>
     <path d="M 9.421875 54.6875 
L 18.40625 54.6875 
L 18.40625 0 
L 9.421875 0 
z
M 9.421875 75.984375 
L 18.40625 75.984375 
L 18.40625 64.59375 
L 9.421875 64.59375 
z
" id="DejaVuSans-105"/>
     <path d="M 18.3125 70.21875 
L 18.3125 54.6875 
L 36.8125 54.6875 
L 36.8125 47.703125 
L 18.3125 47.703125 
L 18.3125 18.015625 
Q 18.3125 11.328125 20.140625 9.421875 
Q 21.96875 7.515625 27.59375 7.515625 
L 36.8125 7.515625 
L 36.8125 0 
L 27.59375 0 
Q 17.1875 0 13.234375 3.875 
Q 9.28125 7.765625 9.28125 18.015625 
L 9.28125 47.703125 
L 2.6875 47.703125 
L 2.6875 54.6875 
L 9.28125 54.6875 
L 9.28125 70.21875 
z
" id="DejaVuSans-116"/>
     <path d="M 34.28125 27.484375 
Q 23.390625 27.484375 19.1875 25 
Q 14.984375 22.515625 14.984375 16.5 
Q 14.984375 11.71875 18.140625 8.90625 
Q 21.296875 6.109375 26.703125 6.109375 
Q 34.1875 6.109375 38.703125 11.40625 
Q 43.21875 16.703125 43.21875 25.484375 
L 43.21875 27.484375 
z
M 52.203125 31.203125 
L 52.203125 0 
L 43.21875 0 
L 43.21875 8.296875 
Q 40.140625 3.328125 35.546875 0.953125 
Q 30.953125 -1.421875 24.3125 -1.421875 
Q 15.921875 -1.421875 10.953125 3.296875 
Q 6 8.015625 6 15.921875 
Q 6 25.140625 12.171875 29.828125 
Q 18.359375 34.515625 30.609375 34.515625 
L 43.21875 34.515625 
L 43.21875 35.40625 
Q 43.21875 41.609375 39.140625 45 
Q 35.0625 48.390625 27.6875 48.390625 
Q 23 48.390625 18.546875 47.265625 
Q 14.109375 46.140625 10.015625 43.890625 
L 10.015625 52.203125 
Q 14.9375 54.109375 19.578125 55.046875 
Q 24.21875 56 28.609375 56 
Q 40.484375 56 46.34375 49.84375 
Q 52.203125 43.703125 52.203125 31.203125 
z
" id="DejaVuSans-97"/>
     <path d="M 9.421875 75.984375 
L 18.40625 75.984375 
L 18.40625 0 
L 9.421875 0 
z
" id="DejaVuSans-108"/>
    </defs>
    <g transform="translate(15.589688 12.670875)scale(0.072 -0.072)">
     <use xlink:href="#DejaVuSans-73"/>
     <use x="29.492188" xlink:href="#DejaVuSans-110"/>
     <use x="92.871094" xlink:href="#DejaVuSans-105"/>
     <use x="120.654297" xlink:href="#DejaVuSans-116"/>
     <use x="159.863281" xlink:href="#DejaVuSans-105"/>
     <use x="187.646484" xlink:href="#DejaVuSans-97"/>
     <use x="248.925781" xlink:href="#DejaVuSans-108"/>
    </g>
   </g>
  </g>
  <g id="axes_2">
   <g id="line2d_3">
    <path clip-path="url(#p34f86addc7)" d="M 44.477673 32.189927 
L 71.515778 32.189927 
" style="fill:none;stroke:#000000;stroke-linecap:square;stroke-width:0.3;"/>
   </g>
   <g id="line2d_4">
    <path clip-path="url(#p34f86addc7)" d="M 70.486701 27.01641 
L 70.384159 27.058884 
L 70.078215 27.185611 
L 69.573893 27.394507 
L 68.879475 27.682145 
L 68.006362 28.0438 
L 66.968891 28.473534 
L 65.784098 28.964292 
L 64.471436 29.508014 
L 63.05246 30.095774 
L 61.550468 30.717919 
L 59.990124 31.364234 
L 58.397049 32.024108 
L 56.7974 32.686704 
L 55.217444 33.341143 
L 53.683124 33.976679 
L 52.219634 34.582877 
L 50.851002 35.149783 
L 49.599704 35.668088 
L 48.486284 36.129281 
L 47.529025 36.525791 
L 46.743646 36.851105 
L 46.143042 37.099884 
L 45.737075 37.268041 
L 45.532412 37.352815 
L 45.532412 37.352815 
L 45.737075 37.268041 
L 46.143042 37.099884 
L 46.743646 36.851105 
L 47.529025 36.525791 
L 48.486284 36.129281 
L 49.599704 35.668088 
L 50.851002 35.149783 
L 52.219634 34.582877 
L 53.683124 33.976679 
L 55.217444 33.341143 
L 56.7974 32.686704 
L 58.397049 32.024108 
L 59.990124 31.364234 
L 61.550468 30.717919 
L 63.05246 30.095774 
L 64.471436 29.508014 
L 65.784098 28.964292 
L 66.968891 28.473534 
L 68.006362 28.0438 
L 68.879475 27.682145 
L 69.573893 27.394507 
L 70.078215 27.185611 
L 70.384159 27.058884 
L 70.486701 27.01641 
" style="fill:none;stroke:#1f77b4;stroke-linecap:square;stroke-width:1.5;"/>
   </g>
  </g>
  <g id="axes_3">
   <g id="line2d_5">
    <path clip-path="url(#pb37217a583)" d="M 76.923399 32.189927 
L 103.961503 32.189927 
" style="fill:none;stroke:#000000;stroke-linecap:square;stroke-width:0.3;"/>
   </g>
   <g id="line2d_6">
    <path clip-path="url(#pb37217a583)" d="M 100.001865 22.630514 
L 99.923382 22.708996 
L 99.689223 22.943156 
L 99.303232 23.329147 
L 98.771747 23.860631 
L 98.103495 24.528883 
L 97.30945 25.322929 
L 96.402648 26.22973 
L 95.39798 27.234398 
L 94.311942 28.320436 
L 93.162368 29.47001 
L 91.968132 30.664246 
L 90.748845 31.883533 
L 89.524527 33.107851 
L 88.315281 34.317097 
L 87.140964 35.491415 
L 86.020856 36.611522 
L 84.973351 37.659027 
L 84.015649 38.61673 
L 83.163474 39.468904 
L 82.43082 40.201558 
L 81.829717 40.802661 
L 81.370035 41.262344 
L 81.059321 41.573057 
L 80.902678 41.7297 
L 80.902678 41.7297 
L 81.059321 41.573057 
L 81.370035 41.262344 
L 81.829717 40.802661 
L 82.43082 40.201558 
L 83.163474 39.468904 
L 84.015649 38.61673 
L 84.973351 37.659027 
L 86.020856 36.611522 
L 87.140964 35.491415 
L 88.315281 34.317097 
L 89.524527 33.107851 
L 90.748845 31.883533 
L 91.968132 30.664246 
L 93.162368 29.47001 
L 94.311942 28.320436 
L 95.39798 27.234398 
L 96.402648 26.22973 
L 97.30945 25.322929 
L 98.103495 24.528883 
L 98.771747 23.860631 
L 99.303232 23.329147 
L 99.689223 22.943156 
L 99.923382 22.708996 
L 100.001865 22.630514 
" style="fill:none;stroke:#1f77b4;stroke-linecap:square;stroke-width:1.5;"/>
   </g>
  </g>
  <g id="axes_4">
   <g id="line2d_7">
    <path clip-path="url(#p33b31d56ab)" d="M 109.369124 32.189927 
L 136.407229 32.189927 
" style="fill:none;stroke:#000000;stroke-linecap:square;stroke-width:0.3;"/>
   </g>
   <g id="line2d_8">
    <path clip-path="url(#p33b31d56ab)" d="M 128.061694 19.699952 
L 128.019219 19.802494 
L 127.892493 20.108438 
L 127.683597 20.61276 
L 127.395959 21.307178 
L 127.034304 22.180291 
L 126.604569 23.217761 
L 126.113812 24.402555 
L 125.57009 25.715217 
L 124.98233 27.134193 
L 124.360185 28.636185 
L 123.713869 30.196528 
L 123.053996 31.789604 
L 122.3914 33.389253 
L 121.736961 34.969208 
L 121.101425 36.503528 
L 120.495227 37.967019 
L 119.928321 39.335651 
L 119.410016 40.586949 
L 118.948823 41.700369 
L 118.552313 42.657627 
L 118.226999 43.443007 
L 117.97822 44.043611 
L 117.810063 44.449577 
L 117.725289 44.654241 
L 117.725289 44.654241 
L 117.810063 44.449577 
L 117.97822 44.043611 
L 118.226999 43.443007 
L 118.552313 42.657627 
L 118.948823 41.700369 
L 119.410016 40.586949 
L 119.928321 39.335651 
L 120.495227 37.967019 
L 121.101425 36.503528 
L 121.736961 34.969208 
L 122.3914 33.389253 
L 123.053996 31.789604 
L 123.713869 30.196528 
L 124.360185 28.636185 
L 124.98233 27.134193 
L 125.57009 25.715217 
L 126.113812 24.402555 
L 126.604569 23.217761 
L 127.034304 22.180291 
L 127.395959 21.307178 
L 127.683597 20.61276 
L 127.892493 20.108438 
L 128.019219 19.802494 
L 128.061694 19.699952 
" style="fill:none;stroke:#1f77b4;stroke-linecap:square;stroke-width:1.5;"/>
   </g>
  </g>
  <g id="axes_5">
   <g id="line2d_9">
    <path clip-path="url(#p4943e734f2)" d="M 141.81485 32.189927 
L 168.852954 32.189927 
" style="fill:none;stroke:#000000;stroke-linecap:square;stroke-width:0.3;"/>
   </g>
   <g id="line2d_10">
    <path clip-path="url(#p4943e734f2)" d="M 155.333902 18.670875 
L 155.333902 18.781866 
L 155.333902 19.113017 
L 155.333902 19.658891 
L 155.333902 20.410524 
L 155.333902 21.355575 
L 155.333902 22.478525 
L 155.333902 23.760936 
L 155.333902 25.181751 
L 155.333902 26.71764 
L 155.333902 28.343384 
L 155.333902 30.032288 
L 155.333902 31.75662 
L 155.333902 33.488068 
L 155.333902 35.198199 
L 155.333902 36.858936 
L 155.333902 38.443007 
L 155.333902 39.924402 
L 155.333902 41.278798 
L 155.333902 42.483955 
L 155.333902 43.520084 
L 155.333902 44.370173 
L 155.333902 45.020262 
L 155.333902 45.459677 
L 155.333902 45.681203 
L 155.333902 45.681203 
L 155.333902 45.459677 
L 155.333902 45.020262 
L 155.333902 44.370173 
L 155.333902 43.520084 
L 155.333902 42.483955 
L 155.333902 41.278798 
L 155.333902 39.924402 
L 155.333902 38.443007 
L 155.333902 36.858936 
L 155.333902 35.198199 
L 155.333902 33.488068 
L 155.333902 31.75662 
L 155.333902 30.032288 
L 155.333902 28.343384 
L 155.333902 26.71764 
L 155.333902 25.181751 
L 155.333902 23.760936 
L 155.333902 22.478525 
L 155.333902 21.355575 
L 155.333902 20.410524 
L 155.333902 19.658891 
L 155.333902 19.113017 
L 155.333902 18.781866 
L 155.333902 18.670875 
" style="fill:none;stroke:#1f77b4;stroke-linecap:square;stroke-width:1.5;"/>
   </g>
  </g>
  <g id="axes_6">
   <g id="line2d_11">
    <path clip-path="url(#p532d2e7a27)" d="M 174.260575 32.189927 
L 201.29868 32.189927 
" style="fill:none;stroke:#000000;stroke-linecap:square;stroke-width:0.3;"/>
   </g>
   <g id="line2d_12">
    <path clip-path="url(#p532d2e7a27)" d="M 182.60611 19.699952 
L 182.648585 19.802494 
L 182.775311 20.108438 
L 182.984208 20.61276 
L 183.271845 21.307178 
L 183.6335 22.180291 
L 184.063235 23.217761 
L 184.553992 24.402555 
L 185.097715 25.715217 
L 185.685474 27.134193 
L 186.307619 28.636185 
L 186.953935 30.196528 
L 187.613808 31.789604 
L 188.276404 33.389253 
L 188.930844 34.969208 
L 189.56638 36.503528 
L 190.172578 37.967019 
L 190.739483 39.335651 
L 191.257788 40.586949 
L 191.718982 41.700369 
L 192.115491 42.657627 
L 192.440806 43.443007 
L 192.689584 44.043611 
L 192.857741 44.449577 
L 192.942515 44.654241 
L 192.942515 44.654241 
L 192.857741 44.449577 
L 192.689584 44.043611 
L 192.440806 43.443007 
L 192.115491 42.657627 
L 191.718982 41.700369 
L 191.257788 40.586949 
L 190.739483 39.335651 
L 190.172578 37.967019 
L 189.56638 36.503528 
L 188.930844 34.969208 
L 188.276404 33.389253 
L 187.613808 31.789604 
L 186.953935 30.196528 
L 186.307619 28.636185 
L 185.685474 27.134193 
L 185.097715 25.715217 
L 184.553992 24.402555 
L 184.063235 23.217761 
L 183.6335 22.180291 
L 183.271845 21.307178 
L 182.984208 20.61276 
L 182.775311 20.108438 
L 182.648585 19.802494 
L 182.60611 19.699952 
" style="fill:none;stroke:#1f77b4;stroke-linecap:square;stroke-width:1.5;"/>
   </g>
  </g>
  <g id="axes_7">
   <g id="line2d_13">
    <path clip-path="url(#p1f11019c90)" d="M 206.706301 32.189927 
L 233.744406 32.189927 
" style="fill:none;stroke:#000000;stroke-linecap:square;stroke-width:0.3;"/>
   </g>
   <g id="line2d_14">
    <path clip-path="url(#p1f11019c90)" d="M 210.66594 22.630514 
L 210.744422 22.708996 
L 210.978582 22.943156 
L 211.364573 23.329147 
L 211.896057 23.860631 
L 212.564309 24.528883 
L 213.358355 25.322929 
L 214.265156 26.22973 
L 215.269824 27.234398 
L 216.355862 28.320436 
L 217.505436 29.47001 
L 218.699672 30.664246 
L 219.918959 31.883533 
L 221.143277 33.107851 
L 222.352523 34.317097 
L 223.526841 35.491415 
L 224.646948 36.611522 
L 225.694453 37.659027 
L 226.652155 38.61673 
L 227.50433 39.468904 
L 228.236984 40.201558 
L 228.838087 40.802661 
L 229.29777 41.262344 
L 229.608483 41.573057 
L 229.765126 41.7297 
L 229.765126 41.7297 
L 229.608483 41.573057 
L 229.29777 41.262344 
L 228.838087 40.802661 
L 228.236984 40.201558 
L 227.50433 39.468904 
L 226.652155 38.61673 
L 225.694453 37.659027 
L 224.646948 36.611522 
L 223.526841 35.491415 
L 222.352523 34.317097 
L 221.143277 33.107851 
L 219.918959 31.883533 
L 218.699672 30.664246 
L 217.505436 29.47001 
L 216.355862 28.320436 
L 215.269824 27.234398 
L 214.265156 26.22973 
L 213.358355 25.322929 
L 212.564309 24.528883 
L 211.896057 23.860631 
L 211.364573 23.329147 
L 210.978582 22.943156 
L 210.744422 22.708996 
L 210.66594 22.630514 
" style="fill:none;stroke:#1f77b4;stroke-linecap:square;stroke-width:1.5;"/>
   </g>
  </g>
  <g id="axes_8">
   <g id="line2d_15">
    <path clip-path="url(#p295e431aa2)" d="M 239.152026 32.189927 
L 266.190131 32.189927 
" style="fill:none;stroke:#000000;stroke-linecap:square;stroke-width:0.3;"/>
   </g>
   <g id="line2d_16">
    <path clip-path="url(#p295e431aa2)" d="M 240.181103 27.01641 
L 240.283646 27.058884 
L 240.589589 27.185611 
L 241.093911 27.394507 
L 241.788329 27.682145 
L 242.661442 28.0438 
L 243.698913 28.473534 
L 244.883706 28.964292 
L 246.196368 29.508014 
L 247.615345 30.095774 
L 249.117336 30.717919 
L 250.67768 31.364234 
L 252.270755 32.024108 
L 253.870404 32.686704 
L 255.45036 33.341143 
L 256.98468 33.976679 
L 258.448171 34.582877 
L 259.816802 35.149783 
L 261.068101 35.668088 
L 262.18152 36.129281 
L 263.138779 36.525791 
L 263.924158 36.851105 
L 264.524762 37.099884 
L 264.930729 37.268041 
L 265.135393 37.352815 
L 265.135393 37.352815 
L 264.930729 37.268041 
L 264.524762 37.099884 
L 263.924158 36.851105 
L 263.138779 36.525791 
L 262.18152 36.129281 
L 261.068101 35.668088 
L 259.816802 35.149783 
L 258.448171 34.582877 
L 256.98468 33.976679 
L 255.45036 33.341143 
L 253.870404 32.686704 
L 252.270755 32.024108 
L 250.67768 31.364234 
L 249.117336 30.717919 
L 247.615345 30.095774 
L 246.196368 29.508014 
L 244.883706 28.964292 
L 243.698913 28.473534 
L 242.661442 28.0438 
L 241.788329 27.682145 
L 241.093911 27.394507 
L 240.589589 27.185611 
L 240.283646 27.058884 
L 240.181103 27.01641 
" style="fill:none;stroke:#1f77b4;stroke-linecap:square;stroke-width:1.5;"/>
   </g>
  </g>
  <g id="axes_9">
   <g id="line2d_17">
    <path clip-path="url(#p0b5d9b2bb6)" d="M 271.597752 32.189927 
L 298.635857 32.189927 
" style="fill:none;stroke:#000000;stroke-linecap:square;stroke-width:0.3;"/>
   </g>
   <g id="line2d_18">
    <path clip-path="url(#p0b5d9b2bb6)" d="M 271.597752 32.189927 
L 271.708743 32.189927 
L 272.039894 32.189927 
L 272.585768 32.189927 
L 273.337401 32.189927 
L 274.282452 32.189927 
L 275.405402 32.189927 
L 276.687813 32.189927 
L 278.108628 32.189927 
L 279.644517 32.189927 
L 281.270261 32.189927 
L 282.959165 32.189927 
L 284.683497 32.189927 
L 286.414945 32.189927 
L 288.125076 32.189927 
L 289.785813 32.189927 
L 291.369884 32.189927 
L 292.851279 32.189927 
L 294.205675 32.189927 
L 295.410832 32.189927 
L 296.446961 32.189927 
L 297.29705 32.189927 
L 297.947139 32.189927 
L 298.386554 32.189927 
L 298.60808 32.189927 
L 298.60808 32.189927 
L 298.386554 32.189927 
L 297.947139 32.189927 
L 297.29705 32.189927 
L 296.446961 32.189927 
L 295.410832 32.189927 
L 294.205675 32.189927 
L 292.851279 32.189927 
L 291.369884 32.189927 
L 289.785813 32.189927 
L 288.125076 32.189927 
L 286.414945 32.189927 
L 284.683497 32.189927 
L 282.959165 32.189927 
L 281.270261 32.189927 
L 279.644517 32.189927 
L 278.108628 32.189927 
L 276.687813 32.189927 
L 275.405402 32.189927 
L 274.282452 32.189927 
L 273.337401 32.189927 
L 272.585768 32.189927 
L 272.039894 32.189927 
L 271.708743 32.189927 
L 271.597752 32.189927 
" style="fill:none;stroke:#1f77b4;stroke-linecap:square;stroke-width:1.5;"/>
   </g>
  </g>
  <g id="axes_10">
   <g id="line2d_19">
    <path clip-path="url(#p0a2b7a1ba7)" d="M 304.043478 32.189927 
L 331.081582 32.189927 
" style="fill:none;stroke:#000000;stroke-linecap:square;stroke-width:0.3;"/>
   </g>
   <g id="line2d_20">
    <path clip-path="url(#p0a2b7a1ba7)" d="M 327.121943 32.189927 
L 327.043461 33.412358 
L 326.809301 34.614716 
L 326.42331 35.77726 
L 325.891826 36.880899 
L 325.223574 37.907513 
L 324.429528 38.840245 
L 323.522727 39.663778 
L 322.518059 40.364591 
L 321.432021 40.931176 
L 320.282447 41.35423 
L 319.088211 41.626806 
L 317.868924 41.744429 
L 316.644606 41.705168 
L 315.43536 41.509666 
L 314.261042 41.161135 
L 313.140935 40.665297 
L 312.09343 40.030293 
L 311.135728 39.266551 
L 310.283553 38.386611 
L 309.550899 37.404921 
L 308.949796 36.337601 
L 308.490113 35.202177 
L 308.1794 34.017292 
L 308.022757 32.802401 
L 308.022757 31.577454 
L 308.1794 30.362563 
L 308.490113 29.177678 
L 308.949796 28.042253 
L 309.550899 26.974934 
L 310.283553 25.993244 
L 311.135728 25.113304 
L 312.09343 24.349562 
L 313.140935 23.714558 
L 314.261042 23.21872 
L 315.43536 22.870188 
L 316.644606 22.674687 
L 317.868924 22.635425 
L 319.088211 22.753048 
L 320.282447 23.025625 
L 321.432021 23.448679 
L 322.518059 24.015264 
L 323.522727 24.716077 
L 324.429528 25.53961 
L 325.223574 26.472341 
L 325.891826 27.498955 
L 326.42331 28.602595 
L 326.809301 29.765138 
L 327.043461 30.967497 
L 327.121943 32.189927 
" style="fill:none;stroke:#ff7f0e;stroke-linecap:square;stroke-width:1.5;"/>
   </g>
  </g>
  <g id="axes_11">
   <g id="line2d_21">
    <path clip-path="url(#pa0d1aa147d)" d="M 336.489203 32.189927 
L 363.527308 32.189927 
" style="fill:none;stroke:#000000;stroke-linecap:square;stroke-width:0.3;"/>
   </g>
   <g id="line2d_22">
    <path clip-path="url(#pa0d1aa147d)" d="M 359.567669 32.189927 
L 359.489186 30.967497 
L 359.255027 29.765138 
L 358.869036 28.602595 
L 358.337551 27.498955 
L 357.6693 26.472341 
L 356.875254 25.53961 
L 355.968452 24.716077 
L 354.963784 24.015264 
L 353.877747 23.448679 
L 352.728172 23.025625 
L 351.533937 22.753048 
L 350.31465 22.635425 
L 349.090332 22.674687 
L 347.881086 22.870188 
L 346.706768 23.21872 
L 345.586661 23.714558 
L 344.539156 24.349562 
L 343.581453 25.113304 
L 342.729279 25.993244 
L 341.996625 26.974934 
L 341.395521 28.042253 
L 340.935839 29.177678 
L 340.625125 30.362563 
L 340.468483 31.577454 
L 340.468483 32.802401 
L 340.625125 34.017292 
L 340.935839 35.202177 
L 341.395521 36.337601 
L 341.996625 37.404921 
L 342.729279 38.386611 
L 343.581453 39.266551 
L 344.539156 40.030293 
L 345.586661 40.665297 
L 346.706768 41.161135 
L 347.881086 41.509666 
L 349.090332 41.705168 
L 350.31465 41.744429 
L 351.533937 41.626806 
L 352.728172 41.35423 
L 353.877747 40.931176 
L 354.963784 40.364591 
L 355.968452 39.663778 
L 356.875254 38.840245 
L 357.6693 37.907513 
L 358.337551 36.880899 
L 358.869036 35.77726 
L 359.255027 34.614716 
L 359.489186 33.412358 
L 359.567669 32.189927 
" style="fill:none;stroke:#2ca02c;stroke-linecap:square;stroke-width:1.5;"/>
   </g>
  </g>
  <g id="axes_12">
   <g id="line2d_23">
    <path clip-path="url(#pbcd724a3b2)" d="M 12.031948 77.510819 
L 39.070052 77.510819 
" style="fill:none;stroke:#000000;stroke-linecap:square;stroke-width:0.3;"/>
   </g>
   <g id="line2d_24">
    <path clip-path="url(#pbcd724a3b2)" d="M 39.070052 77.510819 
L 38.959061 77.510819 
L 38.62791 77.510819 
L 38.082036 77.510819 
L 37.330403 77.510819 
L 36.385353 77.510819 
L 35.262402 77.510819 
L 33.979991 77.510819 
L 32.559176 77.510819 
L 31.023287 77.510819 
L 29.397543 77.510819 
L 27.708639 77.510819 
L 25.984307 77.510819 
L 24.25286 77.510819 
L 22.542728 77.510819 
L 20.881992 77.510819 
L 19.297921 77.510819 
L 17.816525 77.510819 
L 16.462129 77.510819 
L 15.256972 77.510819 
L 14.220843 77.510819 
L 13.370755 77.510819 
L 12.720666 77.510819 
L 12.28125 77.510819 
L 12.059724 77.510819 
L 12.059724 77.510819 
L 12.28125 77.510819 
L 12.720666 77.510819 
L 13.370755 77.510819 
L 14.220843 77.510819 
L 15.256972 77.510819 
L 16.462129 77.510819 
L 17.816525 77.510819 
L 19.297921 77.510819 
L 20.881992 77.510819 
L 22.542728 77.510819 
L 24.25286 77.510819 
L 25.984307 77.510819 
L 27.708639 77.510819 
L 29.397543 77.510819 
L 31.023287 77.510819 
L 32.559176 77.510819 
L 33.979991 77.510819 
L 35.262402 77.510819 
L 36.385353 77.510819 
L 37.330403 77.510819 
L 38.082036 77.510819 
L 38.62791 77.510819 
L 38.959061 77.510819 
L 39.070052 77.510819 
" style="fill:none;stroke:#1f77b4;stroke-linecap:square;stroke-width:1.5;"/>
   </g>
   <g id="text_2">
    <!-- After QWP -->
    <defs>
     <path d="M 34.1875 63.1875 
L 20.796875 26.90625 
L 47.609375 26.90625 
z
M 28.609375 72.90625 
L 39.796875 72.90625 
L 67.578125 0 
L 57.328125 0 
L 50.6875 18.703125 
L 17.828125 18.703125 
L 11.1875 0 
L 0.78125 0 
z
" id="DejaVuSans-65"/>
     <path d="M 37.109375 75.984375 
L 37.109375 68.5 
L 28.515625 68.5 
Q 23.6875 68.5 21.796875 66.546875 
Q 19.921875 64.59375 19.921875 59.515625 
L 19.921875 54.6875 
L 34.71875 54.6875 
L 34.71875 47.703125 
L 19.921875 47.703125 
L 19.921875 0 
L 10.890625 0 
L 10.890625 47.703125 
L 2.296875 47.703125 
L 2.296875 54.6875 
L 10.890625 54.6875 
L 10.890625 58.5 
Q 10.890625 67.625 15.140625 71.796875 
Q 19.390625 75.984375 28.609375 75.984375 
z
" id="DejaVuSans-102"/>
     <path d="M 56.203125 29.59375 
L 56.203125 25.203125 
L 14.890625 25.203125 
Q 15.484375 15.921875 20.484375 11.0625 
Q 25.484375 6.203125 34.421875 6.203125 
Q 39.59375 6.203125 44.453125 7.46875 
Q 49.3125 8.734375 54.109375 11.28125 
L 54.109375 2.78125 
Q 49.265625 0.734375 44.1875 -0.34375 
Q 39.109375 -1.421875 33.890625 -1.421875 
Q 20.796875 -1.421875 13.15625 6.1875 
Q 5.515625 13.8125 5.515625 26.8125 
Q 5.515625 40.234375 12.765625 48.109375 
Q 20.015625 56 32.328125 56 
Q 43.359375 56 49.78125 48.890625 
Q 56.203125 41.796875 56.203125 29.59375 
z
M 47.21875 32.234375 
Q 47.125 39.59375 43.09375 43.984375 
Q 39.0625 48.390625 32.421875 48.390625 
Q 24.90625 48.390625 20.390625 44.140625 
Q 15.875 39.890625 15.1875 32.171875 
z
" id="DejaVuSans-101"/>
     <path d="M 41.109375 46.296875 
Q 39.59375 47.171875 37.8125 47.578125 
Q 36.03125 48 33.890625 48 
Q 26.265625 48 22.1875 43.046875 
Q 18.109375 38.09375 18.109375 28.8125 
L 18.109375 0 
L 9.078125 0 
L 9.078125 54.6875 
L 18.109375 54.6875 
L 18.109375 46.1875 
Q 20.953125 51.171875 25.484375 53.578125 
Q 30.03125 56 36.53125 56 
Q 37.453125 56 38.578125 55.875 
Q 39.703125 55.765625 41.0625 55.515625 
z
" id="DejaVuSans-114"/>
     <path id="DejaVuSans-32"/>
     <path d="M 39.40625 66.21875 
Q 28.65625 66.21875 22.328125 58.203125 
Q 16.015625 50.203125 16.015625 36.375 
Q 16.015625 22.609375 22.328125 14.59375 
Q 28.65625 6.59375 39.40625 6.59375 
Q 50.140625 6.59375 56.421875 14.59375 
Q 62.703125 22.609375 62.703125 36.375 
Q 62.703125 50.203125 56.421875 58.203125 
Q 50.140625 66.21875 39.40625 66.21875 
z
M 53.21875 1.3125 
L 66.21875 -12.890625 
L 54.296875 -12.890625 
L 43.5 -1.21875 
Q 41.890625 -1.3125 41.03125 -1.359375 
Q 40.1875 -1.421875 39.40625 -1.421875 
Q 24.03125 -1.421875 14.8125 8.859375 
Q 5.609375 19.140625 5.609375 36.375 
Q 5.609375 53.65625 14.8125 63.9375 
Q 24.03125 74.21875 39.40625 74.21875 
Q 54.734375 74.21875 63.90625 63.9375 
Q 73.09375 53.65625 73.09375 36.375 
Q 73.09375 23.6875 67.984375 14.640625 
Q 62.890625 5.609375 53.21875 1.3125 
z
" id="DejaVuSans-81"/>
     <path d="M 3.328125 72.90625 
L 13.28125 72.90625 
L 28.609375 11.28125 
L 43.890625 72.90625 
L 54.984375 72.90625 
L 70.3125 11.28125 
L 85.59375 72.90625 
L 95.609375 72.90625 
L 77.296875 0 
L 64.890625 0 
L 49.515625 63.28125 
L 33.984375 0 
L 21.578125 0 
z
" id="DejaVuSans-87"/>
     <path d="M 19.671875 64.796875 
L 19.671875 37.40625 
L 32.078125 37.40625 
Q 38.96875 37.40625 42.71875 40.96875 
Q 46.484375 44.53125 46.484375 51.125 
Q 46.484375 57.671875 42.71875 61.234375 
Q 38.96875 64.796875 32.078125 64.796875 
z
M 9.8125 72.90625 
L 32.078125 72.90625 
Q 44.34375 72.90625 50.609375 67.359375 
Q 56.890625 61.8125 56.890625 51.125 
Q 56.890625 40.328125 50.609375 34.8125 
Q 44.34375 29.296875 32.078125 29.296875 
L 19.671875 29.296875 
L 19.671875 0 
L 9.8125 0 
z
" id="DejaVuSans-80"/>
    </defs>
    <g transform="translate(7.2 57.991766)scale(0.072 -0.072)">
     <use xlink:href="#DejaVuSans-65"/>
     <use x="64.783203" xlink:href="#DejaVuSans-102"/>
     <use x="98.238281" xlink:href="#DejaVuSans-116"/>
     <use x="137.447266" xlink:href="#DejaVuSans-101"/>
     <use x="198.970703" xlink:href="#DejaVuSans-114"/>
     <use x="240.083984" xlink:href="#DejaVuSans-32"/>
     <use x="271.871094" xlink:href="#DejaVuSans-81"/>
     <use x="350.582031" xlink:href="#DejaVuSans-87"/>
     <use x="449.458984" xlink:href="#DejaVuSans-80"/>
    </g>
   </g>
  </g>
  <g id="axes_13">
   <g id="line2d_25">
    <path clip-path="url(#p578e057c85)" d="M 44.477673 77.510819 
L 71.515778 77.510819 
" style="fill:none;stroke:#000000;stroke-linecap:square;stroke-width:0.3;"/>
   </g>
   <g id="line2d_26">
    <path clip-path="url(#p578e057c85)" d="M 70.486701 77.510819 
L 70.384159 78.172393 
L 70.078215 78.823105 
L 69.573893 79.452269 
L 68.879475 80.049554 
L 68.006362 80.605154 
L 66.968891 81.109944 
L 65.784098 81.555637 
L 64.471436 81.934915 
L 63.05246 82.241548 
L 61.550468 82.470503 
L 59.990124 82.618021 
L 58.397049 82.681678 
L 56.7974 82.66043 
L 55.217444 82.554625 
L 53.683124 82.366001 
L 52.219634 82.097655 
L 50.851002 81.753994 
L 49.599704 81.34066 
L 48.486284 80.864439 
L 47.529025 80.333153 
L 46.743646 79.755524 
L 46.143042 79.141036 
L 45.737075 78.499781 
L 45.532412 77.842287 
L 45.532412 77.17935 
L 45.737075 76.521856 
L 46.143042 75.880601 
L 46.743646 75.266114 
L 47.529025 74.688484 
L 48.486284 74.157198 
L 49.599704 73.680978 
L 50.851002 73.267643 
L 52.219634 72.923982 
L 53.683124 72.655636 
L 55.217444 72.467012 
L 56.7974 72.361208 
L 58.397049 72.339959 
L 59.990124 72.403617 
L 61.550468 72.551134 
L 63.05246 72.780089 
L 64.471436 73.086723 
L 65.784098 73.466 
L 66.968891 73.911693 
L 68.006362 74.416483 
L 68.879475 74.972083 
L 69.573893 75.569368 
L 70.078215 76.198532 
L 70.384159 76.849244 
L 70.486701 77.510819 
" style="fill:none;stroke:#ff7f0e;stroke-linecap:square;stroke-width:1.5;"/>
   </g>
  </g>
  <g id="axes_14">
   <g id="line2d_27">
    <path clip-path="url(#pcc8f6166c5)" d="M 76.923399 77.510819 
L 103.961503 77.510819 
" style="fill:none;stroke:#000000;stroke-linecap:square;stroke-width:0.3;"/>
   </g>
   <g id="line2d_28">
    <path clip-path="url(#pcc8f6166c5)" d="M 100.001865 77.510819 
L 99.923382 78.733249 
L 99.689223 79.935608 
L 99.303232 81.098151 
L 98.771747 82.201791 
L 98.103495 83.228405 
L 97.30945 84.161136 
L 96.402648 84.984669 
L 95.39798 85.685482 
L 94.311942 86.252067 
L 93.162368 86.675121 
L 91.968132 86.947698 
L 90.748845 87.065321 
L 89.524527 87.026059 
L 88.315281 86.830558 
L 87.140964 86.482026 
L 86.020856 85.986188 
L 84.973351 85.351184 
L 84.015649 84.587442 
L 83.163474 83.707502 
L 82.43082 82.725812 
L 81.829717 81.658493 
L 81.370035 80.523068 
L 81.059321 79.338183 
L 80.902678 78.123292 
L 80.902678 76.898345 
L 81.059321 75.683454 
L 81.370035 74.498569 
L 81.829717 73.363145 
L 82.43082 72.295825 
L 83.163474 71.314135 
L 84.015649 70.434195 
L 84.973351 69.670453 
L 86.020856 69.035449 
L 87.140964 68.539611 
L 88.315281 68.191079 
L 89.524527 67.995578 
L 90.748845 67.956317 
L 91.968132 68.07394 
L 93.162368 68.346516 
L 94.311942 68.76957 
L 95.39798 69.336155 
L 96.402648 70.036968 
L 97.30945 70.860501 
L 98.103495 71.793233 
L 98.771747 72.819847 
L 99.303232 73.923486 
L 99.689223 75.08603 
L 99.923382 76.288388 
L 100.001865 77.510819 
" style="fill:none;stroke:#ff7f0e;stroke-linecap:square;stroke-width:1.5;"/>
   </g>
  </g>
  <g id="axes_15">
   <g id="line2d_29">
    <path clip-path="url(#pc1948e7f58)" d="M 109.369124 77.510819 
L 136.407229 77.510819 
" style="fill:none;stroke:#000000;stroke-linecap:square;stroke-width:0.3;"/>
   </g>
   <g id="line2d_30">
    <path clip-path="url(#pc1948e7f58)" d="M 128.061694 77.510819 
L 128.019219 79.108001 
L 127.892493 80.678958 
L 127.683597 82.197894 
L 127.395959 83.639869 
L 127.034304 84.981205 
L 126.604569 86.199877 
L 126.113812 87.275875 
L 125.57009 88.191531 
L 124.98233 88.93181 
L 124.360185 89.484557 
L 123.713869 89.840695 
L 123.053996 89.994377 
L 122.3914 89.94308 
L 121.736961 89.687645 
L 121.101425 89.232266 
L 120.495227 88.584422 
L 119.928321 87.75475 
L 119.410016 86.756873 
L 118.948823 85.607176 
L 118.552313 84.324536 
L 118.226999 82.930016 
L 117.97822 81.446513 
L 117.810063 79.898385 
L 117.725289 78.311054 
L 117.725289 76.710583 
L 117.810063 75.123252 
L 117.97822 73.575125 
L 118.226999 72.091621 
L 118.552313 70.697101 
L 118.948823 69.414462 
L 119.410016 68.264764 
L 119.928321 67.266887 
L 120.495227 66.437215 
L 121.101425 65.789371 
L 121.736961 65.333993 
L 122.3914 65.078558 
L 123.053996 65.02726 
L 123.713869 65.180942 
L 124.360185 65.53708 
L 124.98233 66.089827 
L 125.57009 66.830106 
L 126.113812 67.745762 
L 126.604569 68.82176 
L 127.034304 70.040433 
L 127.395959 71.381768 
L 127.683597 72.823743 
L 127.892493 74.342679 
L 128.019219 75.913636 
L 128.061694 77.510819 
" style="fill:none;stroke:#ff7f0e;stroke-linecap:square;stroke-width:1.5;"/>
   </g>
  </g>
  <g id="axes_16">
   <g id="line2d_31">
    <path clip-path="url(#pab4ff965aa)" d="M 141.81485 77.510819 
L 168.852954 77.510819 
" style="fill:none;stroke:#000000;stroke-linecap:square;stroke-width:0.3;"/>
   </g>
   <g id="line2d_32">
    <path clip-path="url(#pab4ff965aa)" d="M 155.333902 77.510819 
L 155.333902 79.239597 
L 155.333902 80.939988 
L 155.333902 82.584073 
L 155.333902 84.144855 
L 155.333902 85.596706 
L 155.333902 86.915787 
L 155.333902 88.080439 
L 155.333902 89.071538 
L 155.333902 89.872811 
L 155.333902 90.471099 
L 155.333902 90.856581 
L 155.333902 91.022925 
L 155.333902 90.967401 
L 155.333902 90.69092 
L 155.333902 90.198022 
L 155.333902 89.496801 
L 155.333902 88.59877 
L 155.333902 87.518676 
L 155.333902 86.274252 
L 155.333902 84.885933 
L 155.333902 83.376516 
L 155.333902 81.770783 
L 155.333902 80.095102 
L 155.333902 78.376987 
L 155.333902 76.64465 
L 155.333902 74.926535 
L 155.333902 73.250854 
L 155.333902 71.645122 
L 155.333902 70.135704 
L 155.333902 68.747385 
L 155.333902 67.502962 
L 155.333902 66.422867 
L 155.333902 65.524836 
L 155.333902 64.823615 
L 155.333902 64.330717 
L 155.333902 64.054236 
L 155.333902 63.998712 
L 155.333902 64.165056 
L 155.333902 64.550538 
L 155.333902 65.148827 
L 155.333902 65.950099 
L 155.333902 66.941198 
L 155.333902 68.10585 
L 155.333902 69.424931 
L 155.333902 70.876782 
L 155.333902 72.437564 
L 155.333902 74.081649 
L 155.333902 75.782041 
L 155.333902 77.510819 
" style="fill:none;stroke:#1f77b4;stroke-linecap:square;stroke-width:1.5;"/>
   </g>
  </g>
  <g id="axes_17">
   <g id="line2d_33">
    <path clip-path="url(#p05c219e8fb)" d="M 174.260575 77.510819 
L 201.29868 77.510819 
" style="fill:none;stroke:#000000;stroke-linecap:square;stroke-width:0.3;"/>
   </g>
   <g id="line2d_34">
    <path clip-path="url(#p05c219e8fb)" d="M 182.60611 77.510819 
L 182.648585 79.108001 
L 182.775311 80.678958 
L 182.984208 82.197894 
L 183.271845 83.639869 
L 183.6335 84.981205 
L 184.063235 86.199877 
L 184.553992 87.275875 
L 185.097715 88.191531 
L 185.685474 88.93181 
L 186.307619 89.484557 
L 186.953935 89.840695 
L 187.613808 89.994377 
L 188.276404 89.94308 
L 188.930844 89.687645 
L 189.56638 89.232266 
L 190.172578 88.584422 
L 190.739483 87.75475 
L 191.257788 86.756873 
L 191.718982 85.607176 
L 192.115491 84.324536 
L 192.440806 82.930016 
L 192.689584 81.446513 
L 192.857741 79.898385 
L 192.942515 78.311054 
L 192.942515 76.710583 
L 192.857741 75.123252 
L 192.689584 73.575125 
L 192.440806 72.091621 
L 192.115491 70.697101 
L 191.718982 69.414462 
L 191.257788 68.264764 
L 190.739483 67.266887 
L 190.172578 66.437215 
L 189.56638 65.789371 
L 188.930844 65.333993 
L 188.276404 65.078558 
L 187.613808 65.02726 
L 186.953935 65.180942 
L 186.307619 65.53708 
L 185.685474 66.089827 
L 185.097715 66.830106 
L 184.553992 67.745762 
L 184.063235 68.82176 
L 183.6335 70.040433 
L 183.271845 71.381768 
L 182.984208 72.823743 
L 182.775311 74.342679 
L 182.648585 75.913636 
L 182.60611 77.510819 
" style="fill:none;stroke:#2ca02c;stroke-linecap:square;stroke-width:1.5;"/>
   </g>
  </g>
  <g id="axes_18">
   <g id="line2d_35">
    <path clip-path="url(#p1340ee86eb)" d="M 206.706301 77.510819 
L 233.744406 77.510819 
" style="fill:none;stroke:#000000;stroke-linecap:square;stroke-width:0.3;"/>
   </g>
   <g id="line2d_36">
    <path clip-path="url(#p1340ee86eb)" d="M 210.66594 77.510819 
L 210.744422 78.733249 
L 210.978582 79.935608 
L 211.364573 81.098151 
L 211.896057 82.201791 
L 212.564309 83.228405 
L 213.358355 84.161136 
L 214.265156 84.984669 
L 215.269824 85.685482 
L 216.355862 86.252067 
L 217.505436 86.675121 
L 218.699672 86.947698 
L 219.918959 87.065321 
L 221.143277 87.026059 
L 222.352523 86.830558 
L 223.526841 86.482026 
L 224.646948 85.986188 
L 225.694453 85.351184 
L 226.652155 84.587442 
L 227.50433 83.707502 
L 228.236984 82.725812 
L 228.838087 81.658493 
L 229.29777 80.523068 
L 229.608483 79.338183 
L 229.765126 78.123292 
L 229.765126 76.898345 
L 229.608483 75.683454 
L 229.29777 74.498569 
L 228.838087 73.363145 
L 228.236984 72.295825 
L 227.50433 71.314135 
L 226.652155 70.434195 
L 225.694453 69.670453 
L 224.646948 69.035449 
L 223.526841 68.539611 
L 222.352523 68.191079 
L 221.143277 67.995578 
L 219.918959 67.956317 
L 218.699672 68.07394 
L 217.505436 68.346516 
L 216.355862 68.76957 
L 215.269824 69.336155 
L 214.265156 70.036968 
L 213.358355 70.860501 
L 212.564309 71.793233 
L 211.896057 72.819847 
L 211.364573 73.923486 
L 210.978582 75.08603 
L 210.744422 76.288388 
L 210.66594 77.510819 
" style="fill:none;stroke:#2ca02c;stroke-linecap:square;stroke-width:1.5;"/>
   </g>
  </g>
  <g id="axes_19">
   <g id="line2d_37">
    <path clip-path="url(#pf5ddadab61)" d="M 239.152026 77.510819 
L 266.190131 77.510819 
" style="fill:none;stroke:#000000;stroke-linecap:square;stroke-width:0.3;"/>
   </g>
   <g id="line2d_38">
    <path clip-path="url(#pf5ddadab61)" d="M 240.181103 77.510819 
L 240.283646 78.172393 
L 240.589589 78.823105 
L 241.093911 79.452269 
L 241.788329 80.049554 
L 242.661442 80.605154 
L 243.698913 81.109944 
L 244.883706 81.555637 
L 246.196368 81.934915 
L 247.615345 82.241548 
L 249.117336 82.470503 
L 250.67768 82.618021 
L 252.270755 82.681678 
L 253.870404 82.66043 
L 255.45036 82.554625 
L 256.98468 82.366001 
L 258.448171 82.097655 
L 259.816802 81.753994 
L 261.068101 81.34066 
L 262.18152 80.864439 
L 263.138779 80.333153 
L 263.924158 79.755524 
L 264.524762 79.141036 
L 264.930729 78.499781 
L 265.135393 77.842287 
L 265.135393 77.17935 
L 264.930729 76.521856 
L 264.524762 75.880601 
L 263.924158 75.266114 
L 263.138779 74.688484 
L 262.18152 74.157198 
L 261.068101 73.680978 
L 259.816802 73.267643 
L 258.448171 72.923982 
L 256.98468 72.655636 
L 255.45036 72.467012 
L 253.870404 72.361208 
L 252.270755 72.339959 
L 250.67768 72.403617 
L 249.117336 72.551134 
L 247.615345 72.780089 
L 246.196368 73.086723 
L 244.883706 73.466 
L 243.698913 73.911693 
L 242.661442 74.416483 
L 241.788329 74.972083 
L 241.093911 75.569368 
L 240.589589 76.198532 
L 240.283646 76.849244 
L 240.181103 77.510819 
" style="fill:none;stroke:#2ca02c;stroke-linecap:square;stroke-width:1.5;"/>
   </g>
  </g>
  <g id="axes_20">
   <g id="line2d_39">
    <path clip-path="url(#p35da1d283b)" d="M 271.597752 77.510819 
L 298.635857 77.510819 
" style="fill:none;stroke:#000000;stroke-linecap:square;stroke-width:0.3;"/>
   </g>
   <g id="line2d_40">
    <path clip-path="url(#p35da1d283b)" d="M 271.597752 77.510819 
L 271.708743 77.510819 
L 272.039894 77.510819 
L 272.585768 77.510819 
L 273.337401 77.510819 
L 274.282452 77.510819 
L 275.405402 77.510819 
L 276.687813 77.510819 
L 278.108628 77.510819 
L 279.644517 77.510819 
L 281.270261 77.510819 
L 282.959165 77.510819 
L 284.683497 77.510819 
L 286.414945 77.510819 
L 288.125076 77.510819 
L 289.785813 77.510819 
L 291.369884 77.510819 
L 292.851279 77.510819 
L 294.205675 77.510819 
L 295.410832 77.510819 
L 296.446961 77.510819 
L 297.29705 77.510819 
L 297.947139 77.510819 
L 298.386554 77.510819 
L 298.60808 77.510819 
L 298.60808 77.510819 
L 298.386554 77.510819 
L 297.947139 77.510819 
L 297.29705 77.510819 
L 296.446961 77.510819 
L 295.410832 77.510819 
L 294.205675 77.510819 
L 292.851279 77.510819 
L 291.369884 77.510819 
L 289.785813 77.510819 
L 288.125076 77.510819 
L 286.414945 77.510819 
L 284.683497 77.510819 
L 282.959165 77.510819 
L 281.270261 77.510819 
L 279.644517 77.510819 
L 278.108628 77.510819 
L 276.687813 77.510819 
L 275.405402 77.510819 
L 274.282452 77.510819 
L 273.337401 77.510819 
L 272.585768 77.510819 
L 272.039894 77.510819 
L 271.708743 77.510819 
L 271.597752 77.510819 
" style="fill:none;stroke:#1f77b4;stroke-linecap:square;stroke-width:1.5;"/>
   </g>
  </g>
  <g id="axes_21">
   <g id="line2d_41">
    <path clip-path="url(#pdadf1cef85)" d="M 304.043478 77.510819 
L 331.081582 77.510819 
" style="fill:none;stroke:#000000;stroke-linecap:square;stroke-width:0.3;"/>
   </g>
   <g id="line2d_42">
    <path clip-path="url(#pdadf1cef85)" d="M 327.121943 87.070232 
L 327.043461 86.99175 
L 326.809301 86.75759 
L 326.42331 86.371599 
L 325.891826 85.840114 
L 325.223574 85.171863 
L 324.429528 84.377817 
L 323.522727 83.471015 
L 322.518059 82.466348 
L 321.432021 81.38031 
L 320.282447 80.230735 
L 319.088211 79.0365 
L 317.868924 77.817213 
L 316.644606 76.592895 
L 315.43536 75.383649 
L 314.261042 74.209331 
L 313.140935 73.089224 
L 312.09343 72.041719 
L 311.135728 71.084016 
L 310.283553 70.231842 
L 309.550899 69.499188 
L 308.949796 68.898085 
L 308.490113 68.438402 
L 308.1794 68.127689 
L 308.022757 67.971046 
L 308.022757 67.971046 
L 308.1794 68.127689 
L 308.490113 68.438402 
L 308.949796 68.898085 
L 309.550899 69.499188 
L 310.283553 70.231842 
L 311.135728 71.084016 
L 312.09343 72.041719 
L 313.140935 73.089224 
L 314.261042 74.209331 
L 315.43536 75.383649 
L 316.644606 76.592895 
L 317.868924 77.817213 
L 319.088211 79.0365 
L 320.282447 80.230735 
L 321.432021 81.38031 
L 322.518059 82.466348 
L 323.522727 83.471015 
L 324.429528 84.377817 
L 325.223574 85.171863 
L 325.891826 85.840114 
L 326.42331 86.371599 
L 326.809301 86.75759 
L 327.043461 86.99175 
L 327.121943 87.070232 
" style="fill:none;stroke:#1f77b4;stroke-linecap:square;stroke-width:1.5;"/>
   </g>
  </g>
  <g id="axes_22">
   <g id="line2d_43">
    <path clip-path="url(#p404a4f0838)" d="M 336.489203 77.510819 
L 363.527308 77.510819 
" style="fill:none;stroke:#000000;stroke-linecap:square;stroke-width:0.3;"/>
   </g>
   <g id="line2d_44">
    <path clip-path="url(#p404a4f0838)" d="M 359.567669 67.951405 
L 359.489186 68.029888 
L 359.255027 68.264047 
L 358.869036 68.650038 
L 358.337551 69.181523 
L 357.6693 69.849774 
L 356.875254 70.64382 
L 355.968452 71.550622 
L 354.963784 72.55529 
L 353.877747 73.641327 
L 352.728172 74.790902 
L 351.533937 75.985137 
L 350.31465 77.204424 
L 349.090332 78.428742 
L 347.881086 79.637988 
L 346.706768 80.812306 
L 345.586661 81.932413 
L 344.539156 82.979918 
L 343.581453 83.937621 
L 342.729279 84.789795 
L 341.996625 85.522449 
L 341.395521 86.123553 
L 340.935839 86.583235 
L 340.625125 86.893949 
L 340.468483 87.050591 
L 340.468483 87.050591 
L 340.625125 86.893949 
L 340.935839 86.583235 
L 341.395521 86.123553 
L 341.996625 85.522449 
L 342.729279 84.789795 
L 343.581453 83.937621 
L 344.539156 82.979918 
L 345.586661 81.932413 
L 346.706768 80.812306 
L 347.881086 79.637988 
L 349.090332 78.428742 
L 350.31465 77.204424 
L 351.533937 75.985137 
L 352.728172 74.790902 
L 353.877747 73.641327 
L 354.963784 72.55529 
L 355.968452 71.550622 
L 356.875254 70.64382 
L 357.6693 69.849774 
L 358.337551 69.181523 
L 358.869036 68.650038 
L 359.255027 68.264047 
L 359.489186 68.029888 
L 359.567669 67.951405 
" style="fill:none;stroke:#1f77b4;stroke-linecap:square;stroke-width:1.5;"/>
   </g>
  </g>
  <g id="axes_23">
   <g id="line2d_45">
    <path clip-path="url(#p7d822538c9)" d="M 12.031948 122.83171 
L 39.070052 122.83171 
" style="fill:none;stroke:#000000;stroke-linecap:square;stroke-width:0.3;"/>
   </g>
   <g id="line2d_46">
    <path clip-path="url(#p7d822538c9)" d="M 39.070052 122.83171 
L 38.959061 122.83171 
L 38.62791 122.83171 
L 38.082036 122.83171 
L 37.330403 122.83171 
L 36.385353 122.83171 
L 35.262402 122.83171 
L 33.979991 122.83171 
L 32.559176 122.83171 
L 31.023287 122.83171 
L 29.397543 122.83171 
L 27.708639 122.83171 
L 25.984307 122.83171 
L 24.25286 122.83171 
L 22.542728 122.83171 
L 20.881992 122.83171 
L 19.297921 122.83171 
L 17.816525 122.83171 
L 16.462129 122.83171 
L 15.256972 122.83171 
L 14.220843 122.83171 
L 13.370755 122.83171 
L 12.720666 122.83171 
L 12.28125 122.83171 
L 12.059724 122.83171 
L 12.059724 122.83171 
L 12.28125 122.83171 
L 12.720666 122.83171 
L 13.370755 122.83171 
L 14.220843 122.83171 
L 15.256972 122.83171 
L 16.462129 122.83171 
L 17.816525 122.83171 
L 19.297921 122.83171 
L 20.881992 122.83171 
L 22.542728 122.83171 
L 24.25286 122.83171 
L 25.984307 122.83171 
L 27.708639 122.83171 
L 29.397543 122.83171 
L 31.023287 122.83171 
L 32.559176 122.83171 
L 33.979991 122.83171 
L 35.262402 122.83171 
L 36.385353 122.83171 
L 37.330403 122.83171 
L 38.082036 122.83171 
L 38.62791 122.83171 
L 38.959061 122.83171 
L 39.070052 122.83171 
" style="fill:none;stroke:#1f77b4;stroke-linecap:square;stroke-width:1.5;"/>
   </g>
   <g id="text_3">
    <!-- After HWP -->
    <defs>
     <path d="M 9.8125 72.90625 
L 19.671875 72.90625 
L 19.671875 43.015625 
L 55.515625 43.015625 
L 55.515625 72.90625 
L 65.375 72.90625 
L 65.375 0 
L 55.515625 0 
L 55.515625 34.71875 
L 19.671875 34.71875 
L 19.671875 0 
L 9.8125 0 
z
" id="DejaVuSans-72"/>
    </defs>
    <g transform="translate(7.326563 103.312658)scale(0.072 -0.072)">
     <use xlink:href="#DejaVuSans-65"/>
     <use x="64.783203" xlink:href="#DejaVuSans-102"/>
     <use x="98.238281" xlink:href="#DejaVuSans-116"/>
     <use x="137.447266" xlink:href="#DejaVuSans-101"/>
     <use x="198.970703" xlink:href="#DejaVuSans-114"/>
     <use x="240.083984" xlink:href="#DejaVuSans-32"/>
     <use x="271.871094" xlink:href="#DejaVuSans-72"/>
     <use x="347.066406" xlink:href="#DejaVuSans-87"/>
     <use x="445.943359" xlink:href="#DejaVuSans-80"/>
    </g>
   </g>
  </g>
  <g id="axes_24">
   <g id="line2d_47">
    <path clip-path="url(#peac5eff76d)" d="M 44.477673 122.83171 
L 71.515778 122.83171 
" style="fill:none;stroke:#000000;stroke-linecap:square;stroke-width:0.3;"/>
   </g>
   <g id="line2d_48">
    <path clip-path="url(#peac5eff76d)" d="M 70.486701 128.005227 
L 70.384159 127.962753 
L 70.078215 127.836027 
L 69.573893 127.62713 
L 68.879475 127.339492 
L 68.006362 126.977837 
L 66.968891 126.548103 
L 65.784098 126.057345 
L 64.471436 125.513623 
L 63.05246 124.925864 
L 61.550468 124.303718 
L 59.990124 123.657403 
L 58.397049 122.997529 
L 56.7974 122.334933 
L 55.217444 121.680494 
L 53.683124 121.044958 
L 52.219634 120.43876 
L 50.851002 119.871854 
L 49.599704 119.35355 
L 48.486284 118.892356 
L 47.529025 118.495847 
L 46.743646 118.170532 
L 46.143042 117.921754 
L 45.737075 117.753597 
L 45.532412 117.668822 
L 45.532412 117.668822 
L 45.737075 117.753597 
L 46.143042 117.921754 
L 46.743646 118.170532 
L 47.529025 118.495847 
L 48.486284 118.892356 
L 49.599704 119.35355 
L 50.851002 119.871854 
L 52.219634 120.43876 
L 53.683124 121.044958 
L 55.217444 121.680494 
L 56.7974 122.334933 
L 58.397049 122.997529 
L 59.990124 123.657403 
L 61.550468 124.303718 
L 63.05246 124.925864 
L 64.471436 125.513623 
L 65.784098 126.057345 
L 66.968891 126.548103 
L 68.006362 126.977837 
L 68.879475 127.339492 
L 69.573893 127.62713 
L 70.078215 127.836027 
L 70.384159 127.962753 
L 70.486701 128.005227 
" style="fill:none;stroke:#1f77b4;stroke-linecap:square;stroke-width:1.5;"/>
   </g>
  </g>
  <g id="axes_25">
   <g id="line2d_49">
    <path clip-path="url(#p51d179c4ff)" d="M 76.923399 122.83171 
L 103.961503 122.83171 
" style="fill:none;stroke:#000000;stroke-linecap:square;stroke-width:0.3;"/>
   </g>
   <g id="line2d_50">
    <path clip-path="url(#p51d179c4ff)" d="M 100.001865 132.391123 
L 99.923382 132.312641 
L 99.689223 132.078482 
L 99.303232 131.692491 
L 98.771747 131.161006 
L 98.103495 130.492754 
L 97.30945 129.698708 
L 96.402648 128.791907 
L 95.39798 127.787239 
L 94.311942 126.701201 
L 93.162368 125.551627 
L 91.968132 124.357391 
L 90.748845 123.138104 
L 89.524527 121.913786 
L 88.315281 120.70454 
L 87.140964 119.530223 
L 86.020856 118.410115 
L 84.973351 117.36261 
L 84.015649 116.404908 
L 83.163474 115.552733 
L 82.43082 114.820079 
L 81.829717 114.218976 
L 81.370035 113.759294 
L 81.059321 113.44858 
L 80.902678 113.291937 
L 80.902678 113.291937 
L 81.059321 113.44858 
L 81.370035 113.759294 
L 81.829717 114.218976 
L 82.43082 114.820079 
L 83.163474 115.552733 
L 84.015649 116.404908 
L 84.973351 117.36261 
L 86.020856 118.410115 
L 87.140964 119.530223 
L 88.315281 120.70454 
L 89.524527 121.913786 
L 90.748845 123.138104 
L 91.968132 124.357391 
L 93.162368 125.551627 
L 94.311942 126.701201 
L 95.39798 127.787239 
L 96.402648 128.791907 
L 97.30945 129.698708 
L 98.103495 130.492754 
L 98.771747 131.161006 
L 99.303232 131.692491 
L 99.689223 132.078482 
L 99.923382 132.312641 
L 100.001865 132.391123 
" style="fill:none;stroke:#1f77b4;stroke-linecap:square;stroke-width:1.5;"/>
   </g>
  </g>
  <g id="axes_26">
   <g id="line2d_51">
    <path clip-path="url(#p0259a4d13e)" d="M 109.369124 122.83171 
L 136.407229 122.83171 
" style="fill:none;stroke:#000000;stroke-linecap:square;stroke-width:0.3;"/>
   </g>
   <g id="line2d_52">
    <path clip-path="url(#p0259a4d13e)" d="M 128.061694 135.321686 
L 128.019219 135.219143 
L 127.892493 134.913199 
L 127.683597 134.408878 
L 127.395959 133.714459 
L 127.034304 132.841347 
L 126.604569 131.803876 
L 126.113812 130.619082 
L 125.57009 129.30642 
L 124.98233 127.887444 
L 124.360185 126.385453 
L 123.713869 124.825109 
L 123.053996 123.232033 
L 122.3914 121.632385 
L 121.736961 120.052429 
L 121.101425 118.518109 
L 120.495227 117.054618 
L 119.928321 115.685987 
L 119.410016 114.434688 
L 118.948823 113.321268 
L 118.552313 112.36401 
L 118.226999 111.578631 
L 117.97822 110.978027 
L 117.810063 110.57206 
L 117.725289 110.367396 
L 117.725289 110.367396 
L 117.810063 110.57206 
L 117.97822 110.978027 
L 118.226999 111.578631 
L 118.552313 112.36401 
L 118.948823 113.321268 
L 119.410016 114.434688 
L 119.928321 115.685987 
L 120.495227 117.054618 
L 121.101425 118.518109 
L 121.736961 120.052429 
L 122.3914 121.632385 
L 123.053996 123.232033 
L 123.713869 124.825109 
L 124.360185 126.385453 
L 124.98233 127.887444 
L 125.57009 129.30642 
L 126.113812 130.619082 
L 126.604569 131.803876 
L 127.034304 132.841347 
L 127.395959 133.714459 
L 127.683597 134.408878 
L 127.892493 134.913199 
L 128.019219 135.219143 
L 128.061694 135.321686 
" style="fill:none;stroke:#1f77b4;stroke-linecap:square;stroke-width:1.5;"/>
   </g>
  </g>
  <g id="axes_27">
   <g id="line2d_53">
    <path clip-path="url(#p1d5b838ea5)" d="M 141.81485 122.83171 
L 168.852954 122.83171 
" style="fill:none;stroke:#000000;stroke-linecap:square;stroke-width:0.3;"/>
   </g>
   <g id="line2d_54">
    <path clip-path="url(#p1d5b838ea5)" d="M 155.333902 136.350762 
L 155.333902 136.239771 
L 155.333902 135.90862 
L 155.333902 135.362746 
L 155.333902 134.611113 
L 155.333902 133.666063 
L 155.333902 132.543112 
L 155.333902 131.260701 
L 155.333902 129.839886 
L 155.333902 128.303997 
L 155.333902 126.678253 
L 155.333902 124.989349 
L 155.333902 123.265017 
L 155.333902 121.53357 
L 155.333902 119.823438 
L 155.333902 118.162702 
L 155.333902 116.578631 
L 155.333902 115.097235 
L 155.333902 113.742839 
L 155.333902 112.537682 
L 155.333902 111.501553 
L 155.333902 110.651465 
L 155.333902 110.001376 
L 155.333902 109.56196 
L 155.333902 109.340434 
L 155.333902 109.340434 
L 155.333902 109.56196 
L 155.333902 110.001376 
L 155.333902 110.651465 
L 155.333902 111.501553 
L 155.333902 112.537682 
L 155.333902 113.742839 
L 155.333902 115.097235 
L 155.333902 116.578631 
L 155.333902 118.162702 
L 155.333902 119.823438 
L 155.333902 121.53357 
L 155.333902 123.265017 
L 155.333902 124.989349 
L 155.333902 126.678253 
L 155.333902 128.303997 
L 155.333902 129.839886 
L 155.333902 131.260701 
L 155.333902 132.543112 
L 155.333902 133.666063 
L 155.333902 134.611113 
L 155.333902 135.362746 
L 155.333902 135.90862 
L 155.333902 136.239771 
L 155.333902 136.350762 
" style="fill:none;stroke:#1f77b4;stroke-linecap:square;stroke-width:1.5;"/>
   </g>
  </g>
  <g id="axes_28">
   <g id="line2d_55">
    <path clip-path="url(#pb9f8ed7c52)" d="M 174.260575 122.83171 
L 201.29868 122.83171 
" style="fill:none;stroke:#000000;stroke-linecap:square;stroke-width:0.3;"/>
   </g>
   <g id="line2d_56">
    <path clip-path="url(#pb9f8ed7c52)" d="M 182.60611 135.321686 
L 182.648585 135.219143 
L 182.775311 134.913199 
L 182.984208 134.408878 
L 183.271845 133.714459 
L 183.6335 132.841347 
L 184.063235 131.803876 
L 184.553992 130.619082 
L 185.097715 129.30642 
L 185.685474 127.887444 
L 186.307619 126.385453 
L 186.953935 124.825109 
L 187.613808 123.232033 
L 188.276404 121.632385 
L 188.930844 120.052429 
L 189.56638 118.518109 
L 190.172578 117.054618 
L 190.739483 115.685987 
L 191.257788 114.434688 
L 191.718982 113.321268 
L 192.115491 112.36401 
L 192.440806 111.578631 
L 192.689584 110.978027 
L 192.857741 110.57206 
L 192.942515 110.367396 
L 192.942515 110.367396 
L 192.857741 110.57206 
L 192.689584 110.978027 
L 192.440806 111.578631 
L 192.115491 112.36401 
L 191.718982 113.321268 
L 191.257788 114.434688 
L 190.739483 115.685987 
L 190.172578 117.054618 
L 189.56638 118.518109 
L 188.930844 120.052429 
L 188.276404 121.632385 
L 187.613808 123.232033 
L 186.953935 124.825109 
L 186.307619 126.385453 
L 185.685474 127.887444 
L 185.097715 129.30642 
L 184.553992 130.619082 
L 184.063235 131.803876 
L 183.6335 132.841347 
L 183.271845 133.714459 
L 182.984208 134.408878 
L 182.775311 134.913199 
L 182.648585 135.219143 
L 182.60611 135.321686 
" style="fill:none;stroke:#1f77b4;stroke-linecap:square;stroke-width:1.5;"/>
   </g>
  </g>
  <g id="axes_29">
   <g id="line2d_57">
    <path clip-path="url(#p37c72cf1a2)" d="M 206.706301 122.83171 
L 233.744406 122.83171 
" style="fill:none;stroke:#000000;stroke-linecap:square;stroke-width:0.3;"/>
   </g>
   <g id="line2d_58">
    <path clip-path="url(#p37c72cf1a2)" d="M 210.66594 132.391123 
L 210.744422 132.312641 
L 210.978582 132.078482 
L 211.364573 131.692491 
L 211.896057 131.161006 
L 212.564309 130.492754 
L 213.358355 129.698708 
L 214.265156 128.791907 
L 215.269824 127.787239 
L 216.355862 126.701201 
L 217.505436 125.551627 
L 218.699672 124.357391 
L 219.918959 123.138104 
L 221.143277 121.913786 
L 222.352523 120.70454 
L 223.526841 119.530223 
L 224.646948 118.410115 
L 225.694453 117.36261 
L 226.652155 116.404908 
L 227.50433 115.552733 
L 228.236984 114.820079 
L 228.838087 114.218976 
L 229.29777 113.759294 
L 229.608483 113.44858 
L 229.765126 113.291937 
L 229.765126 113.291937 
L 229.608483 113.44858 
L 229.29777 113.759294 
L 228.838087 114.218976 
L 228.236984 114.820079 
L 227.50433 115.552733 
L 226.652155 116.404908 
L 225.694453 117.36261 
L 224.646948 118.410115 
L 223.526841 119.530223 
L 222.352523 120.70454 
L 221.143277 121.913786 
L 219.918959 123.138104 
L 218.699672 124.357391 
L 217.505436 125.551627 
L 216.355862 126.701201 
L 215.269824 127.787239 
L 214.265156 128.791907 
L 213.358355 129.698708 
L 212.564309 130.492754 
L 211.896057 131.161006 
L 211.364573 131.692491 
L 210.978582 132.078482 
L 210.744422 132.312641 
L 210.66594 132.391123 
" style="fill:none;stroke:#1f77b4;stroke-linecap:square;stroke-width:1.5;"/>
   </g>
  </g>
  <g id="axes_30">
   <g id="line2d_59">
    <path clip-path="url(#p4b7a06cc41)" d="M 239.152026 122.83171 
L 266.190131 122.83171 
" style="fill:none;stroke:#000000;stroke-linecap:square;stroke-width:0.3;"/>
   </g>
   <g id="line2d_60">
    <path clip-path="url(#p4b7a06cc41)" d="M 240.181103 128.005227 
L 240.283646 127.962753 
L 240.589589 127.836027 
L 241.093911 127.62713 
L 241.788329 127.339492 
L 242.661442 126.977837 
L 243.698913 126.548103 
L 244.883706 126.057345 
L 246.196368 125.513623 
L 247.615345 124.925864 
L 249.117336 124.303718 
L 250.67768 123.657403 
L 252.270755 122.997529 
L 253.870404 122.334933 
L 255.45036 121.680494 
L 256.98468 121.044958 
L 258.448171 120.43876 
L 259.816802 119.871854 
L 261.068101 119.35355 
L 262.18152 118.892356 
L 263.138779 118.495847 
L 263.924158 118.170532 
L 264.524762 117.921754 
L 264.930729 117.753597 
L 265.135393 117.668822 
L 265.135393 117.668822 
L 264.930729 117.753597 
L 264.524762 117.921754 
L 263.924158 118.170532 
L 263.138779 118.495847 
L 262.18152 118.892356 
L 261.068101 119.35355 
L 259.816802 119.871854 
L 258.448171 120.43876 
L 256.98468 121.044958 
L 255.45036 121.680494 
L 253.870404 122.334933 
L 252.270755 122.997529 
L 250.67768 123.657403 
L 249.117336 124.303718 
L 247.615345 124.925864 
L 246.196368 125.513623 
L 244.883706 126.057345 
L 243.698913 126.548103 
L 242.661442 126.977837 
L 241.788329 127.339492 
L 241.093911 127.62713 
L 240.589589 127.836027 
L 240.283646 127.962753 
L 240.181103 128.005227 
" style="fill:none;stroke:#1f77b4;stroke-linecap:square;stroke-width:1.5;"/>
   </g>
  </g>
  <g id="axes_31">
   <g id="line2d_61">
    <path clip-path="url(#paaac40b4ef)" d="M 271.597752 122.83171 
L 298.635857 122.83171 
" style="fill:none;stroke:#000000;stroke-linecap:square;stroke-width:0.3;"/>
   </g>
   <g id="line2d_62">
    <path clip-path="url(#paaac40b4ef)" d="M 271.597752 122.83171 
L 271.708743 122.83171 
L 272.039894 122.83171 
L 272.585768 122.83171 
L 273.337401 122.83171 
L 274.282452 122.83171 
L 275.405402 122.83171 
L 276.687813 122.83171 
L 278.108628 122.83171 
L 279.644517 122.83171 
L 281.270261 122.83171 
L 282.959165 122.83171 
L 284.683497 122.83171 
L 286.414945 122.83171 
L 288.125076 122.83171 
L 289.785813 122.83171 
L 291.369884 122.83171 
L 292.851279 122.83171 
L 294.205675 122.83171 
L 295.410832 122.83171 
L 296.446961 122.83171 
L 297.29705 122.83171 
L 297.947139 122.83171 
L 298.386554 122.83171 
L 298.60808 122.83171 
L 298.60808 122.83171 
L 298.386554 122.83171 
L 297.947139 122.83171 
L 297.29705 122.83171 
L 296.446961 122.83171 
L 295.410832 122.83171 
L 294.205675 122.83171 
L 292.851279 122.83171 
L 291.369884 122.83171 
L 289.785813 122.83171 
L 288.125076 122.83171 
L 286.414945 122.83171 
L 284.683497 122.83171 
L 282.959165 122.83171 
L 281.270261 122.83171 
L 279.644517 122.83171 
L 278.108628 122.83171 
L 276.687813 122.83171 
L 275.405402 122.83171 
L 274.282452 122.83171 
L 273.337401 122.83171 
L 272.585768 122.83171 
L 272.039894 122.83171 
L 271.708743 122.83171 
L 271.597752 122.83171 
" style="fill:none;stroke:#1f77b4;stroke-linecap:square;stroke-width:1.5;"/>
   </g>
  </g>
  <g id="axes_32">
   <g id="line2d_63">
    <path clip-path="url(#pdfd7f249d0)" d="M 304.043478 122.83171 
L 331.081582 122.83171 
" style="fill:none;stroke:#000000;stroke-linecap:square;stroke-width:0.3;"/>
   </g>
   <g id="line2d_64">
    <path clip-path="url(#pdfd7f249d0)" d="M 327.121943 122.83171 
L 327.043461 121.609279 
L 326.809301 120.406921 
L 326.42331 119.244377 
L 325.891826 118.140738 
L 325.223574 117.114124 
L 324.429528 116.181393 
L 323.522727 115.357859 
L 322.518059 114.657047 
L 321.432021 114.090461 
L 320.282447 113.667407 
L 319.088211 113.394831 
L 317.868924 113.277208 
L 316.644606 113.316469 
L 315.43536 113.511971 
L 314.261042 113.860502 
L 313.140935 114.35634 
L 312.09343 114.991344 
L 311.135728 115.755086 
L 310.283553 116.635027 
L 309.550899 117.616716 
L 308.949796 118.684036 
L 308.490113 119.81946 
L 308.1794 121.004346 
L 308.022757 122.219236 
L 308.022757 123.444184 
L 308.1794 124.659074 
L 308.490113 125.84396 
L 308.949796 126.979384 
L 309.550899 128.046704 
L 310.283553 129.028393 
L 311.135728 129.908333 
L 312.09343 130.672076 
L 313.140935 131.307079 
L 314.261042 131.802918 
L 315.43536 132.151449 
L 316.644606 132.34695 
L 317.868924 132.386212 
L 319.088211 132.268589 
L 320.282447 131.996012 
L 321.432021 131.572958 
L 322.518059 131.006373 
L 323.522727 130.30556 
L 324.429528 129.482027 
L 325.223574 128.549296 
L 325.891826 127.522682 
L 326.42331 126.419042 
L 326.809301 125.256499 
L 327.043461 124.054141 
L 327.121943 122.83171 
" style="fill:none;stroke:#2ca02c;stroke-linecap:square;stroke-width:1.5;"/>
   </g>
  </g>
  <g id="axes_33">
   <g id="line2d_65">
    <path clip-path="url(#p35efcb68c4)" d="M 336.489203 122.83171 
L 363.527308 122.83171 
" style="fill:none;stroke:#000000;stroke-linecap:square;stroke-width:0.3;"/>
   </g>
   <g id="line2d_66">
    <path clip-path="url(#p35efcb68c4)" d="M 359.567669 122.83171 
L 359.489186 124.054141 
L 359.255027 125.256499 
L 358.869036 126.419042 
L 358.337551 127.522682 
L 357.6693 128.549296 
L 356.875254 129.482027 
L 355.968452 130.30556 
L 354.963784 131.006373 
L 353.877747 131.572958 
L 352.728172 131.996012 
L 351.533937 132.268589 
L 350.31465 132.386212 
L 349.090332 132.34695 
L 347.881086 132.151449 
L 346.706768 131.802918 
L 345.586661 131.307079 
L 344.539156 130.672076 
L 343.581453 129.908333 
L 342.729279 129.028393 
L 341.996625 128.046704 
L 341.395521 126.979384 
L 340.935839 125.84396 
L 340.625125 124.659074 
L 340.468483 123.444184 
L 340.468483 122.219236 
L 340.625125 121.004346 
L 340.935839 119.81946 
L 341.395521 118.684036 
L 341.996625 117.616716 
L 342.729279 116.635027 
L 343.581453 115.755086 
L 344.539156 114.991344 
L 345.586661 114.35634 
L 346.706768 113.860502 
L 347.881086 113.511971 
L 349.090332 113.316469 
L 350.31465 113.277208 
L 351.533937 113.394831 
L 352.728172 113.667407 
L 353.877747 114.090461 
L 354.963784 114.657047 
L 355.968452 115.357859 
L 356.875254 116.181393 
L 357.6693 117.114124 
L 358.337551 118.140738 
L 358.869036 119.244377 
L 359.255027 120.406921 
L 359.489186 121.609279 
L 359.567669 122.83171 
" style="fill:none;stroke:#ff7f0e;stroke-linecap:square;stroke-width:1.5;"/>
   </g>
  </g>
 </g>
 <defs>
  <clipPath id="p68a144c862">
   <rect height="27.038105" width="27.038105" x="12.031948" y="18.670875"/>
  </clipPath>
  <clipPath id="p34f86addc7">
   <rect height="27.038105" width="27.038105" x="44.477673" y="18.670875"/>
  </clipPath>
  <clipPath id="pb37217a583">
   <rect height="27.038105" width="27.038105" x="76.923399" y="18.670875"/>
  </clipPath>
  <clipPath id="p33b31d56ab">
   <rect height="27.038105" width="27.038105" x="109.369124" y="18.670875"/>
  </clipPath>
  <clipPath id="p4943e734f2">
   <rect height="27.038105" width="27.038105" x="141.81485" y="18.670875"/>
  </clipPath>
  <clipPath id="p532d2e7a27">
   <rect height="27.038105" width="27.038105" x="174.260575" y="18.670875"/>
  </clipPath>
  <clipPath id="p1f11019c90">
   <rect height="27.038105" width="27.038105" x="206.706301" y="18.670875"/>
  </clipPath>
  <clipPath id="p295e431aa2">
   <rect height="27.038105" width="27.038105" x="239.152026" y="18.670875"/>
  </clipPath>
  <clipPath id="p0b5d9b2bb6">
   <rect height="27.038105" width="27.038105" x="271.597752" y="18.670875"/>
  </clipPath>
  <clipPath id="p0a2b7a1ba7">
   <rect height="27.038105" width="27.038105" x="304.043478" y="18.670875"/>
  </clipPath>
  <clipPath id="pa0d1aa147d">
   <rect height="27.038105" width="27.038105" x="336.489203" y="18.670875"/>
  </clipPath>
  <clipPath id="pbcd724a3b2">
   <rect height="27.038105" width="27.038105" x="12.031948" y="63.991766"/>
  </clipPath>
  <clipPath id="p578e057c85">
   <rect height="27.038105" width="27.038105" x="44.477673" y="63.991766"/>
  </clipPath>
  <clipPath id="pcc8f6166c5">
   <rect height="27.038105" width="27.038105" x="76.923399" y="63.991766"/>
  </clipPath>
  <clipPath id="pc1948e7f58">
   <rect height="27.038105" width="27.038105" x="109.369124" y="63.991766"/>
  </clipPath>
  <clipPath id="pab4ff965aa">
   <rect height="27.038105" width="27.038105" x="141.81485" y="63.991766"/>
  </clipPath>
  <clipPath id="p05c219e8fb">
   <rect height="27.038105" width="27.038105" x="174.260575" y="63.991766"/>
  </clipPath>
  <clipPath id="p1340ee86eb">
   <rect height="27.038105" width="27.038105" x="206.706301" y="63.991766"/>
  </clipPath>
  <clipPath id="pf5ddadab61">
   <rect height="27.038105" width="27.038105" x="239.152026" y="63.991766"/>
  </clipPath>
  <clipPath id="p35da1d283b">
   <rect height="27.038105" width="27.038105" x="271.597752" y="63.991766"/>
  </clipPath>
  <clipPath id="pdadf1cef85">
   <rect height="27.038105" width="27.038105" x="304.043478" y="63.991766"/>
  </clipPath>
  <clipPath id="p404a4f0838">
   <rect height="27.038105" width="27.038105" x="336.489203" y="63.991766"/>
  </clipPath>
  <clipPath id="p7d822538c9">
   <rect height="27.038105" width="27.038105" x="12.031948" y="109.312658"/>
  </clipPath>
  <clipPath id="peac5eff76d">
   <rect height="27.038105" width="27.038105" x="44.477673" y="109.312658"/>
  </clipPath>
  <clipPath id="p51d179c4ff">
   <rect height="27.038105" width="27.038105" x="76.923399" y="109.312658"/>
  </clipPath>
  <clipPath id="p0259a4d13e">
   <rect height="27.038105" width="27.038105" x="109.369124" y="109.312658"/>
  </clipPath>
  <clipPath id="p1d5b838ea5">
   <rect height="27.038105" width="27.038105" x="141.81485" y="109.312658"/>
  </clipPath>
  <clipPath id="pb9f8ed7c52">
   <rect height="27.038105" width="27.038105" x="174.260575" y="109.312658"/>
  </clipPath>
  <clipPath id="p37c72cf1a2">
   <rect height="27.038105" width="27.038105" x="206.706301" y="109.312658"/>
  </clipPath>
  <clipPath id="p4b7a06cc41">
   <rect height="27.038105" width="27.038105" x="239.152026" y="109.312658"/>
  </clipPath>
  <clipPath id="paaac40b4ef">
   <rect height="27.038105" width="27.038105" x="271.597752" y="109.312658"/>
  </clipPath>
  <clipPath id="pdfd7f249d0">
   <rect height="27.038105" width="27.038105" x="304.043478" y="109.312658"/>
  </clipPath>
  <clipPath id="p35efcb68c4">
   <rect height="27.038105" width="27.038105" x="336.489203" y="109.312658"/>
  </clipPath>
 </defs>
</svg>
