<?xml version="1.0" encoding="utf-8" standalone="no"?>
<!DOCTYPE svg PUBLIC "-//W3C//DTD SVG 1.1//EN"
  "http://www.w3.org/Graphics/SVG/1.1/DTD/svg11.dtd">
<!-- Created with matplotlib (https://matplotlib.org/) -->
<svg height="114.734659pt" version="1.1" viewBox="0 0 284.120879 114.734659" width="284.120879pt" xmlns="http://www.w3.org/2000/svg" xmlns:xlink="http://www.w3.org/1999/xlink">
 <metadata>
  <rdf:RDF xmlns:cc="http://creativecommons.org/ns#" xmlns:dc="http://purl.org/dc/elements/1.1/" xmlns:rdf="http://www.w3.org/1999/02/22-rdf-syntax-ns#">
   <cc:Work>
    <dc:type rdf:resource="http://purl.org/dc/dcmitype/StillImage"/>
    <dc:date>2021-05-03T11:15:48.746738</dc:date>
    <dc:format>image/svg+xml</dc:format>
    <dc:creator>
     <cc:Agent>
      <dc:title>Matplotlib v3.3.4, https://matplotlib.org/</dc:title>
     </cc:Agent>
    </dc:creator>
   </cc:Work>
  </rdf:RDF>
 </metadata>
 <defs>
  <style type="text/css">*{stroke-linecap:butt;stroke-linejoin:round;}</style>
 </defs>
 <g id="figure_1">
  <g id="patch_1">
   <path d="M 0 114.734659 
L 284.120879 114.734659 
L 284.120879 0 
L 0 0 
z
" style="fill:#ffffff;"/>
  </g>
  <g id="axes_1">
   <g id="line2d_1">
    <path clip-path="url(#p6e551cb0aa)" d="M 15.496205 28.72567 
L 35.605795 28.72567 
" style="fill:none;stroke:#000000;stroke-linecap:square;stroke-width:0.3;"/>
   </g>
   <g id="line2d_2">
    <path clip-path="url(#p6e551cb0aa)" d="M 35.605795 28.72567 
L 35.523245 28.72567 
L 35.276952 28.72567 
L 34.870958 28.72567 
L 34.311931 28.72567 
L 33.60905 28.72567 
L 32.773856 28.72567 
L 31.820062 28.72567 
L 30.763331 28.72567 
L 29.621014 28.72567 
L 28.411867 28.72567 
L 27.155744 28.72567 
L 25.873272 28.72567 
L 24.585508 28.72567 
L 23.313598 28.72567 
L 22.078425 28.72567 
L 20.900272 28.72567 
L 19.798484 28.72567 
L 18.791152 28.72567 
L 17.894817 28.72567 
L 17.124196 28.72567 
L 16.491943 28.72567 
L 16.008439 28.72567 
L 15.681624 28.72567 
L 15.516864 28.72567 
L 15.516864 28.72567 
L 15.681624 28.72567 
L 16.008439 28.72567 
L 16.491943 28.72567 
L 17.124196 28.72567 
L 17.894817 28.72567 
L 18.791152 28.72567 
L 19.798484 28.72567 
L 20.900272 28.72567 
L 22.078425 28.72567 
L 23.313598 28.72567 
L 24.585508 28.72567 
L 25.873272 28.72567 
L 27.155744 28.72567 
L 28.411867 28.72567 
L 29.621014 28.72567 
L 30.763331 28.72567 
L 31.820062 28.72567 
L 32.773856 28.72567 
L 33.60905 28.72567 
L 34.311931 28.72567 
L 34.870958 28.72567 
L 35.276952 28.72567 
L 35.523245 28.72567 
L 35.605795 28.72567 
" style="fill:none;stroke:#1f77b4;stroke-linecap:square;stroke-width:1.5;"/>
   </g>
   <g id="text_1">
    <!-- Initial -->
    <g transform="translate(15.589688 12.670875)scale(0.072 -0.072)">
     <defs>
      <path d="M 9.8125 72.90625 
L 19.671875 72.90625 
L 19.671875 0 
L 9.8125 0 
z
" id="DejaVuSans-73"/>
      <path d="M 54.890625 33.015625 
L 54.890625 0 
L 45.90625 0 
L 45.90625 32.71875 
Q 45.90625 40.484375 42.875 44.328125 
Q 39.84375 48.1875 33.796875 48.1875 
Q 26.515625 48.1875 22.3125 43.546875 
Q 18.109375 38.921875 18.109375 30.90625 
L 18.109375 0 
L 9.078125 0 
L 9.078125 54.6875 
L 18.109375 54.6875 
L 18.109375 46.1875 
Q 21.34375 51.125 25.703125 53.5625 
Q 30.078125 56 35.796875 56 
Q 45.21875 56 50.046875 50.171875 
Q 54.890625 44.34375 54.890625 33.015625 
z
" id="DejaVuSans-110"/>
      <path d="M 9.421875 54.6875 
L 18.40625 54.6875 
L 18.40625 0 
L 9.421875 0 
z
M 9.421875 75.984375 
L 18.40625 75.984375 
L 18.40625 64.59375 
L 9.421875 64.59375 
z
" id="DejaVuSans-105"/>
      <path d="M 18.3125 70.21875 
L 18.3125 54.6875 
L 36.8125 54.6875 
L 36.8125 47.703125 
L 18.3125 47.703125 
L 18.3125 18.015625 
Q 18.3125 11.328125 20.140625 9.421875 
Q 21.96875 7.515625 27.59375 7.515625 
L 36.8125 7.515625 
L 36.8125 0 
L 27.59375 0 
Q 17.1875 0 13.234375 3.875 
Q 9.28125 7.765625 9.28125 18.015625 
L 9.28125 47.703125 
L 2.6875 47.703125 
L 2.6875 54.6875 
L 9.28125 54.6875 
L 9.28125 70.21875 
z
" id="DejaVuSans-116"/>
      <path d="M 34.28125 27.484375 
Q 23.390625 27.484375 19.1875 25 
Q 14.984375 22.515625 14.984375 16.5 
Q 14.984375 11.71875 18.140625 8.90625 
Q 21.296875 6.109375 26.703125 6.109375 
Q 34.1875 6.109375 38.703125 11.40625 
Q 43.21875 16.703125 43.21875 25.484375 
L 43.21875 27.484375 
z
M 52.203125 31.203125 
L 52.203125 0 
L 43.21875 0 
L 43.21875 8.296875 
Q 40.140625 3.328125 35.546875 0.953125 
Q 30.953125 -1.421875 24.3125 -1.421875 
Q 15.921875 -1.421875 10.953125 3.296875 
Q 6 8.015625 6 15.921875 
Q 6 25.140625 12.171875 29.828125 
Q 18.359375 34.515625 30.609375 34.515625 
L 43.21875 34.515625 
L 43.21875 35.40625 
Q 43.21875 41.609375 39.140625 45 
Q 35.0625 48.390625 27.6875 48.390625 
Q 23 48.390625 18.546875 47.265625 
Q 14.109375 46.140625 10.015625 43.890625 
L 10.015625 52.203125 
Q 14.9375 54.109375 19.578125 55.046875 
Q 24.21875 56 28.609375 56 
Q 40.484375 56 46.34375 49.84375 
Q 52.203125 43.703125 52.203125 31.203125 
z
" id="DejaVuSans-97"/>
      <path d="M 9.421875 75.984375 
L 18.40625 75.984375 
L 18.40625 0 
L 9.421875 0 
z
" id="DejaVuSans-108"/>
     </defs>
     <use xlink:href="#DejaVuSans-73"/>
     <use x="29.492188" xlink:href="#DejaVuSans-110"/>
     <use x="92.871094" xlink:href="#DejaVuSans-105"/>
     <use x="120.654297" xlink:href="#DejaVuSans-116"/>
     <use x="159.863281" xlink:href="#DejaVuSans-105"/>
     <use x="187.646484" xlink:href="#DejaVuSans-97"/>
     <use x="248.925781" xlink:href="#DejaVuSans-108"/>
    </g>
   </g>
  </g>
  <g id="axes_2">
   <g id="line2d_3">
    <path clip-path="url(#p055dceba40)" d="M 39.627713 28.72567 
L 59.737304 28.72567 
" style="fill:none;stroke:#000000;stroke-linecap:square;stroke-width:0.3;"/>
   </g>
   <g id="line2d_4">
    <path clip-path="url(#p055dceba40)" d="M 58.971928 24.877867 
L 58.895662 24.909457 
L 58.668116 25.00371 
L 58.293027 25.159077 
L 57.776553 25.373007 
L 57.127176 25.641988 
L 56.355557 25.961603 
L 55.474367 26.326604 
L 54.498074 26.730997 
L 53.442711 27.168143 
L 52.325604 27.630864 
L 51.165099 28.111561 
L 49.980249 28.602342 
L 48.79051 29.095148 
L 47.615418 29.581887 
L 46.474268 30.054567 
L 45.385796 30.505427 
L 44.367877 30.927063 
L 43.437223 31.312552 
L 42.609117 31.655565 
L 41.897156 31.950469 
L 41.313031 32.192421 
L 40.866331 32.37745 
L 40.564394 32.502517 
L 40.412175 32.565568 
L 40.412175 32.565568 
L 40.564394 32.502517 
L 40.866331 32.37745 
L 41.313031 32.192421 
L 41.897156 31.950469 
L 42.609117 31.655565 
L 43.437223 31.312552 
L 44.367877 30.927063 
L 45.385796 30.505427 
L 46.474268 30.054567 
L 47.615418 29.581887 
L 48.79051 29.095148 
L 49.980249 28.602342 
L 51.165099 28.111561 
L 52.325604 27.630864 
L 53.442711 27.168143 
L 54.498074 26.730997 
L 55.474367 26.326604 
L 56.355557 25.961603 
L 57.127176 25.641988 
L 57.776553 25.373007 
L 58.293027 25.159077 
L 58.668116 25.00371 
L 58.895662 24.909457 
L 58.971928 24.877867 
" style="fill:none;stroke:#1f77b4;stroke-linecap:square;stroke-width:1.5;"/>
   </g>
  </g>
  <g id="axes_3">
   <g id="line2d_5">
    <path clip-path="url(#p54ba281d79)" d="M 63.759222 28.72567 
L 83.868812 28.72567 
" style="fill:none;stroke:#000000;stroke-linecap:square;stroke-width:0.3;"/>
   </g>
   <g id="line2d_6">
    <path clip-path="url(#p54ba281d79)" d="M 80.923831 21.615856 
L 80.865459 21.674228 
L 80.691303 21.848384 
L 80.404222 22.135465 
L 80.008931 22.530756 
L 79.511918 23.027768 
L 78.921347 23.61834 
L 78.246913 24.292774 
L 77.499691 25.039995 
L 76.691951 25.847736 
L 75.836955 26.702732 
L 74.948742 27.590945 
L 74.041897 28.497789 
L 73.131311 29.408376 
L 72.231934 30.307753 
L 71.358535 31.181151 
L 70.525456 32.014231 
L 69.746374 32.793313 
L 69.034083 33.505604 
L 68.400278 34.139409 
L 67.855366 34.684321 
L 67.408296 35.131391 
L 67.066407 35.47328 
L 66.835314 35.704373 
L 66.718811 35.820876 
L 66.718811 35.820876 
L 66.835314 35.704373 
L 67.066407 35.47328 
L 67.408296 35.131391 
L 67.855366 34.684321 
L 68.400278 34.139409 
L 69.034083 33.505604 
L 69.746374 32.793313 
L 70.525456 32.014231 
L 71.358535 31.181151 
L 72.231934 30.307753 
L 73.131311 29.408376 
L 74.041897 28.497789 
L 74.948742 27.590945 
L 75.836955 26.702732 
L 76.691951 25.847736 
L 77.499691 25.039995 
L 78.246913 24.292774 
L 78.921347 23.61834 
L 79.511918 23.027768 
L 80.008931 22.530756 
L 80.404222 22.135465 
L 80.691303 21.848384 
L 80.865459 21.674228 
L 80.923831 21.615856 
" style="fill:none;stroke:#1f77b4;stroke-linecap:square;stroke-width:1.5;"/>
   </g>
  </g>
  <g id="axes_4">
   <g id="line2d_7">
    <path clip-path="url(#pbf3daa0e73)" d="M 87.89073 28.72567 
L 108.00032 28.72567 
" style="fill:none;stroke:#000000;stroke-linecap:square;stroke-width:0.3;"/>
   </g>
   <g id="line2d_8">
    <path clip-path="url(#pbf3daa0e73)" d="M 101.793329 19.436251 
L 101.761738 19.512517 
L 101.667486 19.740062 
L 101.512119 20.115152 
L 101.298188 20.631625 
L 101.029207 21.281003 
L 100.709592 22.052622 
L 100.344591 22.933812 
L 99.940198 23.910104 
L 99.503052 24.965468 
L 99.040331 26.082574 
L 98.559634 27.24308 
L 98.068853 28.42793 
L 97.576047 29.617668 
L 97.089308 30.79276 
L 96.616628 31.933911 
L 96.165769 33.022382 
L 95.744133 34.040302 
L 95.358643 34.970955 
L 95.015631 35.799061 
L 94.720727 36.511022 
L 94.478774 37.095148 
L 94.293745 37.541847 
L 94.168678 37.843785 
L 94.105627 37.996003 
L 94.105627 37.996003 
L 94.168678 37.843785 
L 94.293745 37.541847 
L 94.478774 37.095148 
L 94.720727 36.511022 
L 95.015631 35.799061 
L 95.358643 34.970955 
L 95.744133 34.040302 
L 96.165769 33.022382 
L 96.616628 31.933911 
L 97.089308 30.79276 
L 97.576047 29.617668 
L 98.068853 28.42793 
L 98.559634 27.24308 
L 99.040331 26.082574 
L 99.503052 24.965468 
L 99.940198 23.910104 
L 100.344591 22.933812 
L 100.709592 22.052622 
L 101.029207 21.281003 
L 101.298188 20.631625 
L 101.512119 20.115152 
L 101.667486 19.740062 
L 101.761738 19.512517 
L 101.793329 19.436251 
" style="fill:none;stroke:#1f77b4;stroke-linecap:square;stroke-width:1.5;"/>
   </g>
  </g>
  <g id="axes_5">
   <g id="line2d_9">
    <path clip-path="url(#pf91b8a1012)" d="M 112.022238 28.72567 
L 132.131829 28.72567 
" style="fill:none;stroke:#000000;stroke-linecap:square;stroke-width:0.3;"/>
   </g>
   <g id="line2d_10">
    <path clip-path="url(#pf91b8a1012)" d="M 122.077033 18.670875 
L 122.077033 18.753425 
L 122.077033 18.999718 
L 122.077033 19.405712 
L 122.077033 19.964739 
L 122.077033 20.66762 
L 122.077033 21.502815 
L 122.077033 22.456608 
L 122.077033 23.513339 
L 122.077033 24.655657 
L 122.077033 25.864804 
L 122.077033 27.120926 
L 122.077033 28.403398 
L 122.077033 29.691162 
L 122.077033 30.963073 
L 122.077033 32.198245 
L 122.077033 33.376398 
L 122.077033 34.478186 
L 122.077033 35.485518 
L 122.077033 36.381853 
L 122.077033 37.152474 
L 122.077033 37.784728 
L 122.077033 38.268231 
L 122.077033 38.595046 
L 122.077033 38.759807 
L 122.077033 38.759807 
L 122.077033 38.595046 
L 122.077033 38.268231 
L 122.077033 37.784728 
L 122.077033 37.152474 
L 122.077033 36.381853 
L 122.077033 35.485518 
L 122.077033 34.478186 
L 122.077033 33.376398 
L 122.077033 32.198245 
L 122.077033 30.963073 
L 122.077033 29.691162 
L 122.077033 28.403398 
L 122.077033 27.120926 
L 122.077033 25.864804 
L 122.077033 24.655657 
L 122.077033 23.513339 
L 122.077033 22.456608 
L 122.077033 21.502815 
L 122.077033 20.66762 
L 122.077033 19.964739 
L 122.077033 19.405712 
L 122.077033 18.999718 
L 122.077033 18.753425 
L 122.077033 18.670875 
" style="fill:none;stroke:#1f77b4;stroke-linecap:square;stroke-width:1.5;"/>
   </g>
  </g>
  <g id="axes_6">
   <g id="line2d_11">
    <path clip-path="url(#p644b7a4dda)" d="M 136.153747 28.72567 
L 156.263337 28.72567 
" style="fill:none;stroke:#000000;stroke-linecap:square;stroke-width:0.3;"/>
   </g>
   <g id="line2d_12">
    <path clip-path="url(#p644b7a4dda)" d="M 142.360738 19.436251 
L 142.392329 19.512517 
L 142.486581 19.740062 
L 142.641948 20.115152 
L 142.855879 20.631625 
L 143.12486 21.281003 
L 143.444475 22.052622 
L 143.809476 22.933812 
L 144.213869 23.910104 
L 144.651015 24.965468 
L 145.113736 26.082574 
L 145.594433 27.24308 
L 146.085214 28.42793 
L 146.57802 29.617668 
L 147.064759 30.79276 
L 147.537439 31.933911 
L 147.988298 33.022382 
L 148.409934 34.040302 
L 148.795424 34.970955 
L 149.138436 35.799061 
L 149.43334 36.511022 
L 149.675293 37.095148 
L 149.860322 37.541847 
L 149.985389 37.843785 
L 150.04844 37.996003 
L 150.04844 37.996003 
L 149.985389 37.843785 
L 149.860322 37.541847 
L 149.675293 37.095148 
L 149.43334 36.511022 
L 149.138436 35.799061 
L 148.795424 34.970955 
L 148.409934 34.040302 
L 147.988298 33.022382 
L 147.537439 31.933911 
L 147.064759 30.79276 
L 146.57802 29.617668 
L 146.085214 28.42793 
L 145.594433 27.24308 
L 145.113736 26.082574 
L 144.651015 24.965468 
L 144.213869 23.910104 
L 143.809476 22.933812 
L 143.444475 22.052622 
L 143.12486 21.281003 
L 142.855879 20.631625 
L 142.641948 20.115152 
L 142.486581 19.740062 
L 142.392329 19.512517 
L 142.360738 19.436251 
" style="fill:none;stroke:#1f77b4;stroke-linecap:square;stroke-width:1.5;"/>
   </g>
  </g>
  <g id="axes_7">
   <g id="line2d_13">
    <path clip-path="url(#p9cd09b59ea)" d="M 160.285255 28.72567 
L 180.394845 28.72567 
" style="fill:none;stroke:#000000;stroke-linecap:square;stroke-width:0.3;"/>
   </g>
   <g id="line2d_14">
    <path clip-path="url(#p9cd09b59ea)" d="M 163.230236 21.615856 
L 163.288608 21.674228 
L 163.462764 21.848384 
L 163.749845 22.135465 
L 164.145136 22.530756 
L 164.642149 23.027768 
L 165.23272 23.61834 
L 165.907154 24.292774 
L 166.654376 25.039995 
L 167.462116 25.847736 
L 168.317112 26.702732 
L 169.205325 27.590945 
L 170.112169 28.497789 
L 171.022756 29.408376 
L 171.922133 30.307753 
L 172.795531 31.181151 
L 173.628611 32.014231 
L 174.407693 32.793313 
L 175.119984 33.505604 
L 175.753789 34.139409 
L 176.298701 34.684321 
L 176.745771 35.131391 
L 177.08766 35.47328 
L 177.318753 35.704373 
L 177.435256 35.820876 
L 177.435256 35.820876 
L 177.318753 35.704373 
L 177.08766 35.47328 
L 176.745771 35.131391 
L 176.298701 34.684321 
L 175.753789 34.139409 
L 175.119984 33.505604 
L 174.407693 32.793313 
L 173.628611 32.014231 
L 172.795531 31.181151 
L 171.922133 30.307753 
L 171.022756 29.408376 
L 170.112169 28.497789 
L 169.205325 27.590945 
L 168.317112 26.702732 
L 167.462116 25.847736 
L 166.654376 25.039995 
L 165.907154 24.292774 
L 165.23272 23.61834 
L 164.642149 23.027768 
L 164.145136 22.530756 
L 163.749845 22.135465 
L 163.462764 21.848384 
L 163.288608 21.674228 
L 163.230236 21.615856 
" style="fill:none;stroke:#1f77b4;stroke-linecap:square;stroke-width:1.5;"/>
   </g>
  </g>
  <g id="axes_8">
   <g id="line2d_15">
    <path clip-path="url(#p1c6e80c2b3)" d="M 184.416763 28.72567 
L 204.526354 28.72567 
" style="fill:none;stroke:#000000;stroke-linecap:square;stroke-width:0.3;"/>
   </g>
   <g id="line2d_16">
    <path clip-path="url(#p1c6e80c2b3)" d="M 185.182139 24.877867 
L 185.258405 24.909457 
L 185.485951 25.00371 
L 185.86104 25.159077 
L 186.377514 25.373007 
L 187.026891 25.641988 
L 187.79851 25.961603 
L 188.6797 26.326604 
L 189.655993 26.730997 
L 190.711356 27.168143 
L 191.828462 27.630864 
L 192.988968 28.111561 
L 194.173818 28.602342 
L 195.363557 29.095148 
L 196.538649 29.581887 
L 197.679799 30.054567 
L 198.768271 30.505427 
L 199.78619 30.927063 
L 200.716844 31.312552 
L 201.544949 31.655565 
L 202.256911 31.950469 
L 202.841036 32.192421 
L 203.287735 32.37745 
L 203.589673 32.502517 
L 203.741892 32.565568 
L 203.741892 32.565568 
L 203.589673 32.502517 
L 203.287735 32.37745 
L 202.841036 32.192421 
L 202.256911 31.950469 
L 201.544949 31.655565 
L 200.716844 31.312552 
L 199.78619 30.927063 
L 198.768271 30.505427 
L 197.679799 30.054567 
L 196.538649 29.581887 
L 195.363557 29.095148 
L 194.173818 28.602342 
L 192.988968 28.111561 
L 191.828462 27.630864 
L 190.711356 27.168143 
L 189.655993 26.730997 
L 188.6797 26.326604 
L 187.79851 25.961603 
L 187.026891 25.641988 
L 186.377514 25.373007 
L 185.86104 25.159077 
L 185.485951 25.00371 
L 185.258405 24.909457 
L 185.182139 24.877867 
" style="fill:none;stroke:#1f77b4;stroke-linecap:square;stroke-width:1.5;"/>
   </g>
  </g>
  <g id="axes_9">
   <g id="line2d_17">
    <path clip-path="url(#p73ecf3339a)" d="M 208.548272 28.72567 
L 228.657862 28.72567 
" style="fill:none;stroke:#000000;stroke-linecap:square;stroke-width:0.3;"/>
   </g>
   <g id="line2d_18">
    <path clip-path="url(#p73ecf3339a)" d="M 208.548272 28.72567 
L 208.630822 28.72567 
L 208.877115 28.72567 
L 209.283109 28.72567 
L 209.842136 28.72567 
L 210.545017 28.72567 
L 211.380211 28.72567 
L 212.334005 28.72567 
L 213.390736 28.72567 
L 214.533053 28.72567 
L 215.7422 28.72567 
L 216.998323 28.72567 
L 218.280795 28.72567 
L 219.568559 28.72567 
L 220.840469 28.72567 
L 222.075642 28.72567 
L 223.253795 28.72567 
L 224.355583 28.72567 
L 225.362915 28.72567 
L 226.25925 28.72567 
L 227.029871 28.72567 
L 227.662124 28.72567 
L 228.145628 28.72567 
L 228.472443 28.72567 
L 228.637203 28.72567 
L 228.637203 28.72567 
L 228.472443 28.72567 
L 228.145628 28.72567 
L 227.662124 28.72567 
L 227.029871 28.72567 
L 226.25925 28.72567 
L 225.362915 28.72567 
L 224.355583 28.72567 
L 223.253795 28.72567 
L 222.075642 28.72567 
L 220.840469 28.72567 
L 219.568559 28.72567 
L 218.280795 28.72567 
L 216.998323 28.72567 
L 215.7422 28.72567 
L 214.533053 28.72567 
L 213.390736 28.72567 
L 212.334005 28.72567 
L 211.380211 28.72567 
L 210.545017 28.72567 
L 209.842136 28.72567 
L 209.283109 28.72567 
L 208.877115 28.72567 
L 208.630822 28.72567 
L 208.548272 28.72567 
" style="fill:none;stroke:#1f77b4;stroke-linecap:square;stroke-width:1.5;"/>
   </g>
  </g>
  <g id="axes_10">
   <g id="line2d_19">
    <path clip-path="url(#p0030df1498)" d="M 232.67978 28.72567 
L 252.78937 28.72567 
" style="fill:none;stroke:#000000;stroke-linecap:square;stroke-width:0.3;"/>
   </g>
   <g id="line2d_20">
    <path clip-path="url(#p0030df1498)" d="M 249.844389 28.72567 
L 249.786018 29.634853 
L 249.611862 30.529107 
L 249.324781 31.393749 
L 248.929489 32.214581 
L 248.432477 32.978125 
L 247.841905 33.671844 
L 247.167472 34.284346 
L 246.42025 34.805576 
L 245.61251 35.226974 
L 244.757513 35.54162 
L 243.869301 35.744349 
L 242.962456 35.831831 
L 242.051869 35.80263 
L 241.152493 35.657226 
L 240.279094 35.398006 
L 239.446014 35.029226 
L 238.666932 34.556942 
L 237.954641 33.988909 
L 237.320836 33.334453 
L 236.775925 32.604322 
L 236.328854 31.810503 
L 235.986966 30.966031 
L 235.755872 30.084772 
L 235.639369 29.181197 
L 235.639369 28.270143 
L 235.755872 27.366568 
L 235.986966 26.485309 
L 236.328854 25.640838 
L 236.775925 24.847019 
L 237.320836 24.116887 
L 237.954641 23.462431 
L 238.666932 22.894398 
L 239.446014 22.422114 
L 240.279094 22.053334 
L 241.152493 21.794114 
L 242.051869 21.64871 
L 242.962456 21.619509 
L 243.869301 21.706991 
L 244.757513 21.90972 
L 245.61251 22.224367 
L 246.42025 22.645764 
L 247.167472 23.166994 
L 247.841905 23.779497 
L 248.432477 24.473216 
L 248.929489 25.23676 
L 249.324781 26.057592 
L 249.611862 26.922233 
L 249.786018 27.816487 
L 249.844389 28.72567 
" style="fill:none;stroke:#ff7f0e;stroke-linecap:square;stroke-width:1.5;"/>
   </g>
  </g>
  <g id="axes_11">
   <g id="line2d_21">
    <path clip-path="url(#p59610a13e7)" d="M 256.811289 28.72567 
L 276.920879 28.72567 
" style="fill:none;stroke:#000000;stroke-linecap:square;stroke-width:0.3;"/>
   </g>
   <g id="line2d_22">
    <path clip-path="url(#p59610a13e7)" d="M 273.975898 28.72567 
L 273.917526 27.816487 
L 273.74337 26.922233 
L 273.456289 26.057592 
L 273.060997 25.23676 
L 272.563985 24.473216 
L 271.973414 23.779497 
L 271.29898 23.166994 
L 270.551758 22.645764 
L 269.744018 22.224367 
L 268.889022 21.90972 
L 268.000809 21.706991 
L 267.093964 21.619509 
L 266.183378 21.64871 
L 265.284001 21.794114 
L 264.410602 22.053334 
L 263.577523 22.422114 
L 262.798441 22.894398 
L 262.08615 23.462431 
L 261.452345 24.116887 
L 260.907433 24.847019 
L 260.460363 25.640838 
L 260.118474 26.485309 
L 259.887381 27.366568 
L 259.770878 28.270143 
L 259.770878 29.181197 
L 259.887381 30.084772 
L 260.118474 30.966031 
L 260.460363 31.810503 
L 260.907433 32.604322 
L 261.452345 33.334453 
L 262.08615 33.988909 
L 262.798441 34.556942 
L 263.577523 35.029226 
L 264.410602 35.398006 
L 265.284001 35.657226 
L 266.183378 35.80263 
L 267.093964 35.831831 
L 268.000809 35.744349 
L 268.889022 35.54162 
L 269.744018 35.226974 
L 270.551758 34.805576 
L 271.29898 34.284346 
L 271.973414 33.671844 
L 272.563985 32.978125 
L 273.060997 32.214581 
L 273.456289 31.393749 
L 273.74337 30.529107 
L 273.917526 29.634853 
L 273.975898 28.72567 
" style="fill:none;stroke:#2ca02c;stroke-linecap:square;stroke-width:1.5;"/>
   </g>
  </g>
  <g id="axes_12">
   <g id="line2d_23">
    <path clip-path="url(#p2ae6dd6324)" d="M 15.496205 63.102767 
L 35.605795 63.102767 
" style="fill:none;stroke:#000000;stroke-linecap:square;stroke-width:0.3;"/>
   </g>
   <g id="line2d_24">
    <path clip-path="url(#p2ae6dd6324)" d="M 35.605795 63.102767 
L 35.523245 63.102767 
L 35.276952 63.102767 
L 34.870958 63.102767 
L 34.311931 63.102767 
L 33.60905 63.102767 
L 32.773856 63.102767 
L 31.820062 63.102767 
L 30.763331 63.102767 
L 29.621014 63.102767 
L 28.411867 63.102767 
L 27.155744 63.102767 
L 25.873272 63.102767 
L 24.585508 63.102767 
L 23.313598 63.102767 
L 22.078425 63.102767 
L 20.900272 63.102767 
L 19.798484 63.102767 
L 18.791152 63.102767 
L 17.894817 63.102767 
L 17.124196 63.102767 
L 16.491943 63.102767 
L 16.008439 63.102767 
L 15.681624 63.102767 
L 15.516864 63.102767 
L 15.516864 63.102767 
L 15.681624 63.102767 
L 16.008439 63.102767 
L 16.491943 63.102767 
L 17.124196 63.102767 
L 17.894817 63.102767 
L 18.791152 63.102767 
L 19.798484 63.102767 
L 20.900272 63.102767 
L 22.078425 63.102767 
L 23.313598 63.102767 
L 24.585508 63.102767 
L 25.873272 63.102767 
L 27.155744 63.102767 
L 28.411867 63.102767 
L 29.621014 63.102767 
L 30.763331 63.102767 
L 31.820062 63.102767 
L 32.773856 63.102767 
L 33.60905 63.102767 
L 34.311931 63.102767 
L 34.870958 63.102767 
L 35.276952 63.102767 
L 35.523245 63.102767 
L 35.605795 63.102767 
" style="fill:none;stroke:#1f77b4;stroke-linecap:square;stroke-width:1.5;"/>
   </g>
   <g id="text_2">
    <!-- After QWP -->
    <g transform="translate(7.2 47.047972)scale(0.072 -0.072)">
     <defs>
      <path d="M 34.1875 63.1875 
L 20.796875 26.90625 
L 47.609375 26.90625 
z
M 28.609375 72.90625 
L 39.796875 72.90625 
L 67.578125 0 
L 57.328125 0 
L 50.6875 18.703125 
L 17.828125 18.703125 
L 11.1875 0 
L 0.78125 0 
z
" id="DejaVuSans-65"/>
      <path d="M 37.109375 75.984375 
L 37.109375 68.5 
L 28.515625 68.5 
Q 23.6875 68.5 21.796875 66.546875 
Q 19.921875 64.59375 19.921875 59.515625 
L 19.921875 54.6875 
L 34.71875 54.6875 
L 34.71875 47.703125 
L 19.921875 47.703125 
L 19.921875 0 
L 10.890625 0 
L 10.890625 47.703125 
L 2.296875 47.703125 
L 2.296875 54.6875 
L 10.890625 54.6875 
L 10.890625 58.5 
Q 10.890625 67.625 15.140625 71.796875 
Q 19.390625 75.984375 28.609375 75.984375 
z
" id="DejaVuSans-102"/>
      <path d="M 56.203125 29.59375 
L 56.203125 25.203125 
L 14.890625 25.203125 
Q 15.484375 15.921875 20.484375 11.0625 
Q 25.484375 6.203125 34.421875 6.203125 
Q 39.59375 6.203125 44.453125 7.46875 
Q 49.3125 8.734375 54.109375 11.28125 
L 54.109375 2.78125 
Q 49.265625 0.734375 44.1875 -0.34375 
Q 39.109375 -1.421875 33.890625 -1.421875 
Q 20.796875 -1.421875 13.15625 6.1875 
Q 5.515625 13.8125 5.515625 26.8125 
Q 5.515625 40.234375 12.765625 48.109375 
Q 20.015625 56 32.328125 56 
Q 43.359375 56 49.78125 48.890625 
Q 56.203125 41.796875 56.203125 29.59375 
z
M 47.21875 32.234375 
Q 47.125 39.59375 43.09375 43.984375 
Q 39.0625 48.390625 32.421875 48.390625 
Q 24.90625 48.390625 20.390625 44.140625 
Q 15.875 39.890625 15.1875 32.171875 
z
" id="DejaVuSans-101"/>
      <path d="M 41.109375 46.296875 
Q 39.59375 47.171875 37.8125 47.578125 
Q 36.03125 48 33.890625 48 
Q 26.265625 48 22.1875 43.046875 
Q 18.109375 38.09375 18.109375 28.8125 
L 18.109375 0 
L 9.078125 0 
L 9.078125 54.6875 
L 18.109375 54.6875 
L 18.109375 46.1875 
Q 20.953125 51.171875 25.484375 53.578125 
Q 30.03125 56 36.53125 56 
Q 37.453125 56 38.578125 55.875 
Q 39.703125 55.765625 41.0625 55.515625 
z
" id="DejaVuSans-114"/>
      <path id="DejaVuSans-32"/>
      <path d="M 39.40625 66.21875 
Q 28.65625 66.21875 22.328125 58.203125 
Q 16.015625 50.203125 16.015625 36.375 
Q 16.015625 22.609375 22.328125 14.59375 
Q 28.65625 6.59375 39.40625 6.59375 
Q 50.140625 6.59375 56.421875 14.59375 
Q 62.703125 22.609375 62.703125 36.375 
Q 62.703125 50.203125 56.421875 58.203125 
Q 50.140625 66.21875 39.40625 66.21875 
z
M 53.21875 1.3125 
L 66.21875 -12.890625 
L 54.296875 -12.890625 
L 43.5 -1.21875 
Q 41.890625 -1.3125 41.03125 -1.359375 
Q 40.1875 -1.421875 39.40625 -1.421875 
Q 24.03125 -1.421875 14.8125 8.859375 
Q 5.609375 19.140625 5.609375 36.375 
Q 5.609375 53.65625 14.8125 63.9375 
Q 24.03125 74.21875 39.40625 74.21875 
Q 54.734375 74.21875 63.90625 63.9375 
Q 73.09375 53.65625 73.09375 36.375 
Q 73.09375 23.6875 67.984375 14.640625 
Q 62.890625 5.609375 53.21875 1.3125 
z
" id="DejaVuSans-81"/>
      <path d="M 3.328125 72.90625 
L 13.28125 72.90625 
L 28.609375 11.28125 
L 43.890625 72.90625 
L 54.984375 72.90625 
L 70.3125 11.28125 
L 85.59375 72.90625 
L 95.609375 72.90625 
L 77.296875 0 
L 64.890625 0 
L 49.515625 63.28125 
L 33.984375 0 
L 21.578125 0 
z
" id="DejaVuSans-87"/>
      <path d="M 19.671875 64.796875 
L 19.671875 37.40625 
L 32.078125 37.40625 
Q 38.96875 37.40625 42.71875 40.96875 
Q 46.484375 44.53125 46.484375 51.125 
Q 46.484375 57.671875 42.71875 61.234375 
Q 38.96875 64.796875 32.078125 64.796875 
z
M 9.8125 72.90625 
L 32.078125 72.90625 
Q 44.34375 72.90625 50.609375 67.359375 
Q 56.890625 61.8125 56.890625 51.125 
Q 56.890625 40.328125 50.609375 34.8125 
Q 44.34375 29.296875 32.078125 29.296875 
L 19.671875 29.296875 
L 19.671875 0 
L 9.8125 0 
z
" id="DejaVuSans-80"/>
     </defs>
     <use xlink:href="#DejaVuSans-65"/>
     <use x="64.783203" xlink:href="#DejaVuSans-102"/>
     <use x="98.238281" xlink:href="#DejaVuSans-116"/>
     <use x="137.447266" xlink:href="#DejaVuSans-101"/>
     <use x="198.970703" xlink:href="#DejaVuSans-114"/>
     <use x="240.083984" xlink:href="#DejaVuSans-32"/>
     <use x="271.871094" xlink:href="#DejaVuSans-81"/>
     <use x="350.582031" xlink:href="#DejaVuSans-87"/>
     <use x="449.458984" xlink:href="#DejaVuSans-80"/>
    </g>
   </g>
  </g>
  <g id="axes_13">
   <g id="line2d_25">
    <path clip-path="url(#pa945bcffb5)" d="M 39.627713 63.102767 
L 59.737304 63.102767 
" style="fill:none;stroke:#000000;stroke-linecap:square;stroke-width:0.3;"/>
   </g>
   <g id="line2d_26">
    <path clip-path="url(#pa945bcffb5)" d="M 58.971928 63.102767 
L 58.895662 63.594813 
L 58.668116 64.07878 
L 58.293027 64.54672 
L 57.776553 64.990951 
L 57.127176 65.404179 
L 56.355557 65.779617 
L 55.474367 66.111101 
L 54.498074 66.393188 
L 53.442711 66.621247 
L 52.325604 66.791532 
L 51.165099 66.901248 
L 49.980249 66.948593 
L 48.79051 66.93279 
L 47.615418 66.854098 
L 46.474268 66.713809 
L 45.385796 66.514227 
L 44.367877 66.258628 
L 43.437223 65.951211 
L 42.609117 65.597022 
L 41.897156 65.201878 
L 41.313031 64.772266 
L 40.866331 64.315241 
L 40.564394 63.838308 
L 40.412175 63.349296 
L 40.412175 62.856237 
L 40.564394 62.367226 
L 40.866331 61.890292 
L 41.313031 61.433267 
L 41.897156 61.003656 
L 42.609117 60.608511 
L 43.437223 60.254322 
L 44.367877 59.946905 
L 45.385796 59.691307 
L 46.474268 59.491725 
L 47.615418 59.351436 
L 48.79051 59.272743 
L 49.980249 59.25694 
L 51.165099 59.304285 
L 52.325604 59.414001 
L 53.442711 59.584287 
L 54.498074 59.812345 
L 55.474367 60.094433 
L 56.355557 60.425917 
L 57.127176 60.801355 
L 57.776553 61.214582 
L 58.293027 61.658813 
L 58.668116 62.126754 
L 58.895662 62.610721 
L 58.971928 63.102767 
" style="fill:none;stroke:#ff7f0e;stroke-linecap:square;stroke-width:1.5;"/>
   </g>
  </g>
  <g id="axes_14">
   <g id="line2d_27">
    <path clip-path="url(#p6c2a3f0ddb)" d="M 63.759222 63.102767 
L 83.868812 63.102767 
" style="fill:none;stroke:#000000;stroke-linecap:square;stroke-width:0.3;"/>
   </g>
   <g id="line2d_28">
    <path clip-path="url(#p6c2a3f0ddb)" d="M 80.923831 63.102767 
L 80.865459 64.01195 
L 80.691303 64.906204 
L 80.404222 65.770845 
L 80.008931 66.591677 
L 79.511918 67.355221 
L 78.921347 68.04894 
L 78.246913 68.661443 
L 77.499691 69.182673 
L 76.691951 69.60407 
L 75.836955 69.918717 
L 74.948742 70.121445 
L 74.041897 70.208928 
L 73.131311 70.179727 
L 72.231934 70.034323 
L 71.358535 69.775103 
L 70.525456 69.406323 
L 69.746374 68.934039 
L 69.034083 68.366006 
L 68.400278 67.71155 
L 67.855366 66.981418 
L 67.408296 66.187599 
L 67.066407 65.343128 
L 66.835314 64.461869 
L 66.718811 63.558294 
L 66.718811 62.647239 
L 66.835314 61.743664 
L 67.066407 60.862406 
L 67.408296 60.017934 
L 67.855366 59.224115 
L 68.400278 58.493984 
L 69.034083 57.839528 
L 69.746374 57.271495 
L 70.525456 56.799211 
L 71.358535 56.430431 
L 72.231934 56.171211 
L 73.131311 56.025807 
L 74.041897 55.996606 
L 74.948742 56.084088 
L 75.836955 56.286817 
L 76.691951 56.601463 
L 77.499691 57.022861 
L 78.246913 57.54409 
L 78.921347 58.156593 
L 79.511918 58.850312 
L 80.008931 59.613856 
L 80.404222 60.434688 
L 80.691303 61.29933 
L 80.865459 62.193584 
L 80.923831 63.102767 
" style="fill:none;stroke:#ff7f0e;stroke-linecap:square;stroke-width:1.5;"/>
   </g>
  </g>
  <g id="axes_15">
   <g id="line2d_29">
    <path clip-path="url(#p0239532db4)" d="M 87.89073 63.102767 
L 108.00032 63.102767 
" style="fill:none;stroke:#000000;stroke-linecap:square;stroke-width:0.3;"/>
   </g>
   <g id="line2d_30">
    <path clip-path="url(#p0239532db4)" d="M 101.793329 63.102767 
L 101.761738 64.290671 
L 101.667486 65.459071 
L 101.512119 66.588779 
L 101.298188 67.661248 
L 101.029207 68.658866 
L 100.709592 69.565254 
L 100.344591 70.365527 
L 99.940198 71.046547 
L 99.503052 71.597129 
L 99.040331 72.008235 
L 98.559634 72.273112 
L 98.068853 72.387413 
L 97.576047 72.349261 
L 97.089308 72.159281 
L 96.616628 71.820594 
L 96.165769 71.33876 
L 95.744133 70.721691 
L 95.358643 69.97952 
L 95.015631 69.124432 
L 94.720727 68.170469 
L 94.478774 67.133295 
L 94.293745 66.029939 
L 94.168678 64.878519 
L 94.105627 63.697942 
L 94.105627 62.507592 
L 94.168678 61.327014 
L 94.293745 60.175594 
L 94.478774 59.072239 
L 94.720727 58.035064 
L 95.015631 57.081101 
L 95.358643 56.226014 
L 95.744133 55.483843 
L 96.165769 54.866774 
L 96.616628 54.38494 
L 97.089308 54.046252 
L 97.576047 53.856273 
L 98.068853 53.81812 
L 98.559634 53.932421 
L 99.040331 54.197299 
L 99.503052 54.608404 
L 99.940198 55.158987 
L 100.344591 55.840006 
L 100.709592 56.64028 
L 101.029207 57.546667 
L 101.298188 58.544286 
L 101.512119 59.616754 
L 101.667486 60.746463 
L 101.761738 61.914862 
L 101.793329 63.102767 
" style="fill:none;stroke:#ff7f0e;stroke-linecap:square;stroke-width:1.5;"/>
   </g>
  </g>
  <g id="axes_16">
   <g id="line2d_31">
    <path clip-path="url(#pc2750fae36)" d="M 112.022238 63.102767 
L 132.131829 63.102767 
" style="fill:none;stroke:#000000;stroke-linecap:square;stroke-width:0.3;"/>
   </g>
   <g id="line2d_32">
    <path clip-path="url(#pc2750fae36)" d="M 122.077033 63.102767 
L 122.077033 64.388545 
L 122.077033 65.653212 
L 122.077033 66.876 
L 122.077033 68.036831 
L 122.077033 69.116646 
L 122.077033 70.097712 
L 122.077033 70.963922 
L 122.077033 71.701052 
L 122.077033 72.296998 
L 122.077033 72.741976 
L 122.077033 73.028677 
L 122.077033 73.152396 
L 122.077033 73.1111 
L 122.077033 72.905467 
L 122.077033 72.538874 
L 122.077033 72.017341 
L 122.077033 71.349431 
L 122.077033 70.54611 
L 122.077033 69.62057 
L 122.077033 68.588008 
L 122.077033 67.465379 
L 122.077033 66.271115 
L 122.077033 65.024828 
L 122.077033 63.74698 
L 122.077033 62.458554 
L 122.077033 61.180706 
L 122.077033 59.934418 
L 122.077033 58.740155 
L 122.077033 57.617525 
L 122.077033 56.584963 
L 122.077033 55.659423 
L 122.077033 54.856103 
L 122.077033 54.188192 
L 122.077033 53.666659 
L 122.077033 53.300066 
L 122.077033 53.094434 
L 122.077033 53.053138 
L 122.077033 53.176856 
L 122.077033 53.463558 
L 122.077033 53.908535 
L 122.077033 54.504481 
L 122.077033 55.241611 
L 122.077033 56.107821 
L 122.077033 57.088888 
L 122.077033 58.168702 
L 122.077033 59.329534 
L 122.077033 60.552322 
L 122.077033 61.816988 
L 122.077033 63.102767 
" style="fill:none;stroke:#1f77b4;stroke-linecap:square;stroke-width:1.5;"/>
   </g>
  </g>
  <g id="axes_17">
   <g id="line2d_33">
    <path clip-path="url(#pa4515d0678)" d="M 136.153747 63.102767 
L 156.263337 63.102767 
" style="fill:none;stroke:#000000;stroke-linecap:square;stroke-width:0.3;"/>
   </g>
   <g id="line2d_34">
    <path clip-path="url(#pa4515d0678)" d="M 142.360738 63.102767 
L 142.392329 64.290671 
L 142.486581 65.459071 
L 142.641948 66.588779 
L 142.855879 67.661248 
L 143.12486 68.658866 
L 143.444475 69.565254 
L 143.809476 70.365527 
L 144.213869 71.046547 
L 144.651015 71.597129 
L 145.113736 72.008235 
L 145.594433 72.273112 
L 146.085214 72.387413 
L 146.57802 72.349261 
L 147.064759 72.159281 
L 147.537439 71.820594 
L 147.988298 71.33876 
L 148.409934 70.721691 
L 148.795424 69.97952 
L 149.138436 69.124432 
L 149.43334 68.170469 
L 149.675293 67.133295 
L 149.860322 66.029939 
L 149.985389 64.878519 
L 150.04844 63.697942 
L 150.04844 62.507592 
L 149.985389 61.327014 
L 149.860322 60.175594 
L 149.675293 59.072239 
L 149.43334 58.035064 
L 149.138436 57.081101 
L 148.795424 56.226014 
L 148.409934 55.483843 
L 147.988298 54.866774 
L 147.537439 54.38494 
L 147.064759 54.046252 
L 146.57802 53.856273 
L 146.085214 53.81812 
L 145.594433 53.932421 
L 145.113736 54.197299 
L 144.651015 54.608404 
L 144.213869 55.158987 
L 143.809476 55.840006 
L 143.444475 56.64028 
L 143.12486 57.546667 
L 142.855879 58.544286 
L 142.641948 59.616754 
L 142.486581 60.746463 
L 142.392329 61.914862 
L 142.360738 63.102767 
" style="fill:none;stroke:#2ca02c;stroke-linecap:square;stroke-width:1.5;"/>
   </g>
  </g>
  <g id="axes_18">
   <g id="line2d_35">
    <path clip-path="url(#paffbebffe7)" d="M 160.285255 63.102767 
L 180.394845 63.102767 
" style="fill:none;stroke:#000000;stroke-linecap:square;stroke-width:0.3;"/>
   </g>
   <g id="line2d_36">
    <path clip-path="url(#paffbebffe7)" d="M 163.230236 63.102767 
L 163.288608 64.01195 
L 163.462764 64.906204 
L 163.749845 65.770845 
L 164.145136 66.591677 
L 164.642149 67.355221 
L 165.23272 68.04894 
L 165.907154 68.661443 
L 166.654376 69.182673 
L 167.462116 69.60407 
L 168.317112 69.918717 
L 169.205325 70.121445 
L 170.112169 70.208928 
L 171.022756 70.179727 
L 171.922133 70.034323 
L 172.795531 69.775103 
L 173.628611 69.406323 
L 174.407693 68.934039 
L 175.119984 68.366006 
L 175.753789 67.71155 
L 176.298701 66.981418 
L 176.745771 66.187599 
L 177.08766 65.343128 
L 177.318753 64.461869 
L 177.435256 63.558294 
L 177.435256 62.647239 
L 177.318753 61.743664 
L 177.08766 60.862406 
L 176.745771 60.017934 
L 176.298701 59.224115 
L 175.753789 58.493984 
L 175.119984 57.839528 
L 174.407693 57.271495 
L 173.628611 56.799211 
L 172.795531 56.430431 
L 171.922133 56.171211 
L 171.022756 56.025807 
L 170.112169 55.996606 
L 169.205325 56.084088 
L 168.317112 56.286817 
L 167.462116 56.601463 
L 166.654376 57.022861 
L 165.907154 57.54409 
L 165.23272 58.156593 
L 164.642149 58.850312 
L 164.145136 59.613856 
L 163.749845 60.434688 
L 163.462764 61.29933 
L 163.288608 62.193584 
L 163.230236 63.102767 
" style="fill:none;stroke:#2ca02c;stroke-linecap:square;stroke-width:1.5;"/>
   </g>
  </g>
  <g id="axes_19">
   <g id="line2d_37">
    <path clip-path="url(#pb43d12ee5d)" d="M 184.416763 63.102767 
L 204.526354 63.102767 
" style="fill:none;stroke:#000000;stroke-linecap:square;stroke-width:0.3;"/>
   </g>
   <g id="line2d_38">
    <path clip-path="url(#pb43d12ee5d)" d="M 185.182139 63.102767 
L 185.258405 63.594813 
L 185.485951 64.07878 
L 185.86104 64.54672 
L 186.377514 64.990951 
L 187.026891 65.404179 
L 187.79851 65.779617 
L 188.6797 66.111101 
L 189.655993 66.393188 
L 190.711356 66.621247 
L 191.828462 66.791532 
L 192.988968 66.901248 
L 194.173818 66.948593 
L 195.363557 66.93279 
L 196.538649 66.854098 
L 197.679799 66.713809 
L 198.768271 66.514227 
L 199.78619 66.258628 
L 200.716844 65.951211 
L 201.544949 65.597022 
L 202.256911 65.201878 
L 202.841036 64.772266 
L 203.287735 64.315241 
L 203.589673 63.838308 
L 203.741892 63.349296 
L 203.741892 62.856237 
L 203.589673 62.367226 
L 203.287735 61.890292 
L 202.841036 61.433267 
L 202.256911 61.003656 
L 201.544949 60.608511 
L 200.716844 60.254322 
L 199.78619 59.946905 
L 198.768271 59.691307 
L 197.679799 59.491725 
L 196.538649 59.351436 
L 195.363557 59.272743 
L 194.173818 59.25694 
L 192.988968 59.304285 
L 191.828462 59.414001 
L 190.711356 59.584287 
L 189.655993 59.812345 
L 188.6797 60.094433 
L 187.79851 60.425917 
L 187.026891 60.801355 
L 186.377514 61.214582 
L 185.86104 61.658813 
L 185.485951 62.126754 
L 185.258405 62.610721 
L 185.182139 63.102767 
" style="fill:none;stroke:#2ca02c;stroke-linecap:square;stroke-width:1.5;"/>
   </g>
  </g>
  <g id="axes_20">
   <g id="line2d_39">
    <path clip-path="url(#pb41f0b8430)" d="M 208.548272 63.102767 
L 228.657862 63.102767 
" style="fill:none;stroke:#000000;stroke-linecap:square;stroke-width:0.3;"/>
   </g>
   <g id="line2d_40">
    <path clip-path="url(#pb41f0b8430)" d="M 208.548272 63.102767 
L 208.630822 63.102767 
L 208.877115 63.102767 
L 209.283109 63.102767 
L 209.842136 63.102767 
L 210.545017 63.102767 
L 211.380211 63.102767 
L 212.334005 63.102767 
L 213.390736 63.102767 
L 214.533053 63.102767 
L 215.7422 63.102767 
L 216.998323 63.102767 
L 218.280795 63.102767 
L 219.568559 63.102767 
L 220.840469 63.102767 
L 222.075642 63.102767 
L 223.253795 63.102767 
L 224.355583 63.102767 
L 225.362915 63.102767 
L 226.25925 63.102767 
L 227.029871 63.102767 
L 227.662124 63.102767 
L 228.145628 63.102767 
L 228.472443 63.102767 
L 228.637203 63.102767 
L 228.637203 63.102767 
L 228.472443 63.102767 
L 228.145628 63.102767 
L 227.662124 63.102767 
L 227.029871 63.102767 
L 226.25925 63.102767 
L 225.362915 63.102767 
L 224.355583 63.102767 
L 223.253795 63.102767 
L 222.075642 63.102767 
L 220.840469 63.102767 
L 219.568559 63.102767 
L 218.280795 63.102767 
L 216.998323 63.102767 
L 215.7422 63.102767 
L 214.533053 63.102767 
L 213.390736 63.102767 
L 212.334005 63.102767 
L 211.380211 63.102767 
L 210.545017 63.102767 
L 209.842136 63.102767 
L 209.283109 63.102767 
L 208.877115 63.102767 
L 208.630822 63.102767 
L 208.548272 63.102767 
" style="fill:none;stroke:#1f77b4;stroke-linecap:square;stroke-width:1.5;"/>
   </g>
  </g>
  <g id="axes_21">
   <g id="line2d_41">
    <path clip-path="url(#p7ddcacd80c)" d="M 232.67978 63.102767 
L 252.78937 63.102767 
" style="fill:none;stroke:#000000;stroke-linecap:square;stroke-width:0.3;"/>
   </g>
   <g id="line2d_42">
    <path clip-path="url(#p7ddcacd80c)" d="M 249.844389 70.212581 
L 249.786018 70.154209 
L 249.611862 69.980053 
L 249.324781 69.692972 
L 248.929489 69.297681 
L 248.432477 68.800668 
L 247.841905 68.210097 
L 247.167472 67.535663 
L 246.42025 66.788441 
L 245.61251 65.980701 
L 244.757513 65.125705 
L 243.869301 64.237492 
L 242.962456 63.330648 
L 242.051869 62.420061 
L 241.152493 61.520684 
L 240.279094 60.647286 
L 239.446014 59.814206 
L 238.666932 59.035124 
L 237.954641 58.322833 
L 237.320836 57.689028 
L 236.775925 57.144116 
L 236.328854 56.697046 
L 235.986966 56.355157 
L 235.755872 56.124064 
L 235.639369 56.007561 
L 235.639369 56.007561 
L 235.755872 56.124064 
L 235.986966 56.355157 
L 236.328854 56.697046 
L 236.775925 57.144116 
L 237.320836 57.689028 
L 237.954641 58.322833 
L 238.666932 59.035124 
L 239.446014 59.814206 
L 240.279094 60.647286 
L 241.152493 61.520684 
L 242.051869 62.420061 
L 242.962456 63.330648 
L 243.869301 64.237492 
L 244.757513 65.125705 
L 245.61251 65.980701 
L 246.42025 66.788441 
L 247.167472 67.535663 
L 247.841905 68.210097 
L 248.432477 68.800668 
L 248.929489 69.297681 
L 249.324781 69.692972 
L 249.611862 69.980053 
L 249.786018 70.154209 
L 249.844389 70.212581 
" style="fill:none;stroke:#1f77b4;stroke-linecap:square;stroke-width:1.5;"/>
   </g>
  </g>
  <g id="axes_22">
   <g id="line2d_43">
    <path clip-path="url(#p1058ef0b24)" d="M 256.811289 63.102767 
L 276.920879 63.102767 
" style="fill:none;stroke:#000000;stroke-linecap:square;stroke-width:0.3;"/>
   </g>
   <g id="line2d_44">
    <path clip-path="url(#p1058ef0b24)" d="M 273.975898 55.992953 
L 273.917526 56.051324 
L 273.74337 56.22548 
L 273.456289 56.512561 
L 273.060997 56.907853 
L 272.563985 57.404865 
L 271.973414 57.995437 
L 271.29898 58.66987 
L 270.551758 59.417092 
L 269.744018 60.224833 
L 268.889022 61.079829 
L 268.000809 61.968041 
L 267.093964 62.874886 
L 266.183378 63.785473 
L 265.284001 64.684849 
L 264.410602 65.558248 
L 263.577523 66.391328 
L 262.798441 67.17041 
L 262.08615 67.882701 
L 261.452345 68.516506 
L 260.907433 69.061417 
L 260.460363 69.508488 
L 260.118474 69.850376 
L 259.887381 70.08147 
L 259.770878 70.197973 
L 259.770878 70.197973 
L 259.887381 70.08147 
L 260.118474 69.850376 
L 260.460363 69.508488 
L 260.907433 69.061417 
L 261.452345 68.516506 
L 262.08615 67.882701 
L 262.798441 67.17041 
L 263.577523 66.391328 
L 264.410602 65.558248 
L 265.284001 64.684849 
L 266.183378 63.785473 
L 267.093964 62.874886 
L 268.000809 61.968041 
L 268.889022 61.079829 
L 269.744018 60.224833 
L 270.551758 59.417092 
L 271.29898 58.66987 
L 271.973414 57.995437 
L 272.563985 57.404865 
L 273.060997 56.907853 
L 273.456289 56.512561 
L 273.74337 56.22548 
L 273.917526 56.051324 
L 273.975898 55.992953 
" style="fill:none;stroke:#1f77b4;stroke-linecap:square;stroke-width:1.5;"/>
   </g>
  </g>
  <g id="axes_23">
   <g id="line2d_45">
    <path clip-path="url(#p1c5f013247)" d="M 15.496205 97.479863 
L 35.605795 97.479863 
" style="fill:none;stroke:#000000;stroke-linecap:square;stroke-width:0.3;"/>
   </g>
   <g id="line2d_46">
    <path clip-path="url(#p1c5f013247)" d="M 35.605795 97.479863 
L 35.523245 97.479863 
L 35.276952 97.479863 
L 34.870958 97.479863 
L 34.311931 97.479863 
L 33.60905 97.479863 
L 32.773856 97.479863 
L 31.820062 97.479863 
L 30.763331 97.479863 
L 29.621014 97.479863 
L 28.411867 97.479863 
L 27.155744 97.479863 
L 25.873272 97.479863 
L 24.585508 97.479863 
L 23.313598 97.479863 
L 22.078425 97.479863 
L 20.900272 97.479863 
L 19.798484 97.479863 
L 18.791152 97.479863 
L 17.894817 97.479863 
L 17.124196 97.479863 
L 16.491943 97.479863 
L 16.008439 97.479863 
L 15.681624 97.479863 
L 15.516864 97.479863 
L 15.516864 97.479863 
L 15.681624 97.479863 
L 16.008439 97.479863 
L 16.491943 97.479863 
L 17.124196 97.479863 
L 17.894817 97.479863 
L 18.791152 97.479863 
L 19.798484 97.479863 
L 20.900272 97.479863 
L 22.078425 97.479863 
L 23.313598 97.479863 
L 24.585508 97.479863 
L 25.873272 97.479863 
L 27.155744 97.479863 
L 28.411867 97.479863 
L 29.621014 97.479863 
L 30.763331 97.479863 
L 31.820062 97.479863 
L 32.773856 97.479863 
L 33.60905 97.479863 
L 34.311931 97.479863 
L 34.870958 97.479863 
L 35.276952 97.479863 
L 35.523245 97.479863 
L 35.605795 97.479863 
" style="fill:none;stroke:#1f77b4;stroke-linecap:square;stroke-width:1.5;"/>
   </g>
   <g id="text_3">
    <!-- After HWP -->
    <g transform="translate(7.326563 81.425068)scale(0.072 -0.072)">
     <defs>
      <path d="M 9.8125 72.90625 
L 19.671875 72.90625 
L 19.671875 43.015625 
L 55.515625 43.015625 
L 55.515625 72.90625 
L 65.375 72.90625 
L 65.375 0 
L 55.515625 0 
L 55.515625 34.71875 
L 19.671875 34.71875 
L 19.671875 0 
L 9.8125 0 
z
" id="DejaVuSans-72"/>
     </defs>
     <use xlink:href="#DejaVuSans-65"/>
     <use x="64.783203" xlink:href="#DejaVuSans-102"/>
     <use x="98.238281" xlink:href="#DejaVuSans-116"/>
     <use x="137.447266" xlink:href="#DejaVuSans-101"/>
     <use x="198.970703" xlink:href="#DejaVuSans-114"/>
     <use x="240.083984" xlink:href="#DejaVuSans-32"/>
     <use x="271.871094" xlink:href="#DejaVuSans-72"/>
     <use x="347.066406" xlink:href="#DejaVuSans-87"/>
     <use x="445.943359" xlink:href="#DejaVuSans-80"/>
    </g>
   </g>
  </g>
  <g id="axes_24">
   <g id="line2d_47">
    <path clip-path="url(#p9c6890fc4e)" d="M 39.627713 97.479863 
L 59.737304 97.479863 
" style="fill:none;stroke:#000000;stroke-linecap:square;stroke-width:0.3;"/>
   </g>
   <g id="line2d_48">
    <path clip-path="url(#p9c6890fc4e)" d="M 58.971928 101.327667 
L 58.895662 101.296076 
L 58.668116 101.201824 
L 58.293027 101.046457 
L 57.776553 100.832527 
L 57.127176 100.563546 
L 56.355557 100.243931 
L 55.474367 99.87893 
L 54.498074 99.474536 
L 53.442711 99.03739 
L 52.325604 98.57467 
L 51.165099 98.093972 
L 49.980249 97.603192 
L 48.79051 97.110386 
L 47.615418 96.623647 
L 46.474268 96.150966 
L 45.385796 95.700107 
L 44.367877 95.278471 
L 43.437223 94.892982 
L 42.609117 94.549969 
L 41.897156 94.255065 
L 41.313031 94.013112 
L 40.866331 93.828083 
L 40.564394 93.703017 
L 40.412175 93.639966 
L 40.412175 93.639966 
L 40.564394 93.703017 
L 40.866331 93.828083 
L 41.313031 94.013112 
L 41.897156 94.255065 
L 42.609117 94.549969 
L 43.437223 94.892982 
L 44.367877 95.278471 
L 45.385796 95.700107 
L 46.474268 96.150966 
L 47.615418 96.623647 
L 48.79051 97.110386 
L 49.980249 97.603192 
L 51.165099 98.093972 
L 52.325604 98.57467 
L 53.442711 99.03739 
L 54.498074 99.474536 
L 55.474367 99.87893 
L 56.355557 100.243931 
L 57.127176 100.563546 
L 57.776553 100.832527 
L 58.293027 101.046457 
L 58.668116 101.201824 
L 58.895662 101.296076 
L 58.971928 101.327667 
" style="fill:none;stroke:#1f77b4;stroke-linecap:square;stroke-width:1.5;"/>
   </g>
  </g>
  <g id="axes_25">
   <g id="line2d_49">
    <path clip-path="url(#p8e37b2f903)" d="M 63.759222 97.479863 
L 83.868812 97.479863 
" style="fill:none;stroke:#000000;stroke-linecap:square;stroke-width:0.3;"/>
   </g>
   <g id="line2d_50">
    <path clip-path="url(#p8e37b2f903)" d="M 80.923831 104.589677 
L 80.865459 104.531306 
L 80.691303 104.35715 
L 80.404222 104.070069 
L 80.008931 103.674777 
L 79.511918 103.177765 
L 78.921347 102.587194 
L 78.246913 101.91276 
L 77.499691 101.165538 
L 76.691951 100.357798 
L 75.836955 99.502802 
L 74.948742 98.614589 
L 74.041897 97.707744 
L 73.131311 96.797158 
L 72.231934 95.897781 
L 71.358535 95.024382 
L 70.525456 94.191302 
L 69.746374 93.41222 
L 69.034083 92.699929 
L 68.400278 92.066124 
L 67.855366 91.521213 
L 67.408296 91.074142 
L 67.066407 90.732254 
L 66.835314 90.50116 
L 66.718811 90.384657 
L 66.718811 90.384657 
L 66.835314 90.50116 
L 67.066407 90.732254 
L 67.408296 91.074142 
L 67.855366 91.521213 
L 68.400278 92.066124 
L 69.034083 92.699929 
L 69.746374 93.41222 
L 70.525456 94.191302 
L 71.358535 95.024382 
L 72.231934 95.897781 
L 73.131311 96.797158 
L 74.041897 97.707744 
L 74.948742 98.614589 
L 75.836955 99.502802 
L 76.691951 100.357798 
L 77.499691 101.165538 
L 78.246913 101.91276 
L 78.921347 102.587194 
L 79.511918 103.177765 
L 80.008931 103.674777 
L 80.404222 104.070069 
L 80.691303 104.35715 
L 80.865459 104.531306 
L 80.923831 104.589677 
" style="fill:none;stroke:#1f77b4;stroke-linecap:square;stroke-width:1.5;"/>
   </g>
  </g>
  <g id="axes_26">
   <g id="line2d_51">
    <path clip-path="url(#p8dd8abb1f4)" d="M 87.89073 97.479863 
L 108.00032 97.479863 
" style="fill:none;stroke:#000000;stroke-linecap:square;stroke-width:0.3;"/>
   </g>
   <g id="line2d_52">
    <path clip-path="url(#p8dd8abb1f4)" d="M 101.793329 106.769283 
L 101.761738 106.693017 
L 101.667486 106.465471 
L 101.512119 106.090382 
L 101.298188 105.573908 
L 101.029207 104.924531 
L 100.709592 104.152912 
L 100.344591 103.271722 
L 99.940198 102.295429 
L 99.503052 101.240066 
L 99.040331 100.122959 
L 98.559634 98.962454 
L 98.068853 97.777604 
L 97.576047 96.587865 
L 97.089308 95.412773 
L 96.616628 94.271623 
L 96.165769 93.183151 
L 95.744133 92.165232 
L 95.358643 91.234578 
L 95.015631 90.406472 
L 94.720727 89.694511 
L 94.478774 89.110386 
L 94.293745 88.663686 
L 94.168678 88.361749 
L 94.105627 88.20953 
L 94.105627 88.20953 
L 94.168678 88.361749 
L 94.293745 88.663686 
L 94.478774 89.110386 
L 94.720727 89.694511 
L 95.015631 90.406472 
L 95.358643 91.234578 
L 95.744133 92.165232 
L 96.165769 93.183151 
L 96.616628 94.271623 
L 97.089308 95.412773 
L 97.576047 96.587865 
L 98.068853 97.777604 
L 98.559634 98.962454 
L 99.040331 100.122959 
L 99.503052 101.240066 
L 99.940198 102.295429 
L 100.344591 103.271722 
L 100.709592 104.152912 
L 101.029207 104.924531 
L 101.298188 105.573908 
L 101.512119 106.090382 
L 101.667486 106.465471 
L 101.761738 106.693017 
L 101.793329 106.769283 
" style="fill:none;stroke:#1f77b4;stroke-linecap:square;stroke-width:1.5;"/>
   </g>
  </g>
  <g id="axes_27">
   <g id="line2d_53">
    <path clip-path="url(#p6f392b2b35)" d="M 112.022238 97.479863 
L 132.131829 97.479863 
" style="fill:none;stroke:#000000;stroke-linecap:square;stroke-width:0.3;"/>
   </g>
   <g id="line2d_54">
    <path clip-path="url(#p6f392b2b35)" d="M 122.077033 107.534659 
L 122.077033 107.452109 
L 122.077033 107.205815 
L 122.077033 106.799821 
L 122.077033 106.240794 
L 122.077033 105.537913 
L 122.077033 104.702719 
L 122.077033 103.748926 
L 122.077033 102.692194 
L 122.077033 101.549877 
L 122.077033 100.34073 
L 122.077033 99.084608 
L 122.077033 97.802135 
L 122.077033 96.514371 
L 122.077033 95.242461 
L 122.077033 94.007288 
L 122.077033 92.829136 
L 122.077033 91.727348 
L 122.077033 90.720016 
L 122.077033 89.82368 
L 122.077033 89.053059 
L 122.077033 88.420806 
L 122.077033 87.937302 
L 122.077033 87.610487 
L 122.077033 87.445727 
L 122.077033 87.445727 
L 122.077033 87.610487 
L 122.077033 87.937302 
L 122.077033 88.420806 
L 122.077033 89.053059 
L 122.077033 89.82368 
L 122.077033 90.720016 
L 122.077033 91.727348 
L 122.077033 92.829136 
L 122.077033 94.007288 
L 122.077033 95.242461 
L 122.077033 96.514371 
L 122.077033 97.802135 
L 122.077033 99.084608 
L 122.077033 100.34073 
L 122.077033 101.549877 
L 122.077033 102.692194 
L 122.077033 103.748926 
L 122.077033 104.702719 
L 122.077033 105.537913 
L 122.077033 106.240794 
L 122.077033 106.799821 
L 122.077033 107.205815 
L 122.077033 107.452109 
L 122.077033 107.534659 
" style="fill:none;stroke:#1f77b4;stroke-linecap:square;stroke-width:1.5;"/>
   </g>
  </g>
  <g id="axes_28">
   <g id="line2d_55">
    <path clip-path="url(#pee7ccb2a98)" d="M 136.153747 97.479863 
L 156.263337 97.479863 
" style="fill:none;stroke:#000000;stroke-linecap:square;stroke-width:0.3;"/>
   </g>
   <g id="line2d_56">
    <path clip-path="url(#pee7ccb2a98)" d="M 142.360738 106.769283 
L 142.392329 106.693017 
L 142.486581 106.465471 
L 142.641948 106.090382 
L 142.855879 105.573908 
L 143.12486 104.924531 
L 143.444475 104.152912 
L 143.809476 103.271722 
L 144.213869 102.295429 
L 144.651015 101.240066 
L 145.113736 100.122959 
L 145.594433 98.962454 
L 146.085214 97.777604 
L 146.57802 96.587865 
L 147.064759 95.412773 
L 147.537439 94.271623 
L 147.988298 93.183151 
L 148.409934 92.165232 
L 148.795424 91.234578 
L 149.138436 90.406472 
L 149.43334 89.694511 
L 149.675293 89.110386 
L 149.860322 88.663686 
L 149.985389 88.361749 
L 150.04844 88.20953 
L 150.04844 88.20953 
L 149.985389 88.361749 
L 149.860322 88.663686 
L 149.675293 89.110386 
L 149.43334 89.694511 
L 149.138436 90.406472 
L 148.795424 91.234578 
L 148.409934 92.165232 
L 147.988298 93.183151 
L 147.537439 94.271623 
L 147.064759 95.412773 
L 146.57802 96.587865 
L 146.085214 97.777604 
L 145.594433 98.962454 
L 145.113736 100.122959 
L 144.651015 101.240066 
L 144.213869 102.295429 
L 143.809476 103.271722 
L 143.444475 104.152912 
L 143.12486 104.924531 
L 142.855879 105.573908 
L 142.641948 106.090382 
L 142.486581 106.465471 
L 142.392329 106.693017 
L 142.360738 106.769283 
" style="fill:none;stroke:#1f77b4;stroke-linecap:square;stroke-width:1.5;"/>
   </g>
  </g>
  <g id="axes_29">
   <g id="line2d_57">
    <path clip-path="url(#pc8df883b4d)" d="M 160.285255 97.479863 
L 180.394845 97.479863 
" style="fill:none;stroke:#000000;stroke-linecap:square;stroke-width:0.3;"/>
   </g>
   <g id="line2d_58">
    <path clip-path="url(#pc8df883b4d)" d="M 163.230236 104.589677 
L 163.288608 104.531306 
L 163.462764 104.35715 
L 163.749845 104.070069 
L 164.145136 103.674777 
L 164.642149 103.177765 
L 165.23272 102.587194 
L 165.907154 101.91276 
L 166.654376 101.165538 
L 167.462116 100.357798 
L 168.317112 99.502802 
L 169.205325 98.614589 
L 170.112169 97.707744 
L 171.022756 96.797158 
L 171.922133 95.897781 
L 172.795531 95.024382 
L 173.628611 94.191302 
L 174.407693 93.41222 
L 175.119984 92.699929 
L 175.753789 92.066124 
L 176.298701 91.521213 
L 176.745771 91.074142 
L 177.08766 90.732254 
L 177.318753 90.50116 
L 177.435256 90.384657 
L 177.435256 90.384657 
L 177.318753 90.50116 
L 177.08766 90.732254 
L 176.745771 91.074142 
L 176.298701 91.521213 
L 175.753789 92.066124 
L 175.119984 92.699929 
L 174.407693 93.41222 
L 173.628611 94.191302 
L 172.795531 95.024382 
L 171.922133 95.897781 
L 171.022756 96.797158 
L 170.112169 97.707744 
L 169.205325 98.614589 
L 168.317112 99.502802 
L 167.462116 100.357798 
L 166.654376 101.165538 
L 165.907154 101.91276 
L 165.23272 102.587194 
L 164.642149 103.177765 
L 164.145136 103.674777 
L 163.749845 104.070069 
L 163.462764 104.35715 
L 163.288608 104.531306 
L 163.230236 104.589677 
" style="fill:none;stroke:#1f77b4;stroke-linecap:square;stroke-width:1.5;"/>
   </g>
  </g>
  <g id="axes_30">
   <g id="line2d_59">
    <path clip-path="url(#p46787ecff9)" d="M 184.416763 97.479863 
L 204.526354 97.479863 
" style="fill:none;stroke:#000000;stroke-linecap:square;stroke-width:0.3;"/>
   </g>
   <g id="line2d_60">
    <path clip-path="url(#p46787ecff9)" d="M 185.182139 101.327667 
L 185.258405 101.296076 
L 185.485951 101.201824 
L 185.86104 101.046457 
L 186.377514 100.832527 
L 187.026891 100.563546 
L 187.79851 100.243931 
L 188.6797 99.87893 
L 189.655993 99.474536 
L 190.711356 99.03739 
L 191.828462 98.57467 
L 192.988968 98.093972 
L 194.173818 97.603192 
L 195.363557 97.110386 
L 196.538649 96.623647 
L 197.679799 96.150966 
L 198.768271 95.700107 
L 199.78619 95.278471 
L 200.716844 94.892982 
L 201.544949 94.549969 
L 202.256911 94.255065 
L 202.841036 94.013112 
L 203.287735 93.828083 
L 203.589673 93.703017 
L 203.741892 93.639966 
L 203.741892 93.639966 
L 203.589673 93.703017 
L 203.287735 93.828083 
L 202.841036 94.013112 
L 202.256911 94.255065 
L 201.544949 94.549969 
L 200.716844 94.892982 
L 199.78619 95.278471 
L 198.768271 95.700107 
L 197.679799 96.150966 
L 196.538649 96.623647 
L 195.363557 97.110386 
L 194.173818 97.603192 
L 192.988968 98.093972 
L 191.828462 98.57467 
L 190.711356 99.03739 
L 189.655993 99.474536 
L 188.6797 99.87893 
L 187.79851 100.243931 
L 187.026891 100.563546 
L 186.377514 100.832527 
L 185.86104 101.046457 
L 185.485951 101.201824 
L 185.258405 101.296076 
L 185.182139 101.327667 
" style="fill:none;stroke:#1f77b4;stroke-linecap:square;stroke-width:1.5;"/>
   </g>
  </g>
  <g id="axes_31">
   <g id="line2d_61">
    <path clip-path="url(#p2c38de22be)" d="M 208.548272 97.479863 
L 228.657862 97.479863 
" style="fill:none;stroke:#000000;stroke-linecap:square;stroke-width:0.3;"/>
   </g>
   <g id="line2d_62">
    <path clip-path="url(#p2c38de22be)" d="M 208.548272 97.479863 
L 208.630822 97.479863 
L 208.877115 97.479863 
L 209.283109 97.479863 
L 209.842136 97.479863 
L 210.545017 97.479863 
L 211.380211 97.479863 
L 212.334005 97.479863 
L 213.390736 97.479863 
L 214.533053 97.479863 
L 215.7422 97.479863 
L 216.998323 97.479863 
L 218.280795 97.479863 
L 219.568559 97.479863 
L 220.840469 97.479863 
L 222.075642 97.479863 
L 223.253795 97.479863 
L 224.355583 97.479863 
L 225.362915 97.479863 
L 226.25925 97.479863 
L 227.029871 97.479863 
L 227.662124 97.479863 
L 228.145628 97.479863 
L 228.472443 97.479863 
L 228.637203 97.479863 
L 228.637203 97.479863 
L 228.472443 97.479863 
L 228.145628 97.479863 
L 227.662124 97.479863 
L 227.029871 97.479863 
L 226.25925 97.479863 
L 225.362915 97.479863 
L 224.355583 97.479863 
L 223.253795 97.479863 
L 222.075642 97.479863 
L 220.840469 97.479863 
L 219.568559 97.479863 
L 218.280795 97.479863 
L 216.998323 97.479863 
L 215.7422 97.479863 
L 214.533053 97.479863 
L 213.390736 97.479863 
L 212.334005 97.479863 
L 211.380211 97.479863 
L 210.545017 97.479863 
L 209.842136 97.479863 
L 209.283109 97.479863 
L 208.877115 97.479863 
L 208.630822 97.479863 
L 208.548272 97.479863 
" style="fill:none;stroke:#1f77b4;stroke-linecap:square;stroke-width:1.5;"/>
   </g>
  </g>
  <g id="axes_32">
   <g id="line2d_63">
    <path clip-path="url(#p6e5bc2615c)" d="M 232.67978 97.479863 
L 252.78937 97.479863 
" style="fill:none;stroke:#000000;stroke-linecap:square;stroke-width:0.3;"/>
   </g>
   <g id="line2d_64">
    <path clip-path="url(#p6e5bc2615c)" d="M 249.844389 97.479863 
L 249.786018 96.570681 
L 249.611862 95.676426 
L 249.324781 94.811785 
L 248.929489 93.990953 
L 248.432477 93.227409 
L 247.841905 92.53369 
L 247.167472 91.921187 
L 246.42025 91.399958 
L 245.61251 90.97856 
L 244.757513 90.663913 
L 243.869301 90.461185 
L 242.962456 90.373702 
L 242.051869 90.402903 
L 241.152493 90.548307 
L 240.279094 90.807528 
L 239.446014 91.176307 
L 238.666932 91.648591 
L 237.954641 92.216625 
L 237.320836 92.87108 
L 236.775925 93.601212 
L 236.328854 94.395031 
L 235.986966 95.239503 
L 235.755872 96.120761 
L 235.639369 97.024336 
L 235.639369 97.935391 
L 235.755872 98.838966 
L 235.986966 99.720224 
L 236.328854 100.564696 
L 236.775925 101.358515 
L 237.320836 102.088647 
L 237.954641 102.743102 
L 238.666932 103.311135 
L 239.446014 103.783419 
L 240.279094 104.152199 
L 241.152493 104.411419 
L 242.051869 104.556824 
L 242.962456 104.586024 
L 243.869301 104.498542 
L 244.757513 104.295813 
L 245.61251 103.981167 
L 246.42025 103.559769 
L 247.167472 103.03854 
L 247.841905 102.426037 
L 248.432477 101.732318 
L 248.929489 100.968774 
L 249.324781 100.147942 
L 249.611862 99.2833 
L 249.786018 98.389046 
L 249.844389 97.479863 
" style="fill:none;stroke:#2ca02c;stroke-linecap:square;stroke-width:1.5;"/>
   </g>
  </g>
  <g id="axes_33">
   <g id="line2d_65">
    <path clip-path="url(#pd22719b389)" d="M 256.811289 97.479863 
L 276.920879 97.479863 
" style="fill:none;stroke:#000000;stroke-linecap:square;stroke-width:0.3;"/>
   </g>
   <g id="line2d_66">
    <path clip-path="url(#pd22719b389)" d="M 273.975898 97.479863 
L 273.917526 98.389046 
L 273.74337 99.2833 
L 273.456289 100.147942 
L 273.060997 100.968774 
L 272.563985 101.732318 
L 271.973414 102.426037 
L 271.29898 103.03854 
L 270.551758 103.559769 
L 269.744018 103.981167 
L 268.889022 104.295813 
L 268.000809 104.498542 
L 267.093964 104.586024 
L 266.183378 104.556824 
L 265.284001 104.411419 
L 264.410602 104.152199 
L 263.577523 103.783419 
L 262.798441 103.311135 
L 262.08615 102.743102 
L 261.452345 102.088647 
L 260.907433 101.358515 
L 260.460363 100.564696 
L 260.118474 99.720224 
L 259.887381 98.838966 
L 259.770878 97.935391 
L 259.770878 97.024336 
L 259.887381 96.120761 
L 260.118474 95.239503 
L 260.460363 94.395031 
L 260.907433 93.601212 
L 261.452345 92.87108 
L 262.08615 92.216625 
L 262.798441 91.648591 
L 263.577523 91.176307 
L 264.410602 90.807528 
L 265.284001 90.548307 
L 266.183378 90.402903 
L 267.093964 90.373702 
L 268.000809 90.461185 
L 268.889022 90.663913 
L 269.744018 90.97856 
L 270.551758 91.399958 
L 271.29898 91.921187 
L 271.973414 92.53369 
L 272.563985 93.227409 
L 273.060997 93.990953 
L 273.456289 94.811785 
L 273.74337 95.676426 
L 273.917526 96.570681 
L 273.975898 97.479863 
" style="fill:none;stroke:#ff7f0e;stroke-linecap:square;stroke-width:1.5;"/>
   </g>
  </g>
 </g>
 <defs>
  <clipPath id="p6e551cb0aa">
   <rect height="20.10959" width="20.10959" x="15.496205" y="18.670875"/>
  </clipPath>
  <clipPath id="p055dceba40">
   <rect height="20.10959" width="20.10959" x="39.627713" y="18.670875"/>
  </clipPath>
  <clipPath id="p54ba281d79">
   <rect height="20.10959" width="20.10959" x="63.759222" y="18.670875"/>
  </clipPath>
  <clipPath id="pbf3daa0e73">
   <rect height="20.10959" width="20.10959" x="87.89073" y="18.670875"/>
  </clipPath>
  <clipPath id="pf91b8a1012">
   <rect height="20.10959" width="20.10959" x="112.022238" y="18.670875"/>
  </clipPath>
  <clipPath id="p644b7a4dda">
   <rect height="20.10959" width="20.10959" x="136.153747" y="18.670875"/>
  </clipPath>
  <clipPath id="p9cd09b59ea">
   <rect height="20.10959" width="20.10959" x="160.285255" y="18.670875"/>
  </clipPath>
  <clipPath id="p1c6e80c2b3">
   <rect height="20.10959" width="20.10959" x="184.416763" y="18.670875"/>
  </clipPath>
  <clipPath id="p73ecf3339a">
   <rect height="20.10959" width="20.10959" x="208.548272" y="18.670875"/>
  </clipPath>
  <clipPath id="p0030df1498">
   <rect height="20.10959" width="20.10959" x="232.67978" y="18.670875"/>
  </clipPath>
  <clipPath id="p59610a13e7">
   <rect height="20.10959" width="20.10959" x="256.811289" y="18.670875"/>
  </clipPath>
  <clipPath id="p2ae6dd6324">
   <rect height="20.10959" width="20.10959" x="15.496205" y="53.047972"/>
  </clipPath>
  <clipPath id="pa945bcffb5">
   <rect height="20.10959" width="20.10959" x="39.627713" y="53.047972"/>
  </clipPath>
  <clipPath id="p6c2a3f0ddb">
   <rect height="20.10959" width="20.10959" x="63.759222" y="53.047972"/>
  </clipPath>
  <clipPath id="p0239532db4">
   <rect height="20.10959" width="20.10959" x="87.89073" y="53.047972"/>
  </clipPath>
  <clipPath id="pc2750fae36">
   <rect height="20.10959" width="20.10959" x="112.022238" y="53.047972"/>
  </clipPath>
  <clipPath id="pa4515d0678">
   <rect height="20.10959" width="20.10959" x="136.153747" y="53.047972"/>
  </clipPath>
  <clipPath id="paffbebffe7">
   <rect height="20.10959" width="20.10959" x="160.285255" y="53.047972"/>
  </clipPath>
  <clipPath id="pb43d12ee5d">
   <rect height="20.10959" width="20.10959" x="184.416763" y="53.047972"/>
  </clipPath>
  <clipPath id="pb41f0b8430">
   <rect height="20.10959" width="20.10959" x="208.548272" y="53.047972"/>
  </clipPath>
  <clipPath id="p7ddcacd80c">
   <rect height="20.10959" width="20.10959" x="232.67978" y="53.047972"/>
  </clipPath>
  <clipPath id="p1058ef0b24">
   <rect height="20.10959" width="20.10959" x="256.811289" y="53.047972"/>
  </clipPath>
  <clipPath id="p1c5f013247">
   <rect height="20.10959" width="20.10959" x="15.496205" y="87.425068"/>
  </clipPath>
  <clipPath id="p9c6890fc4e">
   <rect height="20.10959" width="20.10959" x="39.627713" y="87.425068"/>
  </clipPath>
  <clipPath id="p8e37b2f903">
   <rect height="20.10959" width="20.10959" x="63.759222" y="87.425068"/>
  </clipPath>
  <clipPath id="p8dd8abb1f4">
   <rect height="20.10959" width="20.10959" x="87.89073" y="87.425068"/>
  </clipPath>
  <clipPath id="p6f392b2b35">
   <rect height="20.10959" width="20.10959" x="112.022238" y="87.425068"/>
  </clipPath>
  <clipPath id="pee7ccb2a98">
   <rect height="20.10959" width="20.10959" x="136.153747" y="87.425068"/>
  </clipPath>
  <clipPath id="pc8df883b4d">
   <rect height="20.10959" width="20.10959" x="160.285255" y="87.425068"/>
  </clipPath>
  <clipPath id="p46787ecff9">
   <rect height="20.10959" width="20.10959" x="184.416763" y="87.425068"/>
  </clipPath>
  <clipPath id="p2c38de22be">
   <rect height="20.10959" width="20.10959" x="208.548272" y="87.425068"/>
  </clipPath>
  <clipPath id="p6e5bc2615c">
   <rect height="20.10959" width="20.10959" x="232.67978" y="87.425068"/>
  </clipPath>
  <clipPath id="pd22719b389">
   <rect height="20.10959" width="20.10959" x="256.811289" y="87.425068"/>
  </clipPath>
 </defs>
</svg>
