<?xml version="1.0" encoding="utf-8" standalone="no"?>
<!DOCTYPE svg PUBLIC "-//W3C//DTD SVG 1.1//EN"
  "http://www.w3.org/Graphics/SVG/1.1/DTD/svg11.dtd">
<!-- Created with matplotlib (https://matplotlib.org/) -->
<svg height="145.351592pt" version="1.1" viewBox="0 0 370.727308 145.351592" width="370.727308pt" xmlns="http://www.w3.org/2000/svg" xmlns:xlink="http://www.w3.org/1999/xlink">
 <metadata>
  <rdf:RDF xmlns:cc="http://creativecommons.org/ns#" xmlns:dc="http://purl.org/dc/elements/1.1/" xmlns:rdf="http://www.w3.org/1999/02/22-rdf-syntax-ns#">
   <cc:Work>
    <dc:type rdf:resource="http://purl.org/dc/dcmitype/StillImage"/>
    <dc:date>2021-04-17T17:22:47.605344</dc:date>
    <dc:format>image/svg+xml</dc:format>
    <dc:creator>
     <cc:Agent>
      <dc:title>Matplotlib v3.3.4, https://matplotlib.org/</dc:title>
     </cc:Agent>
    </dc:creator>
   </cc:Work>
  </rdf:RDF>
 </metadata>
 <defs>
  <style type="text/css">*{stroke-linecap:butt;stroke-linejoin:round;}</style>
 </defs>
 <g id="figure_1">
  <g id="patch_1">
   <path d="M 0 145.351592 
L 370.727308 145.351592 
L 370.727308 0 
L 0 0 
z
" style="fill:#ffffff;"/>
  </g>
  <g id="axes_1">
   <g id="line2d_1">
    <path clip-path="url(#p055b6c602b)" d="M 39.070052 32.189927 
L 38.959061 32.189927 
L 38.62791 32.189927 
L 38.082036 32.189927 
L 37.330403 32.189927 
L 36.385353 32.189927 
L 35.262402 32.189927 
L 33.979991 32.189927 
L 32.559176 32.189927 
L 31.023287 32.189927 
L 29.397543 32.189927 
L 27.708639 32.189927 
L 25.984307 32.189927 
L 24.25286 32.189927 
L 22.542728 32.189927 
L 20.881992 32.189927 
L 19.297921 32.189927 
L 17.816525 32.189927 
L 16.462129 32.189927 
L 15.256972 32.189927 
L 14.220843 32.189927 
L 13.370755 32.189927 
L 12.720666 32.189927 
L 12.28125 32.189927 
L 12.059724 32.189927 
L 12.059724 32.189927 
L 12.28125 32.189927 
L 12.720666 32.189927 
L 13.370755 32.189927 
L 14.220843 32.189927 
L 15.256972 32.189927 
L 16.462129 32.189927 
L 17.816525 32.189927 
L 19.297921 32.189927 
L 20.881992 32.189927 
L 22.542728 32.189927 
L 24.25286 32.189927 
L 25.984307 32.189927 
L 27.708639 32.189927 
L 29.397543 32.189927 
L 31.023287 32.189927 
L 32.559176 32.189927 
L 33.979991 32.189927 
L 35.262402 32.189927 
L 36.385353 32.189927 
L 37.330403 32.189927 
L 38.082036 32.189927 
L 38.62791 32.189927 
L 38.959061 32.189927 
L 39.070052 32.189927 
" style="fill:none;stroke:#1f77b4;stroke-linecap:square;stroke-width:1.5;"/>
   </g>
   <g id="text_1">
    <!-- Initial -->
    <g transform="translate(15.589688 12.670875)scale(0.072 -0.072)">
     <defs>
      <path d="M 9.8125 72.90625 
L 19.671875 72.90625 
L 19.671875 0 
L 9.8125 0 
z
" id="DejaVuSans-73"/>
      <path d="M 54.890625 33.015625 
L 54.890625 0 
L 45.90625 0 
L 45.90625 32.71875 
Q 45.90625 40.484375 42.875 44.328125 
Q 39.84375 48.1875 33.796875 48.1875 
Q 26.515625 48.1875 22.3125 43.546875 
Q 18.109375 38.921875 18.109375 30.90625 
L 18.109375 0 
L 9.078125 0 
L 9.078125 54.6875 
L 18.109375 54.6875 
L 18.109375 46.1875 
Q 21.34375 51.125 25.703125 53.5625 
Q 30.078125 56 35.796875 56 
Q 45.21875 56 50.046875 50.171875 
Q 54.890625 44.34375 54.890625 33.015625 
z
" id="DejaVuSans-110"/>
      <path d="M 9.421875 54.6875 
L 18.40625 54.6875 
L 18.40625 0 
L 9.421875 0 
z
M 9.421875 75.984375 
L 18.40625 75.984375 
L 18.40625 64.59375 
L 9.421875 64.59375 
z
" id="DejaVuSans-105"/>
      <path d="M 18.3125 70.21875 
L 18.3125 54.6875 
L 36.8125 54.6875 
L 36.8125 47.703125 
L 18.3125 47.703125 
L 18.3125 18.015625 
Q 18.3125 11.328125 20.140625 9.421875 
Q 21.96875 7.515625 27.59375 7.515625 
L 36.8125 7.515625 
L 36.8125 0 
L 27.59375 0 
Q 17.1875 0 13.234375 3.875 
Q 9.28125 7.765625 9.28125 18.015625 
L 9.28125 47.703125 
L 2.6875 47.703125 
L 2.6875 54.6875 
L 9.28125 54.6875 
L 9.28125 70.21875 
z
" id="DejaVuSans-116"/>
      <path d="M 34.28125 27.484375 
Q 23.390625 27.484375 19.1875 25 
Q 14.984375 22.515625 14.984375 16.5 
Q 14.984375 11.71875 18.140625 8.90625 
Q 21.296875 6.109375 26.703125 6.109375 
Q 34.1875 6.109375 38.703125 11.40625 
Q 43.21875 16.703125 43.21875 25.484375 
L 43.21875 27.484375 
z
M 52.203125 31.203125 
L 52.203125 0 
L 43.21875 0 
L 43.21875 8.296875 
Q 40.140625 3.328125 35.546875 0.953125 
Q 30.953125 -1.421875 24.3125 -1.421875 
Q 15.921875 -1.421875 10.953125 3.296875 
Q 6 8.015625 6 15.921875 
Q 6 25.140625 12.171875 29.828125 
Q 18.359375 34.515625 30.609375 34.515625 
L 43.21875 34.515625 
L 43.21875 35.40625 
Q 43.21875 41.609375 39.140625 45 
Q 35.0625 48.390625 27.6875 48.390625 
Q 23 48.390625 18.546875 47.265625 
Q 14.109375 46.140625 10.015625 43.890625 
L 10.015625 52.203125 
Q 14.9375 54.109375 19.578125 55.046875 
Q 24.21875 56 28.609375 56 
Q 40.484375 56 46.34375 49.84375 
Q 52.203125 43.703125 52.203125 31.203125 
z
" id="DejaVuSans-97"/>
      <path d="M 9.421875 75.984375 
L 18.40625 75.984375 
L 18.40625 0 
L 9.421875 0 
z
" id="DejaVuSans-108"/>
     </defs>
     <use xlink:href="#DejaVuSans-73"/>
     <use x="29.492188" xlink:href="#DejaVuSans-110"/>
     <use x="92.871094" xlink:href="#DejaVuSans-105"/>
     <use x="120.654297" xlink:href="#DejaVuSans-116"/>
     <use x="159.863281" xlink:href="#DejaVuSans-105"/>
     <use x="187.646484" xlink:href="#DejaVuSans-97"/>
     <use x="248.925781" xlink:href="#DejaVuSans-108"/>
    </g>
   </g>
  </g>
  <g id="axes_2">
   <g id="line2d_2">
    <path clip-path="url(#pf5952c2fba)" d="M 70.486701 27.01641 
L 70.384159 27.058884 
L 70.078215 27.185611 
L 69.573893 27.394507 
L 68.879475 27.682145 
L 68.006362 28.0438 
L 66.968891 28.473534 
L 65.784098 28.964292 
L 64.471436 29.508014 
L 63.05246 30.095774 
L 61.550468 30.717919 
L 59.990124 31.364234 
L 58.397049 32.024108 
L 56.7974 32.686704 
L 55.217444 33.341143 
L 53.683124 33.976679 
L 52.219634 34.582877 
L 50.851002 35.149783 
L 49.599704 35.668088 
L 48.486284 36.129281 
L 47.529025 36.525791 
L 46.743646 36.851105 
L 46.143042 37.099884 
L 45.737075 37.268041 
L 45.532412 37.352815 
L 45.532412 37.352815 
L 45.737075 37.268041 
L 46.143042 37.099884 
L 46.743646 36.851105 
L 47.529025 36.525791 
L 48.486284 36.129281 
L 49.599704 35.668088 
L 50.851002 35.149783 
L 52.219634 34.582877 
L 53.683124 33.976679 
L 55.217444 33.341143 
L 56.7974 32.686704 
L 58.397049 32.024108 
L 59.990124 31.364234 
L 61.550468 30.717919 
L 63.05246 30.095774 
L 64.471436 29.508014 
L 65.784098 28.964292 
L 66.968891 28.473534 
L 68.006362 28.0438 
L 68.879475 27.682145 
L 69.573893 27.394507 
L 70.078215 27.185611 
L 70.384159 27.058884 
L 70.486701 27.01641 
" style="fill:none;stroke:#1f77b4;stroke-linecap:square;stroke-width:1.5;"/>
   </g>
  </g>
  <g id="axes_3">
   <g id="line2d_3">
    <path clip-path="url(#p2e96f3534e)" d="M 100.001865 22.630514 
L 99.923382 22.708996 
L 99.689223 22.943156 
L 99.303232 23.329147 
L 98.771747 23.860631 
L 98.103495 24.528883 
L 97.30945 25.322929 
L 96.402648 26.22973 
L 95.39798 27.234398 
L 94.311942 28.320436 
L 93.162368 29.47001 
L 91.968132 30.664246 
L 90.748845 31.883533 
L 89.524527 33.107851 
L 88.315281 34.317097 
L 87.140964 35.491415 
L 86.020856 36.611522 
L 84.973351 37.659027 
L 84.015649 38.61673 
L 83.163474 39.468904 
L 82.43082 40.201558 
L 81.829717 40.802661 
L 81.370035 41.262344 
L 81.059321 41.573057 
L 80.902678 41.7297 
L 80.902678 41.7297 
L 81.059321 41.573057 
L 81.370035 41.262344 
L 81.829717 40.802661 
L 82.43082 40.201558 
L 83.163474 39.468904 
L 84.015649 38.61673 
L 84.973351 37.659027 
L 86.020856 36.611522 
L 87.140964 35.491415 
L 88.315281 34.317097 
L 89.524527 33.107851 
L 90.748845 31.883533 
L 91.968132 30.664246 
L 93.162368 29.47001 
L 94.311942 28.320436 
L 95.39798 27.234398 
L 96.402648 26.22973 
L 97.30945 25.322929 
L 98.103495 24.528883 
L 98.771747 23.860631 
L 99.303232 23.329147 
L 99.689223 22.943156 
L 99.923382 22.708996 
L 100.001865 22.630514 
" style="fill:none;stroke:#1f77b4;stroke-linecap:square;stroke-width:1.5;"/>
   </g>
  </g>
  <g id="axes_4">
   <g id="line2d_4">
    <path clip-path="url(#p76c46f8be8)" d="M 128.061694 19.699952 
L 128.019219 19.802494 
L 127.892493 20.108438 
L 127.683597 20.61276 
L 127.395959 21.307178 
L 127.034304 22.180291 
L 126.604569 23.217761 
L 126.113812 24.402555 
L 125.57009 25.715217 
L 124.98233 27.134193 
L 124.360185 28.636185 
L 123.713869 30.196528 
L 123.053996 31.789604 
L 122.3914 33.389253 
L 121.736961 34.969208 
L 121.101425 36.503528 
L 120.495227 37.967019 
L 119.928321 39.335651 
L 119.410016 40.586949 
L 118.948823 41.700369 
L 118.552313 42.657627 
L 118.226999 43.443007 
L 117.97822 44.043611 
L 117.810063 44.449577 
L 117.725289 44.654241 
L 117.725289 44.654241 
L 117.810063 44.449577 
L 117.97822 44.043611 
L 118.226999 43.443007 
L 118.552313 42.657627 
L 118.948823 41.700369 
L 119.410016 40.586949 
L 119.928321 39.335651 
L 120.495227 37.967019 
L 121.101425 36.503528 
L 121.736961 34.969208 
L 122.3914 33.389253 
L 123.053996 31.789604 
L 123.713869 30.196528 
L 124.360185 28.636185 
L 124.98233 27.134193 
L 125.57009 25.715217 
L 126.113812 24.402555 
L 126.604569 23.217761 
L 127.034304 22.180291 
L 127.395959 21.307178 
L 127.683597 20.61276 
L 127.892493 20.108438 
L 128.019219 19.802494 
L 128.061694 19.699952 
" style="fill:none;stroke:#1f77b4;stroke-linecap:square;stroke-width:1.5;"/>
   </g>
  </g>
  <g id="axes_5">
   <g id="line2d_5">
    <path clip-path="url(#pdf80ad8083)" d="M 155.333902 18.670875 
L 155.333902 18.781866 
L 155.333902 19.113017 
L 155.333902 19.658891 
L 155.333902 20.410524 
L 155.333902 21.355575 
L 155.333902 22.478525 
L 155.333902 23.760936 
L 155.333902 25.181751 
L 155.333902 26.71764 
L 155.333902 28.343384 
L 155.333902 30.032288 
L 155.333902 31.75662 
L 155.333902 33.488068 
L 155.333902 35.198199 
L 155.333902 36.858936 
L 155.333902 38.443007 
L 155.333902 39.924402 
L 155.333902 41.278798 
L 155.333902 42.483955 
L 155.333902 43.520084 
L 155.333902 44.370173 
L 155.333902 45.020262 
L 155.333902 45.459677 
L 155.333902 45.681203 
L 155.333902 45.681203 
L 155.333902 45.459677 
L 155.333902 45.020262 
L 155.333902 44.370173 
L 155.333902 43.520084 
L 155.333902 42.483955 
L 155.333902 41.278798 
L 155.333902 39.924402 
L 155.333902 38.443007 
L 155.333902 36.858936 
L 155.333902 35.198199 
L 155.333902 33.488068 
L 155.333902 31.75662 
L 155.333902 30.032288 
L 155.333902 28.343384 
L 155.333902 26.71764 
L 155.333902 25.181751 
L 155.333902 23.760936 
L 155.333902 22.478525 
L 155.333902 21.355575 
L 155.333902 20.410524 
L 155.333902 19.658891 
L 155.333902 19.113017 
L 155.333902 18.781866 
L 155.333902 18.670875 
" style="fill:none;stroke:#1f77b4;stroke-linecap:square;stroke-width:1.5;"/>
   </g>
  </g>
  <g id="axes_6">
   <g id="line2d_6">
    <path clip-path="url(#pbe9eb7e85f)" d="M 182.60611 19.699952 
L 182.648585 19.802494 
L 182.775311 20.108438 
L 182.984208 20.61276 
L 183.271845 21.307178 
L 183.6335 22.180291 
L 184.063235 23.217761 
L 184.553992 24.402555 
L 185.097715 25.715217 
L 185.685474 27.134193 
L 186.307619 28.636185 
L 186.953935 30.196528 
L 187.613808 31.789604 
L 188.276404 33.389253 
L 188.930844 34.969208 
L 189.56638 36.503528 
L 190.172578 37.967019 
L 190.739483 39.335651 
L 191.257788 40.586949 
L 191.718982 41.700369 
L 192.115491 42.657627 
L 192.440806 43.443007 
L 192.689584 44.043611 
L 192.857741 44.449577 
L 192.942515 44.654241 
L 192.942515 44.654241 
L 192.857741 44.449577 
L 192.689584 44.043611 
L 192.440806 43.443007 
L 192.115491 42.657627 
L 191.718982 41.700369 
L 191.257788 40.586949 
L 190.739483 39.335651 
L 190.172578 37.967019 
L 189.56638 36.503528 
L 188.930844 34.969208 
L 188.276404 33.389253 
L 187.613808 31.789604 
L 186.953935 30.196528 
L 186.307619 28.636185 
L 185.685474 27.134193 
L 185.097715 25.715217 
L 184.553992 24.402555 
L 184.063235 23.217761 
L 183.6335 22.180291 
L 183.271845 21.307178 
L 182.984208 20.61276 
L 182.775311 20.108438 
L 182.648585 19.802494 
L 182.60611 19.699952 
" style="fill:none;stroke:#1f77b4;stroke-linecap:square;stroke-width:1.5;"/>
   </g>
  </g>
  <g id="axes_7">
   <g id="line2d_7">
    <path clip-path="url(#p11ae012489)" d="M 210.66594 22.630514 
L 210.744422 22.708996 
L 210.978582 22.943156 
L 211.364573 23.329147 
L 211.896057 23.860631 
L 212.564309 24.528883 
L 213.358355 25.322929 
L 214.265156 26.22973 
L 215.269824 27.234398 
L 216.355862 28.320436 
L 217.505436 29.47001 
L 218.699672 30.664246 
L 219.918959 31.883533 
L 221.143277 33.107851 
L 222.352523 34.317097 
L 223.526841 35.491415 
L 224.646948 36.611522 
L 225.694453 37.659027 
L 226.652155 38.61673 
L 227.50433 39.468904 
L 228.236984 40.201558 
L 228.838087 40.802661 
L 229.29777 41.262344 
L 229.608483 41.573057 
L 229.765126 41.7297 
L 229.765126 41.7297 
L 229.608483 41.573057 
L 229.29777 41.262344 
L 228.838087 40.802661 
L 228.236984 40.201558 
L 227.50433 39.468904 
L 226.652155 38.61673 
L 225.694453 37.659027 
L 224.646948 36.611522 
L 223.526841 35.491415 
L 222.352523 34.317097 
L 221.143277 33.107851 
L 219.918959 31.883533 
L 218.699672 30.664246 
L 217.505436 29.47001 
L 216.355862 28.320436 
L 215.269824 27.234398 
L 214.265156 26.22973 
L 213.358355 25.322929 
L 212.564309 24.528883 
L 211.896057 23.860631 
L 211.364573 23.329147 
L 210.978582 22.943156 
L 210.744422 22.708996 
L 210.66594 22.630514 
" style="fill:none;stroke:#1f77b4;stroke-linecap:square;stroke-width:1.5;"/>
   </g>
  </g>
  <g id="axes_8">
   <g id="line2d_8">
    <path clip-path="url(#p6d53628e0f)" d="M 240.181103 27.01641 
L 240.283646 27.058884 
L 240.589589 27.185611 
L 241.093911 27.394507 
L 241.788329 27.682145 
L 242.661442 28.0438 
L 243.698913 28.473534 
L 244.883706 28.964292 
L 246.196368 29.508014 
L 247.615345 30.095774 
L 249.117336 30.717919 
L 250.67768 31.364234 
L 252.270755 32.024108 
L 253.870404 32.686704 
L 255.45036 33.341143 
L 256.98468 33.976679 
L 258.448171 34.582877 
L 259.816802 35.149783 
L 261.068101 35.668088 
L 262.18152 36.129281 
L 263.138779 36.525791 
L 263.924158 36.851105 
L 264.524762 37.099884 
L 264.930729 37.268041 
L 265.135393 37.352815 
L 265.135393 37.352815 
L 264.930729 37.268041 
L 264.524762 37.099884 
L 263.924158 36.851105 
L 263.138779 36.525791 
L 262.18152 36.129281 
L 261.068101 35.668088 
L 259.816802 35.149783 
L 258.448171 34.582877 
L 256.98468 33.976679 
L 255.45036 33.341143 
L 253.870404 32.686704 
L 252.270755 32.024108 
L 250.67768 31.364234 
L 249.117336 30.717919 
L 247.615345 30.095774 
L 246.196368 29.508014 
L 244.883706 28.964292 
L 243.698913 28.473534 
L 242.661442 28.0438 
L 241.788329 27.682145 
L 241.093911 27.394507 
L 240.589589 27.185611 
L 240.283646 27.058884 
L 240.181103 27.01641 
" style="fill:none;stroke:#1f77b4;stroke-linecap:square;stroke-width:1.5;"/>
   </g>
  </g>
  <g id="axes_9">
   <g id="line2d_9">
    <path clip-path="url(#pcfc9c435ab)" d="M 271.597752 32.189927 
L 271.708743 32.189927 
L 272.039894 32.189927 
L 272.585768 32.189927 
L 273.337401 32.189927 
L 274.282452 32.189927 
L 275.405402 32.189927 
L 276.687813 32.189927 
L 278.108628 32.189927 
L 279.644517 32.189927 
L 281.270261 32.189927 
L 282.959165 32.189927 
L 284.683497 32.189927 
L 286.414945 32.189927 
L 288.125076 32.189927 
L 289.785813 32.189927 
L 291.369884 32.189927 
L 292.851279 32.189927 
L 294.205675 32.189927 
L 295.410832 32.189927 
L 296.446961 32.189927 
L 297.29705 32.189927 
L 297.947139 32.189927 
L 298.386554 32.189927 
L 298.60808 32.189927 
L 298.60808 32.189927 
L 298.386554 32.189927 
L 297.947139 32.189927 
L 297.29705 32.189927 
L 296.446961 32.189927 
L 295.410832 32.189927 
L 294.205675 32.189927 
L 292.851279 32.189927 
L 291.369884 32.189927 
L 289.785813 32.189927 
L 288.125076 32.189927 
L 286.414945 32.189927 
L 284.683497 32.189927 
L 282.959165 32.189927 
L 281.270261 32.189927 
L 279.644517 32.189927 
L 278.108628 32.189927 
L 276.687813 32.189927 
L 275.405402 32.189927 
L 274.282452 32.189927 
L 273.337401 32.189927 
L 272.585768 32.189927 
L 272.039894 32.189927 
L 271.708743 32.189927 
L 271.597752 32.189927 
" style="fill:none;stroke:#1f77b4;stroke-linecap:square;stroke-width:1.5;"/>
   </g>
  </g>
  <g id="axes_10">
   <g id="line2d_10">
    <path clip-path="url(#pc815889e71)" d="M 327.121943 32.189927 
L 327.043461 33.412358 
L 326.809301 34.614716 
L 326.42331 35.77726 
L 325.891826 36.880899 
L 325.223574 37.907513 
L 324.429528 38.840245 
L 323.522727 39.663778 
L 322.518059 40.364591 
L 321.432021 40.931176 
L 320.282447 41.35423 
L 319.088211 41.626806 
L 317.868924 41.744429 
L 316.644606 41.705168 
L 315.43536 41.509666 
L 314.261042 41.161135 
L 313.140935 40.665297 
L 312.09343 40.030293 
L 311.135728 39.266551 
L 310.283553 38.386611 
L 309.550899 37.404921 
L 308.949796 36.337601 
L 308.490113 35.202177 
L 308.1794 34.017292 
L 308.022757 32.802401 
L 308.022757 31.577454 
L 308.1794 30.362563 
L 308.490113 29.177678 
L 308.949796 28.042253 
L 309.550899 26.974934 
L 310.283553 25.993244 
L 311.135728 25.113304 
L 312.09343 24.349562 
L 313.140935 23.714558 
L 314.261042 23.21872 
L 315.43536 22.870188 
L 316.644606 22.674687 
L 317.868924 22.635425 
L 319.088211 22.753048 
L 320.282447 23.025625 
L 321.432021 23.448679 
L 322.518059 24.015264 
L 323.522727 24.716077 
L 324.429528 25.53961 
L 325.223574 26.472341 
L 325.891826 27.498955 
L 326.42331 28.602595 
L 326.809301 29.765138 
L 327.043461 30.967497 
L 327.121943 32.189927 
" style="fill:none;stroke:#ff7f0e;stroke-linecap:square;stroke-width:1.5;"/>
   </g>
  </g>
  <g id="axes_11">
   <g id="line2d_11">
    <path clip-path="url(#pe1b0aefb6f)" d="M 359.567669 32.189927 
L 359.489186 30.967497 
L 359.255027 29.765138 
L 358.869036 28.602595 
L 358.337551 27.498955 
L 357.6693 26.472341 
L 356.875254 25.53961 
L 355.968452 24.716077 
L 354.963784 24.015264 
L 353.877747 23.448679 
L 352.728172 23.025625 
L 351.533937 22.753048 
L 350.31465 22.635425 
L 349.090332 22.674687 
L 347.881086 22.870188 
L 346.706768 23.21872 
L 345.586661 23.714558 
L 344.539156 24.349562 
L 343.581453 25.113304 
L 342.729279 25.993244 
L 341.996625 26.974934 
L 341.395521 28.042253 
L 340.935839 29.177678 
L 340.625125 30.362563 
L 340.468483 31.577454 
L 340.468483 32.802401 
L 340.625125 34.017292 
L 340.935839 35.202177 
L 341.395521 36.337601 
L 341.996625 37.404921 
L 342.729279 38.386611 
L 343.581453 39.266551 
L 344.539156 40.030293 
L 345.586661 40.665297 
L 346.706768 41.161135 
L 347.881086 41.509666 
L 349.090332 41.705168 
L 350.31465 41.744429 
L 351.533937 41.626806 
L 352.728172 41.35423 
L 353.877747 40.931176 
L 354.963784 40.364591 
L 355.968452 39.663778 
L 356.875254 38.840245 
L 357.6693 37.907513 
L 358.337551 36.880899 
L 358.869036 35.77726 
L 359.255027 34.614716 
L 359.489186 33.412358 
L 359.567669 32.189927 
" style="fill:none;stroke:#2ca02c;stroke-linecap:square;stroke-width:1.5;"/>
   </g>
  </g>
  <g id="axes_12">
   <g id="line2d_12">
    <path clip-path="url(#pd874f93840)" d="M 39.070052 78.411234 
L 38.959061 78.411234 
L 38.62791 78.411234 
L 38.082036 78.411234 
L 37.330403 78.411234 
L 36.385353 78.411234 
L 35.262402 78.411234 
L 33.979991 78.411234 
L 32.559176 78.411234 
L 31.023287 78.411234 
L 29.397543 78.411234 
L 27.708639 78.411234 
L 25.984307 78.411234 
L 24.25286 78.411234 
L 22.542728 78.411234 
L 20.881992 78.411234 
L 19.297921 78.411234 
L 17.816525 78.411234 
L 16.462129 78.411234 
L 15.256972 78.411234 
L 14.220843 78.411234 
L 13.370755 78.411234 
L 12.720666 78.411234 
L 12.28125 78.411234 
L 12.059724 78.411234 
L 12.059724 78.411234 
L 12.28125 78.411234 
L 12.720666 78.411234 
L 13.370755 78.411234 
L 14.220843 78.411234 
L 15.256972 78.411234 
L 16.462129 78.411234 
L 17.816525 78.411234 
L 19.297921 78.411234 
L 20.881992 78.411234 
L 22.542728 78.411234 
L 24.25286 78.411234 
L 25.984307 78.411234 
L 27.708639 78.411234 
L 29.397543 78.411234 
L 31.023287 78.411234 
L 32.559176 78.411234 
L 33.979991 78.411234 
L 35.262402 78.411234 
L 36.385353 78.411234 
L 37.330403 78.411234 
L 38.082036 78.411234 
L 38.62791 78.411234 
L 38.959061 78.411234 
L 39.070052 78.411234 
" style="fill:none;stroke:#1f77b4;stroke-linecap:square;stroke-width:1.5;"/>
   </g>
   <g id="text_2">
    <!-- After QWP -->
    <g transform="translate(7.2 58.892181)scale(0.072 -0.072)">
     <defs>
      <path d="M 34.1875 63.1875 
L 20.796875 26.90625 
L 47.609375 26.90625 
z
M 28.609375 72.90625 
L 39.796875 72.90625 
L 67.578125 0 
L 57.328125 0 
L 50.6875 18.703125 
L 17.828125 18.703125 
L 11.1875 0 
L 0.78125 0 
z
" id="DejaVuSans-65"/>
      <path d="M 37.109375 75.984375 
L 37.109375 68.5 
L 28.515625 68.5 
Q 23.6875 68.5 21.796875 66.546875 
Q 19.921875 64.59375 19.921875 59.515625 
L 19.921875 54.6875 
L 34.71875 54.6875 
L 34.71875 47.703125 
L 19.921875 47.703125 
L 19.921875 0 
L 10.890625 0 
L 10.890625 47.703125 
L 2.296875 47.703125 
L 2.296875 54.6875 
L 10.890625 54.6875 
L 10.890625 58.5 
Q 10.890625 67.625 15.140625 71.796875 
Q 19.390625 75.984375 28.609375 75.984375 
z
" id="DejaVuSans-102"/>
      <path d="M 56.203125 29.59375 
L 56.203125 25.203125 
L 14.890625 25.203125 
Q 15.484375 15.921875 20.484375 11.0625 
Q 25.484375 6.203125 34.421875 6.203125 
Q 39.59375 6.203125 44.453125 7.46875 
Q 49.3125 8.734375 54.109375 11.28125 
L 54.109375 2.78125 
Q 49.265625 0.734375 44.1875 -0.34375 
Q 39.109375 -1.421875 33.890625 -1.421875 
Q 20.796875 -1.421875 13.15625 6.1875 
Q 5.515625 13.8125 5.515625 26.8125 
Q 5.515625 40.234375 12.765625 48.109375 
Q 20.015625 56 32.328125 56 
Q 43.359375 56 49.78125 48.890625 
Q 56.203125 41.796875 56.203125 29.59375 
z
M 47.21875 32.234375 
Q 47.125 39.59375 43.09375 43.984375 
Q 39.0625 48.390625 32.421875 48.390625 
Q 24.90625 48.390625 20.390625 44.140625 
Q 15.875 39.890625 15.1875 32.171875 
z
" id="DejaVuSans-101"/>
      <path d="M 41.109375 46.296875 
Q 39.59375 47.171875 37.8125 47.578125 
Q 36.03125 48 33.890625 48 
Q 26.265625 48 22.1875 43.046875 
Q 18.109375 38.09375 18.109375 28.8125 
L 18.109375 0 
L 9.078125 0 
L 9.078125 54.6875 
L 18.109375 54.6875 
L 18.109375 46.1875 
Q 20.953125 51.171875 25.484375 53.578125 
Q 30.03125 56 36.53125 56 
Q 37.453125 56 38.578125 55.875 
Q 39.703125 55.765625 41.0625 55.515625 
z
" id="DejaVuSans-114"/>
      <path id="DejaVuSans-32"/>
      <path d="M 39.40625 66.21875 
Q 28.65625 66.21875 22.328125 58.203125 
Q 16.015625 50.203125 16.015625 36.375 
Q 16.015625 22.609375 22.328125 14.59375 
Q 28.65625 6.59375 39.40625 6.59375 
Q 50.140625 6.59375 56.421875 14.59375 
Q 62.703125 22.609375 62.703125 36.375 
Q 62.703125 50.203125 56.421875 58.203125 
Q 50.140625 66.21875 39.40625 66.21875 
z
M 53.21875 1.3125 
L 66.21875 -12.890625 
L 54.296875 -12.890625 
L 43.5 -1.21875 
Q 41.890625 -1.3125 41.03125 -1.359375 
Q 40.1875 -1.421875 39.40625 -1.421875 
Q 24.03125 -1.421875 14.8125 8.859375 
Q 5.609375 19.140625 5.609375 36.375 
Q 5.609375 53.65625 14.8125 63.9375 
Q 24.03125 74.21875 39.40625 74.21875 
Q 54.734375 74.21875 63.90625 63.9375 
Q 73.09375 53.65625 73.09375 36.375 
Q 73.09375 23.6875 67.984375 14.640625 
Q 62.890625 5.609375 53.21875 1.3125 
z
" id="DejaVuSans-81"/>
      <path d="M 3.328125 72.90625 
L 13.28125 72.90625 
L 28.609375 11.28125 
L 43.890625 72.90625 
L 54.984375 72.90625 
L 70.3125 11.28125 
L 85.59375 72.90625 
L 95.609375 72.90625 
L 77.296875 0 
L 64.890625 0 
L 49.515625 63.28125 
L 33.984375 0 
L 21.578125 0 
z
" id="DejaVuSans-87"/>
      <path d="M 19.671875 64.796875 
L 19.671875 37.40625 
L 32.078125 37.40625 
Q 38.96875 37.40625 42.71875 40.96875 
Q 46.484375 44.53125 46.484375 51.125 
Q 46.484375 57.671875 42.71875 61.234375 
Q 38.96875 64.796875 32.078125 64.796875 
z
M 9.8125 72.90625 
L 32.078125 72.90625 
Q 44.34375 72.90625 50.609375 67.359375 
Q 56.890625 61.8125 56.890625 51.125 
Q 56.890625 40.328125 50.609375 34.8125 
Q 44.34375 29.296875 32.078125 29.296875 
L 19.671875 29.296875 
L 19.671875 0 
L 9.8125 0 
z
" id="DejaVuSans-80"/>
     </defs>
     <use xlink:href="#DejaVuSans-65"/>
     <use x="64.783203" xlink:href="#DejaVuSans-102"/>
     <use x="98.238281" xlink:href="#DejaVuSans-116"/>
     <use x="137.447266" xlink:href="#DejaVuSans-101"/>
     <use x="198.970703" xlink:href="#DejaVuSans-114"/>
     <use x="240.083984" xlink:href="#DejaVuSans-32"/>
     <use x="271.871094" xlink:href="#DejaVuSans-81"/>
     <use x="350.582031" xlink:href="#DejaVuSans-87"/>
     <use x="449.458984" xlink:href="#DejaVuSans-80"/>
    </g>
   </g>
  </g>
  <g id="axes_13">
   <g id="line2d_13">
    <path clip-path="url(#pee54c6f58f)" d="M 70.486701 78.411234 
L 70.384159 79.072808 
L 70.078215 79.72352 
L 69.573893 80.352684 
L 68.879475 80.949969 
L 68.006362 81.505569 
L 66.968891 82.010359 
L 65.784098 82.456052 
L 64.471436 82.83533 
L 63.05246 83.141963 
L 61.550468 83.370918 
L 59.990124 83.518436 
L 58.397049 83.582093 
L 56.7974 83.560845 
L 55.217444 83.45504 
L 53.683124 83.266416 
L 52.219634 82.998071 
L 50.851002 82.654409 
L 49.599704 82.241075 
L 48.486284 81.764855 
L 47.529025 81.233568 
L 46.743646 80.655939 
L 46.143042 80.041451 
L 45.737075 79.400196 
L 45.532412 78.742702 
L 45.532412 78.079765 
L 45.737075 77.422271 
L 46.143042 76.781016 
L 46.743646 76.166529 
L 47.529025 75.588899 
L 48.486284 75.057613 
L 49.599704 74.581393 
L 50.851002 74.168058 
L 52.219634 73.824397 
L 53.683124 73.556051 
L 55.217444 73.367427 
L 56.7974 73.261623 
L 58.397049 73.240374 
L 59.990124 73.304032 
L 61.550468 73.451549 
L 63.05246 73.680504 
L 64.471436 73.987138 
L 65.784098 74.366415 
L 66.968891 74.812108 
L 68.006362 75.316898 
L 68.879475 75.872498 
L 69.573893 76.469783 
L 70.078215 77.098947 
L 70.384159 77.749659 
L 70.486701 78.411234 
" style="fill:none;stroke:#ff7f0e;stroke-linecap:square;stroke-width:1.5;"/>
   </g>
  </g>
  <g id="axes_14">
   <g id="line2d_14">
    <path clip-path="url(#p0a6e5e3ccf)" d="M 100.001865 78.411234 
L 99.923382 79.633664 
L 99.689223 80.836023 
L 99.303232 81.998566 
L 98.771747 83.102206 
L 98.103495 84.12882 
L 97.30945 85.061551 
L 96.402648 85.885084 
L 95.39798 86.585897 
L 94.311942 87.152482 
L 93.162368 87.575536 
L 91.968132 87.848113 
L 90.748845 87.965736 
L 89.524527 87.926474 
L 88.315281 87.730973 
L 87.140964 87.382441 
L 86.020856 86.886603 
L 84.973351 86.251599 
L 84.015649 85.487857 
L 83.163474 84.607917 
L 82.43082 83.626227 
L 81.829717 82.558908 
L 81.370035 81.423483 
L 81.059321 80.238598 
L 80.902678 79.023707 
L 80.902678 77.79876 
L 81.059321 76.583869 
L 81.370035 75.398984 
L 81.829717 74.26356 
L 82.43082 73.19624 
L 83.163474 72.21455 
L 84.015649 71.33461 
L 84.973351 70.570868 
L 86.020856 69.935864 
L 87.140964 69.440026 
L 88.315281 69.091495 
L 89.524527 68.895993 
L 90.748845 68.856732 
L 91.968132 68.974355 
L 93.162368 69.246931 
L 94.311942 69.669985 
L 95.39798 70.23657 
L 96.402648 70.937383 
L 97.30945 71.760916 
L 98.103495 72.693648 
L 98.771747 73.720262 
L 99.303232 74.823901 
L 99.689223 75.986445 
L 99.923382 77.188803 
L 100.001865 78.411234 
" style="fill:none;stroke:#ff7f0e;stroke-linecap:square;stroke-width:1.5;"/>
   </g>
  </g>
  <g id="axes_15">
   <g id="line2d_15">
    <path clip-path="url(#p6ee2e17ab3)" d="M 128.061694 78.411234 
L 128.019219 80.008416 
L 127.892493 81.579373 
L 127.683597 83.098309 
L 127.395959 84.540284 
L 127.034304 85.88162 
L 126.604569 87.100292 
L 126.113812 88.17629 
L 125.57009 89.091946 
L 124.98233 89.832225 
L 124.360185 90.384972 
L 123.713869 90.74111 
L 123.053996 90.894792 
L 122.3914 90.843495 
L 121.736961 90.58806 
L 121.101425 90.132681 
L 120.495227 89.484837 
L 119.928321 88.655165 
L 119.410016 87.657288 
L 118.948823 86.507591 
L 118.552313 85.224951 
L 118.226999 83.830431 
L 117.97822 82.346928 
L 117.810063 80.7988 
L 117.725289 79.211469 
L 117.725289 77.610998 
L 117.810063 76.023667 
L 117.97822 74.47554 
L 118.226999 72.992036 
L 118.552313 71.597516 
L 118.948823 70.314877 
L 119.410016 69.165179 
L 119.928321 68.167302 
L 120.495227 67.33763 
L 121.101425 66.689786 
L 121.736961 66.234408 
L 122.3914 65.978973 
L 123.053996 65.927675 
L 123.713869 66.081357 
L 124.360185 66.437495 
L 124.98233 66.990242 
L 125.57009 67.730521 
L 126.113812 68.646177 
L 126.604569 69.722175 
L 127.034304 70.940848 
L 127.395959 72.282183 
L 127.683597 73.724158 
L 127.892493 75.243094 
L 128.019219 76.814051 
L 128.061694 78.411234 
" style="fill:none;stroke:#ff7f0e;stroke-linecap:square;stroke-width:1.5;"/>
   </g>
  </g>
  <g id="axes_16">
   <g id="line2d_16">
    <path clip-path="url(#p2bf5fadb97)" d="M 155.333902 78.411234 
L 155.333902 80.140012 
L 155.333902 81.840403 
L 155.333902 83.484488 
L 155.333902 85.04527 
L 155.333902 86.497121 
L 155.333902 87.816202 
L 155.333902 88.980854 
L 155.333902 89.971953 
L 155.333902 90.773226 
L 155.333902 91.371515 
L 155.333902 91.756996 
L 155.333902 91.92334 
L 155.333902 91.867816 
L 155.333902 91.591335 
L 155.333902 91.098437 
L 155.333902 90.397216 
L 155.333902 89.499185 
L 155.333902 88.419091 
L 155.333902 87.174667 
L 155.333902 85.786349 
L 155.333902 84.276931 
L 155.333902 82.671198 
L 155.333902 80.995517 
L 155.333902 79.277402 
L 155.333902 77.545065 
L 155.333902 75.82695 
L 155.333902 74.151269 
L 155.333902 72.545537 
L 155.333902 71.036119 
L 155.333902 69.6478 
L 155.333902 68.403377 
L 155.333902 67.323282 
L 155.333902 66.425251 
L 155.333902 65.72403 
L 155.333902 65.231132 
L 155.333902 64.954651 
L 155.333902 64.899127 
L 155.333902 65.065471 
L 155.333902 65.450953 
L 155.333902 66.049242 
L 155.333902 66.850514 
L 155.333902 67.841613 
L 155.333902 69.006265 
L 155.333902 70.325346 
L 155.333902 71.777197 
L 155.333902 73.337979 
L 155.333902 74.982064 
L 155.333902 76.682456 
L 155.333902 78.411234 
" style="fill:none;stroke:#1f77b4;stroke-linecap:square;stroke-width:1.5;"/>
   </g>
  </g>
  <g id="axes_17">
   <g id="line2d_17">
    <path clip-path="url(#pa068c57ba1)" d="M 182.60611 78.411234 
L 182.648585 80.008416 
L 182.775311 81.579373 
L 182.984208 83.098309 
L 183.271845 84.540284 
L 183.6335 85.88162 
L 184.063235 87.100292 
L 184.553992 88.17629 
L 185.097715 89.091946 
L 185.685474 89.832225 
L 186.307619 90.384972 
L 186.953935 90.74111 
L 187.613808 90.894792 
L 188.276404 90.843495 
L 188.930844 90.58806 
L 189.56638 90.132681 
L 190.172578 89.484837 
L 190.739483 88.655165 
L 191.257788 87.657288 
L 191.718982 86.507591 
L 192.115491 85.224951 
L 192.440806 83.830431 
L 192.689584 82.346928 
L 192.857741 80.7988 
L 192.942515 79.211469 
L 192.942515 77.610998 
L 192.857741 76.023667 
L 192.689584 74.47554 
L 192.440806 72.992036 
L 192.115491 71.597516 
L 191.718982 70.314877 
L 191.257788 69.165179 
L 190.739483 68.167302 
L 190.172578 67.33763 
L 189.56638 66.689786 
L 188.930844 66.234408 
L 188.276404 65.978973 
L 187.613808 65.927675 
L 186.953935 66.081357 
L 186.307619 66.437495 
L 185.685474 66.990242 
L 185.097715 67.730521 
L 184.553992 68.646177 
L 184.063235 69.722175 
L 183.6335 70.940848 
L 183.271845 72.282183 
L 182.984208 73.724158 
L 182.775311 75.243094 
L 182.648585 76.814051 
L 182.60611 78.411234 
" style="fill:none;stroke:#2ca02c;stroke-linecap:square;stroke-width:1.5;"/>
   </g>
  </g>
  <g id="axes_18">
   <g id="line2d_18">
    <path clip-path="url(#p1545dd7b10)" d="M 210.66594 78.411234 
L 210.744422 79.633664 
L 210.978582 80.836023 
L 211.364573 81.998566 
L 211.896057 83.102206 
L 212.564309 84.12882 
L 213.358355 85.061551 
L 214.265156 85.885084 
L 215.269824 86.585897 
L 216.355862 87.152482 
L 217.505436 87.575536 
L 218.699672 87.848113 
L 219.918959 87.965736 
L 221.143277 87.926474 
L 222.352523 87.730973 
L 223.526841 87.382441 
L 224.646948 86.886603 
L 225.694453 86.251599 
L 226.652155 85.487857 
L 227.50433 84.607917 
L 228.236984 83.626227 
L 228.838087 82.558908 
L 229.29777 81.423483 
L 229.608483 80.238598 
L 229.765126 79.023707 
L 229.765126 77.79876 
L 229.608483 76.583869 
L 229.29777 75.398984 
L 228.838087 74.26356 
L 228.236984 73.19624 
L 227.50433 72.21455 
L 226.652155 71.33461 
L 225.694453 70.570868 
L 224.646948 69.935864 
L 223.526841 69.440026 
L 222.352523 69.091495 
L 221.143277 68.895993 
L 219.918959 68.856732 
L 218.699672 68.974355 
L 217.505436 69.246931 
L 216.355862 69.669985 
L 215.269824 70.23657 
L 214.265156 70.937383 
L 213.358355 71.760916 
L 212.564309 72.693648 
L 211.896057 73.720262 
L 211.364573 74.823901 
L 210.978582 75.986445 
L 210.744422 77.188803 
L 210.66594 78.411234 
" style="fill:none;stroke:#2ca02c;stroke-linecap:square;stroke-width:1.5;"/>
   </g>
  </g>
  <g id="axes_19">
   <g id="line2d_19">
    <path clip-path="url(#p6023ce2ac8)" d="M 240.181103 78.411234 
L 240.283646 79.072808 
L 240.589589 79.72352 
L 241.093911 80.352684 
L 241.788329 80.949969 
L 242.661442 81.505569 
L 243.698913 82.010359 
L 244.883706 82.456052 
L 246.196368 82.83533 
L 247.615345 83.141963 
L 249.117336 83.370918 
L 250.67768 83.518436 
L 252.270755 83.582093 
L 253.870404 83.560845 
L 255.45036 83.45504 
L 256.98468 83.266416 
L 258.448171 82.998071 
L 259.816802 82.654409 
L 261.068101 82.241075 
L 262.18152 81.764855 
L 263.138779 81.233568 
L 263.924158 80.655939 
L 264.524762 80.041451 
L 264.930729 79.400196 
L 265.135393 78.742702 
L 265.135393 78.079765 
L 264.930729 77.422271 
L 264.524762 76.781016 
L 263.924158 76.166529 
L 263.138779 75.588899 
L 262.18152 75.057613 
L 261.068101 74.581393 
L 259.816802 74.168058 
L 258.448171 73.824397 
L 256.98468 73.556051 
L 255.45036 73.367427 
L 253.870404 73.261623 
L 252.270755 73.240374 
L 250.67768 73.304032 
L 249.117336 73.451549 
L 247.615345 73.680504 
L 246.196368 73.987138 
L 244.883706 74.366415 
L 243.698913 74.812108 
L 242.661442 75.316898 
L 241.788329 75.872498 
L 241.093911 76.469783 
L 240.589589 77.098947 
L 240.283646 77.749659 
L 240.181103 78.411234 
" style="fill:none;stroke:#2ca02c;stroke-linecap:square;stroke-width:1.5;"/>
   </g>
  </g>
  <g id="axes_20">
   <g id="line2d_20">
    <path clip-path="url(#p50a90df8b1)" d="M 271.597752 78.411234 
L 271.708743 78.411234 
L 272.039894 78.411234 
L 272.585768 78.411234 
L 273.337401 78.411234 
L 274.282452 78.411234 
L 275.405402 78.411234 
L 276.687813 78.411234 
L 278.108628 78.411234 
L 279.644517 78.411234 
L 281.270261 78.411234 
L 282.959165 78.411234 
L 284.683497 78.411234 
L 286.414945 78.411234 
L 288.125076 78.411234 
L 289.785813 78.411234 
L 291.369884 78.411234 
L 292.851279 78.411234 
L 294.205675 78.411234 
L 295.410832 78.411234 
L 296.446961 78.411234 
L 297.29705 78.411234 
L 297.947139 78.411234 
L 298.386554 78.411234 
L 298.60808 78.411234 
L 298.60808 78.411234 
L 298.386554 78.411234 
L 297.947139 78.411234 
L 297.29705 78.411234 
L 296.446961 78.411234 
L 295.410832 78.411234 
L 294.205675 78.411234 
L 292.851279 78.411234 
L 291.369884 78.411234 
L 289.785813 78.411234 
L 288.125076 78.411234 
L 286.414945 78.411234 
L 284.683497 78.411234 
L 282.959165 78.411234 
L 281.270261 78.411234 
L 279.644517 78.411234 
L 278.108628 78.411234 
L 276.687813 78.411234 
L 275.405402 78.411234 
L 274.282452 78.411234 
L 273.337401 78.411234 
L 272.585768 78.411234 
L 272.039894 78.411234 
L 271.708743 78.411234 
L 271.597752 78.411234 
" style="fill:none;stroke:#1f77b4;stroke-linecap:square;stroke-width:1.5;"/>
   </g>
  </g>
  <g id="axes_21">
   <g id="line2d_21">
    <path clip-path="url(#p9c06e946e4)" d="M 327.121943 87.970647 
L 327.043461 87.892165 
L 326.809301 87.658005 
L 326.42331 87.272014 
L 325.891826 86.740529 
L 325.223574 86.072278 
L 324.429528 85.278232 
L 323.522727 84.371431 
L 322.518059 83.366763 
L 321.432021 82.280725 
L 320.282447 81.131151 
L 319.088211 79.936915 
L 317.868924 78.717628 
L 316.644606 77.49331 
L 315.43536 76.284064 
L 314.261042 75.109746 
L 313.140935 73.989639 
L 312.09343 72.942134 
L 311.135728 71.984431 
L 310.283553 71.132257 
L 309.550899 70.399603 
L 308.949796 69.7985 
L 308.490113 69.338817 
L 308.1794 69.028104 
L 308.022757 68.871461 
L 308.022757 68.871461 
L 308.1794 69.028104 
L 308.490113 69.338817 
L 308.949796 69.7985 
L 309.550899 70.399603 
L 310.283553 71.132257 
L 311.135728 71.984431 
L 312.09343 72.942134 
L 313.140935 73.989639 
L 314.261042 75.109746 
L 315.43536 76.284064 
L 316.644606 77.49331 
L 317.868924 78.717628 
L 319.088211 79.936915 
L 320.282447 81.131151 
L 321.432021 82.280725 
L 322.518059 83.366763 
L 323.522727 84.371431 
L 324.429528 85.278232 
L 325.223574 86.072278 
L 325.891826 86.740529 
L 326.42331 87.272014 
L 326.809301 87.658005 
L 327.043461 87.892165 
L 327.121943 87.970647 
" style="fill:none;stroke:#1f77b4;stroke-linecap:square;stroke-width:1.5;"/>
   </g>
  </g>
  <g id="axes_22">
   <g id="line2d_22">
    <path clip-path="url(#pabc1a3e8d9)" d="M 359.567669 68.85182 
L 359.489186 68.930303 
L 359.255027 69.164462 
L 358.869036 69.550453 
L 358.337551 70.081938 
L 357.6693 70.750189 
L 356.875254 71.544235 
L 355.968452 72.451037 
L 354.963784 73.455705 
L 353.877747 74.541742 
L 352.728172 75.691317 
L 351.533937 76.885552 
L 350.31465 78.104839 
L 349.090332 79.329157 
L 347.881086 80.538403 
L 346.706768 81.712721 
L 345.586661 82.832828 
L 344.539156 83.880333 
L 343.581453 84.838036 
L 342.729279 85.69021 
L 341.996625 86.422864 
L 341.395521 87.023968 
L 340.935839 87.48365 
L 340.625125 87.794364 
L 340.468483 87.951006 
L 340.468483 87.951006 
L 340.625125 87.794364 
L 340.935839 87.48365 
L 341.395521 87.023968 
L 341.996625 86.422864 
L 342.729279 85.69021 
L 343.581453 84.838036 
L 344.539156 83.880333 
L 345.586661 82.832828 
L 346.706768 81.712721 
L 347.881086 80.538403 
L 349.090332 79.329157 
L 350.31465 78.104839 
L 351.533937 76.885552 
L 352.728172 75.691317 
L 353.877747 74.541742 
L 354.963784 73.455705 
L 355.968452 72.451037 
L 356.875254 71.544235 
L 357.6693 70.750189 
L 358.337551 70.081938 
L 358.869036 69.550453 
L 359.255027 69.164462 
L 359.489186 68.930303 
L 359.567669 68.85182 
" style="fill:none;stroke:#1f77b4;stroke-linecap:square;stroke-width:1.5;"/>
   </g>
  </g>
  <g id="axes_23">
   <g id="line2d_23">
    <path clip-path="url(#p2594494ec7)" d="M 39.070052 124.63254 
L 38.959061 124.63254 
L 38.62791 124.63254 
L 38.082036 124.63254 
L 37.330403 124.63254 
L 36.385353 124.63254 
L 35.262402 124.63254 
L 33.979991 124.63254 
L 32.559176 124.63254 
L 31.023287 124.63254 
L 29.397543 124.63254 
L 27.708639 124.63254 
L 25.984307 124.63254 
L 24.25286 124.63254 
L 22.542728 124.63254 
L 20.881992 124.63254 
L 19.297921 124.63254 
L 17.816525 124.63254 
L 16.462129 124.63254 
L 15.256972 124.63254 
L 14.220843 124.63254 
L 13.370755 124.63254 
L 12.720666 124.63254 
L 12.28125 124.63254 
L 12.059724 124.63254 
L 12.059724 124.63254 
L 12.28125 124.63254 
L 12.720666 124.63254 
L 13.370755 124.63254 
L 14.220843 124.63254 
L 15.256972 124.63254 
L 16.462129 124.63254 
L 17.816525 124.63254 
L 19.297921 124.63254 
L 20.881992 124.63254 
L 22.542728 124.63254 
L 24.25286 124.63254 
L 25.984307 124.63254 
L 27.708639 124.63254 
L 29.397543 124.63254 
L 31.023287 124.63254 
L 32.559176 124.63254 
L 33.979991 124.63254 
L 35.262402 124.63254 
L 36.385353 124.63254 
L 37.330403 124.63254 
L 38.082036 124.63254 
L 38.62791 124.63254 
L 38.959061 124.63254 
L 39.070052 124.63254 
" style="fill:none;stroke:#1f77b4;stroke-linecap:square;stroke-width:1.5;"/>
   </g>
   <g id="text_3">
    <!-- After HWP -->
    <g transform="translate(7.326563 105.113488)scale(0.072 -0.072)">
     <defs>
      <path d="M 9.8125 72.90625 
L 19.671875 72.90625 
L 19.671875 43.015625 
L 55.515625 43.015625 
L 55.515625 72.90625 
L 65.375 72.90625 
L 65.375 0 
L 55.515625 0 
L 55.515625 34.71875 
L 19.671875 34.71875 
L 19.671875 0 
L 9.8125 0 
z
" id="DejaVuSans-72"/>
     </defs>
     <use xlink:href="#DejaVuSans-65"/>
     <use x="64.783203" xlink:href="#DejaVuSans-102"/>
     <use x="98.238281" xlink:href="#DejaVuSans-116"/>
     <use x="137.447266" xlink:href="#DejaVuSans-101"/>
     <use x="198.970703" xlink:href="#DejaVuSans-114"/>
     <use x="240.083984" xlink:href="#DejaVuSans-32"/>
     <use x="271.871094" xlink:href="#DejaVuSans-72"/>
     <use x="347.066406" xlink:href="#DejaVuSans-87"/>
     <use x="445.943359" xlink:href="#DejaVuSans-80"/>
    </g>
   </g>
  </g>
  <g id="axes_24">
   <g id="line2d_24">
    <path clip-path="url(#p4c0d6222a2)" d="M 70.486701 129.806057 
L 70.384159 129.763583 
L 70.078215 129.636857 
L 69.573893 129.42796 
L 68.879475 129.140322 
L 68.006362 128.778667 
L 66.968891 128.348933 
L 65.784098 127.858175 
L 64.471436 127.314453 
L 63.05246 126.726694 
L 61.550468 126.104548 
L 59.990124 125.458233 
L 58.397049 124.798359 
L 56.7974 124.135763 
L 55.217444 123.481324 
L 53.683124 122.845788 
L 52.219634 122.23959 
L 50.851002 121.672685 
L 49.599704 121.15438 
L 48.486284 120.693186 
L 47.529025 120.296677 
L 46.743646 119.971362 
L 46.143042 119.722584 
L 45.737075 119.554427 
L 45.532412 119.469652 
L 45.532412 119.469652 
L 45.737075 119.554427 
L 46.143042 119.722584 
L 46.743646 119.971362 
L 47.529025 120.296677 
L 48.486284 120.693186 
L 49.599704 121.15438 
L 50.851002 121.672685 
L 52.219634 122.23959 
L 53.683124 122.845788 
L 55.217444 123.481324 
L 56.7974 124.135763 
L 58.397049 124.798359 
L 59.990124 125.458233 
L 61.550468 126.104548 
L 63.05246 126.726694 
L 64.471436 127.314453 
L 65.784098 127.858175 
L 66.968891 128.348933 
L 68.006362 128.778667 
L 68.879475 129.140322 
L 69.573893 129.42796 
L 70.078215 129.636857 
L 70.384159 129.763583 
L 70.486701 129.806057 
" style="fill:none;stroke:#1f77b4;stroke-linecap:square;stroke-width:1.5;"/>
   </g>
  </g>
  <g id="axes_25">
   <g id="line2d_25">
    <path clip-path="url(#p855e7c2001)" d="M 100.001865 134.191954 
L 99.923382 134.113471 
L 99.689223 133.879312 
L 99.303232 133.493321 
L 98.771747 132.961836 
L 98.103495 132.293584 
L 97.30945 131.499539 
L 96.402648 130.592737 
L 95.39798 129.588069 
L 94.311942 128.502031 
L 93.162368 127.352457 
L 91.968132 126.158221 
L 90.748845 124.938934 
L 89.524527 123.714616 
L 88.315281 122.50537 
L 87.140964 121.331053 
L 86.020856 120.210945 
L 84.973351 119.16344 
L 84.015649 118.205738 
L 83.163474 117.353563 
L 82.43082 116.620909 
L 81.829717 116.019806 
L 81.370035 115.560124 
L 81.059321 115.24941 
L 80.902678 115.092767 
L 80.902678 115.092767 
L 81.059321 115.24941 
L 81.370035 115.560124 
L 81.829717 116.019806 
L 82.43082 116.620909 
L 83.163474 117.353563 
L 84.015649 118.205738 
L 84.973351 119.16344 
L 86.020856 120.210945 
L 87.140964 121.331053 
L 88.315281 122.50537 
L 89.524527 123.714616 
L 90.748845 124.938934 
L 91.968132 126.158221 
L 93.162368 127.352457 
L 94.311942 128.502031 
L 95.39798 129.588069 
L 96.402648 130.592737 
L 97.30945 131.499539 
L 98.103495 132.293584 
L 98.771747 132.961836 
L 99.303232 133.493321 
L 99.689223 133.879312 
L 99.923382 134.113471 
L 100.001865 134.191954 
" style="fill:none;stroke:#1f77b4;stroke-linecap:square;stroke-width:1.5;"/>
   </g>
  </g>
  <g id="axes_26">
   <g id="line2d_26">
    <path clip-path="url(#p05e75afccc)" d="M 128.061694 137.122516 
L 128.019219 137.019973 
L 127.892493 136.714029 
L 127.683597 136.209708 
L 127.395959 135.515289 
L 127.034304 134.642177 
L 126.604569 133.604706 
L 126.113812 132.419913 
L 125.57009 131.107251 
L 124.98233 129.688274 
L 124.360185 128.186283 
L 123.713869 126.625939 
L 123.053996 125.032863 
L 122.3914 123.433215 
L 121.736961 121.853259 
L 121.101425 120.318939 
L 120.495227 118.855448 
L 119.928321 117.486817 
L 119.410016 116.235518 
L 118.948823 115.122098 
L 118.552313 114.16484 
L 118.226999 113.379461 
L 117.97822 112.778857 
L 117.810063 112.37289 
L 117.725289 112.168226 
L 117.725289 112.168226 
L 117.810063 112.37289 
L 117.97822 112.778857 
L 118.226999 113.379461 
L 118.552313 114.16484 
L 118.948823 115.122098 
L 119.410016 116.235518 
L 119.928321 117.486817 
L 120.495227 118.855448 
L 121.101425 120.318939 
L 121.736961 121.853259 
L 122.3914 123.433215 
L 123.053996 125.032863 
L 123.713869 126.625939 
L 124.360185 128.186283 
L 124.98233 129.688274 
L 125.57009 131.107251 
L 126.113812 132.419913 
L 126.604569 133.604706 
L 127.034304 134.642177 
L 127.395959 135.515289 
L 127.683597 136.209708 
L 127.892493 136.714029 
L 128.019219 137.019973 
L 128.061694 137.122516 
" style="fill:none;stroke:#1f77b4;stroke-linecap:square;stroke-width:1.5;"/>
   </g>
  </g>
  <g id="axes_27">
   <g id="line2d_27">
    <path clip-path="url(#pf3b3cef7e3)" d="M 155.333902 138.151592 
L 155.333902 138.040601 
L 155.333902 137.70945 
L 155.333902 137.163576 
L 155.333902 136.411943 
L 155.333902 135.466893 
L 155.333902 134.343942 
L 155.333902 133.061531 
L 155.333902 131.640716 
L 155.333902 130.104827 
L 155.333902 128.479083 
L 155.333902 126.790179 
L 155.333902 125.065847 
L 155.333902 123.3344 
L 155.333902 121.624268 
L 155.333902 119.963532 
L 155.333902 118.379461 
L 155.333902 116.898065 
L 155.333902 115.543669 
L 155.333902 114.338512 
L 155.333902 113.302383 
L 155.333902 112.452295 
L 155.333902 111.802206 
L 155.333902 111.36279 
L 155.333902 111.141264 
L 155.333902 111.141264 
L 155.333902 111.36279 
L 155.333902 111.802206 
L 155.333902 112.452295 
L 155.333902 113.302383 
L 155.333902 114.338512 
L 155.333902 115.543669 
L 155.333902 116.898065 
L 155.333902 118.379461 
L 155.333902 119.963532 
L 155.333902 121.624268 
L 155.333902 123.3344 
L 155.333902 125.065847 
L 155.333902 126.790179 
L 155.333902 128.479083 
L 155.333902 130.104827 
L 155.333902 131.640716 
L 155.333902 133.061531 
L 155.333902 134.343942 
L 155.333902 135.466893 
L 155.333902 136.411943 
L 155.333902 137.163576 
L 155.333902 137.70945 
L 155.333902 138.040601 
L 155.333902 138.151592 
" style="fill:none;stroke:#1f77b4;stroke-linecap:square;stroke-width:1.5;"/>
   </g>
  </g>
  <g id="axes_28">
   <g id="line2d_28">
    <path clip-path="url(#p7f92bf3049)" d="M 182.60611 137.122516 
L 182.648585 137.019973 
L 182.775311 136.714029 
L 182.984208 136.209708 
L 183.271845 135.515289 
L 183.6335 134.642177 
L 184.063235 133.604706 
L 184.553992 132.419913 
L 185.097715 131.107251 
L 185.685474 129.688274 
L 186.307619 128.186283 
L 186.953935 126.625939 
L 187.613808 125.032863 
L 188.276404 123.433215 
L 188.930844 121.853259 
L 189.56638 120.318939 
L 190.172578 118.855448 
L 190.739483 117.486817 
L 191.257788 116.235518 
L 191.718982 115.122098 
L 192.115491 114.16484 
L 192.440806 113.379461 
L 192.689584 112.778857 
L 192.857741 112.37289 
L 192.942515 112.168226 
L 192.942515 112.168226 
L 192.857741 112.37289 
L 192.689584 112.778857 
L 192.440806 113.379461 
L 192.115491 114.16484 
L 191.718982 115.122098 
L 191.257788 116.235518 
L 190.739483 117.486817 
L 190.172578 118.855448 
L 189.56638 120.318939 
L 188.930844 121.853259 
L 188.276404 123.433215 
L 187.613808 125.032863 
L 186.953935 126.625939 
L 186.307619 128.186283 
L 185.685474 129.688274 
L 185.097715 131.107251 
L 184.553992 132.419913 
L 184.063235 133.604706 
L 183.6335 134.642177 
L 183.271845 135.515289 
L 182.984208 136.209708 
L 182.775311 136.714029 
L 182.648585 137.019973 
L 182.60611 137.122516 
" style="fill:none;stroke:#1f77b4;stroke-linecap:square;stroke-width:1.5;"/>
   </g>
  </g>
  <g id="axes_29">
   <g id="line2d_29">
    <path clip-path="url(#p2e3a18d276)" d="M 210.66594 134.191954 
L 210.744422 134.113471 
L 210.978582 133.879312 
L 211.364573 133.493321 
L 211.896057 132.961836 
L 212.564309 132.293584 
L 213.358355 131.499539 
L 214.265156 130.592737 
L 215.269824 129.588069 
L 216.355862 128.502031 
L 217.505436 127.352457 
L 218.699672 126.158221 
L 219.918959 124.938934 
L 221.143277 123.714616 
L 222.352523 122.50537 
L 223.526841 121.331053 
L 224.646948 120.210945 
L 225.694453 119.16344 
L 226.652155 118.205738 
L 227.50433 117.353563 
L 228.236984 116.620909 
L 228.838087 116.019806 
L 229.29777 115.560124 
L 229.608483 115.24941 
L 229.765126 115.092767 
L 229.765126 115.092767 
L 229.608483 115.24941 
L 229.29777 115.560124 
L 228.838087 116.019806 
L 228.236984 116.620909 
L 227.50433 117.353563 
L 226.652155 118.205738 
L 225.694453 119.16344 
L 224.646948 120.210945 
L 223.526841 121.331053 
L 222.352523 122.50537 
L 221.143277 123.714616 
L 219.918959 124.938934 
L 218.699672 126.158221 
L 217.505436 127.352457 
L 216.355862 128.502031 
L 215.269824 129.588069 
L 214.265156 130.592737 
L 213.358355 131.499539 
L 212.564309 132.293584 
L 211.896057 132.961836 
L 211.364573 133.493321 
L 210.978582 133.879312 
L 210.744422 134.113471 
L 210.66594 134.191954 
" style="fill:none;stroke:#1f77b4;stroke-linecap:square;stroke-width:1.5;"/>
   </g>
  </g>
  <g id="axes_30">
   <g id="line2d_30">
    <path clip-path="url(#pb00471218b)" d="M 240.181103 129.806057 
L 240.283646 129.763583 
L 240.589589 129.636857 
L 241.093911 129.42796 
L 241.788329 129.140322 
L 242.661442 128.778667 
L 243.698913 128.348933 
L 244.883706 127.858175 
L 246.196368 127.314453 
L 247.615345 126.726694 
L 249.117336 126.104548 
L 250.67768 125.458233 
L 252.270755 124.798359 
L 253.870404 124.135763 
L 255.45036 123.481324 
L 256.98468 122.845788 
L 258.448171 122.23959 
L 259.816802 121.672685 
L 261.068101 121.15438 
L 262.18152 120.693186 
L 263.138779 120.296677 
L 263.924158 119.971362 
L 264.524762 119.722584 
L 264.930729 119.554427 
L 265.135393 119.469652 
L 265.135393 119.469652 
L 264.930729 119.554427 
L 264.524762 119.722584 
L 263.924158 119.971362 
L 263.138779 120.296677 
L 262.18152 120.693186 
L 261.068101 121.15438 
L 259.816802 121.672685 
L 258.448171 122.23959 
L 256.98468 122.845788 
L 255.45036 123.481324 
L 253.870404 124.135763 
L 252.270755 124.798359 
L 250.67768 125.458233 
L 249.117336 126.104548 
L 247.615345 126.726694 
L 246.196368 127.314453 
L 244.883706 127.858175 
L 243.698913 128.348933 
L 242.661442 128.778667 
L 241.788329 129.140322 
L 241.093911 129.42796 
L 240.589589 129.636857 
L 240.283646 129.763583 
L 240.181103 129.806057 
" style="fill:none;stroke:#1f77b4;stroke-linecap:square;stroke-width:1.5;"/>
   </g>
  </g>
  <g id="axes_31">
   <g id="line2d_31">
    <path clip-path="url(#p932de23b1e)" d="M 271.597752 124.63254 
L 271.708743 124.63254 
L 272.039894 124.63254 
L 272.585768 124.63254 
L 273.337401 124.63254 
L 274.282452 124.63254 
L 275.405402 124.63254 
L 276.687813 124.63254 
L 278.108628 124.63254 
L 279.644517 124.63254 
L 281.270261 124.63254 
L 282.959165 124.63254 
L 284.683497 124.63254 
L 286.414945 124.63254 
L 288.125076 124.63254 
L 289.785813 124.63254 
L 291.369884 124.63254 
L 292.851279 124.63254 
L 294.205675 124.63254 
L 295.410832 124.63254 
L 296.446961 124.63254 
L 297.29705 124.63254 
L 297.947139 124.63254 
L 298.386554 124.63254 
L 298.60808 124.63254 
L 298.60808 124.63254 
L 298.386554 124.63254 
L 297.947139 124.63254 
L 297.29705 124.63254 
L 296.446961 124.63254 
L 295.410832 124.63254 
L 294.205675 124.63254 
L 292.851279 124.63254 
L 291.369884 124.63254 
L 289.785813 124.63254 
L 288.125076 124.63254 
L 286.414945 124.63254 
L 284.683497 124.63254 
L 282.959165 124.63254 
L 281.270261 124.63254 
L 279.644517 124.63254 
L 278.108628 124.63254 
L 276.687813 124.63254 
L 275.405402 124.63254 
L 274.282452 124.63254 
L 273.337401 124.63254 
L 272.585768 124.63254 
L 272.039894 124.63254 
L 271.708743 124.63254 
L 271.597752 124.63254 
" style="fill:none;stroke:#1f77b4;stroke-linecap:square;stroke-width:1.5;"/>
   </g>
  </g>
  <g id="axes_32">
   <g id="line2d_32">
    <path clip-path="url(#p7cef9e66d0)" d="M 327.121943 124.63254 
L 327.043461 123.410109 
L 326.809301 122.207751 
L 326.42331 121.045208 
L 325.891826 119.941568 
L 325.223574 118.914954 
L 324.429528 117.982223 
L 323.522727 117.15869 
L 322.518059 116.457877 
L 321.432021 115.891292 
L 320.282447 115.468238 
L 319.088211 115.195661 
L 317.868924 115.078038 
L 316.644606 115.117299 
L 315.43536 115.312801 
L 314.261042 115.661332 
L 313.140935 116.157171 
L 312.09343 116.792174 
L 311.135728 117.555916 
L 310.283553 118.435857 
L 309.550899 119.417546 
L 308.949796 120.484866 
L 308.490113 121.62029 
L 308.1794 122.805176 
L 308.022757 124.020066 
L 308.022757 125.245014 
L 308.1794 126.459904 
L 308.490113 127.64479 
L 308.949796 128.780214 
L 309.550899 129.847534 
L 310.283553 130.829223 
L 311.135728 131.709164 
L 312.09343 132.472906 
L 313.140935 133.107909 
L 314.261042 133.603748 
L 315.43536 133.952279 
L 316.644606 134.147781 
L 317.868924 134.187042 
L 319.088211 134.069419 
L 320.282447 133.796842 
L 321.432021 133.373788 
L 322.518059 132.807203 
L 323.522727 132.10639 
L 324.429528 131.282857 
L 325.223574 130.350126 
L 325.891826 129.323512 
L 326.42331 128.219873 
L 326.809301 127.057329 
L 327.043461 125.854971 
L 327.121943 124.63254 
" style="fill:none;stroke:#2ca02c;stroke-linecap:square;stroke-width:1.5;"/>
   </g>
  </g>
  <g id="axes_33">
   <g id="line2d_33">
    <path clip-path="url(#p7dad6e0727)" d="M 359.567669 124.63254 
L 359.489186 125.854971 
L 359.255027 127.057329 
L 358.869036 128.219873 
L 358.337551 129.323512 
L 357.6693 130.350126 
L 356.875254 131.282857 
L 355.968452 132.10639 
L 354.963784 132.807203 
L 353.877747 133.373788 
L 352.728172 133.796842 
L 351.533937 134.069419 
L 350.31465 134.187042 
L 349.090332 134.147781 
L 347.881086 133.952279 
L 346.706768 133.603748 
L 345.586661 133.107909 
L 344.539156 132.472906 
L 343.581453 131.709164 
L 342.729279 130.829223 
L 341.996625 129.847534 
L 341.395521 128.780214 
L 340.935839 127.64479 
L 340.625125 126.459904 
L 340.468483 125.245014 
L 340.468483 124.020066 
L 340.625125 122.805176 
L 340.935839 121.62029 
L 341.395521 120.484866 
L 341.996625 119.417546 
L 342.729279 118.435857 
L 343.581453 117.555916 
L 344.539156 116.792174 
L 345.586661 116.157171 
L 346.706768 115.661332 
L 347.881086 115.312801 
L 349.090332 115.117299 
L 350.31465 115.078038 
L 351.533937 115.195661 
L 352.728172 115.468238 
L 353.877747 115.891292 
L 354.963784 116.457877 
L 355.968452 117.15869 
L 356.875254 117.982223 
L 357.6693 118.914954 
L 358.337551 119.941568 
L 358.869036 121.045208 
L 359.255027 122.207751 
L 359.489186 123.410109 
L 359.567669 124.63254 
" style="fill:none;stroke:#ff7f0e;stroke-linecap:square;stroke-width:1.5;"/>
   </g>
  </g>
 </g>
 <defs>
  <clipPath id="p055b6c602b">
   <rect height="27.038105" width="27.038105" x="12.031948" y="18.670875"/>
  </clipPath>
  <clipPath id="pf5952c2fba">
   <rect height="27.038105" width="27.038105" x="44.477673" y="18.670875"/>
  </clipPath>
  <clipPath id="p2e96f3534e">
   <rect height="27.038105" width="27.038105" x="76.923399" y="18.670875"/>
  </clipPath>
  <clipPath id="p76c46f8be8">
   <rect height="27.038105" width="27.038105" x="109.369124" y="18.670875"/>
  </clipPath>
  <clipPath id="pdf80ad8083">
   <rect height="27.038105" width="27.038105" x="141.81485" y="18.670875"/>
  </clipPath>
  <clipPath id="pbe9eb7e85f">
   <rect height="27.038105" width="27.038105" x="174.260575" y="18.670875"/>
  </clipPath>
  <clipPath id="p11ae012489">
   <rect height="27.038105" width="27.038105" x="206.706301" y="18.670875"/>
  </clipPath>
  <clipPath id="p6d53628e0f">
   <rect height="27.038105" width="27.038105" x="239.152026" y="18.670875"/>
  </clipPath>
  <clipPath id="pcfc9c435ab">
   <rect height="27.038105" width="27.038105" x="271.597752" y="18.670875"/>
  </clipPath>
  <clipPath id="pc815889e71">
   <rect height="27.038105" width="27.038105" x="304.043478" y="18.670875"/>
  </clipPath>
  <clipPath id="pe1b0aefb6f">
   <rect height="27.038105" width="27.038105" x="336.489203" y="18.670875"/>
  </clipPath>
  <clipPath id="pd874f93840">
   <rect height="27.038105" width="27.038105" x="12.031948" y="64.892181"/>
  </clipPath>
  <clipPath id="pee54c6f58f">
   <rect height="27.038105" width="27.038105" x="44.477673" y="64.892181"/>
  </clipPath>
  <clipPath id="p0a6e5e3ccf">
   <rect height="27.038105" width="27.038105" x="76.923399" y="64.892181"/>
  </clipPath>
  <clipPath id="p6ee2e17ab3">
   <rect height="27.038105" width="27.038105" x="109.369124" y="64.892181"/>
  </clipPath>
  <clipPath id="p2bf5fadb97">
   <rect height="27.038105" width="27.038105" x="141.81485" y="64.892181"/>
  </clipPath>
  <clipPath id="pa068c57ba1">
   <rect height="27.038105" width="27.038105" x="174.260575" y="64.892181"/>
  </clipPath>
  <clipPath id="p1545dd7b10">
   <rect height="27.038105" width="27.038105" x="206.706301" y="64.892181"/>
  </clipPath>
  <clipPath id="p6023ce2ac8">
   <rect height="27.038105" width="27.038105" x="239.152026" y="64.892181"/>
  </clipPath>
  <clipPath id="p50a90df8b1">
   <rect height="27.038105" width="27.038105" x="271.597752" y="64.892181"/>
  </clipPath>
  <clipPath id="p9c06e946e4">
   <rect height="27.038105" width="27.038105" x="304.043478" y="64.892181"/>
  </clipPath>
  <clipPath id="pabc1a3e8d9">
   <rect height="27.038105" width="27.038105" x="336.489203" y="64.892181"/>
  </clipPath>
  <clipPath id="p2594494ec7">
   <rect height="27.038105" width="27.038105" x="12.031948" y="111.113488"/>
  </clipPath>
  <clipPath id="p4c0d6222a2">
   <rect height="27.038105" width="27.038105" x="44.477673" y="111.113488"/>
  </clipPath>
  <clipPath id="p855e7c2001">
   <rect height="27.038105" width="27.038105" x="76.923399" y="111.113488"/>
  </clipPath>
  <clipPath id="p05e75afccc">
   <rect height="27.038105" width="27.038105" x="109.369124" y="111.113488"/>
  </clipPath>
  <clipPath id="pf3b3cef7e3">
   <rect height="27.038105" width="27.038105" x="141.81485" y="111.113488"/>
  </clipPath>
  <clipPath id="p7f92bf3049">
   <rect height="27.038105" width="27.038105" x="174.260575" y="111.113488"/>
  </clipPath>
  <clipPath id="p2e3a18d276">
   <rect height="27.038105" width="27.038105" x="206.706301" y="111.113488"/>
  </clipPath>
  <clipPath id="pb00471218b">
   <rect height="27.038105" width="27.038105" x="239.152026" y="111.113488"/>
  </clipPath>
  <clipPath id="p932de23b1e">
   <rect height="27.038105" width="27.038105" x="271.597752" y="111.113488"/>
  </clipPath>
  <clipPath id="p7cef9e66d0">
   <rect height="27.038105" width="27.038105" x="304.043478" y="111.113488"/>
  </clipPath>
  <clipPath id="p7dad6e0727">
   <rect height="27.038105" width="27.038105" x="336.489203" y="111.113488"/>
  </clipPath>
 </defs>
</svg>
